<svg xmlns="http://www.w3.org/2000/svg" width="460" height="460" fill="none"><defs><clipPath id="a"><path fill="#fff" fill-opacity="0" d="M0 0h460v460H0z"/></clipPath></defs><path fill="none" d="M0 0h460v460H0z"/><g clip-path="url(#a)"><path stroke="gray" d="M227.99 169.84c-.92-.09-1.27 2.55-.24 2.4.45-.07.5-2.38.24-2.4ZM135.69 204.92c0-1-5.01-2.3-5.62-1.84.04.66.32 1.28.78 1.76 0 .49-2.11-.05-2.29.46.14.26.38.44.67.52.28.08.58.04.84-.1.75-.28 5.62.74 5.62-.8Z"/><path stroke="gray" d="M167.97 233.33c-1.99-.28-2.11-.49-3.86.23 1.95-.8-3.14-3.16-3.17-3.17-.86-.23-1.73 2.09-2.5 1.76.15.06.92-1.84.14-2.56-.79-.72-2.18 1.01-2.25.97.13.07 2.18-5.14-.32-6.5-2.41-1.58-4.39-1.29-6.58-2.38-2.04-1.03-2.23-3.56-5.1-3.38 1.17-.07-2.26-3.06-1.31-2.68-1.53-.61-4.48.68-6.44.24-.78-.17-1.29-2.18-2.42-2.18-1.73 0-1.26 3.1-1.54 3.68-.8 1.76-1.12-4.6-.31-4.08-.58-.37-4.6 2.43-5.05 2.76-.92.68-1.27 2-2.21 2.28 1.58-.47-5.06-1.2-3.68-.68-4.2-1.6-2.28-2.14-3.42-5.85-.33-1.05.76-1.55-.13-2.5-.89-.96-4.43-1.11-5.52-.41-.77.42.1-2.91.44-3.26 1.37-1.38 1.84-4.6-.31-4.67-3.52-.09-1.79 3.03-3.98 4.11-6.58 3.28-6.88-5.99-6.67-9.88.36-6.85 5.3-4.99 9.42-4.51-1.08-.13-.16-1.77 1.09-1.84 1.17.04 2.32.29 3.4.74 2.08.62 1.55 0 3.1 2.62.6 1.05.84 3.68 2.2 4.12.12 0-.07-9.59.71-10.74.99-1.45 3.34-3.26 4.09-4.21 1.7-2.19.06.27.27-2.26 0-.27-.68-3.87.48-3.87-.45 0 .4 3.38.35 3.41 1.16-.8.41-1.98.46-2.89 0-.72 3.75-1.97 4.06-2.63.13-.27-1.8 0-1.8-.05 0-.98 3.02-.81 3.46-1.12.18-1.25.61-2.44 1.28-3.51 1.36-1.41 4.76-1.1 5.81-3.25-.13.27.45 1.33 1.18 1.12-2.68.79-3.96 2.21-.75 1.73 1.64-.25 4.12-1.84 5.34-2.76.08-.05-.56-.84-.46-1.4-.06.35-2.03 1.91-2.49 1.84-3.13-.57-1.64-2.66-2.85-3.47-.32.15-.68.22-1.04.19-.33-1.12 3.78-1.97-.17-2.48-2.76-.36-4.1 3.61-5.98 3.61.92 0 5.07-5.04 7.03-5.52.78-.26 11.83-1.06 10.91-3.49a8.36 8.36 0 0 0-.79-.4c-.76-.71 2-1.41-1.06-1.77-.08-.33-.11-.68-.09-1.02-.29-.2-3.38 1.08-3.38 1.07-.24-1.12 2.86-1.25 3.21-1.84 0 .04-6.63-3.18-6.04-3.97 1.23-1.58 1.22.19.43-2.27-.22-.67-3.18-4.81-2.97-5-1.43 1.29-.62 4.25-3.12 4.26-2.76 0-2.5-3.17-2.5-4.98 0-.8-6.85-2.84-7.36-2.82-3.87.1-2.28.34-2.52 3.42-.04.52-.61 2.7-.56 3.01.46 2.39 2.43 3.15 1.22 6.21-.36.92-2.56 1.18-2.76 1.73-.21.72.86 1.46.69 2.32-.06.35.36 3.64.14 3.54-1.46-.69-.82.67-2.45-.8-1.84-1.64-.56-4.02-1.64-5.28-.42-.5-5.77-2.53-6.96-3.07a7.448 7.448 0 0 0-5.15-.81c.47-.07-.44-2.76-.64-3.06-1.16-1.97-2.41.22-1.71-3.68.17-.98 4.53-5.66 4.6-5.52 0-.2-3.57-1.53-3.55-1.59.5-1.19 3.53 2.11 4.36-.38-.38 1.15 4.79-1.12 3.5-2.05-.54-.39-3.58 0-3.39-1.43-.12.92 6.5 1.29 3.87-1.06-.09-.08 2.41 0 2.92 0 .35 0-.92-1.21-.84-1.33.38-.38 1.7 1.84 3.44-.09 1.34-1.5-.7-1.66-.78-3.11 0-.17 2.07-.73 1.38-1.77-.53-.79-3.28-1.74-4.19-1.44-.63.2.23 3.29-1.49 4.29-.23-.22-.4-.5-.51-.8-.73.05.65 2.69-.28 2.26-.93-.44-1.01-2.31-1.16-2.44-.37-.32-.85-1.51-1.47-2.06s-1.21 2.05-1.45 2.1c-.92.16.12-2.26.19-2.37.42-.79-2.24-.53-2.19-.49-.85-.73.58-1.14.73-1.37-.19.3-2.05-3.02-2.05-3.01-1.22-2.76-.39 0-.71-3.13.15 1.46 5.69-2.44 3.77-3.08-1.93-.63-4.75-.84-5.18.71-.24.92-.1 4.42-.46 5.83-.12.45-1.63 1.17-1.11 2.97.22.7 4.25 1.61 2.35 3.14.01-.19.1-.37.25-.5s.34-.2.53-.19c.06.12-2.06 4-1.84 3.83a29.92 29.92 0 0 1-2.43-2.48c-.11-.2 2.7-.64 2.85-.77 1.08-1.06-1.6-1.04-1.6-1.2 0-.3 1.44-.12.92-.52a3.2 3.2 0 0 0-2.43-.59c-.42.07-.83.23-1.19.46-.36.24-.67.54-.91.9-.5.66 3.95 2.35-1.4 3.04-2.44.32-3.43-.92-5.52-1.4-.62-.15-.59-.8-1.7-.92-.39 0-3.04 1.12-2.23 1.49.59.25 2.76-1.24 3.12-.86-1.43-1.57-1.7 4.43-2.63 3.95-.41-.22-.16-1.67-1.42-2.08-1.73-.58-5.65 1.2-6.93-.21-.63-.68 1.64-.85 1.47-1.26-.64-1.47-4.24-1.57-5.52-1.88-1.28-.31-2.26-1.04-3.42-1.17-1.41-.15-1.95.86-3.25.86-.2 0 .26-1.75-.34-1.84a7.35 7.35 0 0 1-1.59 1.84c-1.25-.1-1.08-3.17-2.57-2.94 1.01-.16-2.13 2.23-1.91 2.11-1.34.85-2.72 1.62-4.14 2.31-.78-.05 4.41-3.23 4.4-3.11.06-.63-4.49 1.29-4.99 1.57-.51.28 0-.8-.92-.49-2.17.79-.63 1.46-1.15 2.03.21-.22-13.43-3.21-14.33-3.29-1.33-.11-9.62-1.05-10.12-1.62-.92-.99-3.28.07-4.37 1.25-.87.92-7.36 2.39-7.64 3.8-.67 2.95 6.23 3.5 6.75 5.11 0 .13-7.76-.29-8.61 1.75.29-.7 2.17 2.23 2.36 2.31.92.33 5.63-.68 5.65-.66 1.33 1.32-1.55 3.1-2.26 3.77-.86.79-.92-.49-1.95.85-.61.57-1.26 1.1-1.94 1.58.22-.21 1.56 2.8 1.61 2.84.82.72 3.33.71 3.03.41.79.79-.07 2.45.67 2.84.49.26 2.21.05 3.16.44-.85-.34 2.6-1.5 2.4-.92-.47 1.41-6.13 8.28-6.95 7.36.99 1.09 11.19-5.8 11.19-7.43-.27-.23-.58-.4-.92-.51-.23-.58 5.52-5.37 5.32-3.51 0-.19-3.43 2.63-2.64 3.35.24.21 4.04-1.1 4.6-1.32.56-.22-1.38-1.94 0-2.19.47-.09 2.28.98 2.35.92a.457.457 0 0 0-.26-.02c-.09.01-.18.04-.25.09-.08.04-.15.11-.2.18-.05.08-.08.16-.09.25.17.56 8.11.21 8.61.65-.24-.22 5.09 4.39 5.04 3.11-.23-.46-.29-.98-.17-1.47 2.54 1.84-1.18 2.35-1.18 2.24 0 .13 1.94 2.85 1.84 2.88.36-.19-.49-2.47.09-2.26.13.29.18.61.15.93.65.82.76-1.84.68-1.66.13-.36.2 3.51-.21 3.46-.59-.09 3.38-.34 2.21.23.37-.19-1.44-1.26-.44-1.35 1.55-.12.33 1.31-.7 1.4-.01.76.05 1.51.18 2.26.32.23 1.73-1.11 2.45-.98.72.13.59 2.76.99 3.31.28.4 2.27 2.4 2.53 2.76 1.24 1.3 2.64 2.43 4.17 3.37-.14-.11 5.23 4.42 2.28 4.42-.12 0-3.21-8.33-6.64-5.91.72-.5 4.6 5.08 4.87 5.8 1.43 4.12-.92 8.91.68 13.41 1.09 3.08 3.98 5.03 5.93 7.15 1.2 1.45 2.24 3.02 3.1 4.69 1.37 2.32 1.68 2.91 1.4 4.23 0 .07 6.18 6.54 5.95 6.71.58-.42-6.13-12.55-5.94-12.58 2.43-.24 2.64 3.56 3.09 4.25 1.24 1.93 3.51 3.68 4.87 5.47 2.33 2.99 2.64 6.13 4.72 8.28 1.38 1.43 4.6 2.67 6.44 3.25 2.43.77 4.99.04 6.95 1.96.92.85 2.31.92 2.94 1.51 1.72 1.59 2.43.8 4.04 2.45 1.08 1.11 1.4 2.14 2.02 2.76 1.03 1.01 2.76 2.94 4.32 3.05 1.55.11 1.06-1.71 1.84-1.53 3.46.82 2.83 5.46 1.43 8.28-1.51 3.08-3.44 3.62-1.74 6.72.12.23-1.68 3.15-1.51 4.06.34 1.73 4.2 6.86 5.1 8.65 1.73 3.4 3.94 3.75 6.39 6.53 2.23 2.54 1.52 4.6 1.14 8.06-.56 5.07-.71 10.06-1.79 14.97-.43 1.96-4.15 12.16-2.76 14.12.64.92.92-2.57 1.51-2.76.59-.19-.38 7.61-.99 7.18-.32-.23.36-2.53-.49-2.16.77-.34-1.58 3.25-1.59 3.29.09-1.01 1.2 1.23 1.25 1.59.07.63 1.36-.41 1.3.5.09-1.36-3.87 1.56-2 1.28.31-.18.59-.4.85-.66.27-.05-1.95 2.33-.46 2.57.29.05.45-1.53.86-1.11.88.87-1.66 2.76-1.07 3.47.12.15 1.37-.56 1.61-.06.07.16-.84.86-.7.92.5.18 1.63-.49 1.85.23.21.72-2.21.06-1.39 1.23.32.44 2.29-1.42 2.65-.2-.1-.35-2.2 1.1-2.28 1.2.86-.25 1.72-.45 2.6-.6.18.4-2.88 1.59-2.97 1.24.1.4 1.85 1.49 2.14 1.21.48-.48-.64-.24-.24-.76.28-.37 2.63-1.67 2.76-2.02-.21.12-.38.3-.49.51-.12.22-.17.46-.16.7.35.07.71.08 1.06.06-.29-.33-.7 1.54-.59 1.49-.15-.14-.27-.3-.35-.48-.09-.18-.14-.38-.14-.58-.53-.23-.26 1.1-.33 1.05a.712.712 0 0 0-.86-.48c.43-.61-.53 1.84-.53 1 0-.47 1.49 1.37 1.45 1.34.2-.31.34-.64.42-1 .79.62 1.61 1.19 2.47 1.71.46.14-.33-1.07-.06-1.04 1.21-.1 2.41-.35 3.56-.73-1.65-.61-3.67-3.55-3.99-3.68-.24-.07-1.18.14-1.05-.5.14-.63 1.03.22 1.26 0 .23-.22-1.04-2.18-.78-2.76.42-.92 1.14-1.18 1.61-2.03.63-1.14 2.17-2.02 2.27-3.29.08-1-1.45-1.02-1.37-1.3.28-1.11.99-3.81 2.13-5.25.43-.55 1.9-1.99 1.89-2-.35-.31-3.17-.06-1.69-2.29-.47.7 3.36-.61 3.17-.5.52-.3-.08-2.07.19-2.35 1.31-1.39 6.12.62 6.66-3.09.12-.82-2.13-3.68-2.18-3.62.76-.8 4.32.92 6.28-1.16.49-.52 2.93-4.83 2.92-4.7-.24.63-.55 1.23-.92 1.79 0-.85 2.86-3.22 3.23-4.21.53-1.42-.11-3.27.62-4.6 1.49-2.6 4.81-2.1 6.65-3.26 2.36-1.5 3.04-3.68 3.77-6.44.45-1.71 0-6.07.92-7.44-.13.27 9.22-10.01 3.38-9.68-2.05.11-4.02-2.51-6.25-2.82Zm-66.19-38.15Z"/><path stroke="gray" d="M116.77 200.57c-.92-1.33 6.1.45 6.44.64 1.14.65 3.92 3.95 5.59 1.71 1.35-1.84-13.94-5.13-12.03-2.35ZM126.31 205.89c.2-.46-2.65-.96-2.39-.46.21.4 2.19.92 2.39.46ZM139.23 205.54c.21-.57-2.39-.79-1.92 0 .46.8 1.83.32 1.92 0ZM146.1 302.56c-.57-.11-1.95 1.16-1.35 1.48.62.34 1.92-1.37 1.35-1.48ZM148.2 303.18c-.38-.86-2.31.75-1.92.98.41.22 2.12-.56 1.92-.98ZM109.34 230.67c.21-.38-.2-2.17-.73-1.32-.52.86.52 1.69.73 1.32ZM151.84 119.32c-.47.14 3.37 3.44 3.52.92.11-2.06-3.05-1.06-3.52-.92Z"/><path stroke="gray" d="M185.67 118.42c.12-.31 1.68-2.11 1.48-2.18 1.02.38 3.96 3.87 4.1.64.11-1.88-2.65-1.88-3.06-3.45-.12-.43 3.59 1.2 2.84-1.1-.41-1.31-4.05.92-3.91-.48-.05.49 1.26-1.71 1.03-1.46 1.16-1.28 6.44 3.12 3.03-1.3-.14-.18 3.06-.12 3.22-.77.16-.66-3.18-.56-2.43-1.84.92-1.57 3.34.7 1.84-2.5.06.11-3.85-1.22-3.25-1.84.59-.61 5.18 0 5.01-.71-.44-1.67-2.72.1-2.9-1.34-.1-.74 1.38 0 1.6-.39.83-1.3-3.59-.24-3.43-.12-1.2-.92 4.89-6.6 5.07-6.36-1.11-1.49-2.14.99-2.93.21s4.41-1.43 4.55-1.53c.44-.27-2.76-.92-2.92-.71.56-.92 8.06-.83 8.06-2.9 0-2.76-7.11-.11-7.9.14-.63.2-1.53-.61-1.96-.45-1.43.55-2.76 2.87-4.27 3.09 1.5-.22 3.2-3.85.75-4.28-.38-.07-4.52 2.99-4.78 2.07-.2-.73 2.49-1.07 2.43-1.68-.13-1.28-8.8.73-8.81.54-.13-1.76 12.07-1.05 13.29-2.71.68-.92-15.51-3.53-16.97-3.15-.37.09-2.57.87-2.82.92-.51-.07-1.02-.09-1.53-.09-2.76.32-5.43.13-8.18.66-.34.06 1.19 1.09 1.17 1.18-.02.1-2.41.25-2.08.68-.07-.09 3.39 2.46 3.15 2.52-1.94.41-5.52-4.02-7.45-2.59-.48.35 1.42 1.52 1.42 1.79 0 1.06-3.9-1.22-3.79-1.22-.28 0-.17 2.33-.72 2.68 1.68-1.05-2.08-2.53-2.67-2.59a3.14 3.14 0 0 0-3.1 1.79c-.88.3-2.16-.76-3.29-.3-.81.34.71 1.7-.41 2.31-.3.17-8.17.36-7.12 2.76.79 1.84 5.04-.08 1.27 3-1.03.84-4.01.5-5.31 1.38-6.03 4.12 5.58 1.4 5.46 3.68 0 .26-6.16.27-6.04.84.16.84 4.31 2.76 5.41 2.86 2.24.21 4.38-1.46 7.36 0 2.61 1.26 5.25 3.85 6.04 6.76.92 3.42-1.26 3.85 2.32 3.85.9 1.2 1.92 2.3 3.06 3.28-.13.1-3.99-1.52-3.99-.54 0 2.3 5.39.62 3.95 4.72-.22.61-1.92-.26-2.43.98-.39.83-.6 1.72-.6 2.64-.09 1.65 2.4 7.36 4.23 9.89 1.47 2.02 2.34 2.33 4.42 3.27 3.26 1.46 2.5 1.65 4.34-1.08.71-1.06-.38-2.09-.1-2.92.15-.43 1.56-.42 1.77-1.35.27-1.2.1-3.18.26-3.68.39-.05.79.01 1.16.15.15-.09 2.18-2.81 2.42-2.81.15.13.25.32.28.52.02.2-.02.4-.13.57.4 1.24 5.04-2.9 5.14-2.97 1.77-1.29 1.51-1.37 3.1-2.07 3.5-1.5 7.45-2.81 10.3-4.5-.38.23-5.02-.49-5.05-.41ZM73.88 103.8c.22.39.5.74.83 1.03 1.2 0 1.69-2.59 2.45-2.76.75-.17.23 2.3 1.96.62.67-.64.52-1.23 1.16-1.94.18-.19-3.68-.06-4.19.11-1.46.52-4.04 3.78-3.99 3.74 1.02-.55 1.02 0 1.78-.8ZM80.68 104.56c-.71.01-1.41.21-2.02.59-.31.44 1.74.28 1.52.36-.75.04-1.48.3-2.09.75 1.12 1.62 3.01.08 3.9-.47-.46.28 2.7 1.06 2.91.74-.3.45-3.27.87-3.23 1.34.17 1.55 5.94-.5 6.79-.92 2.86-1.25 3.68-.23 2.36-2.76.12.21-3.09-2.01-3.6-1.74-1.49.77.92 2.32.56 2.86-.85 1.41-3.74-1.58-4.42-1.76-1.76-.37-2.09-.09-3.55.02-1.73.14.92 1.27.87.99ZM102.53 111.44c-.18.14-.3.34-.35.57-.04.23-.01.46.1.67.15-.32-1.73-.92-1.69-.92-.41-.64 2.68-1.22.68-2.57-1.48-1.01-1.31.87-1.28.86.26-.13-4.43-.55-2.94.8.5.14 1.01.23 1.53.29 1.77 1.54-3.07.71-2.57.62-1.41.29 2.85 3.76 3.28 4.08 2.11 1.58 4.6-4.33 3.24-4.4ZM71.43 116.84c1.27 0 2.61-1.84 3.23-2.32 1.64-1.23 3.97-2.42 5.62-3.79.62-.51-7.55-2.86-8.62-2.52-3.42 1.07-.44.34-1.55 2.22-.35.58-2.19 3.62-1.96 3.9.5.27 1.05.44 1.62.49.59.64 1.15 1.31 1.66 2.02ZM77.85 104.14c0-.52-2.3 1.26-1.84 1.32.92.11 1.84-.81 1.84-1.32ZM131.65 116.76c.12-.06.23-.13.33-.23.09-.09.16-.21.21-.33.05-.13.07-.26.06-.39.23.75-3.92-1.42-4.3-1.55-.92-.31-.34-1.16-1.84-1.5-1.02-.23-2.59 1.29-2.54 1.3-1.38-.49-.8.1-2.36.1-1.15 0 .79-6.3-4.21-3.29-3.02 1.84-.51 2.76-.38 4.71 0 .33-2.25-.67-2.16-2.13.08-1.32 1.74-2.51 1.74-3.35 0-1.54-5.44 1.84-5.7 3.07-.36 1.62 1.97 4.86 2.93 3.59-.25.32-2.55-.3-2.48.31.33 3.32 12.3 1.25 12.56 1.92-.16-.11-.3-.24-.4-.4-.11-.16-.18-.33-.21-.52.16-.55 4.21 2.51 4.24 2.76-.47.26-.86.63-1.15 1.08.77.65 1.63-.65 2.92.68 1.45 1.51 1.42 1.2 1.77 3.49.07.48 4.4-.92 3.62 1.08-.78 1.99-1.94-.52-2.51-.33-.57.18-2.05.24-2.84.48.06.51.22 1 .48 1.45-1.22.6-3.21.06-4.15.92-3.45 2.95 3.68 1.16 4.67 1.47.98.31 6.94 7.6 8.49 5.52.38-.53-2.63-3.79-3.19-3.68 2.28-.66 5.63 3.11 4.44-.71-.54-1.7-4.6-3.02-2.82-5.14.74-.92 3.81 2.88 4.33 2.86 0 0 3.01-3.16 3.01-3.15 0-2.11-8.33-3.25-8.07-5.3a4.34 4.34 0 0 1 1.62-.4c-.37-.38-.84-.64-1.36-.74-.13-1.27 1.34-1.2-.78-1.2 1.54 0-2.12-1.67-2.26-1.72-.43-.14-2.1-.65-2.1-.65.13 0 .27-.03.39-.08ZM61.46 154.53c.18-.13-.37-3.65-1.78-2.83-.97.56 1.2 3.22 1.78 2.83ZM93.15 105.97c-.32.8.69 1.1 1.09.63.36-.46-.78-1.43-1.09-.63ZM122.51 135.77c-.94.05-.72 1.52-.15 1.43.36-.06 1.09-1.49.15-1.43Z"/><path stroke="gray" d="M125.72 123.26c.62.5-1.58 2.41 1.84 1.78 2.85-.52-2.76-2.57-1.84-1.78ZM119.73 134.52c-.1-.46-2.96.72-1.97 1.42.83.57 2.07-.96 1.97-1.42ZM121.53 107.79c5.52-3.98-11.66-1.99-11.43-3.28.27-.35.57-.66.92-.92.42-.56-9.34-2.53-8.59-1.37 2.05 3.12 3.97.17 5.34 4.5.48 1.47 12.38 2.07 13.76 1.07ZM97.47 119.45c0-.56-3.97-3.39-4.32-4.29-.19-1.22-.28-2.45-.26-3.68.47-.42.42-.92-.16-1.33a2.141 2.141 0 0 0-2.29.57c.55.38 1.04.84 1.45 1.37 0-.27-2.6-1.21-2.86-.69-.37.73 1.19 3.4.69 3.68-.09 0-3.51-3.85-3.68-2.97.37.31.68.67.92 1.08 0 .14-1.89.06-1.79.32-1.37-3.62-2.5.72-3.75-.45-.12-.13 2.14-1.84-.53-1.84-1.03 0-3.68 1.48-4.02 2.35-1.55 3.68 1.92.97 3.38 2.1.07.05-3.08.87-3.08 1.3 0 1.94 7.45-.19 7.45 1.44 0 .39-6.71 0-6.44 1.08.69 3 9.2 2.41 10.93 2.17.9-.23 1.83-.35 2.76-.38.58 0 5.34 1.64 4.77-.3-.46-1.52-1.55.46-1.93-.57.31-.37.68-.67 1.09-.91.28-.36 1.61.74 1.67-.05ZM143.81 159.98c.1-.64-3.32-1.59-3.23-1.19.1.45 3.13 1.84 3.23 1.19ZM109.25 100.95c.87.34 2.12-.46 1.15-.98-.92-.51-2.12.57-1.15.98ZM100.8 96.48c-.41.65.79 2.76 1.51 2.76 6.13 0-1.11-3.42-1.51-2.76ZM107.53 95.06c.13.39-2.19.92-2.08 1.08 1.53 1.69 3.93 2.76 6.1 2.18.14 0 4.49-3.92 4.37-3.26-.18.92-3.22-3.07-3.38-3.2-.17-.13-6.62-3.52-7.24-3.04a.914.914 0 0 0 .77.67c0 .36-1.58.08-1.73.37.3.23.58.47.86.72-.32.61-2.14-.3-2.07.92.38.46.87.83 1.42 1.07.04.65-3.45 0-1.62 1.01.06 0 4.83 2.23 4.6 1.48ZM126.37 111.9c0-1.04-4.93-2.59-5.31-1.71-1.32 3.11 5.31 2.4 5.31 1.71ZM103.09 100.2c1.04.86 3.54-.34 3.44-.68-.11-.35-4.06.18-3.44.68ZM80.96 99.12c.36.51 1.3 1.03 1.56.34.27-.68-1.72-.57-1.56-.34ZM102.41 106.94c1.35 1.15 6.04 1.27 2.97-1.25-.84-.69-3.31.96-2.97 1.25ZM91.58 99.58c-.1.85 1.33 2.14 1.78 1.53.41-.57-1.68-2.39-1.78-1.53ZM98.27 103.96c-.58-.47-1.25-.78-1.98-.92-.44.35.65 1.44.29 1.61-.56.27-1.94-2.36-2.71-2.41-1.65-.09.59 2.36.66 2.41 1.39.83 2.49.19 3.88.57-.2-.06 1.53 4.4 3.16.46 1.19-2.92-2.22-2.99-3.63-3.56-1.24-.53.52 1.84.33 1.84ZM83.16 99.69c-.02 2.98 3.69-.52 3.68-.52.92-.15-3.68-1.24-3.68.52ZM87.68 97.63c0-2.21-4.91.24-4.79.35.46.1.93.13 1.4.11.43.19 3.39.15 3.39-.46ZM98.56 93.01c.36.34 1.2 1.31 1.56.62.37-.68-2.19-1.22-1.56-.62ZM94.55 97.12c-.1.25-1.93.17-1.84.34.1.17 10.02 4.08 4.95-.92-.67-.64-1.5-1.08-2.4-1.3-4.48-.55-1.9.81-2.27 1.08.84-.28 1.36 0 1.56.8ZM116.16 128.69c-.49.07-2.91 3.32-2.6 4.35.31 1.03 8.01-.51 7.97-.23.1-.6-5.09-4.15-5.37-4.12Z"/><path stroke="gray" d="M109.58 88.51c.37.01.74.07 1.1.17-2.08 2.44 3.88 2.05 3.86 1.59.26 3.79 7.59-1.27 8.48-.65 1.69 1.21-4.45 2.39-4.31 2.6 0 0 1.98 1.67 1.73 1.68-1.17.09-7.28-4.25-6.24-.39.23.92 5.04 2.76 5.04 3.61 0 0-6.06-1.84-6.2.8-.1 1.64 3.34-.29 3.37-.19-.53-1.19.54 3.68.54 2.76 0 1.1-4.7-2.87-4.5-.68.43.39.89.75 1.38 1.06 0 .38-4.03.71-3.08 1.67 1.08 1.11 13.33 1.45 13.94 0 .62-1.45-4.6-1.09-4.83-1.47.73 1.14 4.6-2.07 4.91-2.22 1.95-1.08 2.76.51 3.79-2.54.3-.92-3.38-.92-3.34-.92 2.14-1.52 4.96-.92 6.92-1.84 1.18-.59 8.21-4.22 8.28-4.76.06-.53-3.3-.13-3.49-.22 1.62.71 7.36-3.11 7.45-3.09-.46-.15-7.12-2.41-7.23-.7.26-.4.64-.72 1.08-.92-1.31.52-7.85.17-8.73.21-3 .16-5.9-.39-8.54.34-.54.14-12.81 4.17-13.04 3.68.21.11.45.15.68.12.24-.02.46-.12.64-.28 1.84-1.33.32.55.34.58ZM148.37 159.28c-.13.28-2.42 2.58-1.49 3.13 2.11 1.23 4.05-1.84 4.27.92-.07-.92 3.06.34 3.19.08-.05.12-.92-2.4-.5-2.21.56.26-4.15-3-4.09-2.46.17-.86.56-1.67 1.13-2.35a6.46 6.46 0 0 0-2.51 2.89ZM19.67 151.74c-.29-.34-1.1 1.21-.62.98.62-.29.92-.64.62-.98ZM21.91 151.02c-.31-.05 2.26-.58 1.56-.86-.72-.29-1.46.87-1.56.86ZM36.13 145.66c.38-.39.93-3.47-.37-1.84-1.19 1.51-2.18 4.4.37 1.84ZM19.05 140.48a1.597 1.597 0 0 0 1.64.54c1.76-.64-.61-1.04-.6-.94-.49-.29-.84-.15-1.04.4ZM219.77 175.32c.53.4 1.12.27 1.03-.38-.09-.64-1.28.2-1.03.38ZM243.94 181.41c-.43-.04 3.4 1.1 3.3 0 0-.42-3.37 0-3.3 0ZM256.91 180.79c-.93.19-1.83.5-2.67.92-.46.89 1.9.79 1.8.18.27-.38.55-.75.87-1.1ZM197.37 126.98c-.4.23-3 1.68-3.47 1.54a.877.877 0 0 0-.31-.45.967.967 0 0 0-.51-.19c-2.31 2.76.08-.79-3.1-.79-.67 0 .34.92.16.92-.64-.07-1.62-.26-1.77.92-.08.53 2.65.41 2.54.31-.1-.1-.26.97-.17.92-.07.04-2.18.09-2 .47.07.12 1.93.19 2.25.57.59.68-.64 1.52-.77 1.39 2.23 2.46 6.32-.68 8.7-.81 3.68-.21.22-5.83-1.55-4.8ZM209.44 151.23c-.1-.81 1.56-.92-.3-1.94-.83.03-1.66.21-2.43.52-.06 1.65.12.19-1.65 1.16-.05.05-.01 4.86.75 4.86 3.09 0 3.94-2.22 3.63-4.6ZM215.47 138.95c-.45.14-.31 1.57-.19 1.43.29-.32.64-1.57.19-1.43ZM208.57 144.51c.35-.01 1-.89.78-1.14-.23-.25-1.13 1.15-.78 1.14Z"/><path stroke="gray" d="M209.12 148.28c0-.86 1.49.42 1.33.45.32-.25.56-.6.67-1 .52.08-.34 2.06-.33 2.19.1.77 1.98-.49 2.09-.29 1.25 2.17-.99 3.07-.92 4.49-.32.07-.62.24-.85.48-.23.24-.38.55-.43.88.95.23 1.92.37 2.89.42.07.35-4.09 1.2-3.07 2.57 0 0 7.47-1.64 7.91-2.09.44-.45-.76-.17-.72-.49.2-1.5 1.38-.8.72-2.44-.56-.27-1.06-.66-1.45-1.14-.84-1.42-1.66-4.46-3.68-4.31 0 0 1.31-2.18 1.17-2.52-.57-1.45-1.65.21-2.46-.77-.27-.32 1.67-1.62 1.1-2.15-.4-.44-3.95 2.44-4.03 2.52 1.13-.99.06 3.82.06 3.2ZM231.77 147.89c-1.29-.88-1.56 1.86-1.43 1.89-.23-.05 2.94-.86 1.43-1.89ZM237.95 146.11c.12.24 1.46-1.73.8-1.67-.66 0-.92 1.43-.8 1.67ZM243.65 143.14c.84-.94-2.52.95-1.22.87.47-.19.88-.49 1.22-.87ZM242.67 142.44c.06.05.12.08.19.11.07.02.14.02.21.01a.48.48 0 0 0 .35-.22c.14-.29-1-.16-.75.1ZM242.45 93.44c-.04 0-2.45.92-2.45.92.6 1.55 9.2.75 8.63-1.63-.08-.28-5.62-1.07-5.4-1.14-.16.16-.27.37-.31.59-.04.23 0 .46.11.66-.46.34-2.68-1.49-3.18-1.42-.31.29-.57.64-.76 1.03l-.92-.69c-.98-.01 0 .93.15 1.04.99.85 2.91-.12 4.13.64ZM232.45 98.09c.82.47 1.47-1.51 2.06-1.74.59-.23-.25 1.08.32 1.05.39-.24.81-.42 1.26-.54.5.79-3.68 2.32-3.12 2.47 1.05.26 2.2-.43 3.29-.16-1.11.24-2.19.58-3.23 1.03-.1 1.03 1.84.99 2.32 1.17-.05.12-.12.23-.22.32a.88.88 0 0 1-.35.17c-.27.36 1.46.53 1.74.37.67-.89 1.28-1.81 1.84-2.76.21-.27 1.88-4.28 2.92-2.64-.27-.44.43 3.5.05 3.43.44.09 4.42.76 4.26-1.09.08.92-4.11-3.06-4.04-3.01-1.31-1.06-3.26-1.24-4.19-1.47.55.13-.86-1.75-1.53-1.97-.98-.32.22 3.47.28 3.17.92-3.9-2.71-.84-2.68-.85-.33-.34-.7-.65-1.09-.92.31-.18.64-.31.99-.4-.31.12-6.72.36-2.22 1.4-1.77-.41.92 2.76 1.34 2.97ZM230.87 98.06c-.39 0-.81-2-1.56-1.77-.05.25 0 .51.14.72.13.21.35.36.59.42.25.24.53.45.83.63ZM437.61 134.09c.23.29 3.61 1.08 3.61.32-.6-.52-1.36-.8-2.16-.8-.52-.04-1.05.14-1.45.48ZM380.33 172.55c-.23.13 1.09-.74 1.05-.54-.22-.32-.45-.65-.69-.92 0 .27 7.49.21 7.11-3.05.21 1.77-6.26-1.16-5.52-1.66.08-.07-.48 2.9-.48 3.08-.18-1.16-2.76 3.81-1.47 3.09ZM368.86 185.34c0 .13-.5 2.81.37 2.62.71-.16 1.99-2.71.92-3.17-.31-.1-3.15-1.19-2.21.7.37.74.72-1.04.92-.15ZM373.91 183.62c0-.92-1.84 0-1.93.16-.3.57-.17 2.51.09 1.4.26-1.13 1.84.21 1.84-1.56Z"/><path stroke="gray" d="M369.36 183.6c.05.26 4.82-.45 5.16-.52-1.07.24 1.02.75 1.27.73.81-.06.19-1.18.34-1.27.92-.56 3.68.5 4.6-.78.74-1 2.41-7.9 1.11-8.65-1.63-.92-2.44 4.31-3.2 5.37-.62.85-3.83 1.08-4 2.86 0 0-5.72.25-5.28 2.26ZM345.72 203.45c-.14-.52-3.08-.13-2.48 1.01.06.13 1.76 2.43 1.86.51.24-.49.45-1 .62-1.52ZM358.74 196.37c-1.51-2.2-2.7 4.99-1.46 4 .57-.43 1.91-3.34 1.46-4ZM362.19 216.55c2.84-3.27-3.26-4.6-3.89-6.1-.63-1.49 2.2-3.62 0-4.9-1.47-.87-2.06 2.66-2.1 2.77-.8 2.65 7.76 6.19 5.99 8.23ZM353.22 218.75c-.15-.28 3.01-2.27 2.43-3.54-.25.15-.47.35-.63.6-.16.24-.27.52-.31.81-.62.62-1.12 1.34-1.49 2.13ZM357.98 213.57c.76-.26-1.19-1.74-1.12-1.37.11.54.35 1.64 1.12 1.37ZM360.89 217.38c.1.29 1.14-.26.87-.6-.28-.38-.97.32-.87.6ZM358.7 220.62c.86-.08 1.21-1.28 2.08-.66.88.61.34 2.6 2.02 2.6-1.25 0 1.33-2.68 1.21-2.21.13-.54.09-1.11-.11-1.63-.19-.52-.54-.98-.99-1.3 0 0-5.06 3.28-4.21 3.2Z"/><path stroke="gray" d="M358.42 215.04c.01.32.15.63.39.86 2.18-.48-.77 1.66.91 2.05 1.45.35 1.55-4.36-.98-3.81-.22.25-.33.57-.32.9ZM389.87 237.06c-.21 2.19 5.96.07 4.69-1.52-.42-.13-.68.03-.76.49 0 1.51-3.87.57-3.93 1.03ZM394.34 234.21c.34.07.69 1.77 1.03 1.67 1.04-.3-.81-1.62-1.03-1.67ZM384.8 234.77c-2.02-1.15-5.95-2.93-7.97-2.81-.59 0-1.41 1.84-2.13 1.71-1.44-.27-.61-1.84-1.64-2.24-.92-.36-.92-1.34-2.48-1.11-.27.04-1.77 1.23-1.24 1.35.29.06 3.35 1.77 3.37 1.24 0 .24-1.84.23-2.05.26-.84.16 3.19 2.13 3.44 2.25 1.78.87 3.07.68 4.1 2.5 1.03 1.81-1.45 1.71-1.03 2.53.76 1.5 6.37.17 6.97.18 1.64 0 1.61-.05 3.68.97-.05 0 5.03 2.54 4.49 1.63-.25-.35-4.64-4.74-3.62-4.69.93.07-2.98-3.25-3.89-3.77ZM310.9 221.87c2.44 1 1.89-5.07-.1-4.83-.76.09-.77 4.48.1 4.83ZM271.99 248.26c-.73.73-2.67 1.18-3.24 1.84-1.61 1.84-.53 2.67-.8 5.4-.21 1.92-2.47 9.69 2.76 7.16 2.99-1.46 2.37-10 3.49-12.81.15-.37.92.83.92-.73 0-1.55-.88-2.64-1.22-3.99 0 .05-1.63 2.84-1.91 3.13ZM280.19 213.09c.05-.18-1.64-.25-1.19.24.38.45 1.14-.07 1.19-.24ZM404.53 242.77c.28-.2-1.31-1.3-1.2-.71.1.57.92.92 1.2.71ZM400.62 239.46c.18-.11-.94-1.18-.99-.92 0 .15.8 1.03.99.92ZM401.9 239.86c-.03.37 1.35 1.18 1.63.97.29-.2-1.6-1.34-1.63-.97ZM398.9 238.79c.73-.51-1.42-2.18-1.46-1.84-.07.34 1.04 2.15 1.46 1.84ZM405.48 242.52c.14.02-.68-2.23-.92-1.74-.27.62.77 1.71.92 1.74ZM406.53 243.89c.35-.26-1.15-.82-1.06-.57 0 .14.72.83 1.06.57ZM369.77 244.74c-.05-.34-1.9.06-1.51.4.26.23 1.56-.06 1.51-.4Z"/><path stroke="gray" d="M395.55 263.47c-2.22-1.04-5.45-5.65-7.05-8.09-1.2-1.84-1.57-3.8-2.54-6.09-.49-1.19-1.52-.3-1.84-1.07-.51-1.13 0-3.5-1.11-4.53-.85-.8-1.3 5.65-1.31 5.68-1.17 3.35-.47 3.4-3.49 2.34-.87-.32-3.47-1.65-3.68-2.76-.2-.97 2.08-2.6 1.77-3.2.23.46-5.46-1.62-5.58-1.57-.15.37 0 .66.44.86-1.56-1.84-4.14 4.71-3.37 4.6.37-.05-2.32-.43-1.58 0-1.93-1.12-1.64-2.24-3.95-.58-1.49 1.08-.96 2.54-1.84 3.5-.23.26-.38-1.31-.74-1.07-1.24.83-.28 1.91-1.4 2.83-1.39 1.13-2.09 1.21-3.61 1.97-2.01.98-3.44 1.29-5.18 2.92a.859.859 0 0 1-.12-.8c0 .42-.5 1.72-.56 2.41-.05.69.67 3.35.47 3.76-.3-.13-.55-.36-.7-.65.14.29.26.6.34.92-.28-.23-.56-.46-.83-.69-.33.83 2.17 5.24 2.41 6.22.12.51.09 5.28-.12 4.83 1.6 3.29 3.92 1.04 6.57.26 2.17-.63 3.57-1.09 5.66-1.88 1.62-.61 5.06-1.84 6.83-1.55 1.09.17 6.51 4.42 5.27 4.99.38-.17 2.61-2.95 2.76-2.82.7.65-1.13 2.42-1.22 2.83-.33 1.59 1.84-1.26 1.25-.8.78-.62.41 1.95.34 1.74-.07-.2 2.57 3.4 2.82 3.6 1.49 1.29 5.19.09 5.16.07.05.29.05.58 0 .87-.34-.42 1.23.52 1.61.92-.77-.73 4.36-2.33 4.21-2.16.78-.92 1.23-4.96 1.84-6.28.38-1.07 1.92-7.53 2.37-7.9 0 0-.62-3.77-.3-3.63Z"/><path stroke="gray" d="M377.03 278.34c.16-.4-1.68-.05-1.4.2.29.29 1.24.21 1.4-.2ZM385.39 285.85c.35-.1.07 5.39 3 3.84 1.48-.81 2.05-3.57-.99-3.21-.69-.13-1.36-.35-2.01-.63ZM413.04 295.5c-.34-.46-.88.44-.44.57.18.06.78-.11.44-.57ZM422 279.71c-.07.11-.1.23-.1.36 0 .13.03.25.1.36.12-.18-2.31-3.49-2.82-3.49-.05 0 1.75 3.57 1.91 4.01.54 1.59-1.24 1.52-1.18 2.39 0-.07 1.3 3.68 1.22 3.59 1.5 2.8 4.67-7.94 3.23-5.3-.7 1.27-2.22-1.93-2.36-1.92ZM412.52 294.73c2.66 1.78 8.84-7.51 7.6-8.5-1.46-1.14-10.25 6.71-7.6 8.5ZM427.12 251.37c0-.49-1.65.57-1.22.71.29.12 1.22-.23 1.22-.71ZM425.64 253.23c.03-.82-1.75-.01-1.35.39.44.46 1.33.42 1.35-.39ZM272.27 92.31c.49 1.07 4.99-1.08 5-1.38.08-1.42-3.63.28-3.9.69-.44.09-.83.34-1.1.69ZM278.42 92.42c.38.13 1.45.41 1.45-.19 0-.61-1.84.06-1.45.19ZM273.69 90.89c.23-.62-4.01 0-3.89.35.12.14.26.25.42.33.16.08.34.13.52.13.18.01.36-.02.53-.09.16-.06.31-.17.44-.3.62-.28 1.29-.42 1.98-.42ZM275.64 121.05c.71-.29-4.02-1.22-2.16.68 1.02 1.02 1.63-.46 2.16-.68ZM276.99 114.65c0 .11 2.01 1.78 1.84 1.84-.18-.36-.11-.63.19-.8-.18 0 5.03 4.37 5.26 1.84.06-.67-2.3-2.11-2.4-3.05-.1-.94.92-1.9 1.32-2.76.64-1.14 1.44-2.19 2.36-3.12 1.55-1.42 12.75-6.13 12.26-6.55-1.2-1.02-11.19 2.25-12.81 3.26-.87.61-4.04 4.92-4.06 4.92a43.68 43.68 0 0 0-3.96 4.42ZM392.02 107.87c.49-.11.95-.33 1.33-.65.24-2.62-11.32 0-2.81.62.48.13.99.14 1.48.03ZM380.54 109.66c.42.16 1.11.07 1.11-.5 0-.57-1.84.21-1.11.5ZM339.54 97.13c.21-1.23-3.61-1.58-3.5-.63-.69-5.42-2.75 3.03-3.65 2.47.7.43 6.94-.61 7.15-1.84ZM326.21 94.74c1.75 1.67 6.01 2.96 6.38 0 .31-2.51-5.58-1.82-5.58-1.14-.35.31-.62.7-.8 1.14ZM324.05 93.18c-.61.31 2.25.14 2.76-.07.5-.21 4.3-1.33 3.6-2.18-2.8-3.53-5.78 1.35-5.24 1.6 1.13.52-.99.58-1.12.65ZM348.81 108.71a.861.861 0 0 0-.27-.3.968.968 0 0 0-.38-.16.999.999 0 0 0-.42.03.94.94 0 0 0-.35.2c-.8 1.76 1.4.53 1.42.23ZM284.76 90.4c.05-.37-2.81-.92-2.99-.85.49-.08-.8 1.6-1.1 1.27.56.62 3.95.69 4.09-.42ZM322.7 90.05c.22.2 1.43.35 1.57-.22.14-.57-2.17-.32-1.57.22ZM430.71 116.58c-1.43-1.72-4.51.72-4.28.84.56-.02 1.11-.03 1.67-.03.16.12 3.22-.09 2.61-.81ZM380.99 107.57c.92-.17 3.32-1.59 2.41-1.91.43.15 1.7 3.05 2.44.81.63-1.84-1.14-1.42-2.76-1.94-.13-.05-2.99-.12-3-.12.43-.09-5.58.93-2.88 2.4 1.13.7 2.47.97 3.79.76ZM380.96 111.07c.41.66 2.85.76 3.47.6 1.84-.44-4.77-2.65-3.47-.6Z"/><path stroke="gray" d="m437.09 129.36 1.31.3c.34 0-.43-.45-.33-.52-.39.25 2.33-.68 1.7-.91.05 0-5.33-3.21-5.41-2.09.09-1.25.55 2 .36 1.4-.99-3.28-7.71-6.88-11.47-7.69-2.09-.45-5.65-.37-6.92.21.1-.05.86 1.61-.17 2.25-.48.29-2.76-1.71-2.23-1.96.54-.25 1.21.87 1.34-.19.11-.87-4.4.35-5.05.44-1.1-.01-2.2-.1-3.28-.25-1.43-.14-.66 1.12-1.25 1.41.5-.24-1.84-2.27-1.84-2.25-2.05-1.74-1.76-2.06-5.58-2.35-1.17-.09-6.88 0-7.46-1.74-.16-.52 1.74.1 1.24-.75-1.13-1.84-5.68.27-5.74.46.32-.18.63-.39.92-.62-.41-.21-.86-.35-1.31-.44-.4-.65 1.84 0 1.84-.34.33-1.97-9.51-.81-8.54.53.14.07.3.11.46.11.16 0 .32-.04.46-.11-.63-.35.11 2.38.05 1.55 0 .16-2.24-.25-2.61 0 .19.2.42.35.67.45 0 0-6.21-1.18-6.63-1.28-.42-.1-1.13 2.59-2.07 2.54-1.4-.09-2.46-3.42-3.17-3.37.39.19.82.28 1.26.25 1.77-1.04-4.43-4.72-5.75-4.45-.97.21-1.17 2.28-1.52 2.33-.52.09-5.52-.12-5.66-.7-.09-.31.67-.7.35-.78-2.58-.67-4.6.53-6.2.69-.42 0 .08-1.5-.54-1.61-.31-.05-4.5 0-4.12.47.23.08.46.15.7.21.07.55-5.25 1.4-5.36 1.69 1.14-2.93 9.74-3.68 9.04-6.78-.21-.92.36-1.68-1.54-2.59-2.43-1.14-4.26.68-6.44.14.23-.43.51-.84.84-1.2 0 .24-3.04-.59-3.42-.43.26-.11 2.1-.42 1.7-1.05-1.39-2.12-4.6.58-5.76 1.43.59-.44-2.24 3.32-2.34 1.55.23.24.49.46.76.65.13-.4-3.25.35-3.43.29.1-.25.21-.49.33-.73-1.28.14-2.55.38-3.79.73.17.26.42.45.72.53-.06-.43-5.67 1.49-6.08 1.69-1.33.61-.65.56-1.22 1.32-.33 0-.67 0-1-.06-.12.13 1.15.72 1.16.83-.3.05-.61.07-.92.07 0 0 1.4.83.76 1.41-.37.34-2.55.15-3.18.28-8.72 1.84 0 2.43-1.69 4.74-.67.92-5.03-2.88-6.31-1.61-.11.11 1.4 1.17 1.06 1.26-.66.18-1.67-.78-2.15.14-.38.73 3.08 1.9 2.82 2.22 0 0-3.68-.76-3.68-.81-.73-.83 1.25-3.2-.3-3.68-1.54-.49-2.45 6.94-1.84 7.79 1.67 2.26 4.78 1.06 5.83 4.51.55 1.84-3.2-2.55-1.57-1.84-1.11-.47-.75-1.44-2.22-1.18-2.1.36-.11 1.55-.92 2.55-.92 1.16-2.17 2.86-3.45 3.14-.34.09-3.48-.08-3.2-.92-.04.11 4.14-.42 4.84-2.76.44-1.48-.29-2.67-.61-4.36-.1-.49.13-5.59.17-5.52-2.47-4.07-6.6.57-6.81 3.46.06-.8-.09 3-.27 2.52 0 0 4.47 2.87 1.84 3.3-1.84.31-9.2-6.19-11.48-4.89.6-.34 4 5.83.72 4.51-1.29-.53.05-.65-2.91-.38 0 0-4.74.79-4.38.5.37-.3 1.03-.6.92-1.34 0 .47-6.19 2.5-7.05 2.87-1.21.53-.92 2.76-3.15 1.28-2.22-1.48 1.12-1.41 1.39-1.74 1-1.2-4.08-2.51-3.9-1.74 0-.22 1.2 3.81.24 3.12 2.38 1.72-.38 1.55-.53 1.67-2.76 2.21-2.76-.18-3.31 3.77-.09.66-2.28-.67-2.62-.4-.45-.29-.92-.58-1.33-.88-.81.38-.92.87-.37 1.47 1.33-.75 1.77 2.9-.56 1.06-.57-.45-3.73-7.36-5.02-6.75.92-.44 13.99 5.78 9.99-1.39-.77-1.38-8.91-4.82-9.6-3.96.31-.02.61-.13.87-.3-.11-.92-2.11 0-2.33-.21-.55-.6-1.84.74-2.24-.73.08.29 2.12-.26 2.17-.55.44-2.38-3.75-.26-3.23-.24-.42 0 .22-1.29.18-1.35-.85-1.63-1.56 1.38-2.03 1.38-.17 0 .11-1.43-.19-1.23-.56.59-1.11 1.2-1.67 1.84-.61.12 1.18-1.97 1.18-2.02-.18-1.08-2.04 1-2.03 1 .58-.5-2.34 1.65-1.48 1.39-1.12.34.29-2.53.43-1.99.08.25-1.7.2-1.67.62.25.25.42.57.49.92a3.72 3.72 0 0 0-1.33-.04c.15.27.38.5.66.64-.54-.09-1.07-.27-1.55-.53.07 0 .5 1.59 0 1.29-.87-.58-.68-1.5-1.84-.97-.09 0-2.52 1.84-2.48 2.12.05.27 1.19-.24 1.01.72 0 0-2.06 0-1.98.09.08-.35.17-.7.28-1.06a44.654 44.654 0 0 1-3.49 3.1c.92 0 2.97-2.27 3.94-1.36 0 0-.14.99-.16 1-2.76 1.1-3.53 5.58-6.08 6.69-.22.11 1.04.93.61 1.11-1.45.56-1.46 1.12-2.66 2.11-.1.08-.92-1.05-.98-.34-.14 1.45-.85.33-1.58 1.41.06.13.15.24.26.33.1.09.23.15.36.19-.77-1.71-2.76 2.76-2.68 2.41-.44 2.7 1.32 1.84 1.46 2.27.4 1.39-1.61.74-1.52.66-.1.4-.16.81-.2 1.22 0 .5 1.08-.55 1.28 0 .14.37-.67.75-.78.92-1.36 2.08 4.6.47 3.89.62.92-.21 1.46-1.73 2.01-2.05.33-.2 2.91 7.84 3.17 7.93 1.21.46 3.74-3.23 4.15-3.35-.17.43-.38.53-.65.31.24-2.16 2.83-3.88 2.76-5.52 0-2.16-2.43-1.13-1.64-4.3.45-1.84 1.84-2 2.76-3.29.74-1.06 1.97-4.12 3.37-4.6 6.54-2.16-1.52 5.46-1.72 5.85-.5.92-.14 4.65.32 5.1 1.84 1.84 5.28.48 7.28-.06.83.1 1.61.41 2.26.92.45.51-5.61 1.18-5.34 1.05-3.88 1.84-.14 1.78-1.11 2.91-1.16 1.83-1.4.44-1.84.83-.16.14-3.04.35-1.97 2.5 1.04 2.34-1.02 2.91-2.32 3.38.11 0-3.39.34-4.22.45-1.84.22-.87.48-1.75-.79-.38-.53-2.51 1.47-2.91 1.18-.08-.29-.08-.59 0-.87-.51-.14-2.04 0-1.84-1.34 0-.24 1.33.71 1.45.12.2-1.11-.64-.38-.92-.92-.16-.25 1.43-2.93.6-3.85-.56-.61-1.49 1.49-1.49 1.49-.6.59-1.18-.47-1.27 2.02 0 .8 1.54 2.62 1.14 3.4-.29.6-3.63 1.22-4.26 1.62a29.93 29.93 0 0 0-3.13 3.14c-.65.77-1.36 1.48-2.13 2.12-.92.43-2.92.18-3.23.35-.69.39.64 1.44 0 1.97-.63.52-2.45-1.11-2.88-.31-1.16 2.15.57.52 1.59 2.15 1.4 2.23 3.57 4.9.33 6.55-1.51.77-5.21-1.22-6.44-.56-2.31 1.26-.51 1.15-1.01 3.3-1.01 4.37-.92 6.2 2.68 7.36 2.51.82 5.17.3 7.26-2.5 1.66-2.22 2.65-6.09 5.18-7.66-.57.36 5.29-.66 4.8-.68 2.51.13.92-.23 3.09 1.43-.06-.05 8.28 7.6 5.93 7.6 1.33 0 .92-3.37 1.01-3.46a1.714 1.714 0 0 1 1.5.51c-.92-.28-9.2-9.2-5.15-8.98.55 0 4.9 4.95 6.29 5.73.02-.11.05-.21.08-.32-.03.11-.06.21-.08.32m10.1-32.16c.17-.27.36-.54.56-.78-.21.24-.39.5-.56.78m-10.1 32.16c-1.36-.8 3.63 7.61 3.63 5.65 0-1.73-2.25 4.29.69 2.67.01-.44-.06-.88-.2-1.3.27.08.55.08.81 0 .43-.53-.92-.46-.62-.73.29-.28 1.68.51 1.48-.61-.24-1.36-.98 0-1.48-.54.16.18-.22-2.76-.46-2.62.47.14.95.23 1.43.28.78-.35 4.96-.32 5.97-1.33-.27.26-1.67-2.24-1.58-2.76.55-1.13 1.22-2.19 2.01-3.16.47-.68.69-2.24 1.69-2.7.62-.3 3.42-.19 3.58.66-.48.38-1 .69-1.57.92-.05-.3 1.27 1.62 1.24 1.58-.04-.04 3.59-.92 3.68-1.03.21-.37-3.28-.17-1.61-1.96.4-.41 4.32-1.84 4.6-1.28.07.14-2.76 2.76-2.65 3.26.36 1.76 5.75 2.71 5.57 4.6-.24 2.59-3.33 1.68-5.14 1.65-.77 0-1.39-.88-2.15-.92-2.47-.16-3.92.41-6.26 1.06-3 .84-6.32 2.39-2.84 5.94 1.62 1.66 3.22.92 5.06.99.6 0 4.3-.8 4.8-.48.5.32-1.08 4.7-1.27 5.17l.62.29c0 .12 0 .25-.05.37 0-.12 0-.25.05-.37m0 0-.6-.28c-1.84 4.32-5.34 3.43-9.89 2.58-1.21-.22-2.18-.8-3.39-.97-1.95-.27-.92-1.84-3.51-.5-.86.45-.62 2.18-.71 2.21-1.54.61-8.16-1.64-9.87-3.4-1.71-1.76 1.18-3.26-.11-5.09-.79-1.11-6.19-.11-7.71.06-1.88.31-3.73.79-5.52 1.45-1.89.53-3.42.38-5.17.84-1.49.39-.92-.23-2.2.47 1.38-.74-2.97 3.23-2.44 2.38-.66 1.06-1.18 2.23-1.84 3.29-.48.83-.35 1.92-1.14 3.1-.52.78-1.56.92-2.14 1.51-1.62 1.8-2.91 3.87-3.82 6.12-1.01 2.57-.42 2.98-.5 5.23-.08 2.08-.73 4.31-.67 6.37.07 2.26 1.09 3.17 2.2 4.96 2.48 4.04 5.43 7.77 10.19 8.28 2.53.09 5.06-.26 7.46-1.04.32-.08 3.51-1.84 3.84-1.44.88.53 1.78 1.01 2.7 1.45.43.2.26 1.22.8 1.47.55.25 1.15-.58 1.61-.29 2.53 1.59 1.55.21 2.84 3.12.25.65-.5 2.71-.49 3.03.06 2.62 1.04 3.01 2.57 5.67 1.26 2.18 2.86 6.44 2.52 8.97-.37 2.68-2.33 4.99-2.45 7.93-.2 1.97 2.6 6.6 3.04 8.67.78 3.68 1.91 5.93 3.14 9.43 1.68 4.75.24 5.78 5.52 5.12 5.14-.63 8.05-2.24 10.74-7.36.42-1.34.73-2.71.92-4.09 1.84-2.65 2.92-1.21 3.43-4.67.36-2.46-1.18-2.45.16-4.8 1.07-1.9 4-2.18 5.14-3.88 2.36-3.55-.09-7.46-.76-11.04-.73-3.84 1.23-6.61 3.87-9.46 1.09-1.19 14.08-14.89 10.05-16.38-2.76-1.04-5.88 2.95-9.07.92M286.95 91.46c.61.54 2.84.23 3.33-.45 1.06-1.49-4.6-.67-3.33.45ZM282.74 92.34c-.71.79 3.59.66 3.86-.26.18-.56-2.32-.5-2.25-.35-.53.23-1.07.42-1.61.61ZM286.33 88.84c-.45-.62-3.62.59-3.68.38.2.18.44.32.71.4.26.08.54.1.81.06.75-.19 1.48-.47 2.16-.84ZM382.52 165.24c-.78-1.01 1.75.1 1.77.11.02.01-1.01-3.03-.92-3.16.92-2.05 1.84-1.09 2.15-1.5.55-.74-2.69-9.02-2.23-9.31-1.31.84-.85 4.33-.45 5.29.73 1.84-1.47 7.09-.32 8.57Z"/><path stroke="gray" d="M301.36 111.53c.72-1.45-3.4.19-1.84.46.65.05 1.29-.11 1.84-.46ZM309.64 112.56c.42.25.98.18.92-.43-.07-.6-1.34.18-.92.43ZM293.87 90.27c.34-1.17-3.13.27-3 .44.62.27 1.31.31 1.95.11l1.05-.55ZM411.95 259.27c.42-.3-3.47-3.03-3.4-2.59.07.46 2.99 2.89 3.4 2.59ZM124.91 197.97c-.19-.57-.33-1.16-.44-1.76-.65-1.23.15 2.44.44 1.76ZM144.51 215.52c-.62-.57-1.12.58-.84.87.87.19 1.15-.1.84-.87ZM341.8 233.71c.31.48.62.04.62-.3 0-.34-.92-.18-.62.3ZM350.98 240.8c.62-.52-3.34-1.2-3.22-1.14.03-.28.17-.54.39-.71.22-.17.5-.25.78-.21-1.03.69-10.03-2.34-9.44-.21.23.9 9.7 2.83 10.11 2.22.45.13.92.14 1.38.05ZM360.64 240.41c-.46-.07-4.76.39-4.68.57.56 1.22 3.53-.14 4.31-.18.92 0 1.02-.12.37-.39ZM351.71 240.61c-.86 1.16 2.97 1.13 3.31.33.2-.46-1.58-.98-1.74-.6-.34.82-1.14-.29-1.57.27ZM348.75 234.06c3.6.19 3.8-2.68 6.14-5.6-.16.19-1.55-3.09-1.53-3.4.07-1.39 1.73-1.19 2.01-2.12.29-.93-3.34-1.59-3.53-1.55-1.17.26-.58 2.32-2.58 2.17-.07 0-3.53 3.96-3.54 3.99.26-.62-4.46-.57-2.64 1.3 2.62 2.67 1.35 4.98 5.67 5.21ZM330.08 228.85c.42-.46-.64-1.41-.73-1.03-.07.37.32 1.48.73 1.03ZM331.63 231.81c.24-.2-.34-1.33-.55-.72-.08.18.31.92.55.72Z"/><path stroke="gray" d="M340.51 233.11c0-.46-1.47-1.84-1.49-.99.28.28.52.59.73.92-.3.76-3.86-4.66-4.05-4.87-.82-.92-8.02-6.44-8.34-5.72-.23.54 5.52 8.82 6.28 9.86.77 1.05 6.41 8.08 6.07 3-.1-1.6.81-1.17.8-2.2ZM355.02 242.23c-.1-.16 2.16 1.57 2.16.65 0-1.03-2.06-.48-2.16-.65ZM356.06 237.18c.92-.38.1-4.19 1.01-3.75 1.71.83-.19 3.2 2.1 1.41-1.21.92.07-6.29 1-4.25.12.28-5.18 1.67-3.86-.49 1.45-2.37 4.67.34 5.94-2.28-.77 1.58-3.92-.35-4.97.35-1.64 1.11-1.52 3.24-2.43 4.86-.17.31 2.19 3.75 1.21 4.15ZM368.88 234.74c1.29 0-3.72-2.9-3.09-.83 1 .37 2.03.65 3.09.83ZM365.79 230.25c1.29-.25.17-2.37.17-2.32 0-2.56-2.12 2.71-.17 2.32ZM364.92 240.53c.15-.44-3.08.98-3.38 1.02-.47.07-1.84 1.08-.92 1.56a1.578 1.578 0 0 0 1.43-.92c.6-.79 2.61-.92 2.87-1.66ZM364.82 234.4c.28-.49-1.59-1.13-1.42-.42.14.61 1.15.92 1.42.42ZM228.22 175.57c1.09-1.39-.9-3.92-1.74-2.34-.32.6.41 4.02 1.74 2.34ZM231.63 177.83c.75.69 1.62 1.25 2.56 1.64.22-.71.49-1.4.79-2.07a.703.703 0 0 0-.45-.21.716.716 0 0 0-.49.13c.25-.06-2.66-.26-2.41.51Z"/><path stroke="#263238" stroke-linecap="round" stroke-linejoin="round" d="M26.68 419.55h401.24"/><path fill="#FFF" d="M67.16 387.22s-24.38-42.79-18.75-53.68c5.62-10.88 20 8.7 20 8.7s-12.51-39.9-5.62-57.32c6.88-17.42 18.74 0 19.32 12.34.57 12.33-2.5 33.37-2.5 33.37s5-43.53 16.87-30.48c11.86 13.06-15 56.59-15 56.59s18.12-10.12 17.48 2.91c-.64 13.03-21.87 24.67-21.87 24.67l-9.93 2.9Z"/><path stroke="#263238" d="M67.37 379.25s-22.56-21.04-11.58-30.47c10.99-9.43 16.77 10.12 16.77 10.12s-12.14-60.22 7.53-62.4c19.67-2.18 5.2 52.24 5.2 52.24s16.77-23.22 15.64-4.35c-1.13 18.87-26.05 34.86-26.05 34.86M78.44 375.41 63.2 358.9M75.27 376.69l4.12-48.27M74.63 373.19l13.66-18.1"/><path fill="#263238" d="M94.38 369.83H52.22l4.22 49.72h33.72l4.22-49.72Z"/><path fill="#FFF" d="m366.16 117.55-47.7 2.97a10.5 10.5 0 0 0-7.06 3.34c-1.84 1.98-2.84 4.6-2.81 7.3l.24 19.16-13.86 1.48 13.97 7.21c.02 1.38.31 2.75.86 4.02a10.5 10.5 0 0 0 2.34 3.39c1 .97 2.18 1.73 3.46 2.23 1.3.51 2.67.76 4.06.74l46.3-.85c2.69-.05 5.26-1.13 7.18-3.01s3.04-4.42 3.14-7.11l1.07-29.96c.06-1.47-.19-2.94-.74-4.31-.54-1.37-1.37-2.61-2.43-3.63a10.4 10.4 0 0 0-3.7-2.34c-1.38-.51-2.85-.72-4.32-.63Z"/><path stroke="#263238" d="M318.46 120.52a10.5 10.5 0 0 0-7.06 3.34c-1.84 1.98-2.84 4.6-2.81 7.3l.24 19.16-13.86 1.48 13.97 7.21c.02 1.38.31 2.75.86 4.02a10.5 10.5 0 0 0 2.34 3.39c1 .97 2.18 1.73 3.46 2.23 1.3.51 2.67.76 4.06.74l46.3-.85c2.69-.05 5.26-1.13 7.18-3.01s3.04-4.42 3.14-7.11l1.07-29.96c.06-1.47-.19-2.94-.74-4.31-.54-1.37-1.37-2.61-2.43-3.63a10.4 10.4 0 0 0-3.7-2.34c-1.38-.51-2.85-.72-4.32-.63l-47.7 2.97Z"/><path fill="#8C8C8C" d="M356.5 122.5h-31.24v19.67h31.24V122.5Z"/><path stroke="#263238" stroke-linejoin="round" d="M356.5 122.5v19.67h-31.24V122.5h31.24Z"/><path fill="#696969" d="M356.5 122.5h-17.74v19.67h17.74V122.5Z"/><path stroke="#263238" stroke-linejoin="round" d="M356.5 122.5v19.67h-17.74V122.5h17.74Z"/><path fill="#FFF" d="M347.24 122.5h-12.72v19.67h12.72V122.5Z"/><path stroke="#263238" stroke-linejoin="round" d="M347.24 122.5v19.67h-12.72V122.5h12.72Z"/><path fill="#263238" d="M325.03 158.09v-5c0-2.4 1.7-4 4.27-4 2.57 0 4.27 1.56 4.27 3.93 0 .11-.09.18-.23.2l-.82.06c-.15 0-.24 0-.24-.11v-.11c0-.79-.31-1.55-.87-2.11-.56-.56-1.32-.87-2.11-.87-.79 0-1.55.31-2.11.87-.56.56-.87 1.32-.87 2.11v5.08c0 .79.31 1.55.87 2.11.56.56 1.32.87 2.11.87.79 0 1.55-.31 2.11-.87.56-.56.87-1.32.87-2.11 0-.03 0-.06.02-.09.01-.02.03-.05.05-.07.02-.02.05-.03.08-.04.03-.01.06-.01.09 0h.82c.14 0 .23 0 .23.09v.1c0 2.38-1.7 3.96-4.27 3.96-2.57 0-4.27-1.58-4.27-4ZM336.01 150.17c-.02-.2.03-.4.13-.57.1-.17.25-.3.43-.39.18-.08.38-.11.57-.08a.977.977 0 0 1 .81.76c.04.19.03.39-.04.57-.08.19-.2.34-.37.46-.16.11-.35.17-.55.17a.947.947 0 0 1-.37-.05.962.962 0 0 1-.54-.51.889.889 0 0 1-.07-.36Zm.35 11.55V153c-.01-.03 0-.06.01-.09s.03-.06.05-.08c.02-.02.05-.04.08-.05.02-.01.06-.02.09-.02h.82c.03 0 .06 0 .09.01s.06.03.08.06c.02.02.04.05.05.08.01.03.02.06.01.09v8.72c.01.03 0 .07-.01.1s-.03.05-.05.08c-.02.02-.05.04-.08.05-.03.01-.06.01-.09.01h-.82c-.03 0-.07 0-.09-.01-.03-.02-.06-.03-.08-.06a.218.218 0 0 1-.05-.08c-.01-.03-.02-.06-.01-.09ZM347.28 155.67v6.05c0 .03 0 .06-.01.09s-.03.06-.05.08c-.03.03-.05.04-.08.06-.03.01-.06.01-.09.01h-.82c-.03 0-.07 0-.1-.01s-.05-.03-.08-.05c-.02-.03-.04-.05-.05-.08-.01-.03-.01-.07-.01-.1v-.65c0-.07-.06-.11-.11 0-.38.36-.82.64-1.31.83-.48.18-1 .27-1.52.24-1.55 0-3-.74-3-2.65 0-1.92 1.38-2.95 3.74-2.95H345.95c.01-.01.02-.01.03-.02.01-.01.02-.02.02-.03.01-.01.01-.03.01-.04v-.67c.03-.28-.01-.56-.11-.83-.1-.26-.26-.5-.46-.69-.21-.19-.46-.34-.72-.42-.27-.08-.56-.1-.84-.06-1.15 0-1.89.47-2.09 1.24-.01.03-.02.06-.03.08-.02.03-.04.05-.07.07-.02.02-.05.03-.08.03-.03.01-.06.01-.09 0l-.92-.11c-.15 0-.24-.07-.22-.2.24-1.33 1.58-2.24 3.46-2.24 2.22-.04 3.44 1.22 3.44 3.02Zm-1.29 3.35v-1.44c-.01-.01-.02-.02-.02-.03-.01-.01-.02-.02-.04-.02h-1.94c-1.58 0-2.66.67-2.66 1.84 0 1.16.92 1.61 2 1.61 1.35.02 2.66-.69 2.66-1.96ZM349.92 159.58c-.2-.73-.28-1.48-.26-2.24-.02-.74.06-1.49.24-2.21.26-.74.74-1.37 1.38-1.82a3.796 3.796 0 0 1 4.34 0c.64.45 1.12 1.08 1.38 1.82.19.73.28 1.48.26 2.23.02.76-.07 1.51-.26 2.24-.25.74-.73 1.38-1.36 1.83-.64.45-1.4.7-2.18.7-.78 0-1.54-.25-2.18-.7a3.715 3.715 0 0 1-1.36-1.83v-.02Zm5.89-.38c.11-.6.16-1.22.14-1.84.03-.62-.02-1.23-.14-1.84-.15-.51-.46-.96-.88-1.28-.42-.32-.94-.49-1.47-.49s-1.05.17-1.47.49c-.43.32-.73.77-.88 1.28a11.95 11.95 0 0 0 0 3.68c.15.51.45.96.88 1.28.42.32.94.5 1.47.5s1.05-.18 1.47-.5c.42-.32.73-.77.88-1.28Z"/><path fill="#FFF" d="m166.4 141.13-18.86-5.1 4.26-27.95c.2-1.33.09-2.68-.3-3.96a9.009 9.009 0 0 0-1.99-3.44 8.941 8.941 0 0 0-3.29-2.23 8.92 8.92 0 0 0-3.93-.57l-40.05 3.32c-1.16.09-2.29.41-3.33.94a8.952 8.952 0 0 0-2.71 2.15 9.02 9.02 0 0 0-1.68 3.03c-.36 1.1-.49 2.27-.4 3.43l2.94 36.67c.18 2.17 1.14 4.2 2.71 5.7a8.91 8.91 0 0 0 5.8 2.47l30.82 1.21a8.862 8.862 0 0 0 9.12-7.53l.8-5.23 20.09-2.91Z"/><path stroke="#263238" d="m147.54 136.03 4.26-27.95c.2-1.33.09-2.68-.3-3.96a9.009 9.009 0 0 0-1.99-3.44 8.941 8.941 0 0 0-3.29-2.23 8.92 8.92 0 0 0-3.93-.57l-40.05 3.32c-1.16.09-2.29.41-3.33.94a8.952 8.952 0 0 0-2.71 2.15 9.02 9.02 0 0 0-1.68 3.03c-.36 1.1-.49 2.27-.4 3.43l2.94 36.67c.18 2.17 1.14 4.2 2.71 5.7a8.91 8.91 0 0 0 5.8 2.47l30.82 1.21a8.862 8.862 0 0 0 9.12-7.53l.8-5.23 20.09-2.91-18.86-5.1Z"/><path fill="#8C8C8C" d="M138.37 105.7h-31.23v19.67h31.23V105.7Z"/><path stroke="#263238" stroke-linejoin="round" d="M138.37 105.7v19.67h-31.23V105.7h31.23Z"/><path fill="#FFF" d="M138.37 110.47h-31.23v10.15h31.23v-10.15Z"/><path stroke="#263238" stroke-linejoin="round" d="M138.37 110.47v10.15h-31.23v-10.15h31.23Z"/><path fill="#263238" d="M114.4 132.48h.82c.03-.01.06 0 .09.01s.05.03.08.05a.3.3 0 0 1 .04.08c.01.03.02.06.02.09v12.26c0 .03-.01.06-.02.09s-.02.06-.04.08c-.03.02-.05.04-.08.05-.03.01-.06.02-.09.02h-.82c-.03 0-.07 0-.1-.01-.03-.02-.06-.03-.08-.06a.218.218 0 0 1-.05-.08c-.01-.03-.01-.06-.01-.09v-5.52c0-.01 0-.03-.01-.04 0-.01-.01-.02-.02-.03 0-.01-.02-.01-.03-.02h-5.83c-.01.01-.02.01-.03.02-.01.01-.02.02-.02.03-.01.01-.01.03-.01.04v5.52c.01.03 0 .06-.01.09s-.03.06-.05.08c-.02.03-.05.04-.08.06-.03.01-.06.01-.09.01h-.82c-.04 0-.07 0-.1-.01s-.05-.03-.08-.06c-.02-.02-.03-.05-.05-.08 0-.03-.01-.06 0-.09v-12.29c-.01-.03 0-.07 0-.1.02-.03.03-.05.05-.08.03-.02.05-.04.08-.05.03-.01.06-.01.1-.01h.82c.03 0 .06 0 .09.01s.06.03.08.05c.02.03.04.05.05.08.01.03.02.06.01.1v5.44c0 .01 0 .02.01.03 0 .01.01.02.02.03.01.01.02.02.03.02.01.01.02.01.04.01h5.77c.01 0 .02 0 .03-.01.01 0 .02-.01.03-.02.01-.01.02-.02.02-.03.01-.01.01-.02.01-.03v-5.44c0-.06.03-.11.07-.15.04-.04.1-.06.16-.05ZM118.52 142.79c-.19-.73-.27-1.48-.25-2.24-.02-.74.06-1.49.23-2.21.26-.74.75-1.37 1.38-1.81a3.779 3.779 0 0 1 4.35 0c.63.44 1.12 1.07 1.38 1.81.19.73.28 1.48.26 2.23.02.76-.07 1.51-.26 2.24a3.733 3.733 0 0 1-3.54 2.52c-.78 0-1.55-.24-2.18-.69-.64-.46-1.12-1.1-1.37-1.83v-.02Zm5.89-.39c.11-.6.16-1.22.14-1.84.03-.61-.02-1.23-.14-1.84-.14-.51-.45-.96-.87-1.28-.43-.33-.94-.5-1.47-.5-.54 0-1.05.17-1.48.5-.42.32-.72.77-.87 1.28-.12.61-.17 1.23-.14 1.84-.03.62.02 1.24.14 1.84.15.51.45.97.87 1.29.43.32.94.5 1.48.5.53 0 1.04-.18 1.47-.5.42-.32.73-.78.87-1.29ZM128.48 144.93v-12.25c0-.04 0-.07.02-.1.01-.03.02-.05.05-.08.02-.02.05-.04.08-.05.03-.01.06-.01.09-.01h.82c.03 0 .06 0 .09.01.03.02.06.03.08.06.02.02.04.05.05.08.01.03.01.06.01.09v12.25c0 .03 0 .07-.01.09-.01.03-.03.06-.05.08-.02.03-.05.04-.08.06-.03.01-.06.01-.09.01h-.82c-.03 0-.06 0-.09-.01a.218.218 0 0 1-.08-.05.177.177 0 0 1-.05-.08c-.02-.03-.02-.07-.02-.1ZM139.32 138.92v6.05c0 .03 0 .06-.01.09s-.03.06-.05.08c-.03.03-.05.04-.08.06-.04.01-.07.01-.1.01h-.82c-.03 0-.06 0-.09-.01-.03-.02-.06-.03-.08-.06-.03-.02-.04-.05-.06-.08-.01-.03-.01-.06-.01-.09v-.65c0-.08-.05-.11-.11 0-.37.36-.82.64-1.3.82-.49.19-1.01.27-1.53.24-1.55 0-3-.74-3-2.65 0-1.9 1.38-2.94 3.74-2.94h2.11c.01 0 .03 0 .04-.01.01 0 .02-.01.03-.01.01-.01.02-.02.02-.04v-.81c.03-.29 0-.57-.1-.83-.1-.27-.26-.51-.46-.7-.21-.2-.46-.34-.73-.42a1.67 1.67 0 0 0-.83-.06c-1.14 0-1.89.48-2.09 1.24 0 .03-.02.06-.03.09-.02.03-.04.05-.07.06-.02.02-.05.03-.08.04-.04 0-.07 0-.1-.01l-.92-.1c-.13 0-.23-.08-.21-.21.23-1.32 1.58-2.23 3.45-2.23 2.25.03 3.47 1.29 3.47 3.13Zm-1.32 3.3v-1.4c0-.01 0-.03-.01-.04 0-.01-.01-.02-.02-.03-.01-.01-.02-.01-.03-.02H136c-1.58 0-2.66.67-2.66 1.84s.92 1.62 2.01 1.62c1.37.02 2.65-.67 2.65-1.97Z"/><path fill="#FFF" d="M381.14 189.21h-24.53a18.71 18.71 0 0 0-18.71 18.71v6.9l-12.22-.46 12.26 8v5.18c0 4.96 1.97 9.72 5.48 13.23a18.67 18.67 0 0 0 13.22 5.48h24.54c4.96 0 9.72-1.97 13.22-5.48a18.71 18.71 0 0 0 5.48-13.23v-19.62c0-2.46-.48-4.9-1.42-7.17-.95-2.27-2.33-4.34-4.07-6.07a18.56 18.56 0 0 0-6.08-4.05 18.75 18.75 0 0 0-7.17-1.42Z"/><path stroke="#263238" d="M356.61 189.21a18.71 18.71 0 0 0-18.71 18.71v6.9l-12.22-.46 12.26 8v5.18c0 4.96 1.97 9.72 5.48 13.23a18.67 18.67 0 0 0 13.22 5.48h24.54c4.96 0 9.72-1.97 13.22-5.48a18.71 18.71 0 0 0 5.48-13.23v-19.62c0-2.46-.48-4.9-1.42-7.17-.95-2.27-2.33-4.34-4.07-6.07a18.56 18.56 0 0 0-6.08-4.05 18.75 18.75 0 0 0-7.17-1.42h-24.53Z"/><path fill="#263238" d="M359.21 224.11h.82c.03 0 .06 0 .09.01s.05.03.07.05c.03.02.04.05.05.08.01.03.02.06.02.09v12.25c0 .03 0 .06-.01.09s-.03.06-.05.08c-.02.03-.05.04-.08.06-.03.01-.06.01-.09.01h-.82c-.03 0-.07 0-.1-.01s-.05-.03-.08-.05c-.02-.03-.04-.05-.05-.08-.01-.03-.01-.07-.01-.1v-5.55c-.01-.02-.01-.03-.02-.04-.01-.01-.02-.01-.03-.02h-5.84c-.01.01-.02.01-.03.02-.01.01-.02.02-.02.04v5.55c0 .03 0 .07-.02.1-.01.03-.02.05-.05.08-.02.02-.05.04-.08.05-.03.01-.06.01-.09.01h-.82c-.03 0-.07 0-.1-.01s-.05-.03-.08-.05c-.02-.03-.04-.05-.05-.08-.01-.03-.01-.07-.01-.1v-12.25c0-.03 0-.07.02-.09.01-.03.02-.06.05-.08.02-.02.05-.04.08-.05.03-.01.06-.02.09-.01h.82c.03-.01.06 0 .09.01s.06.03.08.05c.02.02.04.05.05.08.01.02.02.06.02.09v5.47c0 .01.01.02.02.03.01.01.02.02.03.02.01.01.03.01.04.01h5.76c.01 0 .02 0 .04-.01.01 0 .02-.01.03-.02.01-.01.01-.02.02-.03v-5.47c0-.03 0-.07.02-.09.01-.03.03-.06.05-.08.02-.02.05-.04.08-.05.03-.01.06-.02.09-.01ZM369.27 234.5c.01-.03.03-.05.05-.08.03-.02.05-.04.08-.05.03-.01.07-.01.1-.01l.09.03.52.3c.13.07.19.18.11.3-.3.63-.79 1.15-1.39 1.5-.6.36-1.29.52-1.98.49-.74.05-1.48-.15-2.09-.56a3.344 3.344 0 0 1-1.32-1.71c-.27-.81-.38-1.66-.35-2.52-.03-.7.02-1.41.17-2.1.19-.78.65-1.46 1.29-1.93.64-.48 1.42-.72 2.22-.68.9-.06 1.78.23 2.47.82.68.58 1.1 1.42 1.17 2.31.09.61.13 1.23.11 1.84 0 .03 0 .07-.02.1-.01.03-.02.05-.05.07-.02.03-.05.04-.08.05-.03.01-.06.02-.09.01h-5.82c-.01 0-.02 0-.03.01-.02 0-.03.01-.04.02 0 0-.01.02-.02.03v.03c-.01.45.02.9.11 1.34.13.54.46 1.01.91 1.34.45.32 1 .48 1.56.43a2.468 2.468 0 0 0 2.32-1.38Zm-4.75-4.18c-.1.4-.15.82-.15 1.24v.04c.01.01.02.02.02.03.01.01.02.01.04.02h4.71c.01 0 .02 0 .03-.01.01 0 .02-.01.03-.02.01 0 .01-.01.02-.03v-.03c-.01-.39-.04-.78-.1-1.17-.12-.52-.42-.99-.85-1.32-.43-.32-.96-.48-1.5-.45a2.07 2.07 0 0 0-1.44.43c-.42.31-.7.76-.81 1.27ZM373.07 236.59v-12.25c0-.03.01-.07.02-.09.01-.03.03-.06.05-.08.02-.02.05-.04.08-.05.03-.01.06-.02.09-.01h.82c.03-.01.06 0 .09.01s.06.03.08.05c.02.02.04.05.05.08.01.03.01.06.01.09v12.25c.01.03 0 .07-.01.1s-.02.05-.05.08c-.02.02-.04.04-.08.05-.02.01-.06.01-.09.01h-.82c-.03 0-.06 0-.09-.01a.218.218 0 0 1-.08-.05.177.177 0 0 1-.05-.08c-.02-.03-.02-.07-.02-.1ZM377.3 236.59v-12.25c0-.03 0-.06.01-.09s.03-.06.05-.08c.02-.02.05-.04.08-.05.03-.01.06-.01.09-.01h.82c.03-.01.06 0 .09.01s.05.03.08.05c.02.02.04.05.05.08.01.02.02.06.02.09v12.25c0 .03-.01.07-.02.1s-.03.05-.05.08c-.02.02-.05.04-.08.05-.03.01-.06.01-.09.01h-.82c-.03 0-.07 0-.1-.01-.02-.02-.05-.03-.07-.06a.218.218 0 0 1-.05-.08c-.01-.03-.02-.06-.01-.09ZM381.47 234.45a7.67 7.67 0 0 1-.25-2.24c-.03-.74.06-1.49.23-2.21.27-.74.75-1.37 1.39-1.81.63-.45 1.39-.69 2.17-.69s1.54.24 2.17.69c.64.44 1.12 1.07 1.39 1.81.18.73.27 1.48.24 2.23a7.7 7.7 0 0 1-.24 2.24 3.89 3.89 0 0 1-1.37 1.83 3.787 3.787 0 0 1-4.36 0 3.89 3.89 0 0 1-1.37-1.83v-.02Zm5.89-.38c.12-.61.17-1.22.15-1.84a8.12 8.12 0 0 0-.15-1.84c-.14-.51-.45-.96-.87-1.29-.42-.32-.94-.49-1.47-.49s-1.05.17-1.47.49c-.42.33-.73.78-.87 1.29a8.12 8.12 0 0 0-.15 1.84c-.02.62.03 1.24.15 1.84.14.51.45.97.87 1.29.42.32.94.49 1.47.49s1.05-.17 1.47-.49c.42-.32.73-.78.87-1.29Z"/><path fill="#FFF" d="M384.64 197.37H353.4v19.67h31.24v-19.67Z"/><path stroke="#263238" stroke-linejoin="round" d="M384.64 197.37v19.67H353.4v-19.67h31.24Z"/><path fill="#263238" fill-rule="evenodd" d="M353.57 197.37h31.23v1.91h-31.23v-1.91ZM353.57 200.35h31.23v1.91h-31.23v-1.91ZM353.57 203.32h31.23v1.91h-31.23v-1.91ZM353.57 206.31h31.23v1.9h-31.23v-1.9ZM353.57 209.29h31.23v1.9h-31.23v-1.9ZM353.57 212.27h31.23v1.9h-31.23v-1.9ZM353.57 215.25h31.23v1.9h-31.23v-1.9Z"/><path fill="#263238" fill-rule="evenodd" d="M353.4 197.37h15.15v10.48H353.4v-10.48Z"/><path fill="#FFF" d="m353.99 198.26.14.29.3.05-.22.23.05.32-.27-.15-.25.15.04-.32-.21-.23.29-.05.13-.29ZM353.99 200.2l.14.29.3.05-.22.23.05.32-.27-.16-.25.16.04-.32-.21-.23.29-.05.13-.29ZM353.99 202.13l.14.29.3.05-.22.23.05.32-.27-.16-.25.16.04-.32-.21-.23.29-.05.13-.29ZM353.99 204.06l.14.3.3.05-.22.22.05.32-.27-.14-.25.14.04-.32-.21-.22.29-.05.13-.3ZM353.99 206l.14.3.3.04-.22.23.05.32-.27-.15-.25.15.04-.32-.21-.23.29-.04.13-.3ZM355.38 199.39l.13.29.3.05-.22.23.05.32-.26-.15-.26.15.04-.32-.21-.23.29-.05.14-.29ZM355.38 201.33l.13.29.3.05-.22.23.05.32-.26-.16-.26.16.04-.32-.21-.23.29-.05.14-.29ZM355.38 203.26l.13.29.3.05-.22.23.05.32-.26-.14-.26.14.04-.32-.21-.23.29-.05.14-.29ZM355.38 205.19l.13.3.3.04-.22.23.05.32-.26-.14-.26.14.04-.32-.21-.23.29-.04.14-.3ZM356.76 198.26l.14.29.29.05-.22.23.06.32-.27-.15-.26.15.05-.32-.22-.23.3-.05.13-.29ZM356.76 200.2l.14.29.29.05-.22.23.06.32-.27-.16-.26.16.05-.32-.22-.23.3-.05.13-.29ZM356.76 202.13l.14.29.29.05-.22.23.06.32-.27-.16-.26.16.05-.32-.22-.23.3-.05.13-.29ZM356.76 204.06l.14.3.29.05-.22.22.06.32-.27-.14-.26.14.05-.32-.22-.22.3-.05.13-.3ZM356.76 206l.14.3.29.04-.22.23.06.32-.27-.15-.26.15.05-.32-.22-.23.3-.04.13-.3ZM358.15 199.39l.13.29.29.05-.21.23.05.32-.26-.15-.26.15.04-.32-.21-.23.29-.05.14-.29ZM358.15 201.33l.13.29.29.05-.21.23.05.32-.26-.16-.26.16.04-.32-.21-.23.29-.05.14-.29ZM358.15 203.26l.13.29.29.05-.21.23.05.32-.26-.14-.26.14.04-.32-.21-.23.29-.05.14-.29ZM358.15 205.19l.13.3.29.04-.21.23.05.32-.26-.14-.26.14.04-.32-.21-.23.29-.04.14-.3ZM359.53 198.26l.13.29.29.05-.21.23.06.32-.27-.15-.26.15.04-.32-.21-.23.29-.05.14-.29ZM359.53 200.2l.13.29.29.05-.21.23.06.32-.27-.16-.26.16.04-.32-.21-.23.29-.05.14-.29ZM359.53 202.13l.13.29.29.05-.21.23.06.32-.27-.16-.26.16.04-.32-.21-.23.29-.05.14-.29ZM359.53 204.06l.13.3.29.05-.21.22.06.32-.27-.14-.26.14.04-.32-.21-.22.29-.05.14-.3ZM359.53 206l.13.3.29.04-.21.23.06.32-.27-.15-.26.15.04-.32-.21-.23.29-.04.14-.3ZM360.91 199.39l.14.29.29.05-.21.23.05.32-.27-.15-.27.15.06-.32-.21-.23.29-.05.13-.29ZM360.91 201.33l.14.29.29.05-.21.23.05.32-.27-.16-.27.16.06-.32-.21-.23.29-.05.13-.29ZM360.91 203.26l.14.29.29.05-.21.23.05.32-.27-.14-.27.14.06-.32-.21-.23.29-.05.13-.29ZM360.91 205.19l.14.3.29.04-.21.23.05.32-.27-.14-.27.14.06-.32-.21-.23.29-.04.13-.3ZM362.3 198.26l.13.29.29.05-.21.23.05.32-.26-.15-.27.15.05-.32-.21-.23.29-.05.14-.29ZM362.3 200.2l.13.29.29.05-.21.23.05.32-.26-.16-.27.16.05-.32-.21-.23.29-.05.14-.29ZM362.3 202.13l.13.29.29.05-.21.23.05.32-.26-.16-.27.16.05-.32-.21-.23.29-.05.14-.29ZM362.3 204.06l.13.3.29.05-.21.22.05.32-.26-.14-.27.14.05-.32-.21-.22.29-.05.14-.3ZM362.3 206l.13.3.29.04-.21.23.05.32-.26-.15-.27.15.05-.32-.21-.23.29-.04.14-.3ZM363.68 199.39l.13.29.3.05-.22.23.06.32-.27-.15-.27.15.06-.32-.22-.23.3-.05.13-.29ZM363.68 201.33l.13.29.3.05-.22.23.06.32-.27-.16-.27.16.06-.32-.22-.23.3-.05.13-.29ZM363.68 203.26l.13.29.3.05-.22.23.06.32-.27-.14-.27.14.06-.32-.22-.23.3-.05.13-.29ZM363.68 205.19l.13.3.3.04-.22.23.06.32-.27-.14-.27.14.06-.32-.22-.23.3-.04.13-.3ZM365.06 198.26l.14.29.29.05-.21.23.05.32-.27-.15-.26.15.05-.32-.21-.23.29-.05.13-.29ZM365.06 200.2l.14.29.29.05-.21.23.05.32-.27-.16-.26.16.05-.32-.21-.23.29-.05.13-.29ZM365.06 202.13l.14.29.29.05-.21.23.05.32-.27-.16-.26.16.05-.32-.21-.23.29-.05.13-.29ZM365.06 204.06l.14.3.29.05-.21.22.05.32-.27-.14-.26.14.05-.32-.21-.22.29-.05.13-.3ZM365.06 206l.14.3.29.04-.21.23.05.32-.27-.15-.26.15.05-.32-.21-.23.29-.04.13-.3ZM366.45 199.39l.13.29.29.05-.21.23.06.32-.27-.15-.27.15.05-.32-.21-.23.29-.05.14-.29ZM366.45 201.33l.13.29.29.05-.21.23.06.32-.27-.16-.27.16.05-.32-.21-.23.29-.05.14-.29ZM366.45 203.26l.13.29.29.05-.21.23.06.32-.27-.14-.27.14.05-.32-.21-.23.29-.05.14-.29ZM366.45 205.19l.13.3.29.04-.21.23.06.32-.27-.14-.27.14.05-.32-.21-.23.29-.04.14-.3ZM367.83 198.26l.14.29.29.05-.21.23.05.32-.27-.15-.27.15.06-.32-.21-.23.29-.05.13-.29ZM367.83 200.2l.14.29.29.05-.21.23.05.32-.27-.16-.27.16.06-.32-.21-.23.29-.05.13-.29ZM367.83 202.13l.14.29.29.05-.21.23.05.32-.27-.16-.27.16.06-.32-.21-.23.29-.05.13-.29ZM367.83 204.06l.14.3.29.05-.21.22.05.32-.27-.14-.27.14.06-.32-.21-.22.29-.05.13-.3ZM367.83 206l.14.3.29.04-.21.23.05.32-.27-.15-.27.15.06-.32-.21-.23.29-.04.13-.3ZM149.86 217.66h-16.12a31.607 31.607 0 0 0-14.54-17.86 31.518 31.518 0 0 0-22.8-3.22 31.501 31.501 0 0 0-18.91 13.12c-4.43 6.6-6.2 14.63-4.96 22.49a31.522 31.522 0 0 0 11.64 19.86c6.24 4.92 14.11 7.3 22.04 6.67 7.92-.64 15.31-4.24 20.7-10.09a31.598 31.598 0 0 0 8.33-21.47v-.71l14.62-8.79Z"/><path stroke="#263238" d="M133.74 217.66a31.607 31.607 0 0 0-14.54-17.86 31.518 31.518 0 0 0-22.8-3.22 31.501 31.501 0 0 0-18.91 13.12c-4.43 6.6-6.2 14.63-4.96 22.49a31.522 31.522 0 0 0 11.64 19.86c6.24 4.92 14.11 7.3 22.04 6.67 7.92-.64 15.31-4.24 20.7-10.09a31.598 31.598 0 0 0 8.33-21.47v-.71l14.62-8.79h-16.12Z"/><path fill="#263238" d="M88.4 237.68c-.57.99-1.21 1.94-1.92 2.84-.24-.35-.5-.67-.79-.98 1.99-2.66 3.47-5.66 4.38-8.85l1.51.45c-.07.18-.23.22-.43.2-.49 1.47-1.07 2.9-1.73 4.3l.52.15c0 .11-.12.2-.36.21v11.57H88.4v-9.89Zm12.45.44c.14-.67.33-1.69.48-2.68h-3.61v10.62c0 1.31-.47 1.54-3.02 1.54-.09-.43-.24-.85-.45-1.25h1.96c.24 0 .31-.07.31-.31v-10.6H93.6c-.48 1.22-1.09 2.37-1.84 3.44-.28-.28-.59-.53-.92-.74 1.49-2.24 2.51-4.76 2.99-7.41l1.51.41c0 .13-.15.2-.39.18-.25 1.01-.56 2.01-.92 2.98h8.67c-.18 1.35-.46 2.68-.81 3.99l-1.04-.17Zm-5.82.6c-.05.13-.18.2-.4.2a17.87 17.87 0 0 1-2.76 6.07c-.3-.24-.63-.45-.97-.62a16.68 16.68 0 0 0 2.66-6.09l1.47.44Zm6.6 6.12c-.55-2.19-1.39-4.3-2.5-6.27l1.08-.38a24.16 24.16 0 0 1 2.59 6.21l-1.17.44ZM110.32 234.49l.69.17-.11.26c-.13 2.68-.73 5.33-1.75 7.82.8.57 1.52 1.24 2.17 1.98l-.75 1c-.58-.7-1.23-1.34-1.94-1.9a9.886 9.886 0 0 1-3.6 3.8c-.21-.36-.47-.7-.76-1a8.554 8.554 0 0 0 3.41-3.54c-.66-.5-1.35-.97-2.07-1.4l-.22.8-1.04-.54c.46-1.6 1.02-3.91 1.55-6.26h-1.84v-1.15h2.07c.29-1.36.54-2.67.76-3.84l1.49.19c0 .13-.13.2-.36.22-.2 1.04-.46 2.22-.73 3.43h2.77l.26-.04Zm-3.27 1.19c-.39 1.69-.8 3.4-1.19 4.89.76.42 1.55.92 2.31 1.44.82-2.02 1.33-4.15 1.51-6.33h-2.63Zm13.87 3.13v1.18h-4.39V246c0 1.4-.54 1.62-3.76 1.59-.11-.42-.26-.83-.45-1.22h2.18c.62 0 .8 0 .8-.38v-6.04h-4.45v-1.18h4.45v-3.09h.6c1-.89 1.9-1.88 2.69-2.96h-7v-1.15h7.92l.24-.07.97.6a.58.58 0 0 1-.3.18 22.46 22.46 0 0 1-3.89 4.2v2.26l4.39.07ZM119.37 205.34H88.13v19.67h31.24v-19.67Z"/><path stroke="#263238" stroke-linejoin="round" d="M119.37 205.34v19.67H88.13v-19.67h31.24Z"/><path fill="#FFF" d="m91.82 206.5.76 1.54 1.69.23-1.23 1.2.3 1.67-1.52-.79-1.51.79.3-1.67-1.23-1.2 1.69-.23.75-1.54ZM96.72 205.9l.4.79.86.13-.62.61.15.86-.79-.4-.77.4.15-.86-.64-.61.88-.13.38-.79ZM97.78 209.89l.39.79.87.12-.63.62.15.87-.78-.41-.78.41.15-.87-.63-.62.87-.12.39-.79ZM95.19 212.51l.38.78.88.13-.63.61.15.87-.78-.42-.78.42.15-.87-.63-.61.87-.13.39-.78ZM91.59 213.7l.39.78.87.13-.62.62.14.86-.78-.4-.77.4.14-.86-.63-.62.87-.13.39-.78Z"/><path stroke="#263238" stroke-linecap="round" stroke-linejoin="round" stroke-width="3" d="M279.2 143.04c0-5.01-.99-9.98-2.91-14.61a38.314 38.314 0 0 0-8.27-12.38 38.207 38.207 0 0 0-12.38-8.27c-4.63-1.92-9.59-2.9-14.6-2.9h-13.29c-10.12 0-19.83 4.02-26.98 11.17a38.171 38.171 0 0 0-11.18 26.99"/><path stroke="#263238" stroke-linecap="round" stroke-linejoin="round" stroke-width="6" d="M279.2 171.3v-28.26M189.59 143.04v28.26"/><path fill="#FFF" d="M217 213.7s2.38 16.65 1.9 20.92c-.48 4.28-1.43 8.56-13.31 3.8-11.89-4.75-33.28 3.81-47.07 20.45-13.79 16.63-39.93 72.26-39.93 78.91 0 6.65 5.23 15.64 14.72 17.11 9.5 1.48 31.85-25.66 31.85-25.66s9.51 53.72 9.51 57.96c0 4.24-4.26 32.33-4.26 32.33h134.54l-5.24-34.71 9.52-76.54s39.45 53.72 48.01 56.12c8.56 2.4 21.87-1.91 25.2-11.89 3.33-9.98-1.9-20.44-8.57-28.05-6.66-7.61-48.48-74.64-56.12-80.81-7.63-6.17-28.99-6.66-36.6-4.76-7.61 1.91-20.44 4.76-23.77 2.85-3.34-1.9-3.33-19.96 0-28.05.02.02-28.98 7.63-40.38.02Z"/><path stroke="#263238" stroke-linejoin="round" d="M218.9 234.62c-.48 4.28-1.43 8.56-13.31 3.8-11.89-4.75-33.28 3.81-47.07 20.45-13.79 16.63-39.93 72.26-39.93 78.91 0 6.65 5.23 15.64 14.72 17.11 9.5 1.48 31.85-25.66 31.85-25.66s9.51 53.72 9.51 57.96c0 4.24-4.26 32.33-4.26 32.33h134.54l-5.24-34.71 9.52-76.54s39.45 53.72 48.01 56.12c8.56 2.4 21.87-1.91 25.2-11.89 3.33-9.98-1.9-20.44-8.57-28.05-6.66-7.61-48.48-74.64-56.12-80.81-7.63-6.17-28.99-6.66-36.6-4.76-7.61 1.91-20.44 4.76-23.77 2.85-3.34-1.9-3.33-19.96 0-28.05.02.02-28.98 7.63-40.38.02 0 0 2.38 16.65 1.9 20.92Z"/><path stroke="#263238" stroke-linecap="round" stroke-linejoin="round" d="M198.41 358.46c1.54.59 3.1 1.1 4.69 1.53M173.88 327.96s2.11 18.47 19.52 28.15M228.02 273.85l9.25 13.53M319.54 286.78l2.45-5.1M315.57 280.26l-6.34 28.05 7.8-16.28M344.08 330.8s10.04-6.44 19.93-6.44"/><path fill="#FFF" d="M323.63 350.09c6.37-3.44 12.46-7.39 18.21-11.79a40.723 40.723 0 0 1 28.98-8.21c9.49 1.02 14.62 12.82 14.87 24.62.24 11.8-6.16 18.97-17.69 20.77-11.54 1.79-25.14-.77-33.59-2.82-4.48-1.14-9.02-1.99-13.6-2.57 0 0-11.02-16.92 2.82-20Z"/><path stroke="#263238" stroke-linejoin="round" d="M341.84 338.3a40.723 40.723 0 0 1 28.98-8.21c9.49 1.02 14.62 12.82 14.87 24.62.24 11.8-6.16 18.97-17.69 20.77-11.54 1.79-25.14-.77-33.59-2.82-4.48-1.14-9.02-1.99-13.6-2.57 0 0-11.02-16.92 2.82-20 6.37-3.44 12.46-7.39 18.21-11.79Z"/><path fill="#FFF" d="M385.69 354.71c-.25-11.8-5.38-23.6-14.87-24.62a40.723 40.723 0 0 0-28.98 8.21l-1.29.98c11.04.38 33.36 4.89 29.87 35.72 10.01-2.4 15.51-9.35 15.27-20.29Z"/><path stroke="#263238" stroke-linejoin="round" d="M370.82 330.09a40.723 40.723 0 0 0-28.98 8.21l-1.29.98c11.04.38 33.36 4.89 29.87 35.72 10.01-2.4 15.51-9.35 15.27-20.29-.25-11.8-5.38-23.6-14.87-24.62Z"/><path fill="#FFF" d="M217 213.7s2.38 16.65 1.9 20.92c-.36 3.21-.98 6.44-6.28 5.82 7.58 12.39 29.59 41.48 50.14 1.84-2.4.14-4.33 0-5.36-.57-3.32-1.91-3.32-19.97 0-28.05 0 .04-29 7.65-40.4.04Z"/><path stroke="#263238" stroke-linejoin="round" d="M218.9 234.62c-.36 3.21-.98 6.44-6.28 5.82 7.58 12.39 29.59 41.48 50.14 1.84-2.4.14-4.33 0-5.36-.57-3.32-1.91-3.32-19.97 0-28.05 0 .04-29 7.65-40.4.04 0 0 2.38 16.65 1.9 20.92Z"/><path fill="#263238" d="M217 213.7s.61 4.33 1.15 9.13a42.242 42.242 0 0 0 17.85 4.86 34.47 34.47 0 0 0 19.42-5.62c.31-2.86.98-5.67 1.98-8.37 0 0-29 7.61-40.4 0Z"/><path stroke="#263238" stroke-linejoin="round" d="M218.15 222.83a42.242 42.242 0 0 0 17.85 4.86 34.47 34.47 0 0 0 19.42-5.62c.31-2.86.98-5.67 1.98-8.37 0 0-29 7.61-40.4 0 0 0 .61 4.33 1.15 9.13Z"/><path fill="#263238" d="M190.87 156.17h-2.62c-3.23 0-5.84 2.61-5.84 5.83v22.32c0 3.22 2.61 5.83 5.84 5.83h2.62a5.83 5.83 0 0 0 5.83-5.83V162a5.83 5.83 0 0 0-5.83-5.83Z"/><path stroke="#263238" stroke-linejoin="round" d="M190.87 156.17a5.83 5.83 0 0 1 5.83 5.83v22.32a5.83 5.83 0 0 1-5.83 5.83h-2.62c-3.23 0-5.84-2.61-5.84-5.83V162c0-3.22 2.61-5.83 5.84-5.83h2.62Z"/><path fill="#FFF" d="M191.02 156.19h-2.93v33.93h2.93v-33.93Z"/><path stroke="#263238" stroke-linejoin="round" d="M190.36 156.19h-2.27v33.93h2.93v-33.93h-.66Z"/><path fill="#263238" d="M280.77 156.17h-2.62a5.83 5.83 0 0 0-5.83 5.83v22.32a5.83 5.83 0 0 0 5.83 5.83h2.62a5.83 5.83 0 0 0 5.83-5.83V162a5.83 5.83 0 0 0-5.83-5.83Z"/><path stroke="#263238" stroke-linejoin="round" d="M280.77 156.17a5.83 5.83 0 0 1 5.83 5.83v22.32a5.83 5.83 0 0 1-5.83 5.83h-2.62a5.83 5.83 0 0 1-5.83-5.83V162a5.83 5.83 0 0 1 5.83-5.83h2.62Z"/><path fill="#FFF" d="M280.93 156.19H278v33.93h2.93v-33.93Z"/><path stroke="#263238" stroke-linejoin="round" d="M280.27 156.19H278v33.93h2.93v-33.93h-.66Z"/><path fill="#FFF" d="M167.1 183c-1.12.1-2.19.48-3.12 1.1-.93.62-1.69 1.46-2.21 2.45-2.14 3.55-8.88 16.69-8.17 20.6.71 3.91 30.18 31.6 30.18 33.38 0 1.78-23.43 33.73-39.06 47.94-15.63 14.21-28.05 30.18-30.18 42.96-2.14 12.79 5.32 23.44 13.14 25.57 7.82 2.14 17.4-2.48 28.4-16.34 11.01-13.85 41.2-74.21 45.82-94.76 0 0 1.06-9.2-3.2-14.56-4.26-5.36-14.92-17.76-14.92-17.76s2.14-24.5.36-26.27c-1.77-1.78-3.55 2.13-3.55 2.13s-1.64-8.21-3.91-7.82c-2.47.44-3.19 3.55-3.19 3.55s-1.78-7.15-6.39-2.17Z"/><path stroke="#263238" stroke-linejoin="round" d="M163.98 184.1c-.93.62-1.69 1.46-2.21 2.45-2.14 3.55-8.88 16.69-8.17 20.6.71 3.91 30.18 31.6 30.18 33.38 0 1.78-23.43 33.73-39.06 47.94-15.63 14.21-28.05 30.18-30.18 42.96-2.14 12.79 5.32 23.44 13.14 25.57 7.82 2.14 17.4-2.48 28.4-16.34 11.01-13.85 41.2-74.21 45.82-94.76 0 0 1.06-9.2-3.2-14.56-4.26-5.36-14.92-17.76-14.92-17.76s2.14-24.5.36-26.27c-1.77-1.78-3.55 2.13-3.55 2.13s-1.64-8.21-3.91-7.82c-2.47.44-3.19 3.55-3.19 3.55s-1.78-7.15-6.39-2.17c-1.12.1-2.19.48-3.12 1.1Z"/><path stroke="#263238" stroke-linecap="round" stroke-linejoin="round" d="M180.59 189.4s-5.09 20.39-4.6 23.83M173.49 185.13s-5.4 19.83-6.09 22.59c-.23.9-.27 1.85-.12 2.76.14.92.48 1.8.98 2.59M167.1 183s-7.63 21.27-7.63 23.52c0 2.24 1.73 4.99 1.73 4.99"/><path fill="#FFF" d="M160.31 271.88a187.66 187.66 0 0 1-15.59 16.56c-15.64 14.2-28.05 30.18-30.18 42.97-2.14 12.79 5.32 23.43 13.14 25.56 7.82 2.14 17.4-2.48 28.4-16.34 6.34-7.96 19.02-31.33 29.53-53.66-16.01-4.25-22.62-10.87-25.3-15.09Z"/><path stroke="#263238" stroke-linejoin="round" d="M144.72 288.44c-15.64 14.2-28.05 30.18-30.18 42.97-2.14 12.79 5.32 23.43 13.14 25.56 7.82 2.14 17.4-2.48 28.4-16.34 6.34-7.96 19.02-31.33 29.53-53.66-16.01-4.25-22.62-10.87-25.3-15.09a187.66 187.66 0 0 1-15.59 16.56Z"/><path fill="#FFF" d="M196.39 138.56s-.62 49.43 1.24 58.7c1.86 9.28 18.54 25.03 37.72 25.64 19.18.62 34.3-16.99 36.15-26.26 1.85-9.28 0-46.34-.31-61.17-.3-14.83-21.63-28.12-43.24-24.72-21.61 3.39-32.79 16.06-31.56 27.81Z"/><path stroke="#263238" stroke-linejoin="round" d="M197.63 197.26c1.86 9.28 18.54 25.03 37.72 25.64 19.18.62 34.3-16.99 36.15-26.26 1.85-9.28 0-46.34-.31-61.17-.3-14.83-21.63-28.12-43.24-24.72-21.61 3.39-32.79 16.06-31.56 27.81 0 0-.62 49.43 1.24 58.7Z"/><path stroke="#263238" stroke-linecap="round" stroke-linejoin="round" d="M243.35 158.64s1.24 8.65 2.48 10.5c1.24 1.85 3.39 4.33-.92 6.18-4.32 1.85-7.73-.31-7.73-2.47"/><path fill="#FFF" d="M247.99 189.22s-16.69 2.14-24.1-5.22c0 0 1.84 11.43 7.41 13.29 5.58 1.86 16.69-8.07 16.69-8.07Z"/><path stroke="#263238" stroke-linejoin="round" d="M223.89 184s1.84 11.43 7.41 13.29c5.58 1.86 16.69-8.07 16.69-8.07s-16.69 2.14-24.1-5.22Z"/><path stroke="#263238" stroke-linecap="round" stroke-linejoin="round" d="m226.36 158.94 1.55 4.94"/><path stroke="#263238" stroke-linecap="round" stroke-linejoin="round" stroke-width="2" d="M219.56 163.58s4.33 2.76 12.36.3"/><path stroke="#263238" stroke-linecap="round" stroke-linejoin="round" d="m256.64 158.94 1.54 4.94"/><path stroke="#263238" stroke-linecap="round" stroke-linejoin="round" stroke-width="2" d="M249.84 163.58s4.32 2.76 12.37.3M217.4 150.3a16.22 16.22 0 0 1 5.72-4.78c2.25-1.13 4.74-1.71 7.25-1.71M247.06 143.18s8.96-2.46 15.15 4.6"/><path stroke="#263238" stroke-linejoin="round" d="M236.69 160.82a8.626 8.626 0 0 1-1.28 4.39l-.18.28a14.462 14.462 0 0 1-5.22 4.97 14.473 14.473 0 0 1-6.99 1.81h-1.93c-1.96 0-3.89-.52-5.59-1.5-1.71-.98-3.12-2.39-4.11-4.09a9.428 9.428 0 0 1-1.24-4.08 9.32 9.32 0 0 1 .71-4.2c.67-1.6 1.77-2.97 3.18-3.98a9.35 9.35 0 0 1 4.81-1.7l8.79-.55a8.544 8.544 0 0 1 7.88 4.22 8.616 8.616 0 0 1 1.17 4.43ZM244.47 160.82a8.53 8.53 0 0 0 1.28 4.39l.17.28a14.412 14.412 0 0 0 12.21 6.78h1.93c1.97 0 3.89-.52 5.6-1.5 1.7-.98 3.11-2.39 4.1-4.09a9.295 9.295 0 0 0 .53-8.28 9.318 9.318 0 0 0-3.18-3.98c-1.41-1-3.08-1.59-4.8-1.7l-8.79-.55c-1.58-.09-3.15.25-4.54 1a8.477 8.477 0 0 0-3.34 3.22 8.52 8.52 0 0 0-1.17 4.43Z"/><path stroke="#263238" stroke-linecap="round" stroke-linejoin="round" d="M236.56 158.01s2.75-2.16 8.03 0M232.85 153.39h15.14M210.84 158.39h-14.45"/><path fill="#263238" d="M251.7 125.58s8 25.7 20.15 32.34c-.26-8.81-.57-17.09-.68-22.45-.32-14.83-21.63-28.12-43.24-24.72-21.62 3.39-32.76 16.06-31.52 27.81 0 0-.1 8.07-.1 18.3 10.44-4.49 37.91-17.02 55.39-31.28Z"/><path stroke="#737373" stroke-linecap="round" stroke-linejoin="round" d="M194.24 150.11s40.53-16.99 62.44-38.56M190.97 136.39s42.49-9.81 67.01-35.64M259.61 114.48s.65 16.67 18.31 32.03"/><path fill="#263238" d="M255.01 218.21s0 11.21-8.4 29.06c-8.4 17.86-8.76 35.72-3.16 49.02 5.61 13.3 20.67 18.57 36.81 12.61 16.13-5.95 18.2-32.56 16.45-48.67-1.74-16.11-17.48-35.02-21.01-44.48-3.53-9.45-5.95-14.35-5.95-14.35s-9.11 12.61-14.72 15.4l-.02 1.41Z"/><path stroke="#737373" stroke-linecap="round" stroke-linejoin="round" d="M260.92 205.68a88.074 88.074 0 0 1-5.88 45.08c-9.81 23.53-2.29 48.7 9.15 53.93 11.45 5.23 22.55 3.28 28.11-3.92"/><path stroke="#737373" stroke-linecap="round" stroke-linejoin="round" d="M265.17 200.45s11.11 26.15 6.54 45.77c-4.57 19.61-2.61 44.5 11.11 49.35 13.73 4.86 21.58-4.85 21.58-4.85"/><path stroke="#737373" stroke-linecap="round" stroke-linejoin="round" d="M278.57 217.45s9.48 35.95 9.48 54.58c0 18.63 11.44 15.7 14.39 6.54"/><path stroke="#263238" stroke-linejoin="round" d="M246.61 247.27c-8.4 17.86-8.76 35.72-3.16 49.02 5.61 13.3 20.67 18.57 36.81 12.61 16.13-5.95 18.2-32.56 16.45-48.67-1.74-16.11-17.48-35.02-21.01-44.48-3.53-9.45-5.95-14.35-5.95-14.35s-9.11 12.61-14.72 15.4l-.02 1.41s0 11.21-8.4 29.06Z"/><path fill="#263238" d="m298.22 317.33-59.73-2.41a4.76 4.76 0 0 0-4.96 4.58l-3.33 82.47a4.775 4.775 0 0 0 4.58 4.97l59.73 2.41c2.64.1 4.86-1.95 4.96-4.58l3.33-82.48c.11-2.63-1.94-4.85-4.58-4.96Z"/><path stroke="#263238" stroke-linejoin="round" d="M298.22 317.33c2.64.11 4.69 2.33 4.58 4.96l-3.33 82.48c-.1 2.63-2.32 4.68-4.96 4.58l-59.73-2.41a4.775 4.775 0 0 1-4.58-4.97l3.33-82.47a4.76 4.76 0 0 1 4.96-4.58l59.73 2.41Z"/><path fill="#FFF" d="M328.66 350.69s-30.59-9.51-35.8-11.11c-5.22-1.6-35.26 20.83-36.46 24.04-1.2 3.2 3.2 3.21 3.2 3.21s-1.84 3.2.92 4.8c.87.59 1.8 1.09 2.76 1.5 0 0-1.6 3.61 1.6 4.81 3.2 1.21 7.62-2 7.62-2l7.21-5.21s-8.66 10.61-6.81 12.82c2.54 3.04 4.17-.22 4.17-.22l9.97-11.8 10-4.81s8.02 4.81 20.84 5.2c12.83.4 15.64-5.2 15.64-5.2m-4.74-16.49.03-.02c.26.09.41.36.32.63-.08.27-.35.41-.62.33l-.01-.03.28-.91Zm4.31 16.29-.01-.03c.12-.25.42-.35.67-.22.25.13.35.42.22.67l-.03.01-.85-.43Z"/><path stroke="#263238" stroke-linecap="round" stroke-linejoin="round" d="M328.66 350.69s-30.59-9.51-35.8-11.11c-5.22-1.6-35.26 20.83-36.46 24.04-1.2 3.2 3.2 3.21 3.2 3.21s-1.84 3.2.92 4.8c.87.59 1.8 1.09 2.76 1.5 0 0-1.6 3.61 1.6 4.81 3.2 1.21 7.62-2 7.62-2l7.21-5.21s-8.66 10.61-6.81 12.82c2.54 3.04 4.17-.22 4.17-.22l9.97-11.8 10-4.81s8.02 4.81 20.84 5.2c12.83.4 15.64-5.2 15.64-5.2"/><path stroke="#263238" stroke-linecap="round" stroke-linejoin="round" d="M263.35 373.13s11.23-7.71 14.03-10.5c2.79-2.79 11.85-8.61 14.65-8.61M279.78 370.76s5.52-6.24 7.6-7.17c2.08-.93 5.11-2.33 5.11-2.33M259.6 366.83s15.64-11.04 21-14.29a74.76 74.76 0 0 1 10-5.12"/></g></svg>