<svg xmlns="http://www.w3.org/2000/svg" width="661" height="661" fill="none"><defs><clipPath id="a"><path fill="#fff" fill-opacity="0" d="M0 0h661v661H0z"/></clipPath></defs><path fill="none" d="M0 0h661v661H0z"/><g clip-path="url(#a)"><path stroke="gray" d="M327.61 244.05c-1.32-.12-1.82 3.68-.34 3.45.65-.09.71-3.41.34-3.45ZM194.98 294.46c0-1.43-7.19-3.31-8.08-2.65.07.95.47 1.85 1.12 2.54 0 .7-3.02-.08-3.29.66.21.37.56.63.96.75.41.11.84.05 1.21-.15 1.08-.4 8.08 1.07 8.08-1.15Z"/><path stroke="gray" d="M241.37 335.28c-2.86-.4-3.03-.7-5.54.33 2.8-1.15-4.52-4.53-4.56-4.55-1.23-.33-2.49 3-3.6 2.53.23.09 1.32-2.65.2-3.68-1.12-1.03-3.12 1.46-3.23 1.39.19.11 3.14-7.37-.46-9.33-3.46-2.28-6.31-1.85-9.45-3.43-2.94-1.48-3.2-5.11-7.33-4.85 1.68-.1-3.25-4.4-1.89-3.86-2.19-.87-6.43.98-9.25.35-1.12-.24-1.85-3.12-3.48-3.12-2.48 0-1.81 4.45-2.2 5.28-1.15 2.53-1.62-6.61-.45-5.87-.84-.52-6.61 3.49-7.26 3.97-1.32.98-1.83 2.88-3.17 3.28 2.27-.68-7.28-1.73-5.29-.98-6.04-2.3-3.28-3.08-4.92-8.41-.48-1.5 1.1-2.22-.19-3.59-1.28-1.38-6.37-1.59-7.93-.58-1.11.6.15-4.18.64-4.68 1.97-2 2.64-6.61-.45-6.72-5.07-.13-2.57 4.35-5.71 5.91-9.47 4.71-9.89-8.61-9.59-14.2.52-9.85 7.62-7.18 13.54-6.49-1.56-.19-.24-2.54 1.56-2.64 1.68.06 3.33.42 4.88 1.07 2.98.88 2.23 0 4.45 3.76.87 1.51 1.22 5.29 3.18 5.91.17 0-.11-13.77 1.01-15.42 1.42-2.09 4.8-4.68 5.87-6.06 2.45-3.13.1.4.4-3.24 0-.38-.98-5.56.69-5.56-.65 0 .57 4.86.5 4.9 1.66-1.15.58-2.84.66-4.15 0-1.04 5.39-2.83 5.83-3.78.19-.4-2.58 0-2.58-.08 0-1.4 4.34-1.16 4.97-1.6.26-1.79.88-3.51 1.84-5.05 1.96-2.02 6.84-1.57 8.34-4.67-.18.39.65 1.92 1.69 1.62-3.84 1.12-5.68 3.17-1.07 2.48 2.36-.35 5.93-2.64 7.68-3.96.11-.08-.8-1.22-.67-2.01-.08.5-2.91 2.73-3.57 2.64-4.49-.82-2.35-3.83-4.1-5-.46.23-.98.32-1.49.28-.48-1.61 5.43-2.83-.25-3.57-3.97-.51-5.89 5.2-8.58 5.2 1.32 0 7.28-7.25 10.1-7.93 1.12-.38 16.99-1.53 15.66-5.03-.36-.21-.74-.4-1.12-.57-1.1-1.01 2.87-2.02-1.53-2.54-.11-.48-.15-.97-.12-1.46-.43-.29-4.87 1.54-4.87 1.53-.34-1.61 4.11-1.8 4.62-2.64 0 .06-9.54-4.56-8.68-5.7 1.76-2.27 1.75.26.61-3.27-.32-.96-4.56-6.91-4.26-7.19-2.06 1.87-.89 6.11-4.49 6.12-3.97 0-3.58-4.54-3.58-7.15 0-1.15-9.85-4.08-10.58-4.06-5.56.15-3.28.5-3.62 4.92-.07.75-.89 3.89-.81 4.34.66 3.42 3.49 4.52 1.76 8.91-.53 1.32-3.69 1.7-3.96 2.48-.31 1.05 1.22 2.1.99 3.35-.1.5.51 5.22.2 5.07-2.11-.99-1.18.97-3.53-1.13-2.65-2.37-.81-5.79-2.36-7.59-.61-.73-8.29-3.64-9.99-4.42a10.69 10.69 0 0 0-7.41-1.16c.68-.11-.63-3.97-.92-4.4-1.67-2.83-3.46.31-2.46-5.29.25-1.4 6.52-8.13 6.61-7.93 0-.28-5.13-2.2-5.09-2.29.71-1.71 5.06 3.04 6.25-.54-.54 1.65 6.89-1.62 5.04-2.95-.78-.56-5.14 0-4.88-2.05-.17 1.32 9.35 1.85 5.57-1.52-.13-.12 3.46 0 4.19 0 .5 0-1.32-1.74-1.2-1.92.54-.54 2.44 2.65 4.94-.13 1.93-2.15-1-2.38-1.12-4.47 0-.24 2.97-1.04 1.98-2.54-.75-1.13-4.71-2.49-6.02-2.07-.91.29.33 4.73-2.14 6.17-.33-.32-.58-.71-.74-1.15-1.04.07.94 3.86-.39 3.24-1.34-.62-1.46-3.32-1.67-3.5-.53-.46-1.23-2.17-2.12-2.96-.88-.8-1.73 2.95-2.07 3.01-1.32.24.17-3.24.26-3.4.61-1.13-3.21-.76-3.14-.7-1.22-1.05.83-1.64 1.04-1.97-.26.43-2.93-4.35-2.93-4.32-1.76-3.97-.57 0-1.02-4.51.21 2.1 8.17-3.5 5.41-4.41-2.77-.92-6.83-1.22-7.45 1.01-.34 1.33-.14 6.35-.66 8.37-.17.65-2.34 1.7-1.59 4.27.31 1.01 6.1 2.32 3.38 4.52.02-.28.15-.54.36-.72.21-.19.48-.28.76-.27.08.17-2.96 5.74-2.64 5.5-1.24-1.12-2.4-2.31-3.49-3.57-.16-.29 3.87-.91 4.08-1.11 1.56-1.52-2.29-1.49-2.29-1.72 0-.43 2.07-.17 1.33-.74-.5-.37-1.06-.63-1.66-.78-.6-.15-1.23-.17-1.84-.07-.61.11-1.19.33-1.71.67-.52.33-.97.77-1.31 1.28-.72.95 5.67 3.39-2.01 4.38-3.5.45-4.93-1.33-7.93-2.03-.89-.21-.85-1.13-2.45-1.32-.55 0-4.36 1.61-3.2 2.14.85.37 3.97-1.77 4.48-1.23-2.06-2.26-2.44 6.38-3.78 5.68-.59-.32-.22-2.4-2.03-2.99-2.49-.84-8.12 1.73-9.97-.31-.9-.97 2.37-1.21 2.11-1.79-.91-2.12-6.09-2.26-7.93-2.71-1.84-.45-3.24-1.5-4.92-1.68-2.02-.21-2.78 1.23-4.66 1.23-.28 0 .38-2.52-.49-2.65-.6 1.01-1.37 1.9-2.28 2.65-1.79-.14-1.56-4.55-3.7-4.22 1.46-.23-3.05 3.2-2.75 3.03a60.228 60.228 0 0 1-5.93 3.31c-1.13-.06 6.33-4.64 6.32-4.46.08-.9-6.46 1.86-7.18 2.26-.73.39 0-1.15-1.32-.7-3.12 1.12-.9 2.08-1.66 2.9.31-.31-19.28-4.61-20.58-4.71-1.92-.16-13.83-1.51-14.54-2.33-1.32-1.43-4.72.09-6.28 1.8-1.26 1.32-10.58 3.42-10.99 5.44-.95 4.25 8.95 5.04 9.71 7.35 0 .19-11.15-.42-12.38 2.51.43-1 3.12 3.22 3.4 3.32 1.32.48 8.09-.98 8.12-.94 1.9 1.9-2.24 4.46-3.26 5.41-1.22 1.14-1.32-.7-2.8 1.23-.87.82-1.8 1.58-2.79 2.26.32-.29 2.25 4.03 2.32 4.09 1.17 1.03 4.78 1.01 4.36.59 1.14 1.14-.11 3.52.95 4.07.71.39 3.19.08 4.55.64-1.22-.49 3.74-2.16 3.45-1.32-.68 2.03-8.81 11.89-10 10.57 1.43 1.58 16.09-8.33 16.09-10.67-.39-.33-.83-.58-1.32-.74-.33-.83 7.93-7.7 7.64-5.03 0-.28-4.93 3.76-3.79 4.81.34.3 5.8-1.59 6.61-1.91.8-.31-1.98-2.78 0-3.14.67-.12 3.28 1.41 3.38 1.32a.917.917 0 0 0-1.16.73c.25.79 11.66.29 12.37.92-.34-.3 7.33 6.32 7.25 4.47a3.08 3.08 0 0 1-.24-2.11c3.65 2.64-1.71 3.38-1.69 3.22 0 .19 2.77 4.1 2.64 4.14.52-.28-.71-3.54.12-3.24.19.41.27.87.23 1.32.92 1.19 1.08-2.64.96-2.38.2-.51.29 5.05-.29 4.97-.85-.12 4.85-.49 3.17.33.53-.26-2.07-1.81-.63-1.93 2.22-.18.47 1.88-1.01 2.01-.01 1.09.08 2.17.27 3.24.45.33 2.48-1.58 3.51-1.4 1.04.19.85 3.97 1.42 4.76.41.57 3.26 3.44 3.63 3.97 1.79 1.86 3.81 3.48 6.01 4.83-.2-.15 7.51 6.35 3.26 6.35-.16 0-4.6-11.96-9.53-8.49 1.03-.72 6.61 7.3 6.99 8.33 2.07 5.92-1.32 12.81.98 19.28 1.57 4.42 5.73 7.23 8.53 10.27a37.8 37.8 0 0 1 4.45 6.74c1.97 3.33 2.41 4.18 2.01 6.08 0 .09 8.89 9.39 8.54 9.64.85-.61-8.8-18.03-8.52-18.07 3.49-.36 3.79 5.1 4.44 6.11 1.78 2.76 5.04 5.28 6.99 7.85 3.35 4.29 3.79 8.8 6.78 11.9 1.99 2.04 6.61 3.83 9.26 4.66 3.49 1.11 7.18.07 9.99 2.82 1.32 1.23 3.32 1.32 4.22 2.18 2.47 2.27 3.49 1.14 5.8 3.52 1.56 1.6 2.01 3.06 2.91 3.96 1.48 1.46 3.97 4.22 6.2 4.38 2.24.16 1.52-2.46 2.65-2.2 4.97 1.18 4.07 7.84 2.06 11.9-2.17 4.43-4.95 5.2-2.5 9.67.17.31-2.42 4.52-2.17 5.83.48 2.48 6.03 9.84 7.32 12.42 2.49 4.89 5.66 5.4 9.18 9.39 3.21 3.65 2.19 6.61 1.64 11.58-.81 7.28-1.02 14.45-2.57 21.51-.62 2.81-5.96 17.47-3.96 20.29.91 1.32 1.32-3.69 2.17-3.97.84-.27-.55 10.94-1.43 10.32-.46-.33.51-3.64-.7-3.1 1.11-.49-2.28 4.67-2.29 4.72.13-1.45 1.73 1.77 1.8 2.29.1.9 1.96-.6 1.86.71.13-1.95-5.55 2.25-2.87 1.84.45-.26.86-.57 1.22-.94.4-.08-2.8 3.35-.66 3.69.42.07.65-2.19 1.24-1.6 1.26 1.26-2.39 3.97-1.53 5 .17.21 1.95-.81 2.3-.09.1.22-1.2 1.24-.99 1.32.71.26 2.34-.7 2.64.33.31 1.03-3.17.08-1.98 1.77.45.63 3.28-2.05 3.81-.29-.15-.5-3.18 1.59-3.28 1.72 1.22-.36 2.47-.65 3.72-.86.27.58-4.13 2.28-4.25 1.78.13.57 2.64 2.14 3.06 1.75.69-.7-.91-.36-.34-1.1.4-.53 3.78-2.41 3.97-2.91-.3.18-.55.44-.71.75-.17.3-.25.65-.23 1 .5.09 1.02.12 1.53.08-.42-.48-1.02 2.22-.86 2.14-.21-.2-.38-.43-.5-.69-.12-.26-.19-.54-.2-.83-.75-.33-.37 1.58-.47 1.5a1.04 1.04 0 0 0-.48-.59c-.23-.12-.5-.16-.75-.09.62-.88-.77 2.64-.77 1.44 0-.68 2.14 1.97 2.09 1.92.29-.44.49-.92.59-1.43 1.14.88 2.33 1.7 3.56 2.46.66.19-.48-1.55-.09-1.5 1.74-.15 3.46-.5 5.13-1.06-2.38-.87-5.29-5.1-5.74-5.28-.36-.1-1.71.2-1.51-.72.2-.91 1.47.32 1.8 0 .33-.31-1.49-3.13-1.11-3.96.59-1.32 1.64-1.7 2.31-2.92.9-1.64 3.12-2.9 3.26-4.72.11-1.45-2.08-1.47-1.97-1.88.41-1.59 1.42-5.47 3.06-7.54.62-.79 2.74-2.87 2.73-2.88-.52-.44-4.57-.08-2.44-3.29-.67 1 4.83-.87 4.55-.71.75-.44-.1-2.98.28-3.39 1.88-1.99 8.79.9 9.57-4.43.17-1.17-3.07-5.29-3.13-5.21 1.09-1.15 6.21 1.33 9.03-1.66.7-.74 4.2-6.94 4.19-6.76-.34.91-.79 1.77-1.33 2.58 0-1.23 4.12-4.63 4.65-6.05.76-2.04-.16-4.7.89-6.61 2.13-3.73 6.9-3.02 9.55-4.68 3.4-2.16 4.37-5.29 5.42-9.26.65-2.46 0-8.72 1.32-10.69-.18.39 13.25-14.39 4.85-13.91-2.93.16-5.76-3.61-8.97-4.06Zm-95.11-54.81Z"/><path stroke="gray" d="M167.8 288.22c-1.33-1.92 8.76.65 9.25.91 1.64.94 5.63 5.67 8.03 2.46 1.94-2.64-20.03-7.38-17.28-3.37ZM181.51 295.86c.29-.66-3.81-1.38-3.44-.66.3.57 3.15 1.32 3.44.66ZM200.07 295.36c.3-.82-3.44-1.14-2.77 0 .67 1.15 2.65.46 2.77 0ZM209.94 434.76c-.82-.16-2.8 1.67-1.94 2.13.9.49 2.76-1.97 1.94-2.13ZM212.96 435.66c-.55-1.23-3.32 1.07-2.77 1.4.6.32 3.06-.8 2.77-1.4ZM157.12 331.46c.3-.54-.3-3.12-1.05-1.89-.75 1.23.74 2.43 1.05 1.89ZM218.19 171.46c-.67.2 4.84 4.94 5.05 1.32.16-2.96-4.37-1.52-5.05-1.32Z"/><path stroke="gray" d="M266.8 170.16c.17-.45 2.42-3.02 2.13-3.13 1.47.56 5.69 5.57 5.88.93.16-2.71-3.8-2.71-4.39-4.96-.17-.62 5.16 1.72 4.09-1.59-.6-1.88-5.83 1.32-5.62-.69-.08.7 1.81-2.45 1.48-2.1 1.67-1.84 9.26 4.5 4.35-1.86-.2-.25 4.4-.17 4.63-1.11.22-.94-4.58-.81-3.49-2.65 1.32-2.24 4.8 1.02 2.64-3.58.08.16-5.54-1.76-4.68-2.64.86-.89 7.46 0 7.21-1.02-.64-2.41-3.9.13-4.17-1.93-.14-1.07 1.99 0 2.3-.56 1.19-1.87-5.15-.35-4.93-.18-1.72-1.32 7.03-9.48 7.28-9.14-1.59-2.14-3.06 1.43-4.2.31-1.14-1.13 6.33-2.06 6.53-2.2.64-.39-3.96-1.32-4.19-1.01.81-1.33 11.58-1.21 11.58-4.18 0-3.97-10.22-.16-11.35.21-.9.28-2.2-.89-2.82-.65-2.05.78-3.97 4.11-6.13 4.43 2.15-.32 4.6-5.53 1.08-6.15-.55-.09-6.5 4.3-6.87 2.98-.29-1.05 3.58-1.54 3.49-2.41-.19-1.85-12.64 1.05-12.67.77-.18-2.53 17.35-1.51 19.1-3.89.98-1.32-22.28-5.07-24.39-4.53-.53.13-3.68 1.25-4.04 1.32-.73-.09-1.46-.13-2.2-.12-3.96.45-7.81.19-11.76.94-.49.09 1.72 1.57 1.69 1.7-.03.14-3.46.36-2.99.98-.1-.13 4.87 3.53 4.52 3.61-2.79.6-7.93-5.78-10.7-3.71-.69.5 2.04 2.18 2.04 2.56 0 1.53-5.6-1.74-5.44-1.74-.41 0-.25 3.34-1.05 3.84 2.42-1.5-2.98-3.63-3.83-3.71-.92-.08-1.83.13-2.63.59a4.53 4.53 0 0 0-1.83 1.97c-1.25.44-3.1-1.08-4.73-.42-1.16.48 1.03 2.43-.58 3.32-.44.24-11.74.51-10.23 3.96 1.13 2.65 7.24-.11 1.82 4.31-1.48 1.21-5.76.72-7.63 1.99-8.65 5.91 8.02 2.01 7.84 5.29 0 .36-8.84.38-8.67 1.2.23 1.2 6.19 3.96 7.77 4.11 3.22.3 6.3-2.1 10.58 0 3.75 1.81 7.55 5.52 8.67 9.72 1.33 4.9-1.79 5.52 3.35 5.52 1.28 1.73 2.75 3.32 4.39 4.72-.19.15-5.74-2.19-5.74-.78 0 3.31 7.75.89 5.68 6.78-.31.88-2.76-.37-3.49 1.42a8.98 8.98 0 0 0-.87 3.78c-.12 2.38 3.45 10.57 6.08 14.22 2.12 2.9 3.37 3.35 6.36 4.7 4.68 2.1 3.6 2.36 6.24-1.55 1.02-1.53-.55-3.01-.14-4.2.21-.63 2.23-.61 2.53-1.95.39-1.72.15-4.56.37-5.29.57-.06 1.14.02 1.67.23.22-.13 3.13-4.05 3.48-4.05.21.2.36.46.4.75.04.29-.02.58-.18.83.57 1.78 7.25-4.17 7.38-4.27 2.55-1.85 2.18-1.97 4.45-2.98 5.04-2.15 10.71-4.04 14.81-6.46-.54.33-7.22-.72-7.26-.6ZM106.17 149.16c.3.55.71 1.06 1.19 1.48 1.73 0 2.43-3.73 3.51-3.97 1.09-.24.33 3.31 2.83.89.95-.92.74-1.76 1.67-2.78.25-.28-5.29-.09-6.03.16-2.1.74-5.81 5.42-5.73 5.37 1.46-.8 1.46 0 2.56-1.15ZM115.93 150.25c-1.02.01-2.02.31-2.89.85-.45.63 2.5.4 2.18.52-1.08.05-2.13.42-3 1.07 1.6 2.34 4.32.12 5.59-.68-.66.41 3.89 1.54 4.19 1.07-.43.65-4.7 1.25-4.64 1.93.24 2.22 8.53-.72 9.76-1.32 4.11-1.8 5.29-.34 3.38-3.96.17.29-4.44-2.9-5.17-2.52-2.14 1.11 1.33 3.33.81 4.11-1.23 2.03-5.38-2.27-6.36-2.52-2.52-.53-3-.13-5.09.03-2.5.19 1.32 1.82 1.24 1.42ZM147.33 160.13c-.25.21-.43.5-.5.83-.06.32-.01.66.15.95.21-.45-2.49-1.32-2.44-1.32-.58-.91 3.85-1.74.98-3.69-2.13-1.45-1.88 1.25-1.84 1.23.37-.18-6.37-.78-4.23 1.15.73.2 1.47.35 2.21.43 2.54 2.2-4.41 1.01-3.7.88-2.02.43 4.1 5.41 4.72 5.87 3.03 2.28 6.61-6.22 4.65-6.33ZM102.65 167.89c1.82 0 3.74-2.64 4.64-3.33 2.35-1.76 5.7-3.48 8.08-5.45.88-.73-10.86-4.1-12.39-3.62-4.92 1.54-.64.49-2.23 3.2-.51.83-3.15 5.19-2.82 5.6.72.39 1.51.63 2.33.7.85.92 1.64 1.89 2.39 2.9ZM111.88 149.64c0-.73-3.32 1.82-2.65 1.9 1.32.15 2.65-1.15 2.65-1.9ZM189.18 167.78c.17-.08.33-.19.47-.33a1.495 1.495 0 0 0 .4-1.04c.31 1.08-5.65-2.04-6.19-2.22-1.32-.45-.49-1.67-2.64-2.16-1.47-.33-3.72 1.85-3.65 1.87-1.99-.7-1.15.14-3.4.14-1.65 0 1.14-9.05-6.04-4.72-4.34 2.65-.74 3.97-.54 6.77 0 .46-3.24-.96-3.11-3.07.12-1.9 2.5-3.6 2.5-4.81 0-2.22-7.82 2.65-8.2 4.42-.51 2.32 2.84 6.98 4.22 5.15-.36.47-3.66-.43-3.57.44.47 4.77 17.67 1.8 18.04 2.76-.22-.15-.42-.34-.57-.57-.15-.22-.25-.48-.3-.75.24-.79 6.06 3.61 6.1 3.97-.67.38-1.24.91-1.66 1.56 1.11.92 2.34-.94 4.19.98 2.09 2.16 2.05 1.71 2.56 5.01.1.68 6.31-1.33 5.19 1.54-1.12 2.87-2.78-.74-3.59-.47-.82.26-2.95.34-4.09.68.09.74.32 1.45.69 2.09-1.76.86-4.62.1-5.96 1.32-4.96 4.25 5.28 1.67 6.7 2.12 1.41.45 9.98 10.92 12.2 7.93.56-.76-3.77-5.44-4.57-5.29 3.27-.95 8.09 4.47 6.37-1.01-.77-2.45-6.61-4.34-4.05-7.39 1.06-1.33 5.48 4.13 6.22 4.11 0 0 4.33-4.55 4.33-4.52 0-3.04-11.98-4.68-11.59-7.63.73-.33 1.51-.53 2.31-.57a3.85 3.85 0 0 0-1.94-1.07c-.2-1.81 1.92-1.72-1.13-1.72 2.21 0-3.05-2.39-3.25-2.47-.62-.2-3.01-.94-3.01-.94.19 0 .38-.04.56-.11ZM88.32 222.05c.25-.18-.53-5.25-2.57-4.06-1.38.81 1.74 4.63 2.57 4.06ZM133.85 152.28c-.45 1.15.99 1.57 1.57.89.52-.66-1.12-2.04-1.57-.89ZM176.05 195.1c-1.35.08-1.03 2.18-.23 2.06.53-.09 1.57-2.14.23-2.06Z"/><path stroke="gray" d="M180.66 177.12c.89.72-2.27 3.46 2.64 2.56 4.09-.75-3.96-3.7-2.64-2.56ZM172.05 193.3c-.14-.66-4.25 1.03-2.84 2.05 1.2.82 2.99-1.39 2.84-2.05ZM174.63 154.89c7.93-5.72-16.75-2.85-16.42-4.72.38-.49.83-.94 1.32-1.32.61-.8-13.41-3.63-12.34-1.97 2.95 4.5 5.71.25 7.68 6.47.69 2.11 17.78 2.99 19.76 1.54ZM140.06 171.64c0-.8-5.7-4.86-6.2-6.16a30.06 30.06 0 0 1-.38-5.28c.67-.61.61-1.33-.23-1.92a3.05 3.05 0 0 0-1.77-.08c-.58.14-1.11.46-1.52.9.79.55 1.49 1.22 2.09 1.97 0-.39-3.74-1.73-4.11-.99-.53 1.05 1.7 4.89.99 5.28-.13 0-5.05-5.52-5.29-4.27.52.45.97.98 1.32 1.56 0 .2-2.72.08-2.57.47-1.97-5.21-3.6 1.03-5.38-.65-.19-.19 3.06-2.64-.77-2.64-1.48 0-5.29 2.12-5.78 3.37-2.22 5.28 2.76 1.4 4.85 3.01.11.08-4.41 1.26-4.41 1.88 0 2.77 10.69-.28 10.69 2.06 0 .57-9.63 0-9.25 1.56.99 4.31 13.22 3.45 15.7 3.11 1.3-.32 2.63-.51 3.97-.55.83 0 7.68 2.36 6.86-.43-.66-2.18-2.23.66-2.77-.82a5.8 5.8 0 0 1 1.57-1.3c.4-.51 2.31 1.06 2.39-.08ZM206.65 229.89c.15-.92-4.77-2.29-4.64-1.72.15.65 4.5 2.65 4.64 1.72ZM157 145.06c1.24.49 3.04-.66 1.64-1.4-1.33-.74-3.04.82-1.64 1.4ZM144.85 138.63c-.58.94 1.13 3.97 2.17 3.97 8.8 0-1.59-4.91-2.17-3.97ZM154.52 136.6c.19.55-3.16 1.32-2.98 1.56 2.19 2.42 5.64 3.96 8.75 3.12.21 0 6.46-5.64 6.28-4.68-.25 1.32-4.62-4.42-4.85-4.6-.24-.19-9.51-5.05-10.41-4.37.07.26.21.48.41.65.2.18.44.29.7.32 0 .52-2.27.11-2.48.53.42.33.83.68 1.23 1.03-.45.87-3.07-.42-2.98 1.32.56.67 1.26 1.2 2.05 1.55.05.92-4.96 0-2.33 1.44.08 0 6.94 3.21 6.61 2.13ZM181.59 160.8c0-1.49-7.09-3.72-7.63-2.46-1.89 4.47 7.63 3.44 7.63 2.46ZM148.14 143.99c1.49 1.23 5.09-.49 4.94-.98-.16-.5-5.83.25-4.94.98ZM116.34 142.43c.52.74 1.87 1.48 2.24.49.38-.98-2.47-.82-2.24-.49ZM147.16 153.66c1.94 1.66 8.67 1.83 4.27-1.79-1.2-.99-4.76 1.38-4.27 1.79ZM131.6 143.09c-.15 1.23 1.92 3.08 2.55 2.21.6-.82-2.4-3.44-2.55-2.21ZM141.21 149.38c-.83-.66-1.8-1.11-2.84-1.32-.64.52.92 2.08.41 2.33-.81.38-2.78-3.4-3.89-3.47-2.38-.13.85 3.39.95 3.45 2 1.21 3.57.28 5.57.82-.28-.08 2.21 6.34 4.55.66 1.7-4.19-3.19-4.29-5.22-5.11-1.79-.76.75 2.64.47 2.64ZM119.5 143.25c-.02 4.28 5.31-.74 5.29-.74 1.32-.21-5.29-1.79-5.29.74ZM126 140.3c0-3.19-7.06.34-6.89.49.66.14 1.34.2 2.02.16.61.27 4.87.22 4.87-.65ZM141.63 133.65c.52.49 1.72 1.89 2.24.9.53-.98-3.15-1.76-2.24-.9ZM135.87 139.56c-.14.36-2.78.25-2.64.49.13.24 14.39 5.85 7.11-1.32a7.582 7.582 0 0 0-3.45-1.87c-6.44-.79-2.74 1.17-3.27 1.55 1.21-.4 1.96 0 2.25 1.15ZM166.92 184.93c-.71.09-4.19 4.76-3.74 6.24.45 1.48 11.52-.73 11.45-.33.15-.86-7.31-5.96-7.71-5.91Z"/><path stroke="gray" d="M157.46 127.19c.54.02 1.07.1 1.59.25-2.99 3.5 5.57 2.93 5.53 2.27.39 5.45 10.92-1.82 12.19-.93 2.44 1.74-6.4 3.44-6.18 3.73 0 0 2.84 2.41 2.48 2.42-1.68.13-10.46-6.11-8.97-.55.34 1.32 7.24 3.96 7.24 5.18 0 0-8.7-2.64-8.91 1.15-.13 2.35 4.8-.42 4.85-.28-.77-1.7.77 5.29.77 3.97 0 1.58-6.74-4.13-6.47-.98.62.57 1.28 1.08 1.99 1.53 0 .54-5.79 1.02-4.43 2.4 1.56 1.6 19.15 2.08 20.04 0 .89-2.09-6.61-1.57-6.94-2.12 1.04 1.64 6.61-2.98 7.05-3.19 2.8-1.54 3.96.73 5.44-3.65.44-1.32-4.85-1.32-4.8-1.32 3.08-2.18 7.14-1.32 9.94-2.64 1.71-.85 11.81-6.07 11.9-6.84.1-.76-4.73-.19-5.01-.31 2.33 1.02 10.58-4.47 10.71-4.44-.66-.22-10.23-3.47-10.39-1.01.38-.58.92-1.04 1.55-1.32-1.88.74-11.28.24-12.55.3-4.31.23-8.47-.57-12.27.48-.76.21-18.4 6-18.73 5.29.3.16.64.22.98.18.34-.04.66-.18.91-.41 2.64-1.9.46.8.49.84ZM213.21 228.89c-.19.39-3.48 3.7-2.14 4.49 3.02 1.77 5.81-2.64 6.13 1.32-.11-1.32 4.39.49 4.59.11-.08.17-1.32-3.44-.73-3.17.81.37-5.96-4.31-5.87-3.53.24-1.25.8-2.41 1.61-3.37a9.176 9.176 0 0 0-3.59 4.15ZM28.27 218.05c-.42-.49-1.58 1.74-.9 1.4.9-.41 1.33-.91.9-1.4ZM31.49 217.02c-.45-.08 3.25-.84 2.24-1.25-1.04-.41-2.1 1.26-2.24 1.25ZM51.92 209.31c.55-.56 1.34-4.99-.53-2.65-1.71 2.17-3.13 6.32.53 2.65ZM27.37 201.86c.28.34.65.6 1.07.74.41.13.86.15 1.29.04 2.54-.92-.88-1.49-.86-1.34-.7-.43-1.21-.23-1.5.56ZM315.81 251.93c.75.57 1.6.38 1.47-.54-.12-.93-1.84.27-1.47.54ZM350.54 260.68c-.62-.05 4.88 1.59 4.73 0 0-.61-4.84 0-4.73 0ZM369.16 259.79c-1.33.28-2.62.72-3.83 1.33-.66 1.27 2.74 1.12 2.59.25.38-.55.8-1.08 1.24-1.58ZM283.62 182.47c-.58.33-4.31 2.41-4.99 2.21-.08-.26-.24-.48-.45-.64-.21-.17-.47-.26-.74-.27-3.31 3.96.12-1.14-4.45-1.14-.95 0 .49 1.32.24 1.32-.93-.1-2.33-.38-2.56 1.32-.1.76 3.81.59 3.67.44-.15-.15-.39 1.4-.25 1.32-.11.07-3.14.13-2.87.68.09.18 2.76.27 3.22.82.85.97-.91 2.19-1.09 1.99 3.19 3.55 9.06-.96 12.49-1.16 5.29-.29.32-8.37-2.22-6.89ZM300.96 217.32c-.14-1.16 2.24-1.32-.43-2.79-1.2.04-2.38.29-3.49.74-.08 2.38.17.28-2.37 1.67-.08.08-.03 6.99 1.07 6.99 4.44 0 5.66-3.2 5.22-6.61ZM309.62 199.67c-.65.2-.45 2.25-.28 2.05.43-.46.93-2.25.28-2.05ZM299.71 207.66c.5-.02 1.44-1.29 1.12-1.64-.33-.36-1.63 1.65-1.12 1.64Z"/><path stroke="gray" d="M300.5 213.08c0-1.25 2.14.6 1.9.64.47-.36.81-.87.97-1.44.75.12-.49 2.96-.48 3.15.15 1.11 2.86-.7 3.02-.41 1.78 3.11-1.43 4.4-1.33 6.45-.46.1-.89.34-1.22.68-.33.35-.55.79-.63 1.26 1.37.33 2.76.54 4.17.61.09.5-5.89 1.73-4.42 3.69 0 0 10.74-2.35 11.37-3 .64-.65-1.1-.24-1.04-.7.29-2.16 1.98-1.15 1.04-3.5-.81-.39-1.52-.95-2.09-1.64-1.2-2.04-2.38-6.42-5.29-6.2 0 0 1.88-3.12 1.68-3.61-.82-2.09-2.36.29-3.53-1.11-.39-.47 2.4-2.33 1.58-3.1-.57-.63-5.67 3.52-5.79 3.62 1.62-1.42.09 5.49.09 4.61ZM333.05 212.52c-1.85-1.27-2.25 2.67-2.07 2.71-.31-.08 4.24-1.23 2.07-2.71ZM341.93 209.96c.17.34 2.09-2.49 1.15-2.41-.95 0-1.32 2.06-1.15 2.41ZM350.11 205.69c1.22-1.35-3.62 1.36-1.74 1.25.67-.28 1.26-.71 1.74-1.25ZM348.71 204.68c.08.07.17.12.27.15.1.04.2.04.3.03.1-.01.2-.05.29-.11.09-.05.16-.13.21-.21.2-.41-1.44-.23-1.07.14ZM348.4 134.27c-.07 0-3.53 1.32-3.52 1.32.86 2.22 13.22 1.09 12.39-2.34-.11-.41-8.07-1.53-7.75-1.64-.24.23-.4.53-.45.85-.05.33 0 .66.16.95-.66.49-3.86-2.14-4.58-2.05-.44.43-.81.93-1.08 1.48l-1.32-.99c-1.42-.01 0 1.34.21 1.51 1.41 1.22 4.18-.19 5.94.91ZM334.02 140.96c1.18.67 2.12-2.18 2.97-2.51.84-.33-.36 1.56.46 1.51.56-.35 1.16-.61 1.8-.77.72 1.14-5.29 3.33-4.48 3.54 1.52.39 3.15-.61 4.73-.22-1.59.34-3.15.83-4.64 1.48-.15 1.48 2.64 1.41 3.33 1.68-.07.17-.18.33-.32.45-.15.12-.32.21-.5.25-.38.51 2.1.76 2.5.53.96-1.27 1.84-2.59 2.64-3.97.31-.38 2.71-6.15 4.21-3.78-.4-.64.6 5.02.06 4.92.64.13 6.35 1.09 6.12-1.56.12 1.32-5.91-4.41-5.8-4.33-1.88-1.53-4.68-1.78-6.02-2.11.78.18-1.24-2.51-2.2-2.83-1.4-.46.31 4.98.41 4.55 1.32-5.61-3.9-1.21-3.86-1.22-.48-.49-1-.94-1.56-1.32.44-.26.92-.45 1.41-.58-.44.17-9.65.53-3.19 2.02-2.53-.59 1.33 3.97 1.93 4.27ZM331.75 140.91c-.55 0-1.16-2.87-2.25-2.54-.06.36.01.72.21 1.03.2.3.5.52.85.61.36.34.76.64 1.19.9ZM628.83 192.69c.33.41 5.18 1.55 5.18.45a4.728 4.728 0 0 0-3.09-1.15c-.76-.05-1.51.2-2.09.7ZM546.52 247.95c-.33.18 1.56-1.06 1.51-.78-.32-.46-.65-.93-.99-1.32 0 .39 10.76.3 10.22-4.38.29 2.54-9-1.66-7.93-2.39.1-.09-.7 4.16-.7 4.43-.26-1.67-3.97 5.47-2.11 4.44ZM530.04 266.32c0 .19-.72 4.05.53 3.77 1.01-.22 2.85-3.9 1.32-4.56-.45-.14-4.52-1.7-3.17 1.01.53 1.07 1.03-1.5 1.32-.22ZM537.3 263.85c0-1.32-2.65 0-2.78.24-.44.81-.24 3.6.13 2.01.37-1.63 2.65.3 2.65-2.25Z"/><path stroke="gray" d="M530.75 263.83c.08.37 6.93-.65 7.42-.76-1.53.36 1.47 1.09 1.82 1.06 1.17-.09.28-1.69.49-1.82 1.32-.81 5.29.71 6.61-1.13 1.06-1.44 3.47-11.35 1.6-12.42-2.34-1.33-3.5 6.18-4.6 7.72-.88 1.21-5.5 1.54-5.75 4.09 0 0-8.22.38-7.59 3.26ZM496.79 292.35c-.2-.75-4.43-.18-3.57 1.45.09.2 2.53 3.5 2.67.74.35-.71.65-1.44.9-2.19ZM515.5 282.18c-2.17-3.16-3.89 7.16-2.11 5.75.82-.62 2.75-4.8 2.11-5.75ZM520.45 311.17c4.09-4.7-4.69-6.61-5.59-8.75-.9-2.15 3.16-5.21 0-7.05-2.11-1.26-2.96 3.82-3.01 3.98-1.15 3.81 11.14 8.9 8.6 11.82ZM507.56 314.34c-.21-.41 4.33-3.27 3.49-5.09-.36.22-.67.51-.9.86-.23.35-.38.75-.44 1.16-.89.89-1.62 1.93-2.15 3.07ZM514.4 306.9c1.1-.39-1.71-2.51-1.6-1.97.14.76.5 2.35 1.6 1.97ZM518.59 312.37c.14.41 1.64-.38 1.24-.87-.39-.54-1.39.46-1.24.87ZM515.44 317.02c1.23-.11 1.74-1.83 2.99-.95 1.26.89.49 3.74 2.9 3.74-1.8 0 1.91-3.84 1.74-3.17.18-.78.13-1.6-.15-2.35s-.78-1.4-1.43-1.87c0 0-7.28 4.72-6.05 4.6Z"/><path stroke="gray" d="M515.03 309c.02.47.22.91.56 1.24 3.13-.68-1.1 2.38 1.32 2.95 2.08.5 2.22-6.27-1.41-5.47-.32.35-.48.81-.47 1.28ZM560.23 340.65c-.3 3.14 8.57.1 6.74-2.18-.6-.19-.97.04-1.09.7 0 2.17-5.57.82-5.65 1.48ZM566.64 336.55c.49.11 1 2.54 1.48 2.41 1.5-.44-1.16-2.33-1.48-2.41ZM552.95 337.36c-2.91-1.66-8.55-4.22-11.46-4.05-.85 0-2.03 2.65-3.06 2.46-2.07-.38-.88-2.64-2.36-3.21-1.33-.52-1.33-1.93-3.56-1.6-.38.06-2.55 1.77-1.78 1.94.42.09 4.81 2.54 4.83 1.79 0 .34-2.64.33-2.93.37-1.22.22 4.57 3.06 4.94 3.24 2.56 1.24 4.41.97 5.89 3.58 1.48 2.6-2.08 2.46-1.48 3.63 1.09 2.16 9.16.25 10.02.27 2.35 0 2.31-.08 5.28 1.39-.07 0 7.24 3.64 6.46 2.35-.36-.52-6.67-6.82-5.2-6.74 1.32.09-4.3-4.68-5.59-5.42ZM446.75 318.82c3.51 1.43 2.73-7.28-.14-6.94-1.09.13-1.11 6.44.14 6.94ZM390.84 356.74c-1.05 1.05-3.83 1.7-4.66 2.64-2.3 2.65-.76 3.85-1.15 7.76-.29 2.76-3.55 13.92 3.96 10.29 4.3-2.09 3.41-14.37 5.03-18.41.21-.52 1.32 1.19 1.32-1.04s-1.27-3.79-1.76-5.74c0 .07-2.34 4.09-2.74 4.5ZM402.62 306.2c.07-.25-2.35-.36-1.71.35.55.64 1.65-.1 1.71-.35ZM581.29 348.86c.4-.29-1.88-1.88-1.72-1.03.15.82 1.33 1.32 1.72 1.03ZM575.67 344.1c.27-.16-1.34-1.71-1.41-1.32 0 .21 1.15 1.48 1.41 1.32ZM577.51 344.67c-.04.53 1.94 1.69 2.35 1.4.41-.29-2.31-1.93-2.35-1.4ZM573.2 343.13c1.06-.74-2.03-3.13-2.1-2.64-.09.49 1.51 3.09 2.1 2.64ZM582.65 348.49c.22.04-.97-3.2-1.32-2.5-.38.9 1.11 2.46 1.32 2.5ZM584.17 350.46c.49-.37-1.66-1.18-1.53-.82 0 .2 1.04 1.19 1.53.82ZM531.35 351.69c-.07-.49-2.74.08-2.17.57.37.33 2.23-.08 2.17-.57Z"/><path stroke="gray" d="M568.39 378.6c-3.19-1.49-7.83-8.13-10.13-11.63-1.73-2.64-2.26-5.46-3.65-8.75-.71-1.71-2.19-.43-2.64-1.54-.74-1.62 0-5.02-1.6-6.51-1.22-1.14-1.86 8.13-1.88 8.17-1.69 4.81-.68 4.89-5.02 3.35-1.24-.44-4.98-2.36-5.29-3.96-.28-1.39 2.99-3.73 2.55-4.6.33.66-7.85-2.33-8.02-2.25-.21.53 0 .94.63 1.23-2.25-2.64-5.95 6.77-4.84 6.61.53-.07-3.34-.61-2.27 0-2.78-1.61-2.35-3.21-5.67-.83-2.16 1.56-1.39 3.65-2.64 5.03-.34.37-.56-1.89-1.08-1.54-1.78 1.2-.39 2.75-2.01 4.07-1.99 1.63-3 1.73-5.19 2.83-2.88 1.41-4.93 1.85-7.43 4.2-.12-.16-.21-.35-.24-.55-.03-.2-.01-.41.05-.6 0 .6-.71 2.46-.79 3.45-.08.99.95 4.83.68 5.41-.44-.18-.8-.52-1.01-.94.2.43.37.87.49 1.32-.41-.31-.81-.64-1.2-.98-.48 1.19 3.12 7.53 3.46 8.94.17.73.13 7.58-.17 6.94 2.3 4.72 5.63 1.5 9.44.37 3.12-.91 5.13-1.57 8.14-2.71 2.33-.87 7.27-2.64 9.81-2.22 1.56.25 9.36 6.36 7.58 7.17.54-.24 3.75-4.23 3.96-4.05 1.01.94-1.62 3.48-1.76 4.06-.47 2.29 2.65-1.8 1.8-1.14 1.13-.9.6 2.79.49 2.5-.11-.29 3.69 4.88 4.05 5.17 2.14 1.85 7.47.13 7.41.11.08.41.08.83 0 1.24-.49-.61 1.77.75 2.32 1.32-1.1-1.04 6.26-3.34 6.05-3.11 1.12-1.32 1.77-7.12 2.64-9.01.55-1.55 2.77-10.83 3.42-11.36 0 0-.9-5.42-.44-5.21Z"/><path stroke="gray" d="M541.78 399.97c.22-.59-2.41-.08-2.01.29.41.41 1.78.29 2.01-.29ZM553.79 410.75c.51-.14.1 7.75 4.31 5.53 2.13-1.18 2.95-5.14-1.42-4.61-1-.2-1.96-.51-2.89-.92ZM593.52 424.62c-.49-.66-1.27.64-.63.82.26.08 1.12-.16.63-.82ZM606.4 401.94c-.1.15-.15.33-.15.51s.05.36.15.52c.17-.27-3.32-5.01-4.05-5.01-.08 0 2.51 5.13 2.74 5.76.78 2.27-1.79 2.18-1.69 3.43 0-.1 1.86 5.28 1.75 5.16 2.15 4.02 6.71-11.4 4.64-7.62-1 1.83-3.2-2.77-3.39-2.75ZM592.78 423.51c3.82 2.57 12.69-10.79 10.92-12.21-2.1-1.64-14.74 9.65-10.92 12.21ZM613.76 361.21c0-.71-2.38.82-1.76 1.01.41.18 1.76-.31 1.76-1.01ZM611.63 363.88c.04-1.18-2.51-.02-1.94.56.63.67 1.9.61 1.94-.56ZM391.24 132.64c.7 1.54 7.17-1.54 7.19-1.98.11-2.03-5.22.41-5.6.99-.63.14-1.19.49-1.59.99ZM400.07 132.8c.56.19 2.09.6 2.09-.27 0-.88-2.64.09-2.09.27ZM393.28 130.61c.33-.9-5.77 0-5.58.5.16.2.37.36.6.48.23.11.49.18.74.19.26 0 .52-.04.76-.14.24-.09.46-.24.64-.42a6.78 6.78 0 0 1 2.84-.61ZM396.08 173.94c1.03-.41-5.78-1.74-3.09.98 1.45 1.47 2.34-.66 3.09-.98ZM398.02 164.74c0 .16 2.89 2.57 2.65 2.65-.25-.52-.16-.9.28-1.14-.27 0 7.21 6.27 7.54 2.64.1-.96-3.29-3.04-3.43-4.38-.15-1.35 1.32-2.74 1.89-3.97.92-1.64 2.06-3.15 3.39-4.48 2.23-2.05 18.33-8.81 17.61-9.42-1.72-1.46-16.07 3.23-18.4 4.68-1.25.88-5.8 7.08-5.84 7.08-2.04 1.98-3.94 4.1-5.69 6.34ZM563.31 155.01c.71-.16 1.37-.48 1.92-.94.34-3.76-16.27 0-4.05.89.7.18 1.43.2 2.13.05ZM546.83 157.58c.59.22 1.58.1 1.58-.72s-2.64.31-1.58.72ZM487.91 139.57c.3-1.77-5.2-2.27-5.03-.9-.99-7.8-3.95 4.35-5.25 3.55 1.01.62 9.97-.88 10.28-2.65ZM468.75 136.14c2.51 2.4 8.63 4.25 9.16 0 .45-3.61-8.01-2.62-8.01-1.64-.5.45-.89 1.01-1.15 1.64ZM465.64 133.9c-.87.44 3.24.2 3.97-.1.73-.31 6.19-1.91 5.18-3.14-4.03-5.07-8.31 1.95-7.53 2.3 1.62.76-1.43.84-1.62.94ZM501.23 156.22c-.1-.18-.23-.33-.39-.44-.17-.12-.36-.19-.55-.23-.2-.03-.4-.02-.59.04-.19.06-.37.16-.52.3-1.15 2.52 2.03.75 2.05.33ZM409.19 129.91c.07-.54-4.04-1.32-4.29-1.23.7-.11-1.15 2.3-1.59 1.82.81.9 5.67.99 5.88-.59ZM463.71 129.41c.31.27 2.05.5 2.25-.32.2-.82-3.11-.46-2.25.32ZM618.92 167.52c-2.07-2.47-6.48 1.04-6.15 1.22.79-.04 1.59-.06 2.39-.06.23.17 4.63-.13 3.76-1.16ZM547.46 154.58c1.32-.25 4.77-2.29 3.47-2.75.62.22 2.44 4.39 3.51 1.16.9-2.64-1.64-2.04-3.96-2.79-.2-.06-4.3-.17-4.33-.17.62-.12-8.01 1.35-4.13 3.45a7.928 7.928 0 0 0 5.44 1.1ZM547.42 159.6c.6.95 4.1 1.1 4.99.87 2.64-.63-6.85-3.8-4.99-.87Z"/><path stroke="gray" d="m628.08 185.88 1.89.44c.49 0-.62-.65-.48-.74-.57.35 3.35-.99 2.45-1.32.06 0-7.67-4.6-7.78-3.01.12-1.78.78 2.89.52 2.03-1.43-4.72-11.08-9.89-16.49-11.05-3-.65-8.11-.55-9.94.3.15-.08 1.23 2.31-.25 3.23-.69.42-3.96-2.46-3.2-2.82.77-.36 1.73 1.26 1.93-.28.15-1.24-6.33.5-7.27.64-1.57-.02-3.15-.14-4.7-.36-2.05-.2-.96 1.61-1.8 2.02.72-.34-2.65-3.25-2.65-3.22-2.94-2.5-2.52-2.96-8.01-3.39-1.68-.13-9.89 0-10.72-2.5-.24-.74 2.5.15 1.77-1.07-1.61-2.64-8.15.39-8.23.66.46-.27.9-.57 1.32-.9-.6-.29-1.24-.5-1.89-.63-.57-.93 2.64 0 2.64-.49.48-2.83-13.66-1.16-12.27.77.21.1.44.16.66.16.23 0 .46-.06.67-.16-.9-.5.15 3.42.06 2.23 0 .23-3.21-.37-3.74 0 .27.28.6.49.96.64 0 0-8.92-1.7-9.53-1.84-.6-.15-1.62 3.73-2.97 3.65-2.01-.12-3.54-4.91-4.56-4.84.56.28 1.18.4 1.81.36 2.55-1.5-6.36-6.79-8.26-6.39-1.39.29-1.68 3.27-2.18 3.35-.76.13-7.94-.18-8.13-1.01-.14-.45.96-1 .5-1.12-3.7-.97-6.61.76-8.91.99-.61 0 .12-2.16-.78-2.32-.44-.07-6.47 0-5.92.68.33.12.67.21 1.01.3.1.8-7.55 2.01-7.7 2.44 1.64-4.22 14-5.29 12.99-9.75-.3-1.32.52-2.42-2.22-3.73-3.49-1.63-6.12.98-9.25.2.33-.62.74-1.19 1.21-1.72 0 .35-4.37-.84-4.92-.62.37-.16 3.02-.59 2.44-1.5-2-3.05-6.61.83-8.28 2.05.86-.63-3.21 4.77-3.36 2.23.34.35.7.66 1.1.94.19-.58-4.68.5-4.93.41.15-.36.3-.7.48-1.05-1.85.2-3.67.55-5.45 1.05.24.37.6.65 1.03.76-.08-.62-8.14 2.15-8.74 2.42-1.9.89-.92.81-1.74 1.91-.48 0-.97 0-1.44-.1-.18.19 1.65 1.05 1.66 1.21-.44.06-.88.1-1.32.09 0 0 2.01 1.19 1.1 2.02-.55.49-3.68.23-4.58.41-12.53 2.65 0 3.49-2.43 6.81-.97 1.32-7.23-4.14-9.07-2.31-.16.16 2.02 1.68 1.53 1.81-.95.26-2.4-1.12-3.09.2-.54 1.05 4.43 2.73 4.05 3.2 0 0-5.29-1.1-5.29-1.18-1.05-1.19 1.8-4.59-.42-5.29-2.23-.7-3.53 9.98-2.65 11.2 2.39 3.25 6.86 1.53 8.37 6.49.79 2.64-4.59-3.67-2.25-2.64-1.6-.69-1.08-2.08-3.2-1.71-3.01.52-.14 2.24-1.32 3.66-1.32 1.68-3.11 4.11-4.94 4.52-.51.12-5.01-.11-4.6-1.32-.07.16 5.95-.61 6.95-3.96.63-2.13-.42-3.84-.89-6.27-.13-.7.2-8.04.26-7.93-3.56-5.86-9.48.82-9.79 4.97.08-1.15-.13 4.31-.39 3.62 0 0 6.42 4.13 2.64 4.73-2.64.45-13.22-8.88-16.49-7.02.86-.49 5.74 8.39 1.04 6.48-1.86-.75.06-.92-4.19-.54 0 0-6.81 1.14-6.28.71.52-.42 1.46-.86 1.32-1.91 0 .67-8.9 3.58-10.14 4.12-1.73.75-1.32 3.97-4.52 1.84-3.2-2.13 1.6-2.04 1.99-2.5 1.44-1.73-5.87-3.61-5.6-2.51 0-.31 1.72 5.48.34 4.48 3.43 2.47-.54 2.23-.77 2.41-3.96 3.17-3.96-.26-4.74 5.42-.13.95-3.28-.97-3.77-.59-.65-.41-1.32-.83-1.92-1.25-1.16.54-1.32 1.24-.52 2.11 1.91-1.08 2.53 4.17-.81 1.52-.82-.64-5.36-10.57-7.21-9.7 1.33-.63 20.1 8.3 14.35-2-1.1-1.98-12.8-6.92-13.79-5.68.44-.04.87-.19 1.24-.44-.16-1.32-3.03 0-3.34-.3-.78-.86-2.65 1.07-3.22-1.04.11.4 3.05-.39 3.12-.8.63-3.42-5.39-.37-4.65-.34-.59 0 .32-1.85.27-1.95-1.22-2.34-2.25 1.99-2.93 1.99-.23 0 .16-2.05-.26-1.77-.81.86-1.6 1.73-2.41 2.64-.87.17 1.71-2.83 1.7-2.89-.26-1.56-2.93 1.42-2.91 1.42.83-.71-3.36 2.38-2.13 2.01-1.61.49.42-3.63.62-2.87.11.36-2.45.29-2.41.9.37.36.61.82.7 1.32-.62-.13-1.27-.15-1.9-.06.22.4.55.72.95.92-.78-.13-1.53-.38-2.23-.76.1 0 .71 2.28 0 1.85-1.24-.82-.98-2.14-2.65-1.39-.13 0-3.62 2.64-3.55 3.04.06.4 1.7-.34 1.44 1.04 0 0-2.95 0-2.84.14.12-.52.25-1.02.41-1.54-1.6 1.58-3.27 3.06-5.03 4.46 1.33 0 4.27-3.25 5.67-1.96 0 0-.21 1.43-.23 1.44-3.97 1.59-5.08 8.03-8.74 9.63-.32.14 1.49 1.32.88 1.58-2.08.81-2.1 1.62-3.83 3.04-.13.11-1.32-1.52-1.4-.5-.2 2.09-1.23.48-2.28 2.04.09.18.22.34.38.46.15.13.33.22.52.28-1.11-2.46-3.96 3.96-3.86 3.46-.63 3.89 1.91 2.65 2.11 3.27.56 1.99-2.32 1.05-2.19.95-.14.57-.23 1.16-.29 1.74 0 .73 1.55-.79 1.84 0 .2.53-.96 1.09-1.12 1.33-1.96 2.98 6.61.67 5.59.89 1.32-.3 2.1-2.48 2.9-2.94.47-.29 4.17 11.26 4.54 11.39 1.75.66 5.38-4.64 5.96-4.81-.23.61-.54.75-.92.44.34-3.11 4.06-5.57 3.97-7.94 0-3.09-3.51-1.62-2.37-6.17.65-2.64 2.64-2.87 3.97-4.73 1.07-1.52 2.82-5.91 4.85-6.61 9.4-3.11-2.18 7.85-2.48 8.41-.72 1.32-.19 6.69.45 7.33 2.65 2.65 7.61.69 10.47-.09 1.19.14 2.31.6 3.26 1.32.63.74-8.07 1.69-7.68 1.51-5.58 2.64-.2 2.56-1.6 4.18-1.67 2.64-2.01.63-2.65 1.2-.22.2-4.36.5-2.83 3.6 1.5 3.35-1.46 4.17-3.33 4.85.16 0-4.86.49-6.07.65-2.64.31-1.24.68-2.51-1.14-.54-.77-3.61 2.11-4.18 1.69-.11-.41-.11-.84 0-1.26-.72-.19-2.93 0-2.64-1.91 0-.35 1.92 1.02 2.08.17.29-1.6-.92-.54-1.33-1.32-.22-.36 2.07-4.22.88-5.53-.81-.88-2.15 2.13-2.15 2.13-.85.86-1.69-.67-1.82 2.91 0 1.15 2.21 3.77 1.64 4.89-.42.86-5.22 1.75-6.12 2.33a43.546 43.546 0 0 0-4.51 4.5c-.92 1.11-1.95 2.13-3.05 3.05-1.33.62-4.21.26-4.64.51-.99.56.91 2.06 0 2.82-.92.75-3.53-1.59-4.14-.44-1.67 3.08.82.74 2.29 3.08 2.01 3.21 5.12 7.05.46 9.41-2.17 1.11-7.48-1.74-9.26-.79-3.31 1.81-.72 1.65-1.44 4.73-1.45 6.28-1.32 8.91 3.85 10.58 3.61 1.18 7.43.44 10.43-3.58 2.38-3.2 3.81-8.76 7.44-11.02-.82.52 7.61-.95 6.9-.97 3.61.18 1.33-.33 4.45 2.06-.1-.08 11.89 10.92 8.51 10.92 1.92 0 1.32-4.85 1.45-4.97.4-.07.8-.04 1.17.09.38.12.72.34.99.63-1.32-.39-13.22-13.22-7.4-12.9.79 0 7.04 7.11 9.04 8.24m0 0c-1.96-1.15 5.22 10.93 5.22 8.11 0-2.48-3.24 6.17.99 3.84.01-.64-.09-1.27-.29-1.87.38.11.78.11 1.16 0 .63-.76-1.32-.66-.89-1.05.42-.4 2.42.74 2.12-.88-.34-1.95-1.4 0-2.12-.78.23.27-.31-3.96-.65-3.75.67.19 1.35.32 2.05.4 1.12-.51 7.12-.47 8.58-1.92-.39.38-2.41-3.21-2.28-3.97a24.16 24.16 0 0 1 2.89-4.53c.68-.98 1-3.23 2.43-3.89.9-.42 4.92-.26 5.14.95-.68.55-1.44 1-2.25 1.33-.08-.43 1.83 2.32 1.77 2.27-.05-.05 5.17-1.32 5.29-1.48.31-.53-4.7-.24-2.3-2.82.57-.59 6.2-2.64 6.61-1.83.09.19-3.96 3.96-3.82 4.68.53 2.52 8.26 3.9 8.01 6.61-.34 3.72-4.78 2.42-7.39 2.36-1.11 0-1.99-1.25-3.08-1.32-3.55-.22-5.64.6-9 1.53-4.31 1.21-9.08 3.44-4.09 8.53 2.34 2.39 4.63 1.32 7.28 1.43.87 0 6.18-1.15 6.9-.69.71.46-1.55 6.76-1.83 7.43l.89.41c0 .17 0 .37-.07.54 0-.17 0-.37.07-.54m0 0-.86-.4c-2.65 6.2-7.67 4.94-14.21 3.71-1.73-.32-3.14-1.16-4.87-1.39-2.8-.39-1.32-2.65-5.05-.73-1.23.65-.88 3.13-1.02 3.19-2.2.87-11.72-2.37-14.18-4.9-2.46-2.52 1.7-4.67-.16-7.31-1.14-1.6-8.88-.15-11.08.08-2.7.45-5.36 1.15-7.93 2.09-2.71.77-4.9.54-7.43 1.21-2.14.56-1.32-.34-3.16.67 1.98-1.06-4.27 4.65-3.5 3.42-.95 1.52-1.7 3.2-2.65 4.74-.68 1.19-.5 2.75-1.64 4.45-.74 1.13-2.24 1.32-3.08 2.17a29.927 29.927 0 0 0-5.48 8.79c-1.46 3.69-.6 4.28-.72 7.51-.12 3-1.05 6.2-.96 9.16.1 3.25 1.57 4.56 3.16 7.13 3.57 5.8 7.8 11.17 14.65 11.89 3.63.14 7.26-.37 10.72-1.49.45-.12 5.03-2.64 5.51-2.07 1.26.76 2.56 1.45 3.89 2.08.6.3.37 1.76 1.15 2.12.78.36 1.65-.83 2.3-.42 3.63 2.28 2.23.3 4.08 4.49.36.93-.71 3.89-.7 4.35.08 3.77 1.5 4.32 3.69 8.14 1.81 3.14 4.11 9.26 3.62 12.89-.53 3.85-3.34 7.18-3.51 11.4-.3 2.83 3.74 9.49 4.36 12.45 1.12 5.29 2.75 8.53 4.52 13.55 2.41 6.84.34 8.32 7.93 7.37 7.38-.9 11.57-3.22 15.43-10.58.6-1.92 1.04-3.89 1.32-5.88 2.65-3.81 4.21-1.73 4.93-6.7.52-3.53-1.69-3.52.23-6.91 1.53-2.72 5.75-3.13 7.39-5.57 3.38-5.09-.14-10.71-1.1-15.87-1.04-5.51 1.77-9.49 5.57-13.59 1.56-1.7 20.24-21.39 14.43-23.53-3.96-1.5-8.45 4.23-13.02 1.32M412.34 131.43c.87.77 4.09.33 4.79-.65 1.52-2.14-6.61-.96-4.79.65ZM406.29 132.68c-1.02 1.14 5.15.96 5.55-.37.25-.8-3.35-.71-3.24-.5-.77.33-1.53.61-2.31.87ZM411.44 127.66c-.65-.88-5.19.85-5.29.54.3.27.65.47 1.03.58.38.12.78.14 1.17.08 1.08-.27 2.12-.67 3.09-1.2ZM549.67 237.44c-1.12-1.44 2.51.15 2.54.16.02.01-1.46-4.35-1.32-4.54 1.32-2.94 2.64-1.57 3.09-2.15.79-1.07-3.87-12.96-3.21-13.38-1.88 1.2-1.22 6.23-.65 7.6 1.06 2.65-2.1 10.19-.45 12.31Z"/><path stroke="gray" d="M433.04 160.26c1.03-2.07-4.89.28-2.64.66.93.08 1.86-.15 2.64-.66ZM444.94 161.74c.61.36 1.42.27 1.32-.61-.1-.87-1.93.26-1.32.61ZM422.28 129.71c.49-1.68-4.49.4-4.31.63.89.4 1.88.45 2.81.16l1.5-.79ZM591.96 372.56c.6-.43-5-4.35-4.89-3.73.11.66 4.3 4.17 4.89 3.73ZM179.5 284.48c-.27-.83-.49-1.67-.64-2.53-.94-1.77.21 3.5.64 2.53ZM207.66 309.7c-.89-.82-1.62.83-1.21 1.24 1.24.28 1.65-.14 1.21-1.24ZM491.16 335.84c.43.68.88.05.88-.44s-1.32-.25-.88.44ZM504.35 346.02c.89-.74-4.8-1.72-4.64-1.64a1.527 1.527 0 0 1 1.69-1.33c-1.48 1-14.42-3.35-13.56-.29.33 1.3 13.93 4.06 14.52 3.19.65.18 1.33.2 1.99.07ZM518.23 345.46c-.66-.11-6.84.56-6.73.82.81 1.76 5.07-.2 6.19-.26 1.32 0 1.47-.18.54-.56ZM505.4 345.75c-1.25 1.67 4.27 1.63 4.74.48.29-.66-2.26-1.42-2.5-.88-.47 1.18-1.64-.41-2.24.4ZM501.14 336.34c5.17.26 5.46-3.85 8.82-8.05-.23.28-2.22-4.44-2.2-4.88.11-2.01 2.49-1.72 2.9-3.06.41-1.33-4.8-2.28-5.08-2.22-1.68.38-.83 3.34-3.71 3.11-.1 0-5.07 5.7-5.08 5.74.37-.89-6.41-.82-3.79 1.86 3.76 3.85 1.93 7.17 8.14 7.5ZM474.32 328.84c.59-.64-.93-2.02-1.05-1.48-.1.54.45 2.13 1.05 1.48ZM476.54 333.1c.34-.29-.49-1.9-.8-1.03-.1.26.45 1.32.8 1.03Z"/><path stroke="gray" d="M489.29 334.96c0-.64-2.1-2.64-2.14-1.41.41.4.76.84 1.06 1.32-.44 1.1-5.55-6.7-5.82-6.99-1.19-1.32-11.52-9.26-11.99-8.22-.33.76 7.93 12.66 9.03 14.17 1.1 1.5 9.2 11.6 8.73 4.31-.15-2.3 1.15-1.7 1.13-3.18ZM510.16 348.08c-.15-.24 3.09 2.25 3.09.92 0-1.48-2.95-.68-3.09-.92ZM511.65 340.82c1.32-.54.14-6.03 1.44-5.39 2.46 1.2-.26 4.6 3.03 2.03-1.75 1.32.09-9.04 1.43-6.11.17.4-7.45 2.4-5.54-.71 2.07-3.4 6.7.49 8.52-3.28-1.09 2.28-5.63-.5-7.14.52-2.35 1.58-2.18 4.65-3.49 6.98-.23.43 3.15 5.38 1.75 5.96ZM530.06 337.32c1.85 0-5.34-4.18-4.44-1.21 1.44.54 2.93.95 4.44 1.21ZM525.62 330.87c1.85-.37.25-3.42.25-3.35 0-3.67-3.05 3.9-.25 3.35ZM524.38 345.63c.21-.63-4.43 1.42-4.86 1.47-.68.11-2.65 1.55-1.33 2.25.44 0 .86-.13 1.23-.36.36-.24.65-.57.84-.96.85-1.14 3.74-1.33 4.12-2.4ZM524.23 336.83c.4-.72-2.28-1.63-2.04-.61.21.87 1.65 1.32 2.04.61ZM327.94 252.29c1.58-2-1.29-5.64-2.49-3.36-.47.86.58 5.78 2.49 3.36ZM332.85 255.54c1.08.99 2.32 1.79 3.67 2.35.32-1.01.7-2.01 1.14-2.97-.17-.18-.41-.29-.65-.31-.25-.02-.49.05-.7.19.36-.08-3.83-.37-3.46.74Z"/><path stroke="#263238" stroke-linecap="round" stroke-linejoin="round" d="M38.33 602.88h576.58"/><path fill="#FFF" d="M96.5 556.43s-35.02-61.5-26.94-77.14c8.08-15.64 28.74 12.49 28.74 12.49s-17.97-57.34-8.08-82.36c9.89-25.03 26.93 0 27.76 17.73.84 17.72-3.58 47.95-3.58 47.95s7.18-62.55 24.23-43.79c17.06 18.76-21.54 81.32-21.54 81.32s26.04-14.54 25.11 4.17c-.92 18.72-31.42 35.45-31.42 35.45l-14.28 4.18Z"/><path stroke="#263238" d="M96.81 544.96s-32.42-30.23-16.64-43.78c15.79-13.55 24.11 14.54 24.11 14.54s-17.46-86.52 10.81-89.66c28.26-3.13 7.47 75.07 7.47 75.07s24.1-33.37 22.47-6.26c-1.62 27.12-37.42 50.09-37.42 50.09M112.72 539.45l-21.9-23.73M108.16 541.29l5.92-69.37M107.24 536.26l19.63-26.01"/><path fill="#263238" d="M135.62 531.43H75.05l6.05 71.45h48.46l6.06-71.45Z"/><path fill="#FFF" d="m526.15 168.92-68.53 4.26a15.139 15.139 0 0 0-14.19 15.29l.35 27.54-19.93 2.12 20.09 10.36c.02 1.99.44 3.96 1.23 5.79s1.94 3.48 3.37 4.87a15.126 15.126 0 0 0 10.8 4.25l66.53-1.21c3.87-.08 7.55-1.62 10.31-4.33a15.12 15.12 0 0 0 4.53-10.22l1.53-43.04c.08-2.12-.28-4.23-1.06-6.2a15.35 15.35 0 0 0-3.49-5.22 15.219 15.219 0 0 0-5.32-3.36c-1.99-.73-4.1-1.04-6.22-.9Z"/><path stroke="#263238" d="M457.62 173.18a15.139 15.139 0 0 0-14.19 15.29l.35 27.54-19.93 2.12 20.09 10.36c.02 1.99.44 3.96 1.23 5.79s1.94 3.48 3.37 4.87a15.126 15.126 0 0 0 10.8 4.25l66.53-1.21c3.87-.08 7.55-1.62 10.31-4.33a15.12 15.12 0 0 0 4.53-10.22l1.53-43.04c.08-2.12-.28-4.23-1.06-6.2a15.35 15.35 0 0 0-3.49-5.22 15.219 15.219 0 0 0-5.32-3.36c-1.99-.73-4.1-1.04-6.22-.9l-68.53 4.26Z"/><path fill="#8C8C8C" d="M512.27 176.03h-44.88v28.27h44.88v-28.27Z"/><path stroke="#263238" stroke-linejoin="round" d="M512.27 176.03v28.27h-44.88v-28.27h44.88Z"/><path fill="#696969" d="M512.27 176.03h-25.49v28.27h25.49v-28.27Z"/><path stroke="#263238" stroke-linejoin="round" d="M512.27 176.03v28.27h-25.49v-28.27h25.49Z"/><path fill="#FFF" d="M498.97 176.03h-18.28v28.27h18.28v-28.27Z"/><path stroke="#263238" stroke-linejoin="round" d="M498.97 176.03v28.27h-18.28v-28.27h18.28Z"/><path fill="#263238" d="M467.06 227.17v-7.18c0-3.45 2.44-5.75 6.13-5.75s6.14 2.25 6.14 5.64c0 .16-.14.27-.33.29l-1.18.08c-.21 0-.34 0-.34-.15v-.16c0-1.14-.46-2.23-1.26-3.03a4.25 4.25 0 0 0-3.03-1.26 4.285 4.285 0 0 0-4.28 4.29v7.31c0 1.13.45 2.22 1.25 3.03.81.8 1.9 1.25 3.03 1.25 1.14 0 2.23-.45 3.03-1.25.8-.81 1.26-1.9 1.26-3.03a.19.19 0 0 1 .02-.13c.01-.04.04-.08.07-.11.04-.02.08-.04.12-.05.04-.01.09-.01.13 0H479c.19 0 .33 0 .33.13v.13c0 3.42-2.45 5.7-6.14 5.7-3.69 0-6.13-2.28-6.13-5.75ZM482.83 215.79c-.02-.29.05-.57.19-.81.15-.25.36-.44.62-.57.25-.12.54-.16.82-.11.28.04.54.17.75.36.2.19.35.44.41.72.06.28.04.57-.06.83-.11.26-.29.49-.52.65-.24.16-.51.25-.8.25-.18.01-.36-.01-.53-.08-.17-.06-.33-.15-.46-.28-.13-.12-.24-.27-.31-.44a1.31 1.31 0 0 1-.11-.52Zm.5 16.6v-12.53c0-.05 0-.09.02-.14.01-.04.04-.08.07-.11.03-.03.07-.06.11-.07.04-.02.09-.03.13-.03h1.18c.05 0 .09.01.13.02.05.02.09.04.12.08.03.03.06.07.07.11.02.04.03.09.02.14v12.53c.01.05 0 .09-.02.14-.01.04-.04.08-.07.11a.36.36 0 0 1-.12.08c-.04.01-.08.02-.13.01h-1.18a.2.2 0 0 1-.13-.02c-.04-.02-.08-.04-.11-.07-.03-.04-.06-.07-.07-.12-.02-.04-.02-.09-.02-.13ZM499.02 223.69v8.7c.01.04 0 .09-.01.13-.02.05-.04.08-.07.12-.03.03-.07.05-.11.07a.23.23 0 0 1-.14.02h-1.17c-.05.01-.1 0-.14-.01a.444.444 0 0 1-.11-.08.284.284 0 0 1-.08-.11c-.01-.05-.02-.09-.02-.14v-.94c0-.1-.08-.16-.16 0-.53.52-1.17.93-1.87 1.19-.7.27-1.45.39-2.2.36-2.22 0-4.31-1.07-4.31-3.82s1.99-4.23 5.38-4.23h3.06c.02 0 .03 0 .05-.01.02 0 .03-.01.05-.03.01-.01.02-.03.02-.04.01-.02.01-.04.01-.06v-.96c.04-.4-.01-.81-.16-1.19-.14-.38-.37-.72-.66-1-.3-.27-.65-.48-1.04-.6s-.79-.14-1.19-.08c-1.66 0-2.73.68-3.02 1.77 0 .05-.02.09-.04.13-.02.04-.05.07-.09.09-.03.03-.08.05-.12.05-.04.01-.09.01-.13 0l-1.32-.16c-.22 0-.35-.11-.32-.28.34-1.92 2.27-3.23 4.97-3.23 3.2-.05 4.94 1.76 4.94 4.34Zm-1.85 4.81v-2.01c.01-.01 0-.03 0-.05-.01-.02-.02-.03-.03-.04a.055.055 0 0 0-.05-.03c-.01-.01-.03-.01-.05-.01h-2.74c-2.27 0-3.82.97-3.82 2.65 0 1.67 1.33 2.31 2.87 2.31 1.95.03 3.82-.99 3.82-2.82ZM502.82 229.31c-.28-1.05-.4-2.13-.37-3.21-.03-1.08.08-2.15.34-3.19a5.439 5.439 0 0 1 1.98-2.6c.92-.65 2.01-.99 3.12-.99 1.12 0 2.21.34 3.13.99.91.64 1.6 1.55 1.98 2.6.27 1.05.4 2.13.37 3.21.03 1.09-.1 2.17-.37 3.22a5.417 5.417 0 0 1-1.96 2.63 5.397 5.397 0 0 1-6.26 0c-.91-.65-1.6-1.57-1.96-2.63v-.03Zm8.46-.54c.17-.87.24-1.76.21-2.65.04-.88-.03-1.77-.21-2.64a3.505 3.505 0 0 0-5.49-1.84c-.6.46-1.04 1.11-1.25 1.84-.29 1.75-.29 3.54 0 5.29.21.73.65 1.38 1.25 1.84a3.505 3.505 0 0 0 5.49-1.84Z"/><path fill="#FFF" d="M239.11 202.8 212 195.48l6.13-40.18c.28-1.9.14-3.85-.43-5.69-.57-1.84-1.55-3.52-2.86-4.93a12.689 12.689 0 0 0-4.72-3.2c-1.8-.7-3.73-.98-5.65-.82l-57.55 4.76c-1.67.13-3.29.59-4.78 1.36-1.49.76-2.82 1.81-3.9 3.09a12.714 12.714 0 0 0-2.99 9.28l4.23 52.7c.25 3.11 1.63 6.02 3.88 8.18s5.22 3.42 8.34 3.54l44.28 1.75c3.14.13 6.21-.9 8.63-2.9 2.42-2 4.02-4.82 4.49-7.92l1.15-7.52 28.86-4.18Z"/><path stroke="#263238" d="m212 195.48 6.13-40.18c.28-1.9.14-3.85-.43-5.69-.57-1.84-1.55-3.52-2.86-4.93a12.689 12.689 0 0 0-4.72-3.2c-1.8-.7-3.73-.98-5.65-.82l-57.55 4.76c-1.67.13-3.29.59-4.78 1.36-1.49.76-2.82 1.81-3.9 3.09a12.714 12.714 0 0 0-2.99 9.28l4.23 52.7c.25 3.11 1.63 6.02 3.88 8.18s5.22 3.42 8.34 3.54l44.28 1.75c3.14.13 6.21-.9 8.63-2.9 2.42-2 4.02-4.82 4.49-7.92l1.15-7.52 28.86-4.18-27.11-7.32Z"/><path fill="#8C8C8C" d="M198.84 151.89h-44.88v28.27h44.88v-28.27Z"/><path stroke="#263238" stroke-linejoin="round" d="M198.84 151.89v28.27h-44.88v-28.27h44.88Z"/><path fill="#FFF" d="M198.84 158.74h-44.88v14.58h44.88v-14.58Z"/><path stroke="#263238" stroke-linejoin="round" d="M198.84 158.74v14.58h-44.88v-14.58h44.88Z"/><path fill="#263238" d="M164.39 190.36h1.17c.05 0 .09.01.13.03.05.01.08.04.12.07.03.03.05.07.07.11.01.05.02.09.01.14v17.61c.01.04 0 .09-.01.13-.02.04-.04.08-.07.11-.04.04-.07.06-.12.08-.04.01-.08.02-.13.02h-1.17c-.05 0-.1 0-.14-.02a.375.375 0 0 1-.12-.07.346.346 0 0 1-.07-.12c-.02-.04-.02-.09-.02-.13v-7.99c-.01-.02-.02-.03-.03-.04a.055.055 0 0 0-.05-.03c-.01-.01-.03-.01-.05-.01h-8.28c-.01 0-.03 0-.05.01-.02 0-.03.01-.04.03-.02.01-.03.02-.03.04-.01.02-.01.04-.01.05v7.94c0 .04 0 .09-.02.13a.24.24 0 0 1-.07.12.24.24 0 0 1-.12.07c-.04.02-.09.02-.13.02h-1.18c-.04 0-.09 0-.13-.02-.05-.01-.08-.04-.12-.07a.346.346 0 0 1-.07-.12c-.01-.04-.02-.09-.01-.13v-17.67c-.01-.04 0-.09.01-.13.02-.04.04-.08.07-.12.04-.03.07-.06.12-.07.04-.02.09-.02.13-.02h1.18c.04 0 .09 0 .13.02.05.01.09.04.12.07.03.04.06.07.07.12.02.04.02.09.02.13v7.82c0 .02 0 .03.01.05 0 .02.01.03.03.05.01.01.02.02.04.02.02.01.04.01.05.01h8.29c.02 0 .04 0 .06-.01.01 0 .03-.01.04-.02.01-.02.02-.03.03-.05.01-.02.01-.03.01-.05v-7.82c0-.08.04-.15.1-.21.06-.05.14-.08.23-.08ZM170.31 205.18c-.27-1.05-.39-2.13-.36-3.21-.03-1.07.08-2.14.33-3.19a5.506 5.506 0 0 1 1.99-2.6c.91-.64 2-.98 3.12-.98a5.42 5.42 0 0 1 5.11 3.58c.27 1.05.4 2.13.37 3.22.03 1.08-.09 2.16-.37 3.21a5.375 5.375 0 0 1-1.97 2.63c-.91.65-2 1-3.12 1-1.13 0-2.22-.35-3.13-1-.92-.65-1.6-1.57-1.97-2.63v-.03Zm8.46-.55c.17-.87.24-1.76.21-2.65.04-.88-.04-1.77-.21-2.64a3.44 3.44 0 0 0-1.25-1.85 3.505 3.505 0 0 0-4.23 0 3.44 3.44 0 0 0-1.25 1.85c-.17.87-.24 1.76-.21 2.64-.04.89.04 1.78.21 2.65.2.73.64 1.38 1.25 1.85a3.505 3.505 0 0 0 4.23 0c.61-.47 1.05-1.12 1.25-1.85ZM184.63 208.26v-17.61c-.01-.04 0-.09.01-.13.02-.05.04-.08.08-.12.03-.03.07-.06.11-.07.05-.02.09-.02.14-.02h1.18c.04 0 .09.01.13.02.04.02.08.05.11.08s.05.07.07.11c.01.04.02.09.02.13v17.61c0 .05-.01.09-.02.14-.02.04-.04.08-.07.11-.03.03-.07.06-.11.07-.04.02-.09.03-.13.03h-1.18c-.05 0-.09 0-.14-.02-.04-.02-.08-.04-.11-.07-.04-.04-.06-.08-.08-.12a.321.321 0 0 1-.01-.14ZM200.2 199.62v8.7c0 .04 0 .09-.02.13a.24.24 0 0 1-.07.12.24.24 0 0 1-.12.07c-.04.02-.09.02-.13.02h-1.18c-.05 0-.09 0-.14-.02a.259.259 0 0 1-.11-.07.255.255 0 0 1-.08-.12c-.01-.04-.02-.09-.01-.13v-.94c0-.11-.08-.16-.16 0-.54.52-1.18.92-1.88 1.18-.7.27-1.45.39-2.2.35-2.22 0-4.3-1.07-4.3-3.81 0-2.73 1.98-4.23 5.38-4.23h3.02c.02.01.04 0 .06 0 .01-.01.03-.02.04-.03.01-.01.02-.03.03-.05.01-.01.01-.03.01-.05v-1.12c.04-.41-.01-.81-.16-1.2-.14-.38-.36-.72-.66-1a2.652 2.652 0 0 0-2.24-.68c-1.64 0-2.71.68-3 1.78 0 .04-.02.09-.04.13-.03.03-.06.07-.1.09-.04.02-.08.04-.12.04-.05.01-.09.01-.14-.01l-1.32-.14c-.2 0-.33-.11-.3-.29.33-1.91 2.27-3.22 4.96-3.22 3.22.06 4.98 1.85 4.98 4.5Zm-1.9 4.74v-2.01c0-.01 0-.03-.01-.05-.01-.02-.02-.03-.03-.04-.01-.02-.03-.03-.04-.03-.02-.01-.04-.01-.06-.01h-2.73c-2.28 0-3.82.97-3.82 2.65 0 1.67 1.32 2.32 2.88 2.32 1.97.03 3.81-.96 3.81-2.83Z"/><path fill="#FFF" d="M547.69 271.89h-35.26c-7.13 0-13.97 2.83-19.01 7.87a26.885 26.885 0 0 0-7.87 19.01v9.93l-17.57-.68 17.63 11.5v7.45c0 7.12 2.83 13.96 7.87 19a26.88 26.88 0 0 0 19 7.89h35.26a26.88 26.88 0 0 0 19-7.89 26.889 26.889 0 0 0 7.88-19v-28.2c0-3.54-.7-7.04-2.06-10.3a26.778 26.778 0 0 0-5.84-8.73 27.04 27.04 0 0 0-8.73-5.82 26.792 26.792 0 0 0-10.3-2.03Z"/><path stroke="#263238" d="M512.43 271.89c-7.13 0-13.97 2.83-19.01 7.87a26.885 26.885 0 0 0-7.87 19.01v9.93l-17.57-.68 17.63 11.5v7.45c0 7.12 2.83 13.96 7.87 19a26.88 26.88 0 0 0 19 7.89h35.26a26.88 26.88 0 0 0 19-7.89 26.889 26.889 0 0 0 7.88-19v-28.2c0-3.54-.7-7.04-2.06-10.3a26.778 26.778 0 0 0-5.84-8.73 27.04 27.04 0 0 0-8.73-5.82 26.792 26.792 0 0 0-10.3-2.03h-35.26Z"/><path fill="#263238" d="M516.17 322.03h1.18c.04 0 .08.01.13.03.04.01.07.04.1.07.04.03.06.07.08.11.01.04.02.08.02.13v17.6c0 .05 0 .09-.02.14-.01.04-.04.08-.07.11-.03.03-.07.06-.11.08-.04.01-.09.02-.13.02h-1.18c-.05 0-.09 0-.14-.02-.04-.02-.08-.04-.11-.07-.03-.04-.06-.08-.08-.12a.321.321 0 0 1-.01-.14v-7.93c0-.02 0-.03-.01-.05-.01-.02-.01-.03-.03-.05a.076.076 0 0 0-.04-.02c-.02-.01-.04-.01-.06-.01h-8.27c-.02 0-.04 0-.05.01-.02 0-.04.01-.05.02-.01.02-.02.03-.03.05 0 .02-.01.03 0 .05v7.93c0 .05-.01.1-.02.14-.02.04-.04.08-.08.12-.03.03-.07.05-.11.07-.04.02-.09.02-.14.02h-1.17c-.05 0-.1 0-.14-.02-.04-.02-.08-.04-.12-.07a.746.746 0 0 1-.07-.12c-.02-.04-.02-.09-.02-.14v-17.6c0-.05.01-.09.02-.14.02-.04.05-.08.08-.11s.07-.05.11-.07c.05-.01.09-.02.14-.02h1.17c.05 0 .09.01.14.02.04.02.08.04.11.07.03.03.06.07.07.11.02.05.03.09.03.14v7.81c-.01.02 0 .03 0 .05.01.02.02.03.03.05.01.01.03.02.05.02.01.01.03.01.05.01h8.27c.02 0 .04 0 .06-.01.01 0 .03-.01.04-.02.02-.02.02-.03.03-.05.01-.02.01-.03.01-.05v-7.81a.23.23 0 0 1 .02-.14c.02-.04.04-.08.07-.11.04-.03.08-.05.12-.07.04-.01.09-.02.13-.02ZM530.63 336.97c.02-.04.04-.08.07-.11.04-.03.08-.06.12-.07a.2.2 0 0 1 .13-.02c.05 0 .09.02.13.04l.76.43c.18.1.26.26.15.43-.43.9-1.13 1.65-1.99 2.16-.86.51-1.86.75-2.86.7-1.06.07-2.11-.21-3-.8a4.842 4.842 0 0 1-1.89-2.47c-.38-1.16-.55-2.38-.5-3.6-.05-1.02.03-2.04.24-3.03.27-1.11.93-2.1 1.85-2.78.92-.68 2.05-1.02 3.2-.96a4.859 4.859 0 0 1 5.22 4.49c.14.88.19 1.76.16 2.65 0 .04 0 .09-.02.13-.02.04-.04.08-.07.11-.04.04-.08.06-.12.07-.04.02-.09.02-.14.02h-8.35c-.02-.01-.04 0-.05 0-.02.01-.04.02-.05.03-.01.01-.02.03-.03.04 0 .02-.01.04 0 .06-.02.64.03 1.28.16 1.91a3.38 3.38 0 0 0 3.54 2.56c.69.02 1.37-.15 1.96-.5.6-.35 1.08-.87 1.38-1.49Zm-6.83-6.01c-.15.58-.22 1.18-.21 1.78-.01.02 0 .04 0 .06.01.01.02.03.03.04.01.01.03.02.05.03.01.01.03.01.05.01h6.71c.02 0 .04-.01.05-.02.02 0 .03-.01.04-.02.01-.02.02-.03.03-.05 0-.01.01-.03 0-.05-.01-.56-.06-1.12-.14-1.68a3.282 3.282 0 0 0-3.37-2.55 3.098 3.098 0 0 0-3.24 2.45ZM536.09 339.97v-17.6c0-.05.01-.09.03-.14.01-.04.04-.08.07-.11.03-.03.07-.05.11-.07.05-.01.09-.02.14-.02h1.17c.05 0 .09.01.13.02.05.02.08.04.12.07.03.03.05.07.07.11.01.05.02.09.01.14v17.6c.01.05.01.1-.01.14-.01.04-.04.08-.07.12-.03.03-.07.05-.11.07-.05.02-.09.02-.14.02h-1.17c-.05 0-.1 0-.14-.02-.04-.02-.08-.04-.12-.07-.03-.04-.05-.08-.07-.12-.02-.04-.02-.09-.02-.14ZM542.16 339.97v-17.6c0-.05.01-.09.02-.13.02-.04.04-.08.07-.11.03-.03.07-.06.11-.07.04-.02.09-.03.13-.03h1.18c.04 0 .09.01.13.02.04.02.08.04.11.07.04.03.06.07.08.11.02.05.02.09.02.14v17.6c.01.05 0 .1-.02.14-.01.04-.04.08-.07.12-.03.03-.07.05-.12.07-.04.02-.09.02-.13.02h-1.18c-.04 0-.09-.01-.13-.02a.444.444 0 0 1-.11-.08.259.259 0 0 1-.07-.11c-.02-.05-.02-.09-.02-.14ZM548.16 336.89c-.27-1.04-.4-2.13-.37-3.21-.03-1.07.09-2.14.35-3.18a5.439 5.439 0 0 1 1.98-2.6 5.41 5.41 0 0 1 3.13-.99c1.11 0 2.2.34 3.12.99.91.64 1.61 1.55 1.99 2.6.26 1.04.38 2.13.35 3.21.04 1.08-.08 2.16-.35 3.21a5.436 5.436 0 0 1-1.97 2.63 5.397 5.397 0 0 1-8.23-2.63v-.03Zm8.46-.54c.17-.87.24-1.76.22-2.64.03-.89-.04-1.78-.22-2.65-.2-.73-.64-1.38-1.25-1.84a3.43 3.43 0 0 0-2.11-.72c-.76 0-1.51.25-2.12.72-.6.46-1.04 1.11-1.25 1.84-.17.87-.24 1.76-.21 2.65-.03.88.04 1.77.21 2.64.21.74.65 1.39 1.25 1.85.61.46 1.36.71 2.12.71a3.484 3.484 0 0 0 3.36-2.56Z"/><path fill="#FFF" d="M552.71 283.62h-44.88v28.26h44.88v-28.26Z"/><path stroke="#263238" stroke-linejoin="round" d="M552.71 283.62v28.26h-44.88v-28.26h44.88Z"/><path fill="#263238" fill-rule="evenodd" d="M508.07 283.62h44.88v2.73h-44.88v-2.73ZM508.07 287.9h44.88v2.74h-44.88v-2.74ZM508.07 292.17h44.88v2.74h-44.88v-2.74ZM508.07 296.45h44.88v2.74h-44.88v-2.74ZM508.07 300.74h44.88v2.73h-44.88v-2.73ZM508.07 305.02h44.88v2.74h-44.88v-2.74ZM508.07 309.3h44.88v2.74h-44.88v-2.74Z"/><path fill="#263238" fill-rule="evenodd" d="M507.83 283.62h21.76v15.06h-21.76v-15.06Z"/><path fill="#FFF" d="m508.67 284.89.2.42.43.07-.31.33.07.46-.39-.21-.37.21.07-.46-.3-.33.42-.07.18-.42ZM508.67 287.68l.2.42.43.07-.31.33.07.46-.39-.23-.37.23.07-.46-.3-.33.42-.07.18-.42ZM508.67 290.45l.2.43.43.06-.31.33.07.46-.39-.22-.37.22.07-.46-.3-.33.42-.06.18-.43ZM508.67 293.23l.2.42.43.08-.31.32.07.46-.39-.21-.37.21.07-.46-.3-.32.42-.08.18-.42ZM508.67 296.02l.2.42.43.07-.31.33.07.46-.39-.23-.37.23.07-.46-.3-.33.42-.07.18-.42ZM510.67 286.51l.19.43.42.06-.31.33.07.46-.37-.21-.38.21.06-.46-.3-.33.42-.06.2-.43ZM510.67 289.3l.19.43.42.06-.31.33.07.46-.37-.22-.38.22.06-.46-.3-.33.42-.06.2-.43ZM510.67 292.08l.19.42.42.07-.31.33.07.46-.37-.21-.38.21.06-.46-.3-.33.42-.07.2-.42ZM510.67 294.85l.19.43.42.06-.31.33.07.47-.37-.21-.38.21.06-.47-.3-.33.42-.06.2-.43ZM512.65 284.89l.2.42.43.07-.32.33.08.46-.39-.21-.38.21.08-.46-.32-.33.44-.07.18-.42ZM512.65 287.68l.2.42.43.07-.32.33.08.46-.39-.23-.38.23.08-.46-.32-.33.44-.07.18-.42ZM512.65 290.45l.2.43.43.06-.32.33.08.46-.39-.22-.38.22.08-.46-.32-.33.44-.06.18-.43ZM512.65 293.23l.2.42.43.08-.32.32.08.46-.39-.21-.38.21.08-.46-.32-.32.44-.08.18-.42ZM512.65 296.02l.2.42.43.07-.32.33.08.46-.39-.23-.38.23.08-.46-.32-.33.44-.07.18-.42ZM514.65 286.51l.19.43.42.06-.31.33.07.46-.37-.21-.38.21.06-.46-.3-.33.42-.06.2-.43ZM514.65 289.3l.19.43.42.06-.31.33.07.46-.37-.22-.38.22.06-.46-.3-.33.42-.06.2-.43ZM514.65 292.08l.19.42.42.07-.31.33.07.46-.37-.21-.38.21.06-.46-.3-.33.42-.07.2-.42ZM514.65 294.85l.19.43.42.06-.31.33.07.47-.37-.21-.38.21.06-.47-.3-.33.42-.06.2-.43ZM516.63 284.89l.19.42.42.07-.3.33.08.46-.39-.21-.38.21.07-.46-.31-.33.42-.07.2-.42ZM516.63 287.68l.19.42.42.07-.3.33.08.46-.39-.23-.38.23.07-.46-.31-.33.42-.07.2-.42ZM516.63 290.45l.19.43.42.06-.3.33.08.46-.39-.22-.38.22.07-.46-.31-.33.42-.06.2-.43ZM516.63 293.23l.19.42.42.08-.3.32.08.46-.39-.21-.38.21.07-.46-.31-.32.42-.08.2-.42ZM516.63 296.02l.19.42.42.07-.3.33.08.46-.39-.23-.38.23.07-.46-.31-.33.42-.07.2-.42ZM518.62 286.51l.19.43.43.06-.31.33.07.46-.38-.21-.39.21.08-.46-.3-.33.42-.06.19-.43ZM518.62 289.3l.19.43.43.06-.31.33.07.46-.38-.22-.39.22.08-.46-.3-.33.42-.06.19-.43ZM518.62 292.08l.19.42.43.07-.31.33.07.46-.38-.21-.39.21.08-.46-.3-.33.42-.07.19-.42ZM518.62 294.85l.19.43.43.06-.31.33.07.47-.38-.21-.39.21.08-.47-.3-.33.42-.06.19-.43ZM520.61 284.89l.19.42.42.07-.3.33.06.46-.37-.21-.38.21.07-.46-.31-.33.42-.07.2-.42ZM520.61 287.68l.19.42.42.07-.3.33.06.46-.37-.23-.38.23.07-.46-.31-.33.42-.07.2-.42ZM520.61 290.45l.19.43.42.06-.3.33.06.46-.37-.22-.38.22.07-.46-.31-.33.42-.06.2-.43ZM520.61 293.23l.19.42.42.08-.3.32.06.46-.37-.21-.38.21.07-.46-.31-.32.42-.08.2-.42ZM520.61 296.02l.19.42.42.07-.3.33.06.46-.37-.23-.38.23.07-.46-.31-.33.42-.07.2-.42ZM522.59 286.51l.19.43.44.06-.32.33.08.46-.39-.21-.38.21.08-.46-.32-.33.44-.06.18-.43ZM522.59 289.3l.19.43.44.06-.32.33.08.46-.39-.22-.38.22.08-.46-.32-.33.44-.06.18-.43ZM522.59 292.08l.19.42.44.07-.32.33.08.46-.39-.21-.38.21.08-.46-.32-.33.44-.07.18-.42ZM522.59 294.85l.19.43.44.06-.32.33.08.47-.39-.21-.38.21.08-.47-.32-.33.44-.06.18-.43ZM524.58 284.89l.2.42.42.07-.3.33.06.46-.38-.21-.37.21.06-.46-.3-.33.42-.07.19-.42ZM524.58 287.68l.2.42.42.07-.3.33.06.46-.38-.23-.37.23.06-.46-.3-.33.42-.07.19-.42ZM524.58 290.45l.2.43.42.06-.3.33.06.46-.38-.22-.37.22.06-.46-.3-.33.42-.06.19-.43ZM524.58 293.23l.2.42.42.08-.3.32.06.46-.38-.21-.37.21.06-.46-.3-.32.42-.08.19-.42ZM524.58 296.02l.2.42.42.07-.3.33.06.46-.38-.23-.37.23.06-.46-.3-.33.42-.07.19-.42ZM526.57 286.51l.19.43.42.06-.3.33.08.46-.39-.21-.38.21.07-.46-.31-.33.43-.06.19-.43ZM526.57 289.3l.19.43.42.06-.3.33.08.46-.39-.22-.38.22.07-.46-.31-.33.43-.06.19-.43ZM526.57 292.08l.19.42.42.07-.3.33.08.46-.39-.21-.38.21.07-.46-.31-.33.43-.07.19-.42ZM526.57 294.85l.19.43.42.06-.3.33.08.47-.39-.21-.38.21.07-.47-.31-.33.43-.06.19-.43ZM528.56 284.89l.2.42.42.07-.31.33.07.46-.38-.21-.39.21.08-.46-.3-.33.42-.07.19-.42ZM528.56 287.68l.2.42.42.07-.31.33.07.46-.38-.23-.39.23.08-.46-.3-.33.42-.07.19-.42ZM528.56 290.45l.2.43.42.06-.31.33.07.46-.38-.22-.39.22.08-.46-.3-.33.42-.06.19-.43ZM528.56 293.23l.2.42.42.08-.31.32.07.46-.38-.21-.39.21.08-.46-.3-.32.42-.08.19-.42ZM528.56 296.02l.2.42.42.07-.31.33.07.46-.38-.23-.39.23.08-.46-.3-.33.42-.07.19-.42ZM215.35 312.77h-23.18a45.281 45.281 0 0 0-20.88-25.66 45.313 45.313 0 0 0-32.76-4.64 45.37 45.37 0 0 0-27.18 18.86 45.348 45.348 0 0 0-7.13 32.31 45.344 45.344 0 0 0 48.4 38.13 45.336 45.336 0 0 0 29.74-14.5 45.348 45.348 0 0 0 11.97-30.85v-1.01l21.02-12.64Z"/><path stroke="#263238" d="M192.17 312.77a45.281 45.281 0 0 0-20.88-25.66 45.313 45.313 0 0 0-32.76-4.64 45.37 45.37 0 0 0-27.18 18.86 45.348 45.348 0 0 0-7.13 32.31 45.344 45.344 0 0 0 48.4 38.13 45.336 45.336 0 0 0 29.74-14.5 45.348 45.348 0 0 0 11.97-30.85v-1.01l21.02-12.64h-23.18Z"/><path fill="#263238" d="M127.03 341.53c-.82 1.43-1.74 2.8-2.77 4.09-.34-.5-.71-.97-1.12-1.42 2.85-3.82 4.99-8.13 6.29-12.71l2.17.64c-.11.27-.33.32-.62.3-.71 2.1-1.54 4.17-2.49 6.18l.76.21c0 .16-.17.3-.52.31v16.62h-1.7v-14.22Zm17.88.64c.21-.97.48-2.43.7-3.85h-5.19v15.26c0 1.87-.68 2.22-4.34 2.22-.13-.63-.35-1.23-.65-1.8H138.25c.34 0 .45-.11.45-.45v-15.23h-4.2c-.68 1.75-1.57 3.41-2.65 4.95-.39-.41-.84-.77-1.32-1.07a28.4 28.4 0 0 0 4.31-10.65l2.17.58c0 .19-.23.3-.57.27-.36 1.45-.8 2.88-1.32 4.28H147.58c-.27 1.94-.66 3.85-1.17 5.74l-1.5-.25Zm-8.35.86c-.08.18-.27.29-.58.29-.77 3.13-2.11 6.09-3.97 8.72-.43-.34-.9-.64-1.39-.89 1.86-2.63 3.16-5.61 3.82-8.76l2.12.64Zm9.48 8.8c-.79-3.15-1.99-6.18-3.59-9.01l1.55-.55c1.65 2.79 2.9 5.8 3.72 8.93l-1.68.63ZM158.53 336.95l.99.25-.16.37a33.99 33.99 0 0 1-2.51 11.24c1.14.82 2.18 1.77 3.11 2.84l-1.07 1.44c-.83-1.01-1.77-1.92-2.79-2.72-1.2 2.25-2.99 4.14-5.17 5.46-.31-.52-.68-1.01-1.1-1.45 2.1-1.18 3.8-2.95 4.91-5.09-.96-.72-1.95-1.39-2.98-2.01l-.32 1.16-1.49-.78c.66-2.31 1.47-5.62 2.22-8.99h-2.64v-1.66h2.97c.42-1.95.78-3.83 1.1-5.51l2.14.26c0 .19-.18.3-.52.32-.29 1.5-.66 3.19-1.04 4.93h3.97l.38-.06Zm-4.71 1.72c-.55 2.43-1.15 4.87-1.7 7.02 1.1.6 2.22 1.32 3.32 2.07 1.18-2.9 1.91-5.97 2.16-9.09h-3.78Zm19.94 4.49v1.69h-6.31v8.65c0 2.01-.78 2.33-5.4 2.27-.16-.6-.38-1.19-.65-1.74h3.13c.89 0 1.15 0 1.15-.56v-8.67h-6.4v-1.69h6.4v-4.44h.86c1.44-1.28 2.74-2.71 3.87-4.26h-10.06v-1.65h11.39l.34-.11 1.39.87c-.11.13-.26.21-.42.25a33.471 33.471 0 0 1-5.6 6.05v3.23l6.31.11ZM171.53 295.07h-44.89v28.26h44.89v-28.26Z"/><path stroke="#263238" stroke-linejoin="round" d="M171.53 295.07v28.26h-44.89v-28.26h44.89Z"/><path fill="#FFF" d="m131.94 296.73 1.1 2.21 2.42.34-1.76 1.72.43 2.41-2.19-1.14-2.16 1.14.42-2.41-1.76-1.72 2.42-.34 1.08-2.21ZM138.99 295.87l.57 1.14 1.24.18-.9.88.21 1.24-1.12-.58-1.11.58.21-1.24-.91-.88 1.26-.18.55-1.14ZM140.51 301.61l.56 1.14 1.25.17-.91.88.21 1.25-1.11-.58-1.12.58.21-1.25-.9-.88 1.24-.17.57-1.14ZM136.78 305.36l.56 1.13 1.25.18-.9.89.22 1.24-1.13-.59-1.11.59.21-1.24-.91-.89 1.26-.18.55-1.13ZM131.61 307.08l.56 1.13 1.25.18-.89.89.21 1.24-1.13-.58-1.11.58.21-1.24-.91-.89 1.26-.18.55-1.13Z"/><path stroke="#263238" stroke-linecap="round" stroke-linejoin="round" stroke-width="3" d="M401.2 205.54c0-7.2-1.42-14.33-4.18-20.98a54.809 54.809 0 0 0-11.88-17.8 54.809 54.809 0 0 0-17.8-11.88 54.732 54.732 0 0 0-20.98-4.18h-19.09a54.88 54.88 0 0 0-38.78 16.06 54.88 54.88 0 0 0-16.06 38.78"/><path stroke="#263238" stroke-linecap="round" stroke-linejoin="round" stroke-width="6" d="M401.2 246.15v-40.61M272.43 205.54v40.61"/><path fill="#FFF" d="M311.82 307.08s3.42 23.92 2.73 30.07c-.68 6.14-2.05 12.29-19.13 5.45-17.08-6.83-47.81 5.48-67.63 29.38-19.82 23.9-57.38 103.84-57.38 113.4 0 9.56 7.51 22.47 21.16 24.59 13.64 2.12 45.76-36.88 45.76-36.88s13.66 77.19 13.66 83.28c0 6.1-6.12 46.46-6.12 46.46H438.2l-7.52-49.87 13.67-109.99s56.7 77.19 68.99 80.64c12.3 3.45 31.43-2.73 36.21-17.08 4.79-14.34-2.74-29.37-12.31-40.3-9.57-10.94-69.67-107.26-80.64-116.13-10.97-8.87-41.67-9.57-52.6-6.83-10.93 2.73-29.38 6.83-34.16 4.09-4.79-2.73-4.77-28.68 0-40.3.04.02-41.63 10.95-58.02.02Z"/><path stroke="#263238" stroke-linejoin="round" d="M314.55 337.15c-.68 6.14-2.05 12.29-19.13 5.45-17.08-6.83-47.81 5.48-67.63 29.38-19.82 23.9-57.38 103.84-57.38 113.4 0 9.56 7.51 22.47 21.16 24.59 13.64 2.12 45.76-36.88 45.76-36.88s13.66 77.19 13.66 83.28c0 6.1-6.12 46.46-6.12 46.46H438.2l-7.52-49.87 13.67-109.99s56.7 77.19 68.99 80.64c12.3 3.45 31.43-2.73 36.21-17.08 4.79-14.34-2.74-29.37-12.31-40.3-9.57-10.94-69.67-107.26-80.64-116.13-10.97-8.87-41.67-9.57-52.6-6.83-10.93 2.73-29.38 6.83-34.16 4.09-4.79-2.73-4.77-28.68 0-40.3.04.02-41.63 10.95-58.02.02 0 0 3.42 23.92 2.73 30.07Z"/><path stroke="#263238" stroke-linecap="round" stroke-linejoin="round" d="M285.11 515.09c2.2.85 4.45 1.58 6.73 2.2M249.85 471.26s3.04 26.55 28.06 40.46M327.65 393.52l13.3 19.43M459.17 412.09l3.51-7.32M453.47 402.72l-9.12 40.3 11.21-23.38M494.42 475.35s14.44-9.26 28.65-9.26"/><path fill="#FFF" d="M465.05 503.07c9.15-4.95 17.9-10.62 26.16-16.95a58.546 58.546 0 0 1 41.64-11.79c13.63 1.47 21.01 18.41 21.37 35.38.35 16.96-8.85 27.25-25.42 29.83-16.58 2.58-36.12-1.09-48.27-4.04-6.43-1.63-12.96-2.87-19.54-3.69 0 0-15.84-24.33 4.06-28.74Z"/><path stroke="#263238" stroke-linejoin="round" d="M491.21 486.12a58.546 58.546 0 0 1 41.64-11.79c13.63 1.47 21.01 18.41 21.37 35.38.35 16.96-8.85 27.25-25.42 29.83-16.58 2.58-36.12-1.09-48.27-4.04-6.43-1.63-12.96-2.87-19.54-3.69 0 0-15.84-24.33 4.06-28.74 9.15-4.95 17.9-10.62 26.16-16.95Z"/><path fill="#FFF" d="M554.22 509.71c-.36-16.97-7.74-33.91-21.37-35.38a58.546 58.546 0 0 0-41.64 11.79l-1.85 1.42c15.86.54 47.94 7.02 42.91 51.32 14.39-3.46 22.29-13.44 21.95-29.15Z"/><path stroke="#263238" stroke-linejoin="round" d="M532.85 474.33a58.546 58.546 0 0 0-41.64 11.79l-1.85 1.42c15.86.54 47.94 7.02 42.91 51.32 14.39-3.46 22.29-13.44 21.95-29.15-.36-16.97-7.74-33.91-21.37-35.38Z"/><path fill="#FFF" d="M311.82 307.08s3.42 23.92 2.73 30.07c-.51 4.61-1.41 9.25-9.03 8.35 10.9 17.81 42.53 59.61 72.05 2.64-3.44.22-6.21 0-7.69-.82-4.77-2.73-4.77-28.68 0-40.3 0 .06-41.67 10.99-58.06.06Z"/><path stroke="#263238" stroke-linejoin="round" d="M314.55 337.15c-.51 4.61-1.41 9.25-9.03 8.35 10.9 17.81 42.53 59.61 72.05 2.64-3.44.22-6.21 0-7.69-.82-4.77-2.73-4.77-28.68 0-40.3 0 .06-41.67 10.99-58.06.06 0 0 3.42 23.92 2.73 30.07Z"/><path fill="#263238" d="M311.82 307.08s.88 6.22 1.66 13.12c7.93 4.2 16.69 6.58 25.65 6.98 9.9.16 19.62-2.66 27.91-8.08.44-4.11 1.39-8.15 2.84-12.02 0 0-41.67 10.93-58.06 0Z"/><path stroke="#263238" stroke-linejoin="round" d="M313.48 320.2c7.93 4.2 16.69 6.58 25.65 6.98 9.9.16 19.62-2.66 27.91-8.08.44-4.11 1.39-8.15 2.84-12.02 0 0-41.67 10.93-58.06 0 0 0 .88 6.22 1.66 13.12Z"/><path fill="#263238" d="M274.27 224.4h-3.77c-4.63 0-8.38 3.76-8.38 8.39v32.07c0 4.63 3.75 8.38 8.38 8.38h3.77c4.63 0 8.38-3.75 8.38-8.38v-32.07c0-4.63-3.75-8.39-8.38-8.39Z"/><path stroke="#263238" stroke-linejoin="round" d="M274.27 224.4c4.63 0 8.38 3.76 8.38 8.39v32.07c0 4.63-3.75 8.38-8.38 8.38h-3.77c-4.63 0-8.38-3.75-8.38-8.38v-32.07c0-4.63 3.75-8.39 8.38-8.39h3.77Z"/><path fill="#FFF" d="M274.48 224.44H270.28v48.76H274.48v-48.76Z"/><path stroke="#263238" stroke-linejoin="round" d="M273.54 224.44h-3.26v48.76H274.48v-48.76h-.94Z"/><path fill="#263238" d="M403.46 224.4h-3.77c-4.63 0-8.38 3.76-8.38 8.39v32.07c0 4.63 3.75 8.38 8.38 8.38h3.77c4.63 0 8.38-3.75 8.38-8.38v-32.07c0-4.63-3.75-8.39-8.38-8.39Z"/><path stroke="#263238" stroke-linejoin="round" d="M403.46 224.4c4.63 0 8.38 3.76 8.38 8.39v32.07c0 4.63-3.75 8.38-8.38 8.38h-3.77c-4.63 0-8.38-3.75-8.38-8.38v-32.07c0-4.63 3.75-8.39 8.38-8.39h3.77Z"/><path fill="#FFF" d="M403.68 224.44H399.48v48.76H403.68v-48.76Z"/><path stroke="#263238" stroke-linejoin="round" d="M402.74 224.44h-3.26v48.76H403.68v-48.76h-.94Z"/><path fill="#FFF" d="M240.11 262.97c-1.6.14-3.14.69-4.47 1.58-1.34.89-2.43 2.1-3.18 3.52-3.07 5.1-12.76 23.98-11.74 29.6 1.01 5.62 43.37 45.41 43.37 47.96 0 2.55-33.67 48.48-56.13 68.89-22.46 20.41-40.31 43.36-43.38 61.74-3.06 18.38 7.66 33.67 18.9 36.74 11.23 3.06 24.99-3.57 40.81-23.48 15.81-19.91 59.2-106.65 65.83-136.17 0 0 1.52-13.22-4.6-20.92-6.12-7.71-21.43-25.52-21.43-25.52s3.07-35.2.52-37.76c-2.55-2.55-5.11 3.07-5.11 3.07s-2.36-11.8-5.61-11.24c-3.56.64-4.59 5.11-4.59 5.11s-2.55-10.27-9.19-3.12Z"/><path stroke="#263238" stroke-linejoin="round" d="M235.64 264.55c-1.34.89-2.43 2.1-3.18 3.52-3.07 5.1-12.76 23.98-11.74 29.6 1.01 5.62 43.37 45.41 43.37 47.96 0 2.55-33.67 48.48-56.13 68.89-22.46 20.41-40.31 43.36-43.38 61.74-3.06 18.38 7.66 33.67 18.9 36.74 11.23 3.06 24.99-3.57 40.81-23.48 15.81-19.91 59.2-106.65 65.83-136.17 0 0 1.52-13.22-4.6-20.92-6.12-7.71-21.43-25.52-21.43-25.52s3.07-35.2.52-37.76c-2.55-2.55-5.11 3.07-5.11 3.07s-2.36-11.8-5.61-11.24c-3.56.64-4.59 5.11-4.59 5.11s-2.55-10.27-9.19-3.12c-1.6.14-3.14.69-4.47 1.58Z"/><path stroke="#263238" stroke-linecap="round" stroke-linejoin="round" d="M259.5 272.16s-7.32 29.3-6.61 34.25M249.3 266.02s-7.76 28.5-8.75 32.47c-.33 1.3-.39 2.65-.18 3.97.21 1.32.7 2.58 1.42 3.71M240.11 262.97s-10.96 30.56-10.96 33.79c0 3.22 2.49 7.18 2.49 7.18"/><path fill="#FFF" d="M230.35 390.69a269.114 269.114 0 0 1-22.39 23.79c-22.47 20.4-40.31 43.36-43.38 61.74-3.06 18.38 7.66 33.67 18.9 36.74 11.23 3.06 24.99-3.57 40.81-23.48 9.1-11.45 27.32-45.03 42.42-77.11-23-6.11-32.5-15.63-36.36-21.68Z"/><path stroke="#263238" stroke-linejoin="round" d="M207.96 414.48c-22.47 20.4-40.31 43.36-43.38 61.74-3.06 18.38 7.66 33.67 18.9 36.74 11.23 3.06 24.99-3.57 40.81-23.48 9.1-11.45 27.32-45.03 42.42-77.11-23-6.11-32.5-15.63-36.36-21.68a269.114 269.114 0 0 1-22.39 23.79Z"/><path fill="#FFF" d="M282.2 199.1s-.88 71.03 1.79 84.36c2.67 13.32 26.64 35.96 54.2 36.84 27.56.89 49.28-24.41 51.94-37.74 2.66-13.33 0-66.59-.43-87.9-.44-21.31-31.09-40.4-62.14-35.52-31.05 4.88-47.13 23.08-45.36 39.96Z"/><path stroke="#263238" stroke-linejoin="round" d="M283.99 283.46c2.67 13.32 26.64 35.96 54.2 36.84 27.56.89 49.28-24.41 51.94-37.74 2.66-13.33 0-66.59-.43-87.9-.44-21.31-31.09-40.4-62.14-35.52-31.05 4.88-47.13 23.08-45.36 39.96 0 0-.88 71.03 1.79 84.36Z"/><path stroke="#263238" stroke-linecap="round" stroke-linejoin="round" d="M349.69 227.96s1.77 12.43 3.56 15.09c1.78 2.65 4.88 6.22-1.32 8.88-6.2 2.66-11.11-.45-11.11-3.56"/><path fill="#FFF" d="M356.35 271.9s-23.98 3.07-34.63-7.5c0 0 2.64 16.43 10.65 19.1 8.01 2.67 23.98-11.6 23.98-11.6Z"/><path stroke="#263238" stroke-linejoin="round" d="M321.72 264.4s2.64 16.43 10.65 19.1c8.01 2.67 23.98-11.6 23.98-11.6s-23.98 3.07-34.63-7.5Z"/><path stroke="#263238" stroke-linecap="round" stroke-linejoin="round" d="m325.27 228.4 2.23 7.1"/><path stroke="#263238" stroke-linecap="round" stroke-linejoin="round" stroke-width="2" d="M315.5 235.06s6.22 3.97 17.76.44"/><path stroke="#263238" stroke-linecap="round" stroke-linejoin="round" d="m368.78 228.4 2.22 7.1"/><path stroke="#263238" stroke-linecap="round" stroke-linejoin="round" stroke-width="2" d="M359.01 235.06s6.21 3.97 17.77.44M312.4 215.97a23.32 23.32 0 0 1 8.22-6.86c3.23-1.62 6.8-2.46 10.42-2.46M355.02 205.75s12.88-3.54 21.76 6.61"/><path stroke="#263238" stroke-linejoin="round" d="M340.11 231.09a12.26 12.26 0 0 1-1.84 6.31l-.25.4a20.651 20.651 0 0 1-7.51 7.14c-3.07 1.71-6.52 2.6-10.03 2.6h-2.78c-2.82 0-5.6-.74-8.04-2.15a16.124 16.124 0 0 1-5.9-5.87c-1.03-1.79-1.64-3.8-1.78-5.86-.13-2.07.22-4.14 1.02-6.04.96-2.3 2.55-4.28 4.57-5.72 2.03-1.44 4.42-2.28 6.9-2.44l12.64-.79c2.26-.14 4.52.36 6.52 1.43 2 1.07 3.66 2.67 4.8 4.64 1.13 1.92 1.71 4.12 1.68 6.35ZM351.29 231.09c.03 2.23.66 4.41 1.84 6.31l.25.4c1.86 2.98 4.44 5.44 7.51 7.14 3.07 1.71 6.52 2.6 10.03 2.6h2.78a16.112 16.112 0 0 0 13.93-8.02c1.04-1.79 1.66-3.8 1.79-5.86.13-2.07-.22-4.14-1.02-6.04a13.354 13.354 0 0 0-11.48-8.16l-12.62-.79c-2.27-.14-4.52.36-6.52 1.43a12.129 12.129 0 0 0-4.81 4.64 12.203 12.203 0 0 0-1.68 6.35Z"/><path stroke="#263238" stroke-linecap="round" stroke-linejoin="round" d="M339.92 227.06s3.97-3.1 11.54 0M334.59 220.41h21.76M302.97 227.6H282.2"/><path fill="#263238" d="M361.68 180.45s11.5 36.94 28.97 46.48c-.39-12.66-.84-24.56-.99-32.27-.45-21.31-31.08-40.4-62.14-35.52-31.05 4.88-47.06 23.08-45.29 39.96 0 0-.15 11.6-.13 26.31 14.99-6.46 54.46-24.47 79.58-44.96Z"/><path stroke="#737373" stroke-linecap="round" stroke-linejoin="round" d="M279.12 215.71s58.24-24.42 89.71-55.42M274.42 195.98s61.06-14.09 96.29-51.2M373.05 164.51s.94 23.95 26.31 46.03"/><path fill="#263238" d="M366.44 313.56s0 16.1-12.07 41.76c-12.07 25.66-12.58 51.32-4.53 70.44 8.05 19.12 29.69 26.68 52.88 18.12 23.18-8.55 26.16-46.8 23.65-69.94-2.51-23.15-25.12-50.32-30.2-63.91-5.07-13.59-8.55-20.62-8.55-20.62s-13.09 18.11-21.15 22.13l-.03 2.02Z"/><path stroke="#737373" stroke-linecap="round" stroke-linejoin="round" d="M374.93 295.56a126.41 126.41 0 0 1-8.45 64.77c-14.09 33.82-3.29 69.99 13.15 77.5 16.45 7.51 32.41 4.7 40.39-5.63"/><path stroke="#737373" stroke-linecap="round" stroke-linejoin="round" d="M381.04 288.05s15.97 37.57 9.39 65.75c-6.57 28.19-3.75 63.95 15.97 70.93 19.73 6.98 31.01-6.98 31.01-6.98"/><path stroke="#737373" stroke-linecap="round" stroke-linejoin="round" d="M400.3 312.46s13.61 51.67 13.61 78.44c0 26.77 16.45 22.55 20.68 9.4"/><path stroke="#263238" stroke-linejoin="round" d="M354.37 355.32c-12.07 25.66-12.58 51.32-4.53 70.44 8.05 19.12 29.69 26.68 52.88 18.12 23.18-8.55 26.16-46.8 23.65-69.94-2.51-23.15-25.12-50.32-30.2-63.91-5.07-13.59-8.55-20.62-8.55-20.62s-13.09 18.11-21.15 22.13l-.03 2.02s0 16.1-12.07 41.76Z"/><path fill="#263238" d="m428.54 455.99-85.84-3.46c-3.78-.16-6.98 2.79-7.13 6.58l-4.78 118.51c-.15 3.78 2.79 6.98 6.58 7.13l85.83 3.46c3.79.16 6.98-2.79 7.13-6.57l4.79-118.52c.15-3.78-2.8-6.98-6.58-7.13Z"/><path stroke="#263238" stroke-linejoin="round" d="M428.54 455.99c3.78.15 6.73 3.35 6.58 7.13l-4.79 118.52a6.847 6.847 0 0 1-7.13 6.57l-85.83-3.46c-3.79-.15-6.73-3.35-6.58-7.13l4.78-118.51c.15-3.79 3.35-6.74 7.13-6.58l85.84 3.46Z"/><path fill="#FFF" d="M472.27 503.93s-43.95-13.67-51.44-15.97c-7.5-2.3-50.67 29.94-52.39 34.54-1.72 4.6 4.6 4.62 4.6 4.62s-2.65 4.6 1.32 6.9c1.25.84 2.58 1.56 3.97 2.15 0 0-2.3 5.18 2.3 6.92 4.6 1.73 10.94-2.89 10.94-2.89l10.37-7.48s-12.46 15.24-9.8 18.43c3.66 4.36 6-.32 6-.32l14.32-16.96 14.38-6.91s11.52 6.91 29.95 7.48c18.43.57 22.47-7.48 22.47-7.48m-6.87-23.5.03-.01c.26.08.41.36.32.63-.08.26-.35.41-.62.33l-.01-.03.28-.92Zm6.43 23.3-.01-.03c.13-.25.42-.34.68-.22a.5.5 0 0 1 .22.67l-.03.01-.86-.43Z"/><path stroke="#263238" stroke-linecap="round" stroke-linejoin="round" d="M472.27 503.93s-43.95-13.67-51.44-15.97c-7.5-2.3-50.67 29.94-52.39 34.54-1.72 4.6 4.6 4.62 4.6 4.62s-2.65 4.6 1.32 6.9c1.25.84 2.58 1.56 3.97 2.15 0 0-2.3 5.18 2.3 6.92 4.6 1.73 10.94-2.89 10.94-2.89l10.37-7.48s-12.46 15.24-9.8 18.43c3.66 4.36 6-.32 6-.32l14.32-16.96 14.38-6.91s11.52 6.91 29.95 7.48c18.43.57 22.47-7.48 22.47-7.48"/><path stroke="#263238" stroke-linecap="round" stroke-linejoin="round" d="M378.42 536.17s16.14-11.08 20.16-15.08c4.02-4.01 17.04-12.38 21.06-12.38M402.03 532.76s7.93-8.96 10.92-10.3c2.99-1.33 7.35-3.34 7.35-3.34M373.04 527.12s22.47-15.87 30.17-20.53c4.6-2.81 9.4-5.27 14.37-7.37"/></g></svg>