<svg xmlns="http://www.w3.org/2000/svg" width="299" height="299" fill="none"><defs><clipPath id="a"><path fill="#fff" fill-opacity="0" d="M0 0h299v299H0z"/></clipPath></defs><path fill="none" d="M0 0h299v299H0z"/><g clip-path="url(#a)"><path stroke="gray" d="M148.19 110.39c-.6-.05-.82 1.66-.16 1.56.3-.04.33-1.54.16-1.56ZM88.19 133.19c0-.64-3.25-1.49-3.65-1.19.03.43.21.83.51 1.15 0 .31-1.37-.04-1.49.3.09.16.25.28.43.33.19.05.38.03.55-.07.49-.18 3.65.49 3.65-.52Z"/><path stroke="gray" d="M109.18 151.66c-1.29-.18-1.37-.32-2.51.15 1.27-.52-2.04-2.05-2.06-2.06-.56-.15-1.13 1.36-1.63 1.14.1.05.6-1.19.09-1.66-.51-.46-1.41.66-1.46.63.09.05 1.42-3.34-.21-4.22-1.56-1.03-2.85-.84-4.27-1.55-1.33-.67-1.45-2.31-3.32-2.2.76-.04-1.47-1.99-.85-1.74-.99-.4-2.91.44-4.19.15-.5-.1-.83-1.41-1.57-1.41-1.12 0-.82 2.02-1 2.39-.52 1.15-.73-2.99-.2-2.65-.38-.24-2.99 1.58-3.28 1.79-.6.45-.83 1.31-1.44 1.49 1.03-.31-3.29-.79-2.39-.45-2.73-1.04-1.48-1.39-2.23-3.8-.21-.68.5-1-.08-1.63-.58-.62-2.88-.71-3.59-.26-.5.28.07-1.89.29-2.12.89-.9 1.2-2.99-.2-3.03-2.29-.06-1.16 1.96-2.59 2.67-4.28 2.13-4.47-3.89-4.33-6.42.23-4.46 3.44-3.25 6.12-2.94-.7-.08-.11-1.15.71-1.19.76.02 1.5.19 2.2.48 1.35.4 1.01 0 2.02 1.7.39.69.55 2.4 1.43 2.68.08 0-.04-6.23.46-6.98.64-.95 2.17-2.12 2.66-2.74 1.11-1.42.04.18.18-1.47 0-.17-.44-2.51.31-2.51-.29 0 .26 2.2.23 2.22.75-.53.26-1.29.3-1.88 0-.47 2.44-1.28 2.63-1.71.09-.18-1.16 0-1.16-.04 0-.63 1.96-.52 2.25-.72.11-.81.39-1.59.83-2.29.88-.91 3.09-.71 3.77-2.11-.08.18.29.87.77.73-1.75.51-2.58 1.44-.49 1.13 1.07-.17 2.68-1.2 3.48-1.8.04-.03-.37-.55-.31-.91-.04.23-1.32 1.24-1.61 1.2-2.04-.37-1.07-1.73-1.86-2.26-.21.1-.44.14-.67.12-.22-.73 2.45-1.28-.12-1.61-1.79-.23-2.66 2.35-3.88 2.35.6 0 3.3-3.28 4.57-3.59.51-.17 7.68-.69 7.09-2.27-.17-.1-.34-.18-.51-.26-.5-.46 1.3-.91-.7-1.15-.04-.21-.06-.44-.05-.66-.19-.13-2.2.7-2.2.69-.15-.73 1.86-.81 2.09-1.19 0 .03-4.31-2.07-3.93-2.58.8-1.03.79.12.28-1.48-.14-.43-2.06-3.12-1.93-3.25-.93.84-.4 2.76-2.03 2.77-1.79 0-1.62-2.06-1.62-3.24 0-.52-4.46-1.84-4.78-1.83-2.52.06-1.49.23-1.64 2.22-.03.34-.4 1.76-.37 1.96.3 1.55 1.58 2.05.8 4.03-.24.6-1.67.78-1.8 1.13-.13.47.56.95.45 1.51-.04.23.24 2.36.09 2.3-.95-.45-.53.43-1.59-.52-1.2-1.07-.37-2.62-1.07-3.43-.27-.33-3.75-1.64-4.52-2a4.832 4.832 0 0 0-3.35-.52c.31-.05-.29-1.8-.42-1.99-.75-1.28-1.56.14-1.11-2.4.11-.63 2.95-3.67 2.99-3.58 0-.13-2.32-1-2.3-1.04.32-.77 2.29 1.38 2.83-.24-.25.74 3.11-.73 2.28-1.34-.36-.25-2.33 0-2.21-.92-.08.59 4.23.83 2.52-.69-.06-.06 1.56 0 1.89 0 .23 0-.6-.79-.54-.87.24-.24 1.1 1.2 2.23-.06.88-.97-.45-1.08-.5-2.02 0-.11 1.34-.47.89-1.15-.34-.51-2.13-1.13-2.72-.94-.41.13.15 2.14-.97 2.8-.15-.15-.26-.33-.33-.52-.47.03.42 1.74-.18 1.46-.61-.28-.66-1.5-.75-1.58-.24-.21-.56-.98-.96-1.34-.4-.36-.79 1.33-.94 1.36-.6.11.08-1.47.12-1.54.27-.51-1.45-.34-1.42-.31-.55-.48.37-.75.47-.9-.12.2-1.33-1.96-1.33-1.95-.79-1.79-.26 0-.46-2.04.1.95 3.7-1.58 2.45-2-1.25-.41-3.09-.55-3.37.46-.16.6-.07 2.87-.3 3.79-.08.29-1.06.76-.72 1.93.14.45 2.76 1.05 1.53 2.05.01-.13.07-.25.16-.33.1-.09.22-.13.35-.12.03.07-1.34 2.59-1.2 2.48-.56-.5-1.09-1.04-1.58-1.61-.07-.13 1.75-.41 1.85-.5.7-.69-1.03-.68-1.03-.78 0-.2.93-.08.59-.33-.22-.17-.48-.29-.75-.36-.27-.06-.55-.08-.83-.03-.27.05-.54.15-.77.3-.24.15-.44.35-.6.58-.32.43 2.57 1.53-.9 1.98-1.59.2-2.24-.6-3.59-.91-.4-.1-.39-.52-1.11-.6-.25 0-1.97.73-1.45.97.39.16 1.8-.8 2.03-.56-.93-1.02-1.11 2.88-1.71 2.57-.27-.15-.1-1.09-.92-1.36-1.12-.37-3.67.79-4.51-.13-.41-.45 1.07-.55.96-.82-.41-.95-2.76-1.02-3.59-1.22-.83-.21-1.47-.68-2.22-.76-.92-.1-1.27.55-2.12.55-.12 0 .18-1.13-.22-1.19-.27.45-.62.86-1.03 1.19-.81-.06-.7-2.05-1.67-1.9.66-.1-1.38 1.44-1.24 1.37-.87.55-1.77 1.05-2.69 1.5-.51-.03 2.87-2.1 2.86-2.02.04-.41-2.92.84-3.25 1.02-.33.18 0-.52-.6-.32-1.41.51-.4.95-.74 1.32.13-.15-8.73-2.09-9.31-2.14-.87-.07-6.26-.68-6.58-1.05-.6-.65-2.14.04-2.84.81-.57.6-4.79 1.55-4.97 2.47-.43 1.92 4.05 2.28 4.39 3.32 0 .09-5.04-.19-5.6 1.14.19-.46 1.41 1.45 1.54 1.5.6.21 3.66-.44 3.67-.43.86.86-1.01 2.02-1.47 2.45-.56.51-.6-.32-1.27.56-.39.37-.82.71-1.26 1.02.14-.13 1.02 1.82 1.05 1.85.53.46 2.16.46 1.97.27.51.51-.05 1.59.43 1.84.32.17 1.44.03 2.06.29-.55-.23 1.69-.98 1.56-.6-.31.92-3.99 5.38-4.52 4.78.64.71 7.27-3.77 7.27-4.82-.17-.15-.38-.27-.59-.34-.15-.38 3.58-3.49 3.45-2.28 0-.12-2.23 1.71-1.71 2.18.15.14 2.62-.72 2.99-.86.36-.15-.9-1.26 0-1.43.3-.05 1.48.64 1.53.6-.06-.01-.12-.02-.18-.01a.442.442 0 0 0-.29.18c-.03.05-.05.1-.06.16.11.36 5.27.13 5.6.42-.16-.14 3.31 2.86 3.27 2.02-.14-.3-.18-.63-.1-.96 1.65 1.2-.77 1.54-.77 1.46 0 .09 1.26 1.86 1.2 1.88.23-.13-.33-1.61.05-1.47.09.19.12.39.1.6.42.54.49-1.2.44-1.08.09-.23.13 2.29-.13 2.25-.38-.05 2.19-.22 1.43.15.24-.12-.94-.82-.28-.87 1-.09.21.85-.46.91 0 .49.04.98.12 1.46.2.15 1.13-.72 1.59-.63.47.08.38 1.79.64 2.15.19.26 1.48 1.55 1.65 1.79.8.85 1.72 1.58 2.71 2.19-.09-.07 3.4 2.87 1.48 2.87-.07 0-2.08-5.41-4.31-3.84.46-.32 2.99 3.3 3.16 3.77.93 2.68-.6 5.8.44 8.72.71 2 2.59 3.27 3.86 4.65.78.94 1.45 1.96 2.02 3.05.89 1.5 1.08 1.89.9 2.75 0 .04 4.02 4.24 3.87 4.36.38-.28-3.99-8.16-3.86-8.18 1.58-.16 1.72 2.31 2.01 2.76.81 1.25 2.28 2.4 3.16 3.56 1.52 1.94 1.72 3.98 3.07 5.38.9.93 2.99 1.73 4.19 2.11 1.58.5 3.24.03 4.52 1.27.6.56 1.5.6 1.91.99 1.11 1.03 1.57.51 2.62 1.59.71.72.91 1.39 1.32 1.79.67.66 1.79 1.91 2.8 1.98 1.01.08.69-1.11 1.2-.99 2.24.53 1.84 3.55.93 5.38-.98 2.01-2.24 2.35-1.13 4.37.08.15-1.1 2.05-.98 2.64.21 1.13 2.73 4.46 3.31 5.62 1.13 2.22 2.56 2.44 4.15 4.25 1.45 1.65.99 2.99.74 5.24-.36 3.29-.46 6.53-1.16 9.73-.28 1.27-2.69 7.9-1.79 9.18.41.59.6-1.67.98-1.8.38-.12-.25 4.95-.65 4.67-.21-.15.24-1.65-.31-1.4.5-.22-1.03 2.11-1.04 2.13.06-.66.79.8.82 1.04.04.4.88-.27.84.32.06-.89-2.51 1.02-1.3.83.2-.12.39-.26.55-.42.18-.04-1.27 1.51-.3 1.66.19.03.3-.99.56-.72.57.57-1.08 1.8-.69 2.26.08.1.89-.36 1.04-.04.05.1-.54.56-.45.6.33.12 1.06-.32 1.2.15.14.46-1.44.03-.9.8.21.29 1.48-.93 1.72-.13-.06-.23-1.43.71-1.48.77.56-.16 1.12-.29 1.69-.38.12.26-1.87 1.03-1.93.8.06.26 1.2.97 1.39.79.31-.31-.41-.16-.16-.49.18-.24 1.71-1.09 1.8-1.32-.14.08-.25.2-.32.34-.08.14-.11.29-.11.45.23.04.46.05.7.04-.19-.22-.46 1-.39.96a.788.788 0 0 1-.23-.31 1.18 1.18 0 0 1-.09-.37c-.34-.15-.17.71-.21.68a.532.532 0 0 0-.22-.27.448.448 0 0 0-.34-.04c.28-.4-.35 1.19-.35.65 0-.31.97.89.95.87.13-.2.22-.42.27-.65.51.4 1.05.77 1.61 1.11.29.09-.22-.7-.05-.67.79-.07 1.57-.23 2.32-.48-1.07-.4-2.39-2.31-2.59-2.39-.16-.05-.77.09-.68-.33.09-.41.66.15.81 0 .15-.14-.68-1.41-.5-1.79.27-.6.74-.77 1.04-1.32.41-.74 1.42-1.31 1.48-2.14.05-.65-.94-.66-.9-.85.19-.71.65-2.47 1.39-3.4.28-.36 1.24-1.3 1.23-1.31-.23-.2-2.06-.03-1.1-1.49-.3.46 2.19-.39 2.06-.32.34-.2-.05-1.35.13-1.53.85-.9 3.97.41 4.33-2 .07-.54-1.39-2.4-1.42-2.36.49-.52 2.81.6 4.08-.75.32-.34 1.9-3.14 1.9-3.06-.16.41-.36.8-.6 1.17 0-.56 1.86-2.1 2.1-2.74.35-.92-.07-2.13.41-2.99.96-1.69 3.12-1.37 4.31-2.12 1.54-.97 1.98-2.39 2.46-4.19.29-1.11 0-3.94.59-4.83-.08.18 6-6.51 2.2-6.29-1.33.07-2.61-1.64-4.06-1.84Zm-43.02-24.79Z"/><path stroke="gray" d="M75.9 130.37c-.6-.87 3.96.29 4.18.41.75.43 2.55 2.57 3.63 1.12.88-1.2-9.05-3.34-7.81-1.53ZM82.1 133.83c.13-.3-1.72-.62-1.55-.3.13.26 1.42.6 1.55.3ZM90.5 133.6c.13-.37-1.56-.51-1.25 0 .29.52 1.19.21 1.25 0ZM94.96 196.66c-.37-.07-1.26.75-.88.96.41.22 1.25-.89.88-.96ZM96.33 197.07c-.25-.56-1.5.48-1.25.63.27.14 1.38-.36 1.25-.63ZM71.07 149.93c.13-.24-.14-1.41-.48-.85-.34.55.34 1.1.48.85ZM98.69 77.56c-.3.09 2.19 2.23 2.29.59.07-1.34-1.98-.68-2.29-.59Z"/><path stroke="gray" d="M120.68 76.97c.08-.2 1.1-1.37.97-1.42.66.25 2.57 2.52 2.66.42.07-1.22-1.73-1.22-1.99-2.24-.08-.28 2.33.78 1.85-.72-.27-.85-2.64.6-2.54-.31-.04.32.82-1.11.67-.95.75-.83 4.18 2.03 1.97-.84-.09-.12 1.99-.08 2.09-.51.1-.42-2.07-.36-1.58-1.19.6-1.02 2.17.46 1.19-1.62.04.07-2.5-.8-2.11-1.2.39-.4 3.37 0 3.26-.46-.29-1.09-1.77.06-1.89-.87-.06-.49.9 0 1.04-.25.54-.85-2.33-.17-2.23-.09-.77-.6 3.18-4.29 3.3-4.13-.72-.97-1.39.65-1.9.14-.52-.51 2.86-.93 2.95-.99.29-.18-1.79-.6-1.89-.47.36-.59 5.23-.54 5.23-1.88 0-1.8-4.62-.08-5.13.09-.41.13-1-.4-1.28-.29-.92.35-1.79 1.86-2.77 2 .97-.14 2.08-2.5.49-2.78-.25-.04-2.94 1.94-3.11 1.35-.13-.48 1.62-.7 1.58-1.09-.09-.84-5.72.47-5.73.34-.08-1.14 7.85-.68 8.64-1.75.44-.6-10.08-2.3-11.03-2.05-.24.05-1.67.56-1.83.59-.33-.04-.66-.06-1-.05-1.79.2-3.53.08-5.32.42-.22.05.78.72.77.78-.01.06-1.57.16-1.35.44-.05-.06 2.2 1.59 2.04 1.63-1.26.27-3.59-2.61-4.84-1.68-.31.23.92.99.92 1.16 0 .69-2.53-.79-2.46-.79-.18 0-.11 1.51-.47 1.74 1.09-.68-1.35-1.64-1.74-1.68-.41-.03-.82.06-1.18.27-.36.2-.65.52-.83.89-.57.2-1.41-.49-2.14-.19-.53.21.46 1.1-.26 1.5-.2.11-5.32.23-4.63 1.79.51 1.2 3.27-.05.82 1.95-.67.55-2.61.33-3.45.9-3.92 2.67 3.63.91 3.55 2.39 0 .17-4 .18-3.93.55.11.54 2.8 1.79 3.52 1.86 1.45.13 2.85-.95 4.79 0 1.69.82 3.41 2.5 3.92 4.39.6 2.22-.82 2.5 1.51 2.5.58.78 1.25 1.5 1.99 2.14-.09.06-2.6-1-2.6-.36 0 1.5 3.51.4 2.57 3.07-.14.4-1.25-.17-1.58.64-.25.54-.39 1.12-.39 1.71-.06 1.08 1.56 4.79 2.75 6.44.96 1.31 1.52 1.51 2.88 2.12 2.11.95 1.62 1.07 2.82-.7.46-.69-.25-1.36-.07-1.9.1-.28 1.01-.28 1.15-.88.17-.78.07-2.06.17-2.39.25-.03.51 0 .75.1.1-.06 1.42-1.83 1.57-1.83.1.09.17.21.19.34.02.13-.01.26-.08.37.25.81 3.27-1.88 3.33-1.93 1.16-.84.99-.89 2.02-1.35 2.28-.97 4.84-1.83 6.7-2.92-.25.15-3.27-.32-3.29-.27ZM48.02 67.47c.14.25.32.48.54.67.78 0 1.1-1.69 1.59-1.8.49-.1.15 1.5 1.28.4.43-.41.33-.79.75-1.25.12-.13-2.39-.04-2.72.07-.96.33-2.63 2.45-2.59 2.43.65-.36.65 0 1.15-.52ZM52.44 67.96c-.46.01-.92.14-1.31.39-.2.28 1.13.18.99.23-.49.02-.97.19-1.36.48.72 1.06 1.95.06 2.53-.3-.3.18 1.76.69 1.89.48-.19.3-2.13.57-2.1.88.11 1 3.86-.33 4.42-.6 1.86-.81 2.39-.16 1.53-1.8.08.14-2.01-1.31-2.34-1.13-.97.5.6 1.51.37 1.86-.56.91-2.44-1.03-2.88-1.14-1.14-.24-1.36-.06-2.3.01-1.13.09.59.82.56.64ZM66.64 72.43a.7.7 0 0 0-.22.38c-.03.14-.01.3.06.43.1-.21-1.12-.6-1.1-.6-.26-.41 1.74-.79.44-1.67-.96-.66-.85.56-.83.56.17-.09-2.88-.36-1.91.52.33.09.66.15 1 .19 1.14 1-2 .46-1.68.4-.91.19 1.86 2.45 2.14 2.66 1.37 1.02 2.99-2.82 2.1-2.87ZM46.43 75.94c.82 0 1.69-1.19 2.1-1.51 1.06-.79 2.58-1.57 3.65-2.46.4-.33-4.91-1.85-5.6-1.64-2.23.7-.29.22-1.01 1.45-.23.38-1.43 2.35-1.28 2.53.33.18.69.29 1.06.32.38.42.74.86 1.08 1.31ZM50.6 67.69c0-.34-1.5.82-1.19.85.59.08 1.19-.52 1.19-.85ZM85.57 75.89a.51.51 0 0 0 .21-.15.596.596 0 0 0 .18-.47c.15.49-2.55-.92-2.8-1-.59-.21-.22-.76-1.19-.98-.67-.15-1.68.84-1.65.85-.9-.32-.52.06-1.54.06-.75 0 .51-4.1-2.73-2.13-1.96 1.19-.34 1.79-.25 3.06 0 .21-1.46-.44-1.4-1.39.05-.86 1.13-1.63 1.13-2.18 0-1-3.54 1.2-3.71 2-.23 1.05 1.29 3.16 1.91 2.33-.16.21-1.66-.19-1.62.2.22 2.16 8 .81 8.17 1.25a.72.72 0 0 1-.26-.26.847.847 0 0 1-.14-.34c.11-.36 2.74 1.63 2.76 1.8-.3.17-.56.41-.75.7.5.42 1.06-.42 1.9.44.94.99.92.78 1.15 2.27.05.31 2.86-.6 2.35.7-.51 1.3-1.26-.33-1.63-.21-.37.11-1.33.15-1.84.31.03.33.14.65.31.94-.8.39-2.09.04-2.7.6-2.24 1.92 2.39.75 3.03.96.64.2 4.52 4.94 5.52 3.58.25-.34-1.7-2.46-2.07-2.39 1.49-.43 3.66 2.02 2.88-.46-.34-1.1-2.99-1.96-1.83-3.34.48-.6 2.48 1.87 2.82 1.86 0 0 1.96-2.06 1.96-2.05 0-1.37-5.42-2.11-5.25-3.45.33-.15.69-.23 1.05-.25a1.72 1.72 0 0 0-.88-.49c-.09-.82.87-.78-.51-.78 1 0-1.38-1.08-1.47-1.11-.28-.09-1.36-.43-1.36-.43.08 0 .17-.02.25-.05ZM39.95 100.44c.11-.08-.24-2.37-1.16-1.83-.63.36.78 2.09 1.16 1.83ZM60.54 68.88c-.2.52.45.71.71.41.24-.3-.5-.93-.71-.41ZM79.63 88.25c-.61.03-.47.98-.1.93.24-.04.71-.97.1-.93Z"/><path stroke="gray" d="M81.72 80.12c.4.32-1.03 1.56 1.19 1.16 1.85-.35-1.79-1.68-1.19-1.16ZM77.82 87.43c-.06-.29-1.92.47-1.28.93.54.37 1.35-.63 1.28-.93ZM78.99 70.06c3.59-2.59-7.58-1.29-7.43-2.13.17-.23.38-.43.6-.6.28-.36-6.07-1.64-5.58-.89 1.33 2.03 2.58.11 3.47 2.92.31.96 8.04 1.35 8.94.7ZM63.35 77.64c0-.37-2.57-2.2-2.8-2.79-.13-.79-.19-1.59-.18-2.39.31-.27.28-.6-.1-.87-.25-.09-.53-.1-.8-.03-.26.06-.5.2-.69.4.36.26.68.56.95.9 0-.18-1.69-.79-1.86-.45-.24.48.77 2.21.45 2.39-.06 0-2.29-2.5-2.39-1.93.23.2.43.44.59.7 0 .09-1.23.04-1.16.21-.89-2.35-1.63.47-2.44-.29-.08-.08 1.39-1.2-.34-1.2-.67 0-2.4.97-2.62 1.53-1 2.39 1.25.63 2.2 1.36.05.04-2 .57-2 .85 0 1.26 4.84-.12 4.84.93 0 .26-4.36 0-4.19.71.45 1.95 5.98 1.56 7.11 1.4.58-.14 1.19-.22 1.79-.24.38 0 3.48 1.06 3.1-.2-.29-.98-1.01.3-1.25-.37.2-.23.44-.43.71-.58.18-.24 1.05.47 1.08-.04ZM93.47 103.99c.07-.42-2.15-1.04-2.1-.78.07.29 2.04 1.2 2.1.78ZM71.01 65.61c.57.22 1.38-.3.74-.63-.59-.34-1.37.37-.74.63ZM65.52 62.71c-.27.42.51 1.79.98 1.79 3.98 0-.72-2.22-.98-1.79ZM69.89 61.79c.09.25-1.43.59-1.35.7 1 1.1 2.56 1.8 3.96 1.41.1 0 2.93-2.54 2.84-2.11-.11.59-2.09-2-2.19-2.08-.11-.09-4.3-2.29-4.71-1.98.03.12.1.22.19.3.09.07.2.12.31.14 0 .23-1.03.05-1.12.24.19.15.38.3.55.46-.2.4-1.38-.19-1.34.6.25.3.57.54.93.7.02.42-2.25 0-1.06.65.04 0 3.14 1.46 2.99.97ZM82.14 72.74c0-.68-3.21-1.69-3.45-1.12-.86 2.02 3.45 1.56 3.45 1.12ZM67.01 65.13c.67.56 2.3-.22 2.23-.44-.07-.23-2.63.11-2.23.44ZM52.62 64.42c.24.34.85.67 1.01.22.18-.44-1.11-.37-1.01-.22ZM66.56 69.51c.88.74 3.93.82 1.94-.82-.55-.45-2.16.63-1.94.82ZM59.52 64.72c-.06.56.87 1.4 1.16 1 .27-.37-1.09-1.55-1.16-1ZM63.87 67.57c-.37-.3-.81-.51-1.28-.6-.29.23.42.94.18 1.05-.36.18-1.25-1.53-1.75-1.56-1.08-.06.38 1.53.43 1.56.9.54 1.61.12 2.51.37-.12-.04 1 2.86 2.06.3.77-1.9-1.44-1.95-2.36-2.32-.81-.34.34 1.2.21 1.2ZM54.05 64.79c-.01 1.94 2.4-.33 2.4-.33.59-.1-2.4-.81-2.4.33ZM56.99 63.46c0-1.44-3.19.16-3.12.22.3.07.61.09.92.07.27.13 2.2.11 2.2-.29ZM64.06 60.45c.24.22.78.86 1.02.41.23-.44-1.43-.8-1.02-.41ZM61.46 63.13c-.07.16-1.26.11-1.2.22.06.1 6.51 2.65 3.22-.6-.44-.41-.98-.7-1.56-.84-2.91-.36-1.24.52-1.48.7.55-.18.89 0 1.02.52ZM75.5 83.65c-.32.04-1.89 2.15-1.69 2.82.21.67 5.21-.33 5.18-.15.07-.39-3.31-2.69-3.49-2.67Z"/><path stroke="gray" d="M71.22 57.53c.24.01.49.05.72.11-1.35 1.59 2.52 1.33 2.51 1.03.17 2.46 4.93-.82 5.51-.42 1.1.79-2.9 1.56-2.8 1.69 0 0 1.29 1.09 1.12 1.09-.76.06-4.73-2.76-4.06-.25.16.6 3.28 1.8 3.28 2.35 0 0-3.93-1.2-4.03.52-.06 1.06 2.17-.2 2.19-.13-.34-.77.35 2.39.35 1.79 0 .72-3.05-1.86-2.92-.44.28.26.58.49.89.7 0 .24-2.61.46-2 1.08.71.72 8.67.94 9.07 0 .4-.95-2.99-.71-3.14-.96.47.74 2.99-1.34 3.18-1.44 1.27-.7 1.8.33 2.47-1.65.2-.6-2.2-.6-2.17-.6 1.39-.99 3.23-.6 4.49-1.19.78-.39 5.34-2.75 5.39-3.1.04-.34-2.14-.09-2.27-.14 1.05.46 4.78-2.02 4.84-2.01-.3-.09-4.62-1.57-4.7-.45.18-.26.42-.47.7-.6-.85.33-5.1.11-5.67.14-1.95.1-3.84-.26-5.55.21-.35.1-8.33 2.72-8.47 2.39.13.08.29.11.44.09.15-.02.3-.09.41-.19 1.2-.86.21.36.22.38ZM96.44 103.53c-.08.18-1.57 1.68-.97 2.04 1.37.8 2.63-1.2 2.78.59-.05-.59 1.98.23 2.07.05-.03.08-.6-1.55-.33-1.43.37.16-2.7-1.95-2.65-1.6.11-.56.36-1.09.73-1.52a4.17 4.17 0 0 0-1.63 1.87ZM12.79 98.63c-.2-.22-.72.79-.41.63.41-.18.6-.41.41-.63ZM14.24 98.16c-.2-.03 1.47-.37 1.02-.56-.48-.18-.96.57-1.02.56ZM23.48 94.68c.25-.25.61-2.26-.23-1.2-.78.98-1.42 2.86.23 1.2ZM12.38 91.31c.13.15.29.27.48.33s.39.07.58.02c1.15-.42-.39-.67-.38-.61-.32-.19-.55-.1-.68.26ZM142.85 113.96c.34.25.73.17.67-.25-.06-.42-.84.13-.67.25ZM158.56 117.92c-.28-.03 2.21.71 2.14 0 0-.28-2.19 0-2.14 0ZM166.99 117.51c-.6.13-1.19.33-1.74.6-.3.58 1.24.51 1.18.12.17-.25.35-.49.56-.72ZM128.29 82.54c-.26.15-1.95 1.09-2.26 1a.497.497 0 0 0-.2-.29.592.592 0 0 0-.33-.13c-1.5 1.8.05-.51-2.02-.51-.43 0 .22.6.11.6-.42-.05-1.05-.18-1.16.59-.04.35 1.73.27 1.66.2-.06-.06-.17.64-.11.6-.05.03-1.42.06-1.3.31.04.08 1.25.12 1.46.37.38.44-.41.99-.5.9 1.45 1.6 4.11-.44 5.65-.53 2.4-.13.15-3.78-1-3.11ZM136.14 98.3c-.07-.53 1-.6-.2-1.26-.54.02-1.08.13-1.58.33-.04 1.08.08.13-1.07.76-.04.03-.01 3.16.48 3.16 2.01 0 2.56-1.45 2.37-2.99ZM140.05 90.32c-.29.09-.2 1.01-.12.92.19-.21.42-1.01.12-.92ZM135.57 93.93c.22-.01.65-.58.5-.74-.15-.16-.73.74-.5.74Z"/><path stroke="gray" d="M135.93 96.38c0-.56.96.28.86.29.21-.16.36-.39.43-.65.34.06-.22 1.34-.21 1.43.06.5 1.29-.32 1.36-.19.81 1.41-.64 1.99-.6 2.92-.21.04-.4.15-.55.31-.15.15-.25.35-.28.57.62.15 1.24.24 1.88.27.04.23-2.66.79-2 1.67 0 0 4.86-1.06 5.15-1.36.28-.29-.5-.1-.48-.31.14-.98.9-.52.48-1.59-.37-.17-.69-.43-.95-.74-.54-.92-1.08-2.9-2.39-2.8 0 0 .85-1.42.76-1.64-.37-.94-1.07.13-1.6-.5-.18-.21 1.08-1.05.71-1.4-.25-.29-2.56 1.59-2.62 1.64.74-.65.05 2.48.05 2.08ZM150.65 96.13c-.84-.57-1.02 1.21-.93 1.23-.15-.04 1.91-.56.93-1.23ZM154.67 94.97c.07.15.94-1.12.52-1.09-.43 0-.6.93-.52 1.09ZM158.37 93.04c.55-.61-1.64.61-.79.57.3-.13.57-.33.79-.57ZM157.74 92.58c.03.04.07.06.12.07.04.02.09.02.13.01.05 0 .09-.02.13-.04.04-.03.08-.06.1-.1.09-.19-.65-.1-.48.06ZM157.59 60.73c-.03 0-1.6.6-1.59.6.39 1.01 5.98.49 5.6-1.06-.04-.18-3.64-.69-3.5-.74-.11.1-.18.24-.21.39-.02.14.01.29.08.43-.3.22-1.75-.97-2.07-.93-.2.19-.37.42-.49.67l-.6-.45c-.64-.01 0 .6.1.68.64.55 1.89-.08 2.68.41ZM151.09 63.76c.53.3.96-.99 1.34-1.14.38-.15-.16.71.21.69.25-.16.53-.28.81-.35.33.51-2.39 1.51-2.02 1.6.68.17 1.42-.27 2.14-.1-.72.15-1.43.38-2.1.67-.07.67 1.19.64 1.5.76-.03.08-.08.15-.14.2-.06.06-.14.1-.23.12-.17.23.96.34 1.13.23.44-.57.84-1.17 1.2-1.79.14-.17 1.23-2.78 1.9-1.71-.18-.29.28 2.27.03 2.23.29.05 2.87.49 2.77-.71.05.6-2.67-1.99-2.63-1.96-.84-.69-2.11-.8-2.72-.95.36.08-.56-1.14-1-1.28-.63-.21.15 2.25.19 2.05.6-2.53-1.76-.54-1.75-.55-.21-.22-.45-.42-.7-.59.2-.12.41-.21.64-.27-.2.08-4.37.24-1.44.92-1.15-.27.6 1.79.87 1.93ZM150.06 63.74c-.25 0-.52-1.3-1.01-1.15-.03.16 0 .33.09.46.09.14.23.24.38.28.17.15.35.29.54.41ZM284.44 87.16c.15.18 2.35.7 2.35.2-.39-.33-.89-.52-1.4-.52-.35-.02-.68.09-.95.32ZM247.21 112.16c-.15.08.71-.48.69-.36-.15-.21-.3-.42-.45-.59 0 .17 4.86.13 4.62-1.98.13 1.14-4.07-.76-3.59-1.09.05-.04-.32 1.89-.32 2.01-.11-.76-1.79 2.47-.95 2.01ZM239.76 120.47c0 .08-.33 1.83.24 1.7.46-.1 1.29-1.76.59-2.06-.2-.07-2.04-.77-1.43.45.24.49.47-.67.6-.09ZM243.04 119.35c0-.6-1.2 0-1.26.11-.19.36-.1 1.62.06.91.17-.74 1.2.13 1.2-1.02Z"/><path stroke="gray" d="M240.08 119.34c.04.17 3.13-.29 3.35-.34-.69.16.67.49.83.48.53-.05.13-.77.22-.83.6-.36 2.39.32 2.99-.51.48-.65 1.57-5.13.73-5.62-1.06-.6-1.59 2.8-2.09 3.49-.4.55-2.48.7-2.6 1.86 0 0-3.72.16-3.43 1.47ZM224.72 132.24c-.09-.34-2.01-.08-1.62.65.04.09 1.14 1.59 1.21.34.16-.32.29-.65.41-.99ZM233.18 127.64c-.98-1.43-1.76 3.24-.95 2.6.37-.28 1.24-2.17.95-2.6ZM235.42 140.75c1.85-2.12-2.12-2.99-2.53-3.96-.41-.96 1.43-2.35 0-3.18-.96-.57-1.34 1.72-1.36 1.8-.52 1.72 5.04 4.02 3.89 5.34ZM229.59 142.19c-.09-.19 1.96-1.48 1.58-2.3-.16.09-.3.23-.41.38-.1.16-.17.34-.2.53-.4.4-.73.87-.97 1.39ZM232.68 138.82c.5-.17-.77-1.13-.72-.89.07.35.23 1.06.72.89ZM234.58 141.3c.06.18.74-.18.56-.4-.18-.24-.63.21-.56.4ZM233.16 143.4c.55-.05.78-.83 1.35-.43.57.4.22 1.69 1.31 1.69-.82 0 .86-1.74.79-1.43.08-.35.05-.73-.07-1.06a1.89 1.89 0 0 0-.65-.85s-3.29 2.14-2.73 2.08Z"/><path stroke="gray" d="M232.97 139.77c.01.21.1.42.25.56 1.42-.31-.5 1.08.6 1.34.94.22 1-2.84-.64-2.48-.14.16-.22.37-.21.58ZM253.42 154.09c-.14 1.42 3.87.05 3.05-.99-.28-.08-.45.02-.5.32 0 .98-2.52.37-2.55.67ZM256.32 152.23c.22.05.44 1.15.67 1.09.67-.19-.53-1.05-.67-1.09ZM250.12 152.6c-1.31-.75-3.87-1.91-5.18-1.83-.39 0-.92 1.2-1.39 1.11-.93-.17-.4-1.19-1.07-1.45-.59-.23-.59-.87-1.6-.73-.18.03-1.16.81-.81.88.19.05 2.17 1.15 2.19.81 0 .16-1.2.15-1.33.17-.55.1 2.07 1.39 2.24 1.46 1.15.57 1.99.45 2.66 1.62.67 1.18-.94 1.12-.67 1.65.49.97 4.14.11 4.53.12 1.06 0 1.05-.04 2.39.63-.03 0 3.27 1.65 2.92 1.06-.16-.23-3.01-3.08-2.35-3.05.6.04-1.94-2.12-2.53-2.45ZM202.08 144.22c1.59.64 1.23-3.3-.06-3.14-.49.06-.5 2.91.06 3.14ZM176.79 161.37c-.47.47-1.73.77-2.11 1.19-1.04 1.2-.34 1.74-.52 3.51-.13 1.25-1.6 6.3 1.8 4.65 1.94-.94 1.54-6.5 2.27-8.32.09-.24.6.54.6-.47s-.58-1.72-.8-2.6c0 .03-1.06 1.85-1.24 2.04ZM182.12 138.5c.03-.11-1.06-.16-.78.17.26.28.75-.05.78-.17ZM262.94 157.8c.18-.13-.85-.85-.78-.46.07.37.6.59.78.46ZM260.4 155.65c.12-.07-.61-.77-.64-.6 0 .1.52.67.64.6ZM261.23 155.91c-.02.23.88.76 1.06.63.19-.13-1.04-.87-1.06-.63ZM259.28 155.21c.48-.33-.92-1.41-.95-1.19-.04.22.68 1.4.95 1.19ZM263.56 157.63c.09.02-.45-1.44-.6-1.13-.17.41.5 1.12.6 1.13ZM264.24 158.53c.23-.17-.75-.54-.69-.38 0 .09.47.54.69.38ZM240.35 159.08c-.03-.22-1.24.04-.98.26.17.15 1.01-.04.98-.26Z"/><path stroke="gray" d="M257.1 171.26c-1.43-.68-3.53-3.68-4.57-5.27-.79-1.19-1.03-2.47-1.65-3.96-.33-.77-1-.19-1.2-.69-.34-.73 0-2.27-.72-2.95-.55-.51-.85 3.68-.85 3.7-.77 2.18-.31 2.21-2.28 1.52-.56-.2-2.25-1.07-2.39-1.8-.12-.62 1.35-1.68 1.16-2.08.15.3-3.56-1.05-3.63-1.01-.1.24 0 .42.28.55-1.01-1.19-2.69 3.06-2.19 2.99.24-.03-1.51-.27-1.02 0-1.26-.73-1.07-1.45-2.57-.37-.97.7-.63 1.65-1.2 2.27-.14.17-.25-.85-.48-.7-.81.55-.18 1.25-.91 1.85-.9.73-1.36.78-2.35 1.28-1.3.64-2.23.83-3.36 1.9a.62.62 0 0 1-.11-.25.61.61 0 0 1 .03-.27c0 .27-.33 1.11-.36 1.56-.04.45.43 2.18.3 2.44a.878.878 0 0 1-.45-.42c.09.19.16.39.22.6-.19-.15-.37-.3-.54-.44-.22.53 1.41 3.4 1.56 4.04.08.33.06 3.42-.08 3.14 1.04 2.13 2.55.67 4.27.16 1.42-.41 2.32-.71 3.69-1.22 1.05-.4 3.29-1.2 4.44-1.01.7.12 4.23 2.88 3.42 3.25.25-.11 1.7-1.92 1.8-1.83.45.42-.74 1.57-.8 1.83-.21 1.04 1.2-.81.81-.51.51-.41.27 1.26.23 1.13-.05-.13 1.66 2.2 1.82 2.34.97.83 3.38.06 3.36.04.03.19.03.38 0 .57-.22-.28.8.34 1.05.59-.5-.47 2.83-1.51 2.73-1.4.51-.6.81-3.23 1.2-4.08.25-.7 1.25-4.9 1.54-5.14 0 0-.4-2.45-.2-2.35Z"/><path stroke="gray" d="M245.07 180.92c.1-.26-1.09-.04-.91.13.18.19.81.13.91-.13ZM250.5 185.8c.23-.07.05 3.5 1.95 2.5.97-.53 1.34-2.33-.64-2.09-.45-.09-.89-.22-1.31-.41ZM268.47 192.07c-.22-.3-.57.29-.29.37.13.04.51-.07.29-.37ZM274.3 181.81a.39.39 0 0 0-.07.23c0 .09.02.17.07.24.07-.12-1.5-2.27-1.83-2.27-.04 0 1.13 2.32 1.23 2.61.36 1.03-.8.99-.76 1.55 0-.04.84 2.39.79 2.34.97 1.81 3.04-5.17 2.1-3.45-.45.83-1.44-1.25-1.53-1.25ZM268.14 191.57c1.73 1.16 5.74-4.88 4.94-5.52-.95-.75-6.67 4.36-4.94 5.52ZM277.63 163.39c0-.32-1.08.37-.8.46.19.08.8-.15.8-.46ZM276.67 164.59c.01-.53-1.14 0-.88.26.28.3.86.28.88-.26ZM176.97 60c.32.69 3.24-.7 3.26-.9.04-.92-2.37.19-2.54.45-.28.06-.54.22-.72.45ZM180.97 60.07c.25.08.94.27.94-.13 0-.39-1.19.05-.94.13ZM177.89 59.08c.15-.41-2.6 0-2.52.22.07.09.17.17.27.22.11.05.22.08.34.09.12 0 .23-.02.34-.06.11-.05.21-.11.29-.2.4-.18.84-.27 1.28-.27ZM179.16 78.68c.47-.19-2.61-.79-1.4.44.66.67 1.06-.3 1.4-.44ZM180.04 74.52c0 .07 1.31 1.16 1.2 1.19-.12-.23-.07-.4.12-.51-.12 0 3.27 2.83 3.42 1.2.04-.44-1.49-1.38-1.56-1.99-.06-.61.6-1.24.86-1.79.42-.75.93-1.43 1.53-2.03 1.01-.93 8.29-3.98 7.97-4.26-.78-.66-7.27 1.46-8.32 2.12-.57.39-2.63 3.2-2.65 3.2-.92.89-1.78 1.85-2.57 2.87ZM254.81 70.11c.32-.07.62-.21.87-.42.15-1.7-7.37 0-1.83.4.31.09.64.09.96.02ZM247.35 71.28c.27.1.72.04.72-.33s-1.2.14-.72.33ZM220.7 63.13c.14-.8-2.35-1.03-2.27-.4-.45-3.53-1.79 1.96-2.38 1.6.46.28 4.51-.4 4.65-1.2ZM212.03 61.58c1.14 1.09 3.91 1.92 4.15 0 .2-1.64-3.63-1.19-3.63-.74-.22.2-.4.46-.52.74ZM210.63 60.57c-.4.19 1.46.09 1.79-.05.33-.14 2.8-.86 2.35-1.42-1.83-2.29-3.76.88-3.41 1.04.73.34-.65.38-.73.43ZM226.73 70.66a.697.697 0 0 0-.18-.2.771.771 0 0 0-.25-.1.62.62 0 0 0-.5.15c-.52 1.14.91.34.93.15ZM185.09 58.76c.03-.24-1.83-.6-1.94-.56.32-.04-.52 1.04-.72.83.37.41 2.57.45 2.66-.27ZM209.76 58.53c.13.13.92.23 1.01-.14.09-.37-1.4-.21-1.01.14ZM279.96 75.77c-.93-1.11-2.93.48-2.78.55.36-.01.72-.02 1.08-.02.1.08 2.09-.06 1.7-.53ZM247.64 69.92c.6-.11 2.16-1.04 1.57-1.24.28.1 1.1 1.98 1.59.52.4-1.19-.74-.92-1.8-1.26-.09-.03-1.94-.08-1.95-.08.28-.05-3.63.61-1.87 1.56.73.46 1.6.64 2.46.5ZM247.62 72.19c.27.43 1.86.5 2.26.4 1.19-.29-3.1-1.73-2.26-.4Z"/><path stroke="gray" d="m284.1 84.08.86.2c.22 0-.28-.3-.22-.34-.25.16 1.52-.45 1.11-.6.03 0-3.47-2.08-3.51-1.35.05-.81.35 1.3.23.91-.65-2.13-5.01-4.47-7.46-5-1.36-.29-3.67-.24-4.5.14.07-.04.56 1.05-.11 1.46-.31.19-1.79-1.11-1.45-1.27.35-.17.79.56.88-.13.06-.56-2.87.23-3.29.29-.71-.01-1.43-.06-2.13-.16-.93-.09-.43.72-.81.91.32-.16-1.2-1.47-1.2-1.46-1.33-1.13-1.14-1.34-3.62-1.53-.76-.06-4.48 0-4.85-1.13-.11-.33 1.13.07.8-.48-.73-1.2-3.69.17-3.73.29.21-.12.41-.25.6-.4a3.63 3.63 0 0 0-.86-.29c-.25-.42 1.2 0 1.2-.22.22-1.28-6.18-.53-5.55.35.09.04.2.07.3.07.1 0 .21-.03.3-.07-.41-.23.07 1.55.03 1.01 0 .1-1.45-.17-1.69 0 .12.12.27.22.43.28 0 0-4.03-.76-4.31-.83-.27-.06-.73 1.69-1.34 1.65-.91-.05-1.61-2.21-2.07-2.19.26.13.54.19.82.17 1.16-.68-2.87-3.07-3.74-2.89-.62.13-.75 1.47-.98 1.51-.34.06-3.59-.08-3.68-.45-.06-.21.44-.46.23-.51-1.68-.44-2.99.35-4.03.45-.28 0 .05-.98-.36-1.05-.19-.04-2.92 0-2.68.31.15.05.31.09.46.13.05.36-3.41.91-3.48 1.1.74-1.9 6.33-2.39 5.88-4.4-.14-.6.23-1.1-1.01-1.69-1.58-.74-2.77.44-4.18.09.15-.28.33-.54.55-.78 0 .16-1.98-.38-2.23-.28.17-.07 1.37-.27 1.1-.68-.9-1.38-2.99.38-3.74.93.39-.29-1.45 2.15-1.52 1.01.15.15.32.3.5.42.08-.26-2.12.23-2.23.19.06-.17.13-.32.21-.48-.83.09-1.66.25-2.46.48.1.17.27.29.46.34-.03-.28-3.68.97-3.95 1.1-.86.4-.42.36-.79.86-.21 0-.43 0-.65-.04-.08.08.75.47.75.54-.19.03-.39.05-.59.04 0 0 .9.54.49.92-.24.22-1.66.1-2.07.18-5.67 1.2 0 1.58-1.1 3.08-.43.6-3.27-1.87-4.1-1.04-.07.07.91.76.69.82-.43.12-1.08-.51-1.4.09-.24.47 2.01 1.23 1.83 1.44 0 0-2.39-.49-2.39-.53-.47-.54.82-2.07-.19-2.39-1-.32-1.6 4.51-1.2 5.06 1.09 1.47 3.11.7 3.79 2.94.36 1.2-2.07-1.66-1.02-1.2-.72-.31-.49-.94-1.44-.77-1.37.24-.07 1.01-.6 1.66-.6.76-1.41 1.86-2.24 2.04-.22.06-2.26-.05-2.08-.59-.03.07 2.69-.28 3.15-1.8.28-.96-.2-1.73-.4-2.83-.06-.32.09-3.64.11-3.59-1.61-2.65-4.29.37-4.43 2.25.04-.52-.06 1.95-.18 1.64 0 0 2.91 1.86 1.2 2.14-1.2.2-5.98-4.02-7.46-3.18.39-.22 2.6 3.79.47 2.93-.84-.34.03-.42-1.9-.24 0 0-3.07.51-2.84.32.24-.19.67-.39.6-.87 0 .31-4.02 1.62-4.58 1.87-.79.34-.6 1.79-2.05.83-1.45-.96.72-.92.9-1.13.66-.78-2.65-1.63-2.53-1.14 0-.13.77 2.48.15 2.03 1.55 1.12-.24 1.01-.34 1.09-1.8 1.43-1.8-.11-2.15 2.45-.06.43-1.48-.44-1.7-.26-.3-.19-.6-.38-.87-.57-.53.24-.6.56-.24.96.87-.49 1.15 1.88-.37.68-.37-.29-2.42-4.78-3.25-4.39.59-.28 9.08 3.76 6.48-.9-.49-.9-5.78-3.13-6.23-2.57.2-.02.39-.09.56-.2-.07-.6-1.37 0-1.51-.13-.36-.39-1.2.48-1.46-.48.05.19 1.38-.17 1.41-.36.29-1.54-2.44-.16-2.1-.15-.27 0 .14-.84.12-.88-.55-1.06-1.02.9-1.32.9-.11 0 .07-.93-.12-.8-.37.38-.73.78-1.09 1.19-.4.08.77-1.28.76-1.31-.11-.7-1.32.65-1.31.65.38-.33-1.52 1.07-.97.91-.72.22.2-1.65.29-1.3.04.16-1.11.13-1.09.41.16.16.27.37.32.59-.29-.06-.58-.07-.87-.03.1.18.25.33.43.42-.35-.06-.69-.17-1.01-.34.05 0 .33 1.03 0 .83-.56-.37-.44-.97-1.19-.63-.06 0-1.64 1.2-1.61 1.38.03.18.77-.16.65.47 0 0-1.33 0-1.28.06.05-.23.11-.46.18-.69-.72.71-1.48 1.38-2.27 2.01.6 0 1.93-1.47 2.56-.88 0 0-.09.64-.1.65-1.8.72-2.3 3.63-3.96 4.35-.14.07.68.6.4.72-.94.37-.95.73-1.73 1.38-.06.04-.6-.69-.63-.23-.09.94-.56.21-1.03.92.04.08.1.15.17.21s.15.1.23.13c-.5-1.12-1.79 1.79-1.74 1.56-.29 1.76.86 1.2.95 1.48.26.9-1.05.48-.99.43-.06.26-.11.52-.13.79 0 .33.7-.36.83 0 .09.24-.43.49-.51.6-.88 1.35 2.99.3 2.53.4.6-.13.95-1.12 1.31-1.33.22-.13 1.89 5.1 2.06 5.15.79.3 2.43-2.09 2.7-2.17-.11.27-.25.34-.42.2.15-1.41 1.83-2.52 1.79-3.59 0-1.4-1.58-.74-1.07-2.8.3-1.19 1.2-1.29 1.8-2.14.48-.68 1.28-2.67 2.19-2.99 4.25-1.4-.99 3.56-1.12 3.81-.33.6-.09 3.02.21 3.32 1.19 1.19 3.43.31 4.73-.05.54.07 1.05.27 1.47.6.29.34-3.65.77-3.47.68-2.52 1.2-.09 1.16-.72 1.89-.76 1.2-.91.29-1.2.55-.1.09-1.97.23-1.28 1.62.68 1.52-.66 1.89-1.51 2.2.07 0-2.2.22-2.74.29-1.2.15-.56.31-1.14-.51-.24-.35-1.63.95-1.89.76-.05-.18-.05-.38 0-.56-.33-.09-1.33 0-1.19-.87 0-.16.86.46.93.08.14-.73-.41-.25-.59-.6-.11-.16.93-1.91.39-2.5-.36-.4-.97.96-.97.96-.39.39-.76-.3-.82 1.32 0 .52 1 1.7.74 2.21-.19.39-2.36.79-2.77 1.05-.73.63-1.41 1.31-2.04 2.04-.42.5-.88.96-1.38 1.38-.6.28-1.9.12-2.1.23-.45.25.41.93 0 1.27-.41.34-1.6-.71-1.87-.19-.75 1.39.37.33 1.03 1.39.91 1.45 2.32 3.19.21 4.26-.98.5-3.38-.79-4.18-.36-1.5.82-.33.75-.66 2.14-.65 2.84-.59 4.03 1.74 4.78 1.64.54 3.37.2 4.72-1.62 1.08-1.44 1.73-3.96 3.37-4.98-.37.23 3.44-.43 3.12-.44 1.63.08.6-.15 2.01.93-.04-.03 5.38 4.94 3.85 4.94.87 0 .6-2.19.66-2.25.18-.03.36-.01.53.04.17.06.32.16.44.29-.59-.18-5.98-5.98-3.34-5.83.35 0 3.18 3.21 4.09 3.72.01-.07.03-.14.05-.21-.02.07-.04.14-.05.21m6.56-20.91c.11-.17.23-.34.37-.5-.14.15-.26.32-.37.5m-6.56 20.91c-.89-.52 2.36 4.95 2.36 3.67 0-1.12-1.47 2.79.45 1.74 0-.29-.04-.57-.14-.85.18.05.36.05.53 0 .28-.34-.6-.3-.41-.47.19-.18 1.1.33.97-.4-.16-.88-.64 0-.97-.35.11.12-.13-1.8-.29-1.7.3.09.61.15.93.18.51-.23 3.22-.21 3.88-.87-.17.18-1.09-1.45-1.03-1.79.36-.73.79-1.42 1.3-2.05.32-.45.46-1.46 1.1-1.76.41-.19 2.23-.12 2.33.43-.31.25-.65.45-1.02.6-.03-.19.83 1.05.81 1.03-.03-.03 2.33-.6 2.39-.67.14-.24-2.13-.11-1.04-1.28.25-.27 2.8-1.19 2.99-.83.04.09-1.8 1.79-1.73 2.12.24 1.14 3.74 1.76 3.62 2.99-.15 1.68-2.16 1.09-3.34 1.07-.5 0-.9-.57-1.39-.6-1.61-.1-2.56.27-4.08.69-1.95.55-4.1 1.56-1.84 3.86 1.05 1.08 2.09.6 3.29.65.39 0 2.79-.52 3.12-.31.32.21-.7 3.05-.83 3.36l.4.18c0 .08 0 .17-.03.25 0-.08 0-.17.03-.25m0 0-.39-.18c-1.19 2.81-3.46 2.23-6.42 1.68-.79-.15-1.42-.52-2.21-.63-1.26-.17-.59-1.2-2.28-.33-.56.29-.4 1.42-.46 1.44-1 .4-5.3-1.07-6.42-2.21-1.11-1.14.77-2.12-.07-3.31-.51-.72-4.02-.07-5.01.04-1.22.2-2.42.52-3.59.94-1.22.35-2.22.25-3.36.55-.97.25-.6-.15-1.43.3.9-.48-1.93 2.11-1.58 1.55-.43.69-.77 1.45-1.2 2.14-.31.54-.23 1.25-.74 2.02-.33.5-1.02.59-1.39.98a13.13 13.13 0 0 0-2.48 3.97c-.66 1.67-.27 1.94-.33 3.4-.05 1.36-.48 2.81-.43 4.14.04 1.48.71 2.07 1.42 3.23 1.62 2.62 3.53 5.05 6.63 5.38 1.64.06 3.29-.17 4.85-.68.2-.05 2.28-1.19 2.49-.93.57.34 1.16.65 1.76.94.28.13.17.79.52.96.35.16.75-.38 1.04-.19 1.65 1.03 1.01.13 1.85 2.03.16.42-.32 1.76-.32 1.97.04 1.7.68 1.95 1.67 3.68.82 1.42 1.86 4.19 1.64 5.83-.24 1.74-1.51 3.25-1.59 5.16-.13 1.28 1.69 4.29 1.97 5.63.51 2.39 1.25 3.86 2.05 6.13 1.09 3.09.15 3.76 3.59 3.33 3.33-.41 5.23-1.45 6.98-4.79.27-.86.47-1.75.59-2.66 1.2-1.72 1.91-.78 2.23-3.03.24-1.59-.76-1.59.11-3.12.69-1.23 2.6-1.42 3.34-2.52 1.53-2.31-.06-4.85-.5-7.18-.47-2.49.8-4.29 2.52-6.15.71-.77 9.15-9.67 6.53-10.64-1.79-.68-3.82 1.91-5.89.6M186.52 59.45c.39.35 1.85.15 2.16-.29.69-.97-2.99-.44-2.16.29ZM183.78 60.02c-.46.51 2.33.43 2.51-.17.11-.37-1.51-.32-1.47-.23-.34.15-.69.28-1.04.4ZM186.11 57.74c-.29-.4-2.35.39-2.39.25.13.12.29.21.46.26.17.05.35.07.53.04.49-.12.96-.31 1.4-.55ZM248.64 107.4c-.51-.65 1.13.07 1.15.07.01.01-.66-1.96-.6-2.05.6-1.33 1.19-.71 1.4-.97.36-.49-1.76-5.86-1.46-6.05-.85.54-.55 2.81-.29 3.43.48 1.2-.95 4.62-.2 5.57Z"/><path stroke="gray" d="M195.88 72.49c.47-.94-2.21.13-1.19.3.42.04.84-.07 1.19-.3ZM201.26 73.16c.28.16.64.12.6-.27-.05-.4-.87.11-.6.27ZM191.01 58.67c.22-.76-2.03.18-1.95.29.4.18.85.2 1.27.07l.68-.36ZM267.77 168.52c.27-.19-2.26-1.96-2.21-1.68.04.3 1.94 1.88 2.21 1.68ZM81.19 128.68c-.12-.37-.22-.76-.29-1.14-.42-.8.1 1.58.29 1.14ZM93.93 140.09c-.4-.37-.73.38-.55.56.57.13.75-.06.55-.56ZM222.17 151.91c.2.31.4.03.4-.2 0-.22-.6-.11-.4.2ZM228.14 156.52c.4-.34-2.17-.78-2.1-.75.02-.18.11-.34.26-.45.14-.11.32-.17.5-.14-.67.44-6.52-1.52-6.13-.14.15.59 6.3 1.84 6.56 1.45.3.08.61.09.91.03ZM234.42 156.26c-.3-.04-3.1.26-3.05.38.37.79 2.29-.09 2.8-.12.6 0 .67-.08.25-.26ZM228.61 156.4c-.56.75 1.93.73 2.15.21.13-.3-1.02-.64-1.13-.39-.22.53-.74-.19-1.02.18ZM226.68 152.14c2.34.12 2.47-1.74 3.99-3.64-.1.12-1-2.01-.99-2.21.05-.91 1.13-.78 1.31-1.38.19-.61-2.17-1.04-2.3-1.01-.76.17-.37 1.51-1.68 1.41-.04 0-2.29 2.58-2.29 2.59.17-.4-2.9-.37-1.72.85 1.71 1.74.87 3.24 3.68 3.39ZM214.55 148.75c.27-.29-.42-.92-.47-.67-.05.24.2.96.47.67ZM215.56 150.67c.15-.13-.22-.86-.36-.46-.05.12.2.6.36.46Z"/><path stroke="gray" d="M221.33 151.52c0-.3-.95-1.2-.97-.64.18.18.34.38.48.59-.2.5-2.52-3.03-2.63-3.16-.54-.6-5.22-4.18-5.43-3.72-.15.35 3.59 5.73 4.09 6.41.49.68 4.16 5.25 3.94 1.95-.06-1.04.52-.76.52-1.43ZM230.76 157.45c-.06-.11 1.4 1.02 1.4.42 0-.67-1.33-.31-1.4-.42ZM231.44 154.17c.6-.25.06-2.73.65-2.44 1.11.54-.12 2.08 1.37.92-.79.59.04-4.09.65-2.77.07.18-3.37 1.09-2.51-.32.94-1.54 3.03.22 3.86-1.48-.5 1.03-2.55-.23-3.23.23-1.07.72-.99 2.11-1.58 3.16-.11.2 1.42 2.43.79 2.7ZM239.77 152.58c.84 0-2.42-1.89-2.01-.54.65.24 1.32.42 2.01.54ZM237.76 149.66c.84-.16.11-1.54.11-1.51 0-1.66-1.38 1.76-.11 1.51ZM237.2 156.34c.09-.28-2.01.64-2.2.67-.31.04-1.2.7-.6 1.01.2 0 .39-.05.55-.16.17-.11.3-.26.38-.44.39-.51 1.69-.59 1.87-1.08ZM237.13 152.36c.18-.32-1.03-.74-.92-.28.09.4.74.6.92.28ZM148.34 114.12c.71-.91-.59-2.55-1.13-1.52-.21.39.26 2.61 1.13 1.52ZM150.56 115.59c.49.45 1.05.81 1.66 1.06.15-.46.32-.9.52-1.34a.483.483 0 0 0-.61-.06c.16-.03-1.74-.16-1.57.34Z"/><path stroke="#263238" stroke-linecap="round" stroke-linejoin="round" d="M17.34 272.71h260.81"/><path fill="#FFF" d="M43.65 251.69s-15.84-27.82-12.19-34.89c3.66-7.07 13 5.65 13 5.65s-8.12-25.93-3.65-37.25c4.47-11.32 12.18 0 12.56 8.02.37 8.01-1.62 21.68-1.62 21.68s3.24-28.29 10.96-19.8c7.71 8.48-9.75 36.78-9.75 36.78s11.78-6.58 11.36 1.89c-.42 8.47-14.21 16.03-14.21 16.03l-6.46 1.89Z"/><path stroke="#263238" d="M43.79 246.51s-14.67-13.68-7.53-19.81c7.14-6.13 10.9 6.58 10.9 6.58s-7.89-39.14 4.9-40.56c12.78-1.41 3.38 33.96 3.38 33.96s10.9-15.09 10.16-2.83c-.73 12.27-16.93 22.66-16.93 22.66M50.99 244.02l-9.91-10.74M48.92 244.85l2.68-31.38M48.5 242.57l8.88-11.76"/><path fill="#263238" d="M61.34 240.39h-27.4l2.74 32.32H58.6l2.74-32.32Z"/><path fill="#FFF" d="m238 76.41-31 1.92c-1.75.11-3.4.89-4.59 2.18a6.845 6.845 0 0 0-1.83 4.74l.16 12.46-9.01.96 9.08 4.68c.01.9.2 1.79.56 2.62.36.83.87 1.58 1.52 2.2.65.63 1.41 1.12 2.25 1.45.84.33 1.74.5 2.64.48l30.09-.55a6.82 6.82 0 0 0 4.67-1.96 6.815 6.815 0 0 0 2.04-4.62l.7-19.47c.04-.96-.13-1.91-.48-2.8-.36-.89-.9-1.7-1.58-2.37a6.822 6.822 0 0 0-2.41-1.51c-.89-.34-1.85-.48-2.81-.41Z"/><path stroke="#263238" d="M207 78.33c-1.75.11-3.4.89-4.59 2.18a6.845 6.845 0 0 0-1.83 4.74l.16 12.46-9.01.96 9.08 4.68c.01.9.2 1.79.56 2.62.36.83.87 1.58 1.52 2.2.65.63 1.41 1.12 2.25 1.45.84.33 1.74.5 2.64.48l30.09-.55a6.82 6.82 0 0 0 4.67-1.96 6.815 6.815 0 0 0 2.04-4.62l.7-19.47c.04-.96-.13-1.91-.48-2.8-.36-.89-.9-1.7-1.58-2.37a6.822 6.822 0 0 0-2.41-1.51c-.89-.34-1.85-.48-2.81-.41l-31 1.92Z"/><path fill="#8C8C8C" d="M231.72 79.62h-20.3v12.79h20.3V79.62Z"/><path stroke="#263238" stroke-linejoin="round" d="M231.72 79.62v12.79h-20.3V79.62h20.3Z"/><path fill="#696969" d="M231.72 79.62h-11.53v12.79h11.53V79.62Z"/><path stroke="#263238" stroke-linejoin="round" d="M231.72 79.62v12.79h-11.53V79.62h11.53Z"/><path fill="#FFF" d="M225.7 79.62h-8.27v12.79h8.27V79.62Z"/><path stroke="#263238" stroke-linejoin="round" d="M225.7 79.62v12.79h-8.27V79.62h8.27Z"/><path fill="#263238" d="M211.27 102.76v-3.25c0-1.56 1.11-2.6 2.77-2.6 1.67 0 2.78 1.01 2.78 2.55 0 .07-.06.12-.15.13l-.53.04c-.1 0-.16 0-.16-.07v-.08a1.93 1.93 0 0 0-1.94-1.93c-.51 0-1 .2-1.37.56-.36.37-.56.86-.56 1.37v3.31a1.928 1.928 0 0 0 1.93 1.94c.52 0 1.01-.2 1.37-.57.37-.36.57-.85.57-1.37 0-.02 0-.04.01-.06.01-.01.02-.03.04-.04.01-.02.03-.03.05-.03H216.67c.09 0 .15 0 .15.06v.06c0 1.55-1.11 2.58-2.78 2.58-1.66 0-2.77-1.03-2.77-2.6ZM218.4 97.61c0-.13.03-.26.09-.37.07-.11.16-.2.28-.25.11-.06.24-.08.37-.06.13.02.25.08.34.17.09.08.16.2.19.32.02.13.01.26-.03.38a.62.62 0 0 1-.24.29.57.57 0 0 1-.36.11.571.571 0 0 1-.45-.16c-.06-.05-.1-.12-.14-.19a.687.687 0 0 1-.05-.24Zm.23 7.51v-5.67c0-.02 0-.04.01-.06.01-.02.02-.04.03-.05.01-.02.03-.03.05-.04.02 0 .04-.01.06-.01h.53c.02 0 .04 0 .06.01l.06.03.03.06c.01.02.01.04.01.06v5.67c0 .02 0 .04-.01.06-.01.02-.02.04-.03.05-.02.02-.04.03-.06.04-.02 0-.04.01-.06 0h-.53c-.02 0-.04 0-.06-.01-.02 0-.04-.02-.05-.03-.01-.02-.02-.03-.03-.05-.01-.02-.01-.04-.01-.06ZM225.73 101.18v3.94c0 .02 0 .04-.01.06-.01.02-.02.03-.03.05-.01.01-.03.03-.05.03-.02.01-.04.01-.06.01h-.53c-.02.01-.04 0-.06 0a.21.21 0 0 1-.06-.04c-.01-.01-.02-.03-.03-.05-.01-.02-.01-.04-.01-.06v-.43c0-.04-.03-.07-.07 0-.24.24-.53.42-.85.54-.32.12-.65.18-.99.16-1.01 0-1.95-.48-1.95-1.73 0-1.24.9-1.91 2.43-1.91h1.41c.01 0 .01-.01.02-.01 0-.01.01-.02.01-.02v-.47c.02-.18 0-.36-.07-.53-.06-.17-.16-.33-.3-.45a1.18 1.18 0 0 0-.47-.28c-.17-.05-.36-.06-.54-.03-.75 0-1.23.3-1.36.8 0 .02-.01.04-.02.06-.01.01-.02.03-.04.04-.02.01-.04.02-.05.02h-.06l-.6-.07c-.1 0-.16-.05-.15-.13.16-.87 1.03-1.46 2.25-1.46 1.45-.02 2.24.8 2.24 1.96Zm-.84 2.18v-.93c0-.01-.01-.02-.01-.02-.01-.01-.02-.01-.02-.02h-1.27c-1.02 0-1.72.44-1.72 1.2s.59 1.04 1.29 1.04c.88.02 1.73-.44 1.73-1.27ZM227.45 103.72c-.13-.47-.19-.96-.17-1.45-.02-.48.04-.97.15-1.44a2.462 2.462 0 0 1 2.31-1.63c.51 0 1 .16 1.41.45.42.29.73.7.9 1.18.12.47.18.96.17 1.45.01.49-.04.98-.17 1.46-.16.48-.48.89-.89 1.19-.41.29-.9.45-1.41.45-.51 0-1-.16-1.42-.45-.41-.3-.72-.71-.88-1.19v-.02Zm3.82-.24c.08-.39.11-.8.1-1.2.01-.4-.02-.8-.1-1.19-.09-.33-.29-.63-.57-.84-.27-.2-.61-.32-.95-.32-.35 0-.68.12-.96.32-.27.21-.47.51-.57.84-.13.79-.13 1.6 0 2.39.1.33.3.62.57.83a1.583 1.583 0 0 0 1.91 0c.28-.21.48-.5.57-.83Z"/><path fill="#FFF" d="M108.16 91.73 95.9 88.42l2.76-18.17c.14-.86.07-1.74-.19-2.58-.25-.83-.7-1.59-1.29-2.23-.6-.64-1.33-1.13-2.14-1.45-.81-.31-1.68-.44-2.55-.37l-26.03 2.16c-.76.06-1.49.27-2.17.61a5.827 5.827 0 0 0-2.86 3.36c-.23.72-.31 1.48-.25 2.24l1.91 23.83c.11 1.41.74 2.73 1.76 3.71 1.01.97 2.36 1.54 3.77 1.6l20.03.79c1.42.06 2.81-.41 3.9-1.31 1.1-.91 1.82-2.18 2.03-3.58l.52-3.41 13.06-1.89Z"/><path stroke="#263238" d="m95.9 88.42 2.76-18.17c.14-.86.07-1.74-.19-2.58-.25-.83-.7-1.59-1.29-2.23-.6-.64-1.33-1.13-2.14-1.45-.81-.31-1.68-.44-2.55-.37l-26.03 2.16c-.76.06-1.49.27-2.17.61a5.827 5.827 0 0 0-2.86 3.36c-.23.72-.31 1.48-.25 2.24l1.91 23.83c.11 1.41.74 2.73 1.76 3.71 1.01.97 2.36 1.54 3.77 1.6l20.03.79c1.42.06 2.81-.41 3.9-1.31 1.1-.91 1.82-2.18 2.03-3.58l.52-3.41 13.06-1.89-12.26-3.31Z"/><path fill="#8C8C8C" d="M89.94 68.71h-20.3v12.78h20.3V68.71Z"/><path stroke="#263238" stroke-linejoin="round" d="M89.94 68.71v12.78h-20.3V68.71h20.3Z"/><path fill="#FFF" d="M89.94 71.8h-20.3v6.6h20.3v-6.6Z"/><path stroke="#263238" stroke-linejoin="round" d="M89.94 71.8v6.6h-20.3v-6.6h20.3Z"/><path fill="#263238" d="M74.36 86.11h.53c.02 0 .04 0 .06.01.02 0 .03.02.05.03.01.02.02.03.03.05.01.02.01.04.01.06v7.97c0 .02 0 .04-.01.06-.01.02-.02.03-.03.05-.02.01-.03.03-.05.03-.02.01-.04.01-.06.01h-.53c-.03.01-.05 0-.07 0-.02-.01-.03-.02-.05-.04a.219.219 0 0 1-.03-.05c-.01-.02-.01-.04-.01-.06v-3.61c0-.01-.01-.02-.01-.02-.01-.01-.02-.01-.03-.02h-3.79c0 .01-.01.01-.02.02 0 0-.01.01-.01.02v3.61c0 .02 0 .04-.01.06-.01.02-.02.04-.03.05a.21.21 0 0 1-.06.04c-.02 0-.04.01-.06 0h-.53c-.02.01-.04 0-.06 0-.02-.01-.04-.02-.05-.04a.055.055 0 0 1-.03-.05c-.01-.02-.01-.04-.01-.06v-7.99c0-.02 0-.04.01-.06 0-.02.01-.04.03-.06.01-.01.03-.02.05-.03.02-.01.04-.01.06-.01h.53c.02 0 .04 0 .06.01l.06.03.03.06c.01.02.01.04.01.06V89.8s.01.01.01.02c.01 0 .02.01.02.01h3.8c.01 0 .02-.01.02-.01.01-.01.01-.02.01-.02.01-.01.01-.02.01-.03v-3.53c0-.04.02-.07.04-.1.03-.02.07-.03.11-.03ZM77.04 92.81c-.13-.47-.18-.96-.17-1.45-.01-.49.04-.97.15-1.44.18-.48.49-.89.9-1.18.42-.29.91-.45 1.41-.45.51 0 1 .16 1.42.45.41.29.72.7.9 1.18.12.47.18.96.16 1.45.02.49-.04.98-.16 1.45-.17.48-.48.9-.9 1.19-.41.3-.9.45-1.41.45-.51 0-1-.15-1.41-.45-.42-.29-.73-.71-.89-1.19v-.01Zm3.82-.25c.08-.39.11-.8.1-1.2.01-.4-.02-.8-.1-1.19-.09-.34-.29-.63-.56-.84a1.605 1.605 0 0 0-1.92 0c-.27.21-.47.5-.56.84-.08.39-.11.79-.1 1.19-.01.4.02.81.1 1.2.09.33.29.63.56.84a1.605 1.605 0 0 0 1.92 0c.27-.21.47-.51.56-.84ZM83.51 94.2v-7.96c0-.02 0-.04.01-.06l.03-.06.06-.03c.02-.01.04-.01.06-.01h.53c.02 0 .04.01.06.01.02.01.04.02.05.04.01.01.02.03.03.05.01.02.01.04.01.06v7.96c0 .02 0 .04-.01.06l-.03.06c-.01.01-.03.02-.05.03-.02.01-.04.01-.06.01h-.53c-.02 0-.04 0-.06-.01l-.06-.03c-.01-.02-.02-.03-.03-.05-.01-.02-.01-.05-.01-.07ZM90.56 90.29v3.94c0 .02 0 .04-.01.06-.01.02-.02.04-.03.05a.21.21 0 0 1-.06.04c-.02 0-.04.01-.06 0h-.53c-.02.01-.04 0-.06 0a.21.21 0 0 1-.06-.04c-.01-.01-.02-.03-.03-.05-.01-.02-.01-.04-.01-.06v-.43c0-.04-.03-.07-.07 0-.24.24-.53.42-.85.54-.31.12-.65.17-.99.16-1 0-1.95-.49-1.95-1.73 0-1.23.9-1.91 2.43-1.91H89.68c.01 0 .01-.01.02-.01 0-.01.01-.02.01-.02v-.54c.02-.18 0-.36-.06-.54-.07-.17-.17-.32-.31-.45-.13-.13-.29-.22-.47-.27-.17-.06-.36-.07-.54-.04-.74 0-1.22.31-1.36.81 0 .02 0 .04-.02.05-.01.02-.02.04-.04.05-.02.01-.04.01-.05.02-.03 0-.05 0-.06-.01l-.6-.07c-.09 0-.15-.04-.14-.13.15-.86 1.03-1.45 2.24-1.45 1.46.02 2.26.84 2.26 2.03Zm-.86 2.15v-.91c0-.01 0-.02-.01-.02 0-.01 0-.02-.01-.02l-.02-.02H88.4c-1.03 0-1.73.44-1.73 1.2s.6 1.05 1.3 1.05c.89.01 1.73-.44 1.73-1.28Z"/><path fill="#FFF" d="M247.74 122.99h-15.95c-3.22 0-6.31 1.28-8.59 3.56a12.149 12.149 0 0 0-3.56 8.59v4.49l-7.95-.3 7.97 5.2v3.37a12.155 12.155 0 0 0 12.16 12.16h15.95c3.22 0 6.31-1.28 8.59-3.56 2.28-2.28 3.56-5.38 3.56-8.6v-12.76c0-1.6-.31-3.18-.93-4.65-.61-1.48-1.51-2.82-2.64-3.95a12.121 12.121 0 0 0-3.95-2.64c-1.48-.6-3.06-.92-4.66-.91Z"/><path stroke="#263238" d="M231.79 122.99c-3.22 0-6.31 1.28-8.59 3.56a12.149 12.149 0 0 0-3.56 8.59v4.49l-7.95-.3 7.97 5.2v3.37a12.155 12.155 0 0 0 12.16 12.16h15.95c3.22 0 6.31-1.28 8.59-3.56 2.28-2.28 3.56-5.38 3.56-8.6v-12.76c0-1.6-.31-3.18-.93-4.65-.61-1.48-1.51-2.82-2.64-3.95a12.121 12.121 0 0 0-3.95-2.64c-1.48-.6-3.06-.92-4.66-.91h-15.95Z"/><path fill="#263238" d="M233.48 145.67h.54c.02 0 .04 0 .06.01.01.01.03.02.04.03.02.01.03.03.04.05 0 .02.01.04.01.06v7.96c0 .02 0 .04-.01.06-.01.02-.02.04-.03.05-.02.02-.03.03-.05.04-.02.01-.04.01-.06.01h-.54c-.02 0-.04 0-.06-.01-.02-.01-.03-.02-.05-.03-.01-.02-.03-.04-.03-.06-.01-.01-.01-.04-.01-.06v-3.61l-.02-.02c0-.01-.01-.01-.02-.01 0 0-.01-.01-.02 0h-3.74c-.01-.01-.02 0-.03 0-.01 0-.01 0-.02.01 0 .01-.01.01-.01.02v3.61c0 .02 0 .05-.01.06-.01.02-.02.04-.04.06-.01.01-.03.02-.05.03-.02.01-.04.01-.06.01h-.53c-.02 0-.04 0-.06-.01l-.06-.03-.03-.06c-.01-.01-.01-.04-.01-.06v-7.96c0-.02.01-.04.01-.06.01-.02.02-.04.04-.05.01-.02.03-.03.05-.03.02-.01.04-.01.06-.01h.53c.02 0 .04 0 .06.01.02 0 .04.01.05.03.02.01.03.03.04.05 0 .02.01.04.01.06V149.38s.01.01.01.02c.01 0 .01.01.02.01h3.79c.01 0 .02-.01.02-.01.01-.01.01-.02.02-.02V145.82c0-.02 0-.04.01-.06.01-.02.02-.04.03-.05.02-.02.04-.03.06-.03.01-.01.03-.01.05-.01ZM240.03 152.42c0-.01.02-.03.03-.05.01-.01.03-.02.05-.03.02-.01.04-.01.06-.01.02.01.04.01.06.02l.34.2c.08.04.12.11.07.19-.2.41-.51.75-.9.98-.39.23-.84.34-1.29.31a2.174 2.174 0 0 1-2.21-1.47c-.18-.53-.25-1.08-.23-1.64-.02-.45.01-.92.11-1.36.12-.51.42-.95.83-1.26.42-.31.93-.46 1.45-.44.58-.04 1.16.15 1.6.53.44.38.72.92.76 1.51.07.39.09.79.07 1.19.01.02 0 .04 0 .06-.01.02-.02.04-.04.05-.01.02-.03.03-.05.04h-3.86c-.01.01-.02.01-.03.02 0 0 0 .01-.01.02v.02c-.01.29.01.58.07.87.09.35.3.66.59.87.29.21.65.31 1.01.28a1.616 1.616 0 0 0 1.52-.9Zm-3.09-2.72c-.07.27-.1.54-.1.81v.03c.01 0 .01.01.01.02.01 0 .02.01.03.01h3.08l.02-.02s.01-.01.01-.02v-.02a9.72 9.72 0 0 0-.06-.76c-.08-.34-.28-.64-.55-.86-.28-.21-.63-.31-.98-.29-.34-.02-.67.07-.94.28-.27.2-.45.49-.52.82ZM242.5 153.78v-7.96c0-.02 0-.04.01-.06.01-.02.02-.04.03-.05.02-.02.03-.03.05-.03.02-.01.04-.01.06-.01H243.24c.02.01.04.02.05.04.02.01.03.03.04.05 0 .02.01.04 0 .06v7.96c.01.02.01.04 0 .06l-.03.06c-.02.01-.03.02-.05.03-.02.01-.04.01-.07.01h-.53c-.02 0-.04 0-.06-.01-.02-.01-.04-.02-.05-.03-.02-.02-.03-.04-.03-.06-.01-.01-.01-.04-.01-.06ZM245.24 153.78v-7.96c0-.02 0-.04.01-.06.01-.02.02-.04.03-.05.02-.01.03-.02.05-.03.02-.01.04-.01.06-.01h.53c.02 0 .04 0 .06.01.02 0 .04.01.06.03.01.01.02.03.03.05.01.02.01.04.01.06v7.96c0 .02 0 .05-.01.06l-.03.06c-.02.01-.03.02-.05.03-.02.01-.05.01-.07.01h-.53c-.02 0-.04 0-.06-.01-.02-.01-.03-.02-.05-.04a.219.219 0 0 1-.03-.05c-.01-.02-.01-.04-.01-.06ZM247.96 152.39c-.13-.47-.19-.96-.17-1.45-.02-.49.04-.97.15-1.44.18-.48.49-.89.9-1.18.42-.29.91-.45 1.42-.45.5 0 .99.16 1.41.45.41.29.72.7.9 1.18.12.47.17.96.16 1.45.01.49-.04.98-.16 1.45-.17.48-.48.9-.89 1.19-.42.29-.91.45-1.42.45-.51 0-1-.16-1.41-.45-.42-.29-.73-.71-.89-1.19v-.01Zm3.82-.25c.08-.39.11-.79.1-1.19.01-.4-.02-.8-.1-1.2a1.585 1.585 0 0 0-1.52-1.16c-.34 0-.68.12-.95.33-.28.21-.48.5-.57.83-.08.4-.11.8-.1 1.2-.01.4.02.8.1 1.19.09.34.29.63.57.84a1.583 1.583 0 0 0 1.91 0c.27-.21.47-.5.56-.84Z"/><path fill="#FFF" d="M250.01 128.29h-20.3v12.79h20.3v-12.79Z"/><path stroke="#263238" stroke-linejoin="round" d="M250.01 128.29v12.79h-20.3v-12.79h20.3Z"/><path fill="#263238" fill-rule="evenodd" d="M229.82 128.29h20.3v1.24h-20.3v-1.24ZM229.82 130.23h20.3v1.24h-20.3v-1.24ZM229.82 132.16h20.3v1.24h-20.3v-1.24ZM229.82 134.1h20.3v1.23h-20.3v-1.23ZM229.82 136.03h20.3v1.24h-20.3v-1.24ZM229.82 137.97h20.3v1.24h-20.3v-1.24ZM229.82 139.91h20.3v1.24h-20.3v-1.24Z"/><path fill="#263238" fill-rule="evenodd" d="M229.71 128.29h9.85v6.81h-9.85v-6.81Z"/><path fill="#FFF" d="m230.1 128.86.08.2.2.03-.14.15.03.2-.17-.09-.17.09.03-.2-.14-.15.19-.03.09-.2ZM230.1 130.13l.08.19.2.03-.14.15.03.21-.17-.11-.17.11.03-.21-.14-.15.19-.03.09-.19ZM230.1 131.38l.08.19.2.03-.14.15.03.21-.17-.1-.17.1.03-.21-.14-.15.19-.03.09-.19ZM230.1 132.64l.08.19.2.04-.14.14.03.21-.17-.1-.17.1.03-.21-.14-.14.19-.04.09-.19ZM230.1 133.9l.08.19.2.03-.14.15.03.21-.17-.1-.17.1.03-.21-.14-.15.19-.03.09-.19ZM231 129.6l.08.19.19.03-.13.15.02.21-.16-.1-.18.1.03-.21-.13-.15.19-.03.09-.19ZM231 130.86l.08.19.19.03-.13.15.02.21-.16-.1-.18.1.03-.21-.13-.15.19-.03.09-.19ZM231 132.12l.08.19.19.03-.13.15.02.21-.16-.1-.18.1.03-.21-.13-.15.19-.03.09-.19ZM231 133.37l.08.19.19.03-.13.15.02.21-.16-.09-.18.09.03-.21-.13-.15.19-.03.09-.19ZM231.89 128.86l.09.2.2.03-.15.15.04.2-.18-.09-.17.09.04-.2-.15-.15.2-.03.08-.2ZM231.89 130.13l.09.19.2.03-.15.15.04.21-.18-.11-.17.11.04-.21-.15-.15.2-.03.08-.19ZM231.89 131.38l.09.19.2.03-.15.15.04.21-.18-.1-.17.1.04-.21-.15-.15.2-.03.08-.19ZM231.89 132.64l.09.19.2.04-.15.14.04.21-.18-.1-.17.1.04-.21-.15-.14.2-.04.08-.19ZM231.89 133.9l.09.19.2.03-.15.15.04.21-.18-.1-.17.1.04-.21-.15-.15.2-.03.08-.19ZM232.8 129.6l.08.19.19.03-.14.15.03.21-.16-.1-.18.1.03-.21-.13-.15.19-.03.09-.19ZM232.8 130.86l.08.19.19.03-.14.15.03.21-.16-.1-.18.1.03-.21-.13-.15.19-.03.09-.19ZM232.8 132.12l.08.19.19.03-.14.15.03.21-.16-.1-.18.1.03-.21-.13-.15.19-.03.09-.19ZM232.8 133.37l.08.19.19.03-.14.15.03.21-.16-.09-.18.09.03-.21-.13-.15.19-.03.09-.19ZM233.69 128.86l.09.2.19.03-.14.15.04.2-.18-.09-.17.09.03-.2-.14-.15.19-.03.09-.2ZM233.69 130.13l.09.19.19.03-.14.15.04.21-.18-.11-.17.11.03-.21-.14-.15.19-.03.09-.19ZM233.69 131.38l.09.19.19.03-.14.15.04.21-.18-.1-.17.1.03-.21-.14-.15.19-.03.09-.19ZM233.69 132.64l.09.19.19.04-.14.14.04.21-.18-.1-.17.1.03-.21-.14-.14.19-.04.09-.19ZM233.69 133.9l.09.19.19.03-.14.15.04.21-.18-.1-.17.1.03-.21-.14-.15.19-.03.09-.19ZM234.59 129.6l.09.19.19.03-.14.15.03.21-.17-.1-.17.1.03-.21-.13-.15.19-.03.08-.19ZM234.59 130.86l.09.19.19.03-.14.15.03.21-.17-.1-.17.1.03-.21-.13-.15.19-.03.08-.19ZM234.59 132.12l.09.19.19.03-.14.15.03.21-.17-.1-.17.1.03-.21-.13-.15.19-.03.08-.19ZM234.59 133.37l.09.19.19.03-.14.15.03.21-.17-.09-.17.09.03-.21-.13-.15.19-.03.08-.19ZM235.49 128.86l.09.2.19.03-.14.15.03.2-.17-.09-.17.09.03-.2-.14-.15.19-.03.09-.2ZM235.49 130.13l.09.19.19.03-.14.15.03.21-.17-.11-.17.11.03-.21-.14-.15.19-.03.09-.19ZM235.49 131.38l.09.19.19.03-.14.15.03.21-.17-.1-.17.1.03-.21-.14-.15.19-.03.09-.19ZM235.49 132.64l.09.19.19.04-.14.14.03.21-.17-.1-.17.1.03-.21-.14-.14.19-.04.09-.19ZM235.49 133.9l.09.19.19.03-.14.15.03.21-.17-.1-.17.1.03-.21-.14-.15.19-.03.09-.19ZM236.39 129.6l.08.19.2.03-.14.15.03.21-.17-.1-.17.1.03-.21-.14-.15.2-.03.08-.19ZM236.39 130.86l.08.19.2.03-.14.15.03.21-.17-.1-.17.1.03-.21-.14-.15.2-.03.08-.19ZM236.39 132.12l.08.19.2.03-.14.15.03.21-.17-.1-.17.1.03-.21-.14-.15.2-.03.08-.19ZM236.39 133.37l.08.19.2.03-.14.15.03.21-.17-.09-.17.09.03-.21-.14-.15.2-.03.08-.19ZM237.29 128.86l.09.2.19.03-.14.15.03.2-.17-.09-.17.09.03-.2-.14-.15.19-.03.09-.2ZM237.29 130.13l.09.19.19.03-.14.15.03.21-.17-.11-.17.11.03-.21-.14-.15.19-.03.09-.19ZM237.29 131.38l.09.19.19.03-.14.15.03.21-.17-.1-.17.1.03-.21-.14-.15.19-.03.09-.19ZM237.29 132.64l.09.19.19.04-.14.14.03.21-.17-.1-.17.1.03-.21-.14-.14.19-.04.09-.19ZM237.29 133.9l.09.19.19.03-.14.15.03.21-.17-.1-.17.1.03-.21-.14-.15.19-.03.09-.19ZM238.19 129.6l.08.19.2.03-.14.15.03.21-.17-.1-.17.1.03-.21-.14-.15.19-.03.09-.19ZM238.19 130.86l.08.19.2.03-.14.15.03.21-.17-.1-.17.1.03-.21-.14-.15.19-.03.09-.19ZM238.19 132.12l.08.19.2.03-.14.15.03.21-.17-.1-.17.1.03-.21-.14-.15.19-.03.09-.19ZM238.19 133.37l.08.19.2.03-.14.15.03.21-.17-.09-.17.09.03-.21-.14-.15.19-.03.09-.19ZM239.09 128.86l.09.2.19.03-.14.15.03.2-.17-.09-.18.09.04-.2-.14-.15.19-.03.09-.2ZM239.09 130.13l.09.19.19.03-.14.15.03.21-.17-.11-.18.11.04-.21-.14-.15.19-.03.09-.19ZM239.09 131.38l.09.19.19.03-.14.15.03.21-.17-.1-.18.1.04-.21-.14-.15.19-.03.09-.19ZM239.09 132.64l.09.19.19.04-.14.14.03.21-.17-.1-.18.1.04-.21-.14-.14.19-.04.09-.19ZM239.09 133.9l.09.19.19.03-.14.15.03.21-.17-.1-.18.1.04-.21-.14-.15.19-.03.09-.19ZM97.41 141.48H86.93a20.536 20.536 0 0 0-9.45-11.61c-4.5-2.54-9.79-3.29-14.82-2.1-5.03 1.2-9.42 4.24-12.3 8.53-2.87 4.3-4.02 9.52-3.22 14.62.81 5.1 3.51 9.72 7.57 12.91 4.06 3.2 9.17 4.75 14.32 4.33 5.15-.41 9.96-2.75 13.46-6.55 3.5-3.81 5.43-8.79 5.41-13.96v-.46l9.51-5.71Z"/><path stroke="#263238" d="M86.93 141.48a20.536 20.536 0 0 0-9.45-11.61c-4.5-2.54-9.79-3.29-14.82-2.1-5.03 1.2-9.42 4.24-12.3 8.53-2.87 4.3-4.02 9.52-3.22 14.62.81 5.1 3.51 9.72 7.57 12.91 4.06 3.2 9.17 4.75 14.32 4.33 5.15-.41 9.96-2.75 13.46-6.55 3.5-3.81 5.43-8.79 5.41-13.96v-.46l9.51-5.71H86.93Z"/><path fill="#263238" d="M57.46 154.49c-.37.65-.79 1.26-1.25 1.85-.16-.23-.33-.44-.51-.64 1.29-1.73 2.26-3.68 2.85-5.76l.98.3c-.05.12-.15.14-.28.13-.32.95-.7 1.89-1.13 2.8l.34.09c0 .07-.08.13-.23.14v7.52h-.77v-6.43Zm8.09.29c.09-.44.21-1.11.32-1.75h-2.36v6.91c0 .84-.3 1-1.96 1a3.26 3.26 0 0 0-.29-.81h1.27c.16 0 .21-.05.21-.21v-6.89h-1.9c-.31.8-.71 1.55-1.2 2.24-.18-.18-.38-.35-.6-.48.97-1.46 1.64-3.09 1.95-4.82l.98.27c0 .08-.1.13-.26.12-.16.65-.36 1.3-.59 1.93h5.64c-.13.88-.3 1.75-.54 2.6l-.67-.11Zm-3.78.38c-.04.09-.12.14-.26.14-.35 1.41-.96 2.75-1.8 3.94-.19-.15-.4-.29-.63-.4.84-1.19 1.43-2.54 1.73-3.96l.96.28Zm4.29 3.99c-.36-1.43-.9-2.8-1.62-4.08l.7-.25c.74 1.26 1.31 2.62 1.68 4.04l-.76.29ZM71.71 152.41l.45.12-.08.16c-.08 1.75-.47 3.47-1.13 5.09.51.37.99.8 1.4 1.28l-.48.66c-.38-.46-.8-.87-1.26-1.24a6.388 6.388 0 0 1-2.34 2.47 3.88 3.88 0 0 0-.5-.65 5.53 5.53 0 0 0 2.22-2.3c-.43-.33-.88-.63-1.34-.91l-.15.52-.67-.35c.29-1.04.66-2.54 1-4.07h-1.2v-.75h1.35c.19-.88.35-1.73.5-2.49l.97.12c0 .08-.09.13-.24.14-.13.68-.3 1.44-.47 2.23h1.79l.18-.03Zm-2.13.78c-.25 1.1-.52 2.21-.77 3.18.49.27 1 .59 1.5.94.53-1.32.86-2.71.98-4.12h-1.71Zm9.02 2.03v.77h-2.86v3.91c0 .91-.35 1.05-2.44 1.03-.07-.27-.17-.54-.3-.79h1.42c.4 0 .52 0 .52-.25v-3.92h-2.89v-.77h2.89v-2.01h.39c.65-.58 1.24-1.22 1.75-1.92h-4.55v-.75h5.15l.16-.05.62.39c-.05.06-.11.1-.19.12-.72 1.01-1.57 1.93-2.53 2.73v1.47l2.86.04ZM77.59 133.47H57.28v12.78h20.31v-12.78Z"/><path stroke="#263238" stroke-linejoin="round" d="M77.59 133.47v12.78H57.28v-12.78h20.31Z"/><path fill="#FFF" d="m59.68 134.22.5 1 1.09.16-.79.77.19 1.09-.99-.51-.98.51.19-1.09-.79-.77 1.09-.16.49-1ZM62.87 133.83l.26.52.56.08-.41.4.1.56-.51-.26-.5.26.09-.56-.41-.4.57-.08.25-.52ZM63.56 136.43l.25.51.57.08-.42.4.1.56-.5-.26-.51.26.09-.56-.4-.4.56-.08.26-.51ZM61.87 138.13l.25.51.57.08-.41.4.1.56-.51-.27-.5.27.09-.56-.41-.4.57-.08.25-.51ZM59.53 138.9l.25.51.57.09-.41.4.1.56-.51-.26-.5.26.1-.56-.42-.4.57-.09.25-.51Z"/><path stroke="#263238" stroke-linecap="round" stroke-linejoin="round" stroke-width="3" d="M181.48 92.97c0-3.26-.64-6.48-1.89-9.49a24.839 24.839 0 0 0-5.38-8.05c-2.3-2.3-5.04-4.13-8.05-5.37a24.723 24.723 0 0 0-9.49-1.89h-8.63a24.803 24.803 0 0 0-24.81 24.8"/><path stroke="#263238" stroke-linecap="round" stroke-linejoin="round" stroke-width="6" d="M181.48 111.34V92.97M123.23 92.97v18.37"/><path fill="#FFF" d="M141.05 138.9s1.55 10.82 1.23 13.6c-.31 2.78-.92 5.56-8.65 2.47-7.73-3.09-21.63 2.48-30.59 13.29-8.97 10.81-25.96 46.97-25.96 51.3 0 4.32 3.4 10.16 9.57 11.12 6.17.96 20.7-16.68 20.7-16.68s6.18 34.91 6.18 37.67c0 2.76-2.77 21.01-2.77 21.01h87.46l-3.41-22.55 6.19-49.76s25.64 34.92 31.21 36.48c5.56 1.56 14.21-1.24 16.37-7.72 2.17-6.49-1.23-13.29-5.56-18.24-4.33-4.94-31.52-48.51-36.48-52.53-4.96-4.01-18.85-4.33-23.8-3.09-4.94 1.24-13.28 3.09-15.45 1.86-2.16-1.24-2.16-12.98 0-18.24.02.01-18.83 4.96-26.24.01Z"/><path stroke="#263238" stroke-linejoin="round" d="M142.28 152.5c-.31 2.78-.92 5.56-8.65 2.47-7.73-3.09-21.63 2.48-30.59 13.29-8.97 10.81-25.96 46.97-25.96 51.3 0 4.32 3.4 10.16 9.57 11.12 6.17.96 20.7-16.68 20.7-16.68s6.18 34.91 6.18 37.67c0 2.76-2.77 21.01-2.77 21.01h87.46l-3.41-22.55 6.19-49.76s25.64 34.92 31.21 36.48c5.56 1.56 14.21-1.24 16.37-7.72 2.17-6.49-1.23-13.29-5.56-18.24-4.33-4.94-31.52-48.51-36.48-52.53-4.96-4.01-18.85-4.33-23.8-3.09-4.94 1.24-13.28 3.09-15.45 1.86-2.16-1.24-2.16-12.98 0-18.24.02.01-18.83 4.96-26.24.01 0 0 1.55 10.82 1.23 13.6Z"/><path stroke="#263238" stroke-linecap="round" stroke-linejoin="round" d="M128.97 232.99c.99.39 2.01.72 3.04 1M113.02 213.17s1.37 12.01 12.69 18.3M148.21 178l6.02 8.79M207.7 186.4l1.59-3.31M205.12 182.16 201 200.4l5.07-10.58M223.65 215.02s6.53-4.19 12.96-4.19"/><path fill="#FFF" d="M210.36 227.56c4.14-2.24 8.1-4.8 11.83-7.67a26.454 26.454 0 0 1 18.84-5.33c6.17.66 9.5 8.33 9.67 16 .16 7.67-4.01 12.33-11.5 13.5-7.5 1.16-16.34-.5-21.84-1.83-2.91-.74-5.86-1.3-8.84-1.67 0 0-7.16-11 1.84-13Z"/><path stroke="#263238" stroke-linejoin="round" d="M222.19 219.89a26.454 26.454 0 0 1 18.84-5.33c6.17.66 9.5 8.33 9.67 16 .16 7.67-4.01 12.33-11.5 13.5-7.5 1.16-16.34-.5-21.84-1.83-2.91-.74-5.86-1.3-8.84-1.67 0 0-7.16-11 1.84-13 4.14-2.24 8.1-4.8 11.83-7.67Z"/><path fill="#FFF" d="M250.7 230.56c-.17-7.67-3.5-15.34-9.67-16-6.73-.7-13.47 1.21-18.84 5.33l-.83.64c7.17.25 21.68 3.18 19.41 23.22 6.5-1.56 10.08-6.08 9.93-13.19Z"/><path stroke="#263238" stroke-linejoin="round" d="M241.03 214.56c-6.73-.7-13.47 1.21-18.84 5.33l-.83.64c7.17.25 21.68 3.18 19.41 23.22 6.5-1.56 10.08-6.08 9.93-13.19-.17-7.67-3.5-15.34-9.67-16Z"/><path fill="#FFF" d="M141.05 138.9s1.54 10.82 1.23 13.6c-.23 2.09-.64 4.19-4.08 3.78 4.93 8.06 19.24 26.97 32.59 1.2-1.56.09-2.81 0-3.48-.37-2.16-1.24-2.16-12.98 0-18.23 0 .02-18.85 4.97-26.26.02Z"/><path stroke="#263238" stroke-linejoin="round" d="M142.28 152.5c-.23 2.09-.64 4.19-4.08 3.78 4.93 8.06 19.24 26.97 32.59 1.2-1.56.09-2.81 0-3.48-.37-2.16-1.24-2.16-12.98 0-18.23 0 .02-18.85 4.97-26.26.02 0 0 1.54 10.82 1.23 13.6Z"/><path fill="#263238" d="M141.05 138.9s.4 2.82.75 5.94c3.58 1.9 7.55 2.97 11.6 3.15 4.48.08 8.88-1.2 12.62-3.65.2-1.86.64-3.68 1.29-5.44 0 0-18.85 4.95-26.26 0Z"/><path stroke="#263238" stroke-linejoin="round" d="M141.8 144.84c3.58 1.9 7.55 2.97 11.6 3.15 4.48.08 8.88-1.2 12.62-3.65.2-1.86.64-3.68 1.29-5.44 0 0-18.85 4.95-26.26 0 0 0 .4 2.82.75 5.94Z"/><path fill="#263238" d="M124.06 101.51h-1.7c-2.1 0-3.79 1.69-3.79 3.79v14.5c0 2.1 1.69 3.8 3.79 3.8h1.7c2.1 0 3.79-1.7 3.79-3.8v-14.5c0-2.1-1.69-3.79-3.79-3.79Z"/><path stroke="#263238" stroke-linejoin="round" d="M124.06 101.51c2.1 0 3.79 1.69 3.79 3.79v14.5c0 2.1-1.69 3.8-3.79 3.8h-1.7c-2.1 0-3.79-1.7-3.79-3.8v-14.5c0-2.1 1.69-3.79 3.79-3.79h1.7Z"/><path fill="#FFF" d="M124.16 101.52h-1.9v22.06h1.9v-22.06Z"/><path stroke="#263238" stroke-linejoin="round" d="M123.73 101.52h-1.47v22.06h1.9v-22.06h-.43Z"/><path fill="#263238" d="M182.5 101.51h-1.7c-2.1 0-3.8 1.69-3.8 3.79v14.5c0 2.1 1.7 3.8 3.8 3.8h1.7c2.09 0 3.79-1.7 3.79-3.8v-14.5c0-2.1-1.7-3.79-3.79-3.79Z"/><path stroke="#263238" stroke-linejoin="round" d="M182.5 101.51c2.09 0 3.79 1.69 3.79 3.79v14.5c0 2.1-1.7 3.8-3.79 3.8h-1.7c-2.1 0-3.8-1.7-3.8-3.8v-14.5c0-2.1 1.7-3.79 3.8-3.79h1.7Z"/><path fill="#FFF" d="M182.6 101.52h-1.9v22.06h1.9v-22.06Z"/><path stroke="#263238" stroke-linejoin="round" d="M182.18 101.52h-1.48v22.06h1.9v-22.06h-.42Z"/><path fill="#FFF" d="M108.61 118.95c-.72.07-1.42.31-2.02.71-.61.41-1.1.96-1.44 1.6-1.39 2.31-5.77 10.85-5.31 13.39.46 2.54 19.62 20.54 19.62 21.69 0 1.16-15.23 21.93-25.39 31.16-10.16 9.24-18.24 19.62-19.62 27.93-1.39 8.31 3.46 15.23 8.54 16.62 5.09 1.39 11.31-1.62 18.46-10.62 7.15-9.01 26.78-48.24 29.78-61.6 0 0 .69-5.98-2.08-9.46-2.77-3.49-9.69-11.54-9.69-11.54s1.39-15.93.23-17.08c-1.15-1.16-2.31 1.39-2.31 1.39s-1.07-5.34-2.54-5.09c-1.61.29-2.07 2.31-2.07 2.31s-1.16-4.65-4.16-1.41Z"/><path stroke="#263238" stroke-linejoin="round" d="M106.59 119.66c-.61.41-1.1.96-1.44 1.6-1.39 2.31-5.77 10.85-5.31 13.39.46 2.54 19.62 20.54 19.62 21.69 0 1.16-15.23 21.93-25.39 31.16-10.16 9.24-18.24 19.62-19.62 27.93-1.39 8.31 3.46 15.23 8.54 16.62 5.09 1.39 11.31-1.62 18.46-10.62 7.15-9.01 26.78-48.24 29.78-61.6 0 0 .69-5.98-2.08-9.46-2.77-3.49-9.69-11.54-9.69-11.54s1.39-15.93.23-17.08c-1.15-1.16-2.31 1.39-2.31 1.39s-1.07-5.34-2.54-5.09c-1.61.29-2.07 2.31-2.07 2.31s-1.16-4.65-4.16-1.41c-.72.07-1.42.31-2.02.71Z"/><path stroke="#263238" stroke-linecap="round" stroke-linejoin="round" d="M117.38 123.11s-3.31 13.25-2.99 15.49M112.77 120.33s-3.51 12.89-3.96 14.69c-.15.58-.18 1.2-.08 1.79.09.6.31 1.17.64 1.68M108.61 118.95s-4.96 13.83-4.96 15.28c0 1.46 1.13 3.25 1.13 3.25"/><path fill="#FFF" d="M104.2 176.72c-3.16 3.79-6.54 7.39-10.13 10.77-10.17 9.22-18.24 19.61-19.62 27.92-1.39 8.32 3.46 15.23 8.54 16.62 5.09 1.39 11.31-1.61 18.46-10.62 4.12-5.18 12.36-20.37 19.19-34.88-10.4-2.76-14.7-7.07-16.44-9.81Z"/><path stroke="#263238" stroke-linejoin="round" d="M94.07 187.49c-10.17 9.22-18.24 19.61-19.62 27.92-1.39 8.32 3.46 15.23 8.54 16.62 5.09 1.39 11.31-1.61 18.46-10.62 4.12-5.18 12.36-20.37 19.19-34.88-10.4-2.76-14.7-7.07-16.44-9.81-3.16 3.79-6.54 7.39-10.13 10.77Z"/><path fill="#FFF" d="M127.65 90.06s-.4 32.13.81 38.16c1.21 6.03 12.05 16.26 24.52 16.66 12.46.4 22.29-11.04 23.49-17.07 1.2-6.03 0-30.12-.2-39.76-.19-9.64-14.05-18.27-28.1-16.07-14.05 2.21-21.32 10.44-20.52 18.08Z"/><path stroke="#263238" stroke-linejoin="round" d="M128.46 128.22c1.21 6.03 12.05 16.26 24.52 16.66 12.46.4 22.29-11.04 23.49-17.07 1.2-6.03 0-30.12-.2-39.76-.19-9.64-14.05-18.27-28.1-16.07-14.05 2.21-21.32 10.44-20.52 18.08 0 0-.4 32.13.81 38.16Z"/><path stroke="#263238" stroke-linecap="round" stroke-linejoin="round" d="M158.18 103.11s.8 5.63 1.61 6.83c.81 1.2 2.2 2.81-.6 4.02-2.8 1.2-5.02-.21-5.02-1.61"/><path fill="#FFF" d="M161.19 122.99s-10.84 1.39-15.66-3.39c0 0 1.19 7.43 4.82 8.64 3.62 1.2 10.84-5.25 10.84-5.25Z"/><path stroke="#263238" stroke-linejoin="round" d="M145.53 119.6s1.19 7.43 4.82 8.64c3.62 1.2 10.84-5.25 10.84-5.25s-10.84 1.39-15.66-3.39Z"/><path stroke="#263238" stroke-linecap="round" stroke-linejoin="round" d="m147.13 103.31 1.01 3.21"/><path stroke="#263238" stroke-linecap="round" stroke-linejoin="round" stroke-width="2" d="M142.71 106.33s2.81 1.79 8.04.19"/><path stroke="#263238" stroke-linecap="round" stroke-linejoin="round" d="m166.81 103.31 1.01 3.21"/><path stroke="#263238" stroke-linecap="round" stroke-linejoin="round" stroke-width="2" d="M162.39 106.33s2.82 1.79 8.04.19M141.31 97.69c.98-1.31 2.25-2.37 3.72-3.1 1.46-.73 3.08-1.12 4.71-1.12M160.59 93.07s5.82-1.6 9.84 2.99"/><path stroke="#263238" stroke-linejoin="round" d="M153.85 104.53c-.02 1.01-.31 2-.84 2.85l-.11.18a9.431 9.431 0 0 1-3.4 3.24 9.359 9.359 0 0 1-4.54 1.17h-1.25c-1.28 0-2.53-.33-3.64-.97a7.479 7.479 0 0 1-2.67-2.66 6.06 6.06 0 0 1-.34-5.38 6.026 6.026 0 0 1 2.07-2.59c.91-.65 2-1.03 3.12-1.1l5.72-.36c1.02-.06 2.04.16 2.94.65.91.48 1.66 1.21 2.17 2.1.52.87.78 1.86.77 2.87ZM158.9 104.53c.01 1.01.3 2 .83 2.85l.12.18a9.483 9.483 0 0 0 3.39 3.24c1.39.77 2.95 1.17 4.54 1.17h1.26c1.27 0 2.53-.33 3.64-.97 1.1-.64 2.02-1.55 2.66-2.66a6.032 6.032 0 0 0 .35-5.38 6.1 6.1 0 0 0-2.07-2.59c-.92-.65-2-1.03-3.12-1.1l-5.71-.36c-1.03-.06-2.05.16-2.95.65-.91.48-1.66 1.21-2.18 2.1-.51.87-.77 1.86-.76 2.87Z"/><path stroke="#263238" stroke-linecap="round" stroke-linejoin="round" d="M153.76 102.71s1.79-1.41 5.22 0M151.35 99.7h9.84M137.05 102.95h-9.4"/><path fill="#263238" d="M163.6 81.62s5.21 16.71 13.11 21.03c-.18-5.73-.38-11.11-.45-14.6-.21-9.64-14.06-18.27-28.11-16.07-14.05 2.21-21.29 10.44-20.49 18.08 0 0-.06 5.24-.06 11.9 6.78-2.92 24.64-11.07 36-20.34Z"/><path stroke="#737373" stroke-linecap="round" stroke-linejoin="round" d="M126.26 97.57s26.34-11.04 40.58-25.07M124.13 88.65s27.62-6.38 43.56-23.16M168.75 74.41s.42 10.84 11.9 20.82"/><path fill="#263238" d="M165.75 141.84s0 7.28-5.45 18.89c-5.46 11.6-5.7 23.21-2.06 31.86 3.65 8.64 13.44 12.07 23.92 8.2 10.49-3.87 11.84-21.17 10.7-31.64-1.13-10.48-11.36-22.76-13.66-28.91-2.29-6.15-3.87-9.33-3.87-9.33s-5.92 8.19-9.56 10.01l-.02.92Z"/><path stroke="#737373" stroke-linecap="round" stroke-linejoin="round" d="M169.59 133.69c1.32 9.93 0 20.04-3.82 29.3-6.37 15.3-1.49 31.66 5.95 35.06 7.44 3.39 14.66 2.13 18.27-2.55"/><path stroke="#737373" stroke-linecap="round" stroke-linejoin="round" d="M172.36 130.29s7.22 17 4.25 29.75c-2.97 12.75-1.7 28.92 7.22 32.08 8.92 3.16 14.03-3.16 14.03-3.16"/><path stroke="#737373" stroke-linecap="round" stroke-linejoin="round" d="M181.07 141.34s6.16 23.37 6.16 35.48c0 12.11 7.44 10.2 9.35 4.25"/><path stroke="#263238" stroke-linejoin="round" d="M160.3 160.73c-5.46 11.6-5.7 23.21-2.06 31.86 3.65 8.64 13.44 12.07 23.92 8.2 10.49-3.87 11.84-21.17 10.7-31.64-1.13-10.48-11.36-22.76-13.66-28.91-2.29-6.15-3.87-9.33-3.87-9.33s-5.92 8.19-9.56 10.01l-.02.92s0 7.28-5.45 18.89Z"/><path fill="#263238" d="m193.84 206.26-38.82-1.56a3.105 3.105 0 0 0-3.23 2.97l-2.16 53.61a3.105 3.105 0 0 0 2.97 3.23l38.83 1.56c1.71.07 3.16-1.26 3.23-2.97l2.16-53.61a3.107 3.107 0 0 0-2.98-3.23Z"/><path stroke="#263238" stroke-linejoin="round" d="M193.84 206.26c1.72.07 3.05 1.52 2.98 3.23l-2.16 53.61a3.105 3.105 0 0 1-3.23 2.97l-38.83-1.56a3.105 3.105 0 0 1-2.97-3.23l2.16-53.61a3.105 3.105 0 0 1 3.23-2.97l38.82 1.56Z"/><path fill="#FFF" d="M213.63 227.95s-19.88-6.19-23.27-7.23c-3.39-1.04-22.92 13.55-23.7 15.63-.78 2.08 2.08 2.09 2.08 2.09s-1.2 2.08.6 3.12c.56.38 1.16.71 1.79.97 0 0-1.04 2.35 1.04 3.13 2.08.78 4.95-1.3 4.95-1.3l4.69-3.39s-5.63 6.9-4.43 8.34c1.66 1.97 2.72-.15 2.72-.15l6.47-7.67 6.51-3.13s5.21 3.13 13.54 3.39c8.34.26 10.17-3.39 10.17-3.39m-3.04-10.88.02-.01c.27.08.42.36.33.63-.08.26-.36.41-.62.32l-.02-.02.29-.92Zm2.6 10.69-.01-.03a.49.49 0 0 1 .67-.22.5.5 0 0 1 .23.67l-.03.01-.86-.43Z"/><path stroke="#263238" stroke-linecap="round" stroke-linejoin="round" d="M213.63 227.95s-19.88-6.19-23.27-7.23c-3.39-1.04-22.92 13.55-23.7 15.63-.78 2.08 2.08 2.09 2.08 2.09s-1.2 2.08.6 3.12c.56.38 1.16.71 1.79.97 0 0-1.04 2.35 1.04 3.13 2.08.78 4.95-1.3 4.95-1.3l4.69-3.39s-5.63 6.9-4.43 8.34c1.66 1.97 2.72-.15 2.72-.15l6.47-7.67 6.51-3.13s5.21 3.13 13.54 3.39c8.34.26 10.17-3.39 10.17-3.39"/><path stroke="#263238" stroke-linecap="round" stroke-linejoin="round" d="M171.17 242.53s7.3-5.01 9.12-6.82c1.82-1.81 7.71-5.6 9.53-5.6M181.85 240.99s3.59-4.05 4.94-4.66c1.35-.6 3.33-1.51 3.33-1.51M168.74 238.44s10.17-7.18 13.65-9.29a49.14 49.14 0 0 1 6.5-3.33"/></g></svg>