<svg width="284.000000" height="284.000000" viewBox="0 0 284 284" fill="none" xmlns="http://www.w3.org/2000/svg" xmlns:xlink="http://www.w3.org/1999/xlink">
	<desc>
			Created with Pixso.
	</desc>
	<defs>
		<clipPath id="clip598_7417">
			<rect id="Business competition-bro 1" width="284.000000" height="284.000000" fill="white" fill-opacity="0"/>
		</clipPath>
	</defs>
	<rect id="Business competition-bro 1" width="284.000000" height="284.000000" fill="#FFFFFF" fill-opacity="0"/>
	<g clip-path="url(#clip598_7417)">
		<path id="Vector" d="M182.95 55.28C182.36 55.76 181.67 56.09 180.94 56.27C178.92 56.72 173.55 56.49 172.64 58.96C172.35 59.7 171.9 60.36 171.32 60.91C170.74 61.45 170.05 61.85 169.29 62.09C169.29 62.09 165.03 62.32 164.81 63.23C164.58 64.14 163.02 65.7 163.02 65.7L236.28 65.7C236.28 65.7 238.75 61.89 234.72 58.31C231.19 55.18 224.74 59.92 223.92 56.04" stroke="#263238" stroke-opacity="1.000000" stroke-width="1.000000" stroke-linejoin="round" stroke-linecap="round"/>
		<path id="Vector" d="M223.26 50.34C222.44 47.39 220.72 43.41 217.23 41.94C211.4 39.47 206.48 42.83 205.13 46.19C203.78 49.55 202.89 51.79 197.75 48.88C192.6 45.96 188.09 46.19 186.54 50.01C186.1 51.12 185.54 52.18 184.88 53.17" stroke="#263238" stroke-opacity="1.000000" stroke-width="1.000000" stroke-linejoin="round" stroke-linecap="round"/>
		<path id="Vector" d="M58.53 94.34L83.97 94.34C83.97 94.34 85.46 92.07 83.02 89.87C80.58 87.67 75.83 91.77 76.52 87.16C76.52 87.16 75.95 81.48 72.45 79.98C71.55 79.57 70.56 79.4 69.57 79.49C68.58 79.58 67.64 79.92 66.83 80.49" stroke="#263238" stroke-opacity="1.000000" stroke-width="1.000000" stroke-linejoin="round" stroke-linecap="round"/>
		<path id="Vector" d="M65.13 82.55C64.32 84.59 63.78 85.96 60.66 84.18C57.55 82.4 54.83 82.55 53.89 84.86C52.94 87.17 51.72 88.38 50.48 88.65C49.24 88.92 46.01 88.79 45.46 90.28C45.29 90.73 45.01 91.13 44.66 91.46C44.31 91.78 43.89 92.03 43.43 92.18C43.43 92.18 40.86 92.31 40.72 92.85C40.45 93.41 40.08 93.91 39.64 94.34L54.52 94.34" stroke="#263238" stroke-opacity="1.000000" stroke-width="1.000000" stroke-linejoin="round" stroke-linecap="round"/>
		<path id="Vector" d="M185.87 94.34L197.89 94.34C197.89 94.34 199.38 92.07 196.94 89.87C194.5 87.67 189.76 91.77 190.43 87.16C190.43 87.16 189.89 81.48 186.37 79.98C182.84 78.48 179.87 80.55 179.05 82.55C178.23 84.56 177.7 85.96 174.58 84.18C171.46 82.39 168.75 82.55 167.81 84.86C166.87 87.17 165.64 88.38 164.4 88.65C163.17 88.92 159.93 88.78 159.39 90.28C159.22 90.73 158.94 91.13 158.59 91.46C158.24 91.78 157.82 92.03 157.36 92.18C157.36 92.18 154.79 92.31 154.65 92.85C154.38 93.41 154.01 93.91 153.57 94.34L181.86 94.34" stroke="#263238" stroke-opacity="1.000000" stroke-width="1.000000" stroke-linejoin="round" stroke-linecap="round"/>
		<g opacity="0.100000">
			<g opacity="0.100000">
				<path id="Vector" d="M13.19 131.87C15.43 132.31 20.4 131.11 20.4 131.11C20.4 131.11 18.62 128.07 18.48 127.9C16.88 125.84 12.59 122.79 9.86 123.81C9.41 123.99 9 124.26 8.66 124.6C8.32 124.95 8.06 125.36 7.89 125.82C7.73 126.27 7.66 126.75 7.69 127.24C7.72 127.72 7.85 128.19 8.07 128.62C8.96 130.47 11.29 131.49 13.19 131.87Z" fill="#000000" fill-opacity="1.000000" fill-rule="nonzero"/>
			</g>
			<g opacity="0.100000">
				<path id="Vector" d="M18.07 145.97C20.25 145.82 24.42 143.56 24.76 143.38C26.05 145.77 27.5 148.07 29.09 150.27C30.01 151.55 30.99 152.82 31.97 154.07C31.43 153.57 30.95 153.12 30.88 153.06C28.8 151.5 23.86 149.71 21.48 151.39C21.1 151.69 20.78 152.06 20.54 152.48C20.31 152.9 20.16 153.37 20.12 153.85C20.08 154.33 20.14 154.82 20.29 155.28C20.45 155.73 20.7 156.15 21.03 156.51C22.39 158.05 24.89 158.42 26.83 158.28C28.76 158.15 32.39 156.29 33.34 155.79C33.72 156.26 34.1 156.75 34.47 157.22C36.32 159.5 38.18 161.77 39.94 164.07C40.56 164.88 41.13 165.7 41.71 166.51C41.24 166.06 40.83 165.69 40.77 165.64C38.68 164.07 33.75 162.28 31.37 163.97C30.98 164.26 30.66 164.63 30.43 165.05C30.19 165.48 30.05 165.94 30 166.43C29.96 166.91 30.02 167.4 30.18 167.85C30.34 168.31 30.59 168.73 30.92 169.08C32.27 170.63 34.78 171 36.72 170.86C38.65 170.72 41.93 169.04 43.05 168.45C43.62 169.3 44.19 170.16 44.71 171.01C45.05 171.58 45.42 172.14 45.72 172.75L46.67 174.53C47.24 175.67 47.8 176.87 48.32 178.01C48.68 178.8 49.02 179.55 49.35 180.32C48.75 179.51 47.53 177.94 47.41 177.82C45.59 175.97 40.98 173.46 38.37 174.76C37.95 174.99 37.58 175.3 37.28 175.68C36.98 176.07 36.77 176.51 36.66 176.98C36.54 177.45 36.53 177.94 36.61 178.41C36.7 178.89 36.89 179.34 37.16 179.74C38.26 181.48 40.68 182.22 42.62 182.37C44.75 182.55 49.05 181.03 49.59 180.84C50.16 182.1 50.67 183.33 51.14 184.51C51.5 185.37 51.84 186.21 52.15 187.02L53.92 186.63C53.54 185.74 53.15 184.81 52.73 183.83C52.17 182.55 51.56 181.19 50.91 179.8C52.12 178.97 53.29 178.08 54.4 177.11C56.2 178.38 60.33 179.39 60.87 179.54C60.63 180.9 60.39 182.22 60.14 183.46C60.01 184.12 59.88 184.74 59.75 185.36L61.62 184.95C61.7 184.56 61.76 184.18 61.83 183.78C62.08 182.4 62.32 180.94 62.54 179.4C63.11 179.4 67.66 179.32 69.61 178.42C71.38 177.6 73.39 176.06 73.82 174.05C73.93 173.58 73.95 173.09 73.87 172.62C73.78 172.14 73.6 171.69 73.33 171.29C73.06 170.89 72.71 170.55 72.29 170.29C71.88 170.04 71.42 169.87 70.94 169.8C68.05 169.49 64.6 173.45 63.56 175.82C63.5 175.96 62.99 177.56 62.69 178.57C62.77 177.94 62.87 177.34 62.95 176.7C63.12 175.43 63.26 174.17 63.41 172.8C63.46 172.14 63.51 171.47 63.57 170.79C63.62 170.12 63.62 169.41 63.65 168.71C63.65 167.09 63.65 165.45 63.54 163.8C64.68 163.94 68.6 164.42 70.47 163.87C72.34 163.33 74.56 162.11 75.29 160.19C75.48 159.75 75.57 159.27 75.56 158.78C75.55 158.3 75.43 157.82 75.23 157.39C75.02 156.95 74.72 156.56 74.36 156.25C73.99 155.93 73.56 155.7 73.1 155.56C70.26 154.8 66.28 158.19 64.86 160.38C64.78 160.52 63.94 162.2 63.5 163.13C63.44 162.14 63.38 161.15 63.29 160.14C63.03 157.25 62.67 154.32 62.33 151.4C62.22 150.5 62.12 149.61 62.03 148.72C62.42 148.78 67.1 149.45 69.2 148.83C71.06 148.27 73.28 147.07 74.02 145.15C74.2 144.71 74.29 144.23 74.28 143.74C74.27 143.26 74.16 142.78 73.95 142.35C73.74 141.91 73.45 141.52 73.08 141.21C72.71 140.89 72.28 140.66 71.82 140.52C68.98 139.76 65 143.16 63.59 145.34C63.48 145.5 62.28 147.93 62.01 148.56C61.79 146.59 61.59 144.63 61.48 142.69C61.31 140.07 61.31 137.44 61.48 134.82C61.66 134.84 66.55 135.57 68.69 134.93C70.56 134.37 72.78 133.18 73.51 131.25C73.7 130.81 73.79 130.33 73.78 129.84C73.77 129.36 73.65 128.89 73.45 128.45C73.24 128.01 72.94 127.62 72.58 127.31C72.21 126.99 71.78 126.76 71.32 126.62C68.48 125.87 64.5 129.26 63.08 131.45C62.97 131.62 61.69 134.22 61.49 134.71C61.49 134.56 61.49 134.4 61.49 134.25C61.73 131.62 62.21 129.03 62.91 126.49C63.28 125.08 63.72 123.76 64.17 122.48C65.07 122.71 69.17 123.7 71.16 123.35C73.16 123 75.42 122.05 76.36 120.22C76.59 119.8 76.73 119.33 76.78 118.85C76.82 118.36 76.76 117.88 76.6 117.42C76.44 116.97 76.19 116.55 75.86 116.19C75.53 115.84 75.13 115.56 74.68 115.37C71.97 114.31 67.61 117.25 65.97 119.26C65.88 119.37 65.1 120.59 64.54 121.48C64.75 120.91 64.96 120.31 65.17 119.78C65.97 117.72 66.83 115.9 67.6 114.28C68.05 113.36 68.47 112.57 68.88 111.78C69.87 111.55 73.87 110.55 75.45 109.34C77.03 108.13 78.63 106.23 78.62 104.17C78.63 103.69 78.54 103.21 78.36 102.76C78.17 102.31 77.9 101.91 77.54 101.58C77.19 101.24 76.78 100.99 76.32 100.83C75.86 100.66 75.38 100.6 74.9 100.64C72 100.95 69.48 105.56 68.96 108.11C68.92 108.32 68.6 111.85 68.65 111.84L68.71 111.84C68.3 112.57 67.88 113.35 67.43 114.21C66.63 115.81 65.73 117.62 64.88 119.67C63.95 121.84 63.15 124.07 62.47 126.34C61.71 128.89 61.16 131.51 60.86 134.16C60.86 134.19 60.86 134.23 60.86 134.26C60.69 133.42 60.15 131.1 60.08 130.92C59.21 128.48 56.08 124.26 53.16 124.35C52.68 124.38 52.21 124.51 51.79 124.74C51.36 124.96 50.98 125.27 50.68 125.65C50.38 126.03 50.16 126.46 50.04 126.93C49.92 127.4 49.9 127.89 49.98 128.36C50.25 130.4 52.14 132.08 53.83 133.04C55.74 134.12 60.47 134.53 60.84 134.57C60.6 137.27 60.54 139.99 60.66 142.71C60.72 144.28 60.83 145.87 60.96 147.47C60.79 146.75 60.63 146.11 60.61 146.02C59.73 143.57 56.6 139.36 53.69 139.45C53.21 139.48 52.73 139.61 52.3 139.83C51.87 140.05 51.5 140.36 51.2 140.74C50.9 141.12 50.68 141.56 50.56 142.03C50.44 142.5 50.41 142.98 50.5 143.46C50.77 145.5 52.65 147.19 54.35 148.14C56.04 149.1 60.09 149.55 61.16 149.65C61.22 150.26 61.27 150.87 61.33 151.48C61.61 154.41 61.9 157.33 62.1 160.21C62.17 161.22 62.2 162.22 62.24 163.22C62.09 162.59 61.96 162.05 61.93 161.97C61.05 159.52 57.95 155.3 55.01 155.39C54.53 155.42 54.06 155.55 53.63 155.78C53.2 156 52.82 156.31 52.52 156.69C52.22 157.07 52 157.51 51.88 157.98C51.76 158.44 51.74 158.93 51.82 159.41C52.09 161.45 53.98 163.14 55.67 164.09C57.36 165.04 61.02 165.45 62.29 165.58C62.29 166.6 62.29 167.63 62.29 168.62C62.24 169.3 62.25 169.96 62.17 170.64C62.09 171.32 62.04 171.98 61.98 172.64C61.8 173.91 61.63 175.22 61.41 176.45C61.28 177.31 61.13 178.13 60.99 178.95C60.94 177.94 60.78 175.96 60.75 175.8C60.22 173.57 59.13 171.52 57.58 169.83C57.54 169.58 57.47 169.33 57.37 169.09C57.21 168.64 56.96 168.22 56.63 167.87C56.29 167.52 55.89 167.24 55.44 167.06C55 166.87 54.52 166.78 54.03 166.8C53.55 166.81 53.07 166.93 52.64 167.13C50.05 168.46 49.35 173.67 49.8 176.22C49.8 176.37 50.28 177.98 50.58 178.99C50.31 178.43 50.06 177.86 49.77 177.29C49.21 176.15 48.64 175.02 48.01 173.78L47.03 172.03C46.71 171.46 46.31 170.84 45.95 170.25C45.08 168.88 44.13 167.53 43.15 166.2C44.16 165.71 47.69 163.93 48.97 162.44C50.26 160.96 51.41 158.72 50.96 156.72C50.87 156.24 50.68 155.79 50.4 155.4C50.12 155 49.77 154.67 49.35 154.42C48.94 154.17 48.48 154.01 48 153.95C47.52 153.89 47.03 153.94 46.57 154.08C43.81 155 42.34 160.05 42.37 162.64C42.37 162.81 42.6 164.67 42.74 165.69C42.17 164.9 41.56 164.1 40.92 163.31C39.11 161.03 37.19 158.8 35.3 156.55C34.73 155.87 34.16 155.17 33.59 154.49C33.95 154.32 38.23 152.29 39.64 150.62C40.89 149.14 42.07 146.9 41.62 144.89C41.53 144.42 41.34 143.96 41.07 143.57C40.79 143.17 40.44 142.83 40.02 142.58C39.61 142.33 39.14 142.17 38.66 142.11C38.18 142.06 37.7 142.1 37.23 142.24C34.47 143.16 33 148.2 33.03 150.81C33.03 151 33.37 153.68 33.48 154.35C32.22 152.84 30.97 151.31 29.81 149.75C28.22 147.66 26.77 145.47 25.47 143.19C25.63 143.11 30.1 141.01 31.55 139.3C32.8 137.82 33.99 135.58 33.54 133.58C33.45 133.1 33.26 132.65 32.98 132.25C32.71 131.86 32.35 131.52 31.93 131.27C31.52 131.02 31.06 130.86 30.58 130.8C30.1 130.74 29.61 130.78 29.15 130.92C26.38 131.85 24.91 136.89 24.94 139.49C24.94 139.69 25.31 142.58 25.41 143.1C25.34 142.96 25.24 142.84 25.17 142.7C23.93 140.37 22.89 137.95 22.08 135.44C21.61 134.07 21.24 132.72 20.94 131.4C21.82 131.1 25.79 129.66 27.26 128.27C28.73 126.87 30.1 124.86 29.86 122.8C29.82 122.31 29.69 121.84 29.46 121.42C29.23 120.99 28.91 120.62 28.53 120.33C28.14 120.03 27.7 119.82 27.23 119.71C26.76 119.6 26.27 119.58 25.79 119.67C22.95 120.29 20.93 125.14 20.68 127.73C20.68 127.87 20.68 129.31 20.72 130.37C20.57 129.77 20.42 129.16 20.29 128.58C19.83 126.43 19.53 124.43 19.29 122.66C19.16 121.65 19.06 120.74 18.98 119.88C19.68 119.13 22.46 116.09 23.11 114.2C23.77 112.31 24.04 109.85 22.9 108.14C22.65 107.73 22.31 107.38 21.91 107.11C21.5 106.84 21.05 106.65 20.57 106.57C20.1 106.48 19.61 106.5 19.14 106.62C18.67 106.73 18.23 106.95 17.85 107.25C15.61 109.1 16.05 114.34 17.02 116.75C17.1 116.96 18.78 120.08 18.81 120.04L18.86 119.99C18.92 120.82 19 121.69 19.1 122.67C19.31 124.45 19.56 126.46 19.98 128.64C20.42 130.98 20.99 133.3 21.69 135.58C22.45 138.13 23.45 140.61 24.66 142.99C24.66 142.99 24.69 143.05 24.7 143.07C24.13 142.47 22.37 140.83 22.22 140.72C20.14 139.16 15.2 137.37 12.83 139.06C12.44 139.35 12.12 139.72 11.88 140.14C11.64 140.56 11.5 141.03 11.46 141.51C11.42 142 11.48 142.48 11.63 142.94C11.79 143.4 12.05 143.82 12.38 144.17C13.63 145.73 16.13 146.09 18.07 145.97Z" fill="#000000" fill-opacity="1.000000" fill-rule="nonzero"/>
			</g>
			<g opacity="0.100000">
				<path id="Vector" d="M63.94 121.95C63.99 121.95 64.13 118.43 64.11 118.21C63.91 115.62 62 110.73 59.17 110.05C58.7 109.95 58.21 109.95 57.74 110.05C57.27 110.15 56.82 110.35 56.43 110.64C56.04 110.92 55.71 111.29 55.47 111.71C55.23 112.13 55.08 112.59 55.03 113.07C54.76 115.11 56.14 117.24 57.51 118.61C59.13 120.21 63.94 121.95 63.94 121.95Z" fill="#000000" fill-opacity="1.000000" fill-rule="nonzero"/>
			</g>
		</g>
		<g opacity="0.100000">
			<g opacity="0.100000">
				<path id="Vector" d="M266.42 180.78C264.5 180.85 260.53 179.19 260.53 179.19C260.53 179.19 262.42 176.92 262.56 176.78C264.16 175.29 268.13 173.34 270.27 174.51C270.62 174.72 270.92 175 271.15 175.33C271.39 175.66 271.55 176.04 271.63 176.44C271.71 176.84 271.7 177.25 271.61 177.65C271.52 178.04 271.35 178.42 271.11 178.75C270.11 180.19 268.05 180.72 266.42 180.78Z" fill="#000000" fill-opacity="1.000000" fill-rule="nonzero"/>
			</g>
			<g opacity="0.100000">
				<path id="Vector" d="M260.49 191.84C258.69 191.42 255.53 189 255.27 188.79C253.88 190.6 252.36 192.32 250.73 193.93C249.79 194.88 248.82 195.8 247.83 196.72C248.34 196.36 248.8 196.06 248.88 196.02C250.81 195 255.15 194.18 256.9 195.89C257.19 196.19 257.4 196.54 257.54 196.92C257.68 197.3 257.74 197.71 257.71 198.11C257.68 198.52 257.57 198.92 257.37 199.27C257.18 199.63 256.92 199.95 256.6 200.2C255.27 201.31 253.14 201.27 251.55 200.9C249.96 200.53 247.18 198.5 246.47 197.95C246.08 198.3 245.71 198.65 245.33 198.99C243.49 200.65 241.65 202.29 239.88 203.96C239.26 204.53 238.67 205.15 238.08 205.75C238.53 205.44 238.92 205.18 238.98 205.15C240.92 204.13 245.27 203.31 247.01 205.02C247.3 205.31 247.51 205.66 247.65 206.04C247.79 206.43 247.85 206.83 247.82 207.24C247.79 207.64 247.68 208.04 247.48 208.4C247.29 208.76 247.03 209.07 246.71 209.32C245.38 210.46 243.25 210.4 241.65 210.03C240.06 209.66 237.56 207.82 236.7 207.19C236.14 207.82 235.53 208.46 235 209.09C234.64 209.54 234.26 209.94 233.93 210.41L232.9 211.76C232.29 212.64 231.65 213.55 231.07 214.43C230.66 215.03 230.29 215.62 229.9 216.21C230.51 215.61 231.73 214.51 231.85 214.4C233.61 213.1 237.77 211.63 239.77 213.05C240.09 213.3 240.36 213.61 240.55 213.97C240.75 214.33 240.86 214.72 240.9 215.13C240.93 215.53 240.88 215.94 240.74 216.33C240.61 216.71 240.39 217.06 240.11 217.36C238.98 218.65 236.85 218.95 235.22 218.82C233.43 218.68 230.06 216.84 229.64 216.61C229.01 217.58 228.41 218.54 227.86 219.45C227.45 220.12 227.05 220.77 226.68 221.4L225.27 220.83C225.69 220.14 226.15 219.42 226.62 218.66C227.26 217.67 227.96 216.62 228.68 215.55C227.78 214.71 226.93 213.81 226.14 212.86C224.48 213.67 220.9 214 220.46 214C220.46 215.13 220.5 216.27 220.55 217.35C220.55 217.91 220.59 218.45 220.61 218.98L219.11 218.41C219.11 218.07 219.11 217.75 219.11 217.4C219.11 216.22 219.11 214.96 219.11 213.67C218.65 213.59 214.85 212.93 213.37 211.92C212.01 211 210.53 209.45 210.46 207.72C210.42 207.32 210.47 206.91 210.61 206.53C210.74 206.14 210.95 205.79 211.23 205.49C211.51 205.19 211.85 204.96 212.22 204.8C212.6 204.64 213 204.57 213.41 204.58C215.85 204.7 218.19 208.45 218.76 210.56C218.8 210.69 219.01 212.08 219.13 212.97C219.13 212.43 219.13 211.92 219.15 211.38C219.15 210.3 219.23 209.23 219.28 208.08C219.34 207.51 219.38 206.94 219.43 206.37C219.47 205.8 219.57 205.24 219.64 204.63C219.83 203.28 220.09 201.92 220.38 200.56C219.44 200.56 216.09 200.41 214.61 199.7C213.13 199 211.45 197.7 211.1 196C211 195.61 210.99 195.19 211.07 194.79C211.14 194.39 211.3 194.01 211.53 193.68C211.76 193.34 212.06 193.06 212.4 192.85C212.75 192.64 213.14 192.5 213.54 192.45C215.98 192.2 218.86 195.55 219.74 197.56C219.8 197.68 220.27 199.19 220.51 200.02C220.69 199.2 220.86 198.39 221.07 197.57C221.68 195.19 222.37 192.81 223.04 190.43C223.25 189.7 223.45 188.97 223.65 188.25C223.32 188.25 219.34 188.17 217.68 187.38C216.2 186.68 214.51 185.37 214.17 183.68C214.07 183.29 214.06 182.87 214.13 182.47C214.2 182.07 214.36 181.69 214.59 181.36C214.82 181.02 215.12 180.74 215.47 180.53C215.82 180.31 216.21 180.18 216.61 180.13C219.05 179.88 221.93 183.23 222.81 185.24C222.87 185.38 223.54 187.56 223.69 188.12C224.13 186.52 224.56 184.91 224.91 183.31C225.4 181.16 225.75 178.97 225.96 176.77C225.8 176.77 221.65 176.72 219.95 175.9C218.47 175.21 216.79 173.9 216.43 172.21C216.34 171.81 216.33 171.4 216.4 171C216.47 170.6 216.63 170.22 216.86 169.88C217.09 169.55 217.39 169.26 217.74 169.05C218.08 168.84 218.47 168.7 218.88 168.65C221.32 168.4 224.19 171.75 225.07 173.76C225.15 173.92 225.87 176.26 225.97 176.69C225.97 176.56 226 176.43 226.02 176.3C226.16 174.09 226.11 171.87 225.86 169.66C225.74 168.45 225.56 167.29 225.36 166.16C224.58 166.23 221.04 166.51 219.43 165.95C217.81 165.4 216.06 164.31 215.53 162.66C215.39 162.28 215.34 161.87 215.36 161.46C215.39 161.06 215.51 160.66 215.7 160.3C215.89 159.94 216.16 159.63 216.48 159.38C216.8 159.13 217.17 158.95 217.57 158.85C219.96 158.34 223.19 161.35 224.29 163.25C224.35 163.35 224.86 164.47 225.18 165.28C225.08 164.78 224.99 164.26 224.89 163.77C224.49 161.96 224.02 160.32 223.6 158.88C223.35 158.06 223.1 157.33 222.87 156.61C222.07 156.28 218.89 154.91 217.76 153.7C216.62 152.5 215.53 150.69 215.81 148.99C215.87 148.58 216 148.19 216.22 147.85C216.43 147.5 216.71 147.2 217.05 146.97C217.38 146.74 217.77 146.58 218.17 146.51C218.57 146.44 218.98 146.45 219.38 146.55C221.74 147.19 223.22 151.36 223.32 153.54C223.32 153.74 223.12 156.7 223.08 156.68L223.03 156.68C223.27 157.34 223.52 158.05 223.77 158.83C224.23 160.26 224.74 161.89 225.17 163.7C225.66 165.64 226.04 167.62 226.31 169.61C226.6 171.83 226.7 174.08 226.61 176.33C226.6 176.35 226.6 176.38 226.61 176.4C226.86 175.73 227.62 173.87 227.7 173.74C228.75 171.82 231.91 168.73 234.32 169.19C234.72 169.28 235.09 169.45 235.42 169.69C235.74 169.94 236.02 170.24 236.22 170.6C236.42 170.95 236.54 171.35 236.58 171.75C236.62 172.16 236.57 172.57 236.44 172.95C235.94 174.61 234.17 175.79 232.62 176.36C230.88 177 226.9 176.71 226.58 176.69C226.39 178.97 226.04 181.23 225.55 183.46C225.29 184.77 224.98 186.07 224.66 187.38C224.9 186.81 225.11 186.29 225.15 186.24C226.21 184.32 229.37 181.24 231.77 181.7C232.17 181.79 232.55 181.96 232.87 182.2C233.2 182.44 233.47 182.75 233.67 183.11C233.87 183.46 234 183.85 234.03 184.26C234.07 184.66 234.02 185.07 233.89 185.46C233.39 187.11 231.62 188.26 230.07 188.83C228.52 189.4 225.11 189.24 224.21 189.17C224.08 189.67 223.96 190.18 223.83 190.67C223.2 193.07 222.57 195.46 222.02 197.82C221.83 198.66 221.66 199.48 221.51 200.31C221.72 199.8 221.89 199.37 221.93 199.31C222.98 197.39 226.15 194.31 228.55 194.77C228.95 194.86 229.33 195.03 229.65 195.27C229.98 195.51 230.25 195.82 230.45 196.18C230.65 196.53 230.77 196.92 230.81 197.33C230.85 197.73 230.8 198.14 230.67 198.53C230.17 200.18 228.4 201.33 226.84 201.9C225.29 202.47 222.22 202.32 221.16 202.25C221.02 203.11 220.88 203.96 220.78 204.79C220.73 205.36 220.64 205.93 220.61 206.5L220.51 208.2C220.48 209.28 220.44 210.39 220.44 211.44C220.44 212.17 220.44 212.87 220.44 213.57C220.62 212.74 221.01 211.12 221.07 210.99C221.8 209.21 222.97 207.64 224.48 206.45C224.55 206.25 224.64 206.06 224.75 205.88C224.94 205.52 225.21 205.21 225.54 204.96C225.86 204.72 226.23 204.54 226.63 204.45C227.02 204.35 227.43 204.34 227.83 204.42C228.23 204.49 228.61 204.65 228.95 204.88C230.92 206.34 230.8 210.76 230.08 212.84C230.04 212.96 229.45 214.24 229.06 215.04C229.37 214.6 229.63 214.18 229.96 213.73C230.58 212.85 231.21 211.98 231.9 211.05L232.94 209.72C233.29 209.27 233.7 208.83 234.08 208.38C234.99 207.37 235.96 206.37 236.95 205.4C236.17 204.86 233.46 202.9 232.61 201.5C231.76 200.1 231.08 198.09 231.72 196.47C231.86 196.09 232.08 195.75 232.36 195.45C232.64 195.16 232.98 194.93 233.35 194.78C233.73 194.63 234.13 194.56 234.53 194.57C234.94 194.58 235.34 194.68 235.7 194.85C237.87 195.99 238.42 200.37 238.05 202.53C238.05 202.66 237.59 204.19 237.33 205.01C237.93 204.44 238.53 203.84 239.16 203.28C240.98 201.63 242.86 200.02 244.74 198.41L246.44 196.92C246.16 196.73 242.88 194.48 241.93 192.91C241.08 191.51 240.4 189.5 241.04 187.88C241.18 187.5 241.4 187.16 241.68 186.87C241.96 186.57 242.3 186.35 242.67 186.19C243.05 186.04 243.45 185.97 243.85 185.98C244.26 185.99 244.66 186.09 245.02 186.26C247.19 187.4 247.74 191.78 247.37 193.94C247.37 194.1 246.71 196.28 246.52 196.83C247.77 195.74 249.01 194.63 250.19 193.5C251.81 191.96 253.34 190.31 254.74 188.57C254.61 188.48 251.18 186.15 250.2 184.53C249.35 183.13 248.67 181.12 249.31 179.51C249.45 179.12 249.67 178.77 249.95 178.48C250.23 178.19 250.57 177.96 250.95 177.81C251.33 177.65 251.73 177.58 252.14 177.6C252.55 177.61 252.95 177.71 253.31 177.89C255.48 179.02 256.03 183.41 255.66 185.57C255.64 185.74 254.95 188.08 254.8 188.5C254.88 188.4 254.97 188.3 255.05 188.2C256.39 186.44 257.57 184.56 258.58 182.58C259.15 181.5 259.64 180.43 260.09 179.39C259.4 179.02 256.29 177.29 255.26 175.94C254.23 174.59 253.36 172.71 253.82 171.04C253.92 170.65 254.1 170.27 254.35 169.95C254.59 169.63 254.91 169.36 255.27 169.17C255.62 168.97 256.02 168.86 256.43 168.83C256.83 168.8 257.24 168.85 257.62 168.99C259.9 169.88 260.94 174.18 260.81 176.38C260.81 176.5 260.59 177.69 260.43 178.56C260.62 178.09 260.83 177.6 261 177.14C261.67 175.44 262.18 173.79 262.62 172.35C262.87 171.53 263.07 170.78 263.25 170.08C262.77 169.36 260.86 166.46 260.57 164.82C260.28 163.17 260.38 161.07 261.56 159.81C261.82 159.5 262.15 159.26 262.52 159.09C262.89 158.91 263.29 158.82 263.7 158.81C264.1 158.81 264.51 158.89 264.88 159.05C265.26 159.2 265.59 159.44 265.87 159.74C267.49 161.59 266.44 165.87 265.3 167.75C265.21 167.91 263.39 170.28 263.37 170.24L263.34 170.2C263.18 170.88 262.99 171.6 262.77 172.39C262.41 173.8 261.91 175.46 261.28 177.21C260.61 179.1 259.83 180.95 258.95 182.76C257.97 184.78 256.81 186.71 255.49 188.52C255.47 188.54 255.46 188.56 255.44 188.58C256.01 188.16 257.68 187.03 257.82 186.96C259.75 185.94 264.1 185.11 265.85 186.83C266.13 187.12 266.35 187.47 266.49 187.85C266.63 188.24 266.68 188.64 266.65 189.05C266.63 189.45 266.51 189.85 266.32 190.21C266.13 190.57 265.86 190.88 265.54 191.13C264.21 192.24 262.08 192.21 260.49 191.84Z" fill="#000000" fill-opacity="1.000000" fill-rule="nonzero"/>
			</g>
			<g opacity="0.100000">
				<path id="Vector" d="M225.57 165.78C225.53 165.78 225.88 162.83 225.93 162.64C226.44 160.52 228.68 156.71 231.12 156.52C231.53 156.5 231.93 156.57 232.31 156.71C232.69 156.86 233.04 157.09 233.32 157.38C233.61 157.66 233.83 158.01 233.97 158.39C234.12 158.77 234.18 159.18 234.15 159.59C234.11 161.29 232.69 162.9 231.36 163.85C229.8 164.97 225.57 165.77 225.57 165.78Z" fill="#000000" fill-opacity="1.000000" fill-rule="nonzero"/>
			</g>
		</g>
		<path id="Vector" d="M118.51 18.94L125.61 18.94" stroke="#263238" stroke-opacity="1.000000" stroke-width="1.000000" stroke-linejoin="round" stroke-linecap="round"/>
		<path id="Vector" d="M139.8 33.28L134.51 34.5L129.66 44.08L121.99 41.89L121.77 43.98L131.32 47.93L134.73 43.2L134.73 51.46L144.98 51.9L147.07 42.54L150.82 45.84L150.82 54.55L153.02 54.55L154.34 43.64L148.5 34.17L139.8 33.28Z" fill="#FFFFFF" fill-opacity="1.000000" fill-rule="nonzero"/>
		<path id="Vector" d="M134.51 34.5L129.66 44.08L121.99 41.89L121.77 43.98L131.32 47.93L134.73 43.2L134.73 51.46L144.98 51.9L147.07 42.54L150.82 45.84L150.82 54.55L153.02 54.55L154.34 43.64L148.5 34.17L139.8 33.28L134.51 34.5Z" stroke="#263238" stroke-opacity="1.000000" stroke-width="1.000000" stroke-linejoin="round"/>
		<path id="Vector" d="" stroke="#263238" stroke-opacity="1.000000" stroke-width="1.000000" stroke-linejoin="round"/>
		<path id="Vector" d="M139.72 36.35L141.16 39.04C141.16 39.04 145.14 40.31 145.84 40.48C146.55 40.66 148.72 39.94 150.52 39.58C152.31 39.23 158.08 42.1 158.08 42.1L163.11 42.28L160.42 39.04L150.7 37.6L145.66 39.23L142.25 38.32L142.98 36.91L141.36 34.39L139.72 36.35Z" fill="#000000" fill-opacity="1.000000" fill-rule="nonzero"/>
		<path id="Vector" d="M141.16 39.04C141.16 39.04 145.14 40.31 145.84 40.48C146.55 40.66 148.72 39.94 150.52 39.58C152.31 39.23 158.08 42.1 158.08 42.1L163.11 42.28L160.42 39.04L150.7 37.6L145.66 39.23L142.25 38.32L142.98 36.91L141.36 34.39L139.72 36.35L141.16 39.04Z" stroke="#263238" stroke-opacity="1.000000" stroke-width="1.000000" stroke-linejoin="round"/>
		<path id="Vector" d="M140.24 32.51C139.95 32.45 139.64 32.51 139.4 32.68C139.15 32.85 138.98 33.1 138.92 33.39C138.7 34.5 138.48 37.25 138.48 37.25L141.12 36.48L144.21 37.8C144.21 37.8 145.2 34.93 144.65 33.94C144.1 32.96 141.56 31.63 140.24 32.51Z" fill="#FFFFFF" fill-opacity="1.000000" fill-rule="nonzero"/>
		<path id="Vector" d="M139.4 32.68C139.15 32.85 138.98 33.1 138.92 33.39C138.7 34.5 138.48 37.25 138.48 37.25L141.12 36.48L144.21 37.8C144.21 37.8 145.2 34.93 144.65 33.94C144.1 32.96 141.56 31.63 140.24 32.51C139.95 32.45 139.64 32.51 139.4 32.68Z" stroke="#263238" stroke-opacity="1.000000" stroke-width="1.000000" stroke-linejoin="round"/>
		<path id="Vector" d="M139.69 30.97C139.69 30.97 140.02 34.05 140.13 35.15C140.25 36.26 140.9 37.91 141.34 37.58C141.78 37.25 143.32 34.17 143.32 34.17L144.1 32.08L139.69 30.97Z" fill="#FFFFFF" fill-opacity="1.000000" fill-rule="nonzero"/>
		<path id="Vector" d="M140.13 35.15C140.25 36.26 140.9 37.91 141.34 37.58C141.78 37.25 143.32 34.17 143.32 34.17L144.1 32.08L139.69 30.97C139.69 30.97 140.02 34.05 140.13 35.15Z" stroke="#263238" stroke-opacity="1.000000" stroke-width="1.000000" stroke-linejoin="round"/>
		<path id="Vector" d="M139.72 26.46C139.72 26.46 138.76 26.38 138.76 27.96C138.76 29.54 139.46 29.62 139.46 29.62L139.72 26.46Z" fill="#FFFFFF" fill-opacity="1.000000" fill-rule="nonzero"/>
		<path id="Vector" d="M138.76 27.96C138.76 29.54 139.46 29.62 139.46 29.62L139.72 26.46C139.72 26.46 138.76 26.38 138.76 27.96Z" stroke="#263238" stroke-opacity="1.000000" stroke-width="1.000000" stroke-linejoin="round"/>
		<path id="Vector" d="M146.18 27.78C146.31 27.79 146.43 27.82 146.54 27.88C146.65 27.94 146.75 28.02 146.82 28.12C146.9 28.22 146.95 28.34 146.98 28.46C147 28.58 147 28.71 146.97 28.83C146.8 29.8 145.13 31.1 145.13 31.1L146.18 27.78Z" fill="#FFFFFF" fill-opacity="1.000000" fill-rule="nonzero"/>
		<path id="Vector" d="M146.54 27.88C146.65 27.94 146.75 28.02 146.82 28.12C146.9 28.22 146.95 28.34 146.98 28.46C147 28.58 147 28.71 146.97 28.83C146.8 29.8 145.13 31.1 145.13 31.1L146.18 27.78C146.31 27.79 146.43 27.82 146.54 27.88Z" stroke="#263238" stroke-opacity="1.000000" stroke-width="1.000000" stroke-linejoin="round"/>
		<path id="Vector" d="M142.99 23.28C142.99 23.28 141.23 22.84 140.24 24.94C139.25 27.03 139.47 29.57 139.67 31C139.88 32.43 141.22 33.09 142.54 33.09C143.86 33.09 145.84 30.34 146.28 28.24C146.73 26.15 146.41 23.28 142.99 23.28Z" fill="#FFFFFF" fill-opacity="1.000000" fill-rule="nonzero"/>
		<path id="Vector" d="M140.24 24.94C139.25 27.03 139.47 29.57 139.67 31C139.88 32.43 141.22 33.09 142.54 33.09C143.86 33.09 145.84 30.34 146.28 28.24C146.73 26.15 146.41 23.28 142.99 23.28C142.99 23.28 141.23 22.84 140.24 24.94Z" stroke="#263238" stroke-opacity="1.000000" stroke-width="1.000000" stroke-linejoin="round"/>
		<path id="Vector" d="M119.86 40.66L120.3 43.97L122.28 44.19L121.95 40.44L119.86 40.66Z" fill="#FFFFFF" fill-opacity="1.000000" fill-rule="nonzero"/>
		<path id="Vector" d="M120.3 43.97L122.28 44.19L121.95 40.44L119.86 40.66L120.3 43.97Z" stroke="#263238" stroke-opacity="1.000000" stroke-width="1.000000" stroke-linejoin="round"/>
		<path id="Vector" d="M121.99 40.61L122.79 40.5L122.95 42.27L122.15 42.37L121.99 40.61Z" fill="#FFFFFF" fill-opacity="1.000000" fill-rule="nonzero"/>
		<path id="Vector" d="M122.79 40.5L122.95 42.27L122.15 42.37L121.99 40.61L122.79 40.5Z" stroke="#263238" stroke-opacity="1.000000" stroke-width="1.000000" stroke-linejoin="round"/>
		<path id="Vector" d="M150.82 54.55L149.61 56.43L149.92 58.32L150.98 58.22L152.77 57.59L153.02 54.55L150.82 54.55Z" fill="#FFFFFF" fill-opacity="1.000000" fill-rule="nonzero"/>
		<path id="Vector" d="M149.61 56.43L149.92 58.32L150.98 58.22L152.77 57.59L153.02 54.55L150.82 54.55L149.61 56.43Z" stroke="#263238" stroke-opacity="1.000000" stroke-width="1.000000" stroke-linejoin="round"/>
		<path id="Vector" d="M134.73 51.46L133.95 54.86L125.33 66.21L131.11 82.5L132.58 82.18L131.32 66.63L138.37 59.16L139.21 59.69L139.23 68.02L147.3 81.66L148.98 81.24L145.2 68.1L145.41 54.12L144.98 51.9L134.73 51.46Z" fill="#263238" fill-opacity="1.000000" fill-rule="nonzero"/>
		<path id="Vector" d="M133.95 54.86L125.33 66.21L131.11 82.5L132.58 82.18L131.32 66.63L138.37 59.16L139.21 59.69L139.23 68.02L147.3 81.66L148.98 81.24L145.2 68.1L145.41 54.12L144.98 51.9L134.73 51.46L133.95 54.86Z" stroke="#263238" stroke-opacity="1.000000" stroke-width="1.000000" stroke-linejoin="round"/>
		<path id="Vector" d="M131.11 82.5L129.85 84.29C129.85 84.29 127.85 85.24 127.54 85.76C127.23 86.28 129.25 86.18 129.25 86.18L131.56 85.97L133.98 84.39L132.61 82.18L131.11 82.5Z" fill="#FFFFFF" fill-opacity="1.000000" fill-rule="nonzero"/>
		<path id="Vector" d="M129.85 84.29C129.85 84.29 127.85 85.24 127.54 85.76C127.23 86.28 129.25 86.18 129.25 86.18L131.56 85.97L133.98 84.39L132.61 82.18L131.11 82.5L129.85 84.29Z" stroke="#263238" stroke-opacity="1.000000" stroke-width="1.000000" stroke-linejoin="round"/>
		<path id="Vector" d="M118.81 21.35C118.81 21.35 117.75 23.75 113.39 25.41C109.03 27.06 102.71 27.96 101.06 31.42C99.41 34.88 99.41 34.59 99.11 36.53C98.95 37.67 98.42 38.73 97.6 39.54C97.6 39.54 99.11 39.69 99.87 38.64C100.64 37.59 100.93 34.58 102.14 34.13C103.36 33.67 105.57 32.94 105.57 32.94C105.57 32.94 103.47 34.75 103.3 35.65C103.13 36.55 103 38.66 102.7 40.01C102.56 40.75 102.21 41.43 101.67 41.95C101.67 41.95 103.62 41.95 104.22 40.6C104.83 39.25 104.22 37.44 106.18 36.09C108.13 34.73 110.24 35.34 113.56 35.48C116.88 35.63 120.03 33.68 120.03 33.68L118.81 21.35Z" fill="#000000" fill-opacity="1.000000" fill-rule="nonzero"/>
		<path id="Vector" d="M113.39 25.41C109.03 27.06 102.71 27.96 101.06 31.42C99.41 34.88 99.41 34.59 99.11 36.53C98.95 37.67 98.42 38.73 97.6 39.54C97.6 39.54 99.11 39.69 99.87 38.64C100.64 37.59 100.93 34.58 102.14 34.13C103.36 33.67 105.57 32.94 105.57 32.94C105.57 32.94 103.47 34.75 103.3 35.65C103.13 36.55 103 38.66 102.7 40.01C102.56 40.75 102.21 41.43 101.67 41.95C101.67 41.95 103.62 41.95 104.22 40.6C104.83 39.25 104.22 37.44 106.18 36.09C108.13 34.73 110.24 35.34 113.56 35.48C116.88 35.63 120.03 33.68 120.03 33.68L118.81 21.35C118.81 21.35 117.75 23.75 113.39 25.41Z" stroke="#263238" stroke-opacity="1.000000" stroke-width="1.000000" stroke-linejoin="round"/>
		<path id="Vector" d="M147.3 81.66L145.85 86.47L149.45 86.33L148.98 81.24L147.3 81.66Z" fill="#FFFFFF" fill-opacity="1.000000" fill-rule="nonzero"/>
		<path id="Vector" d="M145.85 86.47L149.45 86.33L148.98 81.24L147.3 81.66L145.85 86.47Z" stroke="#263238" stroke-opacity="1.000000" stroke-width="1.000000" stroke-linejoin="round"/>
		<path id="Vector" d="M141.79 27.5C141.73 27.79 141.53 27.99 141.34 27.95C141.14 27.91 141.04 27.64 141.1 27.38C141.17 27.12 141.37 26.9 141.56 26.94C141.75 26.98 141.85 27.22 141.79 27.5Z" fill="#263238" fill-opacity="1.000000" fill-rule="nonzero"/>
		<path id="Vector" d="M144.42 28.12C144.36 28.4 144.16 28.6 143.97 28.56C143.77 28.52 143.67 28.25 143.73 27.99C143.8 27.73 144 27.51 144.19 27.55C144.38 27.59 144.48 27.83 144.42 28.12Z" fill="#263238" fill-opacity="1.000000" fill-rule="nonzero"/>
		<path id="Vector" d="M142.67 27.87L141.97 29.97L143.11 29.97" stroke="#263238" stroke-opacity="1.000000" stroke-width="1.000000" stroke-linejoin="round" stroke-linecap="round"/>
		<path id="Vector" d="M141.1 30.59C141.1 30.59 141.71 31.64 143.29 31.02" stroke="#263238" stroke-opacity="1.000000" stroke-width="1.000000" stroke-linejoin="round" stroke-linecap="round"/>
		<path id="Vector" d="M141.01 26.03C141.24 25.9 141.5 25.86 141.75 25.91C142.01 25.96 142.24 26.09 142.41 26.29" stroke="#263238" stroke-opacity="1.000000" stroke-width="1.000000" stroke-linejoin="round" stroke-linecap="round"/>
		<path id="Vector" d="M143.73 26.64C143.88 26.56 144.05 26.51 144.23 26.49C144.4 26.48 144.58 26.5 144.74 26.56C144.91 26.62 145.06 26.71 145.18 26.83C145.31 26.95 145.41 27.1 145.48 27.26" stroke="#263238" stroke-opacity="1.000000" stroke-width="1.000000" stroke-linejoin="round" stroke-linecap="round"/>
		<path id="Vector" d="M139.34 25.77L145.65 24.99C145.65 24.99 145.39 26.04 145.74 26.3C146.1 26.56 146.18 27.79 146.18 27.79L145.92 29.2L147.32 26.74C147.32 26.74 147.76 24.81 147.41 24.2C147.29 24.01 147.14 23.85 146.96 23.73C146.78 23.61 146.57 23.53 146.36 23.49C145.98 22.92 145.45 22.48 144.83 22.2C144.21 21.92 143.52 21.82 142.85 21.92C140.39 22.18 139.34 23.41 139.34 24.37L139.34 25.77Z" fill="#263238" fill-opacity="1.000000" fill-rule="nonzero"/>
		<path id="Vector" d="M145.65 24.99C145.65 24.99 145.39 26.04 145.74 26.3C146.1 26.56 146.18 27.79 146.18 27.79L145.92 29.2L147.32 26.74C147.32 26.74 147.76 24.81 147.41 24.2C147.29 24.01 147.14 23.85 146.96 23.73C146.78 23.61 146.57 23.53 146.36 23.49C145.98 22.92 145.45 22.48 144.83 22.2C144.21 21.92 143.52 21.82 142.85 21.92C140.39 22.18 139.34 23.41 139.34 24.37L139.34 25.77L145.65 24.99Z" stroke="#263238" stroke-opacity="1.000000" stroke-width="1.000000" stroke-linejoin="round"/>
		<path id="Vector" d="M134.68 264.23L145.82 200.35L103.8 161.78L119.05 109.82L102.72 110.19L95.83 116.36L81.42 116L79.47 123.03L75.52 122.54L74.15 125L67.41 138.46L63.91 151.91L50.84 168.24L49.41 206.77L28.35 237.17L21.73 264.23L134.68 264.23Z" fill="#808080" fill-opacity="1.000000" fill-rule="nonzero"/>
		<path id="Vector" d="M145.82 200.35L103.8 161.78L119.05 109.82L102.72 110.19L95.83 116.36L81.42 116L79.47 123.03L75.52 122.54L74.15 125L67.41 138.46L63.91 151.91L50.84 168.24L49.41 206.77L28.35 237.17L21.73 264.23L134.68 264.23L145.82 200.35Z" stroke="#39515E" stroke-opacity="1.000000" stroke-width="1.000000" stroke-linejoin="round"/>
		<path id="Vector" d="M229.5 264.23L215.56 233.65L238.28 248.79L238.28 224.57L224.92 208.75L226.9 190.95L206.62 152.39L205.61 139.04L198.69 132.61L163.18 135.18L160.65 122.71L137.93 109.86L124.3 142.86L111.74 148.42L120.59 160.55L119.15 170.17L122.11 185.02L72.7 195.89C72.7 195.89 72.2 219.62 72.2 221.6C72.2 223.58 62.31 234.95 62.31 234.95L61.85 264.23L229.5 264.23Z" fill="#ABABAB" fill-opacity="1.000000" fill-rule="nonzero"/>
		<path id="Vector" d="M215.56 233.65L238.28 248.79L238.28 224.57L224.92 208.75L226.9 190.95L206.62 152.39L205.61 139.04L198.69 132.61L163.18 135.18L160.65 122.71L137.93 109.86L124.3 142.86L111.74 148.42L120.59 160.55L119.15 170.17L122.11 185.02L72.7 195.89C72.7 195.89 72.2 219.62 72.2 221.6C72.2 223.58 62.31 234.95 62.31 234.95L61.85 264.23L229.5 264.23L215.56 233.65Z" stroke="#39515E" stroke-opacity="1.000000" stroke-width="1.000000" stroke-linejoin="round"/>
		<path id="Vector" d="M257.02 264.23L251.12 261.64L243.7 245.83L234.8 239.4L230.85 230.01L226.89 222.59L205.76 212.27L209.04 264.23L257.02 264.23Z" fill="#CCCCCC" fill-opacity="1.000000" fill-rule="nonzero"/>
		<path id="Vector" d="M251.12 261.64L243.7 245.83L234.8 239.4L230.85 230.01L226.89 222.59L205.76 212.27L209.04 264.23L257.02 264.23L251.12 261.64Z" stroke="#39515E" stroke-opacity="1.000000" stroke-width="1.000000" stroke-linejoin="round"/>
		<path id="Vector" d="M35.86 264.17L62.28 264.17L62.76 248.79L60.29 239.9L60.29 216.16L54.36 215.18L49.41 220.61L41.5 225.07L24.37 264.23L35.86 264.23L35.86 264.17Z" fill="#CCCCCC" fill-opacity="1.000000" fill-rule="nonzero"/>
		<path id="Vector" d="M62.28 264.17L62.76 248.79L60.29 239.9L60.29 216.16L54.36 215.18L49.41 220.61L41.5 225.07L24.37 264.23L35.86 264.23L35.86 264.17L62.28 264.17Z" stroke="#39515E" stroke-opacity="1.000000" stroke-width="1.000000" stroke-linejoin="round"/>
		<path id="Vector" d="M45 235.96L45.58 235.96" stroke="#39515E" stroke-opacity="1.000000" stroke-width="1.000000"/>
		<path id="Vector" d="M35.86 264.23L39.39 250.32L42.71 248.21L44.65 239.92" stroke="#39515E" stroke-opacity="1.000000" stroke-width="1.000000"/>
		<path id="Vector" d="M30.16 248.51L35.76 248.51" stroke="#39515E" stroke-opacity="1.000000" stroke-width="1.000000"/>
		<path id="Vector" d="M53.89 221.74L54.44 221.74" stroke="#39515E" stroke-opacity="1.000000" stroke-width="1.000000"/>
		<path id="Vector" d="M54.67 215.71L55.7 215.71" stroke="#39515E" stroke-opacity="1.000000" stroke-width="1.000000"/>
		<path id="Vector" d="M62.28 264.17L62.76 248.79L60.29 239.9L60.29 216.17L55.35 247.8L50.89 249.29L49.41 258.19L48.49 264.17L62.28 264.17Z" fill="#FFFFFF" fill-opacity="1.000000" fill-rule="nonzero"/>
		<path id="Vector" d="M62.76 248.79L60.29 239.9L60.29 216.17L55.35 247.8L50.89 249.29L49.41 258.19L48.49 264.17L62.28 264.17L62.76 248.79Z" stroke="#39515E" stroke-opacity="1.000000" stroke-width="1.000000" stroke-linejoin="round"/>
		<path id="Vector" d="M146.89 246.63C149.7 246.25 152.44 245.5 155.06 244.41C157.15 243.55 158.98 242.19 160.4 240.43C160.56 240.21 160.72 239.98 160.86 239.74L156.96 222.13L149.27 215.42L147.98 209.66L140.6 203.9L138.04 212.86L133.88 218.62L133.56 239.75L137.53 247.35C140.67 247.32 143.79 247.08 146.89 246.63Z" fill="#FFFFFF" fill-opacity="1.000000" fill-rule="nonzero"/>
		<path id="Vector" d="M155.06 244.41C157.15 243.55 158.98 242.19 160.4 240.43C160.56 240.21 160.72 239.98 160.86 239.74L156.96 222.13L149.27 215.42L147.98 209.66L140.6 203.9L138.04 212.86L133.88 218.62L133.56 239.75L137.53 247.35C140.67 247.32 143.79 247.08 146.89 246.63C149.7 246.25 152.44 245.5 155.06 244.41Z" stroke="#39515E" stroke-opacity="1.000000" stroke-width="1.000000" stroke-linejoin="round"/>
		<path id="Vector" d="M146.89 246.63L146.1 240.06L148.41 233.82L148.41 230.13L147.95 224.36" stroke="#39515E" stroke-opacity="1.000000" stroke-width="1.000000"/>
		<path id="Vector" d="M151.57 226.64L152.8 233.59L155.1 234.05L154.64 239.82L155.56 242.83" stroke="#39515E" stroke-opacity="1.000000" stroke-width="1.000000"/>
		<path id="Vector" d="M150.72 221.82L151.13 221.82" stroke="#39515E" stroke-opacity="1.000000" stroke-width="1.000000"/>
		<path id="Vector" d="M143.1 207.05L144.95 207.05" stroke="#39515E" stroke-opacity="1.000000" stroke-width="1.000000"/>
		<path id="Vector" d="M120.55 246.16C125.86 246.97 131.23 247.37 136.6 247.35C137.68 247.35 138.73 247.33 139.77 247.29L139.66 241.34L137.74 238.79L137.74 220.54L140.94 217.34L140.62 203.91L136.78 210.95L131.67 215.43L128.46 224.71L123.35 230.79L122.07 237.19L115.99 242.3L113.57 244.89C115.86 245.38 118.19 245.8 120.55 246.16Z" fill="#CCCCCC" fill-opacity="1.000000" fill-rule="nonzero"/>
		<path id="Vector" d="M136.6 247.35C137.68 247.35 138.73 247.33 139.77 247.29L139.66 241.34L137.74 238.79L137.74 220.54L140.94 217.34L140.62 203.91L136.78 210.95L131.67 215.43L128.46 224.71L123.35 230.79L122.07 237.19L115.99 242.3L113.57 244.89C115.86 245.38 118.19 245.8 120.55 246.16C125.86 246.97 131.23 247.37 136.6 247.35Z" stroke="#39515E" stroke-opacity="1.000000" stroke-width="1.000000" stroke-linejoin="round"/>
		<path id="Vector" d="M213.05 264.23L239.89 264.18L205.14 243.36L196.74 223.08L189.81 222.09L183.88 214.19L180.91 217.15L182.89 234.45L175.48 246.81L175.48 254.73L172.02 263.62L188.74 264.23L213.05 264.23Z" fill="#FFFFFF" fill-opacity="1.000000" fill-rule="nonzero"/>
		<path id="Vector" d="M239.89 264.18L205.14 243.36L196.74 223.08L189.81 222.09L183.88 214.19L180.91 217.15L182.89 234.45L175.48 246.81L175.48 254.73L172.02 263.62L188.74 264.23L213.05 264.23L239.89 264.18Z" stroke="#39515E" stroke-opacity="1.000000" stroke-width="1.000000" stroke-linejoin="round"/>
		<path id="Vector" d="M199.59 264.19L198.32 257.12L200.32 252.95L199.77 244.79L201.41 246.42L212.47 264.19L199.59 264.19Z" fill="#CCCCCC" fill-opacity="1.000000" fill-rule="nonzero"/>
		<path id="Vector" d="M198.32 257.12L200.32 252.95L199.77 244.79L201.41 246.42L212.47 264.19L199.59 264.19L198.32 257.12Z" stroke="#39515E" stroke-opacity="1.000000" stroke-width="1.000000" stroke-linejoin="round"/>
		<path id="Vector" d="M199.77 244.79L207.58 248.6L210.65 252.4L219.54 256.94L225.71 260.75L229.5 264.23L212.47 264.2L199.77 244.79Z" fill="#FFFFFF" fill-opacity="1.000000" fill-rule="nonzero"/>
		<path id="Vector" d="M207.58 248.6L210.65 252.4L219.54 256.94L225.71 260.75L229.5 264.23L212.47 264.2L199.77 244.79L207.58 248.6Z" stroke="#39515E" stroke-opacity="1.000000" stroke-width="1.000000" stroke-linejoin="round"/>
		<path id="Vector" d="M175.48 246.81L175.48 254.73L171.75 264.07L185.87 264.25L182.89 247.31L188.83 241.87L180.91 217.15L182.89 234.45L175.48 246.81Z" fill="#CCCCCC" fill-opacity="1.000000" fill-rule="nonzero"/>
		<path id="Vector" d="M175.48 254.73L171.75 264.07L185.87 264.25L182.89 247.31L188.83 241.87L180.91 217.15L182.89 234.45L175.48 246.81L175.48 254.73Z" stroke="#39515E" stroke-opacity="1.000000" stroke-width="1.000000" stroke-linejoin="round"/>
		<path id="Vector" d="M189.81 222.09L195.03 233.13L197.34 233.36L199.19 238.9" stroke="#39515E" stroke-opacity="1.000000" stroke-width="1.000000"/>
		<path id="Vector" d="M193.32 255.48L194.11 255.48" stroke="#39515E" stroke-opacity="1.000000" stroke-width="1.000000"/>
		<path id="Vector" d="M190.19 235.44L191.8 241.67L194.57 246.29L191.34 249.06L192.74 253.6" stroke="#39515E" stroke-opacity="1.000000" stroke-width="1.000000"/>
		<path id="Vector" d="M124.24 108.63L112.65 121.3L112.25 98.07L123.79 84.06L124.24 108.63Z" fill="#CCCCCC" fill-opacity="1.000000" fill-rule="nonzero"/>
		<path id="Vector" d="M112.65 121.3L112.25 98.07L123.79 84.06L124.24 108.63L112.65 121.3Z" stroke="#39515E" stroke-opacity="1.000000" stroke-width="1.000000" stroke-linejoin="round"/>
		<path id="Vector" d="M116.2 159.36L128.04 148.9C128.89 148.17 129.84 147.55 130.86 147.06C132.13 146.46 133.46 145.98 134.83 145.64C136.59 145.22 138.37 144.92 140.17 144.76C142.44 144.55 144.71 144.46 146.99 144.51C152.49 144.58 157.97 145.06 163.4 145.95C167.91 146.7 172.37 147.73 176.76 149.04C180.7 150.21 184.14 151.48 187.11 152.64C190.08 153.8 192.53 154.87 194.52 155.66L179.15 165.62C177.27 164.89 174.93 163.88 172.13 162.78C169.33 161.69 166.07 160.51 162.33 159.38C158.19 158.14 153.97 157.18 149.7 156.49C144.56 155.65 139.37 155.2 134.16 155.14C132 155.11 129.85 155.19 127.7 155.39C126 155.55 124.31 155.83 122.65 156.24C121.34 156.56 120.07 157.01 118.86 157.59C117.9 158.06 117 158.65 116.2 159.36Z" fill="#CCCCCC" fill-opacity="1.000000" fill-rule="nonzero"/>
		<path id="Vector" d="M128.04 148.9C128.89 148.17 129.84 147.55 130.86 147.06C132.13 146.46 133.46 145.98 134.83 145.64C136.59 145.22 138.37 144.92 140.17 144.76C142.44 144.55 144.71 144.46 146.99 144.51C152.49 144.58 157.97 145.06 163.4 145.95C167.91 146.7 172.37 147.73 176.76 149.04C180.7 150.21 184.14 151.48 187.11 152.64C190.08 153.8 192.53 154.87 194.52 155.66L179.15 165.62C177.27 164.89 174.93 163.88 172.13 162.78C169.33 161.69 166.07 160.51 162.33 159.38C158.19 158.14 153.97 157.18 149.7 156.49C144.56 155.65 139.37 155.2 134.16 155.14C132 155.11 129.85 155.19 127.7 155.39C126 155.55 124.31 155.83 122.65 156.24C121.34 156.56 120.07 157.01 118.86 157.59C117.9 158.06 117 158.65 116.2 159.36L128.04 148.9Z" stroke="#39515E" stroke-opacity="1.000000" stroke-width="1.000000" stroke-linejoin="round"/>
		<path id="Vector" d="M153.92 244.87L140.55 249.98C141.72 249.54 142.84 248.99 143.89 248.32C144.82 247.73 145.66 247 146.38 246.16C147.06 245.36 147.58 244.44 147.92 243.46C148.28 242.41 148.44 241.3 148.41 240.19C148.4 238.26 147.81 236.37 146.71 234.78C145.3 232.91 143.5 231.37 141.43 230.26C138.45 228.64 135.32 227.3 132.08 226.29C128.22 224.99 123.56 223.7 118.08 222.37C110.61 220.63 103.3 218.28 96.22 215.35C89.82 212.73 83.82 209.24 78.38 204.98C73.38 201.07 69.26 196.15 66.3 190.55C63.29 184.59 61.73 178.01 61.75 171.33C61.73 168.62 61.91 165.91 62.32 163.23C62.71 160.66 63.32 158.12 64.14 155.64C64.95 153.22 65.97 150.87 67.19 148.63C68.42 146.38 69.84 144.25 71.44 142.25L80.65 130.7C77.26 134.93 74.64 139.73 72.94 144.87C72.06 147.48 71.41 150.17 71 152.89C70.57 155.73 70.38 158.6 70.43 161.47C70.42 168.55 72.09 175.52 75.28 181.84C78.43 187.78 82.79 192.99 88.09 197.14C93.47 201.47 99.87 205.09 106.99 208.12C114.48 211.23 122.22 213.73 130.12 215.58C135.94 217 140.84 218.37 144.93 219.75C148.35 220.84 151.67 222.26 154.81 224C157.36 225.49 159.18 227.05 160.39 228.78C161.56 230.46 162.2 232.46 162.21 234.51C162.25 235.69 162.08 236.86 161.7 237.97C161.34 239.01 160.79 239.97 160.07 240.81C159.32 241.69 158.43 242.46 157.44 243.08C156.34 243.8 155.16 244.4 153.92 244.87Z" fill="#CCCCCC" fill-opacity="1.000000" fill-rule="nonzero"/>
		<path id="Vector" d="M140.55 249.98C141.72 249.54 142.84 248.99 143.89 248.32C144.82 247.73 145.66 247 146.38 246.16C147.06 245.36 147.58 244.44 147.92 243.46C148.28 242.41 148.44 241.3 148.41 240.19C148.4 238.26 147.81 236.37 146.71 234.78C145.3 232.91 143.5 231.37 141.43 230.26C138.45 228.64 135.32 227.3 132.08 226.29C128.22 224.99 123.56 223.7 118.08 222.37C110.61 220.63 103.3 218.28 96.22 215.35C89.82 212.73 83.82 209.24 78.38 204.98C73.38 201.07 69.26 196.15 66.3 190.55C63.29 184.59 61.73 178.01 61.75 171.33C61.73 168.62 61.91 165.91 62.32 163.23C62.71 160.66 63.32 158.12 64.14 155.64C64.95 153.22 65.97 150.87 67.19 148.63C68.42 146.38 69.84 144.25 71.44 142.25L80.65 130.7C77.26 134.93 74.64 139.73 72.94 144.87C72.06 147.48 71.41 150.17 71 152.89C70.57 155.73 70.38 158.6 70.43 161.47C70.42 168.55 72.09 175.52 75.28 181.84C78.43 187.78 82.79 192.99 88.09 197.14C93.47 201.47 99.87 205.09 106.99 208.12C114.48 211.23 122.22 213.73 130.12 215.58C135.94 217 140.84 218.37 144.93 219.75C148.35 220.84 151.67 222.26 154.81 224C157.36 225.49 159.18 227.05 160.39 228.78C161.56 230.46 162.2 232.46 162.21 234.51C162.25 235.69 162.08 236.86 161.7 237.97C161.34 239.01 160.79 239.97 160.07 240.81C159.32 241.69 158.43 242.46 157.44 243.08C156.34 243.8 155.16 244.4 153.92 244.87L140.55 249.98Z" stroke="#39515E" stroke-opacity="1.000000" stroke-width="1.000000" stroke-linejoin="round"/>
		<path id="Vector" d="M88.09 197.14C93.47 201.47 99.87 205.09 106.99 208.12C114.48 211.23 122.22 213.73 130.12 215.58C135.94 217 140.84 218.37 144.93 219.75C148.35 220.84 151.67 222.26 154.81 224C157.36 225.49 159.18 227.05 160.39 228.78C161.56 230.46 162.2 232.46 162.21 234.51C162.3 236.64 161.66 238.74 160.38 240.44C158.97 242.2 157.13 243.57 155.04 244.42C152.43 245.51 149.69 246.26 146.89 246.64C143.48 247.14 140.04 247.38 136.6 247.37C131.23 247.38 125.86 246.98 120.55 246.17C115.45 245.4 110.41 244.32 105.44 242.93C100.61 241.58 96.01 240.03 91.73 238.39C87.45 236.74 83.47 234.98 79.89 233.27L72.63 264.12L203.1 264.12C207.16 259.59 210.34 254.34 212.47 248.64C214.71 242.56 215.74 236.12 215.53 229.65C215.34 222.74 214.28 216.59 212.22 211.07C210.17 205.56 206.98 200.54 202.85 196.35C198.61 192 193.19 188.16 186.46 184.74C179.72 181.32 171.61 178.3 162.03 175.56C155.87 173.77 150.48 172.05 145.86 170.4C141.92 169.03 138.08 167.4 134.35 165.52C131.29 163.91 128.99 162.32 127.45 160.68C125.92 159.05 125.14 157.38 125.1 155.63C125.06 154.2 125.37 152.78 126 151.5C126.79 150 127.97 148.75 129.41 147.87C131.48 146.63 133.76 145.77 136.14 145.35C139.73 144.67 143.38 144.39 147.03 144.5C152.53 144.57 158.02 145.06 163.45 145.95C167.96 146.7 172.42 147.73 176.8 149.03C180.74 150.21 184.19 151.47 187.16 152.63C190.13 153.8 192.58 154.87 194.57 155.65L203.02 117.59C200.36 116.46 197.51 115.32 194.38 114.24C191.25 113.16 187.84 112.15 184.1 111.24C180.35 110.32 176.26 109.53 171.76 108.85C167.27 108.16 162.34 107.67 156.94 107.35L156.45 84.85L123.82 84.06L124.27 108.63C116.33 109.72 108.59 111.92 101.26 115.16C94.96 117.95 89.2 121.84 84.26 126.66C79.75 131.12 76.2 136.46 73.83 142.35C71.45 148.44 70.29 154.94 70.43 161.47C70.42 168.55 72.09 175.52 75.28 181.84C78.43 187.78 82.79 192.99 88.09 197.14Z" fill="#FFFFFF" fill-opacity="1.000000" fill-rule="nonzero"/>
		<path id="Vector" d="M106.99 208.12C114.48 211.23 122.22 213.73 130.12 215.58C135.94 217 140.84 218.37 144.93 219.75C148.35 220.84 151.67 222.26 154.81 224C157.36 225.49 159.18 227.05 160.39 228.78C161.56 230.46 162.2 232.46 162.21 234.51C162.3 236.64 161.66 238.74 160.38 240.44C158.97 242.2 157.13 243.57 155.04 244.42C152.43 245.51 149.69 246.26 146.89 246.64C143.48 247.14 140.04 247.38 136.6 247.37C131.23 247.38 125.86 246.98 120.55 246.17C115.45 245.4 110.41 244.32 105.44 242.93C100.61 241.58 96.01 240.03 91.73 238.39C87.45 236.74 83.47 234.98 79.89 233.27L72.63 264.12L203.1 264.12C207.16 259.59 210.34 254.34 212.47 248.64C214.71 242.56 215.74 236.12 215.53 229.65C215.34 222.74 214.28 216.59 212.22 211.07C210.17 205.56 206.98 200.54 202.85 196.35C198.61 192 193.19 188.16 186.46 184.74C179.72 181.32 171.61 178.3 162.03 175.56C155.87 173.77 150.48 172.05 145.86 170.4C141.92 169.03 138.08 167.4 134.35 165.52C131.29 163.91 128.99 162.32 127.45 160.68C125.92 159.05 125.14 157.38 125.1 155.63C125.06 154.2 125.37 152.78 126 151.5C126.79 150 127.97 148.75 129.41 147.87C131.48 146.63 133.76 145.77 136.14 145.35C139.73 144.67 143.38 144.39 147.03 144.5C152.53 144.57 158.02 145.06 163.45 145.95C167.96 146.7 172.42 147.73 176.8 149.03C180.74 150.21 184.19 151.47 187.16 152.63C190.13 153.8 192.58 154.87 194.57 155.65L203.02 117.59C200.36 116.46 197.51 115.32 194.38 114.24C191.25 113.16 187.84 112.15 184.1 111.24C180.35 110.32 176.26 109.53 171.76 108.85C167.27 108.16 162.34 107.67 156.94 107.35L156.45 84.85L123.82 84.06L124.27 108.63C116.33 109.72 108.59 111.92 101.26 115.16C94.96 117.95 89.2 121.84 84.26 126.66C79.75 131.12 76.2 136.46 73.83 142.35C71.45 148.44 70.29 154.94 70.43 161.47C70.42 168.55 72.09 175.52 75.28 181.84C78.43 187.78 82.79 192.99 88.09 197.14C93.47 201.47 99.87 205.09 106.99 208.12Z" stroke="#39515E" stroke-opacity="1.000000" stroke-width="1.000000" stroke-linejoin="round"/>
		<path id="Vector" d="M72.63 264.12L79.89 233.26L70.59 239.07L64.67 264.12L72.63 264.12Z" fill="#CCCCCC" fill-opacity="1.000000" fill-rule="nonzero"/>
		<path id="Vector" d="M79.89 233.26L70.59 239.07L64.67 264.12L72.63 264.12L79.89 233.26Z" stroke="#39515E" stroke-opacity="1.000000" stroke-width="1.000000" stroke-linejoin="round"/>
		<path id="Vector" d="M229.55 256.67C228.98 256.56 228.39 256.68 227.9 256.99L230.45 258.52C230.51 258.34 230.54 258.15 230.54 257.96C230.53 257.76 230.48 257.58 230.4 257.4C230.31 257.23 230.19 257.08 230.05 256.95C229.91 256.82 229.74 256.73 229.55 256.67Z" fill="#263238" fill-opacity="1.000000" fill-rule="nonzero"/>
		<path id="Vector" d="M230.27 236.56C230.27 236.56 230.61 235.13 230.62 235.04C230.73 233.97 230.32 231.82 229.21 231.33C229.03 231.25 228.83 231.21 228.62 231.22C228.42 231.22 228.23 231.27 228.04 231.36C227.86 231.45 227.7 231.57 227.57 231.73C227.44 231.88 227.35 232.06 227.29 232.26C227.03 233.07 227.43 234.04 227.89 234.7C228.43 235.49 230.27 236.56 230.27 236.56Z" fill="#263238" fill-opacity="1.000000" fill-rule="nonzero"/>
		<path id="Vector" d="M247.11 245.3C247.8 244.46 248.64 242.46 247.98 241.42C247.87 241.26 247.72 241.12 247.55 241.01C247.38 240.9 247.19 240.83 246.99 240.81C246.79 240.78 246.59 240.8 246.4 240.85C246.2 240.91 246.02 241.01 245.87 241.14C245.56 241.45 245.33 241.82 245.18 242.23C245.03 242.64 244.98 243.08 245.02 243.51C245.02 244.46 245.98 246.35 245.98 246.35C245.99 246.35 247.08 245.37 247.11 245.3Z" fill="#263238" fill-opacity="1.000000" fill-rule="nonzero"/>
		<path id="Vector" d="M223.71 253.19C224.51 253.71 225.39 254.09 226.31 254.33C226.24 254.75 226.16 255.17 226.07 255.57C226.07 255.68 226.02 255.78 226 255.89L226.53 256.2C226.56 256.04 226.6 255.87 226.64 255.7C226.77 255.04 226.88 254.36 226.96 253.68C227.87 254.02 228.83 254.21 229.8 254.25C230.24 254.24 230.67 254.13 231.06 253.93C231.46 253.74 231.8 253.46 232.07 253.11C232.18 252.94 232.26 252.75 232.29 252.55C232.32 252.35 232.3 252.15 232.25 251.95C232.2 251.76 232.1 251.58 231.97 251.42C231.85 251.26 231.69 251.14 231.51 251.05C230.41 250.53 228.51 251.61 227.77 252.4C227.72 252.45 227.26 253.08 227.01 253.43C227.06 253.02 227.11 252.61 227.15 252.19C227.26 250.98 227.33 249.76 227.41 248.54C227.41 248.17 227.46 247.79 227.49 247.4C227.64 247.46 229.51 248.08 230.42 247.97C231.22 247.88 232.22 247.55 232.69 246.83C232.8 246.66 232.87 246.47 232.9 246.27C232.93 246.07 232.92 245.87 232.86 245.67C232.81 245.48 232.72 245.3 232.59 245.14C232.46 244.99 232.3 244.86 232.12 244.77C231.02 244.25 229.13 245.34 228.38 246.13C228.33 246.19 227.66 247.09 227.5 247.33C227.55 246.51 227.62 245.69 227.72 244.88C227.84 243.8 228.03 242.72 228.29 241.66C228.36 241.66 230.31 242.35 231.23 242.23C232.04 242.15 233.04 241.82 233.51 241.09C233.61 240.92 233.69 240.73 233.72 240.53C233.75 240.34 233.74 240.13 233.68 239.94C233.63 239.74 233.53 239.56 233.41 239.41C233.28 239.25 233.12 239.12 232.94 239.03C231.84 238.51 229.94 239.6 229.21 240.39C229.14 240.45 228.42 241.42 228.3 241.61C228.3 241.54 228.33 241.48 228.35 241.42C228.65 240.36 229.04 239.34 229.51 238.35C229.77 237.78 230.05 237.29 230.33 236.8C230.68 236.96 232.28 237.68 233.13 237.68C233.97 237.69 234.97 237.47 235.49 236.79C235.62 236.63 235.71 236.45 235.76 236.26C235.82 236.06 235.83 235.86 235.8 235.66C235.77 235.46 235.69 235.27 235.59 235.1C235.48 234.93 235.33 234.79 235.16 234.68C234.14 234.04 232.13 234.91 231.31 235.62C231.26 235.66 230.85 236.1 230.55 236.42C230.68 236.2 230.81 235.97 230.94 235.76C231.43 234.98 231.92 234.3 232.35 233.69C232.6 233.35 232.84 233.05 233.06 232.77C234.04 232.75 235.01 232.58 235.94 232.26C236.65 231.89 237.47 231.22 237.64 230.38C237.68 230.19 237.68 229.99 237.63 229.79C237.59 229.6 237.51 229.41 237.39 229.25C237.27 229.09 237.12 228.96 236.95 228.86C236.77 228.76 236.58 228.7 236.39 228.68C235.18 228.59 233.8 230.29 233.39 231.29C233.36 231.38 232.96 232.8 232.98 232.8L233.01 232.8C232.79 233.06 232.56 233.36 232.31 233.67C231.86 234.27 231.35 234.94 230.85 235.72C230.31 236.54 229.81 237.4 229.36 238.28C228.85 239.27 228.43 240.3 228.11 241.37C228.11 241.37 228.11 241.4 228.11 241.41C228.11 241.05 228.06 240.06 228.05 239.98C227.87 238.91 226.91 236.95 225.71 236.77C225.51 236.75 225.31 236.77 225.11 236.83C224.92 236.88 224.74 236.98 224.59 237.12C224.44 237.25 224.32 237.41 224.23 237.59C224.14 237.78 224.1 237.97 224.09 238.17C224.05 239.03 224.7 239.88 225.32 240.38C226.03 240.95 227.93 241.52 228.08 241.52C227.78 242.61 227.55 243.72 227.39 244.84C227.3 245.49 227.22 246.15 227.16 246.81C227.16 246.51 227.13 246.25 227.12 246.2C226.95 245.13 225.99 243.16 224.78 242.99C224.58 242.96 224.38 242.98 224.19 243.04C223.99 243.1 223.82 243.2 223.66 243.33C223.51 243.46 223.39 243.62 223.31 243.81C223.22 243.99 223.18 244.19 223.17 244.39C223.13 245.24 223.78 246.09 224.4 246.59C225.23 247.11 226.13 247.49 227.08 247.73C227.08 247.98 227.02 248.23 227.01 248.49C226.9 249.71 226.8 250.93 226.67 252.12C226.62 252.54 226.56 252.95 226.5 253.36C226.5 253.09 226.5 252.86 226.5 252.83C226.32 251.76 225.36 249.8 224.16 249.62C223.96 249.6 223.75 249.61 223.56 249.67C223.37 249.73 223.19 249.83 223.04 249.96C222.89 250.09 222.77 250.26 222.68 250.44C222.6 250.62 222.55 250.82 222.55 251.02C222.44 251.84 223.09 252.68 223.71 253.19Z" fill="#263238" fill-opacity="1.000000" fill-rule="nonzero"/>
		<path id="Vector" d="M255.43 243.13C254.47 242.38 252.39 243.04 251.49 243.66C251.41 243.71 250.3 244.67 250.32 244.68C249.99 244.78 249.64 244.89 249.26 245.03C248.55 245.28 247.76 245.56 246.92 245.93C246 246.31 245.11 246.75 244.25 247.25C243.28 247.79 242.37 248.42 241.51 249.13L241.48 249.15C241.67 248.85 242.18 248.02 242.21 247.93C242.65 246.94 242.93 244.78 242.02 243.96C241.87 243.83 241.69 243.73 241.5 243.67C241.31 243.62 241.1 243.6 240.91 243.63C240.71 243.65 240.51 243.72 240.34 243.83C240.17 243.93 240.03 244.08 239.91 244.24C239.41 244.93 239.49 245.98 239.71 246.76C239.98 247.63 241.28 249.12 241.38 249.24C240.53 249.98 239.72 250.77 238.98 251.63C238.54 252.12 238.11 252.63 237.69 253.14C237.85 252.88 237.99 252.64 238 252.61C238.45 251.62 238.72 249.45 237.82 248.63C237.67 248.5 237.49 248.4 237.3 248.35C237.1 248.29 236.9 248.28 236.7 248.3C236.5 248.33 236.31 248.4 236.14 248.5C235.97 248.61 235.82 248.75 235.71 248.92C235.2 249.6 235.28 250.66 235.52 251.43C235.92 252.31 236.47 253.13 237.12 253.85L236.65 254.41C235.89 255.38 235.13 256.34 234.37 257.25C234.11 257.58 233.81 257.89 233.55 258.2L233.82 257.73C234.26 256.75 234.54 254.58 233.64 253.76C233.48 253.62 233.3 253.53 233.11 253.47C232.92 253.41 232.72 253.4 232.52 253.43C232.32 253.45 232.13 253.52 231.95 253.63C231.78 253.73 231.64 253.87 231.52 254.04C231.02 254.73 231.1 255.78 231.33 256.56C231.71 257.45 232.23 258.28 232.87 259L232.31 259.62L232.81 259.92C233.15 259.56 233.49 259.19 233.82 258.78C234.4 259.56 235.09 260.24 235.88 260.8C236.25 261.03 236.67 261.18 237.1 261.22C237.54 261.27 237.98 261.23 238.39 261.09C238.57 261.01 238.74 260.89 238.88 260.74C239.01 260.59 239.12 260.42 239.18 260.23C239.24 260.04 239.27 259.84 239.25 259.64C239.23 259.43 239.17 259.24 239.07 259.07C238.44 258.03 236.23 257.89 235.2 258.14C235.14 258.14 234.4 258.42 234 258.57C234.27 258.25 234.54 257.94 234.8 257.61C235.56 256.67 236.29 255.69 237.03 254.71L237.71 253.82C237.82 253.95 239.03 255.53 239.84 255.93C240.21 256.15 240.63 256.29 241.06 256.34C241.49 256.39 241.93 256.35 242.34 256.21C242.53 256.13 242.69 256.01 242.83 255.86C242.97 255.71 243.07 255.54 243.13 255.35C243.2 255.16 243.22 254.96 243.2 254.76C243.18 254.56 243.12 254.36 243.02 254.19C242.39 253.15 240.21 253.01 239.16 253.26C239.08 253.26 238.02 253.66 237.76 253.77C238.26 253.11 238.77 252.47 239.29 251.85C240 251.01 240.76 250.23 241.56 249.49C241.61 249.55 242.87 251.19 243.69 251.61C244.41 251.98 245.43 252.26 246.2 251.89C246.39 251.81 246.55 251.7 246.69 251.55C246.82 251.4 246.93 251.22 246.99 251.03C247.06 250.84 247.08 250.64 247.06 250.44C247.04 250.24 246.98 250.05 246.88 249.87C246.25 248.83 244.07 248.69 243.02 248.94C242.93 248.94 241.8 249.37 241.59 249.46L241.74 249.33C242.56 248.61 243.46 247.97 244.4 247.41C244.92 247.09 245.43 246.84 245.93 246.57C246.14 246.89 247.07 248.38 247.78 248.84C248.5 249.31 249.44 249.68 250.24 249.41C250.44 249.35 250.61 249.25 250.77 249.12C250.92 248.99 251.04 248.82 251.12 248.64C251.21 248.46 251.25 248.26 251.26 248.06C251.26 247.86 251.22 247.66 251.14 247.47C250.63 246.37 248.48 246 247.4 246.13C247.34 246.13 246.76 246.27 246.33 246.38C246.56 246.27 246.8 246.15 247.02 246.05C247.85 245.66 248.64 245.36 249.34 245.1L250.44 244.72C251.27 245.24 252.17 245.63 253.11 245.88C253.54 245.96 253.98 245.94 254.4 245.83C254.83 245.72 255.22 245.52 255.56 245.24C255.69 245.1 255.8 244.93 255.87 244.74C255.94 244.56 255.97 244.36 255.96 244.16C255.95 243.96 255.9 243.76 255.81 243.59C255.71 243.41 255.59 243.25 255.43 243.13Z" fill="#263238" fill-opacity="1.000000" fill-rule="nonzero"/>
		<path id="Vector" d="M226.47 264.21L227.12 264.61L227.53 264.31L227.68 264.2L226.47 264.21Z" fill="#263238" fill-opacity="1.000000" fill-rule="nonzero"/>
		<path id="Vector" d="M38.29 226.63C38.12 226.74 37.97 226.88 37.86 227.05C37.75 227.22 37.68 227.41 37.65 227.61C37.62 227.81 37.63 228.01 37.68 228.2C37.73 228.4 37.82 228.58 37.95 228.73C38.36 229.2 38.92 229.5 39.54 229.58L40.76 226.79C39.9 226.4 38.91 226.22 38.29 226.63Z" fill="#263238" fill-opacity="1.000000" fill-rule="nonzero"/>
		<path id="Vector" d="M43.94 222.96C43.55 223.25 43.28 223.66 43.16 224.13L45.31 222.93C45.09 222.81 44.86 222.76 44.62 222.76C44.38 222.77 44.14 222.84 43.94 222.96Z" fill="#263238" fill-opacity="1.000000" fill-rule="nonzero"/>
		<path id="Vector" d="M44.3 202.66C45.03 203.28 47.08 203.83 47.08 203.83C47.08 203.83 47.04 202.37 47.02 202.28C46.85 201.21 45.88 199.24 44.7 199.06C44.5 199.03 44.29 199.05 44.1 199.1C43.91 199.16 43.73 199.26 43.58 199.39C43.42 199.52 43.3 199.69 43.22 199.87C43.13 200.05 43.09 200.25 43.08 200.45C43.06 201.31 43.73 202.14 44.3 202.66Z" fill="#263238" fill-opacity="1.000000" fill-rule="nonzero"/>
		<path id="Vector" d="M29.34 209.1C29.34 209.1 28.5 207.91 28.43 207.84C27.71 207.04 25.82 205.93 24.72 206.44C24.54 206.52 24.38 206.65 24.25 206.81C24.12 206.96 24.03 207.14 23.98 207.34C23.92 207.53 23.91 207.73 23.94 207.93C23.97 208.13 24.04 208.32 24.15 208.49C24.58 209.23 25.58 209.57 26.38 209.67C27.32 209.78 29.34 209.11 29.34 209.1Z" fill="#263238" fill-opacity="1.000000" fill-rule="nonzero"/>
		<path id="Vector" d="M28.28 204.57C28.33 204.91 28.39 205.28 28.47 205.67C28.62 206.41 28.79 207.23 29.04 208.12C29.29 209.08 29.6 210.03 29.97 210.96C30.37 211.99 30.87 212.99 31.45 213.93L31.45 213.97C31.18 213.74 30.41 213.11 30.31 213.08C29.4 212.51 27.29 211.94 26.34 212.7C26.19 212.83 26.07 213 25.99 213.18C25.9 213.37 25.86 213.57 25.86 213.77C25.86 213.97 25.9 214.17 25.99 214.35C26.07 214.54 26.19 214.7 26.34 214.84C26.95 215.43 28 215.5 28.8 215.4C29.71 215.27 31.36 214.18 31.49 214.1C32.11 215.04 32.79 215.95 33.52 216.81C33.95 217.31 34.39 217.81 34.85 218.3L34.36 217.91C33.44 217.34 31.33 216.77 30.38 217.54C30.23 217.67 30.11 217.84 30.03 218.02C29.95 218.21 29.91 218.41 29.91 218.61C29.91 218.81 29.95 219.01 30.03 219.19C30.11 219.38 30.23 219.54 30.38 219.68C30.73 219.94 31.13 220.12 31.56 220.22C31.98 220.31 32.42 220.31 32.85 220.21C33.78 219.93 34.66 219.51 35.47 218.96C35.64 219.14 35.81 219.33 35.99 219.53C36.83 220.41 37.69 221.29 38.49 222.19C38.77 222.5 39.06 222.82 39.31 223.13L38.89 222.8C37.97 222.24 35.86 221.67 34.91 222.43C34.76 222.56 34.64 222.73 34.56 222.91C34.48 223.1 34.43 223.3 34.43 223.5C34.43 223.7 34.48 223.9 34.56 224.08C34.64 224.27 34.76 224.43 34.91 224.57C35.52 225.16 36.58 225.23 37.37 225.13C38.28 224.86 39.14 224.45 39.92 223.92C40.19 224.25 40.46 224.58 40.7 224.92C40.86 225.16 41.03 225.37 41.18 225.61L41.18 225.64L41.4 225.16L41.52 225.08L41.15 224.58C40.74 224.04 40.31 223.51 39.85 223C40.69 222.53 41.46 221.94 42.12 221.24C42.4 220.91 42.6 220.51 42.71 220.09C42.82 219.67 42.83 219.22 42.75 218.79C42.7 218.6 42.61 218.42 42.48 218.27C42.35 218.11 42.19 217.98 42.01 217.89C41.83 217.81 41.63 217.75 41.43 217.75C41.23 217.74 41.03 217.77 40.85 217.85C39.71 218.32 39.29 220.46 39.39 221.54C39.39 221.61 39.56 222.37 39.65 222.79C39.37 222.48 39.08 222.17 38.82 221.86C37.98 220.98 37.11 220.12 36.25 219.25L35.47 218.45C35.61 218.37 37.31 217.39 37.84 216.64C38.15 216.31 38.38 215.91 38.52 215.48C38.65 215.04 38.69 214.58 38.62 214.13C38.57 213.94 38.47 213.76 38.34 213.6C38.22 213.45 38.06 213.32 37.88 213.23C37.7 213.14 37.5 213.09 37.3 213.08C37.1 213.07 36.9 213.1 36.71 213.18C35.57 213.65 35.15 215.8 35.26 216.87C35.26 216.95 35.49 218.06 35.56 218.33C35 217.77 34.43 217.15 33.86 216.55C33.13 215.74 32.45 214.88 31.84 213.97C31.91 213.93 33.69 212.91 34.23 212.15C34.5 211.82 34.7 211.43 34.81 211C34.92 210.58 34.94 210.14 34.86 209.71C34.81 209.52 34.71 209.33 34.59 209.17C34.46 209.01 34.3 208.88 34.12 208.79C33.94 208.7 33.74 208.65 33.54 208.64C33.33 208.63 33.13 208.66 32.94 208.74C31.8 209.21 31.38 211.35 31.48 212.43C31.48 212.52 31.74 213.7 31.8 213.91L31.68 213.76C31.09 212.83 30.58 211.86 30.16 210.85C29.92 210.28 29.72 209.75 29.54 209.21C30.45 208.84 31.3 208.33 32.05 207.7C32.36 207.39 32.6 207.02 32.76 206.62C32.91 206.21 32.97 205.77 32.94 205.34C32.9 205.14 32.83 204.95 32.72 204.79C32.61 204.62 32.46 204.48 32.29 204.37C32.12 204.27 31.93 204.2 31.74 204.17C31.54 204.14 31.34 204.15 31.14 204.2C30.01 204.56 29.31 206.63 29.29 207.72C29.29 207.78 29.35 208.38 29.39 208.82C29.32 208.57 29.24 208.32 29.16 208.09C28.89 207.21 28.71 206.38 28.55 205.66C28.46 205.25 28.38 204.87 28.32 204.53C28.95 203.78 29.47 202.94 29.84 202.03C29.98 201.62 30.03 201.18 29.98 200.75C29.93 200.32 29.78 199.9 29.55 199.53C29.43 199.37 29.28 199.23 29.11 199.13C28.93 199.03 28.74 198.97 28.54 198.95C28.33 198.94 28.13 198.96 27.94 199.02C27.75 199.09 27.58 199.19 27.43 199.33C26.56 200.18 26.92 202.33 27.43 203.31C27.46 203.34 28.26 204.59 28.28 204.57Z" fill="#263238" fill-opacity="1.000000" fill-rule="nonzero"/>
		<path id="Vector" d="M43.27 208.78C44.1 209.16 46.08 209.17 46.24 209.18C46.23 210.32 46.29 211.46 46.43 212.59C46.51 213.24 46.61 213.9 46.72 214.55C46.62 214.26 46.54 213.98 46.52 213.98C46.08 213 44.64 211.35 43.43 211.49C43.23 211.52 43.04 211.59 42.87 211.7C42.7 211.8 42.55 211.94 42.44 212.11C42.33 212.28 42.25 212.47 42.22 212.67C42.18 212.86 42.19 213.07 42.24 213.26C42.42 214.1 43.26 214.73 44 215.07C44.93 215.35 45.9 215.49 46.87 215.47C46.92 215.72 46.96 215.97 47 216.22C47.22 217.43 47.44 218.63 47.62 219.82C47.69 220.24 47.73 220.65 47.78 221.07L47.61 220.56C47.16 219.57 45.72 217.93 44.52 218.06C44.32 218.09 44.13 218.16 43.96 218.27C43.79 218.37 43.65 218.51 43.54 218.67C43.42 218.84 43.35 219.03 43.31 219.22C43.28 219.42 43.28 219.62 43.33 219.81C43.51 220.65 44.35 221.28 45.08 221.62C45.71 221.84 46.36 221.96 47.03 221.98L48.35 221.24L49.4 220.67L52.25 217.54C52.19 217.52 52.12 217.5 52.05 217.48C50.86 217.27 49.31 218.81 48.8 219.75C48.8 219.82 48.48 220.54 48.33 220.94C48.27 220.53 48.21 220.12 48.14 219.71C47.94 218.52 47.69 217.32 47.45 216.11C47.37 215.75 47.3 215.38 47.23 215.01C47.4 215.01 49.36 215.14 50.21 214.82C50.96 214.53 51.85 213.95 52.08 213.11C52.14 212.92 52.16 212.72 52.13 212.52C52.11 212.32 52.04 212.13 51.94 211.96C51.84 211.79 51.7 211.64 51.54 211.53C51.37 211.41 51.19 211.33 50.99 211.29C49.8 211.08 48.25 212.61 47.74 213.56C47.7 213.64 47.29 214.7 47.17 214.96C47.02 214.14 46.87 213.34 46.76 212.54C46.6 211.45 46.51 210.36 46.49 209.27C46.57 209.27 48.62 209.41 49.49 209.08C49.91 208.95 50.29 208.73 50.62 208.43C50.94 208.14 51.2 207.78 51.37 207.37C51.43 207.18 51.45 206.98 51.43 206.78C51.41 206.58 51.35 206.38 51.25 206.21C51.14 206.04 51.01 205.89 50.84 205.77C50.68 205.65 50.5 205.57 50.3 205.53C49.11 205.3 47.55 206.85 47.04 207.8C47 207.87 46.56 209 46.48 209.21C46.48 209.14 46.48 209.08 46.48 209.01C46.49 207.92 46.6 206.83 46.81 205.75C46.91 205.15 47.05 204.61 47.19 204.04C47.57 204.11 49.31 204.38 50.12 204.16C50.93 203.95 51.83 203.48 52.17 202.69C52.26 202.51 52.3 202.31 52.3 202.11C52.3 201.91 52.26 201.71 52.18 201.52C52.1 201.34 51.98 201.17 51.83 201.04C51.68 200.9 51.51 200.8 51.32 200.74C50.18 200.39 48.48 201.75 47.83 202.65C47.8 202.69 47.52 203.21 47.31 203.61C47.38 203.37 47.45 203.11 47.52 202.88C47.78 202 48.08 201.22 48.34 200.52C48.5 200.12 48.65 199.77 48.78 199.44C49.19 199.31 50.82 198.76 51.43 198.2C52.04 197.65 52.64 196.8 52.56 195.93C52.55 195.73 52.5 195.53 52.41 195.36C52.32 195.18 52.19 195.02 52.03 194.89C51.87 194.77 51.69 194.67 51.5 194.62C51.3 194.57 51.1 194.56 50.9 194.59C49.71 194.82 48.82 196.82 48.69 197.89C48.69 197.99 48.69 199.46 48.69 199.45C48.54 199.77 48.4 200.11 48.24 200.48C47.96 201.18 47.67 201.96 47.36 202.83C47.05 203.77 46.79 204.73 46.58 205.7C46.37 206.8 46.25 207.91 46.23 209.02L46.23 209.06C46.13 208.72 45.83 207.77 45.8 207.7C45.35 206.71 43.91 205.07 42.7 205.21C42.5 205.24 42.31 205.31 42.14 205.41C41.97 205.52 41.83 205.66 41.71 205.83C41.6 206 41.53 206.19 41.49 206.38C41.46 206.58 41.47 206.79 41.52 206.98C41.7 207.8 42.54 208.45 43.27 208.78Z" fill="#263238" fill-opacity="1.000000" fill-rule="nonzero"/>
		<path id="Vector" d="M125.65 221.38C125.45 221.41 125.26 221.48 125.09 221.58C124.92 221.69 124.77 221.83 124.66 222C124.55 222.17 124.47 222.36 124.44 222.55C124.4 222.75 124.41 222.96 124.46 223.15C124.6 223.56 124.84 223.94 125.14 224.25C125.44 224.57 125.81 224.81 126.22 224.96C126.78 225.16 127.36 225.28 127.96 225.3L128.46 224.7L128.74 223.88C128.3 222.88 126.85 221.24 125.65 221.38Z" fill="#263238" fill-opacity="1.000000" fill-rule="nonzero"/>
		<path id="Vector" d="M119.42 229.96C119.25 230.07 119.1 230.22 118.99 230.38C118.89 230.55 118.81 230.74 118.78 230.94C118.75 231.14 118.76 231.34 118.81 231.54C118.86 231.73 118.96 231.91 119.08 232.07C119.59 232.76 120.63 232.98 121.43 232.98C121.96 232.94 122.48 232.82 122.97 232.63L123.3 230.97L123.27 230.93C122.45 230.22 120.45 229.34 119.42 229.96Z" fill="#263238" fill-opacity="1.000000" fill-rule="nonzero"/>
		<path id="Vector" d="M125.07 226.33C124.14 226.89 123.96 228.72 124.13 229.85L126.85 226.62C126.63 226.37 126.34 226.2 126.01 226.15C125.68 226.09 125.35 226.16 125.07 226.33Z" fill="#263238" fill-opacity="1.000000" fill-rule="nonzero"/>
		<path id="Vector" d="M116.68 222.27C116.86 222.45 117.03 222.63 117.2 222.83C118.05 223.72 118.91 224.6 119.7 225.49C119.99 225.8 120.27 226.12 120.53 226.44L120.1 226.11C119.19 225.54 117.07 224.97 116.12 225.74C115.97 225.87 115.85 226.04 115.77 226.22C115.69 226.4 115.65 226.6 115.65 226.8C115.65 227.01 115.69 227.2 115.77 227.39C115.85 227.57 115.97 227.74 116.12 227.87C116.74 228.47 117.79 228.54 118.59 228.44C119.5 228.17 120.36 227.76 121.14 227.22C121.41 227.56 121.67 227.89 121.92 228.23C122.08 228.46 122.25 228.67 122.39 228.92L122.84 229.62C123.05 229.97 123.26 230.33 123.46 230.67L123.89 230.16C123.72 229.87 123.55 229.59 123.36 229.29L122.89 228.59C122.75 228.35 122.56 228.12 122.39 227.89C121.98 227.32 121.54 226.82 121.09 226.3C121.93 225.84 122.7 225.25 123.36 224.55C123.64 224.21 123.84 223.82 123.95 223.39C124.06 222.97 124.07 222.53 123.99 222.1C123.94 221.91 123.85 221.73 123.73 221.57C123.6 221.42 123.45 221.29 123.27 221.2C123.1 221.1 122.9 221.05 122.7 221.04C122.5 221.02 122.3 221.05 122.12 221.12C120.98 221.6 120.56 223.74 120.66 224.81C120.66 224.88 120.83 225.65 120.92 226.07C120.65 225.75 120.36 225.44 120.09 225.14C119.25 224.26 118.39 223.39 117.52 222.52L116.74 221.73C116.88 221.64 118.58 220.66 119.11 219.91C119.39 219.58 119.59 219.18 119.7 218.76C119.81 218.34 119.82 217.9 119.74 217.47C119.69 217.28 119.6 217.1 119.47 216.94C119.34 216.79 119.18 216.66 119 216.57C118.82 216.48 118.62 216.43 118.42 216.42C118.22 216.41 118.02 216.44 117.83 216.52C116.7 216.99 116.28 219.14 116.38 220.21C116.38 220.29 116.61 221.4 116.69 221.67C116.12 221.11 115.55 220.49 114.98 219.89C114.25 219.08 113.58 218.22 112.96 217.31C113.03 217.27 114.81 216.25 115.35 215.5C115.63 215.16 115.83 214.77 115.94 214.34C116.05 213.92 116.06 213.48 115.98 213.05C115.93 212.86 115.84 212.68 115.71 212.52C115.58 212.37 115.42 212.24 115.24 212.15C115.06 212.06 114.86 212.01 114.66 212C114.46 211.99 114.26 212.03 114.07 212.1C112.94 212.58 112.52 214.72 112.62 215.8C112.62 215.88 112.88 217.06 112.93 217.27L112.82 217.12C112.23 216.2 111.71 215.22 111.29 214.21C111.05 213.64 110.85 213.11 110.67 212.58C111.58 212.2 112.43 211.69 113.19 211.06C113.73 210.46 114.24 209.54 114.08 208.7C114.05 208.5 113.97 208.32 113.86 208.15C113.75 207.99 113.6 207.84 113.43 207.74C113.26 207.63 113.07 207.56 112.88 207.53C112.68 207.5 112.48 207.51 112.28 207.57C111.15 207.92 110.46 210 110.43 211.08C110.43 211.14 110.49 211.74 110.54 212.18C110.46 211.93 110.38 211.68 110.3 211.45C110.04 210.58 109.85 209.75 109.69 209.03C109.6 208.61 109.52 208.24 109.46 207.89C110.1 207.14 110.61 206.3 110.98 205.4C111.12 204.98 111.17 204.54 111.12 204.11C111.07 203.68 110.92 203.26 110.69 202.89C110.57 202.73 110.42 202.59 110.25 202.5C110.07 202.4 109.88 202.34 109.68 202.32C109.48 202.3 109.27 202.32 109.08 202.39C108.89 202.45 108.72 202.56 108.57 202.69C107.7 203.54 108.06 205.7 108.57 206.67C108.62 206.75 109.42 207.99 109.43 207.97C109.48 208.31 109.55 208.67 109.62 209.07C109.77 209.8 109.94 210.63 110.19 211.51C110.44 212.48 110.75 213.43 111.12 214.35C111.53 215.39 112.02 216.39 112.6 217.34C112.6 217.34 112.6 217.35 112.6 217.36C112.34 217.14 111.56 216.51 111.5 216.47C110.58 215.9 108.47 215.34 107.52 216.1C107.37 216.24 107.25 216.4 107.17 216.58C107.09 216.77 107.04 216.97 107.04 217.17C107.04 217.37 107.09 217.57 107.17 217.75C107.25 217.93 107.37 218.1 107.52 218.23C108.13 218.83 109.18 218.9 109.98 218.8C110.89 218.66 112.54 217.58 112.67 217.49C113.29 218.44 113.97 219.35 114.7 220.21C115.13 220.71 115.57 221.2 116.03 221.69L115.54 221.31C114.63 220.74 112.51 220.17 111.56 220.94C111.41 221.07 111.29 221.24 111.21 221.42C111.13 221.6 111.09 221.8 111.09 222C111.09 222.21 111.13 222.41 111.21 222.59C111.29 222.77 111.41 222.94 111.56 223.07C112.17 223.67 113.23 223.74 114.02 223.61C114.97 223.3 115.87 222.85 116.68 222.27Z" fill="#263238" fill-opacity="1.000000" fill-rule="nonzero"/>
		<path id="Vector" d="M125.46 206.03C126.18 206.64 128.23 207.2 128.23 207.2C128.23 207.2 128.19 205.73 128.18 205.64C128.01 204.57 127.04 202.61 125.85 202.42C125.65 202.39 125.45 202.41 125.26 202.47C125.06 202.53 124.89 202.63 124.73 202.76C124.58 202.89 124.46 203.05 124.37 203.23C124.29 203.42 124.24 203.62 124.24 203.82C124.19 204.67 124.84 205.5 125.46 206.03Z" fill="#263238" fill-opacity="1.000000" fill-rule="nonzero"/>
		<path id="Vector" d="M110.48 212.47C110.48 212.47 109.63 211.27 109.57 211.2C108.84 210.41 106.96 209.29 105.85 209.8C105.67 209.89 105.51 210.01 105.39 210.17C105.26 210.32 105.16 210.51 105.11 210.7C105.06 210.89 105.05 211.1 105.08 211.3C105.11 211.49 105.18 211.68 105.29 211.85C105.72 212.59 106.71 212.93 107.52 213.03C108.48 213.14 110.48 212.47 110.48 212.47Z" fill="#263238" fill-opacity="1.000000" fill-rule="nonzero"/>
		<path id="Vector" d="M124.39 212.14C125.22 212.52 127.19 212.54 127.35 212.54C127.34 213.67 127.41 214.8 127.55 215.92C127.63 216.57 127.73 217.23 127.84 217.89C127.74 217.6 127.65 217.32 127.64 217.32C127.19 216.34 125.75 214.69 124.55 214.83C124.35 214.86 124.16 214.93 123.98 215.04C123.81 215.14 123.67 215.28 123.56 215.45C123.44 215.62 123.37 215.81 123.33 216.01C123.3 216.2 123.31 216.41 123.35 216.6C123.54 217.44 124.38 218.07 125.11 218.41C126.05 218.69 127.02 218.83 127.99 218.81C128.03 219.06 128.07 219.31 128.12 219.56C128.34 220.77 128.56 221.98 128.74 223.16C128.74 223.33 128.78 223.51 128.8 223.69L129.16 222.66C128.97 221.61 128.75 220.54 128.54 219.48C128.47 219.12 128.39 218.75 128.32 218.39C129.1 218.43 129.88 218.42 130.65 218.33L131.65 215.44L132.44 214.76C132.33 214.71 132.22 214.67 132.11 214.65C130.91 214.43 129.37 215.97 128.86 216.92C128.82 216.99 128.4 218.06 128.29 218.31C128.14 217.5 127.99 216.69 127.88 215.89C127.71 214.81 127.63 213.72 127.61 212.63C127.69 212.63 129.74 212.76 130.61 212.43C131.02 212.3 131.41 212.08 131.73 211.79C132.06 211.49 132.31 211.13 132.48 210.73C132.54 210.54 132.57 210.34 132.54 210.14C132.52 209.94 132.46 209.74 132.36 209.57C132.26 209.39 132.12 209.24 131.96 209.12C131.8 209.01 131.61 208.92 131.41 208.88C130.22 208.66 128.67 210.21 128.16 211.16C128.12 211.23 127.68 212.35 127.59 212.56C127.59 212.5 127.59 212.44 127.59 212.37C127.61 211.27 127.72 210.18 127.92 209.1C128.03 208.54 128.16 207.97 128.31 207.4C128.69 207.46 130.42 207.74 131.24 207.52C132.05 207.3 132.94 206.84 133.29 206.05C133.37 205.87 133.41 205.67 133.41 205.47C133.42 205.26 133.37 205.07 133.29 204.88C133.21 204.7 133.09 204.53 132.95 204.4C132.8 204.26 132.62 204.16 132.43 204.09C131.29 203.75 129.59 205.11 128.95 206C128.91 206.05 128.63 206.57 128.43 206.97C128.49 206.72 128.56 206.47 128.63 206.24C128.9 205.36 129.2 204.57 129.45 203.87C129.61 203.48 129.76 203.13 129.9 202.8C130.31 202.66 131.93 202.12 132.54 201.56C133.16 201.01 133.76 200.16 133.68 199.29C133.67 199.09 133.62 198.89 133.52 198.71C133.43 198.53 133.3 198.38 133.15 198.25C132.99 198.12 132.81 198.03 132.61 197.98C132.42 197.93 132.22 197.92 132.02 197.95C130.82 198.18 129.94 200.18 129.81 201.25C129.81 201.35 129.78 202.82 129.81 202.81C129.66 203.13 129.52 203.46 129.36 203.84C129.08 204.53 128.77 205.32 128.48 206.19C128.17 207.13 127.91 208.09 127.7 209.06C127.47 210.15 127.34 211.25 127.3 212.37L127.3 212.43C127.2 212.09 126.9 211.14 126.87 211.07C126.42 210.08 124.98 208.44 123.77 208.58C123.57 208.6 123.38 208.67 123.21 208.78C123.04 208.89 122.9 209.03 122.78 209.2C122.67 209.36 122.6 209.55 122.56 209.75C122.53 209.95 122.54 210.15 122.59 210.35C122.83 211.17 123.67 211.8 124.39 212.14Z" fill="#263238" fill-opacity="1.000000" fill-rule="nonzero"/>
		<path id="Vector" d="M210.52 162.53L208.25 159.72L210.29 158.12L211.66 159.82L211.2 160.91L211.58 161.77L210.78 162.35L210.52 162.53ZM210.88 162.22L210.91 162.22C211.09 162.44 211.05 162.75 210.83 162.92C210.62 163.1 210.31 163.07 210.13 162.85L210.13 162.82L210.88 162.22ZM211.08 162.73L211.07 162.75C210.85 162.92 210.54 162.87 210.38 162.64C210.21 162.41 210.26 162.1 210.49 161.94L210.52 161.94L211.08 162.73Z" fill="#FFFFFF" fill-opacity="1.000000" fill-rule="nonzero"/>
		<path id="Vector" d="M210.52 162.53L208.25 159.72L210.29 158.12L211.66 159.82L211.2 160.91L211.58 161.77L210.78 162.35" stroke="#263238" stroke-opacity="1.000000" stroke-width="1.000000" stroke-linejoin="round" stroke-linecap="round"/>
		<path id="Vector" d="M228.9 167.41C228.9 167.41 227.35 166.03 226.77 166.12C226.19 166.21 218.59 167.48 218.59 167.48L211.6 161.77L210.53 162.53L217.22 170.93L224.49 170.47L222.93 178.43L216.31 183.46L227.1 189.91L229.28 183.04L237.87 174.58L234.53 170.4L228.9 167.41Z" fill="#000000" fill-opacity="1.000000" fill-rule="nonzero"/>
		<path id="Vector" d="M226.77 166.12C226.19 166.21 218.59 167.48 218.59 167.48L211.6 161.77L210.53 162.53L217.22 170.93L224.49 170.47L222.93 178.43L216.31 183.46L227.1 189.91L229.28 183.04L237.87 174.58L234.53 170.4L228.9 167.41C228.9 167.41 227.35 166.03 226.77 166.12Z" stroke="#263238" stroke-opacity="1.000000" stroke-width="1.000000" stroke-linejoin="round"/>
		<path id="Vector" d="M231.11 165.58L229.89 168.15L229.44 167.74L228.59 173.98L234.54 170.37L233.94 169.43L234.08 167.48L231.11 165.58Z" fill="#FFFFFF" fill-opacity="1.000000" fill-rule="nonzero"/>
		<path id="Vector" d="M229.89 168.15L229.44 167.74L228.59 173.98L234.54 170.37L233.94 169.43L234.08 167.48L231.11 165.58L229.89 168.15Z" stroke="#263238" stroke-opacity="1.000000" stroke-width="1.000000" stroke-linejoin="round"/>
		<path id="Vector" d="M228.59 173.98L232.07 171.87L229.16 169.82L228.59 173.98Z" fill="#FFFFFF" fill-opacity="1.000000" fill-rule="nonzero"/>
		<path id="Vector" d="M232.07 171.87L229.16 169.82L228.59 173.98L232.07 171.87Z" stroke="#263238" stroke-opacity="1.000000" stroke-width="1.000000" stroke-linejoin="round"/>
		<path id="Vector" d="M237.99 159.46C237.99 159.46 240.62 156.38 243.29 158.33C245.97 160.27 245.23 162.17 247.14 161.13C249.05 160.09 252.63 157.44 254.79 160.81C256.95 164.17 255.28 167.69 253.93 168.5C252.57 169.3 252.93 167.77 252.95 167.02C252.98 166.28 250.76 165.32 250.26 166.85C249.77 168.38 247.17 170.75 243.88 170.53C240.58 170.3 239.95 166.25 240.02 163.87C240.02 163.16 239.83 162.46 239.47 161.84C239.11 161.22 238.6 160.71 237.98 160.35L237.99 159.46Z" fill="#263238" fill-opacity="1.000000" fill-rule="nonzero"/>
		<path id="Vector" d="M243.29 158.33C245.97 160.27 245.23 162.17 247.14 161.13C249.05 160.09 252.63 157.44 254.79 160.81C256.95 164.17 255.28 167.69 253.93 168.5C252.57 169.3 252.93 167.77 252.95 167.02C252.98 166.28 250.76 165.32 250.26 166.85C249.77 168.38 247.17 170.75 243.88 170.53C240.58 170.3 239.95 166.25 240.02 163.87C240.02 163.16 239.83 162.46 239.47 161.84C239.11 161.22 238.6 160.71 237.98 160.35L237.99 159.46C237.99 159.46 240.62 156.38 243.29 158.33Z" stroke="#263238" stroke-opacity="1.000000" stroke-width="1.000000" stroke-linejoin="round"/>
		<path id="Vector" d="M231.68 158.83C231.68 158.83 230.04 162.49 230.38 164.66C230.72 166.82 230.53 168.49 231.64 168.91C232.74 169.33 236.39 167.12 237.2 165.66C238 164.2 239.16 162.09 238.84 160.07C238.52 158.05 234.65 155.1 231.68 158.83Z" fill="#FFFFFF" fill-opacity="1.000000" fill-rule="nonzero"/>
		<path id="Vector" d="M230.38 164.66C230.72 166.82 230.53 168.49 231.64 168.91C232.74 169.33 236.39 167.12 237.2 165.66C238 164.2 239.16 162.09 238.84 160.07C238.52 158.05 234.65 155.1 231.68 158.83C231.68 158.83 230.04 162.49 230.38 164.66Z" stroke="#263238" stroke-opacity="1.000000" stroke-width="1.000000" stroke-linejoin="round"/>
		<path id="Vector" d="M232.31 162.68C232.22 162.96 232.04 163.15 231.9 163.11C231.76 163.06 231.71 162.8 231.8 162.54C231.88 162.28 232.06 162.06 232.21 162.11C232.35 162.15 232.37 162.39 232.31 162.68Z" fill="#263238" fill-opacity="1.000000" fill-rule="nonzero"/>
		<path id="Vector" d="M234.93 163.77C234.85 164.05 234.66 164.25 234.52 164.2C234.37 164.16 234.33 163.9 234.41 163.64C234.5 163.38 234.69 163.16 234.83 163.2C234.97 163.24 235.02 163.48 234.93 163.77Z" fill="#263238" fill-opacity="1.000000" fill-rule="nonzero"/>
		<path id="Vector" d="M232.97 163.15C232.97 163.15 233.14 163.27 232.9 163.72C232.67 164.16 232.09 164 232.15 164.38C232.22 164.76 232.94 164.95 232.94 164.95" stroke="#263238" stroke-opacity="1.000000" stroke-width="1.000000" stroke-linejoin="round" stroke-linecap="round"/>
		<path id="Vector" d="M231.65 165.61C231.65 165.61 232.56 166.47 233.38 166.26" stroke="#263238" stroke-opacity="1.000000" stroke-width="1.000000" stroke-linejoin="round" stroke-linecap="round"/>
		<path id="Vector" d="M234.1 162.43L235.8 162.43" stroke="#263238" stroke-opacity="1.000000" stroke-width="1.000000" stroke-linejoin="round" stroke-linecap="round"/>
		<path id="Vector" d="M231.94 161.06L232.76 161.06" stroke="#263238" stroke-opacity="1.000000" stroke-width="1.000000" stroke-linejoin="round" stroke-linecap="round"/>
		<path id="Vector" d="M231.68 158.83C231.68 158.83 231.44 159.39 231.15 160.17C232.11 159.67 233.77 159.11 235.28 160.04C236.79 160.97 237.55 163.11 237.86 164.43C238.5 163.12 239.07 161.59 238.84 160.07C238.52 158.05 234.65 155.1 231.68 158.83Z" fill="#263238" fill-opacity="1.000000" fill-rule="nonzero"/>
		<path id="Vector" d="M231.15 160.17C232.11 159.67 233.77 159.11 235.28 160.04C236.79 160.97 237.55 163.11 237.86 164.43C238.5 163.12 239.07 161.59 238.84 160.07C238.52 158.05 234.65 155.1 231.68 158.83C231.68 158.83 231.44 159.39 231.15 160.17Z" stroke="#263238" stroke-opacity="1.000000" stroke-width="1.000000" stroke-linejoin="round"/>
		<path id="Vector" d="M237.46 164.37C237.46 164.37 238.65 163.28 238.6 164.27C238.56 165.26 237.2 165.85 236.9 165.89C236.6 165.94 236.62 165.56 236.62 165.56L237.46 164.37ZM237.8 164.71L237.8 164.74C237.6 164.93 237.29 164.91 237.1 164.71C236.91 164.5 236.92 164.19 237.13 164L237.15 164L237.8 164.71ZM236.14 165.55L236.12 165.53C236.14 165.25 236.37 165.04 236.65 165.06C236.93 165.07 237.13 165.31 237.12 165.59L237.1 165.6L236.14 165.55Z" fill="#FFFFFF" fill-opacity="1.000000" fill-rule="nonzero"/>
		<path id="Vector" d="M237.46 164.37C237.46 164.37 238.65 163.28 238.6 164.27C238.56 165.26 237.2 165.85 236.9 165.89C236.6 165.94 236.62 165.56 236.62 165.56" stroke="#263238" stroke-opacity="1.000000" stroke-width="1.000000" stroke-linejoin="round" stroke-linecap="round"/>
		<path id="Vector" d="M237.87 174.59L236.05 187.54C236.01 187.82 235.88 188.07 235.67 188.26C235.46 188.44 235.19 188.55 234.92 188.56L234.52 188.56C234.22 188.57 233.93 188.47 233.7 188.27C233.47 188.07 233.33 187.79 233.3 187.49L232.59 179.69L237.87 174.59Z" fill="#000000" fill-opacity="1.000000" fill-rule="nonzero"/>
		<path id="Vector" d="M236.05 187.54C236.01 187.82 235.88 188.07 235.67 188.26C235.46 188.44 235.19 188.55 234.92 188.56L234.52 188.56C234.22 188.57 233.93 188.47 233.7 188.27C233.47 188.07 233.33 187.79 233.3 187.49L232.59 179.69L237.87 174.59L236.05 187.54Z" stroke="#263238" stroke-opacity="1.000000" stroke-width="1.000000" stroke-linejoin="round"/>
		<path id="Vector" d="M234.58 185.77L228.75 180.62L227.44 181.72L233.04 188.2C233.16 188.33 233.31 188.43 233.48 188.5C233.65 188.56 233.83 188.59 234.01 188.57L234.47 188.57C234.65 188.56 234.82 188.52 234.98 188.44C235.13 188.35 235.27 188.24 235.37 188.1C235.48 187.95 235.55 187.79 235.59 187.62C235.62 187.44 235.62 187.27 235.57 187.09L234.58 185.77ZM234.88 185.39L234.91 185.39C235.12 185.58 235.14 185.89 234.95 186.1C234.77 186.31 234.46 186.33 234.25 186.14L234.25 186.11L234.88 185.39ZM235.11 187.23L235.09 187.22C235.02 186.95 235.18 186.68 235.45 186.61C235.72 186.54 235.99 186.7 236.06 186.97L236.04 187L235.11 187.23Z" fill="#000000" fill-opacity="1.000000" fill-rule="nonzero"/>
		<path id="Vector" d="M234.58 185.77L228.75 180.62L227.44 181.72L233.04 188.2C233.16 188.33 233.31 188.43 233.48 188.5C233.65 188.56 233.83 188.59 234.01 188.57L234.47 188.57C234.65 188.56 234.82 188.52 234.98 188.44C235.13 188.35 235.27 188.24 235.37 188.1C235.48 187.95 235.55 187.79 235.59 187.62C235.62 187.44 235.62 187.27 235.57 187.09" stroke="#263238" stroke-opacity="1.000000" stroke-width="1.000000" stroke-linejoin="round" stroke-linecap="round"/>
		<path id="Vector" d="M228.75 180.61L227.38 178.43L224.3 178.09L224.32 179.92L225.79 181.15L226.73 181.28L227.44 181.71L228.75 180.61Z" fill="#FFFFFF" fill-opacity="1.000000" fill-rule="nonzero"/>
		<path id="Vector" d="M227.38 178.43L224.3 178.09L224.32 179.92L225.79 181.15L226.73 181.28L227.44 181.71L228.75 180.61L227.38 178.43Z" stroke="#263238" stroke-opacity="1.000000" stroke-width="1.000000" stroke-linejoin="round"/>
		<path id="Vector" d="M212.26 187.44C212.26 187.44 205.83 195.8 206.18 197.19C206.54 198.57 215.93 213.25 215.93 213.25L217.24 212.38L212.08 196.26L222.45 192.13L212.26 187.44Z" fill="#FFFFFF" fill-opacity="1.000000" fill-rule="nonzero"/>
		<path id="Vector" d="M206.18 197.19C206.54 198.57 215.93 213.25 215.93 213.25L217.24 212.38L212.08 196.26L222.45 192.13L212.26 187.44C212.26 187.44 205.83 195.8 206.18 197.19Z" stroke="#263238" stroke-opacity="1.000000" stroke-width="1.000000" stroke-linejoin="round"/>
		<path id="Vector" d="M217.44 190.54L218.2 193.88L221.64 192.56L217.44 190.54Z" fill="#263238" fill-opacity="1.000000" fill-rule="nonzero"/>
		<path id="Vector" d="M218.2 193.88L221.64 192.56L217.44 190.54L218.2 193.88Z" stroke="#263238" stroke-opacity="1.000000" stroke-width="1.000000"/>
		<path id="Vector" d="M215.93 213.22L214.23 216.06C214.23 216.06 212.87 218.09 213.27 218.22C214.14 218.49 216.39 217.02 217.03 216.56C217.67 216.11 218.36 215.81 218.78 215.51C219.21 215.2 220.06 215.03 218.9 213.95C218.51 213.59 217.26 212.35 217.26 212.35L215.93 213.22Z" fill="#FFFFFF" fill-opacity="1.000000" fill-rule="nonzero"/>
		<path id="Vector" d="M214.23 216.06C214.23 216.06 212.87 218.09 213.27 218.22C214.14 218.49 216.39 217.02 217.03 216.56C217.67 216.11 218.36 215.81 218.78 215.51C219.21 215.2 220.06 215.03 218.9 213.95C218.51 213.59 217.26 212.35 217.26 212.35L215.93 213.22L214.23 216.06Z" stroke="#263238" stroke-opacity="1.000000" stroke-width="1.000000" stroke-linejoin="round"/>
		<path id="Vector" d="M226.55 184.77C223.65 183.61 220.69 182.63 217.68 181.83C212.47 180.42 208.62 179.32 208.69 180.62C208.77 181.92 218.24 202.87 218.24 202.87L219.87 202.36L217.39 190.8C217.39 190.8 221.37 193.59 224.3 192.21C227.24 190.83 228.36 187.09 228.15 185.82L226.55 184.77ZM226.71 184.31L226.73 184.3C226.99 184.41 227.12 184.69 227.01 184.95C226.91 185.21 226.62 185.33 226.36 185.23L226.35 185.2L226.71 184.31ZM227.68 185.92L227.66 185.9C227.62 185.63 227.8 185.37 228.08 185.33C228.35 185.28 228.6 185.47 228.65 185.74L228.63 185.77L227.68 185.92Z" fill="#263238" fill-opacity="1.000000" fill-rule="nonzero"/>
		<path id="Vector" d="M226.55 184.77C223.65 183.61 220.69 182.63 217.68 181.83C212.47 180.42 208.62 179.32 208.69 180.62C208.77 181.92 218.24 202.87 218.24 202.87L219.87 202.36L217.39 190.8C217.39 190.8 221.37 193.59 224.3 192.21C227.24 190.83 228.36 187.09 228.15 185.82" stroke="#263238" stroke-opacity="1.000000" stroke-width="1.000000" stroke-linejoin="round" stroke-linecap="round"/>
		<path id="Vector" d="M216.57 181.53C211.94 180.27 208.62 179.41 208.69 180.62C208.77 181.92 218.24 202.87 218.24 202.87L219.87 202.36L217.39 190.8C218.24 188.74 217.34 184.41 216.57 181.53Z" fill="#FFFFFF" fill-opacity="1.000000" fill-rule="nonzero"/>
		<path id="Vector" d="M208.69 180.62C208.77 181.92 218.24 202.87 218.24 202.87L219.87 202.36L217.39 190.8C218.24 188.74 217.34 184.41 216.57 181.53C211.94 180.27 208.62 179.41 208.69 180.62Z" stroke="#263238" stroke-opacity="1.000000" stroke-width="1.000000" stroke-linejoin="round"/>
		<path id="Vector" d="M213.33 185.36L213.31 185.38C213.03 185.38 212.81 185.16 212.81 184.88C212.81 184.6 213.03 184.38 213.31 184.38L213.33 184.4L213.33 185.36ZM217.37 184.4L217.39 184.38C217.67 184.38 217.89 184.6 217.89 184.88C217.89 185.16 217.67 185.38 217.39 185.38L217.37 185.36L217.37 184.4Z" fill="#FFFFFF" fill-opacity="1.000000" fill-rule="nonzero"/>
		<path id="Vector" d="M213.31 184.88L217.39 184.88" stroke="#263238" stroke-opacity="1.000000" stroke-width="1.000000" stroke-linejoin="round" stroke-linecap="round"/>
		<path id="Vector" d="M218.24 202.87L216.72 205.74C216.72 205.74 213.65 208.72 214.33 208.87C215.01 209.03 220.79 206.54 221.22 205.95C221.65 205.36 219.87 202.36 219.87 202.36L218.24 202.87Z" fill="#FFFFFF" fill-opacity="1.000000" fill-rule="nonzero"/>
		<path id="Vector" d="M216.72 205.74C216.72 205.74 213.65 208.72 214.33 208.87C215.01 209.03 220.79 206.54 221.22 205.95C221.65 205.36 219.87 202.36 219.87 202.36L218.24 202.87L216.72 205.74Z" stroke="#263238" stroke-opacity="1.000000" stroke-width="1.000000" stroke-linejoin="round"/>
		<path id="Vector" d="M211.18 161.15L225.5 161.15" stroke="#263238" stroke-opacity="1.000000" stroke-width="1.000000"/>
		<path id="Vector" d="M167.1 108.32L209.14 108.32" stroke="#263238" stroke-opacity="1.000000" stroke-width="1.000000"/>
		<path id="Vector" d="M226.73 181.28L226.73 264.21" stroke="#263238" stroke-opacity="1.000000" stroke-width="1.000000"/>
		<path id="Vector" d="M89.93 158.23C89.93 158.23 92.95 175.92 89.66 181.52C86.38 187.13 78.15 183.1 78.15 183.1L78.15 263.64" stroke="#263238" stroke-opacity="1.000000" stroke-width="1.000000"/>
		<path id="Vector" d="M71.78 164.85C71.78 164.85 74.46 164.55 74.66 165.16C74.78 165.67 74.78 166.2 74.66 166.7C74.66 166.7 76.2 168.35 76.2 169.48C76.2 170.61 74.56 171.13 74.56 171.13L74.25 173.8L70.14 174L69.62 170.82C69.62 170.82 68.08 164.75 71.78 164.85Z" fill="#FFFFFF" fill-opacity="1.000000" fill-rule="nonzero"/>
		<path id="Vector" d="M74.66 165.16C74.78 165.67 74.78 166.2 74.66 166.7C74.66 166.7 76.2 168.35 76.2 169.48C76.2 170.61 74.56 171.13 74.56 171.13L74.25 173.8L70.14 174L69.62 170.82C69.62 170.82 68.08 164.75 71.78 164.85C71.78 164.85 74.46 164.55 74.66 165.16Z" stroke="#263238" stroke-opacity="1.000000" stroke-width="1.000000" stroke-linejoin="round"/>
		<path id="Vector" d="M72.61 169.26L71.47 167.61C71.85 166.99 72.06 166.28 72.08 165.56C72.08 164.42 71.98 162.37 69.62 162.37C67.26 162.37 65.71 164.22 65.2 168.23C64.69 172.24 67.05 174.2 70.44 173.47C73.84 172.75 72.61 169.26 72.61 169.26Z" fill="#263238" fill-opacity="1.000000" fill-rule="nonzero"/>
		<path id="Vector" d="M71.47 167.61C71.85 166.99 72.06 166.28 72.08 165.56C72.08 164.42 71.98 162.37 69.62 162.37C67.26 162.37 65.71 164.22 65.2 168.23C64.69 172.24 67.05 174.2 70.44 173.47C73.84 172.75 72.61 169.26 72.61 169.26L71.47 167.61Z" stroke="#263238" stroke-opacity="1.000000" stroke-width="1.000000" stroke-linejoin="round"/>
		<path id="Vector" d="M72.5 168.56C72.5 168.56 70.76 168.35 70.86 169.69C70.88 169.98 71 170.25 71.18 170.47C71.37 170.7 71.62 170.86 71.9 170.94C72.17 171.01 72.47 171.01 72.75 170.91C73.02 170.82 73.26 170.64 73.43 170.41L72.5 168.56ZM72.54 168.08L72.56 168.06C72.84 168.09 73.03 168.34 73 168.61C72.97 168.89 72.72 169.08 72.45 169.05L72.43 169.03L72.54 168.08ZM73.03 170.14L73.03 170.11C73.2 169.89 73.5 169.84 73.73 170.01C73.95 170.18 74 170.49 73.83 170.71L73.8 170.72L73.03 170.14Z" fill="#FFFFFF" fill-opacity="1.000000" fill-rule="nonzero"/>
		<path id="Vector" d="M72.5 168.56C72.5 168.56 70.76 168.35 70.86 169.69C70.88 169.98 71 170.25 71.18 170.47C71.37 170.7 71.62 170.86 71.9 170.94C72.17 171.01 72.47 171.01 72.75 170.91C73.02 170.82 73.26 170.64 73.43 170.41" stroke="#263238" stroke-opacity="1.000000" stroke-width="1.000000" stroke-linejoin="round" stroke-linecap="round"/>
		<path id="Vector" d="M70.07 175.01L66.28 176.08C66.28 176.08 65.98 176.81 65.54 177.78C64.94 179.09 63.3 181.76 63.3 181.76L55.72 183.92L53.28 191.78L52.74 195.02L57.07 192.85L57.34 185.28L64.16 184.23L67.09 176.84L70.07 175.01Z" fill="#263238" fill-opacity="1.000000" fill-rule="nonzero"/>
		<path id="Vector" d="M66.28 176.08C66.28 176.08 65.98 176.81 65.54 177.78C64.94 179.09 63.3 181.76 63.3 181.76L55.72 183.92L53.28 191.78L52.74 195.02L57.07 192.85L57.34 185.28L64.16 184.23L67.09 176.84L70.07 175.01L66.28 176.08Z" stroke="#263238" stroke-opacity="1.000000" stroke-width="1.000000" stroke-linejoin="round"/>
		<path id="Vector" d="M76.11 173.9C76.11 173.9 73.12 172.57 70.86 172.87C68.6 173.18 68.81 174.31 68.81 174.31L68.91 175.85C68.91 175.85 72.7 174.72 76.11 173.9Z" fill="#000000" fill-opacity="1.000000" fill-rule="nonzero"/>
		<path id="Vector" d="M70.86 172.87C68.6 173.18 68.81 174.31 68.81 174.31L68.91 175.85C68.91 175.85 72.7 174.72 76.11 173.9C76.11 173.9 73.12 172.57 70.86 172.87Z" stroke="#263238" stroke-opacity="1.000000" stroke-width="1.000000" stroke-linejoin="round"/>
		<path id="Vector" d="M65.92 181.41L68.05 191.26C68.07 191.38 68.11 191.49 68.18 191.59C68.25 191.68 68.34 191.76 68.45 191.82C68.55 191.88 68.67 191.9 68.79 191.91C68.91 191.91 69.02 191.88 69.13 191.83L73.94 189.42L65.92 181.41Z" fill="#000000" fill-opacity="1.000000" fill-rule="nonzero"/>
		<path id="Vector" d="M68.05 191.26C68.07 191.38 68.11 191.49 68.18 191.59C68.25 191.68 68.34 191.76 68.45 191.82C68.55 191.88 68.67 191.9 68.79 191.91C68.91 191.91 69.02 191.88 69.13 191.83L73.94 189.42L65.92 181.41L68.05 191.26Z" stroke="#263238" stroke-opacity="1.000000" stroke-width="1.000000" stroke-linejoin="round"/>
		<path id="Vector" d="M70.16 187.13L70.14 187.15C69.86 187.15 69.64 186.93 69.64 186.65C69.64 186.37 69.86 186.15 70.14 186.15L70.16 186.17L70.16 187.13ZM71.25 186.17L71.27 186.15C71.55 186.15 71.77 186.37 71.77 186.65C71.77 186.93 71.55 187.15 71.27 187.15L71.25 187.13L71.25 186.17Z" fill="#FFFFFF" fill-opacity="1.000000" fill-rule="nonzero"/>
		<path id="Vector" d="M70.14 186.65L71.27 186.65" stroke="#263238" stroke-opacity="1.000000" stroke-width="1.000000" stroke-linejoin="round" stroke-linecap="round"/>
		<path id="Vector" d="M81.24 196.63L87.45 206.9L86.63 220.78L89.61 220.68L92.59 204.12L88.23 192.51L81.24 196.63Z" fill="#263238" fill-opacity="1.000000" fill-rule="nonzero"/>
		<path id="Vector" d="M87.45 206.9L86.63 220.78L89.61 220.68L92.59 204.12L88.23 192.51L81.24 196.63L87.45 206.9Z" stroke="#263238" stroke-opacity="1.000000" stroke-width="1.000000" stroke-linejoin="round"/>
		<path id="Vector" d="M68.9 175.85C68.9 175.85 65.92 180.99 65.92 181.41C65.92 181.82 77.54 193.03 77.54 193.03L86.39 187.16L80.83 177.51L88.83 169.66L89.44 159.06L88.01 158.96L85.43 166.68L76.91 173.39L68.9 175.85Z" fill="#000000" fill-opacity="1.000000" fill-rule="nonzero"/>
		<path id="Vector" d="M65.92 181.41C65.92 181.82 77.54 193.03 77.54 193.03L86.39 187.16L80.83 177.51L88.83 169.66L89.44 159.06L88.01 158.96L85.43 166.68L76.91 173.39L68.9 175.85C68.9 175.85 65.92 180.99 65.92 181.41Z" stroke="#263238" stroke-opacity="1.000000" stroke-width="1.000000" stroke-linejoin="round"/>
		<path id="Vector" d="M88 158.96L88.11 156.6L90.67 154.64L90.88 155.16L90.88 156.7L90.99 157.93L89.44 159.06L88 158.96Z" fill="#FFFFFF" fill-opacity="1.000000" fill-rule="nonzero"/>
		<path id="Vector" d="M88.11 156.6L90.67 154.64L90.88 155.16L90.88 156.7L90.99 157.93L89.44 159.06L88 158.96L88.11 156.6Z" stroke="#263238" stroke-opacity="1.000000" stroke-width="1.000000" stroke-linejoin="round"/>
		<path id="Vector" d="M77.54 193.02C77.54 193.02 79.5 196.31 80.95 197.34C82.41 198.37 86.9 195.18 88.03 194.25C89.17 193.32 93.49 187.78 93.49 187.78L97.5 204.86L99.97 203.83C99.97 203.83 98.52 181.11 97.8 180.48C97.09 179.84 85.98 187.06 85.98 187.06L77.54 193.02Z" fill="#263238" fill-opacity="1.000000" fill-rule="nonzero"/>
		<path id="Vector" d="M80.95 197.34C82.41 198.37 86.9 195.18 88.03 194.25C89.17 193.32 93.49 187.78 93.49 187.78L97.5 204.86L99.97 203.83C99.97 203.83 98.52 181.11 97.8 180.48C97.09 179.84 85.98 187.06 85.98 187.06L77.54 193.02C77.54 193.02 79.5 196.31 80.95 197.34Z" stroke="#263238" stroke-opacity="1.000000" stroke-width="1.000000" stroke-linejoin="round"/>
		<path id="Vector" d="M99.96 203.84L103.46 203.84C104.07 203.84 105.61 202.91 105.73 203.63C105.84 204.36 102.75 206.3 101.51 206.92C100.32 207.39 99.08 207.7 97.81 207.85L97.5 204.87L99.96 203.84Z" fill="#FFFFFF" fill-opacity="1.000000" fill-rule="nonzero"/>
		<path id="Vector" d="M103.46 203.84C104.07 203.84 105.61 202.91 105.73 203.63C105.84 204.36 102.75 206.3 101.51 206.92C100.32 207.39 99.08 207.7 97.81 207.85L97.5 204.87L99.96 203.84L103.46 203.84Z" stroke="#263238" stroke-opacity="1.000000" stroke-width="1.000000" stroke-linejoin="round"/>
		<path id="Vector" d="M89.61 220.68L91.36 223.87C91.36 223.87 93.52 224.79 93.52 225.21C93.52 225.62 90.02 225.41 89.71 225.41C89.4 225.41 85.91 222 85.91 222L86.63 220.77L89.61 220.68Z" fill="#FFFFFF" fill-opacity="1.000000" fill-rule="nonzero"/>
		<path id="Vector" d="M91.36 223.87C91.36 223.87 93.52 224.79 93.52 225.21C93.52 225.62 90.02 225.41 89.71 225.41C89.4 225.41 85.91 222 85.91 222L86.63 220.77L89.61 220.68L91.36 223.87Z" stroke="#263238" stroke-opacity="1.000000" stroke-width="1.000000" stroke-linejoin="round"/>
		<path id="Vector" d="M90.68 108.63L124.24 108.63" stroke="#263238" stroke-opacity="1.000000" stroke-width="1.000000"/>
		<path id="Vector" d="M6.81 264.23L276.04 264.23" stroke="#263238" stroke-opacity="1.000000" stroke-width="1.000000" stroke-linejoin="round" stroke-linecap="round"/>
	</g>
</svg>
