<svg xmlns="http://www.w3.org/2000/svg" width="500" height="500" fill="none"><defs><clipPath id="a"><path fill="#fff" fill-opacity="0" d="M0 0h500v500H0z"/></clipPath></defs><path fill="none" d="M0 0h500v500H0z"/><g clip-path="url(#a)"><path stroke="#263238" stroke-linecap="round" stroke-linejoin="round" d="M322.1 97.34a9.238 9.238 0 0 1-3.54 1.74c-3.55.79-13 .39-14.6 4.73a9.468 9.468 0 0 1-2.33 3.42 9.506 9.506 0 0 1-3.59 2.1s-7.48.4-7.88 2c-.4 1.6-3.15 4.34-3.15 4.34H416s4.34-6.7-2.76-13c-6.21-5.52-17.56 2.84-19-4M393.07 88.63c-1.44-5.2-4.47-12.2-10.62-14.79-10.26-4.34-18.93 1.58-21.3 7.49-2.37 5.91-3.94 9.85-13 4.73-9.06-5.14-17-4.73-19.72 2-.79 1.94-1.77 3.81-2.93 5.56M103.05 166.1h44.79s2.62-4-1.67-7.87-12.65 3.34-11.45-4.77c0 0-1-10-7.16-12.64a9.982 9.982 0 0 0-9.9.9"/><path stroke="#263238" stroke-linecap="round" stroke-linejoin="round" d="M114.68 145.35c-1.43 3.57-2.39 6-7.87 2.86s-10.27-2.86-11.94 1.2c-1.66 4.06-3.81 6.2-6 6.67-2.17.47-7.86.24-8.83 2.87-.31.78-.79 1.49-1.41 2.07-.62.58-1.36 1.01-2.16 1.26 0 0-4.54.24-4.77 1.2a9.64 9.64 0 0 1-1.91 2.62H96M327.25 166.1h21.15s2.62-4-1.67-7.87-12.64 3.34-11.45-4.77c0 0-.95-10-7.16-12.64-6.21-2.65-11.44 1-12.88 4.53-1.45 3.53-2.39 6-7.87 2.86-5.49-3.14-10.27-2.86-11.92 1.2-1.66 4.06-3.82 6.2-6 6.67-2.19.47-7.88.24-8.82 2.87-.32.78-.8 1.49-1.42 2.07a5.71 5.71 0 0 1-2.17 1.26s-4.53.24-4.76 1.2a9.64 9.64 0 0 1-1.91 2.62h49.82"/><g opacity=".1"><path fill="#000" d="M23.23 232.17c3.93.78 12.68-1.33 12.68-1.33s-3.14-5.35-3.37-5.66c-2.81-3.62-10.38-9-15.19-7.2-.79.31-1.5.79-2.1 1.4a6.088 6.088 0 0 0-1.72 4.63c.06.85.29 1.68.69 2.44 1.57 3.26 5.65 5.05 9.01 5.72Z" opacity=".1"/><path fill="#000" d="M31.82 257c3.84-.27 11.19-4.25 11.78-4.57 2.27 4.2 4.82 8.26 7.63 12.13 1.62 2.26 3.33 4.48 5.07 6.7-.95-.89-1.8-1.69-1.93-1.78-3.66-2.74-12.36-5.89-16.54-2.94-.69.52-1.25 1.17-1.66 1.91-.42.75-.67 1.57-.74 2.42-.08.85.03 1.7.3 2.51.28.8.72 1.54 1.31 2.16 2.37 2.72 6.79 3.38 10.2 3.14 3.41-.24 9.8-3.52 11.46-4.4.68.84 1.34 1.69 2 2.53 3.26 4 6.53 8 9.62 12.06 1.09 1.42 2.09 2.86 3.13 4.29-.84-.79-1.55-1.45-1.67-1.54-3.67-2.75-12.37-5.9-16.54-2.93-.69.51-1.26 1.16-1.67 1.9a6.09 6.09 0 0 0-.74 2.42c-.08.85.03 1.7.31 2.51.28.8.72 1.54 1.31 2.17 2.38 2.73 6.79 3.37 10.2 3.13 3.41-.25 9.18-3.2 11.16-4.25 1 1.5 2 3 2.92 4.5.6 1 1.24 2 1.78 3.08l1.65 3.13c1 2 2 4.12 2.92 6.12a226 226 0 0 1 1.82 4.07c-1.07-1.43-3.22-4.18-3.42-4.4-3.2-3.25-11.32-7.68-15.91-5.39-.75.4-1.41.95-1.93 1.63a5.997 5.997 0 0 0-1.17 4.8c.15.84.48 1.63.96 2.34 1.94 3.06 6.2 4.36 9.61 4.64 3.75.31 11.33-2.37 12.27-2.71 1 2.22 1.9 4.4 2.74 6.47.63 1.52 1.22 2.99 1.77 4.41l3.11-.68c-.66-1.57-1.36-3.21-2.08-4.92-1-2.26-2.07-4.66-3.22-7.12 2.14-1.44 4.19-3.02 6.15-4.72 3.17 2.22 10.45 4 11.39 4.28-.42 2.39-.84 4.71-1.28 6.9-.23 1.16-.46 2.25-.69 3.34l3.3-.72c.13-.68.25-1.36.37-2.06.44-2.43.85-5 1.25-7.71 1 0 9-.13 12.45-1.72 3.1-1.45 6.64-4.15 7.4-7.69.2-.83.23-1.69.08-2.53-.15-.84-.47-1.64-.95-2.34a5.991 5.991 0 0 0-4.19-2.61c-5.09-.56-11.17 6.41-13 10.58-.11.25-1 3.06-1.54 4.85.15-1.1.32-2.16.46-3.29.31-2.23.55-4.46.82-6.87.09-1.16.18-2.34.27-3.53.09-1.19.09-2.44.14-3.66 0-2.86 0-5.75-.18-8.66 2 .26 8.91 1.1 12.2.13 3.29-.95 7.2-3.09 8.48-6.47a6.095 6.095 0 0 0-.11-4.95c-.37-.77-.89-1.45-1.54-2.01-.64-.55-1.4-.96-2.21-1.2-5-1.34-12 4.63-14.5 8.49-.15.23-1.62 3.2-2.4 4.84-.1-1.75-.2-3.49-.36-5.26-.47-5.1-1.1-10.25-1.7-15.39-.19-1.58-.36-3.15-.53-4.72.69.1 8.94 1.28 12.63.2 3.28-1 7.19-3.1 8.48-6.48.32-.79.48-1.64.46-2.49-.02-.85-.22-1.69-.58-2.46-.37-.77-.89-1.45-1.53-2.01-.65-.55-1.41-.96-2.22-1.2-5-1.33-12 4.65-14.49 8.49-.19.29-2.3 4.56-2.78 5.67-.38-3.47-.73-6.92-.93-10.34-.3-4.62-.3-9.25 0-13.86.32.05 8.92 1.32 12.7.21 3.28-1 7.19-3.09 8.47-6.48.33-.79.49-1.64.47-2.49a5.8 5.8 0 0 0-.58-2.45c-.36-.77-.88-1.46-1.53-2.01-.64-.56-1.4-.97-2.21-1.21-5-1.32-12 4.65-14.5 8.5-.19.3-2.46 4.88-2.81 5.75v-.82c.42-4.62 1.26-9.19 2.51-13.66.65-2.48 1.42-4.81 2.21-7.06 1.58.4 8.81 2.15 12.32 1.53 3.51-.62 7.48-2.29 9.14-5.51.41-.75.66-1.57.73-2.42.08-.85-.03-1.7-.31-2.51-.28-.8-.72-1.54-1.3-2.16a6.083 6.083 0 0 0-2.07-1.44c-4.78-1.87-12.45 3.3-15.34 6.85-.15.19-1.53 2.33-2.52 3.9.38-1 .74-2.06 1.12-3 1.41-3.61 2.92-6.83 4.28-9.68.79-1.61 1.53-3 2.24-4.39 1.75-.41 8.8-2.17 11.58-4.3 2.78-2.13 5.59-5.48 5.57-9.1.02-.86-.14-1.7-.46-2.49-.33-.79-.82-1.5-1.43-2.09a6.322 6.322 0 0 0-2.16-1.32c-.8-.28-1.65-.39-2.5-.32-5.1.55-9.53 8.66-10.45 13.15-.08.38-.64 6.59-.55 6.57h.1c-.71 1.28-1.45 2.65-2.24 4.17-1.42 2.82-3 6-4.5 9.61-1.64 3.82-3.05 7.74-4.23 11.74a77.857 77.857 0 0 0-2.84 13.78c-.01.05-.01.11 0 .17-.3-1.47-1.26-5.56-1.37-5.87-1.54-4.31-7.05-11.73-12.18-11.57a6.043 6.043 0 0 0-4.38 2.28 6.09 6.09 0 0 0-1.13 2.26c-.21.82-.25 1.68-.1 2.52.48 3.58 3.8 6.55 6.78 8.24 3.36 1.89 11.69 2.62 12.35 2.68-.43 4.76-.54 9.55-.33 14.33.11 2.78.3 5.57.53 8.39-.29-1.27-.57-2.4-.62-2.55-1.54-4.31-7.06-11.73-12.18-11.57-.85.05-1.68.27-2.44.67-.76.39-1.42.93-1.95 1.6s-.91 1.44-1.13 2.26c-.21.83-.25 1.69-.1 2.53.48 3.59 3.8 6.56 6.77 8.24 2.98 1.68 10.12 2.47 12.01 2.66.1 1.06.18 2.15.29 3.22.49 5.15 1 10.3 1.36 15.37.13 1.78.18 3.53.25 5.3-.27-1.12-.5-2.06-.55-2.2-1.54-4.32-7-11.74-12.18-11.58a6.045 6.045 0 0 0-4.39 2.28c-.53.66-.91 1.44-1.13 2.26-.21.83-.25 1.69-.1 2.53.48 3.59 3.81 6.56 6.78 8.24 2.97 1.67 9.42 2.39 11.65 2.61v5.37c-.08 1.19-.07 2.35-.21 3.55-.14 1.2-.23 2.36-.34 3.52-.31 2.24-.6 4.54-1 6.71-.23 1.51-.48 2.94-.73 4.4-.1-1.78-.38-5.27-.43-5.55-.93-3.92-2.85-7.54-5.57-10.51-.08-.45-.21-.88-.37-1.29-.29-.81-.74-1.54-1.32-2.16-.59-.62-1.3-1.11-2.08-1.43-.79-.33-1.64-.48-2.49-.46-.85.02-1.69.23-2.45.6-4.56 2.34-5.78 11.5-5 16 0 .25.85 3.09 1.38 4.88-.47-1-.92-2-1.42-3-1-2-2-4-3.11-6.18l-1.72-3.09c-.56-1-1.27-2.08-1.91-3.13-1.53-2.42-3.2-4.78-4.93-7.12 1.78-.86 8-4 10.26-6.62s4.29-6.55 3.5-10.08c-.17-.84-.5-1.63-.99-2.33a6.203 6.203 0 0 0-1.85-1.72c-.73-.43-1.54-.71-2.38-.82-.85-.1-1.7-.03-2.51.21-4.86 1.64-7.45 10.52-7.4 15.09 0 .29.41 3.57.66 5.37-1-1.4-2.1-2.81-3.2-4.21-3.2-4-6.57-7.94-9.91-11.88-1-1.21-2-2.43-3-3.64.63-.3 8.16-3.87 10.64-6.81 2.21-2.61 4.29-6.55 3.5-10.08-.16-.84-.5-1.64-.98-2.34a6.11 6.11 0 0 0-1.85-1.73 5.97 5.97 0 0 0-2.39-.82c-.84-.11-1.7-.03-2.51.22-4.86 1.62-7.45 10.5-7.4 15.08 0 .34.6 5.06.8 6.25-2.22-2.67-4.42-5.36-6.47-8.1-2.8-3.69-5.35-7.55-7.64-11.56.29-.14 8.16-3.83 10.7-6.84 2.21-2.61 4.3-6.55 3.5-10.08a6.075 6.075 0 0 0-2.82-4.06c-.73-.44-1.54-.73-2.39-.83-.84-.11-1.7-.03-2.51.22-4.87 1.62-7.46 10.5-7.42 15.08 0 .36.66 5.44.84 6.35-.13-.24-.3-.46-.43-.7a78.51 78.51 0 0 1-5.44-12.78c-.82-2.42-1.47-4.79-2-7.11 1.53-.53 8.53-3.06 11.12-5.52 2.59-2.46 5-6 4.58-9.63-.07-.85-.31-1.68-.72-2.43-.4-.75-.96-1.41-1.64-1.92-.67-.52-1.45-.89-2.28-1.09-.83-.2-1.69-.22-2.53-.06-5 1.08-8.55 9.62-9 14.18 0 .25 0 2.79.07 4.65-.25-1.05-.52-2.13-.74-3.14-.83-3.79-1.34-7.31-1.77-10.43-.23-1.78-.4-3.39-.56-4.9 1.24-1.31 6.14-6.67 7.29-10 1.15-3.33 1.64-7.66-.37-10.66a6.145 6.145 0 0 0-1.76-1.83c-.71-.47-1.5-.8-2.34-.95a6 6 0 0 0-2.53.09c-.83.2-1.6.58-2.27 1.11-3.94 3.27-3.16 12.49-1.46 16.74.14.37 3.1 5.85 3.16 5.78l.08-.08c.11 1.46.25 3 .43 4.72.37 3.13.81 6.67 1.54 10.5.77 4.12 1.77 8.2 3 12.22a80.79 80.79 0 0 0 5.23 13.05s.07.1.09.15c-1-1.07-4.11-3.95-4.37-4.14-3.67-2.75-12.36-5.9-16.54-2.93-.69.51-1.26 1.16-1.67 1.9-.42.75-.67 1.57-.74 2.42-.08.85.03 1.7.31 2.51.28.81.72 1.54 1.31 2.17 2.2 2.74 6.61 3.38 10.02 3.17Z" opacity=".1"/><path fill="#000" d="M112.58 214.71c.09 0 .33-6.19.3-6.58-.35-4.57-3.71-13.18-8.69-14.38a6.036 6.036 0 0 0-4.84 1.04c-.69.5-1.26 1.14-1.68 1.88-.43.74-.69 1.56-.77 2.41-.48 3.59 1.94 7.33 4.36 9.74 2.85 2.83 11.32 5.89 11.32 5.89Z" opacity=".1"/></g><g opacity=".1"><path fill="#000" d="M469.06 318.29c-3.38.12-10.37-2.8-10.37-2.8s3.32-4 3.57-4.25c2.81-2.64 9.8-6.05 13.57-4 .61.36 1.14.86 1.56 1.44.41.59.7 1.25.83 1.96.14.7.13 1.42-.02 2.12-.16.7-.47 1.36-.89 1.94-1.75 2.54-5.38 3.48-8.25 3.59Z" opacity=".1"/><path fill="#000" d="M458.61 337.75c-3.16-.73-8.73-5-9.18-5.37a91.717 91.717 0 0 1-8 9.06 157.88 157.88 0 0 1-5.1 4.9c.9-.62 1.71-1.16 1.84-1.22 3.41-1.8 11.05-3.25 14.13-.23a5.103 5.103 0 0 1 .82 5.95c-.33.63-.8 1.19-1.36 1.63-2.34 1.95-6.09 1.89-8.89 1.24-2.8-.65-7.68-4.23-8.94-5.19-.68.61-1.34 1.23-2 1.83-3.24 2.92-6.49 5.81-9.6 8.75-1.09 1-2.13 2.09-3.17 3.14.8-.54 1.48-1 1.59-1.06 3.41-1.79 11.06-3.24 14.14-.22.49.51.88 1.12 1.12 1.8.24.67.34 1.39.29 2.1-.05.72-.25 1.41-.59 2.04-.33.63-.8 1.19-1.36 1.63-2.34 2-6.09 1.9-8.9 1.25-2.81-.65-7.2-3.89-8.71-5-1 1.11-2.07 2.23-3 3.35-.64.78-1.3 1.49-1.89 2.32l-1.8 2.38c-1.08 1.55-2.21 3.15-3.23 4.69-.72 1.07-1.38 2.1-2.06 3.14 1.08-1.05 3.23-3 3.43-3.19 3.1-2.29 10.43-4.88 13.94-2.37.56.43 1.04.98 1.38 1.61.34.63.55 1.33.61 2.04.05.71-.04 1.43-.28 2.11-.24.68-.61 1.29-1.1 1.82-2 2.28-5.74 2.8-8.61 2.57-3.15-.24-9.09-3.48-9.83-3.89-1.11 1.72-2.17 3.4-3.14 5-.72 1.18-1.41 2.33-2.06 3.43l-2.5-1c.75-1.22 1.55-2.48 2.39-3.81 1.12-1.75 2.35-3.59 3.63-5.48a54.143 54.143 0 0 1-4.48-4.74c-2.93 1.42-9.22 2-10 2 0 2 .07 4 .15 5.9 0 1 .08 1.94.12 2.87l-2.64-1v-8.34c-.82-.14-7.5-1.31-10.12-3.09-2.38-1.62-5-4.34-5.12-7.38-.07-.72.02-1.44.26-2.12.23-.67.61-1.29 1.1-1.82a5.09 5.09 0 0 1 1.75-1.21c.66-.28 1.37-.41 2.09-.39 4.3.22 8.42 6.82 9.42 10.54.06.22.43 2.67.64 4.23 0-.94 0-1.84.05-2.8 0-1.89.14-3.78.23-5.81.09-1 .17-2 .25-3 .08-1 .25-2 .38-3.06.33-2.38.79-4.77 1.3-7.17-1.66 0-7.55-.27-10.16-1.51-2.61-1.24-5.56-3.53-6.18-6.52a5.099 5.099 0 0 1 4.3-6.26c4.29-.44 9.36 5.46 10.91 9 .1.22.93 2.88 1.35 4.34.32-1.44.63-2.88 1-4.32 1.07-4.18 2.28-8.37 3.47-12.56.37-1.29.71-2.57 1.07-3.85-.59 0-7.6-.13-10.52-1.52-2.6-1.24-5.57-3.54-6.18-6.52-.18-.7-.2-1.43-.07-2.13.13-.71.41-1.38.81-1.97.41-.59.94-1.09 1.55-1.46a5.08 5.08 0 0 1 2.01-.7c4.29-.44 9.36 5.46 10.91 9 .11.26 1.3 4.09 1.55 5.07.78-2.82 1.53-5.66 2.15-8.46.86-3.8 1.48-7.64 1.85-11.51-.28 0-7.59-.1-10.58-1.53-2.6-1.23-5.57-3.53-6.19-6.51-.17-.7-.19-1.43-.06-2.13.13-.71.4-1.38.81-1.97.4-.59.93-1.09 1.54-1.46.61-.38 1.29-.62 2.01-.71 4.3-.44 9.36 5.47 10.91 9 .13.28 1.4 4.4 1.58 5.15 0-.22.06-.45.08-.67.25-3.9.16-7.81-.27-11.69-.21-2.14-.53-4.18-.89-6.17-1.36.13-7.6.62-10.44-.36s-5.92-2.9-6.86-5.8c-.25-.68-.35-1.4-.3-2.11.06-.72.26-1.41.6-2.04.34-.64.8-1.19 1.37-1.63.57-.44 1.22-.75 1.92-.92 4.21-.92 9.9 4.39 11.83 7.74.1.18 1 2.14 1.57 3.58-.17-.9-.34-1.81-.52-2.66-.69-3.19-1.52-6.08-2.27-8.61-.44-1.44-.87-2.74-1.28-4-1.4-.58-7-3-9-5.13-2-2.11-3.92-5.29-3.42-8.29.09-.72.33-1.4.7-2.01a5.3 5.3 0 0 1 1.47-1.55c.59-.4 1.26-.68 1.97-.81.7-.13 1.43-.1 2.13.07 4.16 1.14 6.76 8.47 6.94 12.31 0 .35-.35 5.57-.42 5.53h-.09c.42 1.16.86 2.41 1.31 3.78.81 2.53 1.7 5.4 2.46 8.58.86 3.42 1.53 6.89 2 10.39.52 3.93.7 7.88.53 11.84-.01.04-.01.09 0 .13.44-1.18 1.79-4.45 1.92-4.69 1.85-3.37 7.42-8.81 11.66-8 .69.15 1.35.45 1.93.88.57.43 1.05.97 1.4 1.59.36.63.57 1.32.64 2.03.07.72-.02 1.44-.24 2.12-.88 2.92-4 5-6.73 6-3.05 1.13-10.07.62-10.62.57-.35 4.01-.96 8-1.82 11.93-.46 2.29-1 4.6-1.56 6.9.41-1 .79-1.91.86-2 1.86-3.39 7.43-8.81 11.66-8 .7.15 1.36.45 1.93.88.58.42 1.06.97 1.41 1.59.35.63.57 1.32.63 2.03.07.72-.01 1.44-.24 2.11-.88 2.92-4 4.95-6.73 5.95-2.73 1-8.73.71-10.32.6-.22.88-.44 1.77-.67 2.64-1.1 4.22-2.21 8.43-3.18 12.59-.34 1.47-.63 2.92-.91 4.38.37-.9.68-1.65.74-1.76 1.86-3.38 7.43-8.81 11.67-8 .69.15 1.35.45 1.93.88.57.43 1.05.97 1.4 1.59.36.63.57 1.32.64 2.03.07.72-.02 1.44-.24 2.12-.88 2.91-4 4.94-6.74 5.94s-8.14.73-10 .62c-.25 1.5-.5 3-.68 4.47-.09 1-.25 2-.3 3l-.18 3c-.05 1.9-.11 3.85-.11 5.7v3.75c.32-1.46 1-4.31 1.1-4.54a19.68 19.68 0 0 1 6-8c.12-.35.28-.69.48-1 .34-.63.81-1.18 1.38-1.62.57-.43 1.22-.74 1.92-.9.7-.17 1.42-.19 2.13-.05.7.13 1.37.41 1.96.82 3.48 2.56 3.27 10.34 2 14-.07.21-1.11 2.47-1.79 3.88.53-.77 1-1.52 1.58-2.31 1.08-1.55 2.2-3.08 3.41-4.72l1.84-2.34c.6-.79 1.33-1.56 2-2.35 1.6-1.79 3.3-3.54 5.05-5.26-1.37-.95-6.15-4.39-7.64-6.86-1.49-2.47-2.7-6-1.56-8.85.24-.67.62-1.28 1.11-1.8.5-.51 1.09-.91 1.75-1.18.66-.27 1.37-.4 2.08-.37.71.02 1.41.19 2.06.5 3.82 2 4.79 9.72 4.14 13.52 0 .23-.82 2.91-1.27 4.36 1.06-1 2.11-2.05 3.22-3.05 3.2-2.9 6.52-5.73 9.82-8.56l3-2.63c-.49-.33-6.27-4.3-7.94-7.07-1.49-2.46-2.69-6-1.56-8.84.24-.67.62-1.28 1.11-1.8.5-.51 1.09-.91 1.75-1.18.66-.27 1.37-.4 2.08-.38.71.02 1.41.19 2.06.5 3.82 2 4.79 9.72 4.14 13.52 0 .29-1.17 4.13-1.5 5.09 2.21-1.92 4.39-3.87 6.46-5.87 2.86-2.71 5.54-5.61 8.02-8.67-.23-.16-6.27-4.27-8-7.11-1.49-2.47-2.7-6-1.57-8.85.24-.68.63-1.29 1.12-1.81.5-.51 1.1-.92 1.77-1.19.66-.27 1.37-.39 2.09-.37.72.03 1.42.2 2.07.52 3.82 2 4.79 9.72 4.14 13.52-.05.3-1.26 4.43-1.53 5.16.14-.17.3-.34.44-.52 2.36-3.11 4.45-6.42 6.23-9.89 1-1.92 1.86-3.79 2.65-5.64-1.21-.64-6.68-3.68-8.5-6.06-1.82-2.38-3.34-5.69-2.53-8.62.16-.7.47-1.36.91-1.93.44-.56.99-1.03 1.62-1.38.63-.34 1.33-.54 2.05-.59.71-.06 1.43.04 2.11.29 4 1.57 5.83 9.13 5.6 13 0 .21-.38 2.32-.66 3.85.34-.84.71-1.69 1-2.5 1.18-3 2.08-5.9 2.86-8.44.43-1.44.79-2.76 1.11-4-.85-1.26-4.21-6.37-4.72-9.26-.51-2.9-.34-6.59 1.73-8.81.47-.55 1.04-.98 1.69-1.29.65-.3 1.36-.46 2.08-.47.71-.02 1.42.12 2.08.4.66.28 1.26.7 1.75 1.23 2.85 3.25 1 10.8-1 14.1-.17.29-3.36 4.45-3.4 4.39l-.06-.08c-.28 1.2-.61 2.47-1 3.86-.63 2.49-1.51 5.41-2.63 8.49a92.75 92.75 0 0 1-4.1 9.76 67.371 67.371 0 0 1-6.09 10.15c-.03.03-.06.07-.09.11 1-.74 3.95-2.73 4.19-2.86 3.41-1.79 11.06-3.25 14.14-.23a5.103 5.103 0 0 1 .82 5.95c-.33.63-.8 1.19-1.36 1.63-2.34 1.95-6.1 1.9-8.9 1.24Z" opacity=".1"/><path fill="#000" d="M397.14 291.87c-.08 0 .55-5.19.63-5.52.9-3.75 4.84-10.45 9.14-10.78.71-.04 1.43.08 2.09.34.67.26 1.28.65 1.78 1.16.5.51.9 1.12 1.15 1.79.25.67.36 1.39.32 2.11-.07 3-2.58 5.82-4.92 7.51-2.75 1.97-10.19 3.37-10.19 3.39Z" opacity=".1"/></g><path stroke="#263238" stroke-linecap="round" stroke-linejoin="round" d="m208.65 33.36 12.5 118.78"/><path fill="#FFF" d="m246.14 58.6-9.32 2.14-8.53 16.87-13.51-3.86-.38 3.68 16.8 6.97 6.01-8.34v14.55l18.04.78 3.69-16.49 6.59 5.82v15.32h3.88l2.33-19.2-10.28-16.68-15.32-1.56Z"/><path stroke="#263238" stroke-linejoin="round" d="m236.82 60.74-8.53 16.87-13.51-3.86-.38 3.68 16.8 6.97 6.01-8.34v14.55l18.04.78 3.69-16.49 6.59 5.82v15.32h3.88l2.33-19.2-10.28-16.68-15.32-1.56-9.32 2.14Z"/><path stroke="#263238" stroke-linecap="round" stroke-linejoin="round" d="m237.21 76.06-.14-8.21"/><path fill="#000" d="m246 64 2.53 4.75s7 2.22 8.23 2.53c1.25.31 5.08-.95 8.24-1.59 3.16-.62 13.31 4.44 13.31 4.44l8.87.31-4.75-5.69-17.11-2.54-8.87 2.86-6-1.59 1.28-2.48-2.85-4.44L246 64Z"/><path stroke="#263238" stroke-linejoin="round" d="M248.53 68.75s7 2.22 8.23 2.53c1.25.31 5.08-.95 8.24-1.59 3.16-.62 13.31 4.44 13.31 4.44l8.87.31-4.75-5.69-17.11-2.54-8.87 2.86-6-1.59 1.28-2.48-2.85-4.44L246 64l2.53 4.75Z"/><path fill="#FFF" d="M246.91 57.24c-.52-.1-1.05.01-1.49.3-.43.29-.74.74-.84 1.26-.38 1.94-.77 6.79-.77 6.79l4.65-1.36 5.44 2.33s1.74-5.05.77-6.79c-.97-1.74-5.43-4.08-7.76-2.53Z"/><path stroke="#263238" stroke-linejoin="round" d="M245.42 57.54c-.43.29-.74.74-.84 1.26-.38 1.94-.77 6.79-.77 6.79l4.65-1.36 5.44 2.33s1.74-5.05.77-6.79c-.97-1.74-5.43-4.08-7.76-2.53-.52-.1-1.05.01-1.49.3Z"/><path fill="#FFF" d="M245.94 54.53s.58 5.43.78 7.37c.2 1.94 1.36 4.85 2.13 4.26.77-.57 3.49-6 3.49-6l1.36-3.67-7.76-1.96Z"/><path stroke="#263238" stroke-linejoin="round" d="M246.72 61.9c.2 1.94 1.36 4.85 2.13 4.26.77-.57 3.49-6 3.49-6l1.36-3.67-7.76-1.96s.58 5.43.78 7.37Z"/><path fill="#FFF" d="M246 46.6s-1.7-.15-1.7 2.63 1.23 2.93 1.23 2.93l.47-5.56Z"/><path stroke="#263238" stroke-linejoin="round" d="M244.3 49.23c0 2.78 1.23 2.93 1.23 2.93l.47-5.56s-1.7-.15-1.7 2.63Z"/><path fill="#FFF" d="M257.37 48.92c.22.01.43.07.63.17.19.1.36.25.49.43.13.17.23.38.27.59.05.22.05.44 0 .66-.31 1.7-3.24 4-3.24 4l1.85-5.85Z"/><path stroke="#263238" stroke-linejoin="round" d="M258 49.09c.19.1.36.25.49.43.13.17.23.38.27.59.05.22.05.44 0 .66-.31 1.7-3.24 4-3.24 4l1.85-5.85c.22.01.43.07.63.17Z"/><path fill="#FFF" d="M251.76 41s-3.1-.78-4.85 2.9c-1.75 3.7-1.36 8.16-1 10.68.36 2.52 2.72 3.68 5.05 3.68 2.33 0 5.8-4.85 6.58-8.53.78-3.69.22-8.73-5.78-8.73Z"/><path stroke="#263238" stroke-linejoin="round" d="M246.91 43.9c-1.75 3.7-1.36 8.16-1 10.68.36 2.52 2.72 3.68 5.05 3.68 2.33 0 5.8-4.85 6.58-8.53.78-3.69.22-8.73-5.78-8.73 0 0-3.1-.78-4.85 2.9Z"/><path fill="#FFF" d="m211.03 71.6.77 5.82 3.49.39-.58-6.6-3.68.39Z"/><path stroke="#263238" stroke-linejoin="round" d="m211.8 77.42 3.49.39-.58-6.6-3.68.39.77 5.82Z"/><path fill="#FFF" d="m214.78 71.51 1.41-.19.28 3.1-1.41.19-.28-3.1Z"/><path stroke="#263238" stroke-linejoin="round" d="m216.19 71.32.28 3.1-1.41.19-.28-3.1 1.41-.19Z"/><path fill="#FFF" d="m265.53 96.04-2.12 3.32.54 3.33 1.86-.18 3.14-1.11.46-5.36h-3.88Z"/><path stroke="#263238" stroke-linejoin="round" d="m263.41 99.36.54 3.33 1.86-.18 3.14-1.11.46-5.36h-3.88l-2.12 3.32Z"/><path fill="#263238" d="m237.2 90.61-1.36 5.98-15.18 19.98 10.18 28.68 2.59-.55-2.23-27.39 12.41-13.14 1.48.93.04 14.66 14.21 24.02 2.95-.75-6.65-23.13.37-24.61-.76-3.9-18.05-.78Z"/><path stroke="#263238" stroke-linejoin="round" d="m235.84 96.59-15.18 19.98 10.18 28.68 2.59-.55-2.23-27.39 12.41-13.14 1.48.93.04 14.66 14.21 24.02 2.95-.75-6.65-23.13.37-24.61-.76-3.9-18.05-.78-1.36 5.98Z"/><path fill="#FFF" d="m230.84 145.25-2.22 3.14s-3.52 1.68-4.07 2.6c-.55.92 3 .74 3 .74l4.07-.37 4.26-2.77-2.41-3.89-2.63.55Z"/><path stroke="#263238" stroke-linejoin="round" d="M228.62 148.39s-3.52 1.68-4.07 2.6c-.55.92 3 .74 3 .74l4.07-.37 4.26-2.77-2.41-3.89-2.63.55-2.22 3.14Z"/><path fill="#000" d="M209.18 37.59s-1.86 4.24-9.54 7.15c-7.68 2.91-18.8 4.5-21.71 10.59s-2.91 5.57-3.44 9c-.29 2-1.22 3.86-2.65 5.29 0 0 2.65.27 4-1.58s1.86-7.15 4-7.95c2.14-.8 6.03-2.09 6.03-2.09s-3.7 3.18-4 4.77c-.3 1.59-.53 5.3-1.06 7.68-.24 1.3-.87 2.49-1.81 3.42 0 0 3.44 0 4.5-2.38s0-5.56 3.44-7.95c3.44-2.39 7.15-1.32 13-1.06s11.39-3.17 11.39-3.17l-2.15-21.72Z"/><path stroke="#263238" stroke-linejoin="round" d="M199.64 44.74c-7.68 2.91-18.8 4.5-21.71 10.59s-2.91 5.57-3.44 9c-.29 2-1.22 3.86-2.65 5.29 0 0 2.65.27 4-1.58s1.86-7.15 4-7.95c2.14-.8 6.03-2.09 6.03-2.09s-3.7 3.18-4 4.77c-.3 1.59-.53 5.3-1.06 7.68-.24 1.3-.87 2.49-1.81 3.42 0 0 3.44 0 4.5-2.38s0-5.56 3.44-7.95c3.44-2.39 7.15-1.32 13-1.06s11.39-3.17 11.39-3.17l-2.15-21.72s-1.86 4.24-9.54 7.15Z"/><path fill="#FFF" d="m259.34 143.78-2.55 8.47 6.33-.25-.83-8.97-2.95.75Z"/><path stroke="#263238" stroke-linejoin="round" d="m256.79 152.25 6.33-.25-.83-8.97-2.95.75-2.55 8.47Z"/><path fill="#263238" d="M249.64 48.42c-.11.5-.46.86-.8.79-.34-.07-.52-.55-.41-1 .11-.46.46-.85.79-.79.35.08.52.5.42 1ZM254.27 49.51c-.11.5-.46.85-.8.78-.34-.07-.52-.54-.41-1 .11-.46.46-.85.8-.78.34.07.51.49.41 1Z"/><path stroke="#263238" stroke-linecap="round" stroke-linejoin="round" d="m251.19 49.07-1.23 3.71h2.01M248.42 53.86s1.08 1.85 3.86.77M248.26 45.83a1.986 1.986 0 0 1 2.47.46M253.05 46.91c.27-.15.56-.24.87-.27.31-.02.62.02.91.12.29.1.56.27.78.48.22.21.4.47.52.76"/><path fill="#263238" d="M245.33 45.37 256.44 44s-.46 1.85.16 2.31c.62.46.77 2.63.77 2.63l-.46 2.47 2.47-4.32s.77-3.4.15-4.48c-.21-.33-.48-.61-.8-.82-.32-.22-.68-.36-1.05-.42a6.35 6.35 0 0 0-2.69-2.29c-1.1-.49-2.31-.66-3.49-.48-4.32.46-6.17 2.62-6.17 4.32v2.45Z"/><path stroke="#263238" stroke-linejoin="round" d="M256.44 44s-.46 1.85.16 2.31c.62.46.77 2.63.77 2.63l-.46 2.47 2.47-4.32s.77-3.4.15-4.48c-.21-.33-.48-.61-.8-.82-.32-.22-.68-.36-1.05-.42a6.35 6.35 0 0 0-2.69-2.29c-1.1-.49-2.31-.66-3.49-.48-4.32.46-6.17 2.62-6.17 4.32v2.45L256.44 44Z"/><path fill="gray" d="m237.13 465.2 19.6-112.47-73.98-67.89 26.85-91.48-28.74.64-12.14 10.86-25.37-.62-3.43 12.37-6.96-.87-2.4 4.34-11.87 23.7-6.17 23.67-23.01 28.75L87 364.04l-37.09 53.52-11.66 47.64h198.88Z"/><path stroke="#39515E" stroke-linejoin="round" d="m256.73 352.73-73.98-67.89 26.85-91.48-28.74.64-12.14 10.86-25.37-.62-3.43 12.37-6.96-.87-2.4 4.34-11.87 23.7-6.17 23.67-23.01 28.75L87 364.04l-37.09 53.52-11.66 47.64h198.88l19.6-112.47Z"/><path fill="#ABABAB" d="m404.06 465.2-24.55-53.83 40 26.65v-42.65L396 367.52l3.47-31.33-35.69-67.9L362 244.8l-12.18-11.32-62.53 4.52-4.45-21.95-40-22.63-24 58.11-22.12 9.78 15.59 21.36-2.52 16.93 5.21 26.14-87 19.15s-.87 41.78-.87 45.26c0 3.48-17.41 23.5-17.41 23.5l-.81 51.55h295.15Z"/><path stroke="#39515E" stroke-linejoin="round" d="m379.51 411.37 40 26.65v-42.65L396 367.52l3.47-31.33-35.69-67.9L362 244.8l-12.18-11.32-62.53 4.52-4.45-21.95-40-22.63-24 58.11-22.12 9.78 15.59 21.36-2.52 16.93 5.21 26.14-87 19.15s-.87 41.78-.87 45.26c0 3.48-17.41 23.5-17.41 23.5l-.81 51.55h295.15l-24.55-53.83Z"/><path fill="#CCC" d="m452.51 465.2-10.39-4.55-13.06-27.85-15.67-11.31-6.96-16.54-6.96-13.06-37.2-18.17 5.77 91.48h84.47Z"/><path stroke="#39515E" stroke-linejoin="round" d="m442.12 460.65-13.06-27.85-15.67-11.31-6.96-16.54-6.96-13.06-37.2-18.17 5.77 91.48h84.47l-10.39-4.55Z"/><path fill="#CCC" d="M63.14 465.09h46.52l.84-27.07-4.35-15.66v-41.78l-10.45-1.74-8.71 9.57-13.92 7.84L42.9 465.2h20.24v-.11Z"/><path stroke="#39515E" stroke-linejoin="round" d="m109.66 465.09.84-27.07-4.35-15.66v-41.78l-10.45-1.74-8.71 9.57-13.92 7.84L42.9 465.2h20.24v-.11h46.52Z"/><path stroke="#39515E" d="m79.23 419.77 1.02-4.34M63.14 465.2l6.21-24.49 5.84-3.72 3.43-14.58M53.1 465.46l9.86-27.94M95.84 390.4l-.96 4.54M98.07 379.78l-1.82 8.67"/><path fill="#FFF" d="m109.66 465.09.84-27.07-4.35-15.66v-41.78l-8.71 55.7-7.84 2.61-2.6 15.67-1.63 10.53h24.29Z"/><path stroke="#39515E" stroke-linejoin="round" d="m110.5 438.02-4.35-15.66v-41.78l-8.71 55.7-7.84 2.61-2.6 15.67-1.63 10.53h24.29l.84-27.07Z"/><path fill="#FFF" d="M258.6 434.22c4.95-.67 9.79-1.99 14.4-3.92 3.67-1.5 6.91-3.91 9.4-7 .29-.39.56-.8.82-1.21l-6.87-31-13.56-11.82-2.25-10.14-13-10.14-4.5 15.78-7.33 10.14-.56 37.19 7 13.38c5.5-.05 11-.47 16.45-1.26Z"/><path stroke="#39515E" stroke-linejoin="round" d="M273 430.3c3.67-1.5 6.91-3.91 9.4-7 .29-.39.56-.8.82-1.21l-6.87-31-13.56-11.82-2.25-10.14-13-10.14-4.5 15.78-7.33 10.14-.56 37.19 7 13.38c5.5-.05 11-.47 16.45-1.26 4.95-.67 9.79-1.99 14.4-3.92Z"/><path stroke="#39515E" d="m258.6 434.22-1.37-11.58 4.06-10.97v-6.5l-.81-10.16M266.85 399.02l2.16 12.24 4.06.81-.81 10.16 1.63 5.29M265.35 390.54l.72 4.08M251.95 364.53l3.25 33.32"/><path fill="#CCC" d="M212.25 433.39c9.34 1.42 18.79 2.12 28.25 2.1 1.9 0 3.76-.05 5.59-.12l-.2-10.46-3.38-4.5v-32.12l5.64-5.64-.57-23.65-6.76 12.4-9 7.88-5.64 16.34-9 10.71-2.26 11.27-10.7 9-4.27 4.55c4.03.86 8.13 1.6 12.3 2.24Z"/><path stroke="#39515E" stroke-linejoin="round" d="M240.5 435.49c1.9 0 3.76-.05 5.59-.12l-.2-10.46-3.38-4.5v-32.12l5.64-5.64-.57-23.65-6.76 12.4-9 7.88-5.64 16.34-9 10.71-2.26 11.27-10.7 9-4.27 4.55c4.03.86 8.13 1.6 12.3 2.24 9.34 1.42 18.79 2.12 28.25 2.1Z"/><path fill="#FFF" d="m375.1 465.2 47.25-.09-61.18-36.66-14.79-35.69-12.19-1.74-10.44-13.92-5.24 5.22 3.49 30.46-13.05 21.76v13.93l-6.1 15.66 29.45 1.07h42.8Z"/><path stroke="#39515E" stroke-linejoin="round" d="m422.35 465.11-61.18-36.66-14.79-35.69-12.19-1.74-10.44-13.92-5.24 5.22 3.49 30.46-13.05 21.76v13.93l-6.1 15.66 29.45 1.07h42.8l47.25-.09Z"/><path fill="#CCC" d="m351.4 465.14-2.23-12.45 3.51-7.35-.96-14.37 2.88 2.88 19.48 31.29H351.4Z"/><path stroke="#39515E" stroke-linejoin="round" d="m349.17 452.69 3.51-7.35-.96-14.37 2.88 2.88 19.48 31.29H351.4l-2.23-12.45Z"/><path fill="#FFF" d="m351.72 430.97 13.74 6.71 5.42 6.7 15.65 7.99 10.86 6.71 6.67 6.12-29.98-.06-22.36-34.17Z"/><path stroke="#39515E" stroke-linejoin="round" d="m365.46 437.68 5.42 6.7 15.65 7.99 10.86 6.71 6.67 6.12-29.98-.06-22.36-34.17 13.74 6.71Z"/><path fill="#CCC" d="M308.95 434.54v13.93l-6.56 16.45 24.85.32-5.24-29.83 10.45-9.57-13.94-43.52 3.49 30.46-13.05 21.76Z"/><path stroke="#39515E" stroke-linejoin="round" d="m308.95 448.47-6.56 16.45 24.85.32-5.24-29.83 10.45-9.57-13.94-43.52 3.49 30.46-13.05 21.76v13.93Z"/><path stroke="#39515E" d="m334.19 391.02 9.19 19.43 4.06.41 3.25 9.75M340.36 449.8l1.4 4.54M334.85 414.51l2.83 10.98 4.89 8.12-5.7 4.88 2.47 7.99"/><path fill="#CCC" d="m218.74 191.25-20.4 22.31-.7-40.9L217.95 148l.79 43.25Z"/><path stroke="#39515E" stroke-linejoin="round" d="m198.34 213.56-.7-40.9L217.95 148l.79 43.25-20.4 22.31Z"/><path fill="#CCC" d="m204.58 280.57 20.85-18.41c1.5-1.3 3.17-2.39 4.96-3.24 2.24-1.07 4.58-1.91 7-2.5 3.09-.76 6.23-1.28 9.4-1.56 3.98-.37 7.99-.52 12-.44 9.68.12 19.34.98 28.89 2.55 7.95 1.31 15.8 3.12 23.52 5.43 6.94 2.07 13 4.29 18.23 6.34s9.54 3.93 13.04 5.3l-27.06 17.56c-3.31-1.31-7.42-3.07-12.35-5-4.94-1.93-10.69-4-17.25-6-7.3-2.17-14.73-3.87-22.24-5.09a183.18 183.18 0 0 0-27.37-2.36c-3.79-.07-7.59.08-11.37.44-3 .27-5.97.77-8.9 1.48-2.29.57-4.53 1.37-6.66 2.39-1.7.82-3.28 1.86-4.69 3.11Z"/><path stroke="#39515E" stroke-linejoin="round" d="M225.43 262.16c1.5-1.3 3.17-2.39 4.96-3.24 2.24-1.07 4.58-1.91 7-2.5 3.09-.76 6.23-1.28 9.4-1.56 3.98-.37 7.99-.52 12-.44 9.68.12 19.34.98 28.89 2.55 7.95 1.31 15.8 3.12 23.52 5.43 6.94 2.07 13 4.29 18.23 6.34s9.54 3.93 13.04 5.3l-27.06 17.56c-3.31-1.31-7.42-3.07-12.35-5-4.94-1.93-10.69-4-17.25-6-7.3-2.17-14.73-3.87-22.24-5.09a183.18 183.18 0 0 0-27.37-2.36c-3.79-.07-7.59.08-11.37.44-3 .27-5.97.77-8.9 1.48-2.29.57-4.53 1.37-6.66 2.39-1.7.82-3.28 1.86-4.69 3.11l20.85-18.41Z"/><path fill="#CCC" d="m271 431.11-23.54 9c2.05-.77 4.02-1.75 5.88-2.92a19.91 19.91 0 0 0 4.38-3.81c1.19-1.41 2.11-3.02 2.72-4.75.62-1.86.91-3.8.85-5.75-.01-3.41-1.06-6.73-3-9.53-2.48-3.3-5.65-6.01-9.29-7.95a91.37 91.37 0 0 0-16.46-7c-6.8-2.29-15-4.55-24.65-6.9a247.81 247.81 0 0 1-38.48-12.36A132.395 132.395 0 0 1 138 360.88a79.311 79.311 0 0 1-21.27-25.4 74.448 74.448 0 0 1-8-33.83c-.05-4.78.28-9.55 1-14.26.68-4.54 1.75-9.01 3.2-13.36 1.42-4.27 3.22-8.4 5.37-12.35 2.16-3.96 4.67-7.72 7.49-11.23L142 230.12a79.776 79.776 0 0 0-13.58 24.94c-1.55 4.6-2.69 9.33-3.42 14.13a91.818 91.818 0 0 0-1 15.1 79.223 79.223 0 0 0 8.55 35.85 84.143 84.143 0 0 0 22.54 26.94c9.48 7.63 20.75 14 33.28 19.33 13.19 5.48 26.81 9.88 40.72 13.14 10.25 2.5 18.88 4.91 26.07 7.34a95.622 95.622 0 0 1 17.41 7.49c4.47 2.61 7.69 5.37 9.81 8.41 2.06 2.96 3.18 6.48 3.21 10.09.06 2.06-.24 4.13-.9 6.09-.64 1.82-1.61 3.52-2.87 5a20.79 20.79 0 0 1-4.62 4 33.423 33.423 0 0 1-6.2 3.14Z"/><path stroke="#39515E" stroke-linejoin="round" d="M247.46 440.11c2.05-.77 4.02-1.75 5.88-2.92a19.91 19.91 0 0 0 4.38-3.81c1.19-1.41 2.11-3.02 2.72-4.75.62-1.86.91-3.8.85-5.75-.01-3.41-1.06-6.73-3-9.53-2.48-3.3-5.65-6.01-9.29-7.95a91.37 91.37 0 0 0-16.46-7c-6.8-2.29-15-4.55-24.65-6.9a247.81 247.81 0 0 1-38.48-12.36A132.395 132.395 0 0 1 138 360.88a79.311 79.311 0 0 1-21.27-25.4 74.448 74.448 0 0 1-8-33.83c-.05-4.78.28-9.55 1-14.26.68-4.54 1.75-9.01 3.2-13.36 1.42-4.27 3.22-8.4 5.37-12.35 2.16-3.96 4.67-7.72 7.49-11.23L142 230.12a79.776 79.776 0 0 0-13.58 24.94c-1.55 4.6-2.69 9.33-3.42 14.13a91.818 91.818 0 0 0-1 15.1 79.223 79.223 0 0 0 8.55 35.85 84.143 84.143 0 0 0 22.54 26.94c9.48 7.63 20.75 14 33.28 19.33 13.19 5.48 26.81 9.88 40.72 13.14 10.25 2.5 18.88 4.91 26.07 7.34a95.622 95.622 0 0 1 17.41 7.49c4.47 2.61 7.69 5.37 9.81 8.41 2.06 2.96 3.18 6.48 3.21 10.09.06 2.06-.24 4.13-.9 6.09-.64 1.82-1.61 3.52-2.87 5a20.79 20.79 0 0 1-4.62 4 33.423 33.423 0 0 1-6.2 3.14l-23.54 9Z"/><path fill="#FFF" d="M155.09 347.08c9.48 7.63 20.75 14 33.28 19.33 13.19 5.48 26.81 9.88 40.72 13.14 10.25 2.5 18.88 4.91 26.07 7.34a95.622 95.622 0 0 1 17.41 7.49c4.47 2.61 7.69 5.37 9.81 8.41 2.06 2.96 3.18 6.47 3.21 10.09.16 3.74-.98 7.43-3.22 10.44-2.49 3.09-5.73 5.5-9.4 7-4.6 1.93-9.43 3.24-14.37 3.92-5.99.86-12.04 1.29-18.1 1.27-9.46.02-18.91-.68-28.25-2.1-8.98-1.37-17.87-3.27-26.61-5.71-8.5-2.37-16.59-5.11-24.14-8-7.53-2.89-14.53-6-20.84-9L127.88 465h229.69a86.157 86.157 0 0 0 16.51-27.25 88.406 88.406 0 0 0 5.38-33.43c-.34-12.17-2.19-23-5.82-32.71a73.626 73.626 0 0 0-16.5-25.92c-7.47-7.66-17-14.41-28.86-20.43s-26.14-11.35-43-16.16c-10.86-3.16-20.35-6.2-28.47-9.1-6.94-2.41-13.71-5.27-20.26-8.58-5.4-2.83-9.45-5.64-12.15-8.52-2.7-2.89-4.08-5.81-4.14-8.89-.08-2.52.46-5.02 1.58-7.28 1.38-2.63 3.46-4.84 6-6.38a34.5 34.5 0 0 1 11.86-4.45 88.595 88.595 0 0 1 19.17-1.49c9.68.12 19.34.98 28.89 2.55 7.95 1.31 15.8 3.12 23.52 5.43 6.94 2.07 13 4.29 18.23 6.34s9.55 3.93 13.05 5.31l14.88-67c-4.68-2-9.71-4-15.22-5.9-5.51-1.9-11.51-3.68-18.1-5.29-6.59-1.61-13.8-3-21.71-4.21-7.92-1.21-16.59-2.07-26.09-2.63l-.87-39.62L218 148l.79 43.25a150.58 150.58 0 0 0-40.5 11.51A101.383 101.383 0 0 0 148.36 223 81.413 81.413 0 0 0 130 250.62a87.267 87.267 0 0 0-6 33.67 79.223 79.223 0 0 0 8.55 35.85 84.143 84.143 0 0 0 22.54 26.94Z"/><path stroke="#39515E" stroke-linejoin="round" d="M188.37 366.41c13.19 5.48 26.81 9.88 40.72 13.14 10.25 2.5 18.88 4.91 26.07 7.34a95.622 95.622 0 0 1 17.41 7.49c4.47 2.61 7.69 5.37 9.81 8.41 2.06 2.96 3.18 6.47 3.21 10.09.16 3.74-.98 7.43-3.22 10.44-2.49 3.09-5.73 5.5-9.4 7-4.6 1.93-9.43 3.24-14.37 3.92-5.99.86-12.04 1.29-18.1 1.27-9.46.02-18.91-.68-28.25-2.1-8.98-1.37-17.87-3.27-26.61-5.71-8.5-2.37-16.59-5.11-24.14-8-7.53-2.89-14.53-6-20.84-9L127.88 465h229.69a86.157 86.157 0 0 0 16.51-27.25 88.406 88.406 0 0 0 5.38-33.43c-.34-12.17-2.19-23-5.82-32.71a73.626 73.626 0 0 0-16.5-25.92c-7.47-7.66-17-14.41-28.86-20.43s-26.14-11.35-43-16.16c-10.86-3.16-20.35-6.2-28.47-9.1-6.94-2.41-13.71-5.27-20.26-8.58-5.4-2.83-9.45-5.64-12.15-8.52-2.7-2.89-4.08-5.81-4.14-8.89-.08-2.52.46-5.02 1.58-7.28 1.38-2.63 3.46-4.84 6-6.38a34.5 34.5 0 0 1 11.86-4.45 88.595 88.595 0 0 1 19.17-1.49c9.68.12 19.34.98 28.89 2.55 7.95 1.31 15.8 3.12 23.52 5.43 6.94 2.07 13 4.29 18.23 6.34s9.55 3.93 13.05 5.31l14.88-67c-4.68-2-9.71-4-15.22-5.9-5.51-1.9-11.51-3.68-18.1-5.29-6.59-1.61-13.8-3-21.71-4.21-7.92-1.21-16.59-2.07-26.09-2.63l-.87-39.62L218 148l.79 43.25a150.58 150.58 0 0 0-40.5 11.51A101.383 101.383 0 0 0 148.36 223 81.413 81.413 0 0 0 130 250.62a87.267 87.267 0 0 0-6 33.67 79.223 79.223 0 0 0 8.55 35.85 84.143 84.143 0 0 0 22.54 26.94c9.48 7.63 20.75 14 33.28 19.33Z"/><path fill="#CCC" d="m127.87 465 12.79-54.33-16.37 10.24L113.87 465h14Z"/><path stroke="#39515E" stroke-linejoin="round" d="m140.66 410.67-16.37 10.24L113.87 465h14l12.79-54.33Z"/><path fill="#263238" d="M404.15 451.89c-1.01-.19-2.05.01-2.91.57l4.48 2.69c.11-.32.17-.66.15-1-.01-.33-.09-.67-.24-.97a2.54 2.54 0 0 0-.61-.8c-.25-.22-.55-.39-.87-.49ZM405.41 416.49s.6-2.52.62-2.68c.2-1.89-.53-5.67-2.48-6.54-.33-.14-.69-.2-1.04-.19-.35.01-.7.09-1.02.25-.32.15-.6.37-.83.65-.23.27-.4.58-.49.93-.47 1.43.24 3.14 1.05 4.31.96 1.38 4.19 3.26 4.19 3.27ZM435.06 431.87c1.22-1.47 2.69-5 1.54-6.82-.2-.3-.46-.55-.76-.73a2.487 2.487 0 0 0-2.04-.28c-.34.1-.66.27-.92.51-.55.54-.96 1.2-1.22 1.92s-.36 1.49-.28 2.26c0 1.67 1.69 5 1.7 5 .01 0 1.92-1.73 1.98-1.86Z"/><path fill="#263238" d="M393.86 445.77c1.41.9 2.95 1.57 4.58 2-.13.74-.26 1.48-.42 2.19 0 .18-.09.36-.13.55l.94.56c.06-.29.12-.59.19-.88.23-1.17.42-2.36.57-3.56 1.6.59 3.29.92 5 1a5.21 5.21 0 0 0 2.22-.56c.69-.35 1.3-.84 1.78-1.44.19-.3.31-.64.37-.99.05-.35.03-.71-.06-1.06-.1-.34-.26-.66-.49-.94-.23-.27-.51-.49-.82-.65-1.93-.91-5.27 1-6.58 2.39-.08.09-.9 1.19-1.34 1.81.09-.73.18-1.45.25-2.19.19-2.12.32-4.28.45-6.43 0-.65.09-1.31.14-2 .28.1 3.56 1.2 5.16 1 1.41-.15 3.18-.73 4-2 .19-.3.31-.64.37-.99.05-.35.03-.71-.06-1.05-.1-.35-.26-.66-.49-.94-.23-.27-.51-.5-.82-.65-1.93-.91-5.27 1-6.58 2.39-.09.11-1.28 1.7-1.56 2.11.1-1.44.22-2.88.39-4.3a43.4 43.4 0 0 1 1-5.67c.13 0 3.56 1.21 5.19 1 1.42-.15 3.18-.73 4-2 .19-.3.31-.64.37-.99.05-.35.03-.71-.06-1.05-.1-.35-.26-.66-.49-.94-.23-.27-.51-.5-.82-.65-1.93-.92-5.27 1-6.57 2.39-.11.11-1.38 1.82-1.59 2.14 0-.11.05-.22.08-.33a32.27 32.27 0 0 1 2.05-5.4c.45-1 .94-1.87 1.43-2.73.62.28 3.45 1.54 4.93 1.55 1.48.01 3.24-.37 4.16-1.57.22-.28.39-.6.48-.94.09-.34.11-.7.06-1.05a2.486 2.486 0 0 0-1.11-1.73c-1.81-1.12-5.34.42-6.79 1.66-.08.07-.81.84-1.33 1.41.23-.39.46-.79.69-1.16.85-1.37 1.71-2.57 2.48-3.64.44-.6.85-1.13 1.24-1.63 1.72-.04 3.43-.34 5.07-.89 1.26-.65 2.7-1.83 3-3.31a2.6 2.6 0 0 0-.45-1.99 2.46 2.46 0 0 0-.78-.69c-.3-.18-.64-.29-.98-.32-2.13-.15-4.55 2.84-5.27 4.6-.06.16-.76 2.65-.72 2.65h.05c-.39.47-.8 1-1.23 1.54-.8 1.05-1.69 2.24-2.57 3.6-.96 1.45-1.84 2.96-2.63 4.52a31.99 31.99 0 0 0-2.2 5.43v.07c0-.63-.09-2.37-.11-2.51-.31-1.88-2-5.33-4.12-5.65a2.526 2.526 0 0 0-1.97.6c-.27.23-.48.52-.64.84-.15.32-.23.67-.23 1.03-.07 1.51 1.07 3 2.16 3.89 1.24 1 4.59 2 4.86 2-.54 1.91-.94 3.86-1.21 5.84-.17 1.15-.3 2.31-.41 3.48 0-.54-.06-1-.07-1.09-.31-1.88-2-5.34-4.12-5.65-.36-.05-.71-.02-1.05.09-.34.1-.65.27-.92.51-.27.23-.48.52-.63.84-.15.32-.23.67-.23 1.03-.07 1.5 1.07 3 2.16 3.88 1.45.9 3.04 1.57 4.71 2 0 .44-.09.89-.12 1.34-.19 2.15-.36 4.29-.6 6.39-.08.74-.19 1.47-.3 2.19v-.94c-.31-1.88-2-5.33-4.12-5.65-.36-.05-.71-.02-1.05.09-.34.1-.65.27-.92.51-.27.23-.48.52-.63.84-.15.32-.23.67-.23 1.03-.19 1.44.95 2.91 2.04 3.82ZM449.71 428.05c-1.69-1.31-5.36-.15-6.93.93-.14.09-2.1 1.79-2.06 1.81-.58.17-1.2.37-1.88.6-1.24.44-2.64.94-4.12 1.59-1.61.67-3.18 1.45-4.69 2.32-1.71.95-3.33 2.06-4.83 3.31l-.05.05c.33-.53 1.23-2 1.28-2.15.78-1.74 1.27-5.56-.32-7-.27-.23-.59-.4-.93-.5-.34-.1-.7-.13-1.05-.09-.35.05-.68.17-.99.36-.3.19-.56.43-.75.73-.89 1.21-.75 3.06-.35 4.43.47 1.54 2.75 4.16 2.94 4.37-1.51 1.29-2.93 2.7-4.23 4.2-.78.87-1.53 1.76-2.27 2.67.28-.46.52-.88.55-.94.78-1.74 1.27-5.56-.32-7-.27-.23-.59-.4-.93-.5-.34-.1-.7-.13-1.05-.09-.35.05-.68.17-.99.36-.3.19-.56.43-.75.73-.89 1.21-.75 3.07-.34 4.43.71 1.55 1.67 2.98 2.83 4.25l-.84 1c-1.34 1.7-2.67 3.39-4 5-.47.57-1 1.12-1.45 1.66l.47-.82c.78-1.73 1.27-5.55-.32-7-.27-.23-.59-.4-.93-.5-.34-.1-.7-.13-1.05-.09-.35.05-.68.17-.99.36-.3.19-.56.43-.75.73-.89 1.21-.75 3.06-.34 4.43.66 1.57 1.58 3.03 2.72 4.31l-1 1.08.88.53c.61-.63 1.2-1.29 1.79-2 1.01 1.36 2.23 2.56 3.62 3.56.65.4 1.39.65 2.15.73a5.3 5.3 0 0 0 2.27-.23 2.558 2.558 0 0 0 1.39-1.52c.11-.33.15-.69.11-1.04-.03-.36-.14-.7-.31-1-1.11-1.83-5-2.07-6.8-1.63-.12 0-1.41.49-2.12.76.47-.56.95-1.11 1.41-1.69 1.33-1.66 2.63-3.39 3.93-5.11l1.2-1.56c.18.23 2.32 3 3.74 3.7.65.39 1.38.65 2.15.73.76.09 1.53.01 2.26-.23a2.558 2.558 0 0 0 1.39-1.52c.11-.33.15-.69.11-1.04-.03-.36-.14-.7-.31-1-1.1-1.83-4.94-2.08-6.8-1.64-.14 0-2 .71-2.46.9.88-1.15 1.77-2.28 2.7-3.37 1.23-1.48 2.57-2.87 4-4.16.08.11 2.29 3 3.75 3.73 1.26.66 3.05 1.15 4.41.5.32-.14.61-.35.85-.61.25-.26.43-.57.54-.91.11-.33.16-.69.12-1.04-.03-.35-.14-.7-.31-1-1.11-1.83-4.95-2.07-6.8-1.64-.15 0-2.15.76-2.51.92l.25-.24c1.46-1.26 3.03-2.39 4.69-3.37.91-.56 1.81-1 2.7-1.48.36.57 2 3.18 3.26 4 1.26.82 2.91 1.47 4.33 1 .33-.11.65-.28.91-.52.27-.23.48-.52.63-.84.15-.32.23-.67.24-1.02 0-.36-.07-.71-.2-1.03-.9-1.94-4.69-2.6-6.58-2.37-.11 0-1.14.26-1.89.45.41-.2.82-.41 1.21-.59 1.47-.68 2.85-1.21 4.08-1.67l1.94-.67c1.45.91 3.04 1.6 4.71 2.05.75.13 1.53.1 2.27-.09.74-.2 1.43-.55 2.03-1.04.24-.25.43-.55.56-.88a2.58 2.58 0 0 0-.12-2.04c-.17-.31-.39-.58-.66-.8ZM398.72 465.16l1.15.71.71-.52.27-.2-2.13.01ZM67.4 399a2.486 2.486 0 0 0-1.11 1.72c-.06.35-.04.71.05 1.05.09.34.25.66.47.94.72.82 1.72 1.35 2.81 1.48l2.14-4.91c-1.51-.68-3.25-1-4.36-.28ZM77.35 392.55A3.64 3.64 0 0 0 76 394.6l3.76-2.11a2.366 2.366 0 0 0-2.41.06ZM78 356.81c1.27 1.08 4.88 2.06 4.88 2.06s-.07-2.58-.09-2.74c-.31-1.88-2-5.34-4.1-5.67-.35-.05-.71-.02-1.05.08-.34.1-.65.27-.92.51-.27.23-.48.52-.63.84-.15.32-.23.67-.24 1.03-.04 1.5 1.15 2.97 2.15 3.89ZM51.66 368.15s-1.48-2.11-1.6-2.23c-1.27-1.4-4.59-3.36-6.54-2.47-.31.15-.59.38-.82.65a2.5 2.5 0 0 0-.48.93c-.1.34-.12.7-.07 1.05.06.35.18.69.37.99.77 1.3 2.52 1.9 3.94 2.07 1.64.19 5.2-.98 5.2-.99Z"/><path fill="#263238" d="M49.79 360.17c.1.6.21 1.24.33 1.94.27 1.29.56 2.74 1 4.3.45 1.69 1 3.36 1.65 5 .71 1.82 1.58 3.57 2.6 5.24v.06c-.46-.4-1.83-1.5-2-1.57-1.6-1-5.33-2-7-.66a2.524 2.524 0 0 0-.84 1.88c0 .35.08.7.22 1.03.15.32.36.61.62.85 1.09 1.05 2.94 1.17 4.35 1 1.59-.24 4.5-2.15 4.73-2.3 1.09 1.66 2.28 3.26 3.57 4.78.75.88 1.54 1.75 2.33 2.61l-.85-.68c-1.61-1-5.34-2-7-.65-.27.23-.48.52-.62.85-.15.32-.22.67-.22 1.03 0 .35.07.7.22 1.02.14.33.35.62.62.86.61.46 1.31.79 2.06.95.75.16 1.53.16 2.27 0 1.64-.5 3.2-1.25 4.62-2.21.3.32.61.65.92 1 1.48 1.56 3 3.11 4.39 4.68.5.55 1 1.11 1.46 1.67l-.75-.58c-1.62-1-5.33-2-7-.66-.27.23-.48.52-.62.85-.15.32-.22.67-.22 1.03 0 .35.07.7.22 1.02.14.33.35.62.62.86 1.07 1.05 2.94 1.17 4.34 1 1.59-.48 3.11-1.2 4.48-2.14.47.58.95 1.17 1.37 1.77.29.41.59.78.84 1.21v.06l.39-.86.21-.13-.64-.88c-.72-.95-1.49-1.88-2.3-2.79 1.49-.83 2.84-1.87 4-3.09.49-.6.84-1.29 1.04-2.04.19-.74.21-1.52.07-2.27-.09-.35-.25-.66-.48-.94-.23-.27-.51-.49-.82-.65-.32-.16-.67-.25-1.02-.26-.35-.02-.71.04-1.04.18-2 .84-2.73 4.61-2.56 6.5 0 .12.29 1.47.46 2.21-.48-.55-1-1.1-1.46-1.64-1.48-1.55-3-3.07-4.52-4.6l-1.38-1.4c.25-.15 3.25-1.88 4.17-3.19.55-.59.96-1.29 1.2-2.06.24-.76.3-1.57.18-2.36-.1-.35-.26-.66-.49-.94a2.576 2.576 0 0 0-1.84-.92c-.35-.01-.71.05-1.03.18-2 .84-2.75 4.61-2.56 6.51 0 .14.41 2.08.54 2.57-1-1-2-2.08-3-3.14a43.084 43.084 0 0 1-3.56-4.54c.12-.07 3.25-1.87 4.21-3.2.48-.6.83-1.29 1.02-2.03.2-.74.22-1.52.08-2.27-.08-.35-.25-.68-.47-.96-.23-.28-.51-.5-.83-.67-.32-.16-.67-.25-1.03-.27-.35-.02-.71.04-1.04.18-2 .84-2.75 4.61-2.57 6.51 0 .15.46 2.23.56 2.6l-.2-.27a32.46 32.46 0 0 1-2.69-5.12c-.42-1-.77-1.94-1.1-2.88 1.61-.66 3.11-1.56 4.43-2.67a5.337 5.337 0 0 0 1.57-4.15c-.07-.35-.2-.68-.4-.97-.19-.3-.45-.54-.74-.73-.3-.19-.63-.31-.98-.37-.35-.05-.71-.03-1.05.07-2 .62-3.21 4.28-3.25 6.19 0 .1.1 1.16.17 1.93-.13-.43-.27-.87-.4-1.28-.48-1.54-.81-3-1.08-4.27-.17-.73-.29-1.39-.4-2 1.11-1.32 2.01-2.8 2.67-4.39.25-.73.33-1.5.24-2.27-.09-.76-.34-1.49-.74-2.14a2.546 2.546 0 0 0-1.8-1.02c-.35-.03-.71.01-1.04.13-.34.11-.64.29-.91.54-1.52 1.49-.9 5.28 0 7 .06.06 1.48 2.26 1.5 2.23ZM76.18 367.58c1.46.67 4.94.69 5.23.7-.03 2 .09 4.01.34 6 .14 1.15.32 2.31.51 3.46-.17-.51-.33-1-.35-1-.79-1.74-3.32-4.63-5.44-4.39-.36.05-.69.17-.99.36-.3.18-.56.43-.76.73a2.53 2.53 0 0 0-.35 2.03c.31 1.47 1.79 2.59 3.1 3.19 1.64.49 3.34.72 5.06.7.08.44.15.88.23 1.32.38 2.13.77 4.24 1.09 6.33.11.74.19 1.47.27 2.2l-.29-.9c-.79-1.74-3.33-4.63-5.46-4.39-.34.05-.67.17-.97.35-.3.19-.55.43-.75.72-.2.29-.33.62-.39.97-.07.34-.06.69.03 1.04.32 1.47 1.8 2.59 3.08 3.19 1.11.38 2.26.59 3.43.63l2.32-1.31 1.85-1L92 383c-.12-.05-.24-.08-.36-.1-2.09-.38-4.82 2.33-5.73 4 0 .11-.55 1.39-.82 2.09-.1-.72-.2-1.44-.33-2.17-.37-2.1-.8-4.21-1.22-6.33-.15-.64-.26-1.29-.38-1.94.29 0 3.75.23 5.23-.34 1.34-.51 2.9-1.53 3.31-3 .1-.34.13-.7.09-1.05-.05-.35-.16-.68-.34-.99-.18-.3-.43-.56-.71-.76-.29-.21-.62-.35-.96-.41-2.1-.38-4.82 2.33-5.72 4-.07.13-.8 2-1 2.45-.27-1.43-.53-2.85-.73-4.26-.29-1.91-.44-3.83-.47-5.75.14 0 3.75.24 5.28-.34.73-.23 1.41-.62 1.98-1.14.57-.52 1.02-1.15 1.31-1.86.12-.34.15-.7.12-1.05a2.568 2.568 0 0 0-1.03-1.78c-.29-.21-.62-.35-.96-.42-2.1-.39-4.83 2.33-5.73 4-.07.13-.85 2.11-1 2.48v-.34c.02-1.93.22-3.86.58-5.75.19-1.05.43-2 .68-3 .67.11 3.73.59 5.16.21 1.43-.38 3-1.2 3.61-2.59.14-.33.22-.68.22-1.03 0-.36-.07-.71-.22-1.03-.14-.32-.35-.62-.61-.85-.26-.24-.57-.42-.9-.53-2-.61-5 1.79-6.13 3.36-.06.08-.56 1-.92 1.7.11-.43.24-.88.36-1.29.46-1.54 1-2.93 1.45-4.16.28-.69.53-1.31.78-1.89.72-.24 3.58-1.2 4.66-2.18 1.07-.98 2.13-2.47 2-4a2.589 2.589 0 0 0-.94-1.84 2.6 2.6 0 0 0-.94-.47c-.35-.09-.7-.11-1.05-.05-2.1.4-3.66 3.92-3.9 5.81v2.75c-.25.56-.51 1.15-.79 1.81-.5 1.22-1 2.6-1.54 4.14-.56 1.65-1.01 3.34-1.37 5.05-.38 1.92-.59 3.87-.63 5.84v.07c-.16-.6-.71-2.27-.75-2.39-.79-1.74-3.33-4.63-5.46-4.39-.35.04-.68.17-.98.36-.3.18-.56.43-.76.73-.19.29-.33.63-.39.97-.06.35-.04.71.05 1.06.31 1.45 1.79 2.59 3.08 3.17ZM221.22 389.76c-.36.05-.69.17-.99.36-.3.18-.56.43-.76.73-.19.29-.33.63-.39.98-.06.34-.04.7.05 1.05.25.72.65 1.38 1.19 1.93.53.56 1.18.98 1.9 1.26.98.35 2.01.55 3.06.6l.89-1.06.5-1.45c-.79-1.75-3.33-4.64-5.45-4.4ZM210.25 404.87c-.3.19-.55.44-.75.74-.19.3-.32.63-.37.98-.06.35-.04.71.05 1.05.09.34.25.66.48.94.9 1.21 2.72 1.6 4.14 1.6.93-.07 1.84-.28 2.71-.62l.58-2.92-.06-.06c-1.44-1.25-4.96-2.81-6.78-1.71ZM220.2 398.47c-1.63 1-1.95 4.22-1.66 6.2l4.79-5.69a2.457 2.457 0 0 0-3.13-.51Z"/><path fill="#263238" d="M205.43 391.32c.31.32.61.65.92 1 1.49 1.56 3 3.11 4.4 4.68.5.55 1 1.11 1.45 1.67l-.75-.58c-1.61-1-5.33-2-7-.66-.27.23-.48.52-.62.85-.15.32-.22.67-.22 1.03 0 .35.07.7.22 1.02.14.33.35.62.62.86 1.08 1.05 2.94 1.17 4.34 1 1.59-.48 3.11-1.2 4.49-2.14.47.59.94 1.17 1.37 1.77.28.41.58.78.84 1.21l.79 1.24c.36.62.73 1.24 1.08 1.85l.77-.91c-.3-.5-.61-1-.94-1.53l-.82-1.23c-.26-.41-.59-.82-.89-1.23-.72-1-1.49-1.88-2.29-2.79 1.48-.83 2.83-1.87 4-3.09.48-.6.83-1.29 1.03-2.04.19-.74.21-1.52.08-2.27a2.6 2.6 0 0 0-.47-.94 2.496 2.496 0 0 0-2.83-.79c-2 .84-2.74 4.61-2.56 6.5 0 .12.29 1.47.46 2.21-.49-.55-1-1.1-1.47-1.63-1.47-1.55-3-3.08-4.52-4.61l-1.38-1.4c.25-.15 3.25-1.88 4.18-3.19.48-.6.83-1.29 1.03-2.03.19-.74.22-1.52.08-2.27-.1-.35-.26-.66-.49-.94a2.576 2.576 0 0 0-1.84-.92c-.35-.01-.7.05-1.03.18-2 .84-2.74 4.61-2.56 6.51 0 .14.41 2.08.54 2.57-1-1-2-2.08-3-3.14a43.084 43.084 0 0 1-3.56-4.54c.12-.07 3.26-1.87 4.21-3.2.48-.6.83-1.29 1.03-2.03.19-.74.21-1.52.08-2.27-.1-.35-.26-.66-.49-.94a2.576 2.576 0 0 0-1.84-.92c-.35-.01-.7.05-1.03.18-2 .84-2.74 4.61-2.56 6.51 0 .15.45 2.23.55 2.6l-.2-.27a32.46 32.46 0 0 1-2.69-5.12c-.42-1-.77-1.94-1.09-2.88 1.6-.66 3.09-1.56 4.43-2.66.95-1.07 1.86-2.68 1.57-4.16-.07-.35-.2-.68-.39-.97-.2-.3-.46-.54-.75-.73-.3-.19-.63-.31-.98-.37-.35-.05-.7-.03-1.04.07-2 .62-3.22 4.29-3.26 6.19 0 .1.1 1.16.18 1.93-.13-.43-.28-.87-.41-1.28-.47-1.54-.8-3-1.08-4.27-.16-.73-.29-1.39-.4-2 1.11-1.32 2.01-2.8 2.68-4.39a5.283 5.283 0 0 0-.51-4.41c-.21-.29-.48-.53-.79-.7-.31-.18-.65-.28-1.01-.32-.35-.03-.7.01-1.04.13-.34.11-.64.29-.9.54-1.53 1.49-.9 5.29 0 7 .08.15 1.49 2.32 1.51 2.29.1.6.21 1.24.34 1.94.26 1.29.56 2.74 1 4.3.44 1.69.99 3.36 1.64 5a32.91 32.91 0 0 0 2.61 5.25v.05c-.47-.4-1.84-1.5-1.95-1.57-1.61-1-5.33-2-7-.65-.27.23-.48.52-.62.84-.15.33-.22.68-.22 1.03s.07.7.22 1.03c.14.32.35.61.62.85 1.08 1.06 2.93 1.17 4.34 1 1.59-.24 4.5-2.15 4.73-2.3 1.09 1.66 2.28 3.26 3.58 4.78.75.88 1.53 1.75 2.33 2.61l-.86-.68c-1.61-1-5.33-2-7-.65-.27.23-.48.52-.63.85-.14.32-.22.67-.22 1.03 0 .35.08.7.22 1.03.15.32.36.61.63.85 1.07 1.05 2.93 1.17 4.33.95 1.67-.55 3.25-1.35 4.68-2.37ZM220.88 362.73c1.28 1.08 4.89 2.06 4.89 2.06s-.07-2.58-.1-2.74c-.3-1.88-2-5.34-4.09-5.67-.36-.05-.71-.02-1.05.08-.34.11-.66.28-.92.51-.27.23-.49.52-.64.84-.15.32-.23.67-.23 1.03-.08 1.5 1.05 2.97 2.14 3.89Z"/><path fill="#263238" d="M194.51 374.08s-1.49-2.12-1.6-2.24c-1.28-1.4-4.6-3.36-6.54-2.47-.32.15-.6.38-.83.65a2.5 2.5 0 0 0-.48.93c-.1.34-.12.7-.07 1.05.06.35.18.69.38.99.76 1.3 2.51 1.9 3.93 2.07 1.7.19 5.21-.98 5.21-.98ZM219 373.5c1.46.67 4.94.7 5.22.7-.02 1.98.09 3.97.34 5.95.14 1.15.32 2.31.51 3.47-.17-.52-.32-1-.35-1-.78-1.74-3.32-4.63-5.44-4.39-.36.05-.69.17-.99.36-.3.18-.56.43-.76.73a2.53 2.53 0 0 0-.35 2.03c.32 1.47 1.8 2.59 3.1 3.19 1.64.49 3.34.72 5.06.7.08.44.15.88.23 1.32.38 2.13.77 4.25 1.09 6.33 0 .31.07.62.11.93l.63-1.8c-.34-1.86-.72-3.73-1.09-5.6-.13-.64-.26-1.29-.38-1.93 1.36.08 2.73.05 4.09-.09l1.76-5.09 1.39-1.21c-.19-.09-.38-.16-.58-.19-2.1-.38-4.82 2.33-5.72 4-.07.13-.8 2-1 2.45-.27-1.43-.53-2.85-.73-4.26-.29-1.91-.44-3.83-.47-5.75.14 0 3.75.24 5.28-.34.73-.23 1.41-.62 1.98-1.14.57-.52 1.02-1.15 1.32-1.86.11-.34.14-.7.11-1.05a2.568 2.568 0 0 0-1.03-1.78c-.29-.21-.62-.35-.96-.42-2.1-.39-4.83 2.33-5.73 4-.07.13-.85 2.11-1 2.48v-.34c.03-1.93.22-3.86.58-5.75.19-1 .43-2 .68-3 .67.11 3.73.59 5.16.21 1.43-.38 3-1.2 3.61-2.59a2.564 2.564 0 0 0 .01-2.06c-.15-.32-.36-.62-.62-.85-.26-.24-.57-.42-.9-.53-2-.61-5 1.79-6.13 3.36-.06.08-.56 1-.92 1.7.12-.43.24-.88.36-1.29.47-1.54 1-2.93 1.45-4.16.28-.69.54-1.31.78-1.89.72-.24 3.58-1.2 4.66-2.18 1.08-.98 2.14-2.47 2-4-.02-.36-.12-.71-.28-1.02-.16-.32-.39-.59-.66-.82a2.6 2.6 0 0 0-.94-.47c-.35-.09-.7-.11-1.05-.05-2.1.4-3.66 3.92-3.89 5.81 0 .17-.05 2.76 0 2.75-.25.56-.51 1.15-.78 1.81-.5 1.22-1.05 2.6-1.55 4.14-.56 1.65-1.01 3.34-1.37 5.05-.41 1.91-.65 3.86-.71 5.82v.11c-.17-.6-.71-2.27-.76-2.39-.79-1.74-3.33-4.63-5.45-4.39-.36.04-.69.17-.99.36-.3.18-.56.43-.76.73-.19.29-.33.63-.39.97-.06.35-.04.71.05 1.06.43 1.44 1.91 2.56 3.17 3.16Z"/><path fill="#FFF" d="m370.64 286.16-3.99-4.95 3.59-2.83 2.41 3.01-.82 1.9.68 1.53-1.41 1m-.1.02h.03c.17.22.14.53-.08.7-.22.18-.53.15-.7-.07v-.03l.75-.6Zm.39.36v.03c-.23.16-.54.11-.7-.11a.506.506 0 0 1 .11-.7h.03l.56.78Z"/><path stroke="#263238" stroke-linecap="round" stroke-linejoin="round" d="m370.64 286.16-3.99-4.95 3.59-2.83 2.41 3.01-.82 1.9.68 1.53-1.41 1"/><path fill="#000" d="M403 294.75s-2.73-2.44-3.75-2.28c-1.02.16-14.4 2.4-14.4 2.4l-12.31-10.05-1.88 1.34 11.78 14.78 12.8-.8-2.75 14-11.65 8.86 19 11.35 3.83-12.09 15.13-14.89-5.88-7.37-9.92-5.25Z"/><path stroke="#263238" stroke-linejoin="round" d="M399.25 292.47c-1.02.16-14.4 2.4-14.4 2.4l-12.31-10.05-1.88 1.34 11.78 14.78 12.8-.8-2.75 14-11.65 8.86 19 11.35 3.83-12.09 15.13-14.89-5.88-7.37-9.92-5.25s-2.73-2.44-3.75-2.28Z"/><path fill="#FFF" d="m406.9 291.51-2.15 4.53-.79-.72-1.51 10.99 10.48-6.35-1.05-1.67.24-3.42-5.22-3.36Z"/><path stroke="#263238" stroke-linejoin="round" d="m404.75 296.04-.79-.72-1.51 10.99 10.48-6.35-1.05-1.67.24-3.42-5.22-3.36-2.15 4.53Z"/><path fill="#FFF" d="m402.45 306.31 6.13-3.72-5.12-3.6-1.01 7.32Z"/><path stroke="#263238" stroke-linejoin="round" d="m408.58 302.59-5.12-3.6-1.01 7.32 6.13-3.72Z"/><path fill="#263238" d="M419 280.75s4.63-5.43 9.34-2c4.71 3.42 3.41 6.76 6.77 4.93 3.36-1.83 9.67-6.48 13.47-.56 3.8 5.92.87 12.12-1.52 13.54-2.39 1.41-1.76-1.29-1.71-2.6.05-1.31-3.87-3-4.74-.3-.87 2.7-5.44 6.86-11.24 6.47-5.8-.39-6.92-7.52-6.79-11.72a7.227 7.227 0 0 0-.98-3.57c-.63-1.09-1.53-2-2.61-2.63l.01-1.56Z"/><path stroke="#263238" stroke-linejoin="round" d="M428.34 278.75c4.71 3.42 3.41 6.76 6.77 4.93 3.36-1.83 9.67-6.48 13.47-.56 3.8 5.92.87 12.12-1.52 13.54-2.39 1.41-1.76-1.29-1.71-2.6.05-1.31-3.87-3-4.74-.3-.87 2.7-5.44 6.86-11.24 6.47-5.8-.39-6.92-7.52-6.79-11.72a7.227 7.227 0 0 0-.98-3.57c-.63-1.09-1.53-2-2.61-2.63l.01-1.56s4.63-5.43 9.34-2Z"/><path fill="#FFF" d="M407.9 279.63s-2.9 6.46-2.3 10.27c.6 3.81.28 6.74 2.22 7.48 1.94.74 8.37-3.15 9.79-5.72s3.45-6.28 2.89-9.84c-.56-3.56-7.38-8.75-12.6-2.19Z"/><path stroke="#263238" stroke-linejoin="round" d="M405.6 289.9c.6 3.81.28 6.74 2.22 7.48 1.94.74 8.37-3.15 9.79-5.72s3.45-6.28 2.89-9.84c-.56-3.56-7.38-8.75-12.6-2.19 0 0-2.9 6.46-2.3 10.27Z"/><path fill="#263238" d="M409 286.41c-.15.5-.47.84-.72.76-.25-.08-.33-.54-.18-1 .15-.46.47-.85.72-.76.25.08.29.5.18 1ZM413.62 288.32c-.15.5-.48.86-.73.78-.25-.09-.33-.54-.18-1 .15-.46.48-.84.73-.78.25.08.33.5.18 1Z"/><path stroke="#263238" stroke-linecap="round" stroke-linejoin="round" d="M410.17 287.24s.3.22-.12 1c-.42.77-1.43.5-1.32 1.17.11.66 1.38 1 1.38 1M407.84 291.57s1.61 1.52 3.05 1.15M415.14 286.73l-2.99-.76M409.79 284.84l-1.43-1.28"/><path fill="#263238" d="M407.9 279.63s-.43 1-.93 2.37c1.69-.88 4.6-1.87 7.26-.24 2.66 1.65 4 5.42 4.54 7.73 1.13-2.29 2.14-5 1.73-7.67-.56-3.56-7.38-8.75-12.6-2.19Z"/><path stroke="#263238" stroke-linejoin="round" d="M406.97 282c1.69-.88 4.6-1.87 7.26-.24 2.66 1.65 4 5.42 4.54 7.73 1.13-2.29 2.14-5 1.73-7.67-.56-3.56-7.38-8.75-12.6-2.19 0 0-.43 1-.93 2.37Z"/><path fill="#FFF" d="M418.08 289.39s2.08-1.91 2-.17c-.08 1.74-2.47 2.77-3 2.85-.53.08-.49-.59-.49-.59m1.82-1.75v.02c-.2.19-.51.18-.7-.03-.19-.2-.18-.51.03-.7h.03l.64.71Zm-2.3 1.74-.02-.02a.49.49 0 0 1 .53-.47c.27.01.48.25.46.53l-.02.01-.95-.05Z"/><path stroke="#263238" stroke-linecap="round" stroke-linejoin="round" d="M418.08 289.39s2.08-1.91 2-.17c-.08 1.74-2.47 2.77-3 2.85-.53.08-.49-.59-.49-.59"/><path fill="#000" d="m418.79 307.38-3.2 22.81c-.07.48-.31.93-.68 1.25-.36.33-.83.52-1.32.54h-.69c-.54.02-1.06-.17-1.46-.52-.4-.35-.65-.84-.69-1.37l-1.25-13.72 9.29-8.99Z"/><path stroke="#263238" stroke-linejoin="round" d="M415.59 330.19c-.07.48-.31.93-.68 1.25-.36.33-.83.52-1.32.54h-.69c-.54.02-1.06-.17-1.46-.52-.4-.35-.65-.84-.69-1.37l-1.25-13.72 9.29-8.99-3.2 22.81Z"/><path fill="#000" d="M413 327.06 402.73 318l-2.3 1.93 9.86 11.41c.21.23.48.41.77.52.3.12.62.16.94.14h.81c.31-.02.61-.1.88-.24.28-.15.52-.35.7-.6.19-.25.32-.54.38-.84.06-.31.05-.62-.02-.92l-1.75-2.34Zm.3-.38h.03c.21.19.23.5.04.71-.18.21-.5.23-.71.04v-.03l.64-.72Zm.99 2.85-.03-.01c-.07-.27.09-.54.36-.61.27-.07.54.09.61.36l-.01.03-.93.23Z"/><path stroke="#263238" stroke-linecap="round" stroke-linejoin="round" d="M413 327.06 402.73 318l-2.3 1.93 9.86 11.41c.21.23.48.41.77.52.3.12.62.16.94.14h.81c.31-.02.61-.1.88-.24.28-.15.52-.35.7-.6.19-.25.32-.54.38-.84.06-.31.05-.62-.02-.92"/><path fill="#FFF" d="m402.73 317.99-2.41-3.85-5.42-.6.03 3.22 2.6 2.18 1.65.23 1.25.75 2.3-1.93Z"/><path stroke="#263238" stroke-linejoin="round" d="m400.32 314.14-5.42-.6.03 3.22 2.6 2.18 1.65.23 1.25.75 2.3-1.93-2.41-3.85Z"/><path fill="#FFF" d="M373.71 330s-11.32 14.73-10.7 17.17c.62 2.44 17.16 28.27 17.16 28.27l2.3-1.52-9.09-28.38 18.27-7.27-17.94-8.27Z"/><path stroke="#263238" stroke-linejoin="round" d="M363.01 347.17c.62 2.44 17.16 28.27 17.16 28.27l2.3-1.52-9.09-28.38 18.27-7.27-17.94-8.27s-11.32 14.73-10.7 17.17Z"/><path fill="#263238" d="m382.83 335.46 1.34 5.89 6.05-2.32-7.39-3.57Z"/><path stroke="#263238" d="m384.17 341.35 6.05-2.32-7.39-3.57 1.34 5.89Z"/><path fill="#FFF" d="m380.17 375.39-3 5s-2.39 3.58-1.69 3.8c1.53.49 5.49-2.11 6.62-2.91 1.13-.8 2.34-1.33 3.09-1.86s2.25-.84.2-2.74c-.69-.63-2.88-2.81-2.88-2.81l-2.34 1.52Z"/><path stroke="#263238" stroke-linejoin="round" d="M377.17 380.39s-2.39 3.58-1.69 3.8c1.53.49 5.49-2.11 6.62-2.91 1.13-.8 2.34-1.33 3.09-1.86s2.25-.84.2-2.74c-.69-.63-2.88-2.81-2.88-2.81l-2.34 1.52-3 5Z"/><path fill="#263238" d="M398.86 325.29a138.43 138.43 0 0 0-15.61-5.16c-9.17-2.49-15.95-4.42-15.82-2.13.13 2.29 16.81 39.18 16.81 39.18l2.86-.91-4.36-20.34s7 4.9 12.17 2.47 7.14-9 6.78-11.24m-2.67-2.32.02-.01c.26.1.38.39.28.65-.1.26-.39.38-.65.28l-.01-.03.36-.89Zm2.19 2.41-.02-.01c-.04-.28.14-.53.42-.58.27-.04.52.14.57.42l-.02.02-.95.15Z"/><path stroke="#263238" stroke-linecap="round" stroke-linejoin="round" d="M398.86 325.29a138.43 138.43 0 0 0-15.61-5.16c-9.17-2.49-15.95-4.42-15.82-2.13.13 2.29 16.81 39.18 16.81 39.18l2.86-.91-4.36-20.34s7 4.9 12.17 2.47 7.14-9 6.78-11.24"/><path fill="#FFF" d="M381.3 319.6c-8.16-2.21-14-3.73-13.87-1.6.13 2.29 16.81 39.18 16.81 39.18l2.86-.91-4.36-20.34c1.49-3.63-.09-11.26-1.44-16.33Z"/><path stroke="#263238" stroke-linejoin="round" d="M367.43 318c.13 2.29 16.81 39.18 16.81 39.18l2.86-.91-4.36-20.34c1.49-3.63-.09-11.26-1.44-16.33-8.16-2.21-14-3.73-13.87-1.6Z"/><path fill="#FFF" d="M383.12 335.64h.03a.5.5 0 0 1-.13.7.5.5 0 0 1-.7-.13l.01-.03.79-.54Zm-7.96-9.86h-.03a.5.5 0 0 1 .13-.7.5.5 0 0 1 .7.13l-.01.03-.79.54Z"/><path stroke="#263238" stroke-linecap="round" stroke-linejoin="round" d="m382.74 335.93-7.19-10.43"/><path fill="#FFF" d="m384.24 357.18-2.68 5.05s-5.41 5.24-4.21 5.51c1.2.27 11.37-4.1 12.13-5.14.76-1.04-2.38-6.33-2.38-6.33l-2.86.91Z"/><path stroke="#263238" stroke-linejoin="round" d="M381.56 362.23s-5.41 5.24-4.21 5.51c1.2.27 11.37-4.1 12.13-5.14.76-1.04-2.38-6.33-2.38-6.33l-2.86.91-2.68 5.05Z"/><path stroke="#263238" d="m371.8 283.72 25.22 30.03M294.2 190.72l74.01 88.56M399.18 319.16v146M158.33 278.59s5.31 31.13-.46 41c-5.78 9.87-20.28 2.76-20.28 2.76v141.81"/><path fill="#FFF" d="M126.39 290.24s4.71-.54 5.07.55c.19.89.19 1.81 0 2.71 0 0 2.71 2.9 2.71 4.89 0 1.99-2.89 2.9-2.89 2.9l-.54 4.7-7.24.36-.91-5.61s-2.72-10.68 3.8-10.5Z"/><path stroke="#263238" stroke-linejoin="round" d="M131.46 290.79c.19.89.19 1.81 0 2.71 0 0 2.71 2.9 2.71 4.89 0 1.99-2.89 2.9-2.89 2.9l-.54 4.7-7.24.36-.91-5.61s-2.72-10.68 3.8-10.5c0 0 4.71-.54 5.07.55Z"/><path fill="#263238" d="m127.84 298-2-2.9c.67-1.1 1.04-2.34 1.08-3.62 0-2-.18-5.61-4.34-5.61s-6.88 3.26-7.78 10.32c-.9 7.06 3.25 10.5 9.23 9.23 5.97-1.27 3.81-7.42 3.81-7.42Z"/><path stroke="#263238" stroke-linejoin="round" d="M125.84 295.1c.67-1.1 1.04-2.34 1.08-3.62 0-2-.18-5.61-4.34-5.61s-6.88 3.26-7.78 10.32c-.9 7.06 3.25 10.5 9.23 9.23 5.97-1.27 3.81-7.42 3.81-7.42l-2-2.9Z"/><path fill="#FFF" d="M127.66 296.76s-3.08-.36-2.9 2c.04.5.24.98.57 1.37.33.4.76.68 1.25.82.5.13 1.02.12 1.5-.04.48-.17.9-.48 1.2-.88m-1.59-3.75.02-.02c.28.03.47.28.44.55a.49.49 0 0 1-.55.44l-.02-.02.11-.95Zm1.2 3.47-.01-.02a.5.5 0 0 1 .7-.11.5.5 0 0 1 .11.7l-.03.01-.77-.58Z"/><path stroke="#263238" stroke-linecap="round" stroke-linejoin="round" d="M127.66 296.76s-3.08-.36-2.9 2c.04.5.24.98.57 1.37.33.4.76.68 1.25.82.5.13 1.02.12 1.5-.04.48-.17.9-.48 1.2-.88"/><path fill="#263238" d="M123.37 308.12 116.7 310s-.52 1.29-1.3 3c-1.05 2.31-3.94 7-3.94 7l-13.35 3.81-4.29 13.83-.95 5.72 7.62-3.82.48-13.34 12-1.85 5.15-13 5.25-3.23Z"/><path stroke="#263238" stroke-linejoin="round" d="M116.7 310s-.52 1.29-1.3 3c-1.05 2.31-3.94 7-3.94 7l-13.35 3.81-4.29 13.83-.95 5.72 7.62-3.82.48-13.34 12-1.85 5.15-13 5.25-3.23-6.67 1.88Z"/><path fill="#000" d="M134 306.17s-5.25-2.35-9.23-1.82c-3.98.55-3.62 2.55-3.62 2.55l.18 2.7s6.67-1.98 12.67-3.43Z"/><path stroke="#263238" stroke-linejoin="round" d="M124.77 304.35c-3.98.55-3.62 2.55-3.62 2.55l.18 2.7s6.67-1.98 12.67-3.43c0 0-5.25-2.35-9.23-1.82Z"/><path fill="#000" d="m116.07 319.39 3.75 17.34c.02.2.1.4.22.57.12.18.28.32.47.41.18.1.39.15.6.16.21 0 .42-.05.61-.14l8.47-4.23-14.12-14.11Z"/><path stroke="#263238" stroke-linejoin="round" d="M119.82 336.73c.02.2.1.4.22.57.12.18.28.32.47.41.18.1.39.15.6.16.21 0 .42-.05.61-.14l8.47-4.23-14.12-14.11 3.75 17.34Z"/><path fill="#FFF" d="m125.05 328.42-.01-.03c.12-.25.42-.35.67-.22.25.12.35.42.22.67l-.02.01-.86-.43Zm-1.12 4.37.01.03c-.12.25-.42.35-.67.22a.488.488 0 0 1-.22-.67l.03-.01.85.43Z"/><path stroke="#263238" stroke-linecap="round" stroke-linejoin="round" d="m125.49 328.62-1.99 3.98"/><path fill="#263238" d="m143.03 346.18 10.94 18.08-1.45 24.45 5.25-.18 5.25-29.16-7.67-20.43-12.32 7.24Z"/><path stroke="#263238" stroke-linejoin="round" d="m153.97 364.26-1.45 24.45 5.25-.18 5.25-29.16-7.67-20.43-12.32 7.24 10.94 18.08Z"/><path fill="#000" d="M121.32 309.6s-5.25 9.06-5.25 9.79c0 .73 20.46 20.45 20.46 20.45l15.57-10.32-9.78-17.01 14.07-13.81 1.09-18.66-2.53-.17-4.53 13.58-15 11.81-14.1 4.34Z"/><path stroke="#263238" stroke-linejoin="round" d="M116.07 319.39c0 .73 20.46 20.45 20.46 20.45l15.57-10.32-9.78-17.01 14.07-13.81 1.09-18.66-2.53-.17-4.53 13.58-15 11.81-14.1 4.34s-5.25 9.06-5.25 9.79Z"/><path fill="#FFF" d="m154.95 279.87.18-4.16 4.51-3.45.38.91v2.72l.18 2.17-2.72 1.98-2.53-.17Z"/><path stroke="#263238" stroke-linejoin="round" d="m155.13 275.71 4.51-3.45.38.91v2.72l.18 2.17-2.72 1.98-2.53-.17.18-4.16Z"/><path fill="#263238" d="M136.53 339.84s3.44 5.79 6 7.6c2.56 1.81 10.47-3.8 12.47-5.44 2-1.64 9.6-11.4 9.6-11.4l7.06 30.08 4.35-1.81s-2.55-40-3.81-41.12c-1.26-1.12-20.82 11.58-20.82 11.58l-14.85 10.51Z"/><path stroke="#263238" stroke-linejoin="round" d="M142.53 347.44c2.56 1.81 10.47-3.8 12.47-5.44 2-1.64 9.6-11.4 9.6-11.4l7.06 30.08 4.35-1.81s-2.55-40-3.81-41.12c-1.26-1.12-20.82 11.58-20.82 11.58l-14.85 10.51s3.44 5.79 6 7.6Z"/><path fill="#FFF" d="M176 358.88h6.15c1.09 0 3.8-1.63 4-.36.2 1.27-5.25 4.7-7.43 5.79-2.1.81-4.29 1.36-6.51 1.63l-.55-5.25 4.34-1.81Z"/><path stroke="#263238" stroke-linejoin="round" d="M182.15 358.88c1.09 0 3.8-1.63 4-.36.2 1.27-5.25 4.7-7.43 5.79-2.1.81-4.29 1.36-6.51 1.63l-.55-5.25 4.34-1.81h6.15Z"/><path fill="#FFF" d="m157.77 388.53 3.08 5.61s3.8 1.63 3.8 2.36-6.15.36-6.7.36c-.56 0-6.7-6-6.7-6l1.27-2.18 5.25-.15Z"/><path stroke="#263238" stroke-linejoin="round" d="M160.85 394.14s3.8 1.63 3.8 2.36-6.15.36-6.7.36c-.56 0-6.7-6-6.7-6l1.27-2.18 5.25-.15 3.08 5.61Z"/><path stroke="#263238" d="m159.64 272.26 59.1-81.01"/><path stroke="#263238" stroke-linecap="round" stroke-linejoin="round" d="M12 465.2h474"/></g></svg>