<svg xmlns="http://www.w3.org/2000/svg" width="382" height="300" fill="none"><defs><clipPath id="a"><path fill="#fff" fill-opacity="0" d="M0 0h382v300H0z"/></clipPath></defs><path fill="none" d="M0 0h382v300H0z"/><g clip-path="url(#a)"><path stroke="#263238" stroke-linecap="round" stroke-linejoin="round" stroke-width=".97" d="M204.75 129.64c-4.67-3.69-10.26-5.4-15.86-4.85-5.61.55-10.88 3.33-14.97 7.87-4.09 4.55-6.74 10.6-7.52 17.15-.79 6.56.34 13.24 3.2 18.94M213.56 142.03c-.48-1.28-1.04-2.52-1.67-3.7M211.45 170.17c1.84-3.24 3.12-6.88 3.76-10.71.64-3.83.62-7.77-.06-11.59M166.3 124.87c-1.69 1.99-3.2 4.18-4.51 6.52"/><path stroke="#263238" stroke-linecap="round" stroke-linejoin="round" stroke-width=".97" d="M218.41 178.93c4.98-7.59 7.55-17.01 7.25-26.6-.31-9.59-3.46-18.76-8.91-25.89-5.45-7.14-12.86-11.79-20.92-13.16-8.07-1.36-16.29.66-23.22 5.7M163.33 178.93c-3.44-5.24-5.75-11.39-6.74-17.92a48.06 48.06 0 0 1 1.07-19.55M152.42 189.3c2.17 3.25 4.62 6.23 7.33 8.86"/><path stroke="#263238" stroke-linecap="round" stroke-linejoin="round" stroke-width=".97" d="M218.53 106.39c-8.72-7.03-19.14-10.55-29.7-10.01-10.56.53-20.68 5.08-28.86 12.97-8.18 7.89-13.96 18.68-16.49 30.77-2.53 12.09-1.66 24.82 2.47 36.28M236.46 133.06c-1.31-3.98-3-7.78-5.03-11.33M224.66 195.42c4.78-5.36 8.57-11.81 11.17-18.96 2.59-7.15 3.92-14.84 3.91-22.61M122.64 153.85c0 19.09 5.74 37.57 16.2 52.15 10.46 14.58 24.97 24.33 40.95 27.52"/><path stroke="#263238" stroke-linecap="round" stroke-linejoin="round" stroke-width=".97" d="M246 201.93c8.36-13.32 13.04-29.34 13.41-45.9.38-16.55-3.58-32.85-11.32-46.67-7.75-13.82-18.91-24.51-31.98-30.61-13.07-6.1-27.41-7.33-41.09-3.51M122.64 153.85c0-18.11 5.17-35.7 14.67-49.94 9.5-14.24 22.79-24.31 37.73-28.59M231.43 219c1.74-1.51 3.42-3.11 5.03-4.8M202.31 233.52c7.8-1.54 15.31-4.66 22.2-9.24"/><path fill="#263238" d="M190.9 226.29c-6.95-.01-13.61-3.27-18.52-9.05-4.91-5.79-7.67-13.64-7.68-21.82v-10.39c0-.45.15-.87.42-1.19.26-.31.63-.49 1-.49h3.57c.38 0 .74.18 1.01.49.27.32.42.74.42 1.19 0 .45-.15.87-.42 1.19-.27.31-.63.49-1.01.49h-2.12v8.71c0 7.3 2.46 14.29 6.83 19.45 4.38 5.16 10.32 8.06 16.51 8.06 6.2 0 12.13-2.9 16.51-8.06 4.38-5.16 6.84-12.15 6.84-19.45v-8.71h-2.14c-.38 0-.74-.18-1.01-.49-.26-.32-.41-.74-.41-1.19 0-.45.15-.87.41-1.19.27-.31.63-.49 1.01-.49h3.57c.38 0 .74.18 1.01.49.26.32.41.74.41 1.19v10.39c0 8.19-2.77 16.03-7.68 21.82-4.92 5.79-11.58 9.04-18.53 9.05ZM218.52 252.11v-3.36c.01-.44-.07-.88-.21-1.29-.14-.41-.35-.78-.62-1.09-.26-.31-.58-.56-.92-.73-.35-.16-.72-.25-1.1-.25h-49.55c-.37 0-.74.09-1.09.25-.34.17-.66.42-.92.73-.27.31-.48.68-.62 1.09-.14.41-.22.85-.22 1.29v3.36h55.25Z"/><path fill="#263238" d="M193.68 249.48c.05-.24.07-.48.07-.73v-24.14h-5.7v24.14c0 .25.02.49.07.73h5.56Z"/><path stroke="#263238" stroke-linejoin="round" stroke-width=".97" d="M207.29 145.78c-.87-2.56-2.17-4.89-3.81-6.86-1.64-1.97-3.6-3.53-5.76-4.6a15.33 15.33 0 0 0-6.82-1.62c-2.35 0-4.67.55-6.83 1.62s-4.12 2.63-5.76 4.6c-1.64 1.97-2.93 4.3-3.8 6.86-.87 2.57-1.3 5.31-1.26 8.07v41.57c.08 5.45 1.97 10.65 5.27 14.47 3.3 3.83 7.75 5.97 12.38 5.97 4.63 0 9.07-2.14 12.37-5.97 3.3-3.82 5.19-9.02 5.27-14.47v-41.57c.04-2.76-.38-5.5-1.25-8.07Z"/><path fill="#E8E8E8" d="M208.54 153.85c.04-2.76-.38-5.5-1.25-8.07-.87-2.56-2.17-4.89-3.81-6.86-1.64-1.97-3.6-3.53-5.76-4.6a15.33 15.33 0 0 0-6.82-1.62c-2.35 0-4.67.55-6.83 1.62s-4.12 2.63-5.76 4.6c-1.64 1.97-2.93 4.3-3.8 6.86-.87 2.57-1.3 5.31-1.26 8.07v41.57c.08 5.45 1.97 10.65 5.27 14.47 3.3 3.83 7.75 5.97 12.38 5.97 4.63 0 9.07-2.14 12.37-5.97 3.3-3.82 5.19-9.02 5.27-14.47v-41.57Z"/><path fill="#FFF" d="M183.59 156.04h-10.34v5.04h10.34c.57 0 1.11-.27 1.51-.74.4-.47.63-1.11.63-1.78 0-.67-.23-1.31-.63-1.78-.4-.48-.94-.74-1.51-.74ZM208.54 156.04h-10.33c-.57 0-1.11.26-1.51.74-.41.47-.63 1.11-.63 1.78 0 .67.22 1.31.63 1.78.4.47.94.74 1.51.74h10.33v-5.04ZM190.9 156.04c-.42 0-.84.15-1.19.42-.35.28-.63.67-.79 1.13-.16.46-.2.97-.12 1.46.08.49.29.94.59 1.29.29.35.68.59 1.09.69.42.1.85.05 1.24-.14.39-.2.72-.52.96-.93.23-.42.36-.9.36-1.4 0-.67-.23-1.31-.63-1.78-.4-.48-.94-.74-1.51-.74ZM190.9 166.23c-.42 0-.84.14-1.19.42-.35.28-.63.67-.79 1.13-.16.46-.2.97-.12 1.46.08.49.29.93.59 1.29.29.35.68.59 1.09.69.42.09.85.04 1.24-.15s.72-.51.96-.92c.23-.42.36-.91.36-1.4 0-.67-.23-1.31-.63-1.79-.4-.47-.94-.73-1.51-.73ZM190.9 176.4c-.42 0-.84.14-1.19.42-.35.28-.63.67-.79 1.13-.16.46-.2.97-.12 1.46.08.49.29.93.59 1.29.29.35.68.59 1.09.69.42.09.85.04 1.24-.15s.72-.51.96-.92c.23-.42.36-.91.36-1.4 0-.67-.23-1.31-.63-1.79-.4-.47-.94-.73-1.51-.73ZM183.59 166.23h-10.34v5.04h10.34c.57 0 1.11-.27 1.51-.74.4-.48.63-1.12.63-1.78 0-.67-.23-1.31-.63-1.79-.4-.47-.94-.73-1.51-.73ZM208.54 166.23h-10.33c-.57 0-1.11.26-1.51.73-.41.48-.63 1.12-.63 1.79 0 .66.22 1.3.63 1.78.4.47.94.74 1.51.74h10.33v-5.04ZM183.59 176.4h-10.34v5.04h10.34c.57 0 1.11-.27 1.51-.74.4-.48.63-1.12.63-1.78 0-.67-.23-1.31-.63-1.79-.4-.47-.94-.73-1.51-.73ZM208.54 176.4h-10.33c-.57 0-1.11.26-1.51.73-.41.48-.63 1.12-.63 1.79 0 .66.22 1.3.63 1.78.4.47.94.74 1.51.74h10.33v-5.04Z"/><path stroke="#263238" stroke-width=".97" d="M207.29 145.78c-.87-2.56-2.17-4.89-3.81-6.86-1.64-1.97-3.6-3.53-5.76-4.6a15.33 15.33 0 0 0-6.82-1.62c-2.35 0-4.67.55-6.83 1.62s-4.12 2.63-5.76 4.6c-1.64 1.97-2.93 4.3-3.8 6.86-.87 2.57-1.3 5.31-1.26 8.07v41.57c.08 5.45 1.97 10.65 5.27 14.47 3.3 3.83 7.75 5.97 12.38 5.97 4.63 0 9.07-2.14 12.37-5.97 3.3-3.82 5.19-9.02 5.27-14.47v-41.57c.04-2.76-.38-5.5-1.25-8.07Z"/><path fill="#263238" d="M173.25 195.42c.08 5.45 1.97 10.65 5.27 14.47 3.3 3.83 7.75 5.97 12.38 5.97 4.62 0 9.07-2.14 12.37-5.97 3.3-3.82 5.19-9.02 5.27-14.47h-35.29Z"/><path stroke="#263238" stroke-width=".97" d="M178.52 209.89c3.3 3.83 7.75 5.97 12.38 5.97 4.62 0 9.07-2.14 12.37-5.97 3.3-3.82 5.19-9.02 5.27-14.47h-35.29c.08 5.45 1.97 10.65 5.27 14.47Z"/><path fill="#E8E8E8" fill-rule="evenodd" d="M340.58 90.95c22.03 25.96 22.03 68.04 0 94-22.04 25.96-57.76 25.96-79.8 0-22.03-25.96-22.03-68.04 0-94 22.04-25.96 57.76-25.96 79.8 0Z"/><path fill="#FFF" fill-rule="evenodd" d="M253.17 110.45h39.42c1.98 0 3.59 1.9 3.59 4.24v46.43c0 2.34-1.61 4.24-3.59 4.24h-39.42c-1.99 0-3.6-1.9-3.6-4.24v-46.43c0-2.34 1.61-4.24 3.6-4.24Z"/><g opacity=".1"><path fill="#000" d="M253.97 165.36h15.55l9.92-54.91h-16.19l-9.9 54.85c.21.04.41.06.62.06ZM286.03 110.45h-3.89l-9.91 54.91h3.89l9.91-54.91Z" opacity=".1"/></g><path fill="#FFF" d="M291.79 166.73h-37.82c-1.47 0-2.88-.69-3.92-1.92-1.04-1.22-1.63-2.88-1.64-4.61v-44.57c.01-1.74.59-3.4 1.63-4.63 1.04-1.22 2.46-1.92 3.93-1.92h37.82c1.47 0 2.88.69 3.93 1.92 1.04 1.23 1.63 2.89 1.63 4.63v44.57c-.01 1.73-.59 3.39-1.64 4.62-1.04 1.22-2.45 1.91-3.92 1.91Zm-37.82-54.91c-.86 0-1.68.4-2.29 1.12-.6.71-.94 1.68-.94 2.69v44.57c0 1.01.34 1.98.94 2.69.61.72 1.43 1.12 2.29 1.12h37.82c.42 0 .84-.1 1.24-.29.39-.19.75-.47 1.05-.83.3-.35.53-.77.7-1.23.16-.47.24-.96.24-1.46v-44.57c0-.5-.08-1-.24-1.46-.17-.46-.41-.88-.71-1.23-.3-.36-.65-.64-1.05-.83-.39-.19-.81-.29-1.23-.29h-37.82Z"/><path stroke="#263238" stroke-width=".933" d="M253.97 166.73c-1.47 0-2.88-.69-3.92-1.92-1.04-1.22-1.63-2.88-1.64-4.61v-44.57c.01-1.74.59-3.4 1.63-4.63 1.04-1.22 2.46-1.92 3.93-1.92h37.82c1.47 0 2.88.69 3.93 1.92 1.04 1.23 1.63 2.89 1.63 4.63v44.57c-.01 1.73-.59 3.39-1.64 4.62-1.04 1.22-2.45 1.91-3.92 1.91h-37.82Zm-2.29-53.79c-.6.71-.94 1.68-.94 2.69v44.57c0 1.01.34 1.98.94 2.69.61.72 1.43 1.12 2.29 1.12h37.82c.42 0 .84-.1 1.24-.29.39-.19.75-.47 1.05-.83.3-.35.53-.77.7-1.23.16-.47.24-.96.24-1.46v-44.57c0-.5-.08-1-.24-1.46-.17-.46-.41-.88-.71-1.23-.3-.36-.65-.64-1.05-.83-.39-.19-.81-.29-1.23-.29h-37.82c-.86 0-1.68.4-2.29 1.12Z"/><path fill="#FFF" fill-rule="evenodd" d="M307.99 110.45h39.42c1.98 0 3.59 1.9 3.59 4.24v46.43c0 2.34-1.61 4.24-3.59 4.24h-39.42c-1.99 0-3.6-1.9-3.6-4.24v-46.43c0-2.34 1.61-4.24 3.6-4.24Z"/><g opacity=".1"><path fill="#000" d="M312.86 165.36h15.55l9.91-54.91h-16.18l-9.92 54.85c.21.04.42.06.64.06ZM344.92 110.45h-3.9l-9.91 54.91h3.9l9.91-54.91Z" opacity=".1"/></g><path fill="#FFF" d="M346.61 166.73h-37.82c-1.47 0-2.88-.69-3.92-1.92-1.05-1.22-1.63-2.88-1.64-4.61v-44.57c.01-1.74.59-3.4 1.63-4.63 1.04-1.22 2.46-1.92 3.93-1.92h37.82c1.47 0 2.88.69 3.93 1.92 1.04 1.23 1.63 2.89 1.63 4.63v44.57c-.01 1.73-.59 3.39-1.64 4.62-1.04 1.22-2.45 1.91-3.92 1.91Zm-37.82-54.91c-.86 0-1.68.4-2.29 1.12-.6.71-.94 1.68-.94 2.69v44.57c0 1.01.34 1.98.94 2.69.61.72 1.43 1.12 2.29 1.12h37.82c.42 0 .84-.1 1.24-.29.39-.19.75-.47 1.05-.83.3-.35.53-.77.7-1.23.16-.47.24-.96.24-1.46v-44.57c0-.5-.08-1-.24-1.46-.17-.46-.41-.88-.71-1.23-.3-.36-.65-.64-1.05-.83-.39-.19-.81-.29-1.23-.29h-37.82Z"/><path stroke="#263238" stroke-width=".933" d="M308.79 166.73c-1.47 0-2.88-.69-3.92-1.92-1.05-1.22-1.63-2.88-1.64-4.61v-44.57c.01-1.74.59-3.4 1.63-4.63 1.04-1.22 2.46-1.92 3.93-1.92h37.82c1.47 0 2.88.69 3.93 1.92 1.04 1.23 1.63 2.89 1.63 4.63v44.57c-.01 1.73-.59 3.39-1.64 4.62-1.04 1.22-2.45 1.91-3.92 1.91h-37.82Zm-2.29-53.79c-.6.71-.94 1.68-.94 2.69v44.57c0 1.01.34 1.98.94 2.69.61.72 1.43 1.12 2.29 1.12h37.82c.42 0 .84-.1 1.24-.29.39-.19.75-.47 1.05-.83.3-.35.53-.77.7-1.23.16-.47.24-.96.24-1.46v-44.57c0-.5-.08-1-.24-1.46-.17-.46-.41-.88-.71-1.23-.3-.36-.65-.64-1.05-.83-.39-.19-.81-.29-1.23-.29h-37.82c-.86 0-1.68.4-2.29 1.12Z"/><path fill="#E8E8E8" fill-rule="evenodd" d="M327.58 261.68c0 2.43-11.36 4.4-25.38 4.4-14.01 0-25.38-1.97-25.38-4.4 0-2.43 11.37-4.4 25.38-4.4 14.02 0 25.38 1.97 25.38 4.4Z"/><path fill="#FFF" d="M313.42 236.06s-.07 12.32-1.17 14.35c-1.32 2.4-2.26 5.75 1.24 6.66 3.49.91 5.57 5.46 9.73 5.75 4.16.31 4.58-1.79 2.77-3.48s-6.42-6.36-7.02-8.63c-.61-2.28.57-14.65.57-14.65h-6.12Z"/><path fill="#000" d="M318.98 243.21c.22-3.63.56-7.15.56-7.15h-6.12s0 3.15-.17 6.53c1.89.39 3.81.6 5.73.62Z" opacity=".1"/><path stroke="#263238" stroke-linejoin="round" stroke-width=".933" d="M312.25 250.41c-1.32 2.4-2.26 5.75 1.24 6.66 3.49.91 5.57 5.46 9.73 5.75 4.16.31 4.58-1.79 2.77-3.48s-6.42-6.36-7.02-8.63c-.61-2.28.57-14.65.57-14.65h-6.12s-.07 12.32-1.17 14.35Z"/><path fill="#BFBFBF" d="M325.97 259.34c-1.7-1.59-3.31-3.3-4.83-5.12-1.45 1.3-5.7.07-6.96-1.09-1.52-1.42-1.2-2.14-1.93-2.78l-.02.06c-1.32 2.4-2.26 5.75 1.24 6.66 3.49.91 5.57 5.46 9.73 5.75 4.16.31 4.59-1.82 2.77-3.48Z"/><path stroke="#263238" stroke-width=".933" d="M321.14 254.22c-1.45 1.3-5.7.07-6.96-1.09-1.52-1.42-1.2-2.14-1.93-2.78l-.02.06c-1.32 2.4-2.26 5.75 1.24 6.66 3.49.91 5.57 5.46 9.73 5.75 4.16.31 4.59-1.82 2.77-3.48-1.7-1.59-3.31-3.3-4.83-5.12Z"/><path fill="#FFF" d="M289.92 231.6s-4.58 11.26-6.31 12.64c-2.1 1.64-4.17 4.29-1.31 6.65 2.87 2.35 3.13 7.43 6.83 9.52 3.7 2.1 4.86.33 3.81-1.98-1.04-2.31-3.56-8.64-3.28-10.99.28-2.35 5.92-13.44 5.92-13.44l-5.66-2.4Z"/><path fill="#000" d="M289.92 231.6s-1.64 4.04-3.32 7.57c1.36 1.59 2.93 2.92 4.64 3.92 1.76-4.01 4.34-9.08 4.34-9.08l-5.66-2.41Z" opacity=".1"/><path stroke="#263238" stroke-linejoin="round" stroke-width=".933" d="M283.61 244.24c-2.1 1.64-4.17 4.29-1.31 6.65 2.87 2.35 3.13 7.43 6.83 9.52 3.7 2.1 4.86.33 3.81-1.98-1.04-2.31-3.56-8.64-3.28-10.99.28-2.35 5.92-13.44 5.92-13.44l-5.66-2.4s-4.58 11.26-6.31 12.64Z"/><path fill="#BFBFBF" d="M292.94 258.4a62.24 62.24 0 0 1-2.54-6.81c-1.81.56-5.57-2.29-5.98-4.03-.8-3.35-.33-2.49-.76-3.39l-.04.04c-2.1 1.64-4.17 4.29-1.31 6.65 2.87 2.35 3.13 7.43 6.83 9.52 3.7 2.1 4.85.33 3.8-1.98Z"/><path stroke="#263238" stroke-width=".933" d="M290.4 251.59c-1.81.56-5.57-2.29-5.98-4.03-.8-3.35-.33-2.49-.76-3.39l-.04.04c-2.1 1.64-4.17 4.29-1.31 6.65 2.87 2.35 3.13 7.43 6.83 9.52 3.7 2.1 4.85.33 3.8-1.98a62.24 62.24 0 0 1-2.54-6.81Z"/><path fill="#263238" d="M314.16 151.86s7.01 39.6 7.48 52.52c.47 12.92-1.35 35.96-1.35 35.96l-7.79-.6s-.05-6.81-.83-16.29c-.47-5.64-1.92-12.21-1.76-18.86 0 0-7.4-25.85-7.13-37.2.27-11.35 0-14.61 0-14.61l11.38-.92Z"/><path stroke="#263238" stroke-linejoin="round" stroke-width=".933" d="M321.64 204.38c.47 12.92-1.35 35.96-1.35 35.96l-7.79-.6s-.05-6.81-.83-16.29c-.47-5.64-1.92-12.21-1.76-18.86 0 0-7.4-25.85-7.13-37.2.27-11.35 0-14.61 0-14.61l11.38-.92s7.01 39.6 7.48 52.52Z"/><path fill="#263238" d="M295.41 151.86s-7.27 7.08-3.06 21.36c1.66 5.66 8.07 31.57 8.07 31.57-1.76 2.37-3.25 5-4.43 7.83-2.92 6.8-5.05 17.4-8.66 23.48l5.34 4.24S309.9 214.89 311 206.8c1.1-8.08-4.07-40.39-4.07-40.39l-1.66-13.14-9.86-1.41Z"/><path stroke="#263238" stroke-linejoin="round" stroke-width=".933" d="M292.35 173.22c1.66 5.66 8.07 31.57 8.07 31.57-1.76 2.37-3.25 5-4.43 7.83-2.92 6.8-5.05 17.4-8.66 23.48l5.34 4.24S309.9 214.89 311 206.8c1.1-8.08-4.07-40.39-4.07-40.39l-1.66-13.14-9.86-1.41s-7.27 7.08-3.06 21.36Z"/><path fill="#FFF" d="M327.66 125.02a8.753 8.753 0 0 0-1.11-3.75c.53-.82.99-1.71 1.38-2.65.39-1.1-.13-2.65-1.2-.79-1.08 1.86-2.26 3.22-1.83 5.54.22 1.5-.01 3.04-.65 4.36l2.48 2.29 4.94-4.62-4.01-.38Z"/><path stroke="#263238" stroke-linejoin="round" stroke-width=".933" d="M326.55 121.27c.53-.82.99-1.71 1.38-2.65.39-1.1-.13-2.65-1.2-.79-1.08 1.86-2.26 3.22-1.83 5.54.22 1.5-.01 3.04-.65 4.36l2.48 2.29 4.94-4.62-4.01-.38a8.753 8.753 0 0 0-1.11-3.75Z"/><path fill="#263238" d="m330 113.15-4.16 1.34c-.39.12-.61.58-.51 1.04l2.37 10.26c.11.45.5.72.88.59l4.16-1.33c.38-.12.61-.58.51-1.04l-2.37-10.26c-.11-.45-.5-.72-.88-.6Z"/><path stroke="#263238" stroke-linejoin="round" stroke-width=".933" d="M330 113.15c.38-.12.77.15.88.6l2.37 10.26c.1.46-.13.92-.51 1.04l-4.16 1.33c-.38.13-.77-.14-.88-.59l-2.37-10.26c-.1-.46.12-.92.51-1.04l4.16-1.34Z"/><path fill="#E8E8E8" d="m330.91 113.88-5.55 1.77 2.31 10.02 5.55-1.78-2.31-10.01Z"/><path stroke="#263238" stroke-linejoin="round" stroke-width=".933" d="m330.91 113.88 2.31 10.01-5.55 1.78-2.31-10.02 5.55-1.77Z"/><path fill="#263238" d="M329.79 117.34c-.06-.31-.23-.57-.47-.73a.886.886 0 0 0-.77-.13c-.26.08-.49.28-.62.55-.14.28-.18.6-.11.91.06.3.4 1.71.51 2.21l1.97-.63c-.11-.46-.44-1.92-.51-2.18ZM329.61 121.15c.25-.08.46-.26.59-.51.14-.26.19-.56.15-.85l-1.96.6c.08.28.26.52.48.66.23.14.49.17.74.1Z"/><path fill="#263238" d="m331.45 122.4-1.28.41-.26-1.14c.36-.17.66-.49.84-.9.17-.41.22-.89.11-1.33l-.14-.6c0-.02-.01-.03-.01-.04-.01-.01-.02-.02-.03-.02-.01-.01-.02-.02-.03-.02-.01 0-.02 0-.03.01l-.21.06c-.02 0-.03.01-.04.02 0 .01-.01.02-.02.03 0 .01 0 .02-.01.04 0 .01.01.02.01.04 0 .01.01.02.01.03l.03.03c.01.01.02.01.03.01h.03l.13-.04.12.51c.04.21.06.43.03.65-.02.21-.08.42-.17.61-.09.2-.22.36-.37.5-.14.13-.31.23-.49.29-.18.05-.37.07-.55.04-.19-.03-.36-.1-.53-.21-.16-.1-.3-.25-.41-.42-.12-.18-.2-.37-.25-.59l-.12-.51.13-.03a.12.12 0 0 0 .05-.05c.01-.02.01-.05.01-.08-.01-.01-.01-.02-.02-.03-.01-.02-.01-.02-.02-.03-.01-.01-.03-.01-.04-.01-.01-.01-.02 0-.03 0l-.21.07c-.01 0-.02 0-.03.01-.01.01-.02.02-.02.03-.01.02-.01.03-.01.04v.04l.14.6c.11.45.34.83.67 1.08.33.25.73.35 1.12.28l.25 1.14-1.28.41c-.02 0-.04.01-.06.03a.21.21 0 0 0-.04.06c-.02.02-.02.05-.03.08 0 .02 0 .05.01.08l.04.2 3.24-1.04-.04-.2c-.01-.03-.02-.05-.03-.07-.02-.02-.03-.04-.05-.06a.185.185 0 0 0-.07-.02c-.02 0-.04 0-.07.01Z"/><path fill="#FFF" d="M331.98 116.22c-.51.06-.93 1-.78 2.33.16 1.33 1.2-.11 1.26-.53.06-.42.49-1.92-.48-1.8Z"/><path stroke="#263238" stroke-linejoin="round" stroke-width=".933" d="M331.2 118.55c.16 1.33 1.2-.11 1.26-.53.06-.42.49-1.92-.48-1.8-.51.06-.93 1-.78 2.33Z"/><path fill="#FFF" d="M333.1 118.2a.748.748 0 0 0-.39.09c-.13.07-.24.17-.32.29-.09.13-.15.27-.18.43-.04.15-.04.31-.01.47.09 1.29.31.99.31.99 0 .53.1 1.06.27 1.55.25.57.93-.3.93-.81 0-.52-.08-3.23-.61-3.01Z"/><path stroke="#263238" stroke-linejoin="round" stroke-width=".933" d="M332.71 118.29c-.13.07-.24.17-.32.29-.09.13-.15.27-.18.43-.04.15-.04.31-.01.47.09 1.29.31.99.31.99 0 .53.1 1.06.27 1.55.25.57.93-.3.93-.81 0-.52-.08-3.23-.61-3.01a.748.748 0 0 0-.39.09Z"/><path fill="#FFF" d="M332.51 120.45s.88-.31 1.09-1.07l-1.09 1.07Zm.17.41-.01.03a.472.472 0 0 1-.6-.29c-.08-.25.04-.51.29-.6l.03.02.29.84Zm.49-1.58-.02-.02c.07-.25.33-.4.58-.33.25.07.39.33.32.58l-.02.01-.86-.24Z"/><path stroke="#263238" stroke-linecap="round" stroke-linejoin="round" stroke-width=".933" d="M332.51 120.45s.88-.31 1.09-1.07"/><path fill="#FFF" d="M324.86 125.9c.17-.83.18-1.7.04-2.53-.43-2.32.75-3.69 1.83-5.54s1.59-.31 1.2.79a16.6 16.6 0 0 1-1.38 2.65c.69 1.09 1.08 2.4 1.11 3.75v1.75l-2.8-.87Zm.44.07.01.02c-.05.26-.29.42-.55.37a.472.472 0 0 1-.36-.55l.03-.02.87.18Zm2.81.78.02.02c0 .26-.2.47-.47.47-.26 0-.46-.21-.46-.47l.02-.02h.89Z"/><path stroke="#263238" stroke-linecap="round" stroke-linejoin="round" stroke-width=".933" d="M324.86 125.9c.17-.83.18-1.7.04-2.53-.43-2.32.75-3.69 1.83-5.54s1.59-.31 1.2.79a16.6 16.6 0 0 1-1.38 2.65c.69 1.09 1.08 2.4 1.11 3.75v1.75"/><path fill="#263238" d="M311.2 111.4c1.77-.44 2.32-.97 2.32-.97-1.33-6.31 3.43-27.52-11.59-28.5-15.03-.98-6.62 29.08-6.62 29.08l1.63.24-.84-6.04 1.96 6.19c5.78.74 9.49.6 11.82.26-.31-2.73-.34-5.49-.09-8.22.29 2.69.76 5.35 1.41 7.96Z"/><path stroke="#263238" stroke-linecap="round" stroke-linejoin="round" stroke-width=".933" d="M301.92 82.31c-.58-.68-1.34-1.11-2.16-1.22-.82-.11-1.64.11-2.34.62"/><path fill="#FFF" d="M313.37 115.24v-.19c-.03.09-.06.15 0 .19Z"/><path stroke="#263238" stroke-linejoin="round" stroke-width=".933" d="M313.37 115.05c-.03.09-.06.15 0 .19v-.19Z"/><path fill="#FFF" d="m324.25 127.73-7.13 7.8.13-11.69c.02-1.76-.33-3.51-1.03-5.07-.71-1.56-1.73-2.88-2.98-3.85l.27 30.76c7 .52 13.24-15.66 13.24-15.66-.26-.57-.61-1.07-1.04-1.47-.43-.39-.93-.67-1.46-.82Z"/><path fill="#000" d="M316.02 141.91c-1.06.11-1.3-2.28-1.28-4.6-.3.88-.49 1.79-.59 2.72-.09 2.65-.09 5.27-.05 7.52 7.97-4.26 8.07-8.06 10.12-11.94-1.31 1.95-6.16 6.08-8.2 6.3Z" opacity=".1"/><path stroke="#263238" stroke-linejoin="round" stroke-width=".933" d="m317.12 135.53.13-11.69c.02-1.76-.33-3.51-1.03-5.07-.71-1.56-1.73-2.88-2.98-3.85l.27 30.76c7 .52 13.24-15.66 13.24-15.66-.26-.57-.61-1.07-1.04-1.47-.43-.39-.93-.67-1.46-.82l-7.13 7.8Z"/><path fill="#E8E8E8" d="m322.73 128.74 1.57-1.75 3.43 2.77-1 1.96-4-2.98Z"/><path stroke="#263238" stroke-linejoin="round" stroke-width=".933" d="m324.3 126.99 3.43 2.77-1 1.96-4-2.98 1.57-1.75Z"/><path fill="#FFF" d="M316.05 129.6c-2.87 15-1.45 24.85-1.45 24.85s-6.93 5.79-21.5.89c0 0 2.65-7.76 1.94-13.68-.44-3.64-3.34-16.73-3.34-16.73s-1.38-5.73-.74-10.35c1.21-.93 3.82-2.05 8.43-2.44.08-.31.13-.62.16-.93.15-1.53.18-3.07.1-4.6-.07-1.8-.2-3.23-.2-3.23h5.56s.08 1.65.25 3.6c.1 1.14.24 2.4.41 3.48.09.54.2 1.07.33 1.6 5.55.98 7.64 2.69 8.04 4.17 1.89 6.68 2.62 10.16 2.01 13.37Z"/><path stroke="#263238" stroke-linejoin="round" stroke-width=".933" d="M314.6 154.45s-6.93 5.79-21.5.89c0 0 2.65-7.76 1.94-13.68-.44-3.64-3.34-16.73-3.34-16.73s-1.38-5.73-.74-10.35c1.21-.93 3.82-2.05 8.43-2.44.08-.31.13-.62.16-.93.15-1.53.18-3.07.1-4.6-.07-1.8-.2-3.23-.2-3.23h5.56s.08 1.65.25 3.6c.1 1.14.24 2.4.41 3.48.09.54.2 1.07.33 1.6 5.55.98 7.64 2.69 8.04 4.17 1.89 6.68 2.62 10.16 2.01 13.37-2.87 15-1.45 24.85-1.45 24.85Z"/><path fill="#263238" d="M305.28 108.03c-.45 1.2-1.02 2.15-2.98 2.14-1.46 0-2.77-1.52-2.92-2.1.16-1.32 0-1.8-.06-3.29 1.87-.06 3.74.07 5.6.38.08.97.2 1.92.36 2.87Z"/><path fill="#FFF" d="M308.98 95.19v-1.44c-.42-2.33-2.86-2.45-3.99-2.44a7.64 7.64 0 0 1-3.47-.71c.36 1.01.96 1.89 1.73 2.53-4.19-1.1-4.52-3.7-4.36-5.11-1.48 6.13-3.42 6.39-3.42 6.39s0 .54.09 1.42c-.5.14-.94.48-1.24.97-.31.49-.45 1.09-.4 1.69-.01.65.2 1.28.58 1.74.38.47.9.75 1.45.77.11-.01.22-.02.33-.05.89 4.05 2.7 8.46 6.43 8.29 3.72-.18 5.24-4.75 5.84-8.88.11.02.22.02.33 0 .55-.06 1.06-.38 1.41-.89.35-.5.52-1.15.47-1.8 0-.6-.18-1.17-.5-1.63-.33-.45-.78-.76-1.28-.85Z"/><path stroke="#263238" stroke-linejoin="round" stroke-width=".933" d="M308.98 93.75c-.42-2.33-2.86-2.45-3.99-2.44a7.64 7.64 0 0 1-3.47-.71c.36 1.01.96 1.89 1.73 2.53-4.19-1.1-4.52-3.7-4.36-5.11-1.48 6.13-3.42 6.39-3.42 6.39s0 .54.09 1.42c-.5.14-.94.48-1.24.97-.31.49-.45 1.09-.4 1.69-.01.65.2 1.28.58 1.74.38.47.9.75 1.45.77.11-.01.22-.02.33-.05.89 4.05 2.7 8.46 6.43 8.29 3.72-.18 5.24-4.75 5.84-8.88.11.02.22.02.33 0 .55-.06 1.06-.38 1.41-.89.35-.5.52-1.15.47-1.8 0-.6-.18-1.17-.5-1.63-.33-.45-.78-.76-1.28-.85v-1.44Z"/><path stroke="#263238" stroke-linecap="round" stroke-linejoin="round" stroke-width=".933" d="m301.52 102.06.64.54c.08.07.18.11.28.11.1 0 .2-.04.28-.11l.59-.53M303.97 98.64s.79-1.24 2.37-.36M300.5 98.64s-.79-1.24-2.38-.36M304 104.23c-.45.42-.99.65-1.55.68-.56.03-1.12-.16-1.59-.53"/><path stroke="#FFF" stroke-linecap="round" stroke-linejoin="round" stroke-width=".933" d="M310.72 208.12c-.18.66-.39 1.3-.63 1.94M303.29 164.4l1.66 1.75c1.48 1.56 2.46 3.68 2.75 6 1.43 10.65 3.71 21.6 3.43 33.17"/><path stroke="#FFF" stroke-linecap="round" stroke-linejoin="round" stroke-width=".933" d="m309.57 164.71-2.63 4.43.33-.54"/><path stroke="#263238" stroke-linecap="round" stroke-linejoin="round" stroke-width=".933" d="M299.17 146.92h.75M293.71 134.35c.8 3.82 2.21 7.44 4.16 10.64"/><path fill="#FFF" d="m293.86 93.77-.57.03.08 2.37.57-.03-.08-2.37Z"/><path stroke="#263238" stroke-linejoin="round" stroke-width=".933" d="m293.86 93.77.08 2.37-.57.03-.08-2.37.57-.03Z"/><path fill="#FFF" d="m311.1 92.92-.56.02.08 2.37.56-.02-.08-2.37Z"/><path stroke="#263238" stroke-linejoin="round" stroke-width=".933" d="m311.1 92.92.08 2.37-.56.02-.08-2.37.56-.02Z"/><path fill="#E8E8E8" d="M301.84 83.02c-2.4.12-4.66 1.32-6.33 3.37-1.66 2.04-2.58 4.76-2.57 7.59 0 .05.01.1.03.15.02.05.04.1.07.13.04.04.08.07.12.08.04.02.09.03.13.03h.6c.08-.01.17-.05.23-.13.06-.07.09-.17.09-.27.01-2.43.82-4.76 2.25-6.5 1.43-1.74 3.38-2.77 5.44-2.87 2.05-.1 4.07.74 5.61 2.35 1.55 1.6 2.51 3.84 2.69 6.26 0 .1.04.2.11.27.06.07.15.1.24.1h.59c.05 0 .09-.02.13-.04.04-.02.08-.05.11-.09.03-.04.05-.09.07-.14.01-.05.02-.1.01-.15-.17-2.83-1.27-5.47-3.06-7.37-1.8-1.89-4.15-2.88-6.56-2.77Z"/><path stroke="#263238" stroke-linejoin="round" stroke-width=".933" d="M295.51 86.39c-1.66 2.04-2.58 4.76-2.57 7.59 0 .05.01.1.03.15.02.05.04.1.07.13.04.04.08.07.12.08.04.02.09.03.13.03h.6c.08-.01.17-.05.23-.13.06-.07.09-.17.09-.27.01-2.43.82-4.76 2.25-6.5 1.43-1.74 3.38-2.77 5.44-2.87 2.05-.1 4.07.74 5.61 2.35 1.55 1.6 2.51 3.84 2.69 6.26 0 .1.04.2.11.27.06.07.15.1.24.1h.59c.05 0 .09-.02.13-.04.04-.02.08-.05.11-.09.03-.04.05-.09.07-.14.01-.05.02-.1.01-.15-.17-2.83-1.27-5.47-3.06-7.37-1.8-1.89-4.15-2.88-6.56-2.77-2.4.12-4.66 1.32-6.33 3.37Z"/><path fill="#E8E8E8" d="M294.9 95.22h-.13c-.39.02-.76.13-1.11.32-.35.19-.66.46-.93.79-.52.67-.8 1.56-.77 2.48.04.91.37 1.77.94 2.39.57.62 1.33.95 2.11.91h.12l-.23-6.89Z"/><path stroke="#263238" stroke-linejoin="round" stroke-width=".933" d="M294.77 95.22c-.39.02-.76.13-1.11.32-.35.19-.66.46-.93.79-.52.67-.8 1.56-.77 2.48.04.91.37 1.77.94 2.39.57.62 1.33.95 2.11.91h.12l-.23-6.89h-.13Z"/><path fill="#FFF" d="M295.69 98.62c.09 2.56.24 4.2-.51 4.26-.75.05-1.06-1.62-1.15-4.2-.09-2.59.11-4.2.86-4.26.75-.06.71 1.65.8 4.2Z"/><path stroke="#263238" stroke-linejoin="round" stroke-width=".933" d="M295.18 102.88c-.75.05-1.06-1.62-1.15-4.2-.09-2.59.11-4.2.86-4.26.75-.06.71 1.65.8 4.2.09 2.56.24 4.2-.51 4.26Z"/><path fill="#E8E8E8" d="M309.62 94.53h.13c.39-.02.77.05 1.13.2.36.16.69.4.97.71.29.3.51.67.67 1.08.17.41.26.86.27 1.31.02.45-.04.9-.18 1.33-.13.42-.33.81-.59 1.15-.26.33-.58.6-.92.79-.35.19-.73.3-1.11.31h-.14l-.23-6.88Z"/><path stroke="#263238" stroke-linejoin="round" stroke-width=".933" d="M309.75 94.53c.39-.02.77.05 1.13.2.36.16.69.4.97.71.29.3.51.67.67 1.08.17.41.26.86.27 1.31.02.45-.04.9-.18 1.33-.13.42-.33.81-.59 1.15-.26.33-.58.6-.92.79-.35.19-.73.3-1.11.31h-.14l-.23-6.88h.13Z"/><path fill="#FFF" d="M309.04 97.99c.09 2.56.05 4.2.8 4.2s.95-1.71.86-4.26c-.09-2.56-.4-4.2-1.15-4.17-.74.03-.6 1.68-.51 4.23Z"/><path stroke="#263238" stroke-linejoin="round" stroke-width=".933" d="M309.84 102.19c.75 0 .95-1.71.86-4.26-.09-2.56-.4-4.2-1.15-4.17-.74.03-.6 1.68-.51 4.23.09 2.56.05 4.2.8 4.2Z"/><path stroke="#263238" stroke-linecap="round" stroke-linejoin="round" stroke-width=".933" d="M297.02 96.37s1.94-1.89 3.78-.18M307.67 96s-2.03-1.7-3.78.18"/><path fill="#E8E8E8" d="M298.66 111.3s1.16 3.43 5.47 4.2c0 0-1.72 4.2-4.08 2.55-2.81-1.97-3.35-6.05-3.35-6.05l1.96-.7Z"/><path stroke="#263238" stroke-linejoin="round" stroke-width=".933" d="M304.13 115.5s-1.72 4.2-4.08 2.55c-2.81-1.97-3.35-6.05-3.35-6.05l1.96-.7s1.16 3.43 5.47 4.2Z"/><path fill="#E8E8E8" d="M306.55 111.73c.02.91-.24 1.8-.73 2.51-.48.72-1.16 1.2-1.93 1.38 0 0 2.1 4.05 3.81 1.8 1.72-2.24.39-5.3.39-5.3l-1.54-.39Z"/><path stroke="#263238" stroke-linejoin="round" stroke-width=".933" d="M305.82 114.24c-.48.72-1.16 1.2-1.93 1.38 0 0 2.1 4.05 3.81 1.8 1.72-2.24.39-5.3.39-5.3l-1.54-.39c.02.91-.24 1.8-.73 2.51Z"/><path fill="#E8E8E8" d="M305.6 123.64c0 .12-.03.23-.09.33s-.14.18-.23.22c-.09.05-.19.06-.29.04a.495.495 0 0 1-.26-.17.633.633 0 0 1-.14-.31.66.66 0 0 1 .03-.34c.03-.11.1-.21.18-.27.09-.07.19-.1.29-.1.13 0 .26.06.36.17.09.12.15.27.15.43Z"/><path stroke="#263238" stroke-linejoin="round" stroke-width=".933" d="M305.51 123.97c-.06.1-.14.18-.23.22-.09.05-.19.06-.29.04a.495.495 0 0 1-.26-.17.633.633 0 0 1-.14-.31.66.66 0 0 1 .03-.34c.03-.11.1-.21.18-.27.09-.07.19-.1.29-.1.13 0 .26.06.36.17.09.12.15.27.15.43 0 .12-.03.23-.09.33Z"/><path fill="#E8E8E8" d="M306.29 135.45c0 .12-.03.24-.09.33-.05.1-.13.18-.23.22-.09.05-.19.06-.29.04a.477.477 0 0 1-.26-.16.677.677 0 0 1-.11-.66c.04-.11.1-.2.19-.27.08-.06.18-.1.28-.1.13 0 .26.06.36.18.09.11.15.26.15.42Z"/><path stroke="#263238" stroke-linejoin="round" stroke-width=".933" d="M306.2 135.78c-.05.1-.13.18-.23.22-.09.05-.19.06-.29.04a.477.477 0 0 1-.26-.16.677.677 0 0 1-.11-.66c.04-.11.1-.2.19-.27.08-.06.18-.1.28-.1.13 0 .26.06.36.18.09.11.15.26.15.42 0 .12-.03.24-.09.33Z"/><path fill="#E8E8E8" d="M306.94 147.55c0 .12-.03.23-.09.33a.47.47 0 0 1-.22.22c-.1.05-.2.06-.3.04a.495.495 0 0 1-.26-.17.633.633 0 0 1-.14-.31.66.66 0 0 1 .03-.34c.04-.11.1-.21.19-.27a.46.46 0 0 1 .64.07c.1.12.15.27.15.43Z"/><path stroke="#263238" stroke-linejoin="round" stroke-width=".933" d="M306.85 147.88a.47.47 0 0 1-.22.22c-.1.05-.2.06-.3.04a.495.495 0 0 1-.26-.17.633.633 0 0 1-.14-.31.66.66 0 0 1 .03-.34c.04-.11.1-.21.19-.27a.46.46 0 0 1 .64.07c.1.12.15.27.15.43 0 .12-.03.23-.09.33Z"/><path fill="#FFF" fill-rule="evenodd" d="M248.62 67.11h103.2c.48 0 .87.45.87 1.01v2.19c0 .57-.39 1.02-.87 1.02h-103.2c-.48 0-.86-.45-.86-1.02v-2.19c0-.56.38-1.01.86-1.01Z"/><path stroke="#263238" stroke-linecap="round" stroke-linejoin="round" stroke-width=".933" d="M248.79 71.34h102.86M248.79 67.1h102.86"/><path fill="#FFF" d="M280.81 95.57s-4.25-.7-4.48.64c-.23 1.35-.1 3.5.63 4.2 1.39 1.33 1.13 3.82 1.13 3.82l3.57-.4.09-2.1c.18-.69.51-1.31.95-1.8 1.28-1.43.77-3 .56-4.91-.22-1.9-1.29-1.05-1.37-.07-.03.88.03 1.76.18 2.62l-1.26-2Z"/><path stroke="#263238" stroke-linejoin="round" stroke-width=".933" d="M276.33 96.21c-.23 1.35-.1 3.5.63 4.2 1.39 1.33 1.13 3.82 1.13 3.82l3.57-.4.09-2.1c.18-.69.51-1.31.95-1.8 1.28-1.43.77-3 .56-4.91-.22-1.9-1.29-1.05-1.37-.07-.03.88.03 1.76.18 2.62l-1.26-2s-4.25-.7-4.48.64Z"/><path fill="#FFF" d="M281.81 97.42s-1.02.24-1.82 1.94l1.82-1.94Zm-.12-.43.01-.03c.25-.06.5.09.56.35.06.25-.09.5-.34.56l-.03-.01-.2-.87Zm-1.29 2.54.01.03c-.12.24-.39.33-.62.22a.46.46 0 0 1-.23-.62l.03-.01.81.38Z"/><path stroke="#263238" stroke-linecap="round" stroke-linejoin="round" stroke-width=".933" d="M281.81 97.42s-1.02.24-1.82 1.94"/><path fill="#263238" d="M281.81 97.86h-5.15c-.36.01-.72-.07-1.04-.26-.32-.18-.6-.45-.82-.78-.18-.31-.28-.67-.28-1.05 0-.37.1-.74.28-1.04l2.58-4.46c.22-.33.5-.6.83-.78a2.057 2.057 0 0 1 2.07 0c.32.18.6.45.83.78l2.58 4.46c.18.3.28.67.28 1.04 0 .38-.1.74-.28 1.05-.22.34-.5.61-.83.79-.33.18-.69.27-1.05.25Zm-6.11-2.64c-.1.16-.15.35-.15.55 0 .19.05.38.15.54.11.18.26.32.42.41.17.09.35.14.54.13h5.15c.19.01.37-.04.54-.13.16-.09.31-.23.42-.41.1-.16.15-.35.15-.54 0-.2-.05-.39-.15-.55l-2.57-4.45c-.12-.18-.26-.32-.43-.42-.17-.09-.36-.14-.55-.13a.961.961 0 0 0-.54.13c-.17.1-.31.24-.43.42l-2.58 4.46.03-.01Z"/><path fill="#FFF" d="M277.69 95.63c.26 1.58.1 2.15-.51 2.06-.61-.08-1.23-2.02-.38-2.47.84-.44 1.52-.79 1.52-.79.28-.17.58-.26.89-.27.3-.02.61.06.89.21 1.21-.5 1.42.54 1.42.54s.88 3 .15 3.1c-.73.1-1.33-2.5-1.33-2.5s.91 2.86.08 2.9c-.84.05-1.32-2.77-1.32-2.77s.54 2.48-.25 2.56c-.78.09-1.16-2.57-1.16-2.57Z"/><path stroke="#263238" stroke-linejoin="round" stroke-width=".933" d="M277.18 97.69c-.61-.08-1.23-2.02-.38-2.47.84-.44 1.52-.79 1.52-.79.28-.17.58-.26.89-.27.3-.02.61.06.89.21 1.21-.5 1.42.54 1.42.54s.88 3 .15 3.1c-.73.1-1.33-2.5-1.33-2.5s.91 2.86.08 2.9c-.84.05-1.32-2.77-1.32-2.77s.54 2.48-.25 2.56c-.78.09-1.16-2.57-1.16-2.57.26 1.58.1 2.15-.51 2.06Z"/><path fill="#FFF" d="M279.61 70.2h-.83v19.7h.83V70.2Z"/><path stroke="#263238" stroke-linejoin="round" stroke-width=".933" d="M279.61 70.2v19.7h-.83V70.2h.83Z"/><path fill="#FFF" d="m280.08 89.59-.55.95c-.03.05-.08.09-.13.12s-.11.05-.17.05c-.06 0-.11-.02-.16-.05a.407.407 0 0 1-.14-.12l-.54-.95c-.13-.22.04-.49.3-.49h1.09c.26 0 .42.3.3.49Z"/><path stroke="#263238" stroke-linejoin="round" stroke-width=".933" d="M279.53 90.54c-.03.05-.08.09-.13.12s-.11.05-.17.05c-.06 0-.11-.02-.16-.05a.407.407 0 0 1-.14-.12l-.54-.95c-.13-.22.04-.49.3-.49h1.09c.26 0 .42.3.3.49l-.55.95Z"/><path fill="#FFF" d="M279.68 82.98h-.89c-.25 0-.44.23-.44.52v4.37c0 .29.19.52.44.52h.89c.25 0 .44-.23.44-.52V83.5c0-.29-.19-.52-.44-.52Z"/><path stroke="#263238" stroke-linejoin="round" stroke-width=".933" d="M279.68 82.98c.25 0 .44.23.44.52v4.37c0 .29-.19.52-.44.52h-.89c-.25 0-.44-.23-.44-.52V83.5c0-.29.19-.52.44-.52h.89Z"/><path fill="#FFF" d="M279.68 66.43h-.89c-.25 0-.44.23-.44.52v4.37c0 .29.19.52.44.52h.89c.25 0 .44-.23.44-.52v-4.37c0-.29-.19-.52-.44-.52Z"/><path stroke="#263238" stroke-linejoin="round" stroke-width=".933" d="M279.68 66.43c.25 0 .44.23.44.52v4.37c0 .29-.19.52-.44.52h-.89c-.25 0-.44-.23-.44-.52v-4.37c0-.29.19-.52.44-.52h.89Z"/><path fill="#263238" d="M269.69 97.86h-5.15c-.36.01-.71-.07-1.04-.26-.32-.18-.6-.45-.82-.78-.18-.31-.28-.67-.28-1.05 0-.37.1-.74.28-1.04l2.58-4.46c.22-.33.51-.6.83-.78.32-.19.68-.28 1.04-.28s.71.09 1.03.28c.33.18.61.45.83.78l2.58 4.46c.19.3.28.67.28 1.04 0 .38-.09.74-.28 1.05-.22.34-.5.61-.83.79-.33.18-.69.27-1.05.25Zm-6.11-2.64c-.1.16-.15.35-.15.55 0 .19.05.38.15.54.11.18.26.32.43.41.16.09.35.14.53.13h5.16c.18.01.37-.04.54-.13.16-.09.31-.23.43-.41a1.124 1.124 0 0 0 0-1.09l-2.58-4.45c-.11-.18-.26-.32-.43-.42-.17-.09-.36-.14-.54-.13a.974.974 0 0 0-.55.13c-.17.1-.31.24-.42.42l-2.58 4.46.01-.01Z"/><path fill="#FFF" d="M267.5 70.2h-.84v19.7h.84V70.2Z"/><path stroke="#263238" stroke-linejoin="round" stroke-width=".933" d="M267.5 70.2v19.7h-.84V70.2h.84Z"/><path fill="#FFF" d="m267.96 89.59-.56.95c-.04.05-.09.09-.14.12-.05.03-.11.05-.16.05-.06 0-.12-.02-.17-.05a.526.526 0 0 1-.14-.12l-.54-.95c-.13-.22.04-.49.3-.49h1.09c.26 0 .45.3.32.49Z"/><path stroke="#263238" stroke-linejoin="round" stroke-width=".933" d="M267.4 90.54c-.04.05-.09.09-.14.12-.05.03-.11.05-.16.05-.06 0-.12-.02-.17-.05a.526.526 0 0 1-.14-.12l-.54-.95c-.13-.22.04-.49.3-.49h1.09c.26 0 .45.3.32.49l-.56.95Z"/><path fill="#FFF" d="M267.56 82.98h-.89c-.24 0-.44.23-.44.52v4.37c0 .29.2.52.44.52h.89c.25 0 .45-.23.45-.52V83.5c0-.29-.2-.52-.45-.52Z"/><path stroke="#263238" stroke-linejoin="round" stroke-width=".933" d="M267.56 82.98c.25 0 .45.23.45.52v4.37c0 .29-.2.52-.45.52h-.89c-.24 0-.44-.23-.44-.52V83.5c0-.29.2-.52.44-.52h.89Z"/><path fill="#FFF" d="M267.56 66.43h-.89c-.24 0-.44.23-.44.52v4.37c0 .29.2.52.44.52h.89c.25 0 .45-.23.45-.52v-4.37c0-.29-.2-.52-.45-.52Z"/><path stroke="#263238" stroke-linejoin="round" stroke-width=".933" d="M267.56 66.43c.25 0 .45.23.45.52v4.37c0 .29-.2.52-.45.52h-.89c-.24 0-.44-.23-.44-.52v-4.37c0-.29.2-.52.44-.52h.89Z"/><path fill="#263238" d="M322.2 97.86h-5.15c-.36.01-.71-.07-1.04-.25-.32-.19-.6-.46-.81-.79-.19-.31-.29-.67-.29-1.05 0-.37.1-.74.29-1.04l2.57-4.46c.23-.33.51-.6.83-.78a2.057 2.057 0 0 1 2.07 0c.33.18.61.45.83.78l2.58 4.46c.18.3.28.67.28 1.04 0 .38-.1.74-.28 1.05-.22.34-.5.61-.83.79-.33.18-.68.27-1.05.25Zm-6.11-2.64c-.09.16-.15.35-.15.55 0 .19.06.38.15.54.11.18.26.32.43.41.17.09.35.14.54.13h5.15c.19.01.37-.04.54-.13.16-.09.31-.23.42-.41.1-.16.15-.35.15-.54 0-.2-.05-.39-.15-.55l-2.57-4.45a1.43 1.43 0 0 0-.44-.41c-.17-.09-.35-.14-.54-.14-.18 0-.37.05-.54.14-.17.1-.31.24-.43.41l-2.58 4.46.02-.01Z"/><path fill="#FFF" d="M320 70.2h-.83v19.7h.83V70.2Z"/><path stroke="#263238" stroke-linejoin="round" stroke-width=".933" d="M320 70.2v19.7h-.83V70.2h.83Z"/><path fill="#FFF" d="m320.47 89.59-.54.95c-.04.05-.08.09-.14.12-.05.03-.1.05-.16.05s-.12-.02-.17-.05a.374.374 0 0 1-.13-.12l-.54-.95c-.13-.22.03-.49.29-.49h1.09c.26 0 .43.3.3.49Z"/><path stroke="#263238" stroke-linejoin="round" stroke-width=".933" d="M319.93 90.54c-.04.05-.08.09-.14.12-.05.03-.1.05-.16.05s-.12-.02-.17-.05a.374.374 0 0 1-.13-.12l-.54-.95c-.13-.22.03-.49.29-.49h1.09c.26 0 .43.3.3.49l-.54.95Z"/><path fill="#FFF" d="M320.08 82.98h-.9c-.24 0-.44.23-.44.52v4.37c0 .29.2.52.44.52h.9c.24 0 .44-.23.44-.52V83.5c0-.29-.2-.52-.44-.52Z"/><path stroke="#263238" stroke-linejoin="round" stroke-width=".933" d="M320.08 82.98c.24 0 .44.23.44.52v4.37c0 .29-.2.52-.44.52h-.9c-.24 0-.44-.23-.44-.52V83.5c0-.29.2-.52.44-.52h.9Z"/><path fill="#FFF" d="M320.08 66.43h-.9c-.24 0-.44.23-.44.52v4.37c0 .29.2.52.44.52h.9c.24 0 .44-.23.44-.52v-4.37c0-.29-.2-.52-.44-.52Z"/><path stroke="#263238" stroke-linejoin="round" stroke-width=".933" d="M320.08 66.43c.24 0 .44.23.44.52v4.37c0 .29-.2.52-.44.52h-.9c-.24 0-.44-.23-.44-.52v-4.37c0-.29.2-.52.44-.52h.9Z"/><path fill="#263238" d="M333.75 97.86h-5.15c-.36.01-.71-.07-1.04-.26-.32-.18-.6-.45-.82-.78-.18-.31-.28-.67-.28-1.05 0-.37.1-.74.28-1.04l2.58-4.46c.22-.33.51-.6.83-.78.32-.19.68-.28 1.04-.28s.71.09 1.03.28c.33.18.61.45.83.78l2.58 4.46c.19.3.28.67.28 1.04 0 .38-.09.74-.28 1.05-.22.34-.5.61-.83.79-.33.18-.69.27-1.05.25Zm-6.11-2.64c-.1.16-.15.35-.15.55 0 .19.05.38.15.54.11.18.26.32.43.41.16.09.35.14.53.13h5.16c.18.01.37-.04.54-.13.16-.09.31-.23.42-.41.1-.16.15-.35.15-.54 0-.2-.05-.39-.15-.55l-2.57-4.45c-.11-.18-.26-.32-.43-.42-.17-.09-.36-.14-.55-.13a.961.961 0 0 0-.54.13c-.17.1-.31.24-.42.42l-2.59 4.46.02-.01Z"/><path fill="#FFF" d="M331.56 70.2h-.84v19.7h.84V70.2Z"/><path stroke="#263238" stroke-linejoin="round" stroke-width=".933" d="M331.56 70.2v19.7h-.84V70.2h.84Z"/><path fill="#FFF" d="m332.02 89.59-.55.95c-.03.05-.08.09-.13.12s-.11.05-.17.05c-.05 0-.11-.02-.16-.05a.407.407 0 0 1-.14-.12l-.54-.95c-.13-.22.04-.49.3-.49h1.09c.26 0 .43.3.3.49Z"/><path stroke="#263238" stroke-linejoin="round" stroke-width=".933" d="M331.47 90.54c-.03.05-.08.09-.13.12s-.11.05-.17.05c-.05 0-.11-.02-.16-.05a.407.407 0 0 1-.14-.12l-.54-.95c-.13-.22.04-.49.3-.49h1.09c.26 0 .43.3.3.49l-.55.95Z"/><path fill="#FFF" d="M331.62 82.98h-.89c-.24 0-.44.23-.44.52v4.37c0 .29.2.52.44.52h.89c.25 0 .45-.23.45-.52V83.5c0-.29-.2-.52-.45-.52Z"/><path stroke="#263238" stroke-linejoin="round" stroke-width=".933" d="M331.62 82.98c.25 0 .45.23.45.52v4.37c0 .29-.2.52-.45.52h-.89c-.24 0-.44-.23-.44-.52V83.5c0-.29.2-.52.44-.52h.89Z"/><path fill="#FFF" d="M331.62 66.43h-.89c-.24 0-.44.23-.44.52v4.37c0 .29.2.52.44.52h.89c.25 0 .45-.23.45-.52v-4.37c0-.29-.2-.52-.45-.52Z"/><path stroke="#263238" stroke-linejoin="round" stroke-width=".933" d="M331.62 66.43c.25 0 .45.23.45.52v4.37c0 .29-.2.52-.45.52h-.89c-.24 0-.44-.23-.44-.52v-4.37c0-.29.2-.52.44-.52h.89Z"/><path fill="#E8E8E8" d="m282.21 102.88.27 2.56-5.54.31.46-2.57 4.81-.3Z"/><path stroke="#263238" stroke-linejoin="round" stroke-width=".933" d="m282.48 105.44-5.54.31.46-2.57 4.81-.3.27 2.56Z"/><path fill="#FFF" d="M291.6 124.41s-9.62 10.42-11.84 10.59c-.54.04-1.02.44-1.47.07-1.02-.81-2.5-2.54-2.28-9.56.11-3.84 2.08-19.84 2.08-19.84l3.57-.19.86 18c3.06-3.73 8.37-8.9 8.38-8.9 1.66 6.25.7 9.83.7 9.83Z"/><path stroke="#263238" stroke-linejoin="round" stroke-width=".933" d="M279.76 135c-.54.04-1.02.44-1.47.07-1.02-.81-2.5-2.54-2.28-9.56.11-3.84 2.08-19.84 2.08-19.84l3.57-.19.86 18c3.06-3.73 8.37-8.9 8.38-8.9 1.66 6.25.7 9.83.7 9.83s-9.62 10.42-11.84 10.59Z"/><path fill="#FFF" d="M315.87 138.9c.24-1.24.69-2.42 1.34-3.44l-1.34 3.44Zm.44.07.02.02c-.05.26-.29.42-.55.37a.461.461 0 0 1-.37-.55l.02-.01.88.17Zm.51-3.73-.01-.03a.467.467 0 1 1 .79.5h-.03l-.75-.47Z"/><path stroke="#263238" stroke-linecap="round" stroke-linejoin="round" stroke-width=".933" d="M315.87 138.9c.24-1.24.69-2.42 1.34-3.44M281.43 127.72c.37-.2 1.26-2.15 1.08-5.48"/><path fill="#FFF" d="M284.85 84.97V77.8c0-.34.12-.68.33-.92.21-.25.49-.38.78-.38h9.56c.29 0 .57.13.78.38.21.24.32.58.33.92v7.17c0 .35-.12.68-.33.93-.21.24-.49.38-.78.38h-3.33l.26 2.73h-1.71v2.58l-2.04-4.2h1.67l-.18-1.1h-4.23c-.15 0-.29-.04-.43-.1-.13-.07-.26-.17-.36-.29-.1-.12-.18-.27-.24-.43-.05-.15-.08-.33-.08-.5Z"/><path stroke="#263238" stroke-linejoin="round" stroke-width=".933" d="M284.85 77.8c0-.34.12-.68.33-.92.21-.25.49-.38.78-.38h9.56c.29 0 .57.13.78.38.21.24.32.58.33.92v7.17c0 .35-.12.68-.33.93-.21.24-.49.38-.78.38h-3.33l.26 2.73h-1.71v2.58l-2.04-4.2h1.67l-.18-1.1h-4.23c-.15 0-.29-.04-.43-.1-.13-.07-.26-.17-.36-.29-.1-.12-.18-.27-.24-.43-.05-.15-.08-.33-.08-.5V77.8Z"/><path stroke="#263238" stroke-linecap="round" stroke-linejoin="round" stroke-width=".933" d="M286.67 78.95h6.46M286.67 80.98h8.13M286.67 83.01h6.88"/><path fill="#E8E8E8" fill-rule="evenodd" d="M96.12 258.31c0 2.28-10.65 4.13-23.78 4.13s-23.78-1.85-23.78-4.13c0-2.27 10.65-4.12 23.78-4.12s23.78 1.85 23.78 4.12ZM111.67 143.84c0 26.94-18.54 48.79-41.41 48.79-22.87 0-41.42-21.85-41.42-48.79 0-26.94 18.55-48.79 41.42-48.79s41.41 21.85 41.41 48.79Z"/><path fill="#FFF" d="M51.16 175.74s1.05 7.2-2.51 15.3h44.52s-2.04-3.78-4.17-15.3H51.16Z"/><path stroke="#263238" stroke-linejoin="round" stroke-width=".874" d="M48.65 191.04h44.52s-2.04-3.78-4.17-15.3H51.16s1.05 7.2-2.51 15.3Z"/><path fill="#263238" d="M61.31 177.4c-2.44.23-4.77 1.25-6.75 2.95-1.98 1.69-3.52 3.99-4.46 6.65-.48 1.37-.98 2.76-1.45 4.05-2.71 7.39-.15 18.14 6.78 18.14h31.76c6.28 0 8-9.37 6.5-16.43-.97-4.53-2.92-9.09-6.25-12.28-4.45-4.29-17.46-3.89-26.13-3.08Z"/><path stroke="#263238" stroke-linejoin="round" stroke-width=".874" d="M54.56 180.35c-1.98 1.69-3.52 3.99-4.46 6.65-.48 1.37-.98 2.76-1.45 4.05-2.71 7.39-.15 18.14 6.78 18.14h31.76c6.28 0 8-9.37 6.5-16.43-.97-4.53-2.92-9.09-6.25-12.28-4.45-4.29-17.46-3.89-26.13-3.08-2.44.23-4.77 1.25-6.75 2.95Z"/><path fill="#FFF" d="M30.98 169.48s-5.69 4.05-5.88 6.26h6.98l2.78-2.34-.94 2.35h2.13s2.25-2.06 2.37-4.35l-.23-1.92-4.07-2.14-3.14 2.14Z"/><path stroke="#263238" stroke-linejoin="round" stroke-width=".874" d="M25.1 175.74h6.98l2.78-2.34-.94 2.35h2.13s2.25-2.06 2.37-4.35l-.23-1.92-4.07-2.14-3.14 2.14s-5.69 4.05-5.88 6.26Z"/><path fill="#FFF" d="M97.68 154.58s-.91-7.06-2.91-17.23c-2-10.17-5.91-10.97-5.91-10.97h-.04c-5.09-2.58-18.33-3.97-18.33-3.97h-.61s-13.28 1.39-18.34 3.97h-.04s-3.94.82-5.94 10.97c-2.01 10.15-2.92 17.23-2.92 17.23s-3.62 1.15-10.13 10.8a26.51 26.51 0 0 0-2.59 4.96s5-1.94 8.5 1.03c0 0 11.48-5.74 12.06-11.79 0-.21.05-.45.07-.71.33 9.18.61 16.85.61 16.85h38s.29-7.67.62-16.85c0 .26.04.5.06.71.58 6.05 13.29 12.83 13.29 12.83 3.48-6.31 8.54-2.82 8.54-2.82l-13.99-15.01Z"/><path fill="#000" d="M50.48 159.6c0-.18.04-.39.06-.6l-.83-21.25s-2.29.55-1.63 7.07c.65 6.53 2.03 5.4 1.26 7.92-.76 2.51-3.75-.37-4.74 1.8-.99 2.16 5.52 1.7 2.83 7.28-2.68 5.58-9.01 9.6-9.01 9.6s11.49-5.76 12.06-11.82ZM90.02 159.6l.45-18.19s-.11 8.8.69 11.33c.8 2.53 3.75-.37 4.74 1.8.98 2.16-5.52 1.7-2.83 7.28 2.7 5.58 9.01 9.6 9.01 9.6s-11.48-5.76-12.06-11.82ZM89.44 163.74c-.25 6.88-.44 12-.44 12H54.83c22.92 0 34.63-12 34.63-12h-.02Z" opacity=".3"/><path stroke="#263238" stroke-linejoin="round" stroke-width=".874" d="M94.77 137.35c-2-10.17-5.91-10.97-5.91-10.97h-.04c-5.09-2.58-18.33-3.97-18.33-3.97h-.61s-13.28 1.39-18.34 3.97h-.04s-3.94.82-5.94 10.97c-2.01 10.15-2.92 17.23-2.92 17.23s-3.62 1.15-10.13 10.8a26.51 26.51 0 0 0-2.59 4.96s5-1.94 8.5 1.03c0 0 11.48-5.74 12.06-11.79 0-.21.05-.45.07-.71.33 9.18.61 16.85.61 16.85h38s.29-7.67.62-16.85c0 .26.04.5.06.71.58 6.05 13.29 12.83 13.29 12.83 3.48-6.31 8.54-2.82 8.54-2.82l-13.99-15.01s-.91-7.06-2.91-17.23Z"/><path stroke="#263238" stroke-linecap="round" stroke-linejoin="round" stroke-width=".874" d="M43.85 154.54c1.84-.11 3.63.63 5.01 2.06M47.43 138.39s2.36.6 2.9 14.07l-.71-17.69M50.36 154.33h.11M96.47 154.54c-1.83-.12-3.62.61-5 2.03M90.56 138.39l.15-3.61"/><path fill="#FFF" d="M77.3 123.38c-.62 3.64-3.6 4.95-7.2 4.95s-6.57-1.31-7.2-4.93h.15c.37-.06.72-.25.99-.55.28-.3.48-.69.56-1.12.05-.17.08-.35.08-.53v-4.27h11v4.27c0 .26.04.53.12.78.12.37.32.69.59.94.26.25.57.41.91.46Z"/><path fill="#263238" d="M75.59 120.12c-1.82 2.11-3.86 3.43-5.82 3.53-2.03.11-4.4-1.86-5.36-3.79.04-.17.06-.34.06-.52v-1.31l11 .14v1.17c0 .28.28.6.12.78Z"/><path stroke="#263238" stroke-linejoin="round" stroke-width=".874" d="M70.1 128.33c-3.6 0-6.57-1.31-7.2-4.93h.15c.37-.06.72-.25.99-.55.28-.3.48-.69.56-1.12.05-.17.08-.35.08-.53v-4.27h11v4.27c0 .26.04.53.12.78.12.37.32.69.59.94.26.25.57.41.91.46-.62 3.64-3.6 4.95-7.2 4.95Z"/><path fill="#263238" d="M62.06 107.77s-3.81-5.08-3.31-12.09c.5-7 5.38-7 5.38-7s5.88-6.11 12.44-2.28c6.57 3.82 6.12 17.1 1.26 20.4l-15.77.97Z"/><path fill="#FFF" d="M78.88 104.35c.05-1.17.05-1.89.05-1.89-.44-3.09-3.66-3.4-5.13-3.46-6.19-.24-7.82-4.71-7.82-4.71-3.75-1.33-4.82 8.17-4.82 8.17s0 .72.05 1.89c-.66.15-1.26.57-1.68 1.2-.41.62-.63 1.4-.6 2.19 0 1.9 1.16 3.43 2.6 3.43.14 0 .29-.02.43-.05l.67 4.47c.13 1 .93 3.37 1.65 3.93 1.53 1.2 3.95 2.91 5.76 2.91 1.57 0 3.77-1.52 5.4-2.56.9-.6 1.9-2.9 1.99-4.1l.42-4.52c.24-.01.48-.04.71-.08 1.44 0 2.6-1.53 2.6-3.43.03-.79-.18-1.57-.6-2.19-.42-.63-1.02-1.05-1.68-1.2Z"/><path stroke="#263238" stroke-linejoin="round" stroke-width=".874" d="M78.93 102.46c-.44-3.09-3.66-3.4-5.13-3.46-6.19-.24-7.82-4.71-7.82-4.71-3.75-1.33-4.82 8.17-4.82 8.17s0 .72.05 1.89c-.66.15-1.26.57-1.68 1.2-.41.62-.63 1.4-.6 2.19 0 1.9 1.16 3.43 2.6 3.43.14 0 .29-.02.43-.05l.67 4.47c.13 1 .93 3.37 1.65 3.93 1.53 1.2 3.95 2.91 5.76 2.91 1.57 0 3.77-1.52 5.4-2.56.9-.6 1.9-2.9 1.99-4.1l.42-4.52c.24-.01.48-.04.71-.08 1.44 0 2.6-1.53 2.6-3.43.03-.79-.18-1.57-.6-2.19-.42-.63-1.02-1.05-1.68-1.2.05-1.17.05-1.89.05-1.89Z"/><path fill="#FFF" d="M59.93 101.47h-.67v2.82h.67v-2.82Z"/><path stroke="#263238" stroke-linejoin="round" stroke-width=".874" d="M59.93 101.47v2.82h-.67v-2.82h.67Z"/><path fill="#FFF" d="M80.47 101.47h-.67v2.82h.67v-2.82Z"/><path stroke="#263238" stroke-linejoin="round" stroke-width=".874" d="M80.47 101.47v2.82h-.67v-2.82h.67Z"/><path fill="#FFF" d="M69.86 89.15c-2.86 0-5.61 1.3-7.67 3.64-2.05 2.34-3.26 5.53-3.37 8.89a.53.53 0 0 0 .11.34c.04.05.09.08.13.11.05.02.11.03.16.03h.71c.11 0 .21-.04.28-.13.08-.08.12-.2.12-.32.11-2.89 1.17-5.62 2.94-7.61 1.78-2 4.14-3.11 6.59-3.11s4.81 1.11 6.59 3.11c1.77 1.99 2.83 4.72 2.94 7.61 0 .12.05.24.12.32.08.09.18.13.28.13h.71c.05 0 .11-.01.16-.03.05-.03.09-.06.13-.11.04-.04.07-.09.08-.15.02-.06.03-.12.03-.19-.1-3.36-1.31-6.55-3.37-8.89-2.06-2.34-4.81-3.64-7.67-3.64Z"/><path stroke="#263238" stroke-linejoin="round" stroke-width=".874" d="M62.19 92.79c-2.05 2.34-3.26 5.53-3.37 8.89a.53.53 0 0 0 .11.34c.04.05.09.08.13.11.05.02.11.03.16.03h.71c.11 0 .21-.04.28-.13.08-.08.12-.2.12-.32.11-2.89 1.17-5.62 2.94-7.61 1.78-2 4.14-3.11 6.59-3.11s4.81 1.11 6.59 3.11c1.77 1.99 2.83 4.72 2.94 7.61 0 .12.05.24.12.32.08.09.18.13.28.13h.71c.05 0 .11-.01.16-.03.05-.03.09-.06.13-.11.04-.04.07-.09.08-.15.02-.06.03-.12.03-.19-.1-3.36-1.31-6.55-3.37-8.89-2.06-2.34-4.81-3.64-7.67-3.64-2.86 0-5.61 1.3-7.67 3.64Z"/><path fill="#263238" d="M61.07 103.27h-.15c-.9.04-1.75.49-2.38 1.26-.62.77-.97 1.79-.97 2.85s.35 2.08.97 2.85c.63.77 1.48 1.22 2.38 1.26h.15v-8.22Z"/><path stroke="#263238" stroke-width=".874" d="M60.92 103.27c-.9.04-1.75.49-2.38 1.26-.62.77-.97 1.79-.97 2.85s.35 2.08.97 2.85c.63.77 1.48 1.22 2.38 1.26h.15v-8.22h-.15Z"/><path fill="#FFF" d="M61.9 107.4c0 3.04.12 5.02-.78 5.02-.89 0-1.19-1.98-1.19-5.02 0-3.05.3-5.03 1.19-5.03.9 0 .78 1.95.78 5.03Z"/><path stroke="#263238" stroke-linejoin="round" stroke-width=".874" d="M61.12 112.42c-.89 0-1.19-1.98-1.19-5.02 0-3.05.3-5.03 1.19-5.03.9 0 .78 1.95.78 5.03 0 3.04.12 5.02-.78 5.02Z"/><path fill="#263238" d="M78.65 103.27h.15c.91.04 1.76.49 2.38 1.26.63.77.98 1.79.98 2.85s-.35 2.08-.98 2.85c-.62.77-1.47 1.22-2.38 1.26h-.15v-8.22Z"/><path stroke="#263238" stroke-width=".874" d="M78.8 103.27c.91.04 1.76.49 2.38 1.26.63.77.98 1.79.98 2.85s-.35 2.08-.98 2.85c-.62.77-1.47 1.22-2.38 1.26h-.15v-8.22h.15Z"/><path fill="#FFF" d="M77.82 107.4c0 3.04-.11 5.02.78 5.02s1.2-1.98 1.2-5.02c0-3.05-.31-5.03-1.2-5.03-.89 0-.78 1.95-.78 5.03Z"/><path stroke="#263238" stroke-linejoin="round" stroke-width=".874" d="M78.6 112.42c.89 0 1.2-1.98 1.2-5.02 0-3.05-.31-5.03-1.2-5.03-.89 0-.78 1.95-.78 5.03 0 3.04-.11 5.02.78 5.02Z"/><path stroke="#263238" stroke-linecap="round" stroke-linejoin="round" stroke-width=".874" d="M63.9 108.13s1.45 2.11 4.17.45"/><path stroke="#263238" stroke-linecap="round" stroke-linejoin="round" stroke-width=".75" d="M68.07 116.32c.6.52 1.33.79 2.07.79.74 0 1.46-.27 2.06-.79"/><path stroke="#263238" stroke-linecap="round" stroke-linejoin="round" stroke-width=".874" d="M63.5 105.31s2.63-2.37 4.97 0M76.43 105.39s-2.63-2.4-4.98 0"/><path stroke="#263238" stroke-linecap="round" stroke-linejoin="round" stroke-width=".75" d="M72.05 113.01s.23 1.54-2.15 1.5c-.59 0-1.65-.49-1.69-1.5"/><path fill="#263238" d="M64.47 108.69c.22.51.71 1.1 1.82 1.13 1.1.03 1.3-.49 1.32-.99-.49.28-1.04.42-1.58.39-.55-.02-1.09-.2-1.56-.53Z"/><path stroke="#263238" stroke-linecap="round" stroke-linejoin="round" stroke-width=".874" d="M76.05 108.13s-1.45 2.11-4.17.45"/><path fill="#263238" d="M75.48 108.69c-.22.51-.72 1.1-1.82 1.13-1.11.03-1.3-.49-1.32-.99a2.922 2.922 0 0 0 3.14-.14Z"/><path stroke="#263238" stroke-linecap="round" stroke-linejoin="round" stroke-width=".874" d="M65.38 85.76s-1.34.88-1.19 3.39c0 0-.47-1.69-2.19-.95"/><path fill="#263238" d="M70.16 130.2c1.76 0 3.47-.64 4.9-1.84 1.44-1.19 2.53-2.87 3.12-4.82-.47-.08-.92-.15-1.37-.23-.7 1.34-1.67 2.45-2.84 3.22-1.16.76-2.47 1.17-3.81 1.17-1.33 0-2.64-.41-3.81-1.17-1.16-.77-2.14-1.88-2.84-3.22-.44.08-.9.15-1.36.23.59 1.95 1.68 3.63 3.11 4.82 1.43 1.19 3.15 1.83 4.9 1.84Z"/><path stroke="#263238" stroke-linejoin="round" stroke-width=".874" d="M75.06 128.36c1.44-1.19 2.53-2.87 3.12-4.82-.47-.08-.92-.15-1.37-.23-.7 1.34-1.67 2.45-2.84 3.22-1.16.76-2.47 1.17-3.81 1.17-1.33 0-2.64-.41-3.81-1.17-1.16-.77-2.14-1.88-2.84-3.22-.44.08-.9.15-1.36.23.59 1.95 1.68 3.63 3.11 4.82 1.43 1.19 3.15 1.83 4.9 1.84 1.76 0 3.47-.64 4.9-1.84Z"/><path stroke="#263238" stroke-linecap="round" stroke-linejoin="round" stroke-width=".874" d="M89.77 158.89c.23-5.84.45-11.69.68-17.55"/><path fill="#000" d="M50.72 163.74Z" opacity=".3"/><path fill="#FFF" d="M89.94 99.12v-6.46c0-.32-.1-.62-.3-.85a.96.96 0 0 0-.72-.35h-8.58a.96.96 0 0 0-.72.35c-.19.23-.3.53-.3.85v6.46c0 .32.11.62.3.85.19.23.45.35.72.35h2.99l-.24 2.46h1.53v2.32l1.83-3.78h-1.5l.15-1h3.82c.13 0 .27-.03.39-.09s.24-.15.33-.26c.1-.11.17-.24.23-.39.05-.14.07-.3.07-.46Z"/><path stroke="#263238" stroke-linejoin="round" stroke-width=".874" d="M89.94 92.66c0-.32-.1-.62-.3-.85a.96.96 0 0 0-.72-.35h-8.58a.96.96 0 0 0-.72.35c-.19.23-.3.53-.3.85v6.46c0 .32.11.62.3.85.19.23.45.35.72.35h2.99l-.24 2.46h1.53v2.32l1.83-3.78h-1.5l.15-1h3.82c.13 0 .27-.03.39-.09s.24-.15.33-.26c.1-.11.17-.24.23-.39.05-.14.07-.3.07-.46v-6.46Z"/><path stroke="#263238" stroke-linecap="round" stroke-linejoin="round" stroke-width=".874" d="M80.98 93.7h5.82M80.98 95.53h7.32M80.98 97.36h6.19"/><path fill="#FFF" d="M116.33 172.62c0 1.9-2.55 3.1-5.68 3.1-3.12 0-5.67-1.2-5.67-3.1 0-1.91 2.55-3.47 5.67-3.47 3.13 0 5.68 1.55 5.68 3.47Z"/><path stroke="#263238" stroke-linejoin="round" stroke-width=".874" d="M110.65 175.72c-3.12 0-5.67-1.2-5.67-3.1 0-1.91 2.55-3.47 5.67-3.47 3.13 0 5.68 1.55 5.68 3.47 0 1.9-2.55 3.1-5.68 3.1Z"/><path fill="#FFF" d="M106.98 175.03c.15-.04.28-1.05-1.1-1.8-.96-.52-.99-1.06-.44-1.74.55-.67 1.49-1.23 2.21-.99 1.18.4 1.96 3.29 2.48 2.66.79-.24-.16-2.88-1.57-3.75 2.55.74 2.67 4.2 3.84 3.92.9-.2-.65-3.64-1.99-4.65.86.47 1.61 1.18 2.19 2.06.85 1.46.95 1.95 1.53 1.74.75-.28-1.05-3.49-1.27-3.84 1.13.53 1.34 1.65 1.69 2.1.35.45.51 1.2.99.9.48-.29.03-1.33-.29-1.95-1.53-2.91-4.07-3.39-6.5-3.03-1.91.29-4.11 1.23-5.28 3.03-.3.45-.47 1-.5 1.56-.03.57.09 1.14.34 1.62.41 1.02 1.86 2.64 3.67 2.16Z"/><path stroke="#263238" stroke-linejoin="round" stroke-width=".874" d="M105.88 173.23c-.96-.52-.99-1.06-.44-1.74.55-.67 1.49-1.23 2.21-.99 1.18.4 1.96 3.29 2.48 2.66.79-.24-.16-2.88-1.57-3.75 2.55.74 2.67 4.2 3.84 3.92.9-.2-.65-3.64-1.99-4.65.86.47 1.61 1.18 2.19 2.06.85 1.46.95 1.95 1.53 1.74.75-.28-1.05-3.49-1.27-3.84 1.13.53 1.34 1.65 1.69 2.1.35.45.51 1.2.99.9.48-.29.03-1.33-.29-1.95-1.53-2.91-4.07-3.39-6.5-3.03-1.91.29-4.11 1.23-5.28 3.03-.3.45-.47 1-.5 1.56-.03.57.09 1.14.34 1.62.41 1.02 1.86 2.64 3.67 2.16.15-.04.28-1.05-1.1-1.8Z"/><path fill="#BFBFBF" d="M117.81 175.74H24.08c-.28 0-.5.27-.5.6v.95c0 .33.22.59.5.59h93.73c.28 0 .51-.26.51-.59v-.95c0-.33-.23-.6-.51-.6Z"/><path stroke="#263238" stroke-width=".874" d="M117.81 175.74c.28 0 .51.27.51.6v.95c0 .33-.23.59-.51.59H24.08c-.28 0-.5-.26-.5-.59v-.95c0-.33.22-.6.5-.6h93.73Z"/><path fill="#263238" d="m26.83 175.74-6.89-24.69a.605.605 0 0 1-.02-.3c.01-.1.04-.19.09-.27.05-.09.11-.15.19-.2.08-.05.16-.08.24-.08h21.79l7.76 25.54H26.83Z"/><path fill="#FFF" d="m42.82 150.2 7.14 24.11h19.1v.84a.7.7 0 0 1-.15.43c-.1.11-.23.17-.36.17H48.73l-6.86-24.55a.82.82 0 0 1-.02-.35.68.68 0 0 1 .11-.31c.06-.1.13-.17.22-.23.09-.05.18-.08.28-.08l.36-.03Z"/><path stroke="#263238" stroke-linejoin="round" stroke-width=".874" d="M49.96 174.31h19.1v.84a.7.7 0 0 1-.15.43c-.1.11-.23.17-.36.17H48.73l-6.86-24.55a.82.82 0 0 1-.02-.35.68.68 0 0 1 .11-.31c.06-.1.13-.17.22-.23.09-.05.18-.08.28-.08l.36-.03 7.14 24.11Z"/><path fill="#FFF" d="M32.71 162.97c-.07-.42-.23-.8-.48-1.12.11-.15.24-.26.39-.34.15-.08.32-.12.48-.12.39.02.76.19 1.05.48.3.29.51.69.6 1.13.04.19.05.39.02.59-.03.19-.1.38-.21.53-.1.16-.24.28-.39.37a.95.95 0 0 1-.49.11c-.39-.01-.77-.18-1.06-.49.14-.35.18-.76.09-1.14ZM76.84 175.74h6.97c.92-.8 1.67-1.85 2.19-3.06.51-1.21.77-2.55.75-3.9v-3.86c0-.15-.02-.29-.07-.43a.907.907 0 0 0-.2-.36.79.79 0 0 0-.31-.24.768.768 0 0 0-.36-.09H74.87a.74.74 0 0 0-.36.09c-.12.05-.22.14-.31.24-.09.1-.16.23-.2.36-.05.14-.08.28-.08.43v3.86c-.01 1.35.24 2.68.75 3.9.51 1.21 1.25 2.26 2.17 3.06Z"/><path stroke="#263238" stroke-linejoin="round" stroke-width=".874" d="M83.81 175.74c.92-.8 1.67-1.85 2.19-3.06.51-1.21.77-2.55.75-3.9v-3.86c0-.15-.02-.29-.07-.43a.907.907 0 0 0-.2-.36.79.79 0 0 0-.31-.24.768.768 0 0 0-.36-.09H74.87a.74.74 0 0 0-.36.09c-.12.05-.22.14-.31.24-.09.1-.16.23-.2.36-.05.14-.08.28-.08.43v3.86c-.01 1.35.24 2.68.75 3.9.51 1.21 1.25 2.26 2.17 3.06h6.97Z"/><path fill="#FFF" d="M88.73 165.45c-.29-.22-.63-.35-.98-.37-.34-.01-.69.07-1 .26v1.39c.31-.06.62.01.88.2.98.68.77 2.05.08 3.45-.31.79-.85 1.43-1.53 1.8-.2.57-.45 1.12-.75 1.64 1.3.33 2.5-.98 3.44-2.88 1.1-2.25 1.43-4.43-.14-5.49Z"/><path stroke="#263238" stroke-linejoin="round" stroke-width=".874" d="M87.75 165.08c-.34-.01-.69.07-1 .26v1.39c.31-.06.62.01.88.2.98.68.77 2.05.08 3.45-.31.79-.85 1.43-1.53 1.8-.2.57-.45 1.12-.75 1.64 1.3.33 2.5-.98 3.44-2.88 1.1-2.25 1.43-4.43-.14-5.49-.29-.22-.63-.35-.98-.37Z"/><path stroke="#263238" stroke-linecap="round" stroke-linejoin="round" stroke-width=".874" d="M80.47 157.72c.25-.97.38-1.98.37-3 0-5.64-4.5-6.3-4.5-12.71M77.28 162.7a7.95 7.95 0 0 0 2.07-2.31M80.08 147.39c-.25-.56-.36-1.18-.3-1.8M83.59 155.31c-.23-1.77-1.09-3.42-1.94-4.93M80.98 162.76s1.49-.73 2.3-4.06"/><path fill="#FFF" d="M90.08 209.17H51.94c-2.79 0-5.05 2.66-5.05 5.94v29.7c0 3.28 2.26 5.94 5.05 5.94h38.14c2.78 0 5.04-2.66 5.04-5.94v-29.7c0-3.28-2.26-5.94-5.04-5.94Z"/><path stroke="#263238" stroke-width=".874" d="M90.08 209.17c2.78 0 5.04 2.66 5.04 5.94v29.7c0 3.28-2.26 5.94-5.04 5.94H51.94c-2.79 0-5.05-2.66-5.05-5.94v-29.7c0-3.28 2.26-5.94 5.05-5.94h38.14Z"/><path fill="#FFF" d="m58.95 237.78.58 11.86.06.1c.46.72 1.05 1.3 1.74 1.7a4.203 4.203 0 0 0 4.38-.05c.68-.42 1.26-1.02 1.71-1.75l.21-11.86h-8.68Z"/><path stroke="#263238" stroke-linejoin="round" stroke-width=".874" d="m59.53 249.64.06.1c.46.72 1.05 1.3 1.74 1.7a4.203 4.203 0 0 0 4.38-.05c.68-.42 1.26-1.02 1.71-1.75l.21-11.86h-8.68l.58 11.86Z"/><path fill="#BFBFBF" d="M69.53 261.23c-3.86.8-7.81.8-11.68 0-.36-.42-.67-.9-.92-1.42-.39-.82-.61-1.73-.64-2.67-.03-.94.12-1.87.45-2.73l2.33-4.89 9.23.12 2.07 4.47c.5 1.06.72 2.27.62 3.48-.1 1.2-.5 2.34-1.16 3.27-.09.13-.19.25-.3.37Z"/><path stroke="#263238" stroke-width=".874" d="M57.85 261.23c-.36-.42-.67-.9-.92-1.42-.39-.82-.61-1.73-.64-2.67-.03-.94.12-1.87.45-2.73l2.33-4.89 9.23.12 2.07 4.47c.5 1.06.72 2.27.62 3.48-.1 1.2-.5 2.34-1.16 3.27-.09.13-.19.25-.3.37-3.86.8-7.81.8-11.68 0Z"/><path fill="#BFBFBF" d="M67.27 255.07c.57.3 1.11.66 1.62 1.08l-1.62-1.08Z"/><path stroke="#263238" stroke-width=".874" d="M67.27 255.07c.57.3 1.11.66 1.62 1.08"/><path fill="#BFBFBF" d="M58.57 256.15a8.753 8.753 0 0 1 3.35-1.68c1.2-.29 2.44-.3 3.65-.03l-7 1.71Z"/><path stroke="#263238" stroke-width=".874" d="M58.57 256.15a8.753 8.753 0 0 1 3.35-1.68c1.2-.29 2.44-.3 3.65-.03"/><path fill="#263238" d="m53.98 188.82 4.08 55.01H68.6s1.04-33.6 1.7-55.42c.05-1.29-.13-2.58-.52-3.79-.4-1.21-.99-2.32-1.75-3.25-.77-.93-1.68-1.67-2.7-2.18a7.06 7.06 0 0 0-3.2-.75 7.05 7.05 0 0 0-3.28.79c-1.03.53-1.96 1.31-2.73 2.29-.76.98-1.35 2.13-1.72 3.39-.37 1.25-.51 2.59-.42 3.91Z"/><path stroke="#FFF" stroke-linecap="round" stroke-linejoin="round" stroke-width=".874" d="M64.47 178.83c-.77-.27-1.56-.4-2.36-.39-1.13 0-2.24.27-3.27.8a8.382 8.382 0 0 0-2.73 2.29c-.76.98-1.34 2.13-1.71 3.38-.37 1.26-.51 2.59-.42 3.91l1.45 20.35M68.87 182.58c-.42-.7-.91-1.34-1.46-1.89 0 0-.64-.6-.92-.79M69.61 209.17c.2-6.81.53-14.78.71-20.76.05-1.48-.2-2.96-.71-4.31"/><path fill="#FFF" d="m76.09 237.78.58 11.86.07.1c.45.72 1.05 1.3 1.73 1.7.68.4 1.44.6 2.2.59.76-.01 1.51-.23 2.19-.64.67-.42 1.26-1.02 1.7-1.75l.21-11.86h-8.68Z"/><path stroke="#263238" stroke-linejoin="round" stroke-width=".874" d="m76.67 249.64.07.1c.45.72 1.05 1.3 1.73 1.7.68.4 1.44.6 2.2.59.76-.01 1.51-.23 2.19-.64.67-.42 1.26-1.02 1.7-1.75l.21-11.86h-8.68l.58 11.86Z"/><path fill="#BFBFBF" d="M86.68 261.23c-3.87.8-7.82.8-11.68 0-.36-.42-.67-.9-.92-1.42-.39-.81-.61-1.73-.65-2.67-.03-.94.13-1.87.46-2.73l2.33-4.89 9.22.12 2.08 4.47c.5 1.06.71 2.27.61 3.48-.09 1.2-.5 2.34-1.16 3.27-.09.13-.19.25-.29.37Z"/><path stroke="#263238" stroke-width=".874" d="M75 261.23c-.36-.42-.67-.9-.92-1.42-.39-.81-.61-1.73-.65-2.67-.03-.94.13-1.87.46-2.73l2.33-4.89 9.22.12 2.08 4.47c.5 1.06.71 2.27.61 3.48-.09 1.2-.5 2.34-1.16 3.27-.09.13-.19.25-.29.37-3.87.8-7.82.8-11.68 0Z"/><path fill="#BFBFBF" d="M84.41 255.07c.57.3 1.12.66 1.63 1.08l-1.63-1.08Z"/><path stroke="#263238" stroke-width=".874" d="M84.41 255.07c.57.3 1.12.66 1.63 1.08"/><path fill="#BFBFBF" d="M75.72 256.15c1.02-.81 2.15-1.38 3.36-1.68 1.2-.29 2.44-.3 3.64-.03l-7 1.71Z"/><path stroke="#263238" stroke-width=".874" d="M75.72 256.15c1.02-.81 2.15-1.38 3.36-1.68 1.2-.29 2.44-.3 3.64-.03"/><path fill="#263238" d="m71.14 188.82 4.08 55.01h10.54s1.04-33.6 1.71-55.42c.04-1.29-.15-2.59-.54-3.8-.4-1.21-1-2.32-1.76-3.25a8.326 8.326 0 0 0-2.7-2.17 7.003 7.003 0 0 0-3.21-.75c-1.13 0-2.24.27-3.27.81a8.316 8.316 0 0 0-2.72 2.28c-.76.98-1.35 2.13-1.71 3.39a11.12 11.12 0 0 0-.42 3.9Z"/><path stroke="#FFF" stroke-linecap="round" stroke-linejoin="round" stroke-width=".874" d="M82.62 179.26a7.158 7.158 0 0 0-3.36-.82c-1.13 0-2.24.27-3.27.81a8.316 8.316 0 0 0-2.72 2.28c-.76.98-1.35 2.13-1.71 3.39a11.12 11.12 0 0 0-.42 3.9l1.53 20.35M86.02 182.58c-.42-.71-.91-1.34-1.47-1.89M87.19 209.17c.21-6.81.09-14.78.28-20.76.04-1.31-.15-2.62-.55-3.84"/><path fill="#FFF" d="M212.01 95.2V69.59c0-1.23-.42-2.42-1.16-3.3-.75-.87-1.76-1.36-2.81-1.36h-34.09c-1.05 0-2.06.49-2.8 1.36-.75.88-1.16 2.07-1.16 3.3V95.2c0 1.23.41 2.42 1.16 3.3.74.87 1.75 1.36 2.8 1.36h11.87l-.94 9.75H191v9.19l7.25-15h-5.95l.63-3.94h15.11c1.05 0 2.06-.49 2.8-1.37.75-.87 1.16-2.06 1.17-3.29Z"/><path stroke="#263238" stroke-linejoin="round" stroke-width="1.025" d="M212.01 69.59c0-1.23-.42-2.42-1.16-3.3-.75-.87-1.76-1.36-2.81-1.36h-34.09c-1.05 0-2.06.49-2.8 1.36-.75.88-1.16 2.07-1.16 3.3V95.2c0 1.23.41 2.42 1.16 3.3.74.87 1.75 1.36 2.8 1.36h11.87l-.94 9.75H191v9.19l7.25-15h-5.95l.63-3.94h15.11c1.05 0 2.06-.49 2.8-1.37.75-.87 1.16-2.06 1.17-3.29V69.59Z"/><path stroke="#263238" stroke-linecap="round" stroke-linejoin="round" stroke-width="1.025" d="M176.5 73.69h23.05M176.5 80.94h29M176.5 88.2h24.53"/><path fill="#E8E8E8" d="m238.05 204.82 20.6 8.09-5.11 6.03 9.53 11.23-20.6-8.09 5.11-6.02-9.53-11.24Z"/><path stroke="#263238" stroke-linejoin="round" stroke-width="1.025" d="m258.65 212.91-5.11 6.03 9.53 11.23-20.6-8.09 5.11-6.02-9.53-11.24 20.6 8.09Z"/><path fill="#E8E8E8" d="m143.94 204.82-20.59 8.09 5.1 6.03-9.53 11.23 20.6-8.09-5.11-6.02 9.53-11.24Z"/><path stroke="#263238" stroke-linejoin="round" stroke-width="1.025" d="m123.35 212.91 5.1 6.03-9.53 11.23 20.6-8.09-5.11-6.02 9.53-11.24-20.59 8.09Z"/><path fill="#E8E8E8" d="m190.42 19.28-9.71 22.88h7.23v15.89l9.71-22.88h-7.23V19.28Z"/><path stroke="#263238" stroke-linejoin="round" stroke-width="1.025" d="M180.71 42.16h7.23v15.89l9.71-22.88h-7.23V19.28l-9.71 22.88Z"/></g></svg>