<svg width="248.000000" height="248.000000" viewBox="0 0 248 248" fill="none" xmlns="http://www.w3.org/2000/svg" xmlns:xlink="http://www.w3.org/1999/xlink">
	<desc>
			Created with Pixso.
	</desc>
	<defs>
		<clipPath id="clip598_7754">
			<rect id="Webinar-bro 2" width="248.000000" height="248.000000" fill="white" fill-opacity="0"/>
		</clipPath>
	</defs>
	<rect id="Webinar-bro 2" width="248.000000" height="248.000000" fill="#FFFFFF" fill-opacity="0"/>
	<g clip-path="url(#clip598_7754)">
		<path id="Vector" d="M236.92 114.49C234.32 101.78 229.76 89.37 224.33 77.96C214.98 58.28 199.65 41.94 180.04 32.24C131.93 8.43 97.21 18.35 78.36 37.69C59.52 57.04 64.97 90.27 44.64 104.65C24.3 119.04 9.92 125.48 8.92 151.77C7.93 178.06 20.83 197.9 41.66 204.35C62.49 210.8 93.74 231.63 156.24 219.72C218.73 207.82 234.11 174.59 238.08 150.78C240.06 138.8 239.38 126.51 236.92 114.49Z" fill="#CBCBCB" fill-opacity="1.000000" fill-rule="nonzero"/>
		<g opacity="0.700000">
			<path id="Vector" d="M236.92 114.49C234.32 101.78 229.76 89.37 224.33 77.96C214.98 58.28 199.65 41.94 180.04 32.24C131.93 8.43 97.21 18.35 78.36 37.69C59.52 57.04 64.97 90.27 44.64 104.65C24.3 119.04 9.92 125.48 8.92 151.77C7.93 178.06 20.83 197.9 41.66 204.35C62.49 210.8 93.74 231.63 156.24 219.72C218.73 207.82 234.11 174.59 238.08 150.78C240.06 138.8 239.38 126.51 236.92 114.49Z" fill="#FFFFFF" fill-opacity="1.000000" fill-rule="nonzero"/>
		</g>
		<path id="Vector" d="M90.43 41.92L85.93 41.92L85.93 61.83L90.43 61.83L90.43 41.92Z" fill="#C9C9C9" fill-opacity="1.000000" fill-rule="nonzero"/>
		<path id="Vector" d="M90.43 41.92L90.43 61.83L85.93 61.83L85.93 41.92L90.43 41.92Z" stroke="#263238" stroke-opacity="1.000000" stroke-width="1.000000" stroke-linejoin="round"/>
		<path id="Vector" d="M90.43 44.91L85.93 44.91L85.93 46.86L90.43 46.86L90.43 44.91Z" fill="#FFFFFF" fill-opacity="1.000000" fill-rule="nonzero"/>
		<path id="Vector" d="M90.43 44.91L90.43 46.86L85.93 46.86L85.93 44.91L90.43 44.91Z" stroke="#263238" stroke-opacity="1.000000" stroke-width="1.000000" stroke-linejoin="round"/>
		<path id="Vector" d="M90.43 57.27L85.93 57.27L85.93 59.21L90.43 59.21L90.43 57.27Z" fill="#FFFFFF" fill-opacity="1.000000" fill-rule="nonzero"/>
		<path id="Vector" d="M90.43 57.27L90.43 59.21L85.93 59.21L85.93 57.27L90.43 57.27Z" stroke="#263238" stroke-opacity="1.000000" stroke-width="1.000000" stroke-linejoin="round"/>
		<path id="Vector" d="M95.67 41.92L89.38 41.92L89.38 61.83L95.67 61.83L95.67 41.92Z" fill="#878787" fill-opacity="1.000000" fill-rule="nonzero"/>
		<path id="Vector" d="M95.67 41.92L95.67 61.83L89.38 61.83L89.38 41.92L95.67 41.92Z" stroke="#263238" stroke-opacity="1.000000" stroke-width="1.000000" stroke-linejoin="round"/>
		<path id="Vector" d="M95.22 41.92L90.73 41.92L90.73 61.83L95.22 61.83L95.22 41.92Z" fill="#C9C9C9" fill-opacity="1.000000" fill-rule="nonzero"/>
		<path id="Vector" d="M95.22 41.92L95.22 61.83L90.73 61.83L90.73 41.92L95.22 41.92Z" stroke="#263238" stroke-opacity="1.000000" stroke-width="1.000000" stroke-linejoin="round"/>
		<path id="Vector" d="M95.22 44.91L90.73 44.91L90.73 46.86L95.22 46.86L95.22 44.91Z" fill="#FFFFFF" fill-opacity="1.000000" fill-rule="nonzero"/>
		<path id="Vector" d="M95.22 44.91L95.22 46.86L90.73 46.86L90.73 44.91L95.22 44.91Z" stroke="#263238" stroke-opacity="1.000000" stroke-width="1.000000" stroke-linejoin="round"/>
		<path id="Vector" d="M95.22 57.27L90.73 57.27L90.73 59.21L95.22 59.21L95.22 57.27Z" fill="#FFFFFF" fill-opacity="1.000000" fill-rule="nonzero"/>
		<path id="Vector" d="M95.22 57.27L95.22 59.21L90.73 59.21L90.73 57.27L95.22 57.27Z" stroke="#263238" stroke-opacity="1.000000" stroke-width="1.000000" stroke-linejoin="round"/>
		<path id="Vector" d="M100.46 41.92L94.17 41.92L94.17 61.83L100.46 61.83L100.46 41.92Z" fill="#878787" fill-opacity="1.000000" fill-rule="nonzero"/>
		<path id="Vector" d="M100.46 41.92L100.46 61.83L94.17 61.83L94.17 41.92L100.46 41.92Z" stroke="#263238" stroke-opacity="1.000000" stroke-width="1.000000" stroke-linejoin="round"/>
		<path id="Vector" d="M100.01 41.92L95.52 41.92L95.52 61.83L100.01 61.83L100.01 41.92Z" fill="#C9C9C9" fill-opacity="1.000000" fill-rule="nonzero"/>
		<path id="Vector" d="M100.01 41.92L100.01 61.83L95.52 61.83L95.52 41.92L100.01 41.92Z" stroke="#263238" stroke-opacity="1.000000" stroke-width="1.000000" stroke-linejoin="round"/>
		<path id="Vector" d="M100.01 44.91L95.52 44.91L95.52 46.86L100.01 46.86L100.01 44.91Z" fill="#FFFFFF" fill-opacity="1.000000" fill-rule="nonzero"/>
		<path id="Vector" d="M100.01 44.91L100.01 46.86L95.52 46.86L95.52 44.91L100.01 44.91Z" stroke="#263238" stroke-opacity="1.000000" stroke-width="1.000000" stroke-linejoin="round"/>
		<path id="Vector" d="M100.01 57.27L95.52 57.27L95.52 59.21L100.01 59.21L100.01 57.27Z" fill="#FFFFFF" fill-opacity="1.000000" fill-rule="nonzero"/>
		<path id="Vector" d="M100.01 57.27L100.01 59.21L95.52 59.21L95.52 57.27L100.01 57.27Z" stroke="#263238" stroke-opacity="1.000000" stroke-width="1.000000" stroke-linejoin="round"/>
		<path id="Vector" d="M105.25 41.92L98.96 41.92L98.96 61.83L105.25 61.83L105.25 41.92Z" fill="#C9C9C9" fill-opacity="1.000000" fill-rule="nonzero"/>
		<path id="Vector" d="M105.25 41.92L105.25 61.83L98.96 61.83L98.96 41.92L105.25 41.92Z" stroke="#263238" stroke-opacity="1.000000" stroke-width="1.000000" stroke-linejoin="round"/>
		<path id="Vector" d="M109.35 62.03L119.9 62.03L122.71 59.5L109.35 59.5L109.35 62.03Z" fill="#FFFFFF" fill-opacity="1.000000" fill-rule="nonzero"/>
		<path id="Vector" d="M119.9 62.03L122.71 59.5L109.35 59.5L109.35 62.03L119.9 62.03Z" stroke="#263238" stroke-opacity="1.000000" stroke-width="1.000000" stroke-linejoin="round"/>
		<path id="Vector" d="M121.52 62.16L121.18 61.58L109.13 61.56L109.48 62.16L121.52 62.16Z" fill="#FFFFFF" fill-opacity="1.000000" fill-rule="nonzero"/>
		<path id="Vector" d="M121.18 61.58L109.13 61.56L109.48 62.16L121.52 62.16L121.18 61.58Z" stroke="#263238" stroke-opacity="1.000000" stroke-width="1.000000" stroke-linejoin="round"/>
		<path id="Vector" d="M103.23 42.32L99.34 44.57L109.32 61.83L113.21 59.58L103.23 42.32Z" fill="#C9C9C9" fill-opacity="1.000000" fill-rule="nonzero"/>
		<path id="Vector" d="M103.23 42.32L113.21 59.58L109.32 61.83L99.34 44.57L103.23 42.32Z" stroke="#263238" stroke-opacity="1.000000" stroke-width="1.000000" stroke-linejoin="round"/>
		<path id="Vector" d="M104.74 44.92L100.85 47.17L101.82 48.85L105.71 46.6L104.74 44.92Z" fill="#FFFFFF" fill-opacity="1.000000" fill-rule="nonzero"/>
		<path id="Vector" d="M104.74 44.92L105.71 46.6L101.82 48.85L100.85 47.17L104.74 44.92Z" stroke="#263238" stroke-opacity="1.000000" stroke-width="1.000000" stroke-linejoin="round"/>
		<path id="Vector" d="M110.93 55.61L107.04 57.86L108.01 59.55L111.9 57.3L110.93 55.61Z" fill="#FFFFFF" fill-opacity="1.000000" fill-rule="nonzero"/>
		<path id="Vector" d="M110.93 55.61L111.9 57.3L108.01 59.55L107.04 57.86L110.93 55.61Z" stroke="#263238" stroke-opacity="1.000000" stroke-width="1.000000" stroke-linejoin="round"/>
		<path id="Vector" d="M122.64 59.67L113.1 59.64L103.13 42.4L112.67 42.43L122.64 59.67Z" fill="#C9C9C9" fill-opacity="1.000000" fill-rule="nonzero"/>
		<path id="Vector" d="M113.1 59.64L103.13 42.4L112.67 42.43L122.64 59.67L113.1 59.64Z" stroke="#263238" stroke-opacity="1.000000" stroke-width="1.000000" stroke-linejoin="round"/>
		<path id="Vector" d="M127.84 51.95C127.84 51.95 126.1 51.33 125.61 48.6C125.11 45.88 124.24 42.03 125.24 41.16C126.23 40.3 128.09 39.8 128.34 41.54C128.58 43.27 128.21 46.62 128.58 47.36C128.96 48.11 130.2 47.61 130.2 46.12C130.2 43.67 129.2 41.16 129.56 38.68C130.05 35.26 133.52 34.88 133.89 38.68C134.1 40.79 134.16 42.93 134.16 45.05C134.16 45.91 135.65 46.41 135.53 44.3C135.44 42.81 136.52 41.08 138.01 41.58C139.5 42.07 138.25 48.64 137.76 49.76C137.26 50.87 134.16 51.08 134.16 51.08L134.16 53.94L130.44 54.06L130.32 51.21C129.56 51.65 128.71 51.9 127.84 51.95Z" fill="#CBCBCB" fill-opacity="1.000000" fill-rule="nonzero"/>
		<path id="Vector" d="M125.61 48.6C125.11 45.88 124.24 42.03 125.24 41.16C126.23 40.3 128.09 39.8 128.34 41.54C128.58 43.27 128.21 46.62 128.58 47.36C128.96 48.11 130.2 47.61 130.2 46.12C130.2 43.67 129.2 41.16 129.56 38.68C130.05 35.26 133.52 34.88 133.89 38.68C134.1 40.79 134.16 42.93 134.16 45.05C134.16 45.91 135.65 46.41 135.53 44.3C135.44 42.81 136.52 41.08 138.01 41.58C139.5 42.07 138.25 48.64 137.76 49.76C137.26 50.87 134.16 51.08 134.16 51.08L134.16 53.94L130.44 54.06L130.32 51.21C129.56 51.65 128.71 51.9 127.84 51.95C127.84 51.95 126.1 51.33 125.61 48.6Z" stroke="#263238" stroke-opacity="1.000000" stroke-width="1.000000" stroke-linejoin="round"/>
		<path id="Vector" d="M131.19 46.52C131.23 47.14 131.26 47.51 131.26 47.51" stroke="#263238" stroke-opacity="1.000000" stroke-width="1.000000" stroke-linejoin="round" stroke-linecap="round"/>
		<path id="Vector" d="M131.43 36.9C131.43 36.9 130.62 37.46 130.68 39.16C130.72 40.19 130.92 43.05 131.07 45.14" stroke="#263238" stroke-opacity="1.000000" stroke-width="1.000000" stroke-linejoin="round" stroke-linecap="round"/>
		<path id="Vector" d="M132.83 42.75L132.96 42.75" stroke="#263238" stroke-opacity="1.000000" stroke-width="1.000000" stroke-linejoin="round" stroke-linecap="round"/>
		<path id="Vector" d="M134.65 49.6C134.36 49.64 134.07 49.66 133.78 49.67" stroke="#263238" stroke-opacity="1.000000" stroke-width="1.000000" stroke-linejoin="round" stroke-linecap="round"/>
		<path id="Vector" d="M137.24 42.62C136.95 43.16 136.8 43.77 136.8 44.38C136.8 45.37 136.86 48.16 136.23 48.91C136.08 49.08 135.89 49.22 135.68 49.31" stroke="#263238" stroke-opacity="1.000000" stroke-width="1.000000" stroke-linejoin="round" stroke-linecap="round"/>
		<path id="Vector" d="M126.48 48.2C126.63 48.95 126.98 49.64 127.51 50.19C127.82 50.43 128.2 50.57 128.6 50.58C129 50.6 129.39 50.48 129.71 50.25" stroke="#263238" stroke-opacity="1.000000" stroke-width="1.000000" stroke-linejoin="round" stroke-linecap="round"/>
		<path id="Vector" d="M126.36 41.49C126.36 41.49 125.1 41.49 125.54 43.69C125.73 44.62 125.9 45.76 126.12 46.83" stroke="#263238" stroke-opacity="1.000000" stroke-width="1.000000" stroke-linejoin="round" stroke-linecap="round"/>
		<path id="Vector" d="M131.07 49.85L131.33 49.85" stroke="#263238" stroke-opacity="1.000000" stroke-width="1.000000" stroke-linejoin="round" stroke-linecap="round"/>
		<path id="Vector" d="M137.51 52.82L137.06 56.52L136.75 59.04L136.39 61.97L127.47 61.97L127.12 59.04L126.81 56.52L126.36 52.82L137.51 52.82Z" fill="#FFFFFF" fill-opacity="1.000000" fill-rule="nonzero"/>
		<path id="Vector" d="M137.06 56.52L136.75 59.04L136.39 61.97L127.47 61.97L127.12 59.04L126.81 56.52L126.36 52.82L137.51 52.82L137.06 56.52Z" stroke="#263238" stroke-opacity="1.000000" stroke-width="1.000000" stroke-linejoin="round"/>
		<path id="Vector" d="M137.06 56.52L136.75 59.04L127.12 59.04L126.81 56.52L137.06 56.52Z" fill="#CBCBCB" fill-opacity="1.000000" fill-rule="nonzero"/>
		<path id="Vector" d="M136.75 59.04L127.12 59.04L126.81 56.52L137.06 56.52L136.75 59.04Z" stroke="#263238" stroke-opacity="1.000000" stroke-width="1.000000" stroke-linejoin="round"/>
		<path id="Vector" d="M142.41 61.97L85.14 61.97L85.14 65.76L142.41 65.76L142.41 61.97Z" fill="#FFFFFF" fill-opacity="1.000000" fill-rule="nonzero"/>
		<path id="Vector" d="M142.41 61.97L142.41 65.76L85.14 65.76L85.14 61.97L142.41 61.97Z" stroke="#263238" stroke-opacity="1.000000" stroke-width="1.000000" stroke-linejoin="round"/>
		<path id="Vector" d="M142.41 61.97L129.21 61.97L129.21 65.76L142.41 65.76L142.41 61.97Z" fill="#FFFFFF" fill-opacity="1.000000" fill-rule="nonzero"/>
		<path id="Vector" d="M142.41 61.97L142.41 65.76L129.21 65.76L129.21 61.97L142.41 61.97Z" stroke="#263238" stroke-opacity="1.000000" stroke-width="1.000000" stroke-linejoin="round"/>
		<path id="Vector" d="M127.92 65.78C134.06 68.04 132.95 72.32 132.95 72.32L138.76 72.32L138.76 65.78L127.92 65.78Z" fill="#919191" fill-opacity="1.000000" fill-rule="nonzero"/>
		<path id="Vector" d="M132.95 72.32L138.76 72.32L138.76 65.78L127.92 65.78C134.06 68.04 132.95 72.32 132.95 72.32Z" stroke="#263238" stroke-opacity="1.000000" stroke-width="1.000000" stroke-linejoin="round"/>
		<path id="Vector" d="M129.88 65.78C136.01 68.04 134.91 72.32 134.91 72.32L140.72 72.32L140.72 65.78L129.88 65.78Z" fill="#FFFFFF" fill-opacity="1.000000" fill-rule="nonzero"/>
		<path id="Vector" d="M134.91 72.32L140.72 72.32L140.72 65.78L129.88 65.78C136.01 68.04 134.91 72.32 134.91 72.32Z" stroke="#263238" stroke-opacity="1.000000" stroke-width="1.000000" stroke-linejoin="round"/>
		<path id="Vector" d="M88.62 65.78C94.75 68.04 93.64 72.32 93.64 72.32L99.45 72.32L99.45 65.78L88.62 65.78Z" fill="#919191" fill-opacity="1.000000" fill-rule="nonzero"/>
		<path id="Vector" d="M93.64 72.32L99.45 72.32L99.45 65.78L88.62 65.78C94.75 68.04 93.64 72.32 93.64 72.32Z" stroke="#263238" stroke-opacity="1.000000" stroke-width="1.000000" stroke-linejoin="round"/>
		<path id="Vector" d="M90.58 65.78C96.71 68.04 95.6 72.32 95.6 72.32L101.41 72.32L101.41 65.78L90.58 65.78Z" fill="#FFFFFF" fill-opacity="1.000000" fill-rule="nonzero"/>
		<path id="Vector" d="M95.6 72.32L101.41 72.32L101.41 65.78L90.58 65.78C96.71 68.04 95.6 72.32 95.6 72.32Z" stroke="#263238" stroke-opacity="1.000000" stroke-width="1.000000" stroke-linejoin="round"/>
		<path id="Vector" d="M222.22 42.63L170.86 42.63L170.86 113.93L222.22 113.93L222.22 42.63Z" fill="#919191" fill-opacity="1.000000" fill-rule="nonzero"/>
		<path id="Vector" d="M222.22 42.63L222.22 113.93L170.86 113.93L170.86 42.63L222.22 42.63Z" stroke="#263238" stroke-opacity="1.000000" stroke-width="1.000000" stroke-linejoin="round"/>
		<path id="Vector" d="M173.09 45.72L219.99 45.72L219.99 110.84L173.09 110.84L173.09 45.72Z" fill="#CBCBCB" fill-opacity="1.000000" fill-rule="evenodd"/>
		<g opacity="0.500000">
			<path id="Vector" d="M173.09 45.72L219.99 45.72L219.99 110.84L173.09 110.84L173.09 45.72Z" fill="#FFFFFF" fill-opacity="1.000000" fill-rule="evenodd"/>
		</g>
		<path id="Vector" d="M183.4 105.89C182.14 107.81 180.55 109.49 178.71 110.85L220 110.85L220 45.72L212.39 45.72L211.39 46.03C203.95 48.38 196.27 55.17 191.91 67.51" stroke="#263238" stroke-opacity="1.000000" stroke-width="1.000000" stroke-linejoin="round" stroke-linecap="round"/>
		<path id="Vector" d="M191.18 69.67C189.45 75.56 188.49 81.64 188.34 87.78C188.06 95.14 186.5 100.43 184.4 104.23" stroke="#263238" stroke-opacity="1.000000" stroke-width="1.000000" stroke-linejoin="round" stroke-linecap="round"/>
		<path id="Vector" d="M215.41 62.25C208.59 66.22 200.65 72.88 197.68 83.1C196.09 88.56 197.58 93.48 200.53 97.69" stroke="#263238" stroke-opacity="1.000000" stroke-width="1.000000" stroke-linejoin="round" stroke-linecap="round"/>
		<path id="Vector" d="M202.13 99.75C206.22 104.54 212.05 108.31 216.77 110.84L220 110.84L220 59.84C219.07 60.27 218.09 60.76 217.07 61.33" stroke="#263238" stroke-opacity="1.000000" stroke-width="1.000000" stroke-linejoin="round" stroke-linecap="round"/>
		<path id="Vector" d="M180.89 62.7C184.48 55.38 184.85 49.57 184.44 45.72L173.1 45.72L173.1 75.51C174.78 73.12 176.83 69.94 179.31 65.66C179.46 65.4 179.61 65.16 179.75 64.89" stroke="#263238" stroke-opacity="1.000000" stroke-width="1.000000" stroke-linejoin="round" stroke-linecap="round"/>
		<path id="Vector" d="M185.33 90.9C184.78 94.5 183.12 97.12 181.17 97.12C178.76 97.12 176.81 93.15 176.81 88.24C176.81 83.33 178.76 79.37 181.17 79.37C183.58 79.37 185.53 83.33 185.53 88.24" stroke="#263238" stroke-opacity="1.000000" stroke-width="1.000000" stroke-linejoin="round" stroke-linecap="round"/>
		<path id="Vector" d="M185.53 73.45C184.49 73.45 183.66 71.91 183.66 70.02C183.66 68.13 184.5 66.59 185.53 66.59C186.56 66.59 187.4 68.13 187.4 70.02C187.4 71.91 186.57 73.45 185.53 73.45Z" stroke="#263238" stroke-opacity="1.000000" stroke-width="1.000000" stroke-linejoin="round"/>
		<path id="Vector" d="M211.2 84.5C213 85.36 214.17 86.85 214.17 88.56C214.17 91.22 211.25 93.38 207.63 93.38C204.02 93.38 201.09 91.22 201.09 88.56C201.09 85.89 204.02 83.73 207.63 83.73C208.21 83.72 208.78 83.78 209.35 83.89" stroke="#263238" stroke-opacity="1.000000" stroke-width="1.000000" stroke-linejoin="round" stroke-linecap="round"/>
		<path id="Vector" d="M207.65 90.58C206.13 90.58 204.9 89.67 204.9 88.56C204.9 87.44 206.13 86.53 207.65 86.53C209.16 86.53 210.39 87.43 210.39 88.56C210.39 89.67 209.16 90.58 207.65 90.58Z" stroke="#263238" stroke-opacity="1.000000" stroke-width="1.000000" stroke-linejoin="round"/>
		<path id="Vector" d="M211.39 79.05C209.49 79.05 207.96 77.8 207.96 76.25C207.96 74.7 209.49 73.45 211.39 73.45C213.28 73.45 214.81 74.7 214.81 76.25C214.81 77.8 213.28 79.05 211.39 79.05Z" stroke="#263238" stroke-opacity="1.000000" stroke-width="1.000000" stroke-linejoin="round"/>
		<path id="Vector" d="M190.05 60.68C188.76 60.68 187.71 58.1 187.71 54.91C187.71 51.73 188.76 49.15 190.05 49.15C191.34 49.15 192.38 51.73 192.38 54.91C192.38 58.1 191.34 60.68 190.05 60.68Z" stroke="#263238" stroke-opacity="1.000000" stroke-width="1.000000" stroke-linejoin="round"/>
		<path id="Vector" d="M195.88 106.26C195.52 106.8 195.01 107.22 194.42 107.47C193.82 107.72 193.16 107.78 192.52 107.65C191.89 107.53 191.31 107.22 190.85 106.76C190.39 106.3 190.08 105.72 189.95 105.08C189.83 104.45 189.89 103.79 190.14 103.19C190.39 102.59 190.81 102.08 191.34 101.72C191.88 101.36 192.52 101.17 193.16 101.17C194.03 101.17 194.86 101.51 195.48 102.13C196.09 102.74 196.44 103.57 196.44 104.44C196.44 105.09 196.24 105.72 195.88 106.26Z" stroke="#263238" stroke-opacity="1.000000" stroke-width="1.000000" stroke-linejoin="round"/>
		<path id="Vector" d="M211.36 56.97C211.14 57.31 210.82 57.57 210.45 57.72C210.08 57.88 209.67 57.92 209.27 57.84C208.88 57.76 208.52 57.57 208.23 57.28C207.95 57 207.76 56.64 207.68 56.24C207.6 55.85 207.64 55.44 207.8 55.07C207.95 54.7 208.21 54.38 208.55 54.16C208.88 53.94 209.27 53.82 209.67 53.82C210.21 53.82 210.72 54.04 211.1 54.42C211.48 54.79 211.7 55.31 211.7 55.85C211.7 56.25 211.58 56.64 211.36 56.97Z" stroke="#263238" stroke-opacity="1.000000" stroke-width="1.000000" stroke-linejoin="round"/>
		<path id="Vector" d="M198.74 70.78C198.63 70.96 198.46 71.1 198.26 71.19C198.06 71.27 197.84 71.29 197.63 71.25C197.41 71.21 197.22 71.1 197.06 70.95C196.91 70.8 196.81 70.61 196.77 70.39C196.72 70.18 196.74 69.96 196.83 69.76C196.91 69.56 197.05 69.39 197.23 69.27C197.41 69.15 197.62 69.09 197.83 69.09C197.98 69.09 198.12 69.11 198.25 69.17C198.38 69.22 198.5 69.3 198.61 69.4C198.71 69.51 198.79 69.62 198.84 69.76C198.9 69.89 198.93 70.03 198.93 70.17C198.93 70.39 198.86 70.6 198.74 70.78Z" stroke="#263238" stroke-opacity="1.000000" stroke-width="1.000000" stroke-linejoin="round"/>
		<path id="Vector" d="M219.99 45.72L219.99 110.84L173.09 110.84L173.09 45.72L219.99 45.72Z" stroke="#263238" stroke-opacity="1.000000" stroke-width="1.000000" stroke-linejoin="round"/>
		<path id="Vector" d="M143.34 138.57L130.59 138.57L130.59 143.37L143.34 143.37L143.34 138.57Z" fill="#263238" fill-opacity="1.000000" fill-rule="nonzero"/>
		<path id="Vector" d="M143.34 138.57L143.34 143.37L130.59 143.37L130.59 138.57L143.34 138.57Z" stroke="#263238" stroke-opacity="1.000000" stroke-width="1.000000" stroke-linejoin="round"/>
		<path id="Vector" d="M160.43 139.3L109.72 139.3L112.12 99.98L162.84 99.98L160.43 139.3Z" fill="#919191" fill-opacity="1.000000" fill-rule="nonzero"/>
		<path id="Vector" d="M109.72 139.3L112.12 99.98L162.84 99.98L160.43 139.3L109.72 139.3Z" stroke="#263238" stroke-opacity="1.000000" stroke-width="1.000000" stroke-linejoin="round"/>
		<path id="Vector" d="M158.98 139.3L108.26 139.3L110.66 99.98L161.38 99.98L158.98 139.3Z" fill="#263238" fill-opacity="1.000000" fill-rule="nonzero"/>
		<path id="Vector" d="M108.26 139.3L110.66 99.98L161.38 99.98L158.98 139.3L108.26 139.3Z" stroke="#263238" stroke-opacity="1.000000" stroke-width="1.000000" stroke-linejoin="round"/>
		<path id="Vector" d="M156.3 137.11L111.21 137.11L113.35 102.17L158.43 102.17L156.3 137.11Z" fill="#FFFFFF" fill-opacity="1.000000" fill-rule="nonzero"/>
		<path id="Vector" d="M111.21 137.11L113.35 102.17L158.43 102.17L156.3 137.11L111.21 137.11Z" stroke="#263238" stroke-opacity="1.000000" stroke-width="1.000000" stroke-linejoin="round"/>
		<path id="Vector" d="M143.18 131.9L112.56 131.9L114.2 104.97L144.83 104.97L143.18 131.9Z" fill="#919191" fill-opacity="1.000000" fill-rule="nonzero"/>
		<path id="Vector" d="M112.56 131.9L114.2 104.97L144.83 104.97L143.18 131.9L112.56 131.9Z" stroke="#263238" stroke-opacity="1.000000" stroke-width="1.000000" stroke-linejoin="round"/>
		<path id="Vector" d="M124.64 120.33C124.64 120.33 118.26 122.86 118.22 123.54C118.18 124.22 116.93 131.9 116.93 131.9L135.9 131.9L134.3 123.05L127.29 120.14L124.64 120.33Z" fill="#FFFFFF" fill-opacity="1.000000" fill-rule="nonzero"/>
		<path id="Vector" d="M118.22 123.54C118.18 124.22 116.93 131.9 116.93 131.9L135.9 131.9L134.3 123.05L127.29 120.14L124.64 120.33C124.64 120.33 118.26 122.86 118.22 123.54Z" stroke="#263238" stroke-opacity="1.000000" stroke-width="1.000000" stroke-linejoin="round"/>
		<path id="Vector" d="M124.83 118.78C124.35 118.9 123.9 119.14 123.52 119.46C123.03 119.95 122.42 121.6 122.42 121.6L122.4 123.54L124.91 122.18L127.47 122.01L129.86 124.25L130.17 120.85C130.17 120.85 129.8 118.9 129.03 118.8C128.25 118.7 124.83 118.78 124.83 118.78Z" fill="#FFFFFF" fill-opacity="1.000000" fill-rule="nonzero"/>
		<path id="Vector" d="M123.52 119.46C123.03 119.95 122.42 121.6 122.42 121.6L122.4 123.54L124.91 122.18L127.47 122.01L129.86 124.25L130.17 120.85C130.17 120.85 129.8 118.9 129.03 118.8C128.25 118.7 124.83 118.78 124.83 118.78C124.35 118.9 123.9 119.14 123.52 119.46Z" stroke="#263238" stroke-opacity="1.000000" stroke-width="1.000000" stroke-linejoin="round"/>
		<path id="Vector" d="M124.75 116.93L124.64 120.33L126.14 122.77L128.63 120.24L129.02 117.13L124.75 116.93Z" fill="#FFFFFF" fill-opacity="1.000000" fill-rule="nonzero"/>
		<path id="Vector" d="M124.64 120.33L126.14 122.77L128.63 120.24L129.02 117.13L124.75 116.93L124.64 120.33Z" stroke="#263238" stroke-opacity="1.000000" stroke-width="1.000000" stroke-linejoin="round"/>
		<path id="Vector" d="M130.88 112.95C130.7 115.81 128.81 119.26 126.73 119.26C124.65 119.26 123.18 115.79 123.35 112.95C123.53 110.12 125.34 107.79 127.43 107.79C129.52 107.79 131.06 110.11 130.88 112.95Z" fill="#FFFFFF" fill-opacity="1.000000" fill-rule="nonzero"/>
		<path id="Vector" d="M126.73 119.26C124.65 119.26 123.18 115.79 123.35 112.95C123.53 110.12 125.34 107.79 127.43 107.79C129.52 107.79 131.06 110.11 130.88 112.95C130.7 115.81 128.81 119.26 126.73 119.26Z" stroke="#263238" stroke-opacity="1.000000" stroke-width="1.000000" stroke-linejoin="round"/>
		<path id="Vector" d="M123.32 113.33C123.32 113.33 122.65 111.59 122.37 112.94C122.09 114.3 123.46 115.76 123.46 115.76L123.32 113.33Z" fill="#FFFFFF" fill-opacity="1.000000" fill-rule="nonzero"/>
		<path id="Vector" d="M122.37 112.94C122.09 114.3 123.46 115.76 123.46 115.76L123.32 113.33C123.32 113.33 122.65 111.59 122.37 112.94Z" stroke="#263238" stroke-opacity="1.000000" stroke-width="1.000000" stroke-linejoin="round"/>
		<path id="Vector" d="M130.88 112.95C130.88 112.95 132.52 112.27 132.04 113.72C131.92 114.14 131.71 114.52 131.42 114.84C131.13 115.15 130.77 115.41 130.37 115.57L130.88 112.95Z" fill="#FFFFFF" fill-opacity="1.000000" fill-rule="nonzero"/>
		<path id="Vector" d="M132.04 113.72C131.92 114.14 131.71 114.52 131.42 114.84C131.13 115.15 130.77 115.41 130.37 115.57L130.88 112.95C130.88 112.95 132.52 112.27 132.04 113.72Z" stroke="#263238" stroke-opacity="1.000000" stroke-width="1.000000" stroke-linejoin="round"/>
		<path id="Vector" d="M126.52 113.33C126.54 113.16 126.51 112.98 126.46 112.81C126.4 112.65 126.31 112.5 126.18 112.37C126.06 112.24 125.92 112.14 125.76 112.07C125.6 112 125.42 111.97 125.25 111.97C124.88 111.98 124.53 112.13 124.26 112.38C124 112.63 123.83 112.97 123.8 113.33C123.79 113.51 123.81 113.68 123.87 113.85C123.93 114.01 124.02 114.17 124.14 114.29C124.26 114.42 124.41 114.52 124.57 114.59C124.73 114.66 124.91 114.7 125.08 114.7C125.45 114.69 125.8 114.54 126.06 114.29C126.33 114.04 126.49 113.7 126.52 113.33Z" fill="#FFFFFF" fill-opacity="1.000000" fill-rule="nonzero"/>
		<path id="Vector" d="M126.46 112.81C126.4 112.65 126.31 112.5 126.18 112.37C126.06 112.24 125.92 112.14 125.76 112.07C125.6 112 125.42 111.97 125.25 111.97C124.88 111.98 124.53 112.13 124.26 112.38C124 112.63 123.83 112.97 123.8 113.33C123.79 113.51 123.81 113.68 123.87 113.85C123.93 114.01 124.02 114.17 124.14 114.29C124.26 114.42 124.41 114.52 124.57 114.59C124.73 114.66 124.91 114.7 125.08 114.7C125.45 114.69 125.8 114.54 126.06 114.29C126.33 114.04 126.49 113.7 126.52 113.33C126.54 113.16 126.51 112.98 126.46 112.81Z" stroke="#263238" stroke-opacity="1.000000" stroke-width="1.000000" stroke-linejoin="round"/>
		<path id="Vector" d="M129.83 112.95L131.31 112.95" stroke="#263238" stroke-opacity="1.000000" stroke-width="1.000000" stroke-linejoin="round" stroke-linecap="round"/>
		<path id="Vector" d="M129.83 113.33C129.84 113.16 129.82 112.98 129.76 112.82C129.7 112.65 129.61 112.5 129.49 112.37C129.37 112.24 129.23 112.14 129.06 112.07C128.9 112 128.73 111.97 128.56 111.97C128.19 111.98 127.84 112.12 127.57 112.37C127.3 112.63 127.14 112.97 127.11 113.33C127.09 113.51 127.12 113.68 127.18 113.85C127.23 114.01 127.33 114.17 127.45 114.29C127.57 114.42 127.71 114.52 127.87 114.59C128.03 114.66 128.21 114.7 128.39 114.7C128.75 114.69 129.1 114.54 129.37 114.29C129.64 114.04 129.8 113.7 129.83 113.33Z" fill="#FFFFFF" fill-opacity="1.000000" fill-rule="nonzero"/>
		<path id="Vector" d="M129.76 112.82C129.7 112.65 129.61 112.5 129.49 112.37C129.37 112.24 129.23 112.14 129.06 112.07C128.9 112 128.73 111.97 128.56 111.97C128.19 111.98 127.84 112.12 127.57 112.37C127.3 112.63 127.14 112.97 127.11 113.33C127.09 113.51 127.12 113.68 127.18 113.85C127.23 114.01 127.33 114.17 127.45 114.29C127.57 114.42 127.71 114.52 127.87 114.59C128.03 114.66 128.21 114.7 128.39 114.7C128.75 114.69 129.1 114.54 129.37 114.29C129.64 114.04 129.8 113.7 129.83 113.33C129.84 113.16 129.82 112.98 129.76 112.82Z" stroke="#263238" stroke-opacity="1.000000" stroke-width="1.000000" stroke-linejoin="round"/>
		<path id="Vector" d="M127.09 107.21C127.09 107.21 125.6 106.43 124.49 106.92C123.37 107.4 122.55 110.03 122.6 110.71C122.78 111.6 123.02 112.47 123.32 113.33L124.5 109.93L127.59 108.57L127.09 107.21Z" fill="#263238" fill-opacity="1.000000" fill-rule="nonzero"/>
		<path id="Vector" d="M124.49 106.92C123.37 107.4 122.55 110.03 122.6 110.71C122.78 111.6 123.02 112.47 123.32 113.33L124.5 109.93L127.59 108.57L127.09 107.21C127.09 107.21 125.6 106.43 124.49 106.92Z" stroke="#263238" stroke-opacity="1.000000" stroke-width="1.000000" stroke-linejoin="round"/>
		<path id="Vector" d="M125.59 107.89C125.59 107.89 128.04 105.95 130.03 106.9C130.64 107.16 131.14 107.62 131.45 108.2C131.77 108.78 131.89 109.45 131.78 110.11C131.75 110.6 131.71 112.83 131.71 112.83L130.53 113.02L129.95 111.19C129.28 110.93 128.63 110.62 127.99 110.27C127.99 110.27 125.37 109.93 125.59 107.89Z" fill="#263238" fill-opacity="1.000000" fill-rule="nonzero"/>
		<path id="Vector" d="M130.03 106.9C130.64 107.16 131.14 107.62 131.45 108.2C131.77 108.78 131.89 109.45 131.78 110.11C131.75 110.6 131.71 112.83 131.71 112.83L130.53 113.02L129.95 111.19C129.28 110.93 128.63 110.62 127.99 110.27C127.99 110.27 125.37 109.93 125.59 107.89C125.59 107.89 128.04 105.95 130.03 106.9Z" stroke="#263238" stroke-opacity="1.000000" stroke-width="1.000000" stroke-linejoin="round"/>
		<path id="Vector" d="M126.53 113.33L126.35 116.15L127.03 116.15L126.53 113.33ZM126.05 113.32L126.03 113.3C126.04 113.02 126.28 112.81 126.56 112.83C126.84 112.85 127.04 113.08 127.02 113.36L127 113.38L126.05 113.32ZM127.01 115.67L127.03 115.65C127.31 115.65 127.53 115.87 127.53 116.15C127.53 116.43 127.31 116.65 127.03 116.65L127.01 116.63L127.01 115.67Z" fill="#FFFFFF" fill-opacity="1.000000" fill-rule="nonzero"/>
		<path id="Vector" d="M126.53 113.33L126.35 116.15L127.03 116.15" stroke="#263238" stroke-opacity="1.000000" stroke-width="1.000000" stroke-linejoin="round" stroke-linecap="round"/>
		<path id="Vector" d="M126.01 117.7L125.99 117.72C125.71 117.72 125.49 117.5 125.49 117.22C125.49 116.94 125.71 116.72 125.99 116.72L126.01 116.74L126.01 117.7ZM127.43 116.74L127.45 116.72C127.73 116.72 127.95 116.94 127.95 117.22C127.95 117.5 127.73 117.72 127.45 117.72L127.43 117.7L127.43 116.74Z" fill="#FFFFFF" fill-opacity="1.000000" fill-rule="nonzero"/>
		<path id="Vector" d="M125.99 117.22L127.45 117.22" stroke="#263238" stroke-opacity="1.000000" stroke-width="1.000000" stroke-linejoin="round" stroke-linecap="round"/>
		<path id="Vector" d="M125.61 122.77L126.14 122.77" stroke="#263238" stroke-opacity="1.000000" stroke-width="1.000000" stroke-linejoin="round" stroke-linecap="round"/>
		<path id="Vector" d="M134.29 123.05C134.29 123.05 132.27 127.63 132.21 128.6C132.14 129.57 131.92 131.71 131.92 131.71" stroke="#263238" stroke-opacity="1.000000" stroke-width="1.000000" stroke-linejoin="round" stroke-linecap="round"/>
		<path id="Vector" d="M118.22 123.54C118.22 123.54 120.24 127.04 120.5 127.51C120.77 127.97 120.44 131.69 120.44 131.69" stroke="#263238" stroke-opacity="1.000000" stroke-width="1.000000" stroke-linejoin="round" stroke-linecap="round"/>
		<path id="Vector" d="M135.65 126.36L136.32 123.35L137.46 122.18L138.53 120.43L139.02 120.43L138.42 122.28L139.93 121.4L140.9 119.85L141.47 120.14L140.08 123.74L137.88 124.8L137.5 126.26L135.65 126.36Z" fill="#FFFFFF" fill-opacity="1.000000" fill-rule="nonzero"/>
		<path id="Vector" d="M136.32 123.35L137.46 122.18L138.53 120.43L139.02 120.43L138.42 122.28L139.93 121.4L140.9 119.85L141.47 120.14L140.08 123.74L137.88 124.8L137.5 126.26L135.65 126.36L136.32 123.35Z" stroke="#263238" stroke-opacity="1.000000" stroke-width="1.000000" stroke-linejoin="round"/>
		<path id="Vector" d="M137.53 131.9L137.72 125.87L135.5 125.48L133.76 131.9L137.53 131.9Z" fill="#FFFFFF" fill-opacity="1.000000" fill-rule="nonzero"/>
		<path id="Vector" d="M137.72 125.87L135.5 125.48L133.76 131.9L137.53 131.9L137.72 125.87Z" stroke="#263238" stroke-opacity="1.000000" stroke-width="1.000000" stroke-linejoin="round"/>
		<path id="Vector" d="M143.05 134.14L112.42 134.14L112.56 131.9L143.18 131.9L143.05 134.14Z" fill="#FFFFFF" fill-opacity="1.000000" fill-rule="nonzero"/>
		<path id="Vector" d="M112.42 134.14L112.56 131.9L143.18 131.9L143.05 134.14L112.42 134.14Z" stroke="#263238" stroke-opacity="1.000000" stroke-width="1.000000" stroke-linejoin="round"/>
		<path id="Vector" d="M113.69 133.26L113.67 133.28C113.39 133.28 113.17 133.06 113.17 132.78C113.17 132.5 113.39 132.28 113.67 132.28L113.69 132.3L113.69 133.26ZM141.75 132.3L141.77 132.28C142.05 132.28 142.27 132.5 142.27 132.78C142.27 133.06 142.05 133.28 141.77 133.28L141.75 133.26L141.75 132.3Z" fill="#FFFFFF" fill-opacity="1.000000" fill-rule="nonzero"/>
		<path id="Vector" d="M113.67 132.78L141.77 132.78" stroke="#263238" stroke-opacity="1.000000" stroke-width="1.000000" stroke-linejoin="round" stroke-linecap="round"/>
		<path id="Vector" d="M156.35 112.16L146.04 112.16L146.47 105.06L156.78 105.06L156.35 112.16Z" fill="#CBCBCB" fill-opacity="1.000000" fill-rule="nonzero"/>
		<path id="Vector" d="M146.04 112.16L146.47 105.06L156.78 105.06L156.35 112.16L146.04 112.16Z" stroke="#263238" stroke-opacity="1.000000" stroke-width="1.000000" stroke-linejoin="round"/>
		<path id="Vector" d="M156.35 112.16L146.04 112.16L146.11 111L156.42 111L156.35 112.16Z" fill="#FFFFFF" fill-opacity="1.000000" fill-rule="nonzero"/>
		<path id="Vector" d="M146.04 112.16L146.11 111L156.42 111L156.35 112.16L146.04 112.16Z" stroke="#263238" stroke-opacity="1.000000" stroke-width="1.000000" stroke-linejoin="round"/>
		<path id="Vector" d="M153.02 108.2L150.34 106.6L150.14 109.8L153.02 108.2Z" fill="#FFFFFF" fill-opacity="1.000000" fill-rule="nonzero"/>
		<path id="Vector" d="M150.34 106.6L150.14 109.8L153.02 108.2L150.34 106.6Z" stroke="#263238" stroke-opacity="1.000000" stroke-width="1.000000" stroke-linejoin="round"/>
		<path id="Vector" d="M155.67 123.15L145.37 123.15L145.8 116.05L156.11 116.05L155.67 123.15Z" fill="#CBCBCB" fill-opacity="1.000000" fill-rule="nonzero"/>
		<path id="Vector" d="M145.37 123.15L145.8 116.05L156.11 116.05L155.67 123.15L145.37 123.15Z" stroke="#263238" stroke-opacity="1.000000" stroke-width="1.000000" stroke-linejoin="round"/>
		<path id="Vector" d="M155.67 123.15L145.37 123.15L145.44 121.98L155.74 121.98L155.67 123.15Z" fill="#FFFFFF" fill-opacity="1.000000" fill-rule="nonzero"/>
		<path id="Vector" d="M145.37 123.15L145.44 121.98L155.74 121.98L155.67 123.15L145.37 123.15Z" stroke="#263238" stroke-opacity="1.000000" stroke-width="1.000000" stroke-linejoin="round"/>
		<path id="Vector" d="M152.35 119.19L149.67 117.59L149.48 120.79L152.35 119.19Z" fill="#FFFFFF" fill-opacity="1.000000" fill-rule="nonzero"/>
		<path id="Vector" d="M149.67 117.59L149.48 120.79L152.35 119.19L149.67 117.59Z" stroke="#263238" stroke-opacity="1.000000" stroke-width="1.000000" stroke-linejoin="round"/>
		<path id="Vector" d="M155 134.14L144.7 134.14L145.13 127.04L155.44 127.04L155 134.14Z" fill="#CBCBCB" fill-opacity="1.000000" fill-rule="nonzero"/>
		<path id="Vector" d="M144.7 134.14L145.13 127.04L155.44 127.04L155 134.14L144.7 134.14Z" stroke="#263238" stroke-opacity="1.000000" stroke-width="1.000000" stroke-linejoin="round"/>
		<path id="Vector" d="M155 134.14L144.7 134.14L144.77 132.97L155.08 132.97L155 134.14Z" fill="#FFFFFF" fill-opacity="1.000000" fill-rule="nonzero"/>
		<path id="Vector" d="M144.7 134.14L144.77 132.97L155.08 132.97L155 134.14L144.7 134.14Z" stroke="#263238" stroke-opacity="1.000000" stroke-width="1.000000" stroke-linejoin="round"/>
		<path id="Vector" d="M151.67 130.17L149 128.57L148.8 131.78L151.67 130.17Z" fill="#FFFFFF" fill-opacity="1.000000" fill-rule="nonzero"/>
		<path id="Vector" d="M149 128.57L148.8 131.78L151.67 130.17L149 128.57Z" stroke="#263238" stroke-opacity="1.000000" stroke-width="1.000000" stroke-linejoin="round"/>
		<path id="Vector" d="M146.07 113.33L156.07 113.33" stroke="#263238" stroke-opacity="1.000000" stroke-width="1.000000" stroke-linejoin="round" stroke-linecap="round"/>
		<path id="Vector" d="M146 114.5L156.01 114.5" stroke="#263238" stroke-opacity="1.000000" stroke-width="1.000000" stroke-linejoin="round" stroke-linecap="round"/>
		<path id="Vector" d="M145.39 124.41L155.4 124.41" stroke="#263238" stroke-opacity="1.000000" stroke-width="1.000000" stroke-linejoin="round" stroke-linecap="round"/>
		<path id="Vector" d="M145.32 125.58L155.33 125.58" stroke="#263238" stroke-opacity="1.000000" stroke-width="1.000000" stroke-linejoin="round" stroke-linecap="round"/>
		<path id="Vector" d="M140.95 143.37L133.42 143.37C133.42 142.62 133.72 141.9 134.25 141.37C134.78 140.84 135.5 140.54 136.25 140.54L138.11 140.54C138.86 140.54 139.58 140.84 140.11 141.37C140.64 141.9 140.94 142.62 140.94 143.37L140.95 143.37Z" fill="#FFFFFF" fill-opacity="1.000000" fill-rule="nonzero"/>
		<path id="Vector" d="M133.42 143.37C133.42 142.62 133.72 141.9 134.25 141.37C134.78 140.84 135.5 140.54 136.25 140.54L138.11 140.54C138.86 140.54 139.58 140.84 140.11 141.37C140.64 141.9 140.94 142.62 140.94 143.37L140.95 143.37L133.42 143.37Z" stroke="#263238" stroke-opacity="1.000000" stroke-width="1.000000" stroke-linejoin="round"/>
		<path id="Vector" d="M129.83 141.83L93.02 141.83L93.02 143.37L129.83 143.37L129.83 141.83Z" fill="#919191" fill-opacity="1.000000" fill-rule="nonzero"/>
		<path id="Vector" d="M129.83 141.83L129.83 143.37L93.02 143.37L93.02 141.83L129.83 141.83Z" stroke="#263238" stroke-opacity="1.000000" stroke-width="1.000000" stroke-linejoin="round"/>
		<path id="Vector" d="M129.82 141.83L120.57 141.83L120.57 143.37L129.82 143.37L129.82 141.83Z" fill="#FFFFFF" fill-opacity="1.000000" fill-rule="nonzero"/>
		<path id="Vector" d="M129.82 141.83L129.82 143.37L120.57 143.37L120.57 141.83L129.82 141.83Z" stroke="#263238" stroke-opacity="1.000000" stroke-width="1.000000" stroke-linejoin="round"/>
		<path id="Vector" d="M77.93 38.46L77.93 67.76" stroke="#263238" stroke-opacity="1.000000" stroke-width="1.000000" stroke-linejoin="round" stroke-linecap="round"/>
		<path id="Vector" d="M77.93 70.68L77.93 214.45" stroke="#263238" stroke-opacity="1.000000" stroke-width="1.000000" stroke-linejoin="round" stroke-linecap="round"/>
		<path id="Vector" d="M144.86 153.66L149.33 213.84C149.35 214.06 149.46 214.26 149.62 214.4C149.79 214.55 150.01 214.62 150.23 214.61C150.45 214.6 150.66 214.51 150.81 214.35C150.97 214.19 151.05 213.98 151.06 213.76L150.39 153.66L144.86 153.66Z" fill="#919191" fill-opacity="1.000000" fill-rule="nonzero"/>
		<path id="Vector" d="M149.33 213.84C149.35 214.06 149.46 214.26 149.62 214.4C149.79 214.55 150.01 214.62 150.23 214.61C150.45 214.6 150.66 214.51 150.81 214.35C150.97 214.19 151.05 213.98 151.06 213.76L150.39 153.66L144.86 153.66L149.33 213.84Z" stroke="#263238" stroke-opacity="1.000000" stroke-width="1.000000" stroke-linejoin="round"/>
		<path id="Vector" d="M148.23 153.66L150.59 214.53C150.73 214.46 150.84 214.35 150.92 214.21C151 214.07 151.04 213.92 151.04 213.76L150.39 153.66L148.23 153.66Z" fill="#FFFFFF" fill-opacity="1.000000" fill-rule="nonzero"/>
		<path id="Vector" d="M150.59 214.53C150.73 214.46 150.84 214.35 150.92 214.21C151 214.07 151.04 213.92 151.04 213.76L150.39 153.66L148.23 153.66L150.59 214.53Z" stroke="#263238" stroke-opacity="1.000000" stroke-width="1.000000" stroke-linejoin="round"/>
		<path id="Vector" d="M172.92 153.66L177.39 213.84C177.41 214.06 177.52 214.26 177.68 214.4C177.85 214.55 178.07 214.62 178.29 214.61C178.51 214.6 178.72 214.51 178.87 214.35C179.02 214.19 179.11 213.98 179.12 213.76L178.45 153.66L172.92 153.66Z" fill="#919191" fill-opacity="1.000000" fill-rule="nonzero"/>
		<path id="Vector" d="M177.39 213.84C177.41 214.06 177.52 214.26 177.68 214.4C177.85 214.55 178.07 214.62 178.29 214.61C178.51 214.6 178.72 214.51 178.87 214.35C179.02 214.19 179.11 213.98 179.12 213.76L178.45 153.66L172.92 153.66L177.39 213.84Z" stroke="#263238" stroke-opacity="1.000000" stroke-width="1.000000" stroke-linejoin="round"/>
		<path id="Vector" d="M176.03 153.66L178.77 214.44C178.88 214.36 178.96 214.26 179.02 214.14C179.07 214.02 179.1 213.89 179.1 213.76L178.45 153.66L176.03 153.66Z" fill="#FFFFFF" fill-opacity="1.000000" fill-rule="nonzero"/>
		<path id="Vector" d="M178.77 214.44C178.88 214.36 178.96 214.26 179.02 214.14C179.07 214.02 179.1 213.89 179.1 213.76L178.45 153.66L176.03 153.66L178.77 214.44Z" stroke="#263238" stroke-opacity="1.000000" stroke-width="1.000000" stroke-linejoin="round"/>
		<path id="Vector" d="M98.96 154.31L94.49 213.83C94.48 214.05 94.38 214.25 94.22 214.4C94.06 214.55 93.85 214.64 93.63 214.64C93.51 214.64 93.4 214.62 93.29 214.57C93.19 214.53 93.09 214.47 93.01 214.39C92.93 214.31 92.86 214.21 92.82 214.11C92.77 214 92.75 213.89 92.75 213.77L93.41 154.15L98.96 154.31Z" fill="#263238" fill-opacity="1.000000" fill-rule="nonzero"/>
		<path id="Vector" d="M94.49 213.83C94.48 214.05 94.38 214.25 94.22 214.4C94.06 214.55 93.85 214.64 93.63 214.64C93.51 214.64 93.4 214.62 93.29 214.57C93.19 214.53 93.09 214.47 93.01 214.39C92.93 214.31 92.86 214.21 92.82 214.11C92.77 214 92.75 213.89 92.75 213.77L93.41 154.15L98.96 154.31L94.49 213.83Z" stroke="#263238" stroke-opacity="1.000000" stroke-width="1.000000" stroke-linejoin="round"/>
		<path id="Vector" d="M70.92 154.31L66.46 213.83C66.44 214.05 66.35 214.25 66.19 214.4C66.03 214.55 65.82 214.64 65.6 214.63C65.48 214.63 65.37 214.61 65.26 214.57C65.16 214.52 65.06 214.46 64.98 214.38C64.9 214.29 64.84 214.2 64.8 214.09C64.75 213.98 64.73 213.87 64.73 213.76L65.39 154.14L70.92 154.31Z" fill="#263238" fill-opacity="1.000000" fill-rule="nonzero"/>
		<path id="Vector" d="M66.46 213.83C66.44 214.05 66.35 214.25 66.19 214.4C66.03 214.55 65.82 214.64 65.6 214.63C65.48 214.63 65.37 214.61 65.26 214.57C65.16 214.52 65.06 214.46 64.98 214.38C64.9 214.29 64.84 214.2 64.8 214.09C64.75 213.98 64.73 213.87 64.73 213.76L65.39 154.14L70.92 154.31L66.46 213.83Z" stroke="#263238" stroke-opacity="1.000000" stroke-width="1.000000" stroke-linejoin="round"/>
		<path id="Vector" d="M180.09 144.77L63.71 144.77L63.71 154.14L180.09 154.14L180.09 144.77Z" fill="#919191" fill-opacity="1.000000" fill-rule="nonzero"/>
		<path id="Vector" d="M180.09 144.77L180.09 154.14L63.71 154.14L63.71 144.77L180.09 144.77Z" stroke="#263238" stroke-opacity="1.000000" stroke-width="1.000000" stroke-linejoin="round"/>
		<path id="Vector" d="M180.09 144.77L146.74 144.77L146.74 154.14L180.09 154.14L180.09 144.77Z" fill="#FFFFFF" fill-opacity="1.000000" fill-rule="nonzero"/>
		<path id="Vector" d="M180.09 144.77L180.09 154.14L146.74 154.14L146.74 144.77L180.09 144.77Z" stroke="#263238" stroke-opacity="1.000000" stroke-width="1.000000" stroke-linejoin="round"/>
		<path id="Vector" d="M180.09 146.26L63.71 146.26L63.71 148.84L180.09 148.84L180.09 146.26Z" fill="#263238" fill-opacity="1.000000" fill-rule="nonzero"/>
		<path id="Vector" d="M180.09 146.26L180.09 148.84L63.71 148.84L63.71 146.26L180.09 146.26Z" stroke="#263238" stroke-opacity="1.000000" stroke-width="1.000000" stroke-linejoin="round"/>
		<path id="Vector" d="M181.77 143.42L62.04 143.42L62.04 146.56L181.77 146.56L181.77 143.42Z" fill="#919191" fill-opacity="1.000000" fill-rule="nonzero"/>
		<path id="Vector" d="M181.77 143.42L181.77 146.56L62.04 146.56L62.04 143.42L181.77 143.42Z" stroke="#263238" stroke-opacity="1.000000" stroke-width="1.000000" stroke-linejoin="round"/>
		<path id="Vector" d="M181.76 143.42L148.88 143.42L148.88 146.56L181.76 146.56L181.76 143.42Z" fill="#FFFFFF" fill-opacity="1.000000" fill-rule="nonzero"/>
		<path id="Vector" d="M181.76 143.42L181.76 146.56L148.88 146.56L148.88 143.42L181.76 143.42Z" stroke="#263238" stroke-opacity="1.000000" stroke-width="1.000000" stroke-linejoin="round"/>
		<path id="Vector" d="M146.46 85.31L130.3 85.31C129.46 85.31 128.65 85.64 128.06 86.24C127.46 86.83 127.13 87.64 127.13 88.48L127.13 94.43C127.12 94.85 127.21 95.26 127.37 95.65C127.52 96.03 127.76 96.38 128.05 96.68C128.35 96.97 128.7 97.21 129.08 97.37C129.47 97.53 129.88 97.61 130.3 97.61L138.76 97.61L135.59 106.46L141.66 97.61L146.46 97.61C146.88 97.61 147.29 97.53 147.67 97.37C148.06 97.21 148.41 96.97 148.71 96.68C149 96.38 149.23 96.03 149.39 95.65C149.55 95.26 149.63 94.85 149.63 94.43L149.63 88.48C149.63 87.64 149.3 86.83 148.7 86.24C148.11 85.64 147.3 85.31 146.46 85.31Z" fill="#FFFFFF" fill-opacity="1.000000" fill-rule="nonzero"/>
		<path id="Vector" d="M130.3 85.31C129.46 85.31 128.65 85.64 128.06 86.24C127.46 86.83 127.13 87.64 127.13 88.48L127.13 94.43C127.12 94.85 127.21 95.26 127.37 95.65C127.52 96.03 127.76 96.38 128.05 96.68C128.35 96.97 128.7 97.21 129.08 97.37C129.47 97.53 129.88 97.61 130.3 97.61L138.76 97.61L135.59 106.46L141.66 97.61L146.46 97.61C146.88 97.61 147.29 97.53 147.67 97.37C148.06 97.21 148.41 96.97 148.71 96.68C149 96.38 149.23 96.03 149.39 95.65C149.55 95.26 149.63 94.85 149.63 94.43L149.63 88.48C149.63 87.64 149.3 86.83 148.7 86.24C148.11 85.64 147.3 85.31 146.46 85.31L130.3 85.31Z" stroke="#263238" stroke-opacity="1.000000" stroke-width="1.000000" stroke-linejoin="round"/>
		<path id="Vector" d="M135.21 91.66C135.21 92.29 134.69 92.81 134.05 92.81C133.41 92.81 132.89 92.29 132.89 91.66C132.89 91.02 133.41 90.5 134.05 90.5C134.69 90.5 135.21 91.02 135.21 91.66Z" fill="#263238" fill-opacity="1.000000" fill-rule="evenodd"/>
		<path id="Vector" d="M139.54 91.66C139.54 92.29 139.02 92.81 138.38 92.81C137.74 92.81 137.22 92.29 137.22 91.66C137.22 91.02 137.74 90.5 138.38 90.5C139.02 90.5 139.54 91.02 139.54 91.66Z" fill="#263238" fill-opacity="1.000000" fill-rule="evenodd"/>
		<path id="Vector" d="M143.86 91.66C143.86 91.43 143.79 91.2 143.67 91.01C143.54 90.82 143.36 90.68 143.15 90.59C142.94 90.5 142.7 90.48 142.48 90.52C142.25 90.57 142.05 90.68 141.89 90.84C141.73 91 141.62 91.21 141.57 91.43C141.53 91.66 141.55 91.89 141.64 92.1C141.73 92.31 141.88 92.49 142.07 92.62C142.26 92.75 142.48 92.81 142.71 92.81C142.86 92.81 143.01 92.78 143.15 92.72C143.29 92.67 143.42 92.58 143.53 92.47C143.63 92.37 143.72 92.24 143.78 92.1C143.83 91.96 143.86 91.81 143.86 91.66Z" fill="#263238" fill-opacity="1.000000" fill-rule="nonzero"/>
		<path id="Vector" d="M223.2 214.77L236.59 214.77" stroke="#263238" stroke-opacity="1.000000" stroke-width="1.000000" stroke-linejoin="round" stroke-linecap="round"/>
		<path id="Vector" d="M11.9 214.77L216.25 214.77" stroke="#263238" stroke-opacity="1.000000" stroke-width="1.000000" stroke-linejoin="round" stroke-linecap="round"/>
		<path id="Vector" d="M90.58 127.11C89.13 124.63 84.86 115.08 84.86 115.08C84.99 114.06 85.19 113.05 85.48 112.07C85.83 111.08 86.72 108.07 86.54 107.44C86.36 106.82 83.79 105.67 83.53 105.58C83.26 105.49 83.88 103.98 82.9 103.62C81.92 103.27 81.57 103.8 81.57 103.8L81.2 106.28L80.06 108.07C79.58 107.71 79.09 107.38 78.57 107.08C77.77 106.63 75.91 106.45 75.82 107.17C75.73 107.88 77.31 108.5 77.86 108.94C78.41 109.39 79.1 111.52 79.73 112.14C80.3 112.76 80.83 113.41 81.32 114.09L81.68 115.25C81.68 115.25 82.9 126.95 83.04 129.86C83.18 132.77 83.62 140.47 84.49 141.63C85.37 142.79 85.52 143.53 87.97 142.66C90.42 141.78 90.87 140.62 91.44 138C92 135.38 92.04 129.58 90.58 127.11Z" fill="#FFFFFF" fill-opacity="1.000000" fill-rule="nonzero"/>
		<path id="Vector" d="M84.86 115.08C84.99 114.06 85.19 113.05 85.48 112.07C85.83 111.08 86.72 108.07 86.54 107.44C86.36 106.82 83.79 105.67 83.53 105.58C83.26 105.49 83.88 103.98 82.9 103.62C81.92 103.27 81.57 103.8 81.57 103.8L81.2 106.28L80.06 108.07C79.58 107.71 79.09 107.38 78.57 107.08C77.77 106.63 75.91 106.45 75.82 107.17C75.73 107.88 77.31 108.5 77.86 108.94C78.41 109.39 79.1 111.52 79.73 112.14C80.3 112.76 80.83 113.41 81.32 114.09L81.68 115.25C81.68 115.25 82.9 126.95 83.04 129.86C83.18 132.77 83.62 140.47 84.49 141.63C85.37 142.79 85.52 143.53 87.97 142.66C90.42 141.78 90.87 140.62 91.44 138C92 135.38 92.04 129.58 90.58 127.11C89.13 124.63 84.86 115.08 84.86 115.08Z" stroke="#263238" stroke-opacity="1.000000" stroke-width="1.000000" stroke-linejoin="round"/>
		<path id="Vector" d="M91.46 138.01C92.04 135.4 92.04 129.58 90.58 127.1C90.42 126.83 90.23 126.48 90.01 126.06C86.72 125.1 83.6 126.66 83.6 126.66L82.81 127.01C82.91 128.23 82.99 129.24 83.02 129.86C83.17 132.77 83.6 140.48 84.47 141.64C85.35 142.8 85.5 143.53 87.95 142.66C90.4 141.79 90.87 140.63 91.46 138.01Z" fill="#CBCBCB" fill-opacity="1.000000" fill-rule="nonzero"/>
		<path id="Vector" d="M90.58 127.1C90.42 126.83 90.23 126.48 90.01 126.06C86.72 125.1 83.6 126.66 83.6 126.66L82.81 127.01C82.91 128.23 82.99 129.24 83.02 129.86C83.17 132.77 83.6 140.48 84.47 141.64C85.35 142.8 85.5 143.53 87.95 142.66C90.4 141.79 90.87 140.63 91.46 138.01C92.04 135.4 92.04 129.58 90.58 127.1Z" stroke="#263238" stroke-opacity="1.000000" stroke-width="1.000000" stroke-linejoin="round"/>
		<path id="Vector" d="M79.98 87.79C80.34 89.1 80.54 90.46 80.58 91.82C80.58 93.76 79.98 94.95 80.88 95.55C81.78 96.14 82.52 96.15 82.37 97.35C82.31 98 82.05 98.63 81.62 99.14C81.62 99.14 81.32 105.26 81.02 105.86C80.72 106.46 76.84 105.71 75.94 105.55C75.05 105.4 72.51 106.6 70.86 103.32C69.22 100.03 70.57 95.1 73.55 92.56C75.61 90.85 77.75 89.26 79.98 87.79Z" fill="#FFFFFF" fill-opacity="1.000000" fill-rule="nonzero"/>
		<path id="Vector" d="M80.58 91.82C80.58 93.76 79.98 94.95 80.88 95.55C81.78 96.14 82.52 96.15 82.37 97.35C82.31 98 82.05 98.63 81.62 99.14C81.62 99.14 81.32 105.26 81.02 105.86C80.72 106.46 76.84 105.71 75.94 105.55C75.05 105.4 72.51 106.6 70.86 103.32C69.22 100.03 70.57 95.1 73.55 92.56C75.61 90.85 77.75 89.26 79.98 87.79C80.34 89.1 80.54 90.46 80.58 91.82Z" stroke="#263238" stroke-opacity="1.000000" stroke-width="1.000000" stroke-linejoin="round"/>
		<path id="Vector" d="M80.58 91.8C80.58 91.8 79.77 91.19 79.34 92.25" stroke="#263238" stroke-opacity="1.000000" stroke-width="1.000000" stroke-linejoin="round" stroke-linecap="round"/>
		<path id="Vector" d="M79.85 94.27C79.74 94.87 79.77 95.49 79.96 96.07" stroke="#263238" stroke-opacity="1.000000" stroke-width="1.000000" stroke-linejoin="round" stroke-linecap="round"/>
		<path id="Vector" d="M81.34 101.28C81.21 101.32 81.07 101.34 80.93 101.32C80.79 101.31 80.66 101.26 80.54 101.19C80.41 101.12 80.31 101.03 80.23 100.91C80.15 100.8 80.09 100.67 80.06 100.54" stroke="#263238" stroke-opacity="1.000000" stroke-width="1.000000" stroke-linejoin="round" stroke-linecap="round"/>
		<path id="Vector" d="M83.03 129.35C83.03 129.35 82.53 131.62 82.09 132.82C81.65 134.02 73.73 136.23 70.29 136.68C68.02 136.97 65.73 137.12 63.44 137.13L63.66 143.41C63.66 143.41 70.34 143.55 70.81 143.41C71.28 143.28 82.52 138.25 82.52 138.25L87.37 137.62C87.37 137.62 89.41 137.12 89.49 135.54C89.57 133.96 87.77 129.46 86.95 128.76C86.13 128.06 84.4 126.21 83.37 127.35C82.33 128.49 83.03 129.35 83.03 129.35Z" fill="#FFFFFF" fill-opacity="1.000000" fill-rule="nonzero"/>
		<path id="Vector" d="M82.09 132.82C81.65 134.02 73.73 136.23 70.29 136.68C68.02 136.97 65.73 137.12 63.44 137.13L63.66 143.41C63.66 143.41 70.34 143.55 70.81 143.41C71.28 143.28 82.52 138.25 82.52 138.25L87.37 137.62C87.37 137.62 89.41 137.12 89.49 135.54C89.57 133.96 87.77 129.46 86.95 128.76C86.13 128.06 84.4 126.21 83.37 127.35C82.33 128.49 83.03 129.35 83.03 129.35C83.03 129.35 82.53 131.62 82.09 132.82Z" stroke="#263238" stroke-opacity="1.000000" stroke-width="1.000000" stroke-linejoin="round"/>
		<path id="Vector" d="M68.15 140.63C68.15 137.91 68.84 137.84 69.63 136.77C67.58 137 65.52 137.12 63.46 137.14L63.29 142.9C63.29 142.9 66.95 143.24 69.18 143.39C68.99 143.68 68.15 142.37 68.15 140.63Z" fill="#CBCBCB" fill-opacity="1.000000" fill-rule="nonzero"/>
		<path id="Vector" d="M69.63 136.77C67.58 137 65.52 137.12 63.46 137.14L63.29 142.9C63.29 142.9 66.95 143.24 69.18 143.39C68.99 143.68 68.15 142.37 68.15 140.63C68.15 137.91 68.84 137.84 69.63 136.77Z" stroke="#263238" stroke-opacity="1.000000" stroke-width="1.000000" stroke-linejoin="round"/>
		<path id="Vector" d="M89.7 152.83C87.06 149.86 83.7 147.62 79.95 146.32L71.24 150.03C70.56 148.37 69.67 146.81 68.57 145.39L66.95 143.4L67.99 137.72C67.99 137.72 74.26 133.42 75.07 131.56L75.1 131.5C76.36 133.45 81.83 141.89 82.85 142.7C84.01 143.64 87.49 143.75 89 142.36C90.51 140.96 91.21 140.04 90.86 137.95C90.86 137.95 88.54 132.95 87.26 130.75C85.98 128.54 83.2 120.65 81.8 118.21C80.81 116.46 80.4 115.23 79.7 114.41C79.21 113.57 78.63 112.78 77.98 112.06C76.58 110.57 72.75 110.2 71.93 109.85C71.12 109.5 71.01 109.38 66.36 108C61.72 106.61 56.49 105.79 52.78 108.69C52.78 108.69 47.79 114.61 45.83 124.36C43.88 134.11 43.74 143.98 43.51 145.73C43.29 147.47 41.31 155.94 40.73 160.82C40.15 165.69 45.24 170.59 48.37 172.11C51.5 173.63 64.97 173.85 72.87 172.11C80.76 170.37 93.3 162.47 93.3 162.47C93.3 162.47 93.76 157.59 89.7 152.83Z" fill="#CBCBCB" fill-opacity="1.000000" fill-rule="nonzero"/>
		<path id="Vector" d="M79.95 146.32L71.24 150.03C70.56 148.37 69.67 146.81 68.57 145.39L66.95 143.4L67.99 137.72C67.99 137.72 74.26 133.42 75.07 131.56L75.1 131.5C76.36 133.45 81.83 141.89 82.85 142.7C84.01 143.64 87.49 143.75 89 142.36C90.51 140.96 91.21 140.04 90.86 137.95C90.86 137.95 88.54 132.95 87.26 130.75C85.98 128.54 83.2 120.65 81.8 118.21C80.81 116.46 80.4 115.23 79.7 114.41C79.21 113.57 78.63 112.78 77.98 112.06C76.58 110.57 72.75 110.2 71.93 109.85C71.12 109.5 71.01 109.38 66.36 108C61.72 106.61 56.49 105.79 52.78 108.69C52.78 108.69 47.79 114.61 45.83 124.36C43.88 134.11 43.74 143.98 43.51 145.73C43.29 147.47 41.31 155.94 40.73 160.82C40.15 165.69 45.24 170.59 48.37 172.11C51.5 173.63 64.97 173.85 72.87 172.11C80.76 170.37 93.3 162.47 93.3 162.47C93.3 162.47 93.76 157.59 89.7 152.83C87.06 149.86 83.7 147.62 79.95 146.32Z" stroke="#263238" stroke-opacity="1.000000" stroke-width="1.000000" stroke-linejoin="round"/>
		<path id="Vector" d="M67.58 131.32L69.17 131.32" stroke="#263238" stroke-opacity="1.000000" stroke-width="1.000000" stroke-linejoin="round" stroke-linecap="round"/>
		<path id="Vector" d="M68.57 128.84C70.8 129.59 72.97 130.51 75.07 131.58L70.98 131.44" stroke="#263238" stroke-opacity="1.000000" stroke-width="1.000000" stroke-linejoin="round" stroke-linecap="round"/>
		<path id="Vector" d="M90.14 131.77C90.6 132.49 90.88 133.31 90.97 134.16C90.97 135.25 91.15 136.72 90.69 136.27C90.24 135.81 90.05 134.25 90.05 134.25L90.14 131.77Z" fill="#FFFFFF" fill-opacity="1.000000" fill-rule="nonzero"/>
		<path id="Vector" d="M90.97 134.16C90.97 135.25 91.15 136.72 90.69 136.27C90.24 135.81 90.05 134.25 90.05 134.25L90.14 131.77C90.6 132.49 90.88 133.31 90.97 134.16Z" stroke="#263238" stroke-opacity="1.000000" stroke-width="1.000000" stroke-linejoin="round"/>
		<path id="Vector" d="M87.4 130.49C87.4 130.49 89.11 129.56 89.88 130.68C90.64 131.8 90.44 134.04 89.88 135.14C89.32 136.25 88.67 135.2 88.75 134.21C88.83 133.23 87.4 130.49 87.4 130.49Z" fill="#FFFFFF" fill-opacity="1.000000" fill-rule="nonzero"/>
		<path id="Vector" d="M89.88 130.68C90.64 131.8 90.44 134.04 89.88 135.14C89.32 136.25 88.67 135.2 88.75 134.21C88.83 133.23 87.4 130.49 87.4 130.49C87.4 130.49 89.11 129.56 89.88 130.68Z" stroke="#263238" stroke-opacity="1.000000" stroke-width="1.000000" stroke-linejoin="round"/>
		<path id="Vector" d="M86.75 129.3C86.75 129.3 88.47 128.37 89.23 129.49C89.99 130.61 89.79 132.84 89.23 133.95C88.67 135.07 88.03 134 88.11 133.02C88.19 132.04 86.75 129.3 86.75 129.3Z" fill="#FFFFFF" fill-opacity="1.000000" fill-rule="nonzero"/>
		<path id="Vector" d="M89.23 129.49C89.99 130.61 89.79 132.84 89.23 133.95C88.67 135.07 88.03 134 88.11 133.02C88.19 132.04 86.75 129.3 86.75 129.3C86.75 129.3 88.47 128.37 89.23 129.49Z" stroke="#263238" stroke-opacity="1.000000" stroke-width="1.000000" stroke-linejoin="round"/>
		<path id="Vector" d="M85.96 128.02C85.96 128.02 87.68 127.09 88.44 128.21C89.2 129.33 89 131.56 88.44 132.67C87.88 133.78 87.24 132.72 87.32 131.74C87.4 130.76 85.96 128.02 85.96 128.02Z" fill="#FFFFFF" fill-opacity="1.000000" fill-rule="nonzero"/>
		<path id="Vector" d="M88.44 128.21C89.2 129.33 89 131.56 88.44 132.67C87.88 133.78 87.24 132.72 87.32 131.74C87.4 130.76 85.96 128.02 85.96 128.02C85.96 128.02 87.68 127.09 88.44 128.21Z" stroke="#263238" stroke-opacity="1.000000" stroke-width="1.000000" stroke-linejoin="round"/>
		<path id="Vector" d="M81.61 83.13C81.64 84.91 81.18 86.67 80.28 88.21C77.74 92.09 75.35 91.64 74.33 94.78C73.3 97.92 71.77 101.18 73.4 103C75.04 104.81 76.38 103.74 76.38 103.74C76.38 103.74 77.43 106.43 74.74 109.12C72.05 111.8 67.42 110.76 66.23 110.31C65.47 110.02 64.77 109.62 64.14 109.12C64.14 109.12 63.39 111.21 59.67 111.21C55.96 111.21 51.74 108.67 51.74 104.04C51.74 99.4 54.27 96.27 54.87 94.48C55.47 92.68 53.83 87.16 56.36 83.73C58.9 80.3 62.81 77.78 65.79 77.78C68.76 77.78 74.57 79.41 74.59 79.42C74.99 79.63 77.5 78.61 78.17 78.66C80.67 78.79 81.58 80.84 81.61 83.13Z" fill="#263238" fill-opacity="1.000000" fill-rule="nonzero"/>
		<path id="Vector" d="M80.28 88.21C77.74 92.09 75.35 91.64 74.33 94.78C73.3 97.92 71.77 101.18 73.4 103C75.04 104.81 76.38 103.74 76.38 103.74C76.38 103.74 77.43 106.43 74.74 109.12C72.05 111.8 67.42 110.76 66.23 110.31C65.47 110.02 64.77 109.62 64.14 109.12C64.14 109.12 63.39 111.21 59.67 111.21C55.96 111.21 51.74 108.67 51.74 104.04C51.74 99.4 54.27 96.27 54.87 94.48C55.47 92.68 53.83 87.16 56.36 83.73C58.9 80.3 62.81 77.78 65.79 77.78C68.76 77.78 74.57 79.41 74.59 79.42C74.99 79.63 77.5 78.61 78.17 78.66C80.67 78.79 81.58 80.84 81.61 83.13C81.64 84.91 81.18 86.67 80.28 88.21Z" stroke="#263238" stroke-opacity="1.000000" stroke-width="1.000000" stroke-linejoin="round"/>
		<path id="Vector" d="M71.91 104.37C72.46 104.45 73 104.45 73.55 104.37" stroke="#919191" stroke-opacity="1.000000" stroke-width="1.000000" stroke-linejoin="round" stroke-linecap="round"/>
		<path id="Vector" d="M79.45 85.73C79.22 87.06 78.73 88.33 78.01 89.48C75.69 93.12 73.05 94.44 69.89 97.91C67.86 100.16 68.25 102.4 69.89 103.58" stroke="#919191" stroke-opacity="1.000000" stroke-width="1.000000" stroke-linejoin="round" stroke-linecap="round"/>
		<path id="Vector" d="M79.5 81.86C79.6 82.41 79.64 82.96 79.64 83.52" stroke="#919191" stroke-opacity="1.000000" stroke-width="1.000000" stroke-linejoin="round" stroke-linecap="round"/>
		<path id="Vector" d="M76.38 85.34C76.38 85.34 75.88 90.47 73.73 93.45C71.58 96.43 67.28 97.92 67.44 101.07" stroke="#919191" stroke-opacity="1.000000" stroke-width="1.000000" stroke-linejoin="round" stroke-linecap="round"/>
		<path id="Vector" d="M96.37 171.27C96.37 171.27 99.46 187.17 102.11 194.9C104.76 202.63 107.41 209.69 108.06 210.36C108.72 211.02 110.49 213.45 110.49 213.45C109.67 214.1 108.67 214.49 107.62 214.56C106.08 214.56 104.09 212.57 102.32 211.46C100.55 210.35 100.34 209.69 96.8 208.37C93.26 207.05 96.14 203.51 97.02 201.74C97.53 200.79 97.83 199.73 97.91 198.65C96.5 193.68 94.01 189.08 90.62 185.18C85.11 179 84 164.67 84 164.67L94.6 160.7L96.37 171.27Z" fill="#FFFFFF" fill-opacity="1.000000" fill-rule="nonzero"/>
		<path id="Vector" d="M102.11 194.9C104.76 202.63 107.41 209.69 108.06 210.36C108.72 211.02 110.49 213.45 110.49 213.45C109.67 214.1 108.67 214.49 107.62 214.56C106.08 214.56 104.09 212.57 102.32 211.46C100.55 210.35 100.34 209.69 96.8 208.37C93.26 207.05 96.14 203.51 97.02 201.74C97.53 200.79 97.83 199.73 97.91 198.65C96.5 193.68 94.01 189.08 90.62 185.18C85.11 179 84 164.67 84 164.67L94.6 160.7L96.37 171.27C96.37 171.27 99.46 187.17 102.11 194.9Z" stroke="#263238" stroke-opacity="1.000000" stroke-width="1.000000" stroke-linejoin="round"/>
		<path id="Vector" d="M107.63 209.57L106.99 209.69C106.99 209.69 103.23 204.62 100.37 202.85C99.39 202.18 98.24 201.79 97.05 201.75C96.16 203.51 93.3 207.05 96.83 208.37C100.36 209.69 100.58 210.35 102.35 211.46C104.12 212.57 106.1 214.56 107.65 214.56C108.7 214.49 109.7 214.1 110.52 213.45C110.52 213.45 108.75 211.02 108.09 210.36C107.9 210.12 107.75 209.85 107.63 209.57Z" fill="#CBCBCB" fill-opacity="1.000000" fill-rule="nonzero"/>
		<path id="Vector" d="M106.99 209.69C106.99 209.69 103.23 204.62 100.37 202.85C99.39 202.18 98.24 201.79 97.05 201.75C96.16 203.51 93.3 207.05 96.83 208.37C100.36 209.69 100.58 210.35 102.35 211.46C104.12 212.57 106.1 214.56 107.65 214.56C108.7 214.49 109.7 214.1 110.52 213.45C110.52 213.45 108.75 211.02 108.09 210.36C107.9 210.12 107.75 209.85 107.63 209.57L106.99 209.69Z" stroke="#263238" stroke-opacity="1.000000" stroke-width="1.000000" stroke-linejoin="round"/>
		<path id="Vector" d="M105.85 213.93C104.1 212.72 102.52 210.04 99.68 208.37C97.1 206.85 95.77 206.79 95.22 206.91C95.35 207.26 95.57 207.58 95.85 207.83C96.13 208.09 96.47 208.27 96.83 208.37C100.37 209.69 100.59 210.35 102.35 211.46C103.47 212.17 104.7 213.28 105.85 213.93Z" fill="#CBCBCB" fill-opacity="1.000000" fill-rule="nonzero"/>
		<path id="Vector" d="M99.68 208.37C97.1 206.85 95.77 206.79 95.22 206.91C95.35 207.26 95.57 207.58 95.85 207.83C96.13 208.09 96.47 208.27 96.83 208.37C100.37 209.69 100.59 210.35 102.35 211.46C103.47 212.17 104.7 213.28 105.85 213.93C104.1 212.72 102.52 210.04 99.68 208.37Z" stroke="#263238" stroke-opacity="1.000000" stroke-width="1.000000" stroke-linejoin="round"/>
		<path id="Vector" d="M107.63 214.56C107.52 214.55 107.4 214.54 107.29 214.52C107.4 214.54 107.51 214.55 107.63 214.56Z" fill="#CBCBCB" fill-opacity="1.000000" fill-rule="nonzero"/>
		<path id="Vector" d="M107.29 214.52C107.4 214.54 107.51 214.55 107.63 214.56C107.52 214.55 107.4 214.54 107.29 214.52Z" stroke="#263238" stroke-opacity="1.000000" stroke-width="1.000000" stroke-linejoin="round"/>
		<path id="Vector" d="M76.69 147.31C76.69 147.31 87.3 143.55 88.29 146.03C89.29 148.51 93.83 157.76 92.17 161.56C90.52 165.36 78.87 150.64 77.21 150.33C75.56 150.01 76.49 148.42 76.69 147.31Z" fill="#FFFFFF" fill-opacity="1.000000" fill-rule="nonzero"/>
		<path id="Vector" d="M88.29 146.03C89.29 148.51 93.83 157.76 92.17 161.56C90.52 165.36 78.87 150.64 77.21 150.33C75.56 150.01 76.49 148.42 76.69 147.31C76.69 147.31 87.3 143.55 88.29 146.03Z" stroke="#263238" stroke-opacity="1.000000" stroke-width="1.000000" stroke-linejoin="round"/>
		<path id="Vector" d="M87.09 152.15C87.09 152.15 99.16 151.16 101.47 153.31C103.79 155.47 95.85 181.25 91.55 189.35C84.81 202.02 86.85 205.34 86.85 205.34C86.85 205.34 87.35 207.32 90.66 210.47C93.96 213.61 94.96 214.1 93.79 214.6C92.63 215.1 87.68 214.6 87.18 214.27C86.69 213.94 83.05 210.96 79.74 209.97C76.43 208.98 76.93 208.32 78.42 205.34C79.91 202.36 79.74 204.84 81.39 199.72C83.37 193.41 84.94 186.97 86.08 180.45C86.96 175.14 88.29 169.31 87.92 163.9L87.09 152.15Z" fill="#FFFFFF" fill-opacity="1.000000" fill-rule="nonzero"/>
		<path id="Vector" d="M101.47 153.31C103.79 155.47 95.85 181.25 91.55 189.35C84.81 202.02 86.85 205.34 86.85 205.34C86.85 205.34 87.35 207.32 90.66 210.47C93.96 213.61 94.96 214.1 93.79 214.6C92.63 215.1 87.68 214.6 87.18 214.27C86.69 213.94 83.05 210.96 79.74 209.97C76.43 208.98 76.93 208.32 78.42 205.34C79.91 202.36 79.74 204.84 81.39 199.72C83.37 193.41 84.94 186.97 86.08 180.45C86.96 175.14 88.29 169.31 87.92 163.9L87.09 152.15C87.09 152.15 99.16 151.16 101.47 153.31Z" stroke="#263238" stroke-opacity="1.000000" stroke-width="1.000000" stroke-linejoin="round"/>
		<path id="Vector" d="M95.93 160.23C94.66 157.18 92.49 154.6 89.7 152.83C84.42 149.46 79.95 146.32 79.95 146.32L71.24 150.03C71.24 150.03 73.36 153.63 62.45 155.45C54.05 156.85 46.34 154.82 42.17 152.38C41.59 155.26 40.99 158.46 40.69 160.81C40.11 165.68 45.22 170.56 48.35 172.07C51.49 173.59 76.74 176.72 83.54 172.35C95.93 164.42 95.93 160.23 95.93 160.23Z" fill="#263238" fill-opacity="1.000000" fill-rule="nonzero"/>
		<path id="Vector" d="M89.7 152.83C84.42 149.46 79.95 146.32 79.95 146.32L71.24 150.03C71.24 150.03 73.36 153.63 62.45 155.45C54.05 156.85 46.34 154.82 42.17 152.38C41.59 155.26 40.99 158.46 40.69 160.81C40.11 165.68 45.22 170.56 48.35 172.07C51.49 173.59 76.74 176.72 83.54 172.35C95.93 164.42 95.93 160.23 95.93 160.23C94.66 157.18 92.49 154.6 89.7 152.83Z" stroke="#263238" stroke-opacity="1.000000" stroke-width="1.000000" stroke-linejoin="round"/>
		<path id="Vector" d="M70.25 152.76C69.09 153.72 66.82 154.75 62.45 155.46C54.05 156.86 46.34 154.83 42.17 152.38C42.03 153.12 41.88 153.87 41.73 154.64C44.58 156.35 50.57 159.26 57.33 158.43C65.39 157.45 68.97 155.24 70.25 152.76Z" fill="#CBCBCB" fill-opacity="1.000000" fill-rule="nonzero"/>
		<path id="Vector" d="M62.45 155.46C54.05 156.86 46.34 154.83 42.17 152.38C42.03 153.12 41.88 153.87 41.73 154.64C44.58 156.35 50.57 159.26 57.33 158.43C65.39 157.45 68.97 155.24 70.25 152.76C69.09 153.72 66.82 154.75 62.45 155.46Z" stroke="#263238" stroke-opacity="1.000000" stroke-width="1.000000" stroke-linejoin="round"/>
		<path id="Vector" d="M63.82 163.39C63.43 163.88 63.03 164.38 62.62 164.88" stroke="#FFFFFF" stroke-opacity="1.000000" stroke-width="1.000000" stroke-linejoin="round" stroke-linecap="round"/>
		<path id="Vector" d="M69.89 153.97C68.36 156.78 66.66 159.49 64.79 162.08" stroke="#FFFFFF" stroke-opacity="1.000000" stroke-width="1.000000" stroke-linejoin="round" stroke-linecap="round"/>
		<path id="Vector" d="M66.26 157.11C66.26 157.11 63.28 161.08 60.14 163.4" stroke="#FFFFFF" stroke-opacity="1.000000" stroke-width="1.000000" stroke-linejoin="round" stroke-linecap="round"/>
		<path id="Vector" d="M90.66 210.46C87.35 207.32 86.85 205.34 86.85 205.34C86.74 205.24 86.65 205.11 86.59 204.97C86.37 205.21 85.7 205.65 84.04 205.01C82.61 204.46 81.25 203.52 79.82 202.89C79.48 203.5 79.14 203.89 78.42 205.34C76.93 208.32 76.43 208.98 79.74 209.97C83.05 210.96 86.69 213.94 87.18 214.27C87.68 214.6 92.64 215.1 93.79 214.6C94.95 214.1 93.96 213.6 90.66 210.46Z" fill="#CBCBCB" fill-opacity="1.000000" fill-rule="nonzero"/>
		<path id="Vector" d="M86.85 205.34C86.74 205.24 86.65 205.11 86.59 204.97C86.37 205.21 85.7 205.65 84.04 205.01C82.61 204.46 81.25 203.52 79.82 202.89C79.48 203.5 79.14 203.89 78.42 205.34C76.93 208.32 76.43 208.98 79.74 209.97C83.05 210.96 86.69 213.94 87.18 214.27C87.68 214.6 92.64 215.1 93.79 214.6C94.95 214.1 93.96 213.6 90.66 210.46C87.35 207.32 86.85 205.34 86.85 205.34Z" stroke="#263238" stroke-opacity="1.000000" stroke-width="1.000000" stroke-linejoin="round"/>
		<path id="Vector" d="M93.7 158.44L99.32 158.44" stroke="#263238" stroke-opacity="1.000000" stroke-width="1.000000" stroke-linejoin="round" stroke-linecap="round"/>
		<path id="Vector" d="M26.51 130.47C26.51 130.47 44.42 128.23 55.87 131.47L57.61 175.02L30.75 175.02C30.75 175.02 32.48 151.62 26.51 130.47Z" fill="#919191" fill-opacity="1.000000" fill-rule="nonzero"/>
		<path id="Vector" d="M55.87 131.47L57.61 175.02L30.75 175.02C30.75 175.02 32.48 151.62 26.51 130.47C26.51 130.47 44.42 128.23 55.87 131.47Z" stroke="#263238" stroke-opacity="1.000000" stroke-width="1.000000" stroke-linejoin="round"/>
		<path id="Vector" d="M55.87 131.47C44.42 128.23 26.51 130.47 26.51 130.47C28.42 137.52 29.7 144.73 30.31 152.01C40.31 157 49.48 163.53 57.47 171.35L55.87 131.47Z" fill="#757575" fill-opacity="1.000000" fill-rule="nonzero"/>
		<path id="Vector" d="M26.51 130.47C28.42 137.52 29.7 144.73 30.31 152.01C40.31 157 49.48 163.53 57.47 171.35L55.87 131.47C44.42 128.23 26.51 130.47 26.51 130.47Z" stroke="#263238" stroke-opacity="1.000000" stroke-width="1.000000" stroke-linejoin="round"/>
		<path id="Vector" d="M89.65 215.76C89.45 215.76 89.25 215.7 89.08 215.58C88.92 215.46 88.79 215.3 88.72 215.11C84.75 204.42 83.76 176.66 83.7 175.48C83.69 175.22 83.79 174.96 83.97 174.77C84.15 174.58 84.39 174.46 84.66 174.45C84.92 174.44 85.18 174.54 85.37 174.72C85.56 174.9 85.67 175.15 85.68 175.41C85.68 175.7 86.72 204.03 90.58 214.42C90.67 214.66 90.66 214.94 90.55 215.18C90.44 215.41 90.24 215.6 89.99 215.69C89.88 215.73 89.77 215.76 89.65 215.76Z" fill="#FFFFFF" fill-opacity="1.000000" fill-rule="nonzero"/>
		<path id="Vector" d="M89.08 215.58C88.92 215.46 88.79 215.3 88.72 215.11C84.75 204.42 83.76 176.66 83.7 175.48C83.69 175.22 83.79 174.96 83.97 174.77C84.15 174.58 84.39 174.46 84.66 174.45C84.92 174.44 85.18 174.54 85.37 174.72C85.56 174.9 85.67 175.15 85.68 175.41C85.68 175.7 86.72 204.03 90.58 214.42C90.67 214.66 90.66 214.94 90.55 215.18C90.44 215.41 90.24 215.6 89.99 215.69C89.88 215.73 89.77 215.76 89.65 215.76C89.45 215.76 89.25 215.7 89.08 215.58Z" stroke="#263238" stroke-opacity="1.000000" stroke-width="1.000000" stroke-linejoin="round"/>
		<path id="Vector" d="M68.05 215.76C67.85 215.76 67.65 215.69 67.49 215.58C67.32 215.46 67.2 215.3 67.12 215.11C63.16 204.42 62.16 176.66 62.1 175.48C62.09 175.22 62.19 174.96 62.37 174.77C62.55 174.58 62.79 174.46 63.06 174.45C63.32 174.44 63.58 174.54 63.77 174.72C63.96 174.9 64.08 175.15 64.08 175.41C64.08 175.7 65.12 204.03 68.98 214.42C69.08 214.66 69.07 214.94 68.96 215.18C68.85 215.41 68.65 215.6 68.4 215.69C68.29 215.73 68.17 215.76 68.05 215.76Z" fill="#FFFFFF" fill-opacity="1.000000" fill-rule="nonzero"/>
		<path id="Vector" d="M67.49 215.58C67.32 215.46 67.2 215.3 67.12 215.11C63.16 204.42 62.16 176.66 62.1 175.48C62.09 175.22 62.19 174.96 62.37 174.77C62.55 174.58 62.79 174.46 63.06 174.45C63.32 174.44 63.58 174.54 63.77 174.72C63.96 174.9 64.08 175.15 64.08 175.41C64.08 175.7 65.12 204.03 68.98 214.42C69.08 214.66 69.07 214.94 68.96 215.18C68.85 215.41 68.65 215.6 68.4 215.69C68.29 215.73 68.17 215.76 68.05 215.76C67.85 215.76 67.65 215.69 67.49 215.58Z" stroke="#263238" stroke-opacity="1.000000" stroke-width="1.000000" stroke-linejoin="round"/>
		<path id="Vector" d="M89.38 175L30.28 175L30.28 173.02L87.41 173.02C87.94 173.02 88.44 173.22 88.81 173.6C89.19 173.97 89.39 174.47 89.39 175L89.38 175Z" fill="#919191" fill-opacity="1.000000" fill-rule="nonzero"/>
		<path id="Vector" d="M30.28 175L30.28 173.02L87.41 173.02C87.94 173.02 88.44 173.22 88.81 173.6C89.19 173.97 89.39 174.47 89.39 175L89.38 175L30.28 175Z" stroke="#263238" stroke-opacity="1.000000" stroke-width="1.000000" stroke-linejoin="round"/>
		<path id="Vector" d="M89.38 174.52L30.28 174.52L30.28 176.49L89.38 176.49L89.38 174.52Z" fill="#FFFFFF" fill-opacity="1.000000" fill-rule="nonzero"/>
		<path id="Vector" d="M89.38 174.52L89.38 176.49L30.28 176.49L30.28 174.52L89.38 174.52Z" stroke="#263238" stroke-opacity="1.000000" stroke-width="1.000000" stroke-linejoin="round"/>
		<path id="Vector" d="M55.43 215.76C55.28 215.76 55.13 215.73 55 215.67C54.86 215.6 54.74 215.51 54.64 215.4C54.55 215.28 54.48 215.15 54.44 215C54.41 214.86 54.41 214.71 54.44 214.56C60.05 187.98 54.93 132.1 54.86 131.54C54.85 131.41 54.86 131.28 54.9 131.15C54.94 131.03 55 130.91 55.09 130.81C55.17 130.71 55.27 130.63 55.39 130.57C55.51 130.5 55.63 130.47 55.76 130.46C56.03 130.43 56.29 130.51 56.49 130.68C56.69 130.85 56.82 131.09 56.85 131.36C56.9 131.92 62.05 188.1 56.39 214.97C56.34 215.19 56.22 215.39 56.04 215.53C55.87 215.67 55.65 215.75 55.43 215.76Z" fill="#FFFFFF" fill-opacity="1.000000" fill-rule="nonzero"/>
		<path id="Vector" d="M55 215.67C54.86 215.6 54.74 215.51 54.64 215.4C54.55 215.28 54.48 215.15 54.44 215C54.41 214.86 54.41 214.71 54.44 214.56C60.05 187.98 54.93 132.1 54.86 131.54C54.85 131.41 54.86 131.28 54.9 131.15C54.94 131.03 55 130.91 55.09 130.81C55.17 130.71 55.27 130.63 55.39 130.57C55.51 130.5 55.63 130.47 55.76 130.46C56.03 130.43 56.29 130.51 56.49 130.68C56.69 130.85 56.82 131.09 56.85 131.36C56.9 131.92 62.05 188.1 56.39 214.97C56.34 215.19 56.22 215.39 56.04 215.53C55.87 215.67 55.65 215.75 55.43 215.76C55.28 215.76 55.13 215.73 55 215.67Z" stroke="#263238" stroke-opacity="1.000000" stroke-width="1.000000" stroke-linejoin="round"/>
		<path id="Vector" d="M24.68 215.03C24.58 215.03 24.49 215.02 24.4 214.99C24.15 214.92 23.94 214.75 23.81 214.52C23.68 214.29 23.65 214.02 23.72 213.77C36.62 167.99 25.67 131.13 25.56 130.76C25.5 130.51 25.53 130.25 25.66 130.03C25.78 129.81 25.99 129.64 26.23 129.57C26.47 129.49 26.74 129.52 26.96 129.63C27.19 129.74 27.37 129.94 27.45 130.18C27.57 130.55 38.7 167.94 25.63 214.31C25.57 214.52 25.45 214.7 25.27 214.83C25.1 214.96 24.89 215.03 24.68 215.03Z" fill="#FFFFFF" fill-opacity="1.000000" fill-rule="nonzero"/>
		<path id="Vector" d="M24.4 214.99C24.15 214.92 23.94 214.75 23.81 214.52C23.68 214.29 23.65 214.02 23.72 213.77C36.62 167.99 25.67 131.13 25.56 130.76C25.5 130.51 25.53 130.25 25.66 130.03C25.78 129.81 25.99 129.64 26.23 129.57C26.47 129.49 26.74 129.52 26.96 129.63C27.19 129.74 27.37 129.94 27.45 130.18C27.57 130.55 38.7 167.94 25.63 214.31C25.57 214.52 25.45 214.7 25.27 214.83C25.1 214.96 24.89 215.03 24.68 215.03C24.58 215.03 24.49 215.02 24.4 214.99Z" stroke="#263238" stroke-opacity="1.000000" stroke-width="1.000000" stroke-linejoin="round"/>
		<path id="Vector" d="M206.02 133.25C206.02 133.25 199.93 129.86 199.48 137.54C199.02 145.21 197.9 195.12 197.9 195.12" stroke="#263238" stroke-opacity="1.000000" stroke-width="2.000000" stroke-linejoin="round" stroke-linecap="round"/>
		<path id="Vector" d="M196.31 138.21C196.31 138.21 201.27 149.28 199.02 194.44" stroke="#263238" stroke-opacity="1.000000" stroke-width="2.000000" stroke-linejoin="round" stroke-linecap="round"/>
		<path id="Vector" d="M201.2 134.79C201.2 134.79 198.86 136.28 197.54 134.58C196.21 132.87 198.43 129.73 196.47 128.39C194.52 127.06 191.13 129.1 191.13 129.1C191.13 129.1 193.73 129.86 193.65 131.29C193.56 132.71 192.31 133.25 192.16 132.63C192.01 132 190.75 128.87 188.63 130.17C188.02 130.53 187.49 131.02 187.07 131.59C186.65 132.16 186.35 132.81 186.19 133.5C186.19 133.5 191.12 132.97 191.42 134.82C191.71 136.67 189.4 134.5 187.36 134.38C185.33 134.26 183.47 134.56 183.61 135.79C183.65 136.88 183.59 137.97 183.42 139.04C184.53 138.12 185.94 137.62 187.38 137.64C189.62 137.78 189.54 139.2 187.5 139.08C185.47 138.96 183.72 140.9 183.72 140.9C183.72 140.9 185.58 144.07 187.93 145.64C190.29 147.2 191.14 146.63 191.41 145.43C191.67 144.24 191.05 141.13 192.47 141.21C193.9 141.3 190.12 146.58 191.93 146.89C193.75 147.2 195.21 146.68 195.69 145.48L196.18 144.29C196.18 144.29 195.55 141.19 195.83 139.98C196.1 138.78 196.44 140.02 196.76 141.47C197.08 142.92 197.28 146.39 197.9 146.23C198.52 146.06 200.51 143.53 200.98 142.53C201.44 141.53 198.36 138.5 198.39 137.89C198.43 137.28 200.81 138.44 201.18 139.08C201.45 139.56 201.7 140.06 201.91 140.57C201.91 140.57 203.4 139.63 203.36 136.78C203.32 133.92 201.2 134.79 201.2 134.79Z" fill="#CBCBCB" fill-opacity="1.000000" fill-rule="nonzero"/>
		<g opacity="0.300000">
			<path id="Vector" d="M201.2 134.79C201.2 134.79 198.86 136.28 197.54 134.58C196.21 132.87 198.43 129.73 196.47 128.39C194.52 127.06 191.13 129.1 191.13 129.1C191.13 129.1 193.73 129.86 193.65 131.29C193.56 132.71 192.31 133.25 192.16 132.63C192.01 132 190.75 128.87 188.63 130.17C188.02 130.53 187.49 131.02 187.07 131.59C186.65 132.16 186.35 132.81 186.19 133.5C186.19 133.5 191.12 132.97 191.42 134.82C191.71 136.67 189.4 134.5 187.36 134.38C185.33 134.26 183.47 134.56 183.61 135.79C183.65 136.88 183.59 137.97 183.42 139.04C184.53 138.12 185.94 137.62 187.38 137.64C189.62 137.78 189.54 139.2 187.5 139.08C185.47 138.96 183.72 140.9 183.72 140.9C183.72 140.9 185.58 144.07 187.93 145.64C190.29 147.2 191.14 146.63 191.41 145.43C191.67 144.24 191.05 141.13 192.47 141.21C193.9 141.3 190.12 146.58 191.93 146.89C193.75 147.2 195.21 146.68 195.69 145.48L196.18 144.29C196.18 144.29 195.55 141.19 195.83 139.98C196.1 138.78 196.44 140.02 196.76 141.47C197.08 142.92 197.28 146.39 197.9 146.23C198.52 146.06 200.51 143.53 200.98 142.53C201.44 141.53 198.36 138.5 198.39 137.89C198.43 137.28 200.81 138.44 201.18 139.08C201.45 139.56 201.7 140.06 201.91 140.57C201.91 140.57 203.4 139.63 203.36 136.78C203.32 133.92 201.2 134.79 201.2 134.79Z" fill="#263238" fill-opacity="1.000000" fill-rule="nonzero"/>
		</g>
		<path id="Vector" d="M189.37 141.49C190.89 139.61 193.13 137.07 195.01 135.85" stroke="#263238" stroke-opacity="1.000000" stroke-width="1.000000" stroke-linejoin="round" stroke-linecap="round"/>
		<path id="Vector" d="M187.61 143.78C187.61 143.78 188 143.24 188.63 142.43" stroke="#263238" stroke-opacity="1.000000" stroke-width="1.000000" stroke-linejoin="round" stroke-linecap="round"/>
		<path id="Vector" d="M196 136.32C196 136.32 198.27 139.52 198.68 142.8" stroke="#263238" stroke-opacity="1.000000" stroke-width="1.000000" stroke-linejoin="round" stroke-linecap="round"/>
		<path id="Vector" d="M193.44 138.21C193.44 138.21 194.07 137.84 193.83 141.91" stroke="#263238" stroke-opacity="1.000000" stroke-width="1.000000" stroke-linejoin="round" stroke-linecap="round"/>
		<path id="Vector" d="M195.1 134.41C195.1 134.41 196.39 133.27 195.71 130.98" stroke="#263238" stroke-opacity="1.000000" stroke-width="1.000000" stroke-linejoin="round" stroke-linecap="round"/>
		<path id="Vector" d="M192.43 134.68L193.35 134.68" stroke="#263238" stroke-opacity="1.000000" stroke-width="1.000000" stroke-linejoin="round" stroke-linecap="round"/>
		<path id="Vector" d="M191.41 138.09C191.41 138.09 188.48 135.88 186.65 135.77" stroke="#263238" stroke-opacity="1.000000" stroke-width="1.000000" stroke-linejoin="round" stroke-linecap="round"/>
		<path id="Vector" d="M209.51 128.77C209.51 128.77 209.42 132.12 206.8 132.28C204.18 132.45 202.56 128.08 199.88 129.13C197.21 130.19 196.95 134.97 196.95 134.97C196.95 134.97 199.49 132.88 200.86 133.93C202.22 134.98 201.91 136.61 201.17 136.35C200.43 136.09 196.45 135.2 196.31 138.21C196.26 139.07 196.38 139.93 196.66 140.74C196.95 141.55 197.39 142.29 197.97 142.92C197.97 142.92 200.81 137.63 202.87 138.59C204.93 139.56 201.17 140.4 199.66 142.35C198.15 144.31 197.18 146.37 198.52 147.07C199.64 147.77 200.68 148.57 201.64 149.48C201.64 149.48 201.28 146.71 202.94 144.56C204.6 142.42 205.96 143.47 204.46 145.42C202.95 147.38 203.7 150.45 203.7 150.45C203.7 150.45 208.13 150.75 211.31 149.45C214.48 148.16 214.5 146.93 213.48 145.83C212.46 144.74 208.93 143.26 209.98 141.87C211.03 140.47 213.75 147.88 215.3 146.28C216.85 144.67 217.32 142.85 216.44 141.55L215.57 140.26C215.57 140.26 212.04 138.78 211.02 137.68C210 136.59 211.47 137.1 213.14 137.76C214.81 138.43 218.43 140.6 218.69 139.86C218.94 139.12 217.76 135.39 217.09 134.26C216.41 133.13 211.26 134.14 210.68 133.69C210.09 133.24 212.87 131.64 213.76 131.7C214.43 131.76 215.09 131.85 215.75 131.98C215.75 131.98 215.83 129.85 212.94 127.94C210.05 126.03 209.51 128.77 209.51 128.77Z" fill="#CBCBCB" fill-opacity="1.000000" fill-rule="nonzero"/>
		<g opacity="0.200000">
			<path id="Vector" d="M209.51 128.77C209.51 128.77 209.42 132.12 206.8 132.28C204.18 132.45 202.56 128.08 199.88 129.13C197.21 130.19 196.95 134.97 196.95 134.97C196.95 134.97 199.49 132.88 200.86 133.93C202.22 134.98 201.91 136.61 201.17 136.35C200.43 136.09 196.45 135.2 196.31 138.21C196.26 139.07 196.38 139.93 196.66 140.74C196.95 141.55 197.39 142.29 197.97 142.92C197.97 142.92 200.81 137.63 202.87 138.59C204.93 139.56 201.17 140.4 199.66 142.35C198.15 144.31 197.18 146.37 198.52 147.07C199.64 147.77 200.68 148.57 201.64 149.48C201.64 149.48 201.28 146.71 202.94 144.56C204.6 142.42 205.96 143.47 204.46 145.42C202.95 147.38 203.7 150.45 203.7 150.45C203.7 150.45 208.13 150.75 211.31 149.45C214.48 148.16 214.5 146.93 213.48 145.83C212.46 144.74 208.93 143.26 209.98 141.87C211.03 140.47 213.75 147.88 215.3 146.28C216.85 144.67 217.32 142.85 216.44 141.55L215.57 140.26C215.57 140.26 212.04 138.78 211.02 137.68C210 136.59 211.47 137.1 213.14 137.76C214.81 138.43 218.43 140.6 218.69 139.86C218.94 139.12 217.76 135.39 217.09 134.26C216.41 133.13 211.26 134.14 210.68 133.69C210.09 133.24 212.87 131.64 213.76 131.7C214.43 131.76 215.09 131.85 215.75 131.98C215.75 131.98 215.83 129.85 212.94 127.94C210.05 126.03 209.51 128.77 209.51 128.77Z" fill="#263238" fill-opacity="1.000000" fill-rule="nonzero"/>
		</g>
		<path id="Vector" d="M208.16 145.17C207.32 142.35 206.29 138.38 206.36 135.68" stroke="#263238" stroke-opacity="1.000000" stroke-width="1.000000" stroke-linejoin="round" stroke-linecap="round"/>
		<path id="Vector" d="M209.25 148.5C209.25 148.5 208.97 147.73 208.59 146.55" stroke="#263238" stroke-opacity="1.000000" stroke-width="1.000000" stroke-linejoin="round" stroke-linecap="round"/>
		<path id="Vector" d="M207.5 135.01C207.5 135.01 212.24 134.92 215.81 136.74" stroke="#263238" stroke-opacity="1.000000" stroke-width="1.000000" stroke-linejoin="round" stroke-linecap="round"/>
		<path id="Vector" d="M207.65 138.88C207.65 138.88 207.71 137.99 211.62 141" stroke="#263238" stroke-opacity="1.000000" stroke-width="1.000000" stroke-linejoin="round" stroke-linecap="round"/>
		<path id="Vector" d="M204.99 134.62C204.99 134.62 204.72 132.55 201.97 131.68" stroke="#263238" stroke-opacity="1.000000" stroke-width="1.000000" stroke-linejoin="round" stroke-linecap="round"/>
		<path id="Vector" d="M203.42 137.47L205.74 137.47" stroke="#263238" stroke-opacity="1.000000" stroke-width="1.000000" stroke-linejoin="round" stroke-linecap="round"/>
		<path id="Vector" d="M206.14 140.81C206.14 140.81 201.93 142.23 200.58 143.99" stroke="#263238" stroke-opacity="1.000000" stroke-width="1.000000" stroke-linejoin="round" stroke-linecap="round"/>
		<path id="Vector" d="M181.41 151.09C181.41 151.09 194.73 159.89 194.51 193.99" stroke="#263238" stroke-opacity="1.000000" stroke-width="2.000000" stroke-linejoin="round" stroke-linecap="round"/>
		<path id="Vector" d="M197.84 148.76C197.84 148.76 197.41 152.62 194.37 152.56C191.32 152.5 189.9 147.31 186.69 148.27C183.47 149.24 182.75 154.72 182.75 154.72C182.75 154.72 185.88 152.55 187.36 153.9C188.84 155.25 188.32 157.09 187.49 156.72C186.66 156.35 182.15 154.95 181.71 158.41C181.57 159.39 181.62 160.39 181.88 161.36C182.14 162.32 182.58 163.22 183.2 164C183.2 164 186.97 158.16 189.25 159.47C191.54 160.78 187.12 161.39 185.2 163.5C183.27 165.62 181.97 167.9 183.43 168.84C184.65 169.75 185.79 170.78 186.81 171.91C186.81 171.91 186.65 168.69 188.77 166.36C190.88 164.04 192.36 165.37 190.44 167.5C188.51 169.63 189.09 173.22 189.09 173.22C189.09 173.22 194.18 173.99 197.97 172.8C201.75 171.61 201.89 170.19 200.81 168.83C199.73 167.47 195.8 165.43 197.14 163.95C198.49 162.48 200.92 171.25 202.87 169.54C204.81 167.83 205.52 165.78 204.63 164.21L203.75 162.63C203.75 162.63 199.82 160.59 198.74 159.23C197.67 157.86 199.32 158.6 201.18 159.52C203.05 160.44 207.02 163.28 207.38 162.46C207.74 161.64 206.73 157.23 206.06 155.85C205.39 154.46 199.36 155.15 198.72 154.58C198.09 154 201.45 152.43 202.47 152.6C203.23 152.72 203.98 152.89 204.72 153.09C204.72 153.09 205.01 150.65 201.86 148.17C198.71 145.69 197.84 148.76 197.84 148.76Z" fill="#CBCBCB" fill-opacity="1.000000" fill-rule="nonzero"/>
		<g opacity="0.300000">
			<path id="Vector" d="M197.84 148.76C197.84 148.76 197.41 152.62 194.37 152.56C191.32 152.5 189.9 147.31 186.69 148.27C183.47 149.24 182.75 154.72 182.75 154.72C182.75 154.72 185.88 152.55 187.36 153.9C188.84 155.25 188.32 157.09 187.49 156.72C186.66 156.35 182.15 154.95 181.71 158.41C181.57 159.39 181.62 160.39 181.88 161.36C182.14 162.32 182.58 163.22 183.2 164C183.2 164 186.97 158.16 189.25 159.47C191.54 160.78 187.12 161.39 185.2 163.5C183.27 165.62 181.97 167.9 183.43 168.84C184.65 169.75 185.79 170.78 186.81 171.91C186.81 171.91 186.65 168.69 188.77 166.36C190.88 164.04 192.36 165.37 190.44 167.5C188.51 169.63 189.09 173.22 189.09 173.22C189.09 173.22 194.18 173.99 197.97 172.8C201.75 171.61 201.89 170.19 200.81 168.83C199.73 167.47 195.8 165.43 197.14 163.95C198.49 162.48 200.92 171.25 202.87 169.54C204.81 167.83 205.52 165.78 204.63 164.21L203.75 162.63C203.75 162.63 199.82 160.59 198.74 159.23C197.67 157.86 199.32 158.6 201.18 159.52C203.05 160.44 207.02 163.28 207.38 162.46C207.74 161.64 206.73 157.23 206.06 155.85C205.39 154.46 199.36 155.15 198.72 154.58C198.09 154 201.45 152.43 202.47 152.6C203.23 152.72 203.98 152.89 204.72 153.09C204.72 153.09 205.01 150.65 201.86 148.17C198.71 145.69 197.84 148.76 197.84 148.76Z" fill="#263238" fill-opacity="1.000000" fill-rule="nonzero"/>
		</g>
		<path id="Vector" d="M194.74 167.56C194.02 164.25 193.22 159.56 193.55 156.44" stroke="#263238" stroke-opacity="1.000000" stroke-width="1.000000" stroke-linejoin="round" stroke-linecap="round"/>
		<path id="Vector" d="M195.68 171.5C195.68 171.5 195.43 170.59 195.1 169.19" stroke="#263238" stroke-opacity="1.000000" stroke-width="1.000000" stroke-linejoin="round" stroke-linecap="round"/>
		<path id="Vector" d="M194.92 155.77C194.92 155.77 200.38 156.12 204.35 158.56" stroke="#263238" stroke-opacity="1.000000" stroke-width="1.000000" stroke-linejoin="round" stroke-linecap="round"/>
		<path id="Vector" d="M194.74 160.2C194.74 160.2 194.89 159.19 199.12 163.03" stroke="#263238" stroke-opacity="1.000000" stroke-width="1.000000" stroke-linejoin="round" stroke-linecap="round"/>
		<path id="Vector" d="M192.07 155.1C192.07 155.1 191.96 152.67 188.87 151.4" stroke="#263238" stroke-opacity="1.000000" stroke-width="1.000000" stroke-linejoin="round" stroke-linecap="round"/>
		<path id="Vector" d="M190 158.23L192.65 158.23" stroke="#263238" stroke-opacity="1.000000" stroke-width="1.000000" stroke-linejoin="round" stroke-linecap="round"/>
		<path id="Vector" d="M192.82 162.34C192.82 162.34 187.83 163.59 186.09 165.49" stroke="#263238" stroke-opacity="1.000000" stroke-width="1.000000" stroke-linejoin="round" stroke-linecap="round"/>
		<path id="Vector" d="M186.6 177.96C186.6 177.96 195.19 184.5 196.09 194.21L194.28 161.69" stroke="#263238" stroke-opacity="1.000000" stroke-width="2.000000" stroke-linejoin="round" stroke-linecap="round"/>
		<path id="Vector" d="M207.38 173.21C196.09 171.18 196.09 194.21 196.09 194.21" stroke="#263238" stroke-opacity="1.000000" stroke-width="2.000000" stroke-linejoin="round" stroke-linecap="round"/>
		<path id="Vector" d="M197.44 193.99C197.44 193.99 190.89 146.35 209.84 146.35" stroke="#263238" stroke-opacity="1.000000" stroke-width="2.000000" stroke-linejoin="round" stroke-linecap="round"/>
		<path id="Vector" d="M203.08 171.84C201.53 170.11 198.26 170.11 196.33 174.54C194.41 178.98 196.14 178.21 196.14 178.21C196.14 178.21 199.8 177.05 202.11 176.28C204.43 175.51 207.51 173.58 207.71 174.74C207.9 175.89 206.16 177.05 204.04 177.43C201.92 177.82 196.33 179.36 196.91 180.54C197.48 181.72 198.84 185.17 198.84 185.17C200.48 183.77 202.22 182.48 204.04 181.31C206.55 179.77 208.09 180.35 206.74 182.08C205.39 183.82 201.53 185.74 202.31 188.06C203.08 190.38 207.71 193.26 207.71 193.26C207.71 193.26 208.29 188.45 209.63 186.9C210.98 185.36 210.98 187.1 210.6 189.79C210.4 190.94 210.27 192.1 210.21 193.27L215.61 195.2C216.49 193.85 217.45 192.57 218.5 191.34L219.49 190.35C219.49 190.35 215.25 186.69 215.06 184.4C214.86 182.11 217.95 184.4 218.91 184.79C219.87 185.17 221.41 187.87 221.41 187.87C221.41 187.87 222.38 183.44 222.58 181.89L222.77 180.35C222.77 180.35 218.72 178.81 217.17 178.81C215.63 178.81 214.86 179.96 214.86 178.43C214.86 176.89 216.4 175.92 218.14 176.11C219.71 176.37 221.26 176.76 222.77 177.27C222.77 177.27 223.92 176.3 223.54 173.41C223.15 170.52 222.19 170.52 219.88 171.29C217.57 172.06 216.02 173.8 214.28 173.8C212.55 173.8 213.51 171.68 214.67 171.1C215.82 170.53 218.72 169.36 219.3 169.17C219.88 168.98 216.21 166.28 214.28 165.89C212.35 165.51 209.86 166.88 210.04 168.78C210.4 172.81 204.62 173.6 203.08 171.84Z" fill="#CBCBCB" fill-opacity="1.000000" fill-rule="nonzero"/>
		<path id="Vector" d="M215.49 191.69C215.55 192.27 215.59 192.85 215.61 193.44" stroke="#263238" stroke-opacity="1.000000" stroke-width="1.000000" stroke-linejoin="round" stroke-linecap="round"/>
		<path id="Vector" d="M211.61 177.86C213.31 181.67 214.54 185.68 215.26 189.8" stroke="#263238" stroke-opacity="1.000000" stroke-width="1.000000" stroke-linejoin="round" stroke-linecap="round"/>
		<path id="Vector" d="M210.92 176.31C209.97 174.26 209.25 173 209.25 173C210.3 172.51 211.17 171.7 211.75 170.69C212.2 169.78 212.86 168.98 213.68 168.37" stroke="#263238" stroke-opacity="1.000000" stroke-width="1.000000" stroke-linejoin="round" stroke-linecap="round"/>
		<path id="Vector" d="M202.5 179.55C202.5 179.55 209.45 176.66 209.45 177.23" stroke="#263238" stroke-opacity="1.000000" stroke-width="1.000000" stroke-linejoin="round" stroke-linecap="round"/>
		<path id="Vector" d="M213.27 175.89C213.27 175.89 216.36 174.35 219.06 174.35" stroke="#263238" stroke-opacity="1.000000" stroke-width="1.000000" stroke-linejoin="round" stroke-linecap="round"/>
		<path id="Vector" d="M212.14 180.54C210.8 181.64 209.57 182.87 208.47 184.2C207.35 185.53 206.44 187.03 205.78 188.63" stroke="#263238" stroke-opacity="1.000000" stroke-width="1.000000" stroke-linejoin="round" stroke-linecap="round"/>
		<path id="Vector" d="M214.27 181.29C214.27 181.29 218.32 180.13 220.44 182.06" stroke="#263238" stroke-opacity="1.000000" stroke-width="1.000000" stroke-linejoin="round" stroke-linecap="round"/>
		<path id="Vector" d="M221.59 155.24C219.49 154 217.17 153.97 216.03 152.66C214.89 151.35 217.13 150.68 218.32 151.18C219.52 151.67 222.29 153.1 222.81 153.4C223.33 153.71 222.98 149.18 222 147.45C221.03 145.72 218.37 144.75 217.04 146.15C214.24 149.09 209.87 145.23 210.16 142.93C210.46 140.63 208.31 138.15 203.72 139.6C199.12 141.05 200.82 141.86 200.82 141.86C200.82 141.86 204.1 143.86 206.2 145.1C208.3 146.35 211.78 147.41 211.03 148.31C210.28 149.22 208.27 148.67 206.59 147.32C204.91 145.98 200.08 142.76 199.58 143.96C199.09 145.15 197.35 148.45 197.35 148.45C199.49 148.78 201.6 149.24 203.68 149.85C206.48 150.73 207.06 152.28 204.87 152.39C202.67 152.52 198.69 150.87 197.43 152.97C196.17 155.06 197.03 160.45 197.03 160.45C197.03 160.45 201.05 157.73 203.1 157.74C205.15 157.74 203.84 158.88 201.55 160.36C200.56 160.97 199.6 161.63 198.68 162.35L200.76 167.69C202.35 167.47 203.96 167.36 205.57 167.34L206.93 167.44C206.93 167.44 206.93 161.83 208.53 160.17C210.14 158.51 210.43 162.36 210.77 163.34C211.11 164.32 210.08 167.25 210.08 167.25C210.08 167.25 214.05 165.07 215.35 164.21L216.65 163.34C216.65 163.34 215.16 159.27 214.14 158.11C213.13 156.95 211.76 157.12 212.92 156.13C214.08 155.13 215.82 155.63 216.82 157.09C217.65 158.45 218.37 159.87 218.97 161.34C218.97 161.34 220.46 161.58 222.39 159.39C224.32 157.21 223.69 156.48 221.59 155.24ZM203.35 161.41C201.81 160.64 205.47 159.1 205.47 159.1C206.83 158.91 204.89 162.19 203.35 161.41ZM205.95 154.22C205.29 153.89 207.26 153.22 207.26 153.22C210.11 153.75 206.6 154.54 205.94 154.22L205.95 154.22Z" fill="#CBCBCB" fill-opacity="1.000000" fill-rule="nonzero"/>
		<path id="Vector" d="M203.31 165.34C202.91 165.76 202.49 166.18 202.07 166.57" stroke="#263238" stroke-opacity="1.000000" stroke-width="1.000000" stroke-linejoin="round" stroke-linecap="round"/>
		<path id="Vector" d="M211.22 153.34C209.45 157.13 207.22 160.68 204.58 163.91" stroke="#263238" stroke-opacity="1.000000" stroke-width="1.000000" stroke-linejoin="round" stroke-linecap="round"/>
		<path id="Vector" d="M211.93 151.81C212.86 149.74 213.33 148.37 213.33 148.37C214.4 148.84 215.58 148.97 216.72 148.75C217.71 148.49 218.74 148.47 219.73 148.69" stroke="#263238" stroke-opacity="1.000000" stroke-width="1.000000" stroke-linejoin="round" stroke-linecap="round"/>
		<path id="Vector" d="M210.25 151.3C210.69 150.92 203.96 147.58 203.96 147.58" stroke="#263238" stroke-opacity="1.000000" stroke-width="1.000000" stroke-linejoin="round" stroke-linecap="round"/>
		<path id="Vector" d="M213.8 153.32C213.8 153.32 216.99 154.64 218.76 156.68" stroke="#263238" stroke-opacity="1.000000" stroke-width="1.000000" stroke-linejoin="round" stroke-linecap="round"/>
		<path id="Vector" d="M209.55 155.49C207.84 155.2 206.11 155.07 204.38 155.12C202.64 155.14 200.91 155.43 199.26 155.99" stroke="#263238" stroke-opacity="1.000000" stroke-width="1.000000" stroke-linejoin="round" stroke-linecap="round"/>
		<path id="Vector" d="M210.36 157.59C210.36 157.59 213.89 159.89 213.83 162.76" stroke="#263238" stroke-opacity="1.000000" stroke-width="1.000000" stroke-linejoin="round" stroke-linecap="round"/>
		<path id="Vector" d="M191.63 181.95C189.95 180.96 188.08 180.94 187.17 179.88C186.26 178.82 188.05 178.29 189.01 178.69C189.97 179.09 192.2 180.24 192.63 180.48C193.05 180.73 192.76 177.08 191.97 175.71C191.19 174.33 189.05 173.54 187.98 174.66C185.72 177.03 182.2 173.92 182.44 172.07C182.69 170.22 180.96 168.22 177.24 169.39C173.52 170.56 174.91 171.2 174.91 171.2C174.91 171.2 177.55 172.82 179.24 173.82C180.93 174.82 183.73 175.68 183.12 176.4C182.52 177.13 180.91 176.69 179.55 175.6C178.2 174.52 174.31 171.93 173.92 172.9C173.52 173.86 172.12 176.51 172.12 176.51C173.84 176.77 175.54 177.15 177.21 177.64C179.47 178.35 179.93 179.59 178.16 179.68C176.4 179.78 173.2 178.45 172.21 180.14C171.22 181.83 171.89 186.17 171.89 186.17C171.89 186.17 175.13 183.98 176.77 183.98C178.42 183.99 177.37 184.9 175.53 186.09C174.73 186.58 173.96 187.12 173.22 187.69L174.89 191.99C176.17 191.81 177.46 191.72 178.76 191.71L179.85 191.79C179.85 191.79 179.85 187.28 181.15 185.94C182.44 184.6 182.67 187.7 182.94 188.49C183.22 189.28 182.39 191.64 182.39 191.64C182.39 191.64 185.6 189.88 186.63 189.19L187.68 188.49C187.68 188.49 186.48 185.22 185.66 184.28C184.85 183.34 183.74 183.49 184.67 182.67C185.6 181.86 187.01 182.29 187.81 183.44C188.47 184.53 189.06 185.68 189.55 186.86C189.55 186.86 190.74 187.06 192.29 185.3C193.85 183.55 193.33 182.95 191.63 181.95ZM176.95 186.91C175.71 186.29 178.66 185.05 178.66 185.05C179.75 184.9 178.19 187.54 176.95 186.92L176.95 186.91ZM179.05 181.13C178.52 180.86 180.11 180.34 180.11 180.34C182.39 180.78 179.57 181.39 179.05 181.13Z" fill="#CBCBCB" fill-opacity="1.000000" fill-rule="nonzero"/>
		<path id="Vector" d="M176.92 190.08C176.6 190.42 176.27 190.75 175.93 191.07" stroke="#263238" stroke-opacity="1.000000" stroke-width="1.000000" stroke-linejoin="round" stroke-linecap="round"/>
		<path id="Vector" d="M183.29 180.43C181.86 183.47 180.07 186.33 177.94 188.93" stroke="#263238" stroke-opacity="1.000000" stroke-width="1.000000" stroke-linejoin="round" stroke-linecap="round"/>
		<path id="Vector" d="M183.86 179.19C184.61 177.52 184.99 176.43 184.99 176.43C185.85 176.8 186.8 176.91 187.72 176.73C188.51 176.52 189.34 176.5 190.14 176.68" stroke="#263238" stroke-opacity="1.000000" stroke-width="1.000000" stroke-linejoin="round" stroke-linecap="round"/>
		<path id="Vector" d="M177.44 175.78C177.44 175.78 182.86 178.48 182.51 178.76" stroke="#263238" stroke-opacity="1.000000" stroke-width="1.000000" stroke-linejoin="round" stroke-linecap="round"/>
		<path id="Vector" d="M185.37 180.41C185.37 180.41 187.93 181.47 189.33 183.11" stroke="#263238" stroke-opacity="1.000000" stroke-width="1.000000" stroke-linejoin="round" stroke-linecap="round"/>
		<path id="Vector" d="M181.94 182.15C180.57 181.92 179.18 181.82 177.79 181.86C176.39 181.87 175 182.11 173.67 182.56" stroke="#263238" stroke-opacity="1.000000" stroke-width="1.000000" stroke-linejoin="round" stroke-linecap="round"/>
		<path id="Vector" d="M182.6 183.85C182.6 183.85 185.43 185.7 185.38 188" stroke="#263238" stroke-opacity="1.000000" stroke-width="1.000000" stroke-linejoin="round" stroke-linecap="round"/>
		<path id="Vector" d="M184.75 150.12C184.75 150.12 182.63 151.66 181.28 150.12C179.93 148.58 181.86 145.49 179.93 144.34C178 143.18 174.92 145.3 174.92 145.3C174.92 145.3 177.42 145.88 177.42 147.23C177.42 148.58 176.27 149.16 176.07 148.58C175.88 148 174.53 145.11 172.6 146.46C172.05 146.83 171.57 147.32 171.21 147.88C170.84 148.44 170.6 149.07 170.48 149.73C170.48 149.73 175.11 148.96 175.49 150.7C175.88 152.44 173.57 150.51 171.64 150.51C169.71 150.51 167.97 150.89 168.17 152.05C168.27 153.08 168.27 154.11 168.17 155.13C169.17 154.2 170.47 153.65 171.83 153.59C173.95 153.59 173.95 154.94 172.03 154.94C170.1 154.94 168.56 156.87 168.56 156.87C168.56 156.87 170.48 159.76 172.8 161.11C175.11 162.46 175.88 161.88 176.07 160.72C176.27 159.57 175.49 156.68 176.84 156.68C178.19 156.68 174.92 161.88 176.65 162.07C178.38 162.27 179.73 161.69 180.12 160.53L180.51 159.38C180.51 159.38 179.73 156.48 179.93 155.33C180.12 154.17 180.51 155.33 180.89 156.68C181.27 158.03 181.66 161.3 182.24 161.11C182.83 160.92 184.56 158.41 184.94 157.45C185.33 156.48 182.24 153.78 182.24 153.2C182.24 152.62 184.56 153.59 184.94 154.17C185.33 154.74 185.71 155.52 185.71 155.52C185.71 155.52 187.06 154.55 186.87 151.86C186.67 149.16 184.75 150.12 184.75 150.12Z" fill="#CBCBCB" fill-opacity="1.000000" fill-rule="nonzero"/>
		<path id="Vector" d="M173.95 157.11C175.28 155.25 177.26 152.72 178.97 151.47" stroke="#263238" stroke-opacity="1.000000" stroke-width="1.000000" stroke-linejoin="round" stroke-linecap="round"/>
		<path id="Vector" d="M172.41 159.38C172.41 159.38 172.75 158.84 173.3 158.04" stroke="#263238" stroke-opacity="1.000000" stroke-width="1.000000" stroke-linejoin="round" stroke-linecap="round"/>
		<path id="Vector" d="M179.93 151.86C179.93 151.86 182.25 154.75 182.82 157.83" stroke="#263238" stroke-opacity="1.000000" stroke-width="1.000000" stroke-linejoin="round" stroke-linecap="round"/>
		<path id="Vector" d="M177.62 153.78C177.62 153.78 178.19 153.4 178.19 157.26" stroke="#263238" stroke-opacity="1.000000" stroke-width="1.000000" stroke-linejoin="round" stroke-linecap="round"/>
		<path id="Vector" d="M178.97 150.12C178.97 150.12 180.12 148.96 179.35 146.84" stroke="#263238" stroke-opacity="1.000000" stroke-width="1.000000" stroke-linejoin="round" stroke-linecap="round"/>
		<path id="Vector" d="M176.46 150.51L177.43 150.51" stroke="#263238" stroke-opacity="1.000000" stroke-width="1.000000" stroke-linejoin="round" stroke-linecap="round"/>
		<path id="Vector" d="M175.69 153.78C175.69 153.78 172.8 151.86 171.06 151.86" stroke="#263238" stroke-opacity="1.000000" stroke-width="1.000000" stroke-linejoin="round" stroke-linecap="round"/>
		<path id="Vector" d="M204.22 193.31L189.31 193.31L189.31 214.76L204.22 214.76L204.22 193.31Z" fill="#263238" fill-opacity="1.000000" fill-rule="nonzero"/>
		<path id="Vector" d="M204.22 193.31L204.22 214.76L189.31 214.76L189.31 193.31L204.22 193.31Z" stroke="#263238" stroke-opacity="1.000000" stroke-width="2.000000" stroke-linejoin="round"/>
	</g>
</svg>
