<svg xmlns="http://www.w3.org/2000/svg" width="340" height="340" fill="none"><defs><clipPath id="a"><path fill="#fff" fill-opacity="0" d="M0 0h340v340H0z"/></clipPath></defs><path fill="none" d="M0 0h340v340H0z"/><g clip-path="url(#a)"><path fill="#CBCBCB" d="M324.81 156.97c-3.56-17.43-9.82-34.45-17.26-50.09-12.82-26.98-33.83-49.38-60.71-62.68-65.96-32.64-113.56-19.05-139.4 7.47-25.84 26.52-18.36 72.09-46.24 91.81-27.88 19.72-47.6 28.56-48.96 64.6-1.36 36.04 16.32 63.24 44.88 72.08 28.56 8.84 71.4 37.4 157.08 21.08s106.76-61.88 112.2-94.52c2.72-16.43 1.78-33.28-1.59-49.75Z"/><path fill="#FFF" d="M324.81 156.97c-3.56-17.43-9.82-34.45-17.26-50.09-12.82-26.98-33.83-49.38-60.71-62.68-65.96-32.64-113.56-19.05-139.4 7.47-25.84 26.52-18.36 72.09-46.24 91.81-27.88 19.72-47.6 28.56-48.96 64.6-1.36 36.04 16.32 63.24 44.88 72.08 28.56 8.84 71.4 37.4 157.08 21.08s106.76-61.88 112.2-94.52c2.72-16.43 1.78-33.28-1.59-49.75Z" opacity=".7"/><path fill="#C9C9C9" d="M123.97 57.47h-6.16v27.3h6.16v-27.3Z"/><path stroke="#263238" stroke-linejoin="round" d="M123.97 57.47v27.3h-6.16v-27.3h6.16Z"/><path fill="#FFF" d="M123.97 61.58h-6.16v2.66h6.16v-2.66Z"/><path stroke="#263238" stroke-linejoin="round" d="M123.97 61.58v2.66h-6.16v-2.66h6.16Z"/><path fill="#FFF" d="M123.97 78.51h-6.16v2.67h6.16v-2.67Z"/><path stroke="#263238" stroke-linejoin="round" d="M123.97 78.51v2.67h-6.16v-2.67h6.16Z"/><path fill="#878787" d="M131.16 57.47h-8.62v27.3h8.62v-27.3Z"/><path stroke="#263238" stroke-linejoin="round" d="M131.16 57.47v27.3h-8.62v-27.3h8.62Z"/><path fill="#C9C9C9" d="M130.55 57.47h-6.16v27.3h6.16v-27.3Z"/><path stroke="#263238" stroke-linejoin="round" d="M130.55 57.47v27.3h-6.16v-27.3h6.16Z"/><path fill="#FFF" d="M130.55 61.58h-6.16v2.66h6.16v-2.66Z"/><path stroke="#263238" stroke-linejoin="round" d="M130.55 61.58v2.66h-6.16v-2.66h6.16Z"/><path fill="#FFF" d="M130.55 78.51h-6.16v2.67h6.16v-2.67Z"/><path stroke="#263238" stroke-linejoin="round" d="M130.55 78.51v2.67h-6.16v-2.67h6.16Z"/><path fill="#878787" d="M137.73 57.47h-8.62v27.3h8.62v-27.3Z"/><path stroke="#263238" stroke-linejoin="round" d="M137.73 57.47v27.3h-8.62v-27.3h8.62Z"/><path fill="#C9C9C9" d="M137.12 57.47h-6.16v27.3h6.16v-27.3Z"/><path stroke="#263238" stroke-linejoin="round" d="M137.12 57.47v27.3h-6.16v-27.3h6.16Z"/><path fill="#FFF" d="M137.12 61.58h-6.16v2.66h6.16v-2.66Z"/><path stroke="#263238" stroke-linejoin="round" d="M137.12 61.58v2.66h-6.16v-2.66h6.16Z"/><path fill="#FFF" d="M137.12 78.51h-6.16v2.67h6.16v-2.67Z"/><path stroke="#263238" stroke-linejoin="round" d="M137.12 78.51v2.67h-6.16v-2.67h6.16Z"/><path fill="#C9C9C9" d="M144.3 57.47h-8.62v27.3h8.62v-27.3Z"/><path stroke="#263238" stroke-linejoin="round" d="M144.3 57.47v27.3h-8.62v-27.3h8.62Z"/><path fill="#FFF" d="M149.92 85.05h14.47l3.84-3.48h-18.31v3.48Z"/><path stroke="#263238" stroke-linejoin="round" d="m164.39 85.05 3.84-3.48h-18.31v3.48h14.47Z"/><path fill="#FFF" d="m166.6 85.23-.47-.8-16.51-.03.47.83h16.51Z"/><path stroke="#263238" stroke-linejoin="round" d="m166.13 84.43-16.51-.03.47.83h16.51l-.47-.8Z"/><path fill="#C9C9C9" d="m141.54 58.04-5.34 3.08 13.67 23.64 5.34-3.09-13.67-23.63Z"/><path stroke="#263238" stroke-linejoin="round" d="m141.54 58.04 13.67 23.63-5.34 3.09-13.67-23.64 5.34-3.08Z"/><path fill="#FFF" d="m143.6 61.58-5.34 3.09 1.34 2.3 5.33-3.08-1.33-2.31Z"/><path stroke="#263238" stroke-linejoin="round" d="m143.6 61.58 1.33 2.31-5.33 3.08-1.34-2.3 5.34-3.09Z"/><path fill="#FFF" d="m152.08 76.24-5.33 3.09 1.33 2.31 5.33-3.09-1.33-2.31Z"/><path stroke="#263238" stroke-linejoin="round" d="m152.08 76.24 1.33 2.31-5.33 3.09-1.33-2.31 5.33-3.09Z"/><path fill="#C9C9C9" d="m168.14 81.81-13.08-.04-13.67-23.64 13.08.04 13.67 23.64Z"/><path stroke="#263238" stroke-linejoin="round" d="m155.06 81.77-13.67-23.64 13.08.04 13.67 23.64-13.08-.04Z"/><path fill="#CBCBCB" d="M175.27 71.23s-2.38-.86-3.06-4.6c-.68-3.74-1.87-9.01-.51-10.2 1.36-1.18 3.91-1.86 4.25.52.34 2.38-.17 6.96.34 7.98.51 1.03 2.21.35 2.21-1.69 0-3.36-1.36-6.81-.88-10.2.68-4.7 5.44-5.22 5.95 0 .28 2.88.37 5.82.37 8.72 0 1.19 2.04 1.87 1.87-1.02-.13-2.04 1.36-4.42 3.4-3.74 2.04.68.34 9.69-.34 11.22-.68 1.53-4.93 1.82-4.93 1.82v3.9l-5.1.18-.17-3.91c-1.04.6-2.21.94-3.4 1.02Z"/><path stroke="#263238" stroke-linejoin="round" d="M172.21 66.63c-.68-3.74-1.87-9.01-.51-10.2 1.36-1.18 3.91-1.86 4.25.52.34 2.38-.17 6.96.34 7.98.51 1.03 2.21.35 2.21-1.69 0-3.36-1.36-6.81-.88-10.2.68-4.7 5.44-5.22 5.95 0 .28 2.88.37 5.82.37 8.72 0 1.19 2.04 1.87 1.87-1.02-.13-2.04 1.36-4.42 3.4-3.74 2.04.68.34 9.69-.34 11.22-.68 1.53-4.93 1.82-4.93 1.82v3.9l-5.1.18-.17-3.91c-1.04.6-2.21.94-3.4 1.02 0 0-2.38-.86-3.06-4.6Z"/><path stroke="#263238" stroke-linecap="round" stroke-linejoin="round" d="M179.86 63.77c.06.85.1 1.36.1 1.36M180.2 50.59s-1.12.77-1.04 3.1c.06 1.41.33 5.33.54 8.19M182.11 58.6l.18 5.7M184.6 68c-.39.06-.79.09-1.19.1M188.15 58.43c-.39.75-.6 1.58-.6 2.42 0 1.36.09 5.17-.78 6.21-.21.23-.47.41-.75.54M173.4 66.08c.2 1.03.69 1.97 1.41 2.72.43.34.95.54 1.5.55.54.02 1.08-.15 1.52-.46M173.23 56.88s-1.72 0-1.12 3.02c.26 1.27.5 2.83.8 4.31M179.7 68.35l.35 3.7"/><path fill="#FFF" d="m188.53 72.41-.62 5.08-.42 3.45-.49 4.02h-12.24l-.49-4.02-.42-3.45-.62-5.08h15.3Z"/><path stroke="#263238" stroke-linejoin="round" d="m187.91 77.49-.42 3.45-.49 4.02h-12.24l-.49-4.02-.42-3.45-.62-5.08h15.3l-.62 5.08Z"/><path fill="#CBCBCB" d="m187.91 77.49-.42 3.45h-13.22l-.42-3.45h14.06Z"/><path stroke="#263238" stroke-linejoin="round" d="M187.49 80.94h-13.22l-.42-3.45h14.06l-.42 3.45Z"/><path fill="#FFF" d="M195.24 84.96h-78.52v5.2h78.52v-5.2Z"/><path stroke="#263238" stroke-linejoin="round" d="M195.24 84.96v5.2h-78.52v-5.2h78.52Z"/><path fill="#FFF" d="M195.24 84.96h-18.1v5.2h18.1v-5.2Z"/><path stroke="#263238" stroke-linejoin="round" d="M195.24 84.96v5.2h-18.1v-5.2h18.1Z"/><path fill="#919191" d="M175.38 90.18c8.41 3.1 6.9 8.97 6.9 8.97h7.96v-8.97h-14.86Z"/><path stroke="#263238" stroke-linejoin="round" d="M182.28 99.15h7.96v-8.97h-14.86c8.41 3.1 6.9 8.97 6.9 8.97Z"/><path fill="#FFF" d="M178.07 90.18c8.4 3.1 6.89 8.97 6.89 8.97h7.97v-8.97h-14.86Z"/><path stroke="#263238" stroke-linejoin="round" d="M184.96 99.15h7.97v-8.97h-14.86c8.4 3.1 6.89 8.97 6.89 8.97Z"/><path fill="#919191" d="M121.49 90.18c8.41 3.1 6.9 8.97 6.9 8.97h7.96v-8.97h-14.86Z"/><path stroke="#263238" stroke-linejoin="round" d="M128.39 99.15h7.96v-8.97h-14.86c8.41 3.1 6.9 8.97 6.9 8.97Z"/><path fill="#FFF" d="M124.18 90.18c8.4 3.1 6.89 8.97 6.89 8.97h7.96v-8.97h-14.85Z"/><path stroke="#263238" stroke-linejoin="round" d="M131.07 99.15h7.96v-8.97h-14.85c8.4 3.1 6.89 8.97 6.89 8.97Z"/><path fill="#919191" d="M304.66 58.44h-70.42v97.76h70.42V58.44Z"/><path stroke="#263238" stroke-linejoin="round" d="M304.66 58.44v97.76h-70.42V58.44h70.42Z"/><path fill="#CBCBCB" fill-rule="evenodd" d="M237.3 62.68h64.31v89.27H237.3V62.68Z"/><path fill="#FFF" fill-rule="evenodd" d="M237.3 62.68h64.31v89.27H237.3V62.68Z" opacity=".5"/><path stroke="#263238" stroke-linecap="round" stroke-linejoin="round" d="M251.44 145.17c-1.73 2.64-3.9 4.94-6.43 6.81h56.6v-89.3h-10.43l-1.36.43c-10.2 3.22-20.74 12.53-26.72 29.45"/><path stroke="#263238" stroke-linecap="round" stroke-linejoin="round" d="M262.11 95.52a96.208 96.208 0 0 0-3.9 24.82c-.38 10.09-2.53 17.35-5.4 22.56M295.32 85.34c-9.35 5.44-20.24 14.58-24.3 28.6-2.19 7.48-.14 14.22 3.91 20M277.12 136.75c5.61 6.57 13.6 11.74 20.06 15.21h4.43V82.04c-1.26.6-2.61 1.26-4.01 2.04M247.99 85.96c4.92-10.04 5.44-18 4.88-23.28h-15.55v40.85c2.29-3.28 5.11-7.65 8.51-13.51.21-.36.41-.68.6-1.06M254.08 124.62c-.75 4.94-3.02 8.53-5.7 8.53-3.3 0-5.98-5.44-5.98-12.17 0-6.73 2.68-12.17 5.98-12.17 3.3 0 5.98 5.44 5.98 12.17"/><path stroke="#263238" stroke-linejoin="round" d="M254.36 100.7c-1.42 0-2.56-2.11-2.56-4.7 0-2.59 1.14-4.7 2.56-4.7 1.41 0 2.56 2.1 2.56 4.7 0 2.59-1.14 4.7-2.56 4.7Z"/><path stroke="#263238" stroke-linecap="round" stroke-linejoin="round" d="M289.55 115.85c2.46 1.17 4.08 3.23 4.08 5.56 0 3.65-4.02 6.62-8.97 6.62-4.96 0-8.97-2.97-8.97-6.62s4.02-6.62 8.97-6.62c.79 0 1.58.07 2.35.23"/><path stroke="#263238" stroke-linejoin="round" d="M284.68 124.18c-2.08 0-3.76-1.24-3.76-2.77s1.68-2.78 3.76-2.78c2.07 0 3.76 1.24 3.76 2.78 0 1.53-1.68 2.77-3.76 2.77ZM289.8 108.38c-2.59 0-4.7-1.72-4.7-3.84s2.11-3.84 4.7-3.84c2.6 0 4.7 1.72 4.7 3.84s-2.1 3.84-4.7 3.84ZM260.55 83.19c-1.77 0-3.2-3.54-3.2-7.91 0-4.36 1.43-7.9 3.2-7.9 1.77 0 3.2 3.54 3.2 7.9 0 4.37-1.43 7.91-3.2 7.91ZM268.55 145.68c-.49.74-1.19 1.32-2.01 1.66-.82.34-1.72.43-2.59.25a4.43 4.43 0 0 1-2.3-1.23 4.4 4.4 0 0 1-1.23-2.29c-.17-.88-.08-1.78.26-2.6.33-.82.91-1.52 1.65-2.01.74-.49 1.6-.76 2.49-.76a4.488 4.488 0 0 1 4.49 4.49c0 .89-.26 1.76-.76 2.49ZM289.77 78.11c-.31.46-.74.82-1.25 1.03a2.775 2.775 0 0 1-3.03-.6c-.39-.39-.66-.89-.77-1.43-.1-.54-.05-1.1.16-1.61.22-.51.57-.94 1.03-1.25.46-.3 1-.46 1.55-.46.73 0 1.44.29 1.96.81s.81 1.23.81 1.96c0 .55-.16 1.09-.46 1.55ZM272.47 97.04c-.16.25-.39.44-.67.56-.27.11-.57.14-.86.08-.29-.05-.56-.2-.77-.4a1.524 1.524 0 0 1-.33-1.64c.12-.27.31-.5.56-.67.24-.16.53-.25.83-.25.19 0 .39.04.57.11.18.07.35.18.48.32.14.14.25.31.33.49.07.18.11.37.11.57 0 .29-.08.58-.25.83Z"/><path stroke="#263238" stroke-linejoin="round" d="M301.61 62.68v89.27H237.3V62.68h64.31Z"/><path fill="#263238" d="M196.51 189.98h-17.47v6.58h17.47v-6.58Z"/><path stroke="#263238" stroke-linejoin="round" d="M196.51 189.98v6.58h-17.47v-6.58h17.47Z"/><path fill="#919191" d="M219.95 190.97h-69.53l3.29-53.89h69.54l-3.3 53.89Z"/><path stroke="#263238" stroke-linejoin="round" d="m150.42 190.97 3.29-53.89h69.54l-3.3 53.89h-69.53Z"/><path fill="#263238" d="M217.96 190.97h-69.53l3.29-53.89h69.53l-3.29 53.89Z"/><path stroke="#263238" stroke-linejoin="round" d="m148.43 190.97 3.29-53.89h69.53l-3.29 53.89h-69.53Z"/><path fill="#FFF" d="M214.28 187.97h-61.81l2.92-47.9h61.81l-2.92 47.9Z"/><path stroke="#263238" stroke-linejoin="round" d="m152.47 187.97 2.92-47.9h61.81l-2.92 47.9h-61.81Z"/><path fill="#919191" d="M196.3 180.83h-41.99l2.26-36.91h41.99l-2.26 36.91Z"/><path stroke="#263238" stroke-linejoin="round" d="m154.31 180.83 2.26-36.91h41.99l-2.26 36.91h-41.99Z"/><path fill="#FFF" d="M170.88 164.98s-8.75 3.46-8.8 4.39c-.05.93-1.77 11.46-1.77 11.46h26.01l-2.19-12.13-9.63-3.99-3.62.27Z"/><path stroke="#263238" stroke-linejoin="round" d="M162.08 169.37c-.05.93-1.77 11.46-1.77 11.46h26.01l-2.19-12.13-9.63-3.99-3.62.27s-8.75 3.46-8.8 4.39Z"/><path fill="#FFF" d="M171.14 162.84c-.66.18-1.27.49-1.79.93-.68.68-1.51 2.93-1.51 2.93l-.03 2.67 3.44-1.86 3.51-.23 3.27 3.06.42-4.66s-.5-2.67-1.56-2.8c-1.06-.14-5.75-.04-5.75-.04Z"/><path stroke="#263238" stroke-linejoin="round" d="M169.35 163.77c-.68.68-1.51 2.93-1.51 2.93l-.03 2.67 3.44-1.86 3.51-.23 3.27 3.06.42-4.66s-.5-2.67-1.56-2.8c-1.06-.14-5.75-.04-5.75-.04-.66.18-1.27.49-1.79.93Z"/><path fill="#FFF" d="m171.03 160.31-.15 4.67 2.06 3.33 3.41-3.47.53-4.26-5.85-.27Z"/><path stroke="#263238" stroke-linejoin="round" d="m170.88 164.98 2.06 3.33 3.41-3.47.53-4.26-5.85-.27-.15 4.67Z"/><path fill="#FFF" d="M179.43 154.86c-.24 3.91-2.84 8.65-5.69 8.65-2.85 0-4.87-4.76-4.63-8.65.24-3.89 2.72-7.08 5.59-7.08 2.87 0 4.97 3.18 4.73 7.08Z"/><path stroke="#263238" stroke-linejoin="round" d="M173.74 163.51c-2.85 0-4.87-4.76-4.63-8.65.24-3.89 2.72-7.08 5.59-7.08 2.87 0 4.97 3.18 4.73 7.08-.24 3.91-2.84 8.65-5.69 8.65Z"/><path fill="#FFF" d="M169.06 155.38s-.91-2.4-1.29-.53c-.39 1.86 1.49 3.86 1.49 3.86l-.2-3.33Z"/><path stroke="#263238" stroke-linejoin="round" d="M167.77 154.85c-.39 1.86 1.49 3.86 1.49 3.86l-.2-3.33s-.91-2.4-1.29-.53Z"/><path fill="#FFF" d="M179.43 154.86s2.25-.95 1.6 1.05a3.936 3.936 0 0 1-2.29 2.53l.69-3.58Z"/><path stroke="#263238" stroke-linejoin="round" d="M181.03 155.91a3.936 3.936 0 0 1-2.29 2.53l.69-3.58s2.25-.95 1.6 1.05Z"/><path fill="#FFF" d="M173.46 155.38a1.723 1.723 0 0 0-1.05-1.73 1.86 1.86 0 0 0-.7-.14c-.5.02-.98.21-1.35.56-.36.34-.59.81-.63 1.31-.02.24.01.48.1.7.08.23.2.44.37.62.16.17.36.31.58.41.22.09.46.14.7.14.51-.02.99-.22 1.35-.56.37-.35.59-.81.63-1.31Z"/><path stroke="#263238" stroke-linejoin="round" d="M173.37 154.67a1.723 1.723 0 0 0-.96-1.02 1.86 1.86 0 0 0-.7-.14c-.5.02-.98.21-1.35.56-.36.34-.59.81-.63 1.31-.02.24.01.48.1.7.08.23.2.44.37.62.16.17.36.31.58.41.22.09.46.14.7.14.51-.02.99-.22 1.35-.56.37-.35.59-.81.63-1.31.02-.24-.01-.49-.09-.71Z"/><path stroke="#263238" stroke-linecap="round" stroke-linejoin="round" d="m177.99 155.38 2.04-.53"/><path fill="#FFF" d="M177.99 155.38c.02-.24-.01-.49-.09-.71-.08-.23-.21-.43-.37-.61-.17-.18-.37-.31-.59-.41a1.86 1.86 0 0 0-.7-.14c-.5.01-.98.21-1.34.55-.37.35-.6.82-.64 1.32-.02.24.01.48.09.7.08.23.21.44.38.62.16.17.36.31.58.41.22.09.46.14.7.14.51-.02.99-.22 1.35-.56.37-.35.59-.81.63-1.31Z"/><path stroke="#263238" stroke-linejoin="round" d="M177.9 154.67c-.08-.23-.21-.43-.37-.61-.17-.18-.37-.31-.59-.41a1.86 1.86 0 0 0-.7-.14c-.5.01-.98.21-1.34.55-.37.35-.6.82-.64 1.32-.02.24.01.48.09.7.08.23.21.44.38.62.16.17.36.31.58.41.22.09.46.14.7.14.51-.02.99-.22 1.35-.56.37-.35.59-.81.63-1.31.02-.24-.01-.49-.09-.71Z"/><path fill="#263238" d="M174.24 146.98s-2.04-1.06-3.57-.4c-1.53.67-2.66 4.27-2.59 5.2.24 1.22.57 2.42.98 3.6l1.62-4.67 4.25-1.86-.69-1.87Z"/><path stroke="#263238" stroke-linejoin="round" d="M170.67 146.58c-1.53.67-2.66 4.27-2.59 5.2.24 1.22.57 2.42.98 3.6l1.62-4.67 4.25-1.86-.69-1.87s-2.04-1.06-3.57-.4Z"/><path fill="#263238" d="M172.19 147.92s3.35-2.67 6.07-1.36c.84.36 1.53.99 1.96 1.78.43.8.59 1.72.44 2.62-.04.68-.09 3.72-.09 3.72l-1.62.27-.79-2.51c-.92-.36-1.82-.78-2.68-1.26 0 0-3.6-.47-3.29-3.26Z"/><path stroke="#263238" stroke-linejoin="round" d="M178.26 146.56c.84.36 1.53.99 1.96 1.78.43.8.59 1.72.44 2.62-.04.68-.09 3.72-.09 3.72l-1.62.27-.79-2.51c-.92-.36-1.82-.78-2.68-1.26 0 0-3.6-.47-3.29-3.26 0 0 3.35-2.67 6.07-1.36Z"/><path fill="#FFF" d="m173.46 155.38-.23 3.86h.93m-1.18-3.87-.02-.03c.02-.27.25-.48.53-.46.28.01.49.25.47.53l-.02.01-.96-.05Zm1.16 3.39.02-.02c.28 0 .5.22.5.5s-.22.5-.5.5l-.02-.02v-.96Z"/><path stroke="#263238" stroke-linecap="round" stroke-linejoin="round" d="m173.46 155.38-.23 3.86h.93"/><path fill="#FFF" d="m172.76 161.19-.02.02c-.28 0-.5-.22-.5-.5s.22-.5.5-.5l.02.02v.96Zm1.96-.96.02-.02c.28 0 .5.22.5.5s-.22.5-.5.5l-.02-.02v-.96Z"/><path stroke="#263238" stroke-linecap="round" stroke-linejoin="round" d="M172.74 160.71h2M172.94 168.31l-.74 12.12M184.11 168.7s-2.78 6.27-2.86 7.61c-.08 1.33-.39 4.26-.39 4.26M162.08 169.37s2.77 4.8 3.13 5.44c.36.64-.08 5.73-.08 5.73"/><path fill="#FFF" d="m185.97 173.24.92-4.14 1.56-1.59 1.48-2.4h.66l-.81 2.53 2.06-1.2 1.34-2.13.77.39-1.9 4.94-3.02 1.46-.52 2-2.54.14Z"/><path stroke="#263238" stroke-linejoin="round" d="m186.89 169.1 1.56-1.59 1.48-2.4h.66l-.81 2.53 2.06-1.2 1.34-2.13.77.39-1.9 4.94-3.02 1.46-.52 2-2.54.14.92-4.14Z"/><path fill="#FFF" d="m188.55 180.83.25-8.26-3.03-.53-2.39 8.79h5.17Z"/><path stroke="#263238" stroke-linejoin="round" d="m188.8 172.57-3.03-.53-2.39 8.79h5.17l.25-8.26Z"/><path fill="#FFF" d="M196.11 183.9h-41.99l.19-3.07h41.99l-.19 3.07Z"/><path stroke="#263238" stroke-linejoin="round" d="m154.12 183.9.19-3.07h41.99l-.19 3.07h-41.99Z"/><path fill="#FFF" d="m155.86 182.52-.02.02c-.28 0-.5-.22-.5-.5s.22-.5.5-.5l.02.02v.96Zm38.48-.96.02-.02c.28 0 .5.22.5.5s-.22.5-.5.5l-.02-.02v-.96Z"/><path stroke="#263238" stroke-linecap="round" stroke-linejoin="round" d="M155.84 182.04h38.52"/><path fill="#CBCBCB" d="M214.35 153.77h-14.14l.6-9.73h14.13l-.59 9.73Z"/><path stroke="#263238" stroke-linejoin="round" d="m200.21 153.77.6-9.73h14.13l-.59 9.73h-14.14Z"/><path fill="#FFF" d="M214.35 153.77h-14.14l.11-1.6h14.13l-.1 1.6Z"/><path stroke="#263238" stroke-linejoin="round" d="m200.21 153.77.11-1.6h14.13l-.1 1.6h-14.14Z"/><path fill="#FFF" d="m209.78 148.34-3.67-2.2-.26 4.39 3.93-2.19Z"/><path stroke="#263238" stroke-linejoin="round" d="m206.11 146.14-.26 4.39 3.93-2.19-3.67-2.2Z"/><path fill="#CBCBCB" d="M213.43 168.83H199.3l.59-9.72h14.13l-.59 9.72Z"/><path stroke="#263238" stroke-linejoin="round" d="m199.3 168.83.59-9.72h14.13l-.59 9.72H199.3Z"/><path fill="#FFF" d="M213.43 168.83H199.3l.1-1.6h14.12l-.09 1.6Z"/><path stroke="#263238" stroke-linejoin="round" d="m199.3 168.83.1-1.6h14.12l-.09 1.6H199.3Z"/><path fill="#FFF" d="m208.86 163.41-3.67-2.2-.26 4.39 3.93-2.19Z"/><path stroke="#263238" stroke-linejoin="round" d="m205.19 161.21-.26 4.39 3.93-2.19-3.67-2.2Z"/><path fill="#CBCBCB" d="M212.5 183.9h-14.12l.59-9.73h14.13l-.6 9.73Z"/><path stroke="#263238" stroke-linejoin="round" d="m198.38 183.9.59-9.73h14.13l-.6 9.73h-14.12Z"/><path fill="#FFF" d="M212.5 183.9h-14.12l.09-1.6h14.13l-.1 1.6Z"/><path stroke="#263238" stroke-linejoin="round" d="m198.38 183.9.09-1.6h14.13l-.1 1.6h-14.12Z"/><path fill="#FFF" d="m207.94 178.47-3.67-2.2-.27 4.39 3.94-2.19Z"/><path stroke="#263238" stroke-linejoin="round" d="m204.27 176.27-.27 4.39 3.94-2.19-3.67-2.2Z"/><path stroke="#263238" stroke-linecap="round" stroke-linejoin="round" d="M200.26 155.38h13.72M200.15 156.98h13.73M199.32 170.57h13.73M199.23 172.17h13.73"/><path fill="#FFF" d="M193.24 196.56h-10.32c0-1.03.41-2.02 1.13-2.75a3.89 3.89 0 0 1 2.75-1.14h2.54c1.03 0 2.02.41 2.75 1.14s1.13 1.72 1.13 2.75h.02Z"/><path stroke="#263238" stroke-linejoin="round" d="M182.92 196.56c0-1.03.41-2.02 1.13-2.75a3.89 3.89 0 0 1 2.75-1.14h2.54c1.03 0 2.02.41 2.75 1.14s1.13 1.72 1.13 2.75h.02-10.32Z"/><path fill="#919191" d="M178 194.44h-50.47v2.12H178v-2.12Z"/><path stroke="#263238" stroke-linejoin="round" d="M178 194.44v2.12h-50.47v-2.12H178Z"/><path fill="#FFF" d="M177.99 194.44H165.3v2.12h12.69v-2.12Z"/><path stroke="#263238" stroke-linejoin="round" d="M177.99 194.44v2.12H165.3v-2.12h12.69Z"/><path stroke="#263238" stroke-linecap="round" stroke-linejoin="round" d="M106.84 92.9V52.72M106.84 294V96.9"/><path fill="#919191" d="m198.6 210.66 6.12 82.5a1.2 1.2 0 0 0 1.24 1.07c.3-.02.59-.14.8-.36.21-.22.33-.51.34-.81l-.92-82.4h-7.58Z"/><path stroke="#263238" stroke-linejoin="round" d="M204.72 293.16a1.2 1.2 0 0 0 1.24 1.07c.3-.02.59-.14.8-.36.21-.22.33-.51.34-.81l-.92-82.4h-7.58l6.12 82.5Z"/><path fill="#FFF" d="m203.22 210.66 3.23 83.46c.19-.11.35-.26.46-.44.11-.19.17-.4.17-.62l-.9-82.4h-2.96Z"/><path stroke="#263238" stroke-linejoin="round" d="M206.45 294.12c.19-.11.35-.26.46-.44.11-.19.17-.4.17-.62l-.9-82.4h-2.96l3.23 83.46Z"/><path fill="#919191" d="m237.07 210.66 6.12 82.5a1.2 1.2 0 0 0 1.24 1.07c.3-.02.58-.14.8-.36.21-.22.33-.51.33-.81l-.91-82.4h-7.58Z"/><path stroke="#263238" stroke-linejoin="round" d="M243.19 293.16a1.2 1.2 0 0 0 1.24 1.07c.3-.02.58-.14.8-.36.21-.22.33-.51.33-.81l-.91-82.4h-7.58l6.12 82.5Z"/><path fill="#FFF" d="m241.33 210.66 3.76 83.33a1.118 1.118 0 0 0 .45-.93l-.89-82.4h-3.32Z"/><path stroke="#263238" stroke-linejoin="round" d="M245.09 293.99a1.118 1.118 0 0 0 .45-.93l-.89-82.4h-3.32l3.76 83.33Z"/><path fill="#263238" d="m135.67 211.56-6.12 81.6c-.02.3-.16.58-.38.78-.22.21-.5.32-.8.32-.16 0-.32-.03-.46-.09a1.123 1.123 0 0 1-.66-.64c-.06-.14-.09-.3-.09-.46l.9-81.73 7.61.22Z"/><path stroke="#263238" stroke-linejoin="round" d="M129.55 293.16c-.02.3-.16.58-.38.78-.22.21-.5.32-.8.32-.16 0-.32-.03-.46-.09a1.123 1.123 0 0 1-.66-.64c-.06-.14-.09-.3-.09-.46l.9-81.73 7.61.22-6.12 81.6Z"/><path fill="#263238" d="m97.23 211.56-6.11 81.6c-.03.3-.16.58-.38.78-.22.21-.51.32-.81.32-.16 0-.31-.03-.45-.1a1.16 1.16 0 0 1-.39-.26c-.11-.11-.2-.24-.26-.39-.05-.14-.08-.3-.08-.45l.9-81.74 7.58.24Z"/><path stroke="#263238" stroke-linejoin="round" d="M91.12 293.16c-.03.3-.16.58-.38.78-.22.21-.51.32-.81.32-.16 0-.31-.03-.45-.1a1.16 1.16 0 0 1-.39-.26c-.11-.11-.2-.24-.26-.39-.05-.14-.08-.3-.08-.45l.9-81.74 7.58.24-6.11 81.6Z"/><path fill="#919191" d="M246.9 198.47H87.35v12.86H246.9v-12.86Z"/><path stroke="#263238" stroke-linejoin="round" d="M246.9 198.47v12.86H87.35v-12.86H246.9Z"/><path fill="#FFF" d="M246.9 198.47h-45.73v12.86h45.73v-12.86Z"/><path stroke="#263238" stroke-linejoin="round" d="M246.9 198.47v12.86h-45.73v-12.86h45.73Z"/><path fill="#263238" d="M246.9 200.51H87.35v3.55H246.9v-3.55Z"/><path stroke="#263238" stroke-linejoin="round" d="M246.9 200.51v3.55H87.35v-3.55H246.9Z"/><path fill="#919191" d="M249.19 196.63H85.05v4.3h164.14v-4.3Z"/><path stroke="#263238" stroke-linejoin="round" d="M249.19 196.63v4.3H85.05v-4.3h164.14Z"/><path fill="#FFF" d="M249.19 196.63h-45.08v4.3h45.08v-4.3Z"/><path stroke="#263238" stroke-linejoin="round" d="M249.19 196.63v4.3h-45.08v-4.3h45.08Z"/><path fill="#FFF" d="M200.79 116.96h-22.15c-1.16 0-2.26.45-3.08 1.27-.81.82-1.27 1.92-1.27 3.08v8.16c0 .57.11 1.14.33 1.66.21.53.53 1.01.94 1.42a4.356 4.356 0 0 0 3.08 1.27h11.6l-4.35 12.14 8.33-12.14h6.57a4.362 4.362 0 0 0 3.08-1.27c.41-.41.73-.89.95-1.42.21-.52.33-1.09.32-1.66v-8.16a4.334 4.334 0 0 0-4.35-4.35Z"/><path stroke="#263238" stroke-linejoin="round" d="M178.64 116.96c-1.16 0-2.26.45-3.08 1.27-.81.82-1.27 1.92-1.27 3.08v8.16c0 .57.11 1.14.33 1.66.21.53.53 1.01.94 1.42a4.356 4.356 0 0 0 3.08 1.27h11.6l-4.35 12.14 8.33-12.14h6.57a4.362 4.362 0 0 0 3.08-1.27c.41-.41.73-.89.95-1.42.21-.52.33-1.09.32-1.66v-8.16a4.334 4.334 0 0 0-4.35-4.35h-22.15Z"/><path fill="#263238" fill-rule="evenodd" d="M185.36 125.66a1.586 1.586 0 0 1-3.17 0c0-.88.71-1.58 1.59-1.58.87 0 1.58.7 1.58 1.58ZM191.3 125.66a1.586 1.586 0 0 1-3.17 0c0-.88.71-1.58 1.59-1.58.87 0 1.58.7 1.58 1.58Z"/><path fill="#263238" d="M197.23 125.66c0-.31-.09-.62-.27-.88-.17-.26-.42-.47-.71-.59-.29-.11-.61-.15-.92-.08-.3.06-.59.21-.81.43a1.601 1.601 0 0 0-.34 1.73c.12.29.33.54.59.71.26.17.57.27.88.26a1.58 1.58 0 0 0 1.12-.46 1.572 1.572 0 0 0 .46-1.12Z"/><path stroke="#263238" stroke-linecap="round" stroke-linejoin="round" d="M306 294.44h18.35M16.31 294.44h280.17"/><path fill="#FFF" d="M124.19 174.27c-1.99-3.4-7.85-16.49-7.85-16.49.17-1.4.46-2.78.85-4.14.49-1.36 1.7-5.48 1.46-6.34-.25-.85-3.78-2.43-4.14-2.55-.36-.13.49-2.19-.85-2.68-1.34-.49-1.82.24-1.82.24l-.51 3.4-1.57 2.45c-.65-.49-1.33-.95-2.04-1.36-1.09-.61-3.65-.86-3.77.12-.12.98 2.04 1.83 2.79 2.44.76.61 1.71 3.53 2.57 4.38.77.85 1.51 1.75 2.19 2.68l.48 1.58s1.67 16.04 1.87 20.03c.2 3.99.79 14.56 1.99 16.15 1.2 1.59 1.4 2.59 4.76 1.4 3.36-1.2 3.99-2.8 4.76-6.39.78-3.59.82-11.54-1.17-14.92Z"/><path stroke="#263238" stroke-linejoin="round" d="M116.34 157.78c.17-1.4.46-2.78.85-4.14.49-1.36 1.7-5.48 1.46-6.34-.25-.85-3.78-2.43-4.14-2.55-.36-.13.49-2.19-.85-2.68-1.34-.49-1.82.24-1.82.24l-.51 3.4-1.57 2.45c-.65-.49-1.33-.95-2.04-1.36-1.09-.61-3.65-.86-3.77.12-.12.98 2.04 1.83 2.79 2.44.76.61 1.71 3.53 2.57 4.38.77.85 1.51 1.75 2.19 2.68l.48 1.58s1.67 16.04 1.87 20.03c.2 3.99.79 14.56 1.99 16.15 1.2 1.59 1.4 2.59 4.76 1.4 3.36-1.2 3.99-2.8 4.76-6.39.78-3.59.82-11.54-1.17-14.92-1.99-3.4-7.85-16.49-7.85-16.49Z"/><path fill="#CBCBCB" d="M125.39 189.21c.79-3.58.79-11.56-1.2-14.96-.22-.37-.48-.85-.78-1.43-4.51-1.31-8.79.83-8.79.83l-1.09.48c.14 1.67.25 3.06.29 3.91.2 3.98.8 14.55 1.99 16.14 1.2 1.59 1.4 2.6 4.76 1.4 3.36-1.19 4.01-2.78 4.82-6.37Z"/><path stroke="#263238" stroke-linejoin="round" d="M124.19 174.25c-.22-.37-.48-.85-.78-1.43-4.51-1.31-8.79.83-8.79.83l-1.09.48c.14 1.67.25 3.06.29 3.91.2 3.98.8 14.55 1.99 16.14 1.2 1.59 1.4 2.6 4.76 1.4 3.36-1.19 4.01-2.78 4.82-6.37.79-3.58.79-11.56-1.2-14.96Z"/><path fill="#FFF" d="M109.65 120.36c.49 1.8.77 3.66.82 5.52 0 2.66-.82 4.3.41 5.12 1.23.81 2.25.82 2.04 2.46-.08.9-.44 1.76-1.02 2.45 0 0-.41 8.4-.82 9.22-.41.82-5.73-.21-6.96-.42-1.23-.21-4.71 1.44-6.97-3.06-2.25-4.51-.4-11.26 3.69-14.75 2.82-2.34 5.76-4.52 8.81-6.54Z"/><path stroke="#263238" stroke-linejoin="round" d="M110.47 125.88c0 2.66-.82 4.3.41 5.12 1.23.81 2.25.82 2.04 2.46-.08.9-.44 1.76-1.02 2.45 0 0-.41 8.4-.82 9.22-.41.82-5.73-.21-6.96-.42-1.23-.21-4.71 1.44-6.97-3.06-2.25-4.51-.4-11.26 3.69-14.75 2.82-2.34 5.76-4.52 8.81-6.54.49 1.8.77 3.66.82 5.52Z"/><path stroke="#263238" stroke-linecap="round" stroke-linejoin="round" d="M110.47 125.85s-1.11-.83-1.69.63M109.48 129.24c-.16.82-.11 1.67.15 2.47M111.52 138.85c-.19.06-.38.08-.57.06-.19-.02-.37-.08-.54-.18-.16-.1-.3-.23-.41-.38a1.28 1.28 0 0 1-.23-.52"/><path fill="#FFF" d="M113.83 177.34s-.68 3.11-1.28 4.76c-.61 1.65-11.46 4.66-16.19 5.29-3.11.39-6.24.6-9.38.62l.3 8.61s9.15.18 9.8 0c.65-.19 16.05-7.07 16.05-7.07l6.65-.87s2.8-.68 2.91-2.85c.11-2.17-2.36-8.34-3.48-9.3-1.13-.96-3.49-3.5-4.91-1.94-1.42 1.57-.47 2.75-.47 2.75Z"/><path stroke="#263238" stroke-linejoin="round" d="M112.55 182.1c-.61 1.65-11.46 4.66-16.19 5.29-3.11.39-6.24.6-9.38.62l.3 8.61s9.15.18 9.8 0c.65-.19 16.05-7.07 16.05-7.07l6.65-.87s2.8-.68 2.91-2.85c.11-2.17-2.36-8.34-3.48-9.3-1.13-.96-3.49-3.5-4.91-1.94-1.42 1.57-.47 2.75-.47 2.75s-.68 3.11-1.28 4.76Z"/><path fill="#CBCBCB" d="M93.43 192.8c0-3.72.95-3.82 2.04-5.29-2.81.31-5.64.48-8.47.5l-.22 7.9s5.01.46 8.06.68c-.25.39-1.41-1.4-1.41-3.79Z"/><path stroke="#263238" stroke-linejoin="round" d="M95.47 187.51c-2.81.31-5.64.48-8.47.5l-.22 7.9s5.01.46 8.06.68c-.25.39-1.41-1.4-1.41-3.79 0-3.72.95-3.82 2.04-5.29Z"/><path fill="#CBCBCB" d="M122.98 209.52a31.782 31.782 0 0 0-13.37-8.92l-11.94 5.09c-.93-2.28-2.16-4.42-3.66-6.37l-2.23-2.72 1.44-7.8s8.59-5.88 9.7-8.43l.04-.09c1.73 2.68 9.22 14.24 10.63 15.37 1.59 1.27 6.36 1.43 8.43-.48 2.07-1.91 3.03-3.18 2.55-6.05 0 0-3.18-6.84-4.94-9.87-1.75-3.03-5.56-13.84-7.48-17.19-1.36-2.39-1.92-4.08-2.89-5.21a19.02 19.02 0 0 0-2.36-3.22c-1.91-2.04-7.16-2.55-8.28-3.03-1.11-.47-1.27-.64-7.63-2.54-6.37-1.91-13.54-3.03-18.63.95 0 0-6.84 8.12-9.52 21.49-2.68 13.37-2.87 26.9-3.18 29.29-.31 2.38-3.03 14-3.82 20.69-.8 6.68 6.18 13.39 10.48 15.48 4.29 2.08 22.75 2.38 33.58 0 10.83-2.39 28.02-13.22 28.02-13.22s.63-6.69-4.94-13.22Z"/><path stroke="#263238" stroke-linejoin="round" d="m109.61 200.6-11.94 5.09c-.93-2.28-2.16-4.42-3.66-6.37l-2.23-2.72 1.44-7.8s8.59-5.88 9.7-8.43l.04-.09c1.73 2.68 9.22 14.24 10.63 15.37 1.59 1.27 6.36 1.43 8.43-.48 2.07-1.91 3.03-3.18 2.55-6.05 0 0-3.18-6.84-4.94-9.87-1.75-3.03-5.56-13.84-7.48-17.19-1.36-2.39-1.92-4.08-2.89-5.21a19.02 19.02 0 0 0-2.36-3.22c-1.91-2.04-7.16-2.55-8.28-3.03-1.11-.47-1.27-.64-7.63-2.54-6.37-1.91-13.54-3.03-18.63.95 0 0-6.84 8.12-9.52 21.49-2.68 13.37-2.87 26.9-3.18 29.29-.31 2.38-3.03 14-3.82 20.69-.8 6.68 6.18 13.39 10.48 15.48 4.29 2.08 22.75 2.38 33.58 0 10.83-2.39 28.02-13.22 28.02-13.22s.63-6.69-4.94-13.22a31.782 31.782 0 0 0-13.37-8.92Z"/><path stroke="#263238" stroke-linecap="round" stroke-linejoin="round" d="m94.83 180.11-2.18-.07M94.01 176.64c3.06 1.03 6.04 2.28 8.91 3.75l-5.6-.19"/><path fill="#FFF" d="M123.59 180.66c.62.98 1.01 2.1 1.12 3.27 0 1.5.26 3.51-.37 2.89-.63-.63-.88-2.77-.88-2.77l.13-3.39Z"/><path stroke="#263238" stroke-linejoin="round" d="M124.71 183.93c0 1.5.26 3.51-.37 2.89-.63-.63-.88-2.77-.88-2.77l.13-3.39c.62.98 1.01 2.1 1.12 3.27Z"/><path fill="#FFF" d="M119.82 178.9s2.35-1.28 3.4.26c1.05 1.54.77 4.61 0 6.12-.77 1.52-1.65.07-1.54-1.28.11-1.34-1.86-5.1-1.86-5.1Z"/><path stroke="#263238" stroke-linejoin="round" d="M123.22 179.16c1.05 1.54.77 4.61 0 6.12-.77 1.52-1.65.07-1.54-1.28.11-1.34-1.86-5.1-1.86-5.1s2.35-1.28 3.4.26Z"/><path fill="#FFF" d="M118.93 177.27s2.36-1.28 3.4.26.77 4.6 0 6.12c-.76 1.52-1.64.07-1.53-1.28.11-1.34-1.87-5.1-1.87-5.1Z"/><path stroke="#263238" stroke-linejoin="round" d="M122.33 177.53c1.04 1.54.77 4.6 0 6.12-.76 1.52-1.64.07-1.53-1.28.11-1.34-1.87-5.1-1.87-5.1s2.36-1.28 3.4.26Z"/><path fill="#FFF" d="M117.85 175.51s2.36-1.28 3.4.26.77 4.6 0 6.12c-.77 1.52-1.64.07-1.53-1.28.11-1.35-1.87-5.1-1.87-5.1Z"/><path stroke="#263238" stroke-linejoin="round" d="M121.25 175.77c1.04 1.54.77 4.6 0 6.12-.77 1.52-1.64.07-1.53-1.28.11-1.35-1.87-5.1-1.87-5.1s2.36-1.28 3.4.26Z"/><path fill="#263238" d="M111.88 113.97c.04 2.44-.59 4.85-1.82 6.96-3.48 5.33-6.75 4.71-8.16 9.01-1.41 4.31-3.51 8.78-1.26 11.26 2.24 2.49 4.08 1.02 4.08 1.02s1.43 3.69-2.26 7.38c-3.68 3.68-10.03 2.25-11.66 1.63-1.04-.39-2-.95-2.87-1.63 0 0-1.02 2.87-6.12 2.87-5.09 0-10.88-3.49-10.88-9.84s3.48-10.64 4.3-13.1c.82-2.46-1.43-10.03 2.04-14.74 3.48-4.7 8.84-8.16 12.92-8.16s12.04 2.24 12.08 2.25c.53.3 3.98-1.1 4.91-1.04 3.42.19 4.66 3 4.7 6.13Z"/><path stroke="#263238" stroke-linejoin="round" d="M110.06 120.93c-3.48 5.33-6.75 4.71-8.16 9.01-1.41 4.31-3.51 8.78-1.26 11.26 2.24 2.49 4.08 1.02 4.08 1.02s1.43 3.69-2.26 7.38c-3.68 3.68-10.03 2.25-11.66 1.63-1.04-.39-2-.95-2.87-1.63 0 0-1.02 2.87-6.12 2.87-5.09 0-10.88-3.49-10.88-9.84s3.48-10.64 4.3-13.1c.82-2.46-1.43-10.03 2.04-14.74 3.48-4.7 8.84-8.16 12.92-8.16s12.04 2.24 12.08 2.25c.53.3 3.98-1.1 4.91-1.04 3.42.19 4.66 3 4.7 6.13.04 2.44-.59 4.85-1.82 6.96Z"/><path stroke="#919191" stroke-linecap="round" stroke-linejoin="round" d="M98.6 143.09c.74.1 1.49.1 2.23 0M108.93 117.54a14.16 14.16 0 0 1-1.98 5.13c-3.18 5-6.8 6.8-11.13 11.56-2.78 3.08-2.26 6.16 0 7.77M108.99 112.23c.13.75.2 1.51.2 2.27"/><path stroke="#919191" stroke-linecap="round" stroke-linejoin="round" d="M104.72 117s-.68 7.03-3.64 11.12c-2.95 4.09-8.84 6.12-8.63 10.45"/><path fill="#FFF" d="M132.12 234.81s4.24 21.8 7.87 32.39c3.63 10.6 7.27 20.29 8.16 21.2.9.91 3.34 4.23 3.34 4.23-1.13.9-2.5 1.43-3.94 1.52-2.12 0-4.84-2.72-7.27-4.24-2.43-1.53-2.72-2.42-7.57-4.24-4.85-1.82-.9-6.66.31-9.08.7-1.31 1.11-2.76 1.21-4.24a48.046 48.046 0 0 0-9.99-18.47c-7.56-8.47-9.07-28.12-9.07-28.12l14.53-5.44 2.42 14.49Z"/><path stroke="#263238" stroke-linejoin="round" d="M139.99 267.2c3.63 10.6 7.27 20.29 8.16 21.2.9.91 3.34 4.23 3.34 4.23-1.13.9-2.5 1.43-3.94 1.52-2.12 0-4.84-2.72-7.27-4.24-2.43-1.53-2.72-2.42-7.57-4.24-4.85-1.82-.9-6.66.31-9.08.7-1.31 1.11-2.76 1.21-4.24a48.046 48.046 0 0 0-9.99-18.47c-7.56-8.47-9.07-28.12-9.07-28.12l14.53-5.44 2.42 14.49s4.24 21.8 7.87 32.39Z"/><path fill="#CBCBCB" d="m147.56 287.31-.88.18s-5.15-6.97-9.08-9.39a8.607 8.607 0 0 0-4.54-1.51c-1.22 2.42-5.15 7.26-.31 9.08 4.84 1.82 5.15 2.72 7.57 4.24 2.42 1.51 5.15 4.24 7.27 4.24 1.44-.09 2.81-.62 3.94-1.52 0 0-2.43-3.33-3.34-4.23-.25-.34-.47-.7-.63-1.09Z"/><path stroke="#263238" stroke-linejoin="round" d="M146.68 287.49s-5.15-6.97-9.08-9.39a8.607 8.607 0 0 0-4.54-1.51c-1.22 2.42-5.15 7.26-.31 9.08 4.84 1.82 5.15 2.72 7.57 4.24 2.42 1.51 5.15 4.24 7.27 4.24 1.44-.09 2.81-.62 3.94-1.52 0 0-2.43-3.33-3.34-4.23-.25-.34-.47-.7-.63-1.09l-.88.18Z"/><path fill="#CBCBCB" d="M145.11 293.29c-2.39-1.66-4.55-5.33-8.45-7.62-3.54-2.08-5.36-2.16-6.12-2.01a3.312 3.312 0 0 0 2.22 2.01c4.85 1.82 5.15 2.72 7.57 4.24 1.53.98 3.21 2.49 4.78 3.38Z"/><path stroke="#263238" stroke-linejoin="round" d="M136.66 285.67c-3.54-2.08-5.36-2.16-6.12-2.01a3.312 3.312 0 0 0 2.22 2.01c4.85 1.82 5.15 2.72 7.57 4.24 1.53.98 3.21 2.49 4.78 3.38-2.39-1.66-4.55-5.33-8.45-7.62Z"/><path fill="#CBCBCB" d="M147.56 294.15c-.16-.01-.31-.02-.47-.05.16.03.31.05.47.05Z"/><path stroke="#263238" stroke-linejoin="round" d="M147.09 294.1c.16.03.31.05.47.05-.16-.01-.31-.02-.47-.05Z"/><path fill="#FFF" d="M105.14 201.96s14.55-5.16 15.91-1.76c1.36 3.4 7.59 16.08 5.32 21.29-2.27 5.21-18.24-14.96-20.51-15.39-2.27-.44-.99-2.62-.72-4.14Z"/><path stroke="#263238" stroke-linejoin="round" d="M121.05 200.2c1.36 3.4 7.59 16.08 5.32 21.29-2.27 5.21-18.24-14.96-20.51-15.39-2.27-.44-.99-2.62-.72-4.14 0 0 14.55-5.16 15.91-1.76Z"/><path fill="#FFF" d="M119.4 208.6s16.54-1.36 19.72 1.59c3.17 2.95-7.71 38.3-13.6 49.41-9.24 17.37-6.45 21.91-6.45 21.91s.68 2.73 5.22 7.04c4.53 4.31 5.89 4.98 4.3 5.66-1.59.68-8.38 0-9.06-.45-.68-.46-5.67-4.53-10.2-5.89-4.54-1.36-3.86-2.27-1.82-6.36 2.04-4.07 1.82-.67 4.08-7.7a208.41 208.41 0 0 0 6.42-26.42c1.2-7.28 3.04-15.28 2.52-22.68l-1.13-16.11Z"/><path stroke="#263238" stroke-linejoin="round" d="M139.12 210.19c3.17 2.95-7.71 38.3-13.6 49.41-9.24 17.37-6.45 21.91-6.45 21.91s.68 2.73 5.22 7.04c4.53 4.31 5.89 4.98 4.3 5.66-1.59.68-8.38 0-9.06-.45-.68-.46-5.67-4.53-10.2-5.89-4.54-1.36-3.86-2.27-1.82-6.36 2.04-4.07 1.82-.67 4.08-7.7a208.41 208.41 0 0 0 6.42-26.42c1.2-7.28 3.04-15.28 2.52-22.68l-1.13-16.11s16.54-1.36 19.72 1.59Z"/><path fill="#263238" d="M131.51 219.67a22.006 22.006 0 0 0-8.53-10.15c-7.23-4.61-13.37-8.92-13.37-8.92l-11.94 5.09s2.91 4.94-12.05 7.43c-11.52 1.92-22.09-.86-27.8-4.21-.79 3.95-1.62 8.34-2.04 11.56-.79 6.68 6.21 13.36 10.51 15.44 4.3 2.07 38.92 6.36 48.25.37 16.97-10.86 16.97-16.61 16.97-16.61Z"/><path stroke="#263238" stroke-linejoin="round" d="M122.98 209.52c-7.23-4.61-13.37-8.92-13.37-8.92l-11.94 5.09s2.91 4.94-12.05 7.43c-11.52 1.92-22.09-.86-27.8-4.21-.79 3.95-1.62 8.34-2.04 11.56-.79 6.68 6.21 13.36 10.51 15.44 4.3 2.07 38.92 6.36 48.25.37 16.97-10.86 16.97-16.61 16.97-16.61a22.006 22.006 0 0 0-8.53-10.15Z"/><path fill="#CBCBCB" d="M96.32 209.44c-1.6 1.31-4.72 2.72-10.7 3.69-11.52 1.92-22.09-.87-27.8-4.22-.2 1.02-.41 2.04-.61 3.1 3.91 2.35 12.12 6.33 21.39 5.2 11.05-1.36 15.96-4.37 17.72-7.77Z"/><path stroke="#263238" stroke-linejoin="round" d="M85.62 213.13c-11.52 1.92-22.09-.87-27.8-4.22-.2 1.02-.41 2.04-.61 3.1 3.91 2.35 12.12 6.33 21.39 5.2 11.05-1.36 15.96-4.37 17.72-7.77-1.6 1.31-4.72 2.72-10.7 3.69Z"/><path stroke="#FFF" stroke-linecap="round" stroke-linejoin="round" d="M87.49 224c-.53.68-1.08 1.36-1.64 2.04M95.82 211.09c-2.09 3.85-4.43 7.56-6.99 11.12M90.84 215.4s-4.08 5.44-8.39 8.61"/><path fill="#CBCBCB" d="M124.29 288.53c-4.54-4.29-5.22-7.02-5.22-7.02a1.46 1.46 0 0 1-.35-.5c-.31.32-1.23.93-3.5.06-1.96-.76-3.83-2.04-5.79-2.91-.47.84-.93 1.36-1.92 3.35-2.04 4.09-2.72 5 1.82 6.36 4.53 1.36 9.52 5.44 10.2 5.89.68.44 7.48 1.13 9.06.45 1.58-.68.23-1.37-4.3-5.68Z"/><path stroke="#263238" stroke-linejoin="round" d="M119.07 281.51a1.46 1.46 0 0 1-.35-.5c-.31.32-1.23.93-3.5.06-1.96-.76-3.83-2.04-5.79-2.91-.47.84-.93 1.36-1.92 3.35-2.04 4.09-2.72 5 1.82 6.36 4.53 1.36 9.52 5.44 10.2 5.89.68.44 7.48 1.13 9.06.45 1.58-.68.23-1.37-4.3-5.68-4.54-4.29-5.22-7.02-5.22-7.02Z"/><path stroke="#263238" stroke-linecap="round" stroke-linejoin="round" d="m128.46 221.97 7.71-4.76"/><path fill="#919191" d="M36.34 178.88s24.56-3.08 40.26 1.36l2.38 59.71H42.16s2.37-32.08-5.82-61.07Z"/><path stroke="#263238" stroke-linejoin="round" d="m76.6 180.24 2.38 59.71H42.16s2.37-32.08-5.82-61.07c0 0 24.56-3.08 40.26 1.36Z"/><path fill="#757575" d="M76.6 180.24c-15.7-4.44-40.26-1.36-40.26-1.36 2.63 9.66 4.38 19.54 5.22 29.52 13.71 6.85 26.27 15.8 37.23 26.52l-2.19-54.68Z"/><path stroke="#263238" stroke-linejoin="round" d="M36.34 178.88c2.63 9.66 4.38 19.54 5.22 29.52 13.71 6.85 26.27 15.8 37.23 26.52l-2.19-54.68c-15.7-4.44-40.26-1.36-40.26-1.36Z"/><path fill="#FFF" d="M122.91 295.79c-.28.01-.55-.08-.78-.24-.22-.15-.4-.38-.5-.64-5.44-14.66-6.8-52.72-6.88-54.33-.01-.36.12-.71.37-.98a1.35 1.35 0 0 1 1.92-.06c.26.24.42.58.43.94 0 .4 1.42 39.23 6.71 53.48.13.34.11.71-.04 1.04-.15.33-.42.58-.76.71-.15.06-.31.09-.47.08Z"/><path stroke="#263238" stroke-linejoin="round" d="M122.13 295.55c-.22-.15-.4-.38-.5-.64-5.44-14.66-6.8-52.72-6.88-54.33-.01-.36.12-.71.37-.98a1.35 1.35 0 0 1 1.92-.06c.26.24.42.58.43.94 0 .4 1.42 39.23 6.71 53.48.13.34.11.71-.04 1.04-.15.33-.42.58-.76.71-.15.06-.31.09-.47.08-.28.01-.55-.08-.78-.24Z"/><path fill="#FFF" d="M93.3 295.79c-.28 0-.55-.08-.78-.24-.22-.16-.4-.38-.49-.64-5.44-14.66-6.8-52.72-6.89-54.33-.01-.36.12-.71.36-.98.25-.26.59-.42.95-.43.36-.01.71.12.98.37.26.24.42.58.43.94 0 .4 1.41 39.23 6.72 53.48.12.34.11.71-.04 1.04-.15.33-.43.58-.77.71-.15.06-.31.09-.47.08Z"/><path stroke="#263238" stroke-linejoin="round" d="M92.52 295.55c-.22-.16-.4-.38-.49-.64-5.44-14.66-6.8-52.72-6.89-54.33-.01-.36.12-.71.36-.98.25-.26.59-.42.95-.43.36-.01.71.12.98.37.26.24.42.58.43.94 0 .4 1.41 39.23 6.72 53.48.12.34.11.71-.04 1.04-.15.33-.43.58-.77.71-.15.06-.31.09-.47.08-.28 0-.55-.08-.78-.24Z"/><path fill="#919191" d="M122.55 239.92H41.51v-2.72h78.33c.72 0 1.41.29 1.92.8s.8 1.2.8 1.92h-.01Z"/><path stroke="#263238" stroke-linejoin="round" d="M41.51 239.92v-2.72h78.33c.72 0 1.41.29 1.92.8s.8 1.2.8 1.92H41.51Z"/><path fill="#FFF" d="M122.54 239.26H41.51v2.7h81.03v-2.7Z"/><path stroke="#263238" stroke-linejoin="round" d="M122.54 239.26v2.7H41.51v-2.7h81.03Z"/><path fill="#FFF" d="M75.99 295.79c-.2.01-.41-.03-.59-.12-.19-.08-.35-.21-.48-.37a1.33 1.33 0 0 1-.29-1.14c7.69-36.44.68-113.05.59-113.82-.02-.18 0-.36.05-.53a1.447 1.447 0 0 1 .67-.81c.16-.08.33-.13.51-.15.36-.03.72.08 1 .31.28.23.45.57.49.93.07.77 7.14 77.79-.64 114.62-.06.31-.22.58-.46.78-.24.19-.54.3-.85.3Z"/><path stroke="#263238" stroke-linejoin="round" d="M75.4 295.67c-.19-.08-.35-.21-.48-.37a1.33 1.33 0 0 1-.29-1.14c7.69-36.44.68-113.05.59-113.82-.02-.18 0-.36.05-.53a1.447 1.447 0 0 1 .67-.81c.16-.08.33-.13.51-.15.36-.03.72.08 1 .31.28.23.45.57.49.93.07.77 7.14 77.79-.64 114.62-.06.31-.22.58-.46.78-.24.19-.54.3-.85.3-.2.01-.41-.03-.59-.12Z"/><path fill="#FFF" d="M33.83 294.8a1.365 1.365 0 0 1-1.31-1.73c17.68-62.76 2.67-113.3 2.52-113.8-.08-.34-.04-.7.14-1 .17-.3.45-.53.78-.63.34-.11.7-.08 1.01.08.31.16.55.43.67.75.16.52 15.42 51.77-2.5 115.34-.08.28-.25.54-.49.72-.23.17-.52.27-.82.27Z"/><path stroke="#263238" stroke-linejoin="round" d="M33.46 294.75a1.365 1.365 0 0 1-.94-1.68c17.68-62.76 2.67-113.3 2.52-113.8-.08-.34-.04-.7.14-1 .17-.3.45-.53.78-.63.34-.11.7-.08 1.01.08.31.16.55.43.67.75.16.52 15.42 51.77-2.5 115.34-.08.28-.25.54-.49.72a1.39 1.39 0 0 1-1.19.22Z"/><path stroke="#263238" stroke-linecap="round" stroke-linejoin="round" stroke-width="2" d="M282.45 182.68s-8.35-4.65-8.97 5.88c-.62 10.53-2.16 78.94-2.16 78.94"/><path stroke="#263238" stroke-linecap="round" stroke-linejoin="round" stroke-width="2" d="M269.14 189.48s6.8 15.18 3.72 77.09"/><path fill="#CBCBCB" d="M275.84 184.8s-3.21 2.04-5.02-.3c-1.82-2.34 1.23-6.64-1.46-8.47-2.68-1.84-7.33.96-7.33.96s3.57 1.05 3.46 3c-.12 1.95-1.84 2.69-2.04 1.84-.21-.85-1.94-5.15-4.84-3.36-.83.49-1.56 1.15-2.14 1.93-.57.79-.98 1.68-1.2 2.62 0 0 6.75-.72 7.16 1.82.41 2.54-2.77-.44-5.56-.61-2.79-.16-5.33.25-5.15 1.94.07 1.49-.02 2.98-.26 4.46a8.322 8.322 0 0 1 5.44-1.92c3.07.18 2.95 2.13.16 1.97-2.79-.16-5.18 2.49-5.18 2.49s2.54 4.35 5.77 6.49c3.23 2.15 4.4 1.36 4.76-.27.37-1.64-.49-5.91 1.47-5.79 1.95.11-3.23 7.36-.74 7.78 2.48.43 4.49-.29 5.14-1.93l.68-1.64s-.87-4.25-.49-5.9c.38-1.65.84.05 1.28 2.04.44 1.99.72 6.75 1.57 6.52.85-.23 3.58-3.7 4.22-5.06.64-1.37-3.59-5.52-3.54-6.36.04-.84 3.31.75 3.82 1.62.37.67.7 1.35 1 2.04 0 0 2.04-1.27 1.98-5.19-.05-3.92-2.96-2.72-2.96-2.72Z"/><path fill="#263238" d="M275.84 184.8s-3.21 2.04-5.02-.3c-1.82-2.34 1.23-6.64-1.46-8.47-2.68-1.84-7.33.96-7.33.96s3.57 1.05 3.46 3c-.12 1.95-1.84 2.69-2.04 1.84-.21-.85-1.94-5.15-4.84-3.36-.83.49-1.56 1.15-2.14 1.93-.57.79-.98 1.68-1.2 2.62 0 0 6.75-.72 7.16 1.82.41 2.54-2.77-.44-5.56-.61-2.79-.16-5.33.25-5.15 1.94.07 1.49-.02 2.98-.26 4.46a8.322 8.322 0 0 1 5.44-1.92c3.07.18 2.95 2.13.16 1.97-2.79-.16-5.18 2.49-5.18 2.49s2.54 4.35 5.77 6.49c3.23 2.15 4.4 1.36 4.76-.27.37-1.64-.49-5.91 1.47-5.79 1.95.11-3.23 7.36-.74 7.78 2.48.43 4.49-.29 5.14-1.93l.68-1.64s-.87-4.25-.49-5.9c.38-1.65.84.05 1.28 2.04.44 1.99.72 6.75 1.57 6.52.85-.23 3.58-3.7 4.22-5.06.64-1.37-3.59-5.52-3.54-6.36.04-.84 3.31.75 3.82 1.62.37.67.7 1.35 1 2.04 0 0 2.04-1.27 1.98-5.19-.05-3.92-2.96-2.72-2.96-2.72Z" opacity=".3"/><path stroke="#263238" stroke-linecap="round" stroke-linejoin="round" d="M259.63 193.99c2.08-2.58 5.15-6.07 7.73-7.74M257.21 197.12s.53-.74 1.4-1.86M268.72 186.89s3.1 4.38 3.67 8.89M265.2 189.48s.87-.51.54 5.07M267.47 184.28s1.78-1.58.84-4.71M265.08 186.96l-1.26-2.31M262.42 189.32s-4.01-3.03-6.52-3.18"/><path fill="#CBCBCB" d="M287.23 176.54s-.13 4.59-3.72 4.82c-3.59.22-5.8-5.76-9.47-4.32-3.68 1.44-4.03 8-4.03 8s3.48-2.87 5.36-1.42c1.88 1.44 1.44 3.67.43 3.31-1.02-.35-6.47-1.57-6.66 2.55-.08 1.18.09 2.36.48 3.47.39 1.11 1 2.13 1.8 2.99 0 0 3.88-7.25 6.71-5.93 2.83 1.32-2.33 2.47-4.4 5.15-2.07 2.68-3.4 5.5-1.57 6.48 1.53.95 2.97 2.05 4.28 3.29 0 0-.49-3.79 1.78-6.73 2.28-2.95 4.15-1.51 2.09 1.17-2.07 2.68-1.05 6.89-1.05 6.89s6.08.41 10.44-1.36c4.35-1.77 4.37-3.46 2.97-4.96-1.4-1.51-6.24-3.53-4.8-5.44 1.44-1.91 5.17 8.24 7.3 6.04s2.77-4.7 1.57-6.47l-1.2-1.77s-4.84-2.04-6.24-3.54c-1.4-1.49.62-.8 2.91.11s7.25 3.89 7.6 2.87c.36-1.01-1.27-6.12-2.19-7.67-.93-1.55-7.99-.17-8.79-.79-.8-.62 3.01-2.8 4.23-2.72.91.08 1.82.2 2.72.38 0 0 .11-2.91-3.85-5.53-3.95-2.62-4.7 1.13-4.7 1.13Z"/><path fill="#263238" d="M287.23 176.54s-.13 4.59-3.72 4.82c-3.59.22-5.8-5.76-9.47-4.32-3.68 1.44-4.03 8-4.03 8s3.48-2.87 5.36-1.42c1.88 1.44 1.44 3.67.43 3.31-1.02-.35-6.47-1.57-6.66 2.55-.08 1.18.09 2.36.48 3.47.39 1.11 1 2.13 1.8 2.99 0 0 3.88-7.25 6.71-5.93 2.83 1.32-2.33 2.47-4.4 5.15-2.07 2.68-3.4 5.5-1.57 6.48 1.53.95 2.97 2.05 4.28 3.29 0 0-.49-3.79 1.78-6.73 2.28-2.95 4.15-1.51 2.09 1.17-2.07 2.68-1.05 6.89-1.05 6.89s6.08.41 10.44-1.36c4.35-1.77 4.37-3.46 2.97-4.96-1.4-1.51-6.24-3.53-4.8-5.44 1.44-1.91 5.17 8.24 7.3 6.04s2.77-4.7 1.57-6.47l-1.2-1.77s-4.84-2.04-6.24-3.54c-1.4-1.49.62-.8 2.91.11s7.25 3.89 7.6 2.87c.36-1.01-1.27-6.12-2.19-7.67-.93-1.55-7.99-.17-8.79-.79-.8-.62 3.01-2.8 4.23-2.72.91.08 1.82.2 2.72.38 0 0 .11-2.91-3.85-5.53-3.95-2.62-4.7 1.13-4.7 1.13Z" opacity=".2"/><path stroke="#263238" stroke-linecap="round" stroke-linejoin="round" d="M285.38 199.02c-1.14-3.86-2.56-9.3-2.46-13M286.87 203.59s-.38-1.05-.9-2.67M284.48 185.09s6.49-.12 11.4 2.38M284.68 190.4s.09-1.22 5.44 2.91M281.04 184.57s-.37-2.84-4.14-4.04M282.07 188.78l-3.18-.32M282.62 193.05s-5.78 1.95-7.63 4.36"/><path stroke="#263238" stroke-linecap="round" stroke-linejoin="round" stroke-width="2" d="M248.71 207.14s18.27 12.07 17.96 58.82"/><path fill="#CBCBCB" d="M271.23 203.95s-.58 5.29-4.76 5.21c-4.17-.08-6.12-7.2-10.52-5.88-4.41 1.32-5.41 8.84-5.41 8.84s4.3-2.98 6.33-1.13c2.02 1.85 1.31 4.38.17 3.87-1.13-.5-7.31-2.43-7.92 2.31-.2 1.35-.12 2.73.23 4.05.35 1.31.97 2.55 1.81 3.62 0 0 5.17-8.01 8.3-6.21 3.14 1.79-2.92 2.63-5.56 5.53-2.64 2.89-4.43 6.02-2.43 7.31 1.69 1.25 3.24 2.66 4.64 4.22 0 0-.21-4.42 2.69-7.61 2.89-3.19 4.93-1.36 2.29 1.56-2.64 2.92-1.85 7.85-1.85 7.85s6.98 1.05 12.17-.58c5.19-1.63 5.37-3.58 3.9-5.44-1.48-1.87-6.87-4.67-5.03-6.69 1.84-2.03 5.18 10.01 7.85 7.66 2.66-2.35 3.63-5.15 2.42-7.32l-1.21-2.16s-5.39-2.79-6.87-4.66c-1.47-1.87.79-.87 3.35.4 2.55 1.26 8 5.16 8.5 4.03.49-1.13-.89-7.17-1.81-9.06-.92-1.9-9.2-.96-10.07-1.75-.87-.78 3.75-2.94 5.15-2.72 1.03.18 2.06.4 3.08.68 0 0 .39-3.34-3.93-6.74-4.32-3.4-5.51.81-5.51.81Z"/><path fill="#263238" d="M271.23 203.95s-.58 5.29-4.76 5.21c-4.17-.08-6.12-7.2-10.52-5.88-4.41 1.32-5.41 8.84-5.41 8.84s4.3-2.98 6.33-1.13c2.02 1.85 1.31 4.38.17 3.87-1.13-.5-7.31-2.43-7.92 2.31-.2 1.35-.12 2.73.23 4.05.35 1.31.97 2.55 1.81 3.62 0 0 5.17-8.01 8.3-6.21 3.14 1.79-2.92 2.63-5.56 5.53-2.64 2.89-4.43 6.02-2.43 7.31 1.69 1.25 3.24 2.66 4.64 4.22 0 0-.21-4.42 2.69-7.61 2.89-3.19 4.93-1.36 2.29 1.56-2.64 2.92-1.85 7.85-1.85 7.85s6.98 1.05 12.17-.58c5.19-1.63 5.37-3.58 3.9-5.44-1.48-1.87-6.87-4.67-5.03-6.69 1.84-2.03 5.18 10.01 7.85 7.66 2.66-2.35 3.63-5.15 2.42-7.32l-1.21-2.16s-5.39-2.79-6.87-4.66c-1.47-1.87.79-.87 3.35.4 2.55 1.26 8 5.16 8.5 4.03.49-1.13-.89-7.17-1.81-9.06-.92-1.9-9.2-.96-10.07-1.75-.87-.78 3.75-2.94 5.15-2.72 1.03.18 2.06.4 3.08.68 0 0 .39-3.34-3.93-6.74-4.32-3.4-5.51.81-5.51.81Z" opacity=".3"/><path stroke="#263238" stroke-linecap="round" stroke-linejoin="round" d="M266.98 229.72c-.98-4.54-2.08-10.97-1.63-15.25M268.27 235.13s-.34-1.25-.8-3.17M267.24 213.56s7.48.47 12.92 3.82M266.98 219.64s.21-1.4 6.01 3.87M263.32 212.63s-.15-3.32-4.39-5.06M264.11 217.58l-3.63-.66M264.35 222.56s-6.85 1.71-9.22 4.32"/><path stroke="#263238" stroke-linecap="round" stroke-linejoin="round" stroke-width="2" d="M255.83 243.97s11.77 8.98 13 22.29l-2.47-44.58"/><path stroke="#263238" stroke-linecap="round" stroke-linejoin="round" stroke-width="2" d="M284.31 237.47c-15.48-2.79-15.48 28.79-15.48 28.79"/><path stroke="#263238" stroke-linecap="round" stroke-linejoin="round" stroke-width="2" d="M270.69 265.96s-8.98-65.32 17-65.32"/><path fill="#CBCBCB" d="M278.41 235.6c-2.11-2.38-6.6-2.38-9.24 3.69-2.64 6.08-.27 5.03-.27 5.03s5.02-1.59 8.2-2.65c3.17-1.05 7.39-3.69 7.66-2.11.26 1.58-2.12 3.17-5.03 3.7-2.91.53-10.56 2.64-9.77 4.26.78 1.61 2.64 6.34 2.64 6.34 2.26-1.92 4.64-3.68 7.13-5.28 3.44-2.12 5.56-1.33 3.71 1.05-1.85 2.38-7.14 5.02-6.08 8.19 1.06 3.18 7.4 7.14 7.4 7.14s.8-6.61 2.64-8.72c1.85-2.11 1.85.27 1.32 3.96-.26 1.58-.44 3.17-.53 4.76l7.4 2.65a53.66 53.66 0 0 1 3.97-5.29l1.36-1.35s-5.82-5.02-6.08-8.16c-.27-3.15 3.96 0 5.28.53 1.32.53 3.43 4.23 3.43 4.23s1.33-6.08 1.6-8.2l.26-2.11s-5.56-2.12-7.67-2.12c-2.11 0-3.17 1.59-3.17-.52 0-2.11 2.12-3.44 4.5-3.18 2.15.36 4.27.89 6.34 1.59 0 0 1.59-1.32 1.05-5.29-.53-3.96-1.84-3.96-5.01-2.91-3.17 1.06-5.29 3.44-7.67 3.44s-1.06-2.91.53-3.69c1.58-.79 5.54-2.38 6.34-2.65.8-.27-4.23-3.96-6.87-4.49-2.65-.54-6.07 1.36-5.82 3.96.5 5.51-7.43 6.6-9.55 4.2Z"/><path stroke="#263238" stroke-linecap="round" stroke-linejoin="round" d="M295.43 262.81c.08.79.13 1.59.16 2.39M290.12 243.84a69.953 69.953 0 0 1 5 16.37M289.17 241.72c-1.31-2.82-2.3-4.54-2.3-4.54a7.815 7.815 0 0 0 3.44-3.17 8.81 8.81 0 0 1 2.64-3.17M277.63 246.16s9.52-3.97 9.52-3.18M292.4 241.14s4.22-2.11 7.92-2.11M290.84 247.52c-1.84 1.5-3.52 3.19-5.03 5.02a23.034 23.034 0 0 0-3.7 6.07M293.76 248.55s5.55-1.59 8.45 1.05"/><path fill="#CBCBCB" d="M303.8 212.84c-2.88-1.7-6.06-1.75-7.62-3.54-1.57-1.8 1.5-2.72 3.14-2.04 1.64.68 5.44 2.63 6.15 3.05.72.42.23-5.78-1.11-8.16-1.33-2.37-4.98-3.7-6.8-1.79-3.84 4.04-9.84-1.25-9.43-4.41.41-3.15-2.53-6.55-8.84-4.56-6.3 1.98-3.96 3.09-3.96 3.09s4.49 2.76 7.37 4.46c2.88 1.7 7.64 3.16 6.62 4.4-1.03 1.23-3.79.48-6.09-1.36-2.31-1.85-8.92-6.25-9.6-4.61-.68 1.63-3.06 6.15-3.06 6.15 2.93.45 5.82 1.09 8.67 1.92 3.85 1.21 4.64 3.33 1.63 3.49-3.01.17-8.47-2.09-10.2.78-1.73 2.88-.54 10.27-.54 10.27s5.51-3.73 8.32-3.72c2.81 0 1.01 1.57-2.13 3.59-1.36.84-2.68 1.74-3.94 2.72l2.86 7.33c2.18-.3 4.38-.46 6.59-.48l1.86.14s0-7.69 2.2-9.97c2.21-2.27 2.6 3 3.07 4.34.47 1.35-.94 5.37-.94 5.37s5.44-2.99 7.23-4.18l1.77-1.18s-2.04-5.58-3.43-7.17c-1.4-1.6-3.28-1.36-1.68-2.72 1.59-1.36 3.98-.68 5.34 1.32 1.14 1.86 2.13 3.8 2.96 5.82 0 0 2.04.34 4.68-2.66 2.65-3 1.79-3.99-1.09-5.69Zm-25.01 8.45c-2.11-1.06 2.91-3.17 2.91-3.17 1.86-.26-.8 4.24-2.91 3.17Zm3.56-9.86c-.9-.45 1.8-1.36 1.8-1.36 3.91.73-.9 1.81-1.8 1.36Z"/><path stroke="#263238" stroke-linecap="round" stroke-linejoin="round" d="M278.73 226.68c-.55.58-1.12 1.14-1.7 1.69M289.57 210.23a69.643 69.643 0 0 1-9.1 14.49M290.55 208.12c1.27-2.83 1.92-4.7 1.92-4.7 1.46.64 3.08.82 4.65.51 1.35-.35 2.77-.38 4.13-.08M288.25 207.43c.6-.52-8.63-5.11-8.63-5.11M293.12 210.2s4.37 1.81 6.8 4.61M287.29 213.17c-2.34-.4-4.72-.57-7.09-.5-2.38.03-4.75.43-7.01 1.19M288.4 216.06s4.83 3.15 4.76 7.08"/><path fill="#CBCBCB" d="M262.73 249.45c-2.32-1.36-4.88-1.39-6.12-2.84-1.25-1.45 1.2-2.17 2.52-1.63s4.38 2.12 4.96 2.46c.57.34.17-4.66-.9-6.55-1.07-1.88-4.01-2.98-5.47-1.44-3.1 3.25-7.93-1.01-7.59-3.55.33-2.54-2.04-5.27-7.14-3.67-5.09 1.6-3.19 2.49-3.19 2.49s3.61 2.21 5.93 3.58 6.16 2.55 5.33 3.54c-.83 1-3.04.4-4.9-1.09-1.85-1.49-7.18-5.03-7.72-3.71-.55 1.32-2.46 4.95-2.46 4.95 2.35.36 4.68.88 6.97 1.55 3.1.97 3.73 2.67 1.31 2.8-2.42.13-6.8-1.69-8.16.63-1.36 2.32-.44 8.26-.44 8.26s4.44-3 6.69-3c2.26.01.82 1.27-1.7 2.9-1.1.67-2.16 1.4-3.17 2.19l2.29 5.89c1.76-.24 3.53-.36 5.3-.37l1.51.1s0-6.18 1.77-8.02c1.78-1.84 2.09 2.41 2.46 3.5.38 1.08-.75 4.31-.75 4.31s4.39-2.4 5.81-3.36l1.43-.95s-1.64-4.49-2.76-5.78c-1.12-1.28-2.64-1.09-1.36-2.2 1.28-1.12 3.2-.53 4.3 1.05.92 1.5 1.71 3.07 2.38 4.7 0 0 1.64.26 3.77-2.15 2.13-2.4 1.41-3.21-.9-4.59Zm-20.13 6.8c-1.7-.85 2.34-2.55 2.34-2.55 1.49-.2-.64 3.42-2.34 2.56v-.01Zm2.88-7.93c-.73-.36 1.44-1.08 1.44-1.08 3.14.6-.73 1.45-1.44 1.08Z"/><path stroke="#263238" stroke-linecap="round" stroke-linejoin="round" d="M242.56 260.6c-.44.46-.9.92-1.36 1.36M251.28 247.36a56.02 56.02 0 0 1-7.32 11.66M252.07 245.66c1.02-2.28 1.55-3.78 1.55-3.78 1.17.51 2.48.66 3.73.41 1.09-.28 2.23-.31 3.32-.06M243.27 240.99s7.43 3.7 6.95 4.08M254.13 247.34s3.52 1.45 5.44 3.7M249.44 249.73c-1.88-.32-3.79-.46-5.7-.41-1.92.02-3.82.35-5.64.96M250.34 252.05s3.89 2.54 3.81 5.69"/><path fill="#CBCBCB" d="M253.29 205.81s-2.91 2.12-4.76 0c-1.85-2.11.79-6.34-1.85-7.93-2.65-1.58-6.87 1.32-6.87 1.32s3.44.8 3.44 2.65c0 1.85-1.59 2.64-1.85 1.85-.27-.8-2.12-4.76-4.76-2.91-.77.52-1.42 1.18-1.92 1.95s-.83 1.64-.99 2.54c0 0 6.34-1.05 6.87 1.33.53 2.38-2.64-.27-5.28-.27-2.65 0-5.03.53-4.76 2.12.14 1.4.14 2.82 0 4.23a7.806 7.806 0 0 1 5.02-2.12c2.91 0 2.91 1.85.27 1.85s-4.76 2.65-4.76 2.65 2.64 3.96 5.81 5.81c3.17 1.85 4.23 1.05 4.5-.53.26-1.58-.8-5.55 1.05-5.55s-2.64 7.13-.27 7.4c2.38.26 4.23-.53 4.76-2.12l.53-1.58s-1.06-3.96-.79-5.55c.26-1.58.79 0 1.32 1.85.52 1.85 1.06 6.34 1.85 6.08.8-.26 3.17-3.71 3.7-5.03.53-1.31-3.7-5.01-3.7-5.81 0-.79 3.17.53 3.7 1.32.53.79 1.06 1.85 1.06 1.85s1.85-1.32 1.58-5.02c-.26-3.7-2.9-2.38-2.9-2.38Z"/><path stroke="#263238" stroke-linecap="round" stroke-linejoin="round" d="M238.48 215.4c1.83-2.55 4.54-6.02 6.88-7.74M236.37 218.5s.47-.73 1.22-1.84M246.68 208.19s3.17 3.97 3.96 8.2M243.51 210.84s.79-.53.79 4.76M245.36 205.81s1.58-1.58.53-4.49M243.25 208.46l-1.32-2.12M240.87 210.84s-3.97-2.65-6.35-2.65"/><path fill="#263238" d="M279.98 265.03h-20.44v29.41h20.44v-29.41Z"/><path stroke="#263238" stroke-linejoin="round" stroke-width="2" d="M279.98 265.03v29.41h-20.44v-29.41h20.44Z"/></g></svg>