<svg xmlns="http://www.w3.org/2000/svg" width="311" height="311" fill="none"><defs><clipPath id="a"><path fill="#fff" fill-opacity="0" d="M0 0h311v311H0z"/></clipPath></defs><path fill="none" d="M0 0h311v311H0z"/><g clip-path="url(#a)"><path fill="#C8C8C8" d="M249.85 270.1a77.312 77.312 0 0 0 23.79-27.06c35.55-66.61 27.52-164.83-40.95-206.96-31.65-19.47-77.19-31.79-111.4-11.8C93.54 40.5 76.54 71.03 62.47 98.81c-8.84 17.5-16.12 36.28-27.02 52.62-14.13 21.2-29.69 49.51-13.98 74.15 21.4 33.55 61.82 48.87 98.48 58.96 39.77 10.94 84.49 12.49 121.23-8.86 2.97-1.72 5.86-3.58 8.67-5.58Z"/><path fill="#FFF" d="M249.85 270.1a77.312 77.312 0 0 0 23.79-27.06c35.55-66.61 27.52-164.83-40.95-206.96-31.65-19.47-77.19-31.79-111.4-11.8C93.54 40.5 76.54 71.03 62.47 98.81c-8.84 17.5-16.12 36.28-27.02 52.62-14.13 21.2-29.69 49.51-13.98 74.15 21.4 33.55 61.82 48.87 98.48 58.96 39.77 10.94 84.49 12.49 121.23-8.86 2.97-1.72 5.86-3.58 8.67-5.58Z" opacity=".7"/><g opacity=".3"><path stroke="#000" d="M281.14 50.05v84.14h-64.07V50.05h64.07Z" opacity=".3"/><path stroke="#000" d="M269.38 65.49v53.26h-40.55V65.49h40.55Z" opacity=".3"/></g><path fill="#263238" d="M202.06 40.62H32.44V191.6h169.62V40.62Z"/><path stroke="#263238" d="M202.06 40.62V191.6H32.44V40.62h169.62Z"/><path fill="#FFF" d="M198.85 36.94H29.23v150.99h169.62V36.94Z"/><path stroke="#263238" stroke-linejoin="round" d="M198.85 36.94v150.99H29.23V36.94h169.62Z"/><path fill="#FFF" d="M165.82 97.87h8.43v-8.43h-8.43v8.43Z"/><path stroke="#263238" stroke-linejoin="round" d="M165.82 97.87v-8.43h8.43v8.43h-8.43Z"/><path fill="#FFF" d="M176.86 97.87h8.44v-8.43h-8.44v8.43Z"/><path stroke="#263238" stroke-linejoin="round" d="M176.86 97.87v-8.43h8.44v8.43h-8.44Z"/><path fill="#FFF" d="m162.43 93.69.02-.02c.28 0 .5.22.5.5s-.22.5-.5.5l-.02-.02v-.96Zm-42.81.96-.02.02c-.28 0-.5-.22-.5-.5s.22-.5.5-.5l.02.02v.96Z"/><path stroke="#263238" stroke-linecap="round" stroke-linejoin="round" d="M162.45 94.17H119.6"/><path fill="#FFF" d="M165.82 117.78h8.43v-8.43h-8.43v8.43Z"/><path stroke="#263238" stroke-linejoin="round" d="M165.82 117.78v-8.43h8.43v8.43h-8.43Z"/><path fill="#FFF" d="M176.86 117.78h8.44v-8.43h-8.44v8.43Z"/><path stroke="#263238" stroke-linejoin="round" d="M176.86 117.78v-8.43h8.44v8.43h-8.44Z"/><path fill="#FFF" d="m162.43 113.59.02-.02c.28 0 .5.22.5.5s-.22.5-.5.5l-.02-.02v-.96Zm-42.81.96-.02.02c-.28 0-.5-.22-.5-.5s.22-.5.5-.5l.02.02v.96Z"/><path stroke="#263238" stroke-linecap="round" stroke-linejoin="round" d="M162.45 114.07H119.6"/><path fill="#FFF" d="M165.82 137.69h8.43v-8.43h-8.43v8.43Z"/><path stroke="#263238" stroke-linejoin="round" d="M165.82 137.69v-8.43h8.43v8.43h-8.43Z"/><path fill="#FFF" d="M176.86 137.69h8.44v-8.43h-8.44v8.43Z"/><path stroke="#263238" stroke-linejoin="round" d="M176.86 137.69v-8.43h8.44v8.43h-8.44Z"/><path fill="#FFF" d="m162.43 133.5.02-.02c.28 0 .5.22.5.5s-.22.5-.5.5l-.02-.02v-.96Zm-42.81.96-.02.02c-.28 0-.5-.22-.5-.5s.22-.5.5-.5l.02.02v.96Z"/><path stroke="#263238" stroke-linecap="round" stroke-linejoin="round" d="M162.45 133.98H119.6"/><path fill="#FFF" d="M85.18 97.87h8.44v-8.43h-8.44v8.43Z"/><path stroke="#263238" stroke-linejoin="round" d="M85.18 97.87v-8.43h8.44v8.43h-8.44Z"/><path fill="#FFF" d="M96.23 97.87h8.44v-8.43h-8.44v8.43Z"/><path stroke="#263238" stroke-linejoin="round" d="M96.23 97.87v-8.43h8.44v8.43h-8.44Z"/><path fill="#FFF" d="m81.79 93.69.02-.02c.28 0 .5.22.5.5s-.22.5-.5.5l-.02-.02v-.96Zm-42.81.96-.02.02c-.28 0-.5-.22-.5-.5s.22-.5.5-.5l.02.02v.96Z"/><path stroke="#263238" stroke-linecap="round" stroke-linejoin="round" d="M81.81 94.17H38.96"/><path fill="#FFF" d="M85.18 117.78h8.44v-8.43h-8.44v8.43Z"/><path stroke="#263238" stroke-linejoin="round" d="M85.18 117.78v-8.43h8.44v8.43h-8.44Z"/><path fill="#FFF" d="M96.23 117.78h8.44v-8.43h-8.44v8.43Z"/><path stroke="#263238" stroke-linejoin="round" d="M96.23 117.78v-8.43h8.44v8.43h-8.44Z"/><path fill="#FFF" d="m81.79 113.59.02-.02c.28 0 .5.22.5.5s-.22.5-.5.5l-.02-.02v-.96Zm-42.81.96-.02.02c-.28 0-.5-.22-.5-.5s.22-.5.5-.5l.02.02v.96Z"/><path stroke="#263238" stroke-linecap="round" stroke-linejoin="round" d="M81.81 114.07H38.96"/><path fill="#FFF" d="M85.18 137.69h8.44v-8.43h-8.44v8.43Z"/><path stroke="#263238" stroke-linejoin="round" d="M85.18 137.69v-8.43h8.44v8.43h-8.44Z"/><path fill="#FFF" d="M96.23 137.69h8.44v-8.43h-8.44v8.43Z"/><path stroke="#263238" stroke-linejoin="round" d="M96.23 137.69v-8.43h8.44v8.43h-8.44Z"/><path fill="#FFF" d="m81.79 133.5.02-.02c.28 0 .5.22.5.5s-.22.5-.5.5l-.02-.02v-.96Zm-42.81.96-.02.02c-.28 0-.5-.22-.5-.5s.22-.5.5-.5l.02.02v.96Z"/><path stroke="#263238" stroke-linecap="round" stroke-linejoin="round" d="M81.81 133.98H38.96"/><path fill="#FFF" d="M50.92 166.69h-9.29v9.29h9.29v-9.29Z"/><path stroke="#263238" stroke-linejoin="round" d="M50.92 166.69v9.29h-9.29v-9.29h9.29Z"/><path fill="#FFF" d="M88.84 166.69h-9.29v9.29h9.29v-9.29Z"/><path stroke="#263238" stroke-linejoin="round" d="M88.84 166.69v9.29h-9.29v-9.29h9.29Z"/><path fill="#FFF" d="M128.27 166.69h-9.29v9.29h9.29v-9.29Z"/><path stroke="#263238" stroke-linejoin="round" d="M128.27 166.69v9.29h-9.29v-9.29h9.29Z"/><path stroke="#263238" stroke-linecap="round" stroke-linejoin="round" stroke-width="2" d="m99 92.26 1.44 2.89 6.96-6.73M99 111.95l1.44 2.88 6.96-6.72M86.99 132.59l1.45 2.88 6.96-6.72M179.17 92.03l1.44 2.88 6.96-6.73M167.55 112.19l1.44 2.88 6.96-6.72M167.55 132.41l1.44 2.88 6.96-6.71"/><path fill="#FFF" d="M198.85 36.94H29.23v23.59h169.62V36.94Z"/><path stroke="#263238" stroke-linejoin="round" d="M198.85 36.94v23.59H29.23V36.94h169.62Z"/><path fill="#DBDBDB" d="M198.85 36.94h-6.39v150.99h6.39V36.94Z"/><path stroke="#263238" stroke-linejoin="round" d="M198.85 36.94v150.99h-6.39V36.94h6.39Z"/><path fill="#949494" d="M198.85 59.63h-6.39v29.14h6.39V59.63Z"/><path stroke="#263238" stroke-linejoin="round" d="M198.85 59.63v29.14h-6.39V59.63h6.39Z"/><path fill="#DBDBDB" d="M198.85 36.94H29.23v11.47h169.62V36.94Z"/><path stroke="#263238" stroke-linejoin="round" d="M198.85 36.94v11.47H29.23V36.94h169.62Z"/><path fill="#FFF" d="M104.72 40.28H37.83v4.78h66.89v-4.78Z"/><path stroke="#263238" stroke-linejoin="round" d="M104.72 40.28v4.78H37.83v-4.78h66.89Z"/><path stroke="#263238" stroke-linecap="round" stroke-linejoin="round" d="M188.83 40.51h5.88M188.83 42.99h5.88M188.83 45.48h5.88"/><path fill="#263238" d="M88.48 70.07c0-1.47.78-2.31 2.2-2.31 1.41 0 2.19.84 2.19 2.31v4.78c0 1.46-.78 2.3-2.19 2.3-1.42 0-2.2-.84-2.2-2.3v-4.78Zm1.45 4.87c0 .65.29.9.75.9s.74-.25.74-.9v-4.98c0-.66-.28-.9-.74-.9-.46 0-.75.24-.75.9v4.98ZM95.09 70.4v6.65h-1.3v-9.19h1.81l1.48 5.5v-5.5h1.29v9.19h-1.49l-1.79-6.65ZM99.4 67.86h1.45v7.88h2.4v1.31h-3.83l-.02-9.19ZM103.87 67.86h1.44v9.19h-1.44v-9.19ZM107.64 70.4v6.65h-1.28v-9.19h1.81l1.48 5.5v-5.5h1.29v9.19h-1.47l-1.83-6.65ZM113.4 71.74h1.98v1.31h-1.98v2.69h2.49v1.31h-3.93v-9.19h3.93v1.31h-2.49v2.57ZM118.41 67.86h4.46v1.31h-1.52v7.88h-1.44v-7.88h-1.5v-1.31ZM124.94 71.74h1.98v1.31h-1.98v2.69h2.49v1.31h-3.94v-9.19h3.94v1.31h-2.49v2.57ZM130.27 67.76c1.4 0 2.12.84 2.12 2.31v.29h-1.36v-.38c0-.66-.26-.91-.72-.91-.46 0-.72.25-.72.91 0 1.86 2.82 2.24 2.82 4.87 0 1.46-.74 2.3-2.16 2.3-1.41 0-2.12-.84-2.12-2.3v-.57h1.37v.66c0 .65.28.89.74.89.46 0 .75-.24.75-.89 0-1.87-2.82-2.25-2.82-4.87-.04-1.47.7-2.31 2.1-2.31ZM132.82 67.86h4.46v1.31h-1.51v7.88h-1.42v-7.88h-1.51l-.02-1.31ZM48.86 164.45H47.4l-.25-1.67H45.4l-.25 1.67H43.8l1.47-9.18h2.11l1.48 9.18Zm-3.3-2.92h1.4l-.7-4.64-.7 4.64ZM86.17 157.36v.32c0 .95-.28 1.55-.93 1.87.78.3 1.08 1 1.08 1.97v.75c0 1.42-.75 2.18-2.19 2.18h-2.27v-9.18h2.17c1.5 0 2.14.69 2.14 2.09Zm-2.87-.8v2.42h.57c.53 0 .86-.23.86-.97v-.51c0-.65-.22-.94-.73-.94h-.7Zm0 3.73v2.82h.83c.48 0 .74-.22.74-.9v-.8c0-.86-.27-1.12-.92-1.12h-.65ZM125.97 161.03v1.24c0 1.47-.73 2.31-2.15 2.31s-2.15-.84-2.15-2.31v-4.78c0-1.47.73-2.31 2.15-2.31s2.15.84 2.15 2.31v.9h-1.36v-1.03c0-.66-.29-.91-.75-.91s-.75.25-.75.91v4.98c0 .66.3.89.75.89s.75-.23.75-.89v-1.31h1.36Z"/><path fill="#FFF" d="m39.64 150.85-.02.02c-.28 0-.5-.22-.5-.5s.22-.5.5-.5l.02.02v.96Zm110.21-.96.02-.02c.27 0 .5.22.5.5s-.23.5-.5.5l-.02-.02v-.96Z"/><path stroke="#263238" stroke-linecap="round" stroke-linejoin="round" d="M39.62 150.37h110.25"/><path stroke="#000" stroke-linejoin="round" d="M220.7 37.68V25.51h12.17v12.17H220.7ZM236.64 37.68V25.51h12.17v12.17h-12.17Z" opacity=".3"/><path stroke="#000" stroke-linecap="round" stroke-linejoin="round" stroke-width="2" d="m223.32 30.32 2.08 4.16 6.1-6.73" opacity=".3"/><path stroke="#000" stroke-linejoin="round" d="M36.43 216.27V204.1H48.6v12.17H36.43ZM52.37 216.27V204.1h12.17v12.17H52.37Z" opacity=".3"/><path stroke="#000" stroke-linecap="round" stroke-linejoin="round" stroke-width="2" d="m39.04 208.91 2.08 4.16 6.1-6.73" opacity=".3"/><path stroke="#000" stroke-linejoin="round" d="M94.1 216.27V204.1h12.17v12.17H94.1ZM110.04 216.27V204.1h12.17v12.17h-12.17Z" opacity=".3"/><path stroke="#000" stroke-linecap="round" stroke-linejoin="round" stroke-width="2" d="m96.71 208.91 2.08 4.16 6.11-6.73" opacity=".3"/><g opacity=".3"><path stroke="#000" stroke-linejoin="round" d="M112.98 31.6c-4.26.69-8.27-2.21-8.96-6.47a7.808 7.808 0 0 1 6.46-8.96c4.26-.69 8.27 2.21 8.96 6.47.69 4.26-2.2 8.27-6.46 8.96Z" opacity=".3"/><path stroke="#000" stroke-linecap="round" stroke-linejoin="round" d="m113.91 26.71-2.18-2.82v-4.45" opacity=".3"/></g><g opacity=".3"><path fill="#000" d="M257.55 173.73h-1.15l-.2-1.32h-1.41l-.2 1.32h-1.05l1.17-7.28h1.67l1.17 7.28Zm-2.61-2.31h1.1l-.55-3.68-.55 3.68ZM273.84 168.12v.26c.05.29 0 .59-.13.85-.13.27-.34.48-.6.62.29.13.53.36.69.64.15.28.21.61.16.92v.62a1.501 1.501 0 0 1-.45 1.29c-.16.17-.37.3-.59.37-.23.08-.47.1-.7.07h-1.8v-7.31h1.73c1.18 0 1.69.55 1.69 1.67Zm-2.27-.62v1.93h.44c.43 0 .69-.19.69-.77v-.41c0-.52-.17-.75-.59-.75h-.54Zm0 2.97v2.24h.65c.38 0 .62-.18.62-.72v-.62c0-.67-.22-.88-.74-.88l-.53-.02ZM290.34 171.05v.96c0 1.17-.58 1.83-1.71 1.83-1.12 0-1.71-.66-1.71-1.83v-3.79c0-1.17.59-1.83 1.71-1.83 1.13 0 1.71.66 1.71 1.83v.71h-1.08v-.81c0-.52-.23-.71-.59-.71s-.63.19-.63.71v3.94c0 .52.23.71.63.71.39 0 .59-.19.59-.71v-1.01h1.08Z" opacity=".3"/><path stroke="#000" d="M259.83 177.71v8.85h-8.85v-8.85h8.85ZM276.29 177.71v8.85h-8.85v-8.85h8.85ZM292.76 177.71v8.85h-8.85v-8.85h8.85Z" opacity=".3"/></g><path stroke="#263238" d="M50.03 280.24H31.3M294.41 280.24H56.13"/><path fill="#9E9E9E" d="m222.45 280.03 4-60.83 2.95-28.92-8.08-9.03-4.06-2.95s-5.71 4.98-9.76 6.08c-4.05 1.1-7.94 2.22-7.94 2.22s-13.82 25.97-14.93 37.76c-1.11 11.78-2.95 55.45-2.95 55.45l1.54.22h39.23Z"/><path stroke="#263238" d="m226.45 219.2 2.95-28.92-8.08-9.03-4.06-2.95s-5.71 4.98-9.76 6.08c-4.05 1.1-7.94 2.22-7.94 2.22s-13.82 25.97-14.93 37.76c-1.11 11.78-2.95 55.45-2.95 55.45l1.54.22h39.23l4-60.83Z"/><path stroke="#263238" d="M203.46 229.88s-.69-.35.69-3.91"/><path fill="#263238" d="M201.83 185.97c.69 4.92 1.07 9.87 1.14 14.83 0 0 4.15-1.66 7.47-7.46 1.83-3.12 3.41-6.37 4.71-9.74l-13.32 2.37Z"/><path stroke="#263238" d="M202.97 200.8s4.15-1.66 7.47-7.46c1.83-3.12 3.41-6.37 4.71-9.74l-13.32 2.37c.69 4.92 1.07 9.87 1.14 14.83Z"/><path fill="#FFF" d="m222.45 280.03 3.6-54.69c-3.53 1.8-10.51 4.78-18.2 4.91-9.22.16-20.63-7-20.63-7l-2.57 1.01v.1c-1.11 11.81-2.95 55.45-2.95 55.45l1.54.22h39.21Z"/><path stroke="#263238" d="M226.05 225.34c-3.53 1.8-10.51 4.78-18.2 4.91-9.22.16-20.63-7-20.63-7l-2.57 1.01v.1c-1.11 11.81-2.95 55.45-2.95 55.45l1.54.22h39.21l3.6-54.69Z"/><path fill="#FFF" d="M216.45 249.42c0 14.09.49 27.64.62 30.6h27.15c.38-4.39 2.72-31.72 3.92-41.52 1.31-10.7 9.92-26.64 9.92-32.34 0-5.71 1.75-4.8-6.12-8.95-7.86-4.15-25.2-13.11-27.6-14.2-2.4-1.1-5.03-3.74-5.03-3.74s.87 5.47.62 20.31c-.24 14.85-3.48 33.91-3.48 49.84Z"/><g opacity=".2"><path fill="#000" d="M219.31 179.33c.33 2.58.51 5.18.56 7.79v-7.26c-.35-.32-.56-.53-.56-.53ZM255.02 214.88v1.86c.21-.56.42-1.11.62-1.65v-.22h.08c.08-.21.15-.42.23-.63h-.31v-7.74h2.4v-.62h-2.4v-6.63c-.2-.12-.4-.23-.62-.36v6.99h-6.54v-7.78h5.06l-1.17-.62h-3.89v-2.05l-.62-.33v2.36h-6.53v-5.76l-.62-.32v6.08h-6.53v-7.75h3.25l-1.21-.63h-2.04v-1.05l-.62-.32v1.37h-6.53v-4.69c-.22-.11-.43-.22-.63-.31v5h-6.47v.63h6.47v7.77h-6.41v.62h6.41v7.78h-6.53v-2.96c-.12 3.04-.35 6.22-.62 9.46v1.87h-.16l-.06.62h.22v7.8h-.93l-.06.62h1.02v7.78h-1.76l-.06.62h1.82v7.78h-2.42l-.04.62h2.49v7.77h-2.76v.62h2.76v7.78h-2.74v.62h2.74v7.78h-2.62v.62h2.6v14.77h.63v-14.79h6.48v14.77h.63v-14.77h6.53v14.77h.62v-14.77h6.53v14.77h.62v-14.77h4.19c0-.21 0-.41.05-.62h-4.24v-7.76h4.98c0-.2.04-.41.06-.62h-5.04v-7.78h5.75c0-.21.04-.41.06-.62h-5.81v-7.77h6.53v.82l.28-2.38c.08-.69.2-1.42.34-2.16v-4.68h1.17l.18-.62h-1.35v-7.78h4.05c.08-.2.15-.41.23-.62h-4.28v-7.77l6.54-.02Zm-6.54-8.38h6.54v7.77h-6.54v-7.77Zm-22.08 58.14h-6.53v-7.76h6.53v7.76Zm0-8.4h-6.53v-7.77h6.53v7.77Zm0-8.4h-6.53v-7.75h6.53v7.75Zm0-8.39h-6.53v-7.78h6.53v7.78Zm0-8.4h-6.53v-7.76h6.53v7.76Zm0-8.4h-6.53v-7.77h6.53v7.77Zm0-8.39h-6.53v-7.76h6.53v7.76Zm7.16 50.38h-6.53v-7.76h6.53v7.76Zm0-8.4h-6.53v-7.77h6.53v7.77Zm0-8.4h-6.53v-7.75h6.53v7.75Zm0-8.39h-6.53v-7.78h6.53v7.78Zm0-8.4h-6.53v-7.76h6.53v7.76Zm0-8.4h-6.53v-7.77h6.53v7.77Zm0-8.39h-6.53v-7.76h6.53v7.76Zm0-8.4h-6.53v-7.78h6.53v7.78Zm0-8.4h-6.53v-7.75h6.53v7.75Zm7.15 67.18h-6.53v-7.76h6.53v7.76Zm0-8.4h-6.53v-7.77h6.53v7.77Zm0-8.4h-6.53v-7.75h6.53v7.75Zm0-8.39h-6.53v-7.78h6.53v7.78Zm0-8.4h-6.53v-7.76h6.53v7.76Zm0-8.4h-6.53v-7.77h6.53v7.77Zm0-8.39h-6.53v-7.76h6.53v7.76Zm0-8.4h-6.53v-7.78h6.53v7.78Zm7.15 33.59h-6.53v-7.78h6.53v7.78Zm0-8.4h-6.53v-7.76h6.53v7.76Zm0-8.4h-6.53v-7.77h6.53v7.77Zm0-8.39h-6.53v-7.76h6.53v7.76Zm0-8.4h-6.53v-7.78h6.53v7.78Z" opacity=".2"/></g><path stroke="#263238" d="M217.07 280.02h27.15c.38-4.39 2.72-31.72 3.92-41.52 1.31-10.7 9.92-26.64 9.92-32.34 0-5.71 1.75-4.8-6.12-8.95-7.86-4.15-25.2-13.11-27.6-14.2-2.4-1.1-5.03-3.74-5.03-3.74s.87 5.47.62 20.31c-.24 14.85-3.48 33.91-3.48 49.84 0 14.09.49 27.64.62 30.6Z"/><path fill="#263238" d="M219.31 179.33s.87 5.46.62 20.31c-.04 3.73-.3 7.76-.62 11.92.75-1.03 3.16-4.31 3.73-4.49.66-.22 4.15 3.06 6.99 3.49 2.84.44 3.93.44.88-2.84-3.06-3.28-4.36-12.88-5.46-20.09-.21-1.55-.55-3.07-1.02-4.56h-.07c-2.43-1.11-5.05-3.74-5.05-3.74Z"/><path stroke="#263238" d="M219.93 199.64c-.04 3.73-.3 7.76-.62 11.92.75-1.03 3.16-4.31 3.73-4.49.66-.22 4.15 3.06 6.99 3.49 2.84.44 3.93.44.88-2.84-3.06-3.28-4.36-12.88-5.46-20.09-.21-1.55-.55-3.07-1.02-4.56h-.07c-2.43-1.11-5.05-3.74-5.05-3.74s.87 5.46.62 20.31ZM237.23 246.88c2.01-.91 3.59-1.7 3.59-1.7l.74 5.71s-10.87 4.78-16.95 5.15c-6.07.37-6.63.56-6.63.56l.18-5.53"/><path stroke="#263238" d="M231.79 249.11c1.11-.37 2.42-.9 3.69-1.45M220.18 250.52c3.18-.08 6.35-.37 9.5-.87M241.56 250.89l.37 4.42"/><path fill="#FFF" d="M158.23 280.03h30.55c.07-2.39.95-32.83 1.55-48.36.62-16.17 11.59-40.7 11.59-40.7s1.47-3.46-.09-5.02c-1.55-1.55-5.28-.93-8.08 1.25s-28.61 13.37-30.17 14.93c-1.55 1.55-1.24 6.84-1.86 13.06-.63 6.22-10.89 49.14-10.89 49.14s-2.8.62-3.73 1.24c-.93.62-.93 2.49-.93 2.49s1.24.31 4.97 2.18c3.44 1.71 6.6 8.68 7.09 9.79Z"/><path fill="#000" d="M197.79 198.08v3.18c.21-.57.42-1.12.62-1.66v-1.52h.59l.24-.62h-.83v-7.75h3.92c.05-.2.1-.41.13-.63h-4.05v-3.9c-.2.03-.41.06-.62.11v3.79h-6.53v-.42l-.62.32v.1h-.21l-1.25.63h1.46v7.77h-6.53v-5.35l-.62.29v5.04h-6.54v-1.98l-.62.29v1.69h-3.61l-1.32.62h4.93v7.8h-6.53v-7.03l-.62.3v6.73h-6.53v-1.57c-.35 2.27-.56 4.55-.62 6.84v3.11h-.23l-.05.62h.28v7.79h-1.68l-.13.62h1.81v7.78h-3.49c-.05.2-.1.42-.14.62h3.63v7.78h-5.38l-.15.62h5.53v7.77h-6.53v-3.42l-.63 2.69v.7h-.16l-.14.62h.3v7.81h-2.12l-.15.62h2.27v7.78h-5.28c-.63.17-1.25.37-1.86.62v3.38c.18.08.39.16.62.27v-3.65h6.52v8.71c.22.31.43.62.63.94v-9.65h6.53v14.78h.62v-14.8h6.53v14.77h.62v-14.77h6.53v14.77h.62v-14.77h6.54v14.77h.62v-14.77h5.1v-.62h-5.1v-7.76h5.37v-.62h-5.37v-7.78h5.63v-.62h-5.63v-7.77h5.91v-.62h-5.91v-7.78h6.22c0-.2 0-.41.03-.62h-6.25v-7.78h6.53v4.6c.16-1.32.37-2.69.62-4.07v-.53h.1c.04-.2.08-.41.12-.62h-.22v-7.77h2.08c.06-.21.12-.41.18-.63h-2.26v-7.77h4.67c.07-.21.14-.42.21-.62h-4.88v-7.78l6.53-.02Zm-6.53-8.37h6.53v7.77h-6.53v-7.77Zm-29.23 74.95h-6.53v-7.78h6.53v7.78Zm0-8.4h-6.53v-7.78h6.53v7.78Zm7.15 8.4h-6.53v-7.78h6.53v7.78Zm0-8.4h-6.53v-7.78h6.53v7.78Zm0-8.4h-6.53v-7.77h6.53v7.77Zm0-8.39h-6.53v-7.78h6.53v7.78Zm0-8.4h-6.53v-7.78h6.53v7.78Zm0-8.4h-6.53v-7.77h6.53v7.77Zm0-8.4h-6.53v-7.77h6.53v7.77Zm7.15 50.39h-6.53v-7.78h6.53v7.78Zm0-8.4h-6.53v-7.78h6.53v7.78Zm0-8.4h-6.53v-7.77h6.53v7.77Zm0-8.39h-6.53v-7.78h6.53v7.78Zm0-8.4h-6.53v-7.78h6.53v7.78Zm0-8.4h-6.53v-7.77h6.53v7.77Zm0-8.4h-6.53v-7.77h6.53v7.77Zm7.16 50.39h-6.54v-7.78h6.54v7.78Zm0-8.4h-6.54v-7.78h6.54v7.78Zm0-8.4h-6.54v-7.77h6.54v7.77Zm0-8.39h-6.54v-7.78h6.54v7.78Zm0-8.4h-6.54v-7.78h6.54v7.78Zm0-8.4h-6.54v-7.77h6.54v7.77Zm0-8.4h-6.54v-7.77h6.54v7.77Zm0-8.39h-6.54v-7.78h6.54v7.78Zm7.15 16.79h-6.53v-7.77h6.53v7.77Zm0-8.4h-6.53v-7.77h6.53v7.77Zm0-8.39h-6.53v-7.78h6.53v7.78Z" opacity=".2"/><path stroke="#263238" d="M188.78 280.03c.07-2.39.95-32.83 1.55-48.36.62-16.17 11.59-40.7 11.59-40.7s1.47-3.46-.09-5.02c-1.55-1.55-5.28-.93-8.08 1.25s-28.61 13.37-30.17 14.93c-1.55 1.55-1.24 6.84-1.86 13.06-.63 6.22-10.89 49.14-10.89 49.14s-2.8.62-3.73 1.24c-.93.62-.93 2.49-.93 2.49s1.24.31 4.97 2.18c3.44 1.71 6.6 8.68 7.09 9.79h30.55Z"/><path fill="#263238" d="M146.17 268.08s1.24.31 4.97 2.17c3.73 1.87 7.15 9.96 7.15 9.96h6.03c.38-1.14 1.31-5.25-2.92-10.27-4.97-5.91-10.57-5.59-10.57-5.59s-2.8.62-3.73 1.24c-.93.62-.93 2.49-.93 2.49Z"/><path stroke="#263238" d="M151.14 270.25c3.73 1.87 7.15 9.96 7.15 9.96h6.03c.38-1.14 1.31-5.25-2.92-10.27-4.97-5.91-10.57-5.59-10.57-5.59s-2.8.62-3.73 1.24c-.93.62-.93 2.49-.93 2.49s1.24.31 4.97 2.17Z"/><path fill="#263238" d="M198.08 185.21c-1.34 3.54-4.51 11.55-7.13 15.36-3.42 4.98-9.64 9.02-7.46 10.89 2.17 1.86 8.39-4.05 8.39-4.05s1.56 4.36 1.87 5.6c.02.06.04.11.08.16 2.24-7.56 4.94-14.97 8.09-22.2 0 0 1.46-3.46-.09-5.02-.8-.8-2.17-1.02-3.75-.74Z"/><path stroke="#263238" d="M190.95 200.57c-3.42 4.98-9.64 9.02-7.46 10.89 2.17 1.86 8.39-4.05 8.39-4.05s1.56 4.36 1.87 5.6c.02.06.04.11.08.16 2.24-7.56 4.94-14.97 8.09-22.2 0 0 1.46-3.46-.09-5.02-.8-.8-2.17-1.02-3.75-.74-1.34 3.54-4.51 11.55-7.13 15.36ZM175.36 215.24c.18-1.15.3-2.31.35-3.47M170.42 280.81s.94-19.9.94-31.41c0-8.29 2.25-22.24 3.52-30.78"/><path stroke="#263238" d="M171.98 245.06s4.97 1.56 7.46 1.87l7.47.93-.57 7.05s-.37-.21-5.96-2.07c-5.6-1.87-9.02-3.42-9.02-3.42"/><path stroke="#263238" d="M186.34 254.89s-.37 13.81-.37 15.68c0 1.86-5.59.62-5.59.62"/><path fill="#9E9E9E" d="M190.81 178.65s5.86 8.43 11.11 12.32c5.25 3.89 9.73-1.56 13.23-7.39 3.5-5.84 5.84-10.12 7.58-15.17 1.75-5.06 0-13.42-6.99-20.03-7-6.61-23.35-16.34-27.43-11.28-4.08 5.05-7.97 16.17-5.25 25.67a50.01 50.01 0 0 0 7.75 15.88Z"/><path stroke="#263238" d="M201.92 190.97c5.25 3.89 9.73-1.56 13.23-7.39 3.5-5.84 5.84-10.12 7.58-15.17 1.75-5.06 0-13.42-6.99-20.03-7-6.61-23.35-16.34-27.43-11.28-4.08 5.05-7.97 16.17-5.25 25.67a50.01 50.01 0 0 0 7.75 15.88s5.86 8.43 11.11 12.32Z"/><path stroke="#263238" stroke-linecap="round" stroke-width="2" d="M188.34 160.5c2.21-.66 4.57-.66 6.78 0"/><path fill="#263238" d="M193.36 165.71c.18 1.01-.05 1.9-.53 1.98-.48.09-1.01-.66-1.2-1.67-.18-1.01.05-1.9.53-1.98.48-.09 1.01.65 1.2 1.67ZM210.66 165.98c.18 1-.06 1.86-.53 1.98-.47.12-1.01-.66-1.19-1.67-.19-1.02.05-1.9.53-1.99.48-.08 1 .66 1.19 1.68Z"/><path stroke="#263238" d="M197.84 179.69c2.25.78 4.63 1.11 7 .97 4.09-.19 7.59-3.11 7.59-3.11"/><path fill="#263238" d="M188.92 141.39s8.64 19.71 9.72 20.25c1.08.54 3.24-5.94 3.24-5.94s2.97 5.39 6.49 7.02c3.52 1.62 4.59-1.08 4.59-1.08 1.76.99 3.47 2.08 5.13 3.24l1.35 1.08 1.35 4.86s-4.05 13.23-2.7 14.85c1.35 1.62 8.9-.54 8.9-.54s-1.86 2.7.55 2.7c2.4 0 6.74.54 12.95-7.83 6.21-8.38 6.75-21.87 6.75-21.87s2.97 3.24 3.24-.81c.27-4.05-3.51-10.8-3.51-10.8s5.94 5.94 5.4-.27c-.53-6.2-4.05-13.23-5.4-14.84-1.35-1.62-9.45-6.22-9.45-6.22s3.24-.55.81-4.33c-2.42-3.78-11.34-4.86-14.58-4.86s-9.99 1.09-9.99 1.09 4.33-8.38-.26-8.92c-4.59-.54-12.69 8.38-12.69 8.38s-8.09-6.49-10.53-5.14c-2.45 1.35-.81 3.24-.81 3.24s-10.52.81-13.5 5.4c-2.97 4.59.54 7.29.54 7.29s-18.89 12.96-15.93 17.82c2.97 4.86 8.38.27 8.38.27s-7.57 19.44-6.49 20.79c1.09 1.35 6.22-.54 6.22-.54s-.26 15.65 3.79 17.28c4.05 1.62 4.85-1.35 4.85-1.35s2.16 2.16 7.03 2.42c4.86.27 6.47-5.4 6.47-5.4s-5.4-12.68-5.12-23.21c.27-10.52 3.21-14.03 3.21-14.03Z"/><path stroke="#263238" d="M198.64 161.64c1.08.54 3.24-5.94 3.24-5.94s2.97 5.39 6.49 7.02c3.52 1.62 4.59-1.08 4.59-1.08 1.76.99 3.47 2.08 5.13 3.24l1.35 1.08 1.35 4.86s-4.05 13.23-2.7 14.85c1.35 1.62 8.9-.54 8.9-.54s-1.86 2.7.55 2.7c2.4 0 6.74.54 12.95-7.83 6.21-8.38 6.75-21.87 6.75-21.87s2.97 3.24 3.24-.81c.27-4.05-3.51-10.8-3.51-10.8s5.94 5.94 5.4-.27c-.53-6.2-4.05-13.23-5.4-14.84-1.35-1.62-9.45-6.22-9.45-6.22s3.24-.55.81-4.33c-2.42-3.78-11.34-4.86-14.58-4.86s-9.99 1.09-9.99 1.09 4.33-8.38-.26-8.92c-4.59-.54-12.69 8.38-12.69 8.38s-8.09-6.49-10.53-5.14c-2.45 1.35-.81 3.24-.81 3.24s-10.52.81-13.5 5.4c-2.97 4.59.54 7.29.54 7.29s-18.89 12.96-15.93 17.82c2.97 4.86 8.38.27 8.38.27s-7.57 19.44-6.49 20.79c1.09 1.35 6.22-.54 6.22-.54s-.26 15.65 3.79 17.28c4.05 1.62 4.85-1.35 4.85-1.35s2.16 2.16 7.03 2.42c4.86.27 6.47-5.4 6.47-5.4s-5.4-12.68-5.12-23.21c.27-10.52 3.21-14.03 3.21-14.03s8.64 19.71 9.72 20.25Z"/><path fill="#9E9E9E" d="M199.79 164.13s-1.95 10.11-.39 12.25c1.55 2.14 7 0 7.39-1.16"/><path stroke="#263238" d="M199.79 164.13s-1.95 10.11-.39 12.25c1.55 2.14 7 0 7.39-1.16"/><path stroke="#263238" d="M191.71 170.35c-4.24 0-7.68-2.52-7.68-5.64 0-3.11 3.44-5.64 7.68-5.64 4.25 0 7.69 2.53 7.69 5.64 0 3.12-3.44 5.64-7.69 5.64ZM210.19 169.97c-4.24 0-7.68-2.53-7.68-5.64 0-3.12 3.44-5.64 7.68-5.64s7.68 2.52 7.68 5.64c0 3.11-3.44 5.64-7.68 5.64ZM199.79 164.13s1.55-1.16 2.72.2"/><path fill="#9E9E9E" d="M135.78 271.75s9.77-2.75 12.77-3.25c3.01-.5 9.02 5.01 10.02 8.01 1.01 3.01-.28 3.68-.28 3.68l-20.01-.67-2.5-7.77Z"/><path stroke="#263238" d="M148.55 268.5c3.01-.5 9.02 5.01 10.02 8.01 1.01 3.01-.28 3.68-.28 3.68l-20.01-.67-2.5-7.77s9.77-2.75 12.77-3.25Z"/><path fill="#9E9E9E" d="M139.32 270.78s7.37 2.76 9.21 3.87c1.85 1.11 1.29 3.32.19 4.42a10.358 10.358 0 0 1-4.61 2.21c-1.72.1-3.44.1-5.15 0-2.21-.18-4.24.19-6.08.19-1.84 0-7.37-.55-7.37-.55l-1.66-1.11s-3.11.92-5.53 1.86c-2.41.95-1.66-1.1.19-2.58 1.84-1.47 6.45-5.15 7.19-5.52.74-.37 10.13-3.11 10.13-3.11l3.49.32Z"/><path stroke="#263238" d="M148.53 274.65c1.85 1.11 1.29 3.32.19 4.42a10.358 10.358 0 0 1-4.61 2.21c-1.72.1-3.44.1-5.15 0-2.21-.18-4.24.19-6.08.19-1.84 0-7.37-.55-7.37-.55l-1.66-1.11s-3.11.92-5.53 1.86c-2.41.95-1.66-1.1.19-2.58 1.84-1.47 6.45-5.15 7.19-5.52.74-.37 10.13-3.11 10.13-3.11l3.49.32s7.37 2.76 9.21 3.87Z"/><path fill="#9E9E9E" d="M142.09 271.52s-4.8-2.21-6.09-2.21-10.5 3.11-11.78 4.05c-1.29.94-2.59 9.76-1.67 10.32.92.55 1.67-1.11 1.87-2.21.21-1.1 2.77-7 2.77-7l-1.87 9.39s.74 1.47 1.48.18c.73-1.28 5.34-10.13 5.71-10.68.48-.52 1.04-.95 1.66-1.29 0 0-.92 4.06-1.66 7.93-.74 3.86-.18 4.97.92 5.15 1.11.18 1.66-2.39 2.21-3.68s2.95-8.67 2.95-8.67"/><path stroke="#263238" d="M142.09 271.52s-4.8-2.21-6.09-2.21-10.5 3.11-11.78 4.05c-1.29.94-2.59 9.76-1.67 10.32.92.55 1.67-1.11 1.87-2.21.21-1.1 2.77-7 2.77-7l-1.87 9.39s.74 1.47 1.48.18c.73-1.28 5.34-10.13 5.71-10.68.48-.52 1.04-.95 1.66-1.29 0 0-.92 4.06-1.66 7.93-.74 3.86-.18 4.97.92 5.15 1.11.18 1.66-2.39 2.21-3.68s2.95-8.67 2.95-8.67"/><path fill="#9E9E9E" d="M147.41 275.21s-5.52 5.71-6.27 6.99c-.73 1.29-.73 1.48 1.3 1.48 2.03 0 8.29-4.06 8.84-4.61.55-.56.37-2.21-.92-3.32-.41-.32-.9-.53-1.41-.63-.51-.09-1.04-.07-1.54.09Z"/><path stroke="#263238" d="M141.14 282.2c-.73 1.29-.73 1.48 1.3 1.48 2.03 0 8.29-4.06 8.84-4.61.55-.56.37-2.21-.92-3.32-.41-.32-.9-.53-1.41-.63-.51-.09-1.04-.07-1.54.09 0 0-5.52 5.71-6.27 6.99Z"/><path fill="#9E9E9E" d="M181.91 274.57s-7.37 2.38-9.19 3.73c-1.81 1.35-4.42 2.84-3.85 3.29.56.46 2.38 0 2.95-.45.56-.45 3.17-.91 3.17-.91s3.06-1.81 5.44-3.28c2.38-1.47 4.19-3.06 1.48-2.38Z"/><path stroke="#263238" d="M172.72 278.3c-1.81 1.35-4.42 2.84-3.85 3.29.56.46 2.38 0 2.95-.45.56-.45 3.17-.91 3.17-.91s3.06-1.81 5.44-3.28c2.38-1.47 4.19-3.06 1.48-2.38 0 0-7.37 2.38-9.19 3.73Z"/><path fill="#9E9E9E" d="M222.59 262.09s-20.53 3.73-27.95 6.34c-7.43 2.61-10.38 4.42-14.1 7.05-3.71 2.62-11.24 7.58-10.12 8.45 1.12.87 5.02-2.18 5.68-2.83.66-.66 5.46-2.62 5.46-2.62l3.21-1.64s-4.84 5.95-6.58 7.46c-1.74 1.51-.56 2.46.75 2.02 1.31-.43 3.79-3.04 3.79-3.04l7.98-5.25s-3.28 4.59-4.81 5.9c-1.53 1.3 1.75 2.4 2.41 1.31.66-1.1 3.93-3.93 3.93-3.93s5.45-2.84 6.76-3.93c1.32-1.1 4.59-4.15 4.59-4.15l24.46 1.96s1.53-.87.65-5.89c-.87-5.03-6.11-7.21-6.11-7.21Z"/><path stroke="#263238" d="M194.64 268.43c-7.43 2.61-10.38 4.42-14.1 7.05-3.71 2.62-11.24 7.58-10.12 8.45 1.12.87 5.02-2.18 5.68-2.83.66-.66 5.46-2.62 5.46-2.62l3.21-1.64s-4.84 5.95-6.58 7.46c-1.74 1.51-.56 2.46.75 2.02 1.31-.43 3.79-3.04 3.79-3.04l7.98-5.25s-3.28 4.59-4.81 5.9c-1.53 1.3 1.75 2.4 2.41 1.31.66-1.1 3.93-3.93 3.93-3.93s5.45-2.84 6.76-3.93c1.32-1.1 4.59-4.15 4.59-4.15l24.46 1.96s1.53-.87.65-5.89c-.87-5.03-6.11-7.21-6.11-7.21s-20.53 3.73-27.95 6.34Z"/><path fill="#FFF" d="m239.19 223.44 12.01 29.71-19.44 6.77 5.46 15.94s13.96.04 24.88-.62c10.92-.66 18.59-7.25 16.84-15.11-1.75-7.85-8.3-19.22-13.54-32.76-5.25-13.54-3.62-21.61-6.02-25.76-2.41-4.15-9.18-5.24-9.18-5.24l-3.73-.62-7.28 27.69Z"/><path fill="#263238" d="M277.1 268.39v-3.11h1.62c.07-.2.12-.41.17-.62h-1.79v-7.78h.93c-.07-.2-.14-.41-.21-.62h-.72v-1.9c-.2-.51-.41-1.04-.63-1.57v3.47h-6.53v-7.78h4.69c-.09-.2-.18-.41-.27-.62h-4.42v-7.77h.87c-.1-.21-.19-.41-.28-.62h-.59v-1.3c-.2-.46-.41-.92-.62-1.39v2.69h-6.53v-7.78h4.35c-.08-.2-.17-.41-.25-.62h-4.1v-7.78h1.16c-.06-.2-.13-.41-.19-.62h-.97v-3.54c-.24-.99-.44-1.93-.62-2.83v6.37h-6.53v-7.77h6.27l-.12-.63h-6.15v-7.77h5.1l-.09-.62h-5.01v-7.63c-.55-.29-1.11-.55-1.68-.79h-5.48v-1.39l-.62-.11v1.5h-1.83l-.17.62h2v7.8h-4.04l-.16.62h4.21v7.77h-6.27l-.16.63h6.42v7.77h-6.53v-7.38l-.62 2.36v4.98h-1.32l-.16.62h1.48v3.94l.62 1.53v-5.43h6.53v7.78h-5.6l.25.62h5.35v7.78h-2.17l.25.62h1.95v4.83l.63 1.54v-6.37h6.5v7.77h-5.97l.26.62h5.71v7.78h-6.54v-2.15l-.62.22v1.93h-5.56l-1.79.62h.2v7.78h-6.53v-5.6l-.62.22v5.35h-.18l.8 2.33v-1.71h6.53v10.57h.62v-10.57h6.53v10.49h.62v-10.48h6.54v10.28h.62v-10.28h6.53v9.95l.62-.05v-9.9h6.53v8.53l.62-.23v-8.3h6.53v3.91c.22-.26.43-.51.63-.78Zm-29.24-3.73h-6.53v-7.78h6.53v7.78Zm7.16 0h-6.54v-7.78h6.54v7.78Zm0-25.19h-6.54v-7.77h6.54v7.77Zm0-8.4h-6.54v-7.78h6.54v7.78Zm0-8.39h-6.54v-7.78h6.54v7.78Zm0-8.4h-6.54v-7.78h6.54v7.78Zm0-8.4h-6.54v-7.77h6.54v7.77Zm7.15 58.78h-6.53v-7.78h6.53v7.78Zm0-8.4h-6.53v-7.77h6.53v7.77Zm0-8.39h-6.53v-7.78h6.53v7.78Zm0-8.4h-6.53v-7.77h6.53v7.77Zm0-8.4h-6.53v-7.78h6.53v7.78Zm7.15 33.59h-6.53v-7.78h6.53v7.78Zm0-8.4h-6.53v-7.77h6.53v7.77Zm0-8.39h-6.53v-7.78h6.53v7.78Zm.62 16.79v-7.78h6.53v7.78h-6.53Z" opacity=".2"/><path stroke="#263238" d="m239.19 223.44 12.01 29.71-19.44 6.77 5.46 15.94s13.96.04 24.88-.62c10.92-.66 18.59-7.25 16.84-15.11-1.75-7.85-8.3-19.22-13.54-32.76-5.25-13.54-3.62-21.61-6.02-25.76-2.41-4.15-9.18-5.24-9.18-5.24l-3.73-.62"/><path stroke="#263238" d="M262.89 250.13c-3.96.73-7.87 1.74-11.69 3.01 0 0 8.29-5.46 12.88-5.89M268.45 249.87c-.86-.13-1.73-.16-2.6-.09"/><path fill="#263238" d="M237.44 257.5s4.41 4.23 5.72 7.5c1.31 3.27.83 12.16-.04 13.03-.87.87-17.13.76-19.8-2.58-.7-.87 4.07-2.88 1.67-7.68-2.4-4.81-3.49-5.24-3.49-5.24s-1.97-1.1 1.74-3.5c3.72-2.4 12.23-4.14 14.2-1.53Z"/><path stroke="#263238" d="M243.16 265c1.31 3.27.83 12.16-.04 13.03-.87.87-17.13.76-19.8-2.58-.7-.87 4.07-2.88 1.67-7.68-2.4-4.81-3.49-5.24-3.49-5.24s-1.97-1.1 1.74-3.5c3.72-2.4 12.23-4.14 14.2-1.53 0 0 4.41 4.23 5.72 7.5Z"/><path fill="#263238" d="M276.16 291.18h-16.12l-2.02-31.87h20.15l-2.01 31.87Z"/><path stroke="#263238" stroke-linejoin="round" d="m260.04 291.18-2.02-31.87h20.15l-2.01 31.87h-16.12Z"/><path fill="#FFF" d="M279.07 259.36h-21.94V264h21.94v-4.64Z"/><path stroke="#263238" stroke-linejoin="round" d="M279.07 259.36V264h-21.94v-4.64h21.94Z"/><path fill="#FFF" d="M279.07 259.53h-21.94l2.19-2.75h17.55l2.2 2.75Z"/><path stroke="#263238" stroke-linejoin="round" d="m257.13 259.53 2.19-2.75h17.55l2.2 2.75h-21.94Z"/><path fill="#FFF" d="m276.75 281.83.8-12.69h-18.91l.8 12.69h17.31Z"/><path stroke="#263238" stroke-linejoin="round" d="M277.55 269.14h-18.91l.8 12.69h17.31l.8-12.69Z"/><path fill="#263238" d="m183.25 293.3 19.87-5.25v2.69l-19.87 5.56v-3Z"/><path stroke="#263238" stroke-linejoin="round" d="M203.12 288.05v2.69l-19.87 5.56v-3l19.87-5.25Z"/><path fill="#FFF" d="M203.12 288.05H99.25l-20.08 5.25h104.08l19.87-5.25Z"/><path stroke="#263238" stroke-linejoin="round" d="m99.25 288.05-20.08 5.25h104.08l19.87-5.25H99.25Z"/><path fill="#FFF" d="M183.25 233.28H79.17v63.02h104.08v-63.02Z"/><path stroke="#263238" stroke-linejoin="round" d="M183.25 233.28v63.02H79.17v-63.02h104.08Z"/><path fill="#263238" d="M183.25 242.39c-22.64 1.08-36.13 21.95-56.16 35.93-18.26 12.75-40.82 14.93-47.9 15.27v2.71h104.06v-53.91Z"/><path stroke="#263238" stroke-linejoin="round" d="M127.09 278.32c-18.26 12.75-40.82 14.93-47.9 15.27v2.71h104.06v-53.91c-22.64 1.08-36.13 21.95-56.16 35.93Z"/><path fill="#FFF" d="M183.25 293.3H79.17v3h104.08v-3Z"/><path stroke="#263238" d="M183.25 293.3v3H79.17v-3h104.08Z"/><path fill="#FFF" d="M48.36 272.51s-8.68-13.87-1.72-21.68c6.97-7.81 18.21-4.05 20.53 3.18 2.32 7.23-2.6 19.37-2.6 19.37l-16.21-.87Z"/><path stroke="#263238" stroke-linejoin="round" d="M46.64 250.83c6.97-7.81 18.21-4.05 20.53 3.18 2.32 7.23-2.6 19.37-2.6 19.37l-16.21-.87s-8.68-13.87-1.72-21.68Z"/><path fill="#FFF" d="M48.64 256.61c-1.44 0-6.93-2.02-8.67-4.62-1.73-2.6-2.03-8.39 2.89-8.39 4.93 0 6.65 8.67 6.65 8.67l.29 3.18m-1.18.68.02-.02c.28 0 .5.22.5.5s-.22.5-.5.5l-.02-.02v-.96Zm1.65-.74.03.02c.02.27-.18.51-.46.54a.502.502 0 0 1-.54-.45l.02-.03.95-.08Z"/><path stroke="#263238" stroke-linecap="round" stroke-linejoin="round" d="M48.64 256.61c-1.44 0-6.93-2.02-8.67-4.62-1.73-2.6-2.03-8.39 2.89-8.39 4.93 0 6.65 8.67 6.65 8.67l.29 3.18"/><path fill="#FFF" d="M53.09 251.21c-1.29-.62-5.31-4.9-5.7-8.01-.39-3.1 1.94-8.4 6.33-6.22 4.4 2.19 2.08 10.73 2.08 10.73l-1.16 2.98m-1.36.08.03-.01c.25.12.35.41.23.67a.5.5 0 0 1-.67.23l-.01-.03.42-.86Zm1.81.07.01.03c-.1.26-.38.38-.64.28a.499.499 0 0 1-.29-.65l.03-.01.89.35Z"/><path stroke="#263238" stroke-linecap="round" stroke-linejoin="round" d="M53.09 251.21c-1.29-.62-5.31-4.9-5.7-8.01-.39-3.1 1.94-8.4 6.33-6.22 4.4 2.19 2.08 10.73 2.08 10.73l-1.16 2.98"/><path fill="#FFF" d="M58.34 252.66c-.72-1.24-1.69-7.02-.3-9.82 1.39-2.8 6.27-5.92 8.71-1.65 2.44 4.27-4.23 10.07-4.23 10.07l-2.61 1.83m-1.17-.68h.03c.14.25.06.55-.18.69-.24.14-.54.06-.68-.19v-.02l.83-.48Zm1.46 1.07-.01.02c-.23.16-.53.11-.69-.12a.499.499 0 0 1 .12-.7l.03.01.55.79Z"/><path stroke="#263238" stroke-linecap="round" stroke-linejoin="round" d="M58.34 252.66c-.72-1.24-1.69-7.02-.3-9.82 1.39-2.8 6.27-5.92 8.71-1.65 2.44 4.27-4.23 10.07-4.23 10.07l-2.61 1.83"/><path fill="#FFF" d="M60.06 263.03c-.23-1.43.85-7.18 3.11-9.33 2.27-2.16 7.93-3.39 8.75 1.45.81 4.85-7.47 8-7.47 8l-3.11.81m-.81-1.03.03.02c.04.27-.14.52-.42.57a.49.49 0 0 1-.57-.41l.01-.02.95-.16Zm.95 1.49-.01.02a.492.492 0 0 1-.61-.35c-.07-.28.09-.54.36-.61l.02.01.24.93Z"/><path stroke="#263238" stroke-linecap="round" stroke-linejoin="round" d="M60.06 263.03c-.23-1.43.85-7.18 3.11-9.33 2.27-2.16 7.93-3.39 8.75 1.45.81 4.85-7.47 8-7.47 8l-3.11.81"/><path stroke="#FFF" stroke-linecap="round" stroke-linejoin="round" d="m40.61 248.5.97 1.53M43.4 252.27l1.53 1.25M41.73 245.57l1.53 2.23M45.35 249.62l1.67 3.06M49.25 242.22l.56 1.67M51.2 246.96l.98 1.4M50.79 238.87l1.25 2.79M45.91 258.54l.42 2.51M47.16 263.42l.56 2.09M48.55 258.68l.56 2.79M50.37 263.42l.42 2.09M51.35 255.05l.83 3.91M53.3 262.72l.14 1.82M54.83 253.8l.7 3.62M55.53 261.19l.28 3.76M58.88 255.19v3.07M58.46 262.17l.14 2.37M62.36 240.68l-.69 1.68M61.39 244.31l-.7 2.38M65.43 243.89l-1.11 2.24M61.95 248.64l-1.26 1.39M59.3 243.76l-.42 1.81M65.43 253.8l-1.53 2.51M62.92 257.84l-.84 2.23M64.18 261.19l2.51-1.4M68.22 253.8l-1.25 2.09M69.48 256.17l-1.67 1.25"/><path fill="#263238" d="M67.67 267.67H43.96v23.71h23.71v-23.71Z"/><path stroke="#263238" stroke-linejoin="round" d="M67.67 267.67v23.71H43.96v-23.71h23.71Z"/></g></svg>