<svg width="248.000000" height="248.000000" viewBox="0 0 248 248" fill="none" xmlns="http://www.w3.org/2000/svg" xmlns:xlink="http://www.w3.org/1999/xlink">
	<desc>
			Created with Pixso.
	</desc>
	<defs>
		<clipPath id="clip598_7571">
			<rect id="Online test-bro 1" width="248.000000" height="248.000000" fill="white" fill-opacity="0"/>
		</clipPath>
	</defs>
	<rect id="Online test-bro 1" width="248.000000" height="248.000000" fill="#FFFFFF" fill-opacity="0"/>
	<g clip-path="url(#clip598_7571)">
		<path id="Vector" d="M199.24 215.39C207.17 209.79 213.67 202.39 218.21 193.8C246.56 140.69 240.15 62.36 185.55 28.77C160.32 13.24 124 3.42 96.71 19.36C74.59 32.29 61.03 56.64 49.81 78.79C42.76 92.75 36.96 107.72 28.27 120.76C17 137.66 4.59 160.24 17.12 179.88C34.18 206.63 66.42 218.85 95.65 226.9C127.36 235.62 163.03 236.86 192.32 219.84C194.69 218.46 197 216.98 199.24 215.39Z" fill="#C8C8C8" fill-opacity="1.000000" fill-rule="nonzero"/>
		<g opacity="0.700000">
			<path id="Vector" d="M199.24 215.39C207.17 209.79 213.67 202.39 218.21 193.8C246.56 140.69 240.15 62.36 185.55 28.77C160.32 13.24 124 3.42 96.71 19.36C74.59 32.29 61.03 56.64 49.81 78.79C42.76 92.75 36.96 107.72 28.27 120.76C17 137.66 4.59 160.24 17.12 179.88C34.18 206.63 66.42 218.85 95.65 226.9C127.36 235.62 163.03 236.86 192.32 219.84C194.69 218.46 197 216.98 199.24 215.39Z" fill="#FFFFFF" fill-opacity="1.000000" fill-rule="nonzero"/>
		</g>
		<g opacity="0.300000">
			<g opacity="0.300000">
				<path id="Vector" d="M224.19 39.91L224.19 107L173.1 107L173.1 39.91L224.19 39.91Z" stroke="#000000" stroke-opacity="1.000000" stroke-width="1.000000"/>
			</g>
			<g opacity="0.300000">
				<path id="Vector" d="M214.81 52.22L214.81 94.69L182.47 94.69L182.47 52.22L214.81 52.22Z" stroke="#000000" stroke-opacity="1.000000" stroke-width="1.000000"/>
			</g>
		</g>
		<path id="Vector" d="M161.13 32.39L25.87 32.39L25.87 152.79L161.13 152.79L161.13 32.39Z" fill="#263238" fill-opacity="1.000000" fill-rule="nonzero"/>
		<path id="Vector" d="M161.13 32.39L161.13 152.79L25.87 152.79L25.87 32.39L161.13 32.39Z" stroke="#263238" stroke-opacity="1.000000" stroke-width="1.000000"/>
		<path id="Vector" d="M158.57 29.46L23.31 29.46L23.31 149.86L158.57 149.86L158.57 29.46Z" fill="#FFFFFF" fill-opacity="1.000000" fill-rule="nonzero"/>
		<path id="Vector" d="M158.57 29.46L158.57 149.86L23.31 149.86L23.31 29.46L158.57 29.46Z" stroke="#263238" stroke-opacity="1.000000" stroke-width="1.000000" stroke-linejoin="round"/>
		<path id="Vector" d="M132.23 78.05L138.95 78.05L138.95 71.32L132.23 71.32L132.23 78.05Z" fill="#FFFFFF" fill-opacity="1.000000" fill-rule="nonzero"/>
		<path id="Vector" d="M132.23 78.05L132.23 71.32L138.95 71.32L138.95 78.05L132.23 78.05Z" stroke="#263238" stroke-opacity="1.000000" stroke-width="1.000000" stroke-linejoin="round"/>
		<path id="Vector" d="M141.03 78.05L147.76 78.05L147.76 71.32L141.03 71.32L141.03 78.05Z" fill="#FFFFFF" fill-opacity="1.000000" fill-rule="nonzero"/>
		<path id="Vector" d="M141.03 78.05L141.03 71.32L147.76 71.32L147.76 78.05L141.03 78.05Z" stroke="#263238" stroke-opacity="1.000000" stroke-width="1.000000" stroke-linejoin="round"/>
		<path id="Vector" d="M95.39 75.57L95.37 75.59C95.09 75.59 94.87 75.37 94.87 75.09C94.87 74.81 95.09 74.59 95.37 74.59L95.39 74.61L95.39 75.57ZM129.52 74.61L129.54 74.59C129.82 74.59 130.04 74.81 130.04 75.09C130.04 75.37 129.82 75.59 129.54 75.59L129.52 75.57L129.52 74.61Z" fill="#FFFFFF" fill-opacity="1.000000" fill-rule="nonzero"/>
		<path id="Vector" d="M95.37 75.09L129.54 75.09" stroke="#263238" stroke-opacity="1.000000" stroke-width="1.000000" stroke-linejoin="round" stroke-linecap="round"/>
		<path id="Vector" d="M132.23 93.92L138.95 93.92L138.95 87.2L132.23 87.2L132.23 93.92Z" fill="#FFFFFF" fill-opacity="1.000000" fill-rule="nonzero"/>
		<path id="Vector" d="M132.23 93.92L132.23 87.2L138.95 87.2L138.95 93.92L132.23 93.92Z" stroke="#263238" stroke-opacity="1.000000" stroke-width="1.000000" stroke-linejoin="round"/>
		<path id="Vector" d="M141.03 93.92L147.76 93.92L147.76 87.2L141.03 87.2L141.03 93.92Z" fill="#FFFFFF" fill-opacity="1.000000" fill-rule="nonzero"/>
		<path id="Vector" d="M141.03 93.92L141.03 87.2L147.76 87.2L147.76 93.92L141.03 93.92Z" stroke="#263238" stroke-opacity="1.000000" stroke-width="1.000000" stroke-linejoin="round"/>
		<path id="Vector" d="M95.39 91.44L95.37 91.46C95.09 91.46 94.87 91.24 94.87 90.96C94.87 90.68 95.09 90.46 95.37 90.46L95.39 90.48L95.39 91.44ZM129.52 90.48L129.54 90.46C129.82 90.46 130.04 90.68 130.04 90.96C130.04 91.24 129.82 91.46 129.54 91.46L129.52 91.44L129.52 90.48Z" fill="#FFFFFF" fill-opacity="1.000000" fill-rule="nonzero"/>
		<path id="Vector" d="M95.37 90.96L129.54 90.96" stroke="#263238" stroke-opacity="1.000000" stroke-width="1.000000" stroke-linejoin="round" stroke-linecap="round"/>
		<path id="Vector" d="M132.23 109.8L138.95 109.8L138.95 103.07L132.23 103.07L132.23 109.8Z" fill="#FFFFFF" fill-opacity="1.000000" fill-rule="nonzero"/>
		<path id="Vector" d="M132.23 109.8L132.23 103.07L138.95 103.07L138.95 109.8L132.23 109.8Z" stroke="#263238" stroke-opacity="1.000000" stroke-width="1.000000" stroke-linejoin="round"/>
		<path id="Vector" d="M141.03 109.8L147.76 109.8L147.76 103.07L141.03 103.07L141.03 109.8Z" fill="#FFFFFF" fill-opacity="1.000000" fill-rule="nonzero"/>
		<path id="Vector" d="M141.03 109.8L141.03 103.07L147.76 103.07L147.76 109.8L141.03 109.8Z" stroke="#263238" stroke-opacity="1.000000" stroke-width="1.000000" stroke-linejoin="round"/>
		<path id="Vector" d="M95.39 107.32L95.37 107.34C95.09 107.34 94.87 107.12 94.87 106.84C94.87 106.56 95.09 106.34 95.37 106.34L95.39 106.36L95.39 107.32ZM129.52 106.36L129.54 106.34C129.82 106.34 130.04 106.56 130.04 106.84C130.04 107.12 129.82 107.34 129.54 107.34L129.52 107.32L129.52 106.36Z" fill="#FFFFFF" fill-opacity="1.000000" fill-rule="nonzero"/>
		<path id="Vector" d="M95.37 106.84L129.54 106.84" stroke="#263238" stroke-opacity="1.000000" stroke-width="1.000000" stroke-linejoin="round" stroke-linecap="round"/>
		<path id="Vector" d="M67.93 78.05L74.65 78.05L74.65 71.32L67.93 71.32L67.93 78.05Z" fill="#FFFFFF" fill-opacity="1.000000" fill-rule="nonzero"/>
		<path id="Vector" d="M67.93 78.05L67.93 71.32L74.65 71.32L74.65 78.05L67.93 78.05Z" stroke="#263238" stroke-opacity="1.000000" stroke-width="1.000000" stroke-linejoin="round"/>
		<path id="Vector" d="M76.74 78.05L83.46 78.05L83.46 71.32L76.74 71.32L76.74 78.05Z" fill="#FFFFFF" fill-opacity="1.000000" fill-rule="nonzero"/>
		<path id="Vector" d="M76.74 78.05L76.74 71.32L83.46 71.32L83.46 78.05L76.74 78.05Z" stroke="#263238" stroke-opacity="1.000000" stroke-width="1.000000" stroke-linejoin="round"/>
		<path id="Vector" d="M31.09 75.57L31.07 75.59C30.79 75.59 30.57 75.37 30.57 75.09C30.57 74.81 30.79 74.59 31.07 74.59L31.09 74.61L31.09 75.57ZM65.22 74.61L65.24 74.59C65.52 74.59 65.74 74.81 65.74 75.09C65.74 75.37 65.52 75.59 65.24 75.59L65.22 75.57L65.22 74.61Z" fill="#FFFFFF" fill-opacity="1.000000" fill-rule="nonzero"/>
		<path id="Vector" d="M31.07 75.09L65.24 75.09" stroke="#263238" stroke-opacity="1.000000" stroke-width="1.000000" stroke-linejoin="round" stroke-linecap="round"/>
		<path id="Vector" d="M67.93 93.92L74.65 93.92L74.65 87.2L67.93 87.2L67.93 93.92Z" fill="#FFFFFF" fill-opacity="1.000000" fill-rule="nonzero"/>
		<path id="Vector" d="M67.93 93.92L67.93 87.2L74.65 87.2L74.65 93.92L67.93 93.92Z" stroke="#263238" stroke-opacity="1.000000" stroke-width="1.000000" stroke-linejoin="round"/>
		<path id="Vector" d="M76.74 93.92L83.46 93.92L83.46 87.2L76.74 87.2L76.74 93.92Z" fill="#FFFFFF" fill-opacity="1.000000" fill-rule="nonzero"/>
		<path id="Vector" d="M76.74 93.92L76.74 87.2L83.46 87.2L83.46 93.92L76.74 93.92Z" stroke="#263238" stroke-opacity="1.000000" stroke-width="1.000000" stroke-linejoin="round"/>
		<path id="Vector" d="M31.09 91.44L31.07 91.46C30.79 91.46 30.57 91.24 30.57 90.96C30.57 90.68 30.79 90.46 31.07 90.46L31.09 90.48L31.09 91.44ZM65.22 90.48L65.24 90.46C65.52 90.46 65.74 90.68 65.74 90.96C65.74 91.24 65.52 91.46 65.24 91.46L65.22 91.44L65.22 90.48Z" fill="#FFFFFF" fill-opacity="1.000000" fill-rule="nonzero"/>
		<path id="Vector" d="M31.07 90.96L65.24 90.96" stroke="#263238" stroke-opacity="1.000000" stroke-width="1.000000" stroke-linejoin="round" stroke-linecap="round"/>
		<path id="Vector" d="M67.93 109.8L74.65 109.8L74.65 103.07L67.93 103.07L67.93 109.8Z" fill="#FFFFFF" fill-opacity="1.000000" fill-rule="nonzero"/>
		<path id="Vector" d="M67.93 109.8L67.93 103.07L74.65 103.07L74.65 109.8L67.93 109.8Z" stroke="#263238" stroke-opacity="1.000000" stroke-width="1.000000" stroke-linejoin="round"/>
		<path id="Vector" d="M76.74 109.8L83.46 109.8L83.46 103.07L76.74 103.07L76.74 109.8Z" fill="#FFFFFF" fill-opacity="1.000000" fill-rule="nonzero"/>
		<path id="Vector" d="M76.74 109.8L76.74 103.07L83.46 103.07L83.46 109.8L76.74 109.8Z" stroke="#263238" stroke-opacity="1.000000" stroke-width="1.000000" stroke-linejoin="round"/>
		<path id="Vector" d="M31.09 107.32L31.07 107.34C30.79 107.34 30.57 107.12 30.57 106.84C30.57 106.56 30.79 106.34 31.07 106.34L31.09 106.36L31.09 107.32ZM65.22 106.36L65.24 106.34C65.52 106.34 65.74 106.56 65.74 106.84C65.74 107.12 65.52 107.34 65.24 107.34L65.22 107.32L65.22 106.36Z" fill="#FFFFFF" fill-opacity="1.000000" fill-rule="nonzero"/>
		<path id="Vector" d="M31.07 106.84L65.24 106.84" stroke="#263238" stroke-opacity="1.000000" stroke-width="1.000000" stroke-linejoin="round" stroke-linecap="round"/>
		<path id="Vector" d="M40.6 132.92L33.19 132.92L33.19 140.33L40.6 140.33L40.6 132.92Z" fill="#FFFFFF" fill-opacity="1.000000" fill-rule="nonzero"/>
		<path id="Vector" d="M40.6 132.92L40.6 140.33L33.19 140.33L33.19 132.92L40.6 132.92Z" stroke="#263238" stroke-opacity="1.000000" stroke-width="1.000000" stroke-linejoin="round"/>
		<path id="Vector" d="M70.84 132.92L63.43 132.92L63.43 140.33L70.84 140.33L70.84 132.92Z" fill="#FFFFFF" fill-opacity="1.000000" fill-rule="nonzero"/>
		<path id="Vector" d="M70.84 132.92L70.84 140.33L63.43 140.33L63.43 132.92L70.84 132.92Z" stroke="#263238" stroke-opacity="1.000000" stroke-width="1.000000" stroke-linejoin="round"/>
		<path id="Vector" d="M102.29 132.92L94.87 132.92L94.87 140.33L102.29 140.33L102.29 132.92Z" fill="#FFFFFF" fill-opacity="1.000000" fill-rule="nonzero"/>
		<path id="Vector" d="M102.29 132.92L102.29 140.33L94.87 140.33L94.87 132.92L102.29 132.92Z" stroke="#263238" stroke-opacity="1.000000" stroke-width="1.000000" stroke-linejoin="round"/>
		<path id="Vector" d="M78.94 73.57L80.09 75.87L85.64 70.51" stroke="#263238" stroke-opacity="1.000000" stroke-width="2.000000" stroke-linejoin="round" stroke-linecap="round"/>
		<path id="Vector" d="M78.94 89.27L80.09 91.57L85.64 86.21" stroke="#263238" stroke-opacity="1.000000" stroke-width="2.000000" stroke-linejoin="round" stroke-linecap="round"/>
		<path id="Vector" d="M69.37 105.73L70.52 108.03L76.07 102.67" stroke="#263238" stroke-opacity="1.000000" stroke-width="2.000000" stroke-linejoin="round" stroke-linecap="round"/>
		<path id="Vector" d="M142.87 73.38L144.02 75.68L149.57 70.32" stroke="#263238" stroke-opacity="1.000000" stroke-width="2.000000" stroke-linejoin="round" stroke-linecap="round"/>
		<path id="Vector" d="M133.61 89.46L134.75 91.76L140.3 86.4" stroke="#263238" stroke-opacity="1.000000" stroke-width="2.000000" stroke-linejoin="round" stroke-linecap="round"/>
		<path id="Vector" d="M133.61 105.59L134.75 107.89L140.3 102.53" stroke="#263238" stroke-opacity="1.000000" stroke-width="2.000000" stroke-linejoin="round" stroke-linecap="round"/>
		<path id="Vector" d="M158.57 29.46L23.31 29.46L23.31 48.27L158.57 48.27L158.57 29.46Z" fill="#FFFFFF" fill-opacity="1.000000" fill-rule="nonzero"/>
		<path id="Vector" d="M158.57 29.46L158.57 48.27L23.31 48.27L23.31 29.46L158.57 29.46Z" stroke="#263238" stroke-opacity="1.000000" stroke-width="1.000000" stroke-linejoin="round"/>
		<path id="Vector" d="M158.57 29.46L153.47 29.46L153.47 149.86L158.57 149.86L158.57 29.46Z" fill="#DBDBDB" fill-opacity="1.000000" fill-rule="nonzero"/>
		<path id="Vector" d="M158.57 29.46L158.57 149.86L153.47 149.86L153.47 29.46L158.57 29.46Z" stroke="#263238" stroke-opacity="1.000000" stroke-width="1.000000" stroke-linejoin="round"/>
		<path id="Vector" d="M158.57 47.55L153.47 47.55L153.47 70.79L158.57 70.79L158.57 47.55Z" fill="#949494" fill-opacity="1.000000" fill-rule="nonzero"/>
		<path id="Vector" d="M158.57 47.55L158.57 70.79L153.47 70.79L153.47 47.55L158.57 47.55Z" stroke="#263238" stroke-opacity="1.000000" stroke-width="1.000000" stroke-linejoin="round"/>
		<path id="Vector" d="M158.57 29.46L23.31 29.46L23.31 38.6L158.57 38.6L158.57 29.46Z" fill="#DBDBDB" fill-opacity="1.000000" fill-rule="nonzero"/>
		<path id="Vector" d="M158.57 29.46L158.57 38.6L23.31 38.6L23.31 29.46L158.57 29.46Z" stroke="#263238" stroke-opacity="1.000000" stroke-width="1.000000" stroke-linejoin="round"/>
		<path id="Vector" d="M83.5 32.12L30.16 32.12L30.16 35.93L83.5 35.93L83.5 32.12Z" fill="#FFFFFF" fill-opacity="1.000000" fill-rule="nonzero"/>
		<path id="Vector" d="M83.5 32.12L83.5 35.93L30.16 35.93L30.16 32.12L83.5 32.12Z" stroke="#263238" stroke-opacity="1.000000" stroke-width="1.000000" stroke-linejoin="round"/>
		<path id="Vector" d="M150.58 32.3L155.26 32.3" stroke="#263238" stroke-opacity="1.000000" stroke-width="1.000000" stroke-linejoin="round" stroke-linecap="round"/>
		<path id="Vector" d="M150.58 34.28L155.26 34.28" stroke="#263238" stroke-opacity="1.000000" stroke-width="1.000000" stroke-linejoin="round" stroke-linecap="round"/>
		<path id="Vector" d="M150.58 36.26L155.26 36.26" stroke="#263238" stroke-opacity="1.000000" stroke-width="1.000000" stroke-linejoin="round" stroke-linecap="round"/>
		<path id="Vector" d="M70.56 55.87C70.56 54.7 71.18 54.03 72.31 54.03C73.44 54.03 74.05 54.7 74.05 55.87L74.05 59.68C74.05 60.85 73.44 61.52 72.31 61.52C71.18 61.52 70.56 60.85 70.56 59.68L70.56 55.87ZM71.71 59.76C71.71 60.28 71.94 60.48 72.31 60.48C72.67 60.48 72.9 60.28 72.9 59.76L72.9 55.79C72.9 55.26 72.67 55.07 72.31 55.07C71.94 55.07 71.71 55.26 71.71 55.79L71.71 59.76Z" fill="#263238" fill-opacity="1.000000" fill-rule="nonzero"/>
		<path id="Vector" d="M75.82 56.14L75.82 61.44L74.79 61.44L74.79 54.11L76.23 54.11L77.42 58.5L77.42 54.11L78.44 54.11L78.44 61.44L77.26 61.44L75.82 56.14Z" fill="#263238" fill-opacity="1.000000" fill-rule="nonzero"/>
		<path id="Vector" d="M79.27 54.11L80.42 54.11L80.42 60.39L82.33 60.39L82.33 61.44L79.28 61.44L79.27 54.11Z" fill="#263238" fill-opacity="1.000000" fill-rule="nonzero"/>
		<path id="Vector" d="M82.83 54.11L83.98 54.11L83.98 61.44L82.83 61.44L82.83 54.11Z" fill="#263238" fill-opacity="1.000000" fill-rule="nonzero"/>
		<path id="Vector" d="M85.83 56.14L85.83 61.44L84.81 61.44L84.81 54.11L86.25 54.11L87.44 58.5L87.44 54.11L88.46 54.11L88.46 61.44L87.29 61.44L85.83 56.14Z" fill="#263238" fill-opacity="1.000000" fill-rule="nonzero"/>
		<path id="Vector" d="M90.43 57.2L92.01 57.2L92.01 58.25L90.43 58.25L90.43 60.39L92.41 60.39L92.41 61.44L89.28 61.44L89.28 54.11L92.41 54.11L92.41 55.16L90.43 55.16L90.43 57.2Z" fill="#263238" fill-opacity="1.000000" fill-rule="nonzero"/>
		<path id="Vector" d="M94.42 54.11L97.97 54.11L97.97 55.16L96.77 55.16L96.77 61.44L95.62 61.44L95.62 55.16L94.42 55.16L94.42 54.11Z" fill="#263238" fill-opacity="1.000000" fill-rule="nonzero"/>
		<path id="Vector" d="M99.63 57.2L101.21 57.2L101.21 58.25L99.63 58.25L99.63 60.39L101.62 60.39L101.62 61.44L98.48 61.44L98.48 54.11L101.62 54.11L101.62 55.16L99.63 55.16L99.63 57.2Z" fill="#263238" fill-opacity="1.000000" fill-rule="nonzero"/>
		<path id="Vector" d="M103.88 54.03C105 54.03 105.57 54.7 105.57 55.87L105.57 56.1L104.49 56.1L104.49 55.8C104.49 55.27 104.28 55.08 103.91 55.08C103.55 55.08 103.34 55.27 103.34 55.8C103.34 57.29 105.58 57.59 105.58 59.68C105.58 60.85 105 61.52 103.87 61.52C102.74 61.52 102.17 60.85 102.17 59.68L102.17 59.23L103.26 59.23L103.26 59.76C103.26 60.28 103.49 60.47 103.86 60.47C104.23 60.47 104.45 60.28 104.45 59.76C104.45 58.27 102.21 57.97 102.21 55.87C102.17 54.7 102.76 54.03 103.88 54.03Z" fill="#263238" fill-opacity="1.000000" fill-rule="nonzero"/>
		<path id="Vector" d="M105.91 54.11L109.47 54.11L109.47 55.16L108.27 55.16L108.27 61.44L107.13 61.44L107.13 55.16L105.93 55.16L105.91 54.11Z" fill="#263238" fill-opacity="1.000000" fill-rule="nonzero"/>
		<path id="Vector" d="M38.96 131.14L37.8 131.14L37.6 129.81L36.2 129.81L36 131.14L34.93 131.14L36.1 123.81L37.79 123.81L38.96 131.14ZM36.33 128.81L37.44 128.81L36.89 125.11L36.33 128.81Z" fill="#263238" fill-opacity="1.000000" fill-rule="nonzero"/>
		<path id="Vector" d="M68.71 125.48L68.71 125.74C68.71 126.5 68.49 126.98 67.97 127.23C68.59 127.47 68.83 128.02 68.83 128.8L68.83 129.4C68.83 130.53 68.23 131.13 67.08 131.13L65.27 131.13L65.27 123.81L67.01 123.81C68.2 123.81 68.71 124.37 68.71 125.48ZM66.42 124.84L66.42 126.78L66.87 126.78C67.3 126.78 67.56 126.59 67.56 126L67.56 125.6C67.56 125.07 67.39 124.84 66.98 124.84L66.42 124.84ZM66.42 127.82L66.42 130.07L67.08 130.07C67.47 130.07 67.68 129.89 67.68 129.35L67.68 128.71C67.68 128.03 67.46 127.82 66.94 127.82L66.42 127.82Z" fill="#263238" fill-opacity="1.000000" fill-rule="nonzero"/>
		<path id="Vector" d="M100.46 128.4L100.46 129.4C100.46 130.57 99.87 131.24 98.74 131.24C97.61 131.24 97.02 130.57 97.02 129.4L97.02 125.59C97.02 124.42 97.61 123.75 98.74 123.75C99.87 123.75 100.46 124.42 100.46 125.59L100.46 126.3L99.37 126.3L99.37 125.48C99.37 124.96 99.14 124.76 98.77 124.76C98.4 124.76 98.17 124.96 98.17 125.48L98.17 129.45C98.17 129.98 98.41 130.17 98.77 130.17C99.13 130.17 99.37 129.98 99.37 129.45L99.37 128.4L100.46 128.4Z" fill="#263238" fill-opacity="1.000000" fill-rule="nonzero"/>
		<path id="Vector" d="M31.61 120.39L31.59 120.41C31.31 120.41 31.09 120.19 31.09 119.91C31.09 119.63 31.31 119.41 31.59 119.41L31.61 119.43L31.61 120.39ZM119.49 119.43L119.51 119.41C119.79 119.41 120.01 119.63 120.01 119.91C120.01 120.19 119.79 120.41 119.51 120.41L119.49 120.39L119.49 119.43Z" fill="#FFFFFF" fill-opacity="1.000000" fill-rule="nonzero"/>
		<path id="Vector" d="M31.59 119.91L119.51 119.91" stroke="#263238" stroke-opacity="1.000000" stroke-width="1.000000" stroke-linejoin="round" stroke-linecap="round"/>
		<g opacity="0.300000">
			<path id="Vector" d="M175.99 30.05L175.99 20.34L185.7 20.34L185.7 30.05L175.99 30.05Z" stroke="#000000" stroke-opacity="1.000000" stroke-width="1.000000" stroke-linejoin="round"/>
		</g>
		<g opacity="0.300000">
			<path id="Vector" d="M188.7 30.05L188.7 20.34L198.41 20.34L198.41 30.05L188.7 30.05Z" stroke="#000000" stroke-opacity="1.000000" stroke-width="1.000000" stroke-linejoin="round"/>
		</g>
		<g opacity="0.300000">
			<path id="Vector" d="M178.08 24.18L179.74 27.49L184.61 22.13" stroke="#000000" stroke-opacity="1.000000" stroke-width="2.000000" stroke-linejoin="round" stroke-linecap="round"/>
		</g>
		<g opacity="0.300000">
			<path id="Vector" d="M29.05 172.46L29.05 162.75L38.76 162.75L38.76 172.46L29.05 172.46Z" stroke="#000000" stroke-opacity="1.000000" stroke-width="1.000000" stroke-linejoin="round"/>
		</g>
		<g opacity="0.300000">
			<path id="Vector" d="M41.76 172.46L41.76 162.75L51.46 162.75L51.46 172.46L41.76 172.46Z" stroke="#000000" stroke-opacity="1.000000" stroke-width="1.000000" stroke-linejoin="round"/>
		</g>
		<g opacity="0.300000">
			<path id="Vector" d="M31.13 166.59L32.79 169.91L37.66 164.54" stroke="#000000" stroke-opacity="1.000000" stroke-width="2.000000" stroke-linejoin="round" stroke-linecap="round"/>
		</g>
		<g opacity="0.300000">
			<path id="Vector" d="M75.03 172.46L75.03 162.75L84.74 162.75L84.74 172.46L75.03 172.46Z" stroke="#000000" stroke-opacity="1.000000" stroke-width="1.000000" stroke-linejoin="round"/>
		</g>
		<g opacity="0.300000">
			<path id="Vector" d="M87.75 172.46L87.75 162.75L97.45 162.75L97.45 172.46L87.75 172.46Z" stroke="#000000" stroke-opacity="1.000000" stroke-width="1.000000" stroke-linejoin="round"/>
		</g>
		<g opacity="0.300000">
			<path id="Vector" d="M77.12 166.59L78.77 169.91L83.65 164.54" stroke="#000000" stroke-opacity="1.000000" stroke-width="2.000000" stroke-linejoin="round" stroke-linecap="round"/>
		</g>
		<g opacity="0.300000">
			<g opacity="0.300000">
				<path id="Vector" d="M90.09 25.2C86.69 25.74 83.49 23.44 82.95 20.04C82.4 16.64 84.71 13.44 88.1 12.9C91.5 12.35 94.7 14.66 95.25 18.05C95.79 21.45 93.49 24.65 90.09 25.2Z" stroke="#000000" stroke-opacity="1.000000" stroke-width="1.000000" stroke-linejoin="round"/>
			</g>
			<g opacity="0.300000">
				<path id="Vector" d="M90.84 21.3L89.1 19.05L89.1 15.5" stroke="#000000" stroke-opacity="1.000000" stroke-width="1.000000" stroke-linejoin="round" stroke-linecap="round"/>
			</g>
		</g>
		<g opacity="0.300000">
			<g opacity="0.300000">
				<path id="Vector" d="M205.38 138.54L204.46 138.54L204.3 137.49L203.18 137.49L203.02 138.54L202.18 138.54L203.11 132.73L204.45 132.73L205.38 138.54ZM203.3 136.7L204.17 136.7L203.73 133.76L203.3 136.7Z" fill="#000000" fill-opacity="1.000000" fill-rule="nonzero"/>
			</g>
			<g opacity="0.300000">
				<path id="Vector" d="M218.37 134.06L218.37 134.27C218.4 134.5 218.37 134.74 218.26 134.95C218.16 135.16 217.99 135.33 217.78 135.44C218.02 135.55 218.21 135.73 218.33 135.95C218.45 136.18 218.5 136.43 218.46 136.69L218.46 137.18C218.49 137.37 218.47 137.56 218.4 137.74C218.34 137.92 218.24 138.08 218.11 138.21C217.97 138.34 217.81 138.44 217.63 138.5C217.45 138.56 217.26 138.58 217.07 138.56L215.64 138.56L215.64 132.73L217.02 132.73C217.96 132.73 218.37 133.17 218.37 134.06ZM216.55 133.57L216.55 135.11L216.91 135.11C217.25 135.11 217.46 134.96 217.46 134.49L217.46 134.17C217.46 133.75 217.32 133.57 216.99 133.57L216.55 133.57ZM216.55 135.93L216.55 137.72L217.07 137.72C217.38 137.72 217.57 137.58 217.57 137.15L217.57 136.65C217.57 136.12 217.39 135.95 216.98 135.95L216.55 135.93Z" fill="#000000" fill-opacity="1.000000" fill-rule="nonzero"/>
			</g>
			<g opacity="0.300000">
				<path id="Vector" d="M231.52 136.39L231.52 137.16C231.52 138.1 231.06 138.63 230.16 138.63C229.27 138.63 228.8 138.1 228.8 137.16L228.8 134.14C228.8 133.21 229.27 132.68 230.16 132.68C231.06 132.68 231.52 133.21 231.52 134.14L231.52 134.71L230.66 134.71L230.66 134.06C230.66 133.65 230.48 133.49 230.19 133.49C229.9 133.49 229.69 133.65 229.69 134.06L229.69 137.2C229.69 137.62 229.88 137.77 230.19 137.77C230.5 137.77 230.66 137.62 230.66 137.2L230.66 136.39L231.52 136.39Z" fill="#000000" fill-opacity="1.000000" fill-rule="nonzero"/>
			</g>
			<g opacity="0.300000">
				<path id="Vector" d="M207.19 141.71L207.19 148.77L200.14 148.77L200.14 141.71L207.19 141.71Z" stroke="#000000" stroke-opacity="1.000000" stroke-width="1.000000"/>
			</g>
			<g opacity="0.300000">
				<path id="Vector" d="M220.32 141.71L220.32 148.77L213.27 148.77L213.27 141.71L220.32 141.71Z" stroke="#000000" stroke-opacity="1.000000" stroke-width="1.000000"/>
			</g>
			<g opacity="0.300000">
				<path id="Vector" d="M233.45 141.71L233.45 148.77L226.39 148.77L226.39 141.71L233.45 141.71Z" stroke="#000000" stroke-opacity="1.000000" stroke-width="1.000000"/>
			</g>
		</g>
		<path id="Vector" d="M24.96 223.47L39.89 223.47" stroke="#263238" stroke-opacity="1.000000" stroke-width="1.000000"/>
		<path id="Vector" d="M44.76 223.47L234.77 223.47" stroke="#263238" stroke-opacity="1.000000" stroke-width="1.000000"/>
		<path id="Vector" d="M177.39 223.3L180.58 174.8L182.93 151.73L176.48 144.53L173.25 142.18C173.25 142.18 168.7 146.15 165.47 147.03C162.24 147.91 159.13 148.8 159.13 148.8C159.13 148.8 148.12 169.51 147.23 178.91C146.34 188.31 144.88 223.13 144.88 223.13L146.1 223.3L177.39 223.3Z" fill="#9E9E9E" fill-opacity="1.000000" fill-rule="nonzero"/>
		<path id="Vector" d="M180.58 174.8L182.93 151.73L176.48 144.53L173.25 142.18C173.25 142.18 168.7 146.15 165.47 147.03C162.24 147.91 159.13 148.8 159.13 148.8C159.13 148.8 148.12 169.51 147.23 178.91C146.34 188.31 144.88 223.13 144.88 223.13L146.1 223.3L177.39 223.3L180.58 174.8Z" stroke="#263238" stroke-opacity="1.000000" stroke-width="1.000000"/>
		<path id="Vector" d="M162.24 183.31C162.24 183.31 161.69 183.03 162.79 180.19" stroke="#263238" stroke-opacity="1.000000" stroke-width="1.000000"/>
		<path id="Vector" d="M160.95 148.3C161.5 152.22 161.8 156.17 161.86 160.12C161.86 160.12 165.16 158.8 167.81 154.17C169.27 151.69 170.53 149.09 171.57 146.4L160.95 148.3Z" fill="#263238" fill-opacity="1.000000" fill-rule="nonzero"/>
		<path id="Vector" d="M161.86 160.12C161.86 160.12 165.16 158.8 167.81 154.17C169.27 151.69 170.53 149.09 171.57 146.4L160.95 148.3C161.5 152.22 161.8 156.17 161.86 160.12Z" stroke="#263238" stroke-opacity="1.000000" stroke-width="1.000000"/>
		<path id="Vector" d="M177.39 223.3L180.26 179.69C177.44 181.13 171.88 183.51 165.74 183.61C158.39 183.73 149.29 178.02 149.29 178.02L147.24 178.83C147.24 178.85 147.24 178.88 147.24 178.91C146.36 188.33 144.89 223.13 144.89 223.13L146.12 223.3L177.39 223.3Z" fill="#FFFFFF" fill-opacity="1.000000" fill-rule="nonzero"/>
		<path id="Vector" d="M180.26 179.69C177.44 181.13 171.88 183.51 165.74 183.61C158.39 183.73 149.29 178.02 149.29 178.02L147.24 178.83C147.24 178.85 147.24 178.88 147.24 178.91C146.36 188.33 144.89 223.13 144.89 223.13L146.12 223.3L177.39 223.3L180.26 179.69Z" stroke="#263238" stroke-opacity="1.000000" stroke-width="1.000000"/>
		<path id="Vector" d="M172.6 198.89C172.6 210.13 172.99 220.93 173.1 223.3L194.75 223.3C195.05 219.79 196.91 198 197.87 190.19C198.92 181.65 205.78 168.94 205.78 164.39C205.78 159.85 207.18 160.57 200.91 157.26C194.64 153.95 180.81 146.81 178.89 145.93C176.98 145.06 174.89 142.96 174.89 142.96C174.89 142.96 175.58 147.31 175.38 159.15C175.18 170.99 172.6 186.19 172.6 198.89Z" fill="#FFFFFF" fill-opacity="1.000000" fill-rule="nonzero"/>
		<g opacity="0.200000">
			<g opacity="0.200000">
				<path id="Vector" d="M174.89 143C175.14 145.06 175.29 147.14 175.33 149.21L175.33 143.42C175.05 143.17 174.89 143 174.89 143Z" fill="#000000" fill-opacity="1.000000" fill-rule="nonzero"/>
			</g>
			<g opacity="0.200000">
				<path id="Vector" d="M203.36 171.35L203.36 172.84C203.52 172.39 203.69 171.95 203.85 171.52L203.85 171.34L203.92 171.34C203.98 171.18 204.04 171.01 204.1 170.84L203.85 170.84L203.85 164.67L205.77 164.67C205.77 164.59 205.77 164.51 205.77 164.44C205.77 164.37 205.77 164.26 205.77 164.17L203.85 164.17L203.85 158.88C203.7 158.79 203.53 158.7 203.36 158.6L203.36 164.17L198.15 164.17L198.15 157.97L202.18 157.97L201.24 157.48L198.15 157.48L198.15 155.84L197.65 155.58L197.65 157.46L192.44 157.46L192.44 152.87L191.95 152.61L191.95 157.46L186.74 157.46L186.74 151.28L189.33 151.28L188.37 150.78L186.74 150.78L186.74 149.94L186.24 149.68L186.24 150.78L181.04 150.78L181.04 147.03C180.86 146.95 180.7 146.86 180.54 146.79L180.54 150.78L175.38 150.78C175.38 150.94 175.38 151.11 175.38 151.28L180.54 151.28L180.54 157.48L175.43 157.48C175.43 157.64 175.43 157.8 175.43 157.97L180.54 157.97L180.54 164.17L175.33 164.17L175.33 161.82C175.23 164.24 175.05 166.78 174.84 169.36L174.84 170.85L174.71 170.85L174.66 171.34L174.84 171.34L174.84 177.56L174.09 177.56L174.04 178.06L174.86 178.06L174.86 184.26L173.45 184.26L173.41 184.76L174.86 184.76L174.86 190.96L172.93 190.96L172.9 191.45L174.88 191.45L174.88 197.65L172.68 197.65C172.68 197.82 172.68 197.98 172.68 198.15L174.89 198.15L174.89 204.35L172.7 204.35C172.7 204.52 172.7 204.68 172.7 204.84L174.88 204.84L174.88 211.04L172.8 211.04C172.8 211.21 172.8 211.38 172.8 211.54L174.87 211.54L174.87 223.32L175.37 223.32L175.37 211.52L180.54 211.52L180.54 223.31L181.04 223.31L181.04 211.52L186.24 211.52L186.24 223.31L186.74 223.31L186.74 211.52L191.95 211.52L191.95 223.31L192.44 223.31L192.44 211.52L195.78 211.52C195.78 211.36 195.78 211.2 195.83 211.03L192.44 211.03L192.44 204.84L196.41 204.84C196.41 204.68 196.45 204.52 196.46 204.35L192.44 204.35L192.44 198.15L197.03 198.15C197.03 197.98 197.06 197.82 197.08 197.65L192.44 197.65L192.44 191.45L197.65 191.45L197.65 192.11L197.87 190.21C197.94 189.66 198.03 189.08 198.15 188.49L198.15 184.76L199.08 184.76L199.22 184.26L198.15 184.26L198.15 178.06L201.37 178.06C201.44 177.9 201.5 177.73 201.56 177.56L198.15 177.56L198.15 171.36L203.36 171.35ZM198.15 164.67L203.36 164.67L203.36 170.87L198.15 170.87L198.15 164.67ZM180.54 211.03L175.33 211.03L175.33 204.84L180.54 204.84L180.54 211.03ZM180.54 204.33L175.33 204.33L175.33 198.13L180.54 198.13L180.54 204.33ZM180.54 197.64L175.33 197.64L175.33 191.45L180.54 191.45L180.54 197.64ZM180.54 190.94L175.33 190.94L175.33 184.74L180.54 184.74L180.54 190.94ZM180.54 184.25L175.33 184.25L175.33 178.06L180.54 178.06L180.54 184.25ZM180.54 177.55L175.33 177.55L175.33 171.35L180.54 171.35L180.54 177.55ZM180.54 170.85L175.33 170.85L175.33 164.67L180.54 164.67L180.54 170.85ZM186.24 211.03L181.04 211.03L181.04 204.84L186.24 204.84L186.24 211.03ZM186.24 204.33L181.04 204.33L181.04 198.13L186.24 198.13L186.24 204.33ZM186.24 197.64L181.04 197.64L181.04 191.45L186.24 191.45L186.24 197.64ZM186.24 190.94L181.04 190.94L181.04 184.74L186.24 184.74L186.24 190.94ZM186.24 184.25L181.04 184.25L181.04 178.06L186.24 178.06L186.24 184.25ZM186.24 177.55L181.04 177.55L181.04 171.35L186.24 171.35L186.24 177.55ZM186.24 170.85L181.04 170.85L181.04 164.67L186.24 164.67L186.24 170.85ZM186.24 164.16L181.04 164.16L181.04 157.96L186.24 157.96L186.24 164.16ZM186.24 157.46L181.04 157.46L181.04 151.28L186.24 151.28L186.24 157.46ZM191.95 211.03L186.74 211.03L186.74 204.84L191.95 204.84L191.95 211.03ZM191.95 204.33L186.74 204.33L186.74 198.13L191.95 198.13L191.95 204.33ZM191.95 197.64L186.74 197.64L186.74 191.45L191.95 191.45L191.95 197.64ZM191.95 190.94L186.74 190.94L186.74 184.74L191.95 184.74L191.95 190.94ZM191.95 184.25L186.74 184.25L186.74 178.06L191.95 178.06L191.95 184.25ZM191.95 177.55L186.74 177.55L186.74 171.35L191.95 171.35L191.95 177.55ZM191.95 170.85L186.74 170.85L186.74 164.67L191.95 164.67L191.95 170.85ZM191.95 164.16L186.74 164.16L186.74 157.96L191.95 157.96L191.95 164.16ZM197.65 190.94L192.44 190.94L192.44 184.74L197.65 184.74L197.65 190.94ZM197.65 184.25L192.44 184.25L192.44 178.06L197.65 178.06L197.65 184.25ZM197.65 177.55L192.44 177.55L192.44 171.35L197.65 171.35L197.65 177.55ZM197.65 170.85L192.44 170.85L192.44 164.67L197.65 164.67L197.65 170.85ZM197.65 164.16L192.44 164.16L192.44 157.96L197.65 157.96L197.65 164.16Z" fill="#000000" fill-opacity="1.000000" fill-rule="nonzero"/>
			</g>
		</g>
		<path id="Vector" d="M173.1 223.3L194.75 223.3C195.05 219.79 196.91 198 197.87 190.19C198.92 181.65 205.78 168.94 205.78 164.39C205.78 159.85 207.18 160.57 200.91 157.26C194.64 153.95 180.81 146.81 178.89 145.93C176.98 145.06 174.89 142.96 174.89 142.96C174.89 142.96 175.58 147.31 175.38 159.15C175.18 170.99 172.6 186.19 172.6 198.89C172.6 210.13 172.99 220.93 173.1 223.3Z" stroke="#263238" stroke-opacity="1.000000" stroke-width="1.000000"/>
		<path id="Vector" d="M174.89 143C174.89 143 175.58 147.36 175.38 159.2C175.34 162.17 175.14 165.39 174.89 168.7C175.48 167.88 177.4 165.27 177.86 165.12C178.38 164.95 181.17 167.56 183.43 167.91C185.69 168.25 186.57 168.25 184.13 165.64C181.7 163.03 180.66 155.37 179.78 149.62C179.61 148.39 179.34 147.17 178.97 145.99L178.91 145.99C176.97 145.1 174.89 143 174.89 143Z" fill="#263238" fill-opacity="1.000000" fill-rule="nonzero"/>
		<path id="Vector" d="M175.38 159.2C175.34 162.17 175.14 165.39 174.89 168.7C175.48 167.88 177.4 165.27 177.86 165.12C178.38 164.95 181.17 167.56 183.43 167.91C185.69 168.25 186.57 168.25 184.13 165.64C181.7 163.03 180.66 155.37 179.78 149.62C179.61 148.39 179.34 147.17 178.97 145.99L178.91 145.99C176.97 145.1 174.89 143 174.89 143C174.89 143 175.58 147.36 175.38 159.2Z" stroke="#263238" stroke-opacity="1.000000" stroke-width="1.000000"/>
		<path id="Vector" d="M189.18 196.87C190.78 196.14 192.04 195.51 192.04 195.51L192.63 200.06C192.63 200.06 183.96 203.88 179.11 204.17C174.27 204.47 173.82 204.62 173.82 204.62L173.97 200.21" stroke="#263238" stroke-opacity="1.000000" stroke-width="1.000000"/>
		<path id="Vector" d="M184.84 198.65C185.72 198.35 186.77 197.93 187.78 197.49" stroke="#263238" stroke-opacity="1.000000" stroke-width="1.000000"/>
		<path id="Vector" d="M175.58 199.77C178.12 199.7 180.64 199.47 183.15 199.08" stroke="#263238" stroke-opacity="1.000000" stroke-width="1.000000"/>
		<path id="Vector" d="M192.63 200.06L192.92 200.06" stroke="#263238" stroke-opacity="1.000000" stroke-width="1.000000"/>
		<path id="Vector" d="M126.17 223.31L150.54 223.31C150.59 221.4 151.3 197.13 151.77 184.74C152.27 171.85 161.02 152.28 161.02 152.28C161.02 152.28 162.19 149.52 160.95 148.28C159.71 147.04 156.73 147.54 154.5 149.28C152.27 151.01 131.68 159.94 130.44 161.18C129.2 162.42 129.45 166.64 128.96 171.6C128.46 176.56 120.27 210.78 120.27 210.78C120.27 210.78 118.04 211.28 117.3 211.77C116.56 212.27 116.56 213.76 116.56 213.76C116.56 213.76 117.55 214 120.52 215.49C123.26 216.86 125.79 222.42 126.17 223.31Z" fill="#FFFFFF" fill-opacity="1.000000" fill-rule="nonzero"/>
		<g opacity="0.200000">
			<path id="Vector" d="M157.72 157.96L157.72 160.49C157.89 160.03 158.06 159.59 158.22 159.17L158.22 157.96L158.69 157.96L158.88 157.46L158.22 157.46L158.22 151.28L161.35 151.28C161.38 151.12 161.42 150.95 161.44 150.78L158.22 150.78L158.22 147.66C158.06 147.69 157.89 147.71 157.72 147.75L157.72 150.78L152.52 150.78L152.52 150.44L152.02 150.7L152.02 150.78L151.85 150.78L150.86 151.28L152.02 151.28L152.02 157.48L146.81 157.48L146.81 153.21L146.32 153.44L146.32 157.46L141.11 157.46L141.11 155.88L140.61 156.11L140.61 157.46L137.73 157.46L136.68 157.96L140.61 157.96L140.61 164.17L135.4 164.17L135.4 158.57L134.91 158.81L134.91 164.17L129.7 164.17L129.7 162.92C129.42 164.73 129.25 166.55 129.2 168.38L129.2 170.86L129.03 170.86L128.98 171.35L129.2 171.35L129.2 177.56L127.87 177.56L127.77 178.06L129.2 178.06L129.2 184.26L126.42 184.26C126.39 184.42 126.35 184.59 126.31 184.76L129.2 184.76L129.2 190.96L124.91 190.96C124.87 191.12 124.84 191.29 124.8 191.45L129.2 191.45L129.2 197.65L124 197.65L124 194.92L123.5 197.07L123.5 197.63L123.37 197.63L123.26 198.12L123.5 198.12L123.5 204.35L121.8 204.35L121.68 204.84L123.5 204.84L123.5 211.04L119.29 211.04C118.78 211.18 118.29 211.34 117.8 211.54L117.8 214.24C117.95 214.3 118.11 214.37 118.3 214.45L118.3 211.54L123.5 211.54L123.5 218.48C123.67 218.73 123.84 218.98 124 219.23L124 211.54L129.2 211.54L129.2 223.32L129.7 223.32L129.7 211.52L134.91 211.52L134.91 223.31L135.4 223.31L135.4 211.52L140.61 211.52L140.61 223.31L141.11 223.31L141.11 211.52L146.32 211.52L146.32 223.31L146.81 223.31L146.81 211.52L150.88 211.52L150.88 211.03L146.81 211.03L146.81 204.84L151.09 204.84L151.09 204.35L146.81 204.35L146.81 198.15L151.31 198.15L151.31 197.65L146.81 197.65L146.81 191.45L151.53 191.45C151.53 191.29 151.53 191.12 151.53 190.96L146.81 190.96L146.81 184.76L151.77 184.76C151.77 184.59 151.77 184.43 151.8 184.26L146.81 184.26L146.81 178.06L152.02 178.06L152.02 181.73C152.15 180.67 152.31 179.58 152.52 178.48L152.52 178.06L152.6 178.06C152.63 177.9 152.66 177.73 152.69 177.56L152.52 177.56L152.52 171.36L154.18 171.36C154.22 171.2 154.27 171.04 154.32 170.87L152.52 170.87L152.52 164.67L156.24 164.67C156.3 164.5 156.35 164.34 156.4 164.17L152.52 164.17L152.52 157.97L157.72 157.96ZM152.52 151.28L157.72 151.28L157.72 157.48L152.52 157.48L152.52 151.28ZM129.2 211.04L124 211.04L124 204.84L129.2 204.84L129.2 211.04ZM129.2 204.35L124 204.35L124 198.15L129.2 198.15L129.2 204.35ZM134.91 211.04L129.7 211.04L129.7 204.84L134.91 204.84L134.91 211.04ZM134.91 204.35L129.7 204.35L129.7 198.15L134.91 198.15L134.91 204.35ZM134.91 197.65L129.7 197.65L129.7 191.45L134.91 191.45L134.91 197.65ZM134.91 190.96L129.7 190.96L129.7 184.76L134.91 184.76L134.91 190.96ZM134.91 184.26L129.7 184.26L129.7 178.06L134.91 178.06L134.91 184.26ZM134.91 177.56L129.7 177.56L129.7 171.36L134.91 171.36L134.91 177.56ZM134.91 170.87L129.7 170.87L129.7 164.67L134.91 164.67L134.91 170.87ZM140.61 211.04L135.4 211.04L135.4 204.84L140.61 204.84L140.61 211.04ZM140.61 204.35L135.4 204.35L135.4 198.15L140.61 198.15L140.61 204.35ZM140.61 197.65L135.4 197.65L135.4 191.45L140.61 191.45L140.61 197.65ZM140.61 190.96L135.4 190.96L135.4 184.76L140.61 184.76L140.61 190.96ZM140.61 184.26L135.4 184.26L135.4 178.06L140.61 178.06L140.61 184.26ZM140.61 177.56L135.4 177.56L135.4 171.36L140.61 171.36L140.61 177.56ZM140.61 170.87L135.4 170.87L135.4 164.67L140.61 164.67L140.61 170.87ZM146.32 211.04L141.11 211.04L141.11 204.84L146.32 204.84L146.32 211.04ZM146.32 204.35L141.11 204.35L141.11 198.15L146.32 198.15L146.32 204.35ZM146.32 197.65L141.11 197.65L141.11 191.45L146.32 191.45L146.32 197.65ZM146.32 190.96L141.11 190.96L141.11 184.76L146.32 184.76L146.32 190.96ZM146.32 184.26L141.11 184.26L141.11 178.06L146.32 178.06L146.32 184.26ZM146.32 177.56L141.11 177.56L141.11 171.36L146.32 171.36L146.32 177.56ZM146.32 170.87L141.11 170.87L141.11 164.67L146.32 164.67L146.32 170.87ZM146.32 164.17L141.11 164.17L141.11 157.97L146.32 157.97L146.32 164.17ZM152.02 177.56L146.81 177.56L146.81 171.36L152.02 171.36L152.02 177.56ZM152.02 170.87L146.81 170.87L146.81 164.67L152.02 164.67L152.02 170.87ZM152.02 164.17L146.81 164.17L146.81 157.97L152.02 157.97L152.02 164.17Z" fill="#000000" fill-opacity="1.000000" fill-rule="nonzero"/>
		</g>
		<path id="Vector" d="M150.54 223.31C150.59 221.4 151.3 197.13 151.77 184.74C152.27 171.85 161.02 152.28 161.02 152.28C161.02 152.28 162.19 149.52 160.95 148.28C159.71 147.04 156.73 147.54 154.5 149.28C152.27 151.01 131.68 159.94 130.44 161.18C129.2 162.42 129.45 166.64 128.96 171.6C128.46 176.56 120.27 210.78 120.27 210.78C120.27 210.78 118.04 211.28 117.3 211.77C116.56 212.27 116.56 213.76 116.56 213.76C116.56 213.76 117.55 214 120.52 215.49C123.26 216.86 125.79 222.42 126.17 223.31L150.54 223.31Z" stroke="#263238" stroke-opacity="1.000000" stroke-width="1.000000"/>
		<path id="Vector" d="M116.56 213.77C116.56 213.77 117.55 214.02 120.52 215.51C123.5 217 126.23 223.44 126.23 223.44L131.03 223.44C131.34 222.54 132.07 219.26 128.71 215.26C124.74 210.55 120.27 210.8 120.27 210.8C120.27 210.8 118.04 211.29 117.3 211.79C116.56 212.28 116.56 213.77 116.56 213.77Z" fill="#263238" fill-opacity="1.000000" fill-rule="nonzero"/>
		<path id="Vector" d="M120.52 215.51C123.5 217 126.23 223.44 126.23 223.44L131.03 223.44C131.34 222.54 132.07 219.26 128.71 215.26C124.74 210.55 120.27 210.8 120.27 210.8C120.27 210.8 118.04 211.29 117.3 211.79C116.56 212.28 116.56 213.77 116.56 213.77C116.56 213.77 117.55 214.02 120.52 215.51Z" stroke="#263238" stroke-opacity="1.000000" stroke-width="1.000000"/>
		<path id="Vector" d="M157.95 147.69C156.89 150.52 154.36 156.9 152.27 159.94C149.54 163.91 144.58 167.13 146.32 168.62C148.05 170.11 153.01 165.4 153.01 165.4C153.01 165.4 154.25 168.87 154.5 169.86C154.51 169.91 154.53 169.95 154.56 169.98C156.36 163.96 158.51 158.05 161.01 152.28C161.01 152.28 162.18 149.52 160.94 148.28C160.3 147.64 159.21 147.47 157.95 147.69Z" fill="#263238" fill-opacity="1.000000" fill-rule="nonzero"/>
		<path id="Vector" d="M152.27 159.94C149.54 163.91 144.58 167.13 146.32 168.62C148.05 170.11 153.01 165.4 153.01 165.4C153.01 165.4 154.25 168.87 154.5 169.86C154.51 169.91 154.53 169.95 154.56 169.98C156.36 163.96 158.51 158.05 161.01 152.28C161.01 152.28 162.18 149.52 160.94 148.28C160.3 147.64 159.21 147.47 157.95 147.69C156.89 150.52 154.36 156.9 152.27 159.94Z" stroke="#263238" stroke-opacity="1.000000" stroke-width="1.000000"/>
		<path id="Vector" d="M139.84 171.64C139.98 170.72 140.07 169.8 140.12 168.87" stroke="#263238" stroke-opacity="1.000000" stroke-width="1.000000"/>
		<path id="Vector" d="M135.9 223.92C135.9 223.92 136.64 208.05 136.64 198.88C136.64 192.26 138.44 181.14 139.46 174.33" stroke="#263238" stroke-opacity="1.000000" stroke-width="1.000000"/>
		<path id="Vector" d="M137.14 195.42C137.14 195.42 141.11 196.66 143.09 196.91L149.04 197.65L148.59 203.27C148.59 203.27 148.3 203.11 143.84 201.62C139.37 200.13 136.64 198.89 136.64 198.89" stroke="#263238" stroke-opacity="1.000000" stroke-width="1.000000"/>
		<path id="Vector" d="M148.59 203.26C148.59 203.26 148.3 214.27 148.3 215.76C148.3 217.24 143.84 216.25 143.84 216.25" stroke="#263238" stroke-opacity="1.000000" stroke-width="1.000000"/>
		<path id="Vector" d="M152.15 142.46C152.15 142.46 156.83 149.18 161.02 152.28C165.2 155.38 168.78 151.04 171.57 146.39C174.36 141.74 176.22 138.33 177.61 134.29C179.01 130.26 177.61 123.59 172.03 118.32C166.45 113.05 153.42 105.29 150.17 109.32C146.91 113.36 143.81 122.22 145.97 129.79C147.27 134.35 149.36 138.63 152.15 142.46Z" fill="#9E9E9E" fill-opacity="1.000000" fill-rule="nonzero"/>
		<path id="Vector" d="M161.02 152.28C165.2 155.38 168.78 151.04 171.57 146.39C174.36 141.74 176.22 138.33 177.61 134.29C179.01 130.26 177.61 123.59 172.03 118.32C166.45 113.05 153.42 105.29 150.17 109.32C146.91 113.36 143.81 122.22 145.97 129.79C147.27 134.35 149.36 138.63 152.15 142.46C152.15 142.46 156.83 149.18 161.02 152.28Z" stroke="#263238" stroke-opacity="1.000000" stroke-width="1.000000"/>
		<path id="Vector" d="M150.18 127.99C151.95 127.46 153.83 127.46 155.6 127.99" stroke="#263238" stroke-opacity="1.000000" stroke-width="2.000000" stroke-linecap="round"/>
		<path id="Vector" d="M154.19 132.14C154.34 132.94 154.15 133.65 153.77 133.72C153.38 133.79 152.96 133.2 152.81 132.39C152.66 131.58 152.85 130.87 153.23 130.81C153.62 130.74 154.04 131.33 154.19 132.14Z" fill="#263238" fill-opacity="1.000000" fill-rule="nonzero"/>
		<path id="Vector" d="M167.99 132.35C168.13 133.16 167.94 133.84 167.56 133.94C167.19 134.03 166.76 133.41 166.61 132.6C166.46 131.79 166.65 131.09 167.03 131.02C167.42 130.95 167.84 131.54 167.99 132.35Z" fill="#263238" fill-opacity="1.000000" fill-rule="nonzero"/>
		<path id="Vector" d="M157.76 143.29C159.56 143.91 161.45 144.17 163.34 144.06C166.6 143.91 169.39 141.58 169.39 141.58" stroke="#263238" stroke-opacity="1.000000" stroke-width="1.000000"/>
		<path id="Vector" d="M150.64 112.75C150.64 112.75 157.53 128.46 158.4 128.9C159.26 129.33 160.98 124.16 160.98 124.16C160.98 124.16 163.35 128.46 166.15 129.75C168.96 131.05 169.82 128.9 169.82 128.9C171.22 129.69 172.59 130.55 173.91 131.48L174.98 132.34L176.06 136.21C176.06 136.21 172.83 146.76 173.91 148.06C174.98 149.35 181.01 147.62 181.01 147.62C181.01 147.62 179.52 149.78 181.44 149.78C183.36 149.78 186.82 150.21 191.77 143.53C196.72 136.86 197.15 126.1 197.15 126.1C197.15 126.1 199.52 128.68 199.74 125.45C199.96 122.22 196.94 116.84 196.94 116.84C196.94 116.84 201.67 121.58 201.25 116.62C200.82 111.68 198.02 106.08 196.94 104.79C195.87 103.5 189.4 99.83 189.4 99.83C189.4 99.83 191.99 99.39 190.05 96.38C188.12 93.36 181.01 92.5 178.43 92.5C175.84 92.5 170.46 93.37 170.46 93.37C170.46 93.37 173.91 86.69 170.25 86.26C166.59 85.83 160.13 92.94 160.13 92.94C160.13 92.94 153.68 87.77 151.73 88.84C149.78 89.92 151.09 91.43 151.09 91.43C151.09 91.43 142.69 92.07 140.32 95.73C137.95 99.39 140.75 101.55 140.75 101.55C140.75 101.55 125.69 111.88 128.05 115.75C130.42 119.63 134.73 115.97 134.73 115.97C134.73 115.97 128.7 131.47 129.56 132.55C130.42 133.62 134.52 132.12 134.52 132.12C134.52 132.12 134.31 144.6 137.53 145.89C140.77 147.19 141.41 144.82 141.41 144.82C141.41 144.82 143.13 146.54 147.01 146.75C150.89 146.97 152.17 142.45 152.17 142.45C152.17 142.45 147.87 132.33 148.09 123.94C148.3 115.54 150.64 112.75 150.64 112.75Z" fill="#263238" fill-opacity="1.000000" fill-rule="nonzero"/>
		<path id="Vector" d="M158.4 128.9C159.26 129.33 160.98 124.16 160.98 124.16C160.98 124.16 163.35 128.46 166.15 129.75C168.96 131.05 169.82 128.9 169.82 128.9C171.22 129.69 172.59 130.55 173.91 131.48L174.98 132.34L176.06 136.21C176.06 136.21 172.83 146.76 173.91 148.06C174.98 149.35 181.01 147.62 181.01 147.62C181.01 147.62 179.52 149.78 181.44 149.78C183.36 149.78 186.82 150.21 191.77 143.53C196.72 136.86 197.15 126.1 197.15 126.1C197.15 126.1 199.52 128.68 199.74 125.45C199.96 122.22 196.94 116.84 196.94 116.84C196.94 116.84 201.67 121.58 201.25 116.62C200.82 111.68 198.02 106.08 196.94 104.79C195.87 103.5 189.4 99.83 189.4 99.83C189.4 99.83 191.99 99.39 190.05 96.38C188.12 93.36 181.01 92.5 178.43 92.5C175.84 92.5 170.46 93.37 170.46 93.37C170.46 93.37 173.91 86.69 170.25 86.26C166.59 85.83 160.13 92.94 160.13 92.94C160.13 92.94 153.68 87.77 151.73 88.84C149.78 89.92 151.09 91.43 151.09 91.43C151.09 91.43 142.69 92.07 140.32 95.73C137.95 99.39 140.75 101.55 140.75 101.55C140.75 101.55 125.69 111.88 128.05 115.75C130.42 119.63 134.73 115.97 134.73 115.97C134.73 115.97 128.7 131.47 129.56 132.55C130.42 133.62 134.52 132.12 134.52 132.12C134.52 132.12 134.31 144.6 137.53 145.89C140.77 147.19 141.41 144.82 141.41 144.82C141.41 144.82 143.13 146.54 147.01 146.75C150.89 146.97 152.17 142.45 152.17 142.45C152.17 142.45 147.87 132.33 148.09 123.94C148.3 115.54 150.64 112.75 150.64 112.75C150.64 112.75 157.53 128.46 158.4 128.9Z" stroke="#263238" stroke-opacity="1.000000" stroke-width="1.000000"/>
		<path id="Vector" d="M159.32 130.88C159.32 130.88 157.76 138.95 159 140.65C160.24 142.36 164.59 140.65 164.9 139.72" fill="#9E9E9E" fill-opacity="1.000000" fill-rule="nonzero"/>
		<path id="Vector" d="M159.32 130.88C159.32 130.88 157.76 138.95 159 140.65C160.24 142.36 164.59 140.65 164.9 139.72" stroke="#263238" stroke-opacity="1.000000" stroke-width="1.000000"/>
		<path id="Vector" d="M152.88 135.85C149.49 135.85 146.75 133.83 146.75 131.35C146.75 128.86 149.49 126.85 152.88 126.85C156.26 126.85 159 128.86 159 131.35C159 133.83 156.26 135.85 152.88 135.85Z" stroke="#263238" stroke-opacity="1.000000" stroke-width="1.000000"/>
		<path id="Vector" d="M167.61 135.54C164.22 135.54 161.48 133.52 161.48 131.04C161.48 128.55 164.22 126.54 167.61 126.54C170.99 126.54 173.73 128.55 173.73 131.04C173.73 133.52 170.99 135.54 167.61 135.54Z" stroke="#263238" stroke-opacity="1.000000" stroke-width="1.000000"/>
		<path id="Vector" d="M159.32 130.88C159.32 130.88 160.56 129.95 161.48 131.04" stroke="#263238" stroke-opacity="1.000000" stroke-width="1.000000"/>
		<path id="Vector" d="M108.28 216.7C108.28 216.7 116.06 214.51 118.46 214.11C120.85 213.71 125.65 218.1 126.45 220.5C127.25 222.89 126.23 223.43 126.23 223.43L110.27 222.9L108.28 216.7Z" fill="#9E9E9E" fill-opacity="1.000000" fill-rule="nonzero"/>
		<path id="Vector" d="M118.46 214.11C120.85 213.71 125.65 218.1 126.45 220.5C127.25 222.89 126.23 223.43 126.23 223.43L110.27 222.9L108.28 216.7C108.28 216.7 116.06 214.51 118.46 214.11Z" stroke="#263238" stroke-opacity="1.000000" stroke-width="1.000000"/>
		<path id="Vector" d="M111.1 215.93C111.1 215.93 116.98 218.13 118.44 219.01C119.91 219.9 119.47 221.66 118.59 222.54C117.53 223.42 116.27 224.03 114.92 224.3C113.55 224.38 112.18 224.38 110.81 224.3C109.05 224.15 107.43 224.45 105.96 224.45C104.49 224.45 100.08 224.01 100.08 224.01L98.76 223.13C98.76 223.13 96.28 223.86 94.35 224.61C92.43 225.37 93.03 223.73 94.5 222.56C95.97 221.38 99.64 218.44 100.23 218.15C100.82 217.86 108.31 215.67 108.31 215.67L111.1 215.93Z" fill="#9E9E9E" fill-opacity="1.000000" fill-rule="nonzero"/>
		<path id="Vector" d="M118.44 219.01C119.91 219.9 119.47 221.66 118.59 222.54C117.53 223.42 116.27 224.03 114.92 224.3C113.55 224.38 112.18 224.38 110.81 224.3C109.05 224.15 107.43 224.45 105.96 224.45C104.49 224.45 100.08 224.01 100.08 224.01L98.76 223.13C98.76 223.13 96.28 223.86 94.35 224.61C92.43 225.37 93.03 223.73 94.5 222.56C95.97 221.38 99.64 218.44 100.23 218.15C100.82 217.86 108.31 215.67 108.31 215.67L111.1 215.93C111.1 215.93 116.98 218.13 118.44 219.01Z" stroke="#263238" stroke-opacity="1.000000" stroke-width="1.000000"/>
		<path id="Vector" d="M113.3 216.51C113.3 216.51 109.48 214.75 108.45 214.75C107.42 214.75 100.08 217.23 99.05 217.98C98.02 218.73 96.99 225.77 97.73 226.21C98.46 226.65 99.05 225.33 99.21 224.45C99.38 223.57 101.42 218.87 101.42 218.87L99.93 226.36C99.93 226.36 100.52 227.53 101.11 226.5C101.69 225.48 105.37 218.42 105.66 217.98C106.05 217.57 106.49 217.23 106.99 216.96C106.99 216.96 106.25 220.19 105.66 223.28C105.07 226.36 105.52 227.24 106.4 227.39C107.28 227.53 107.72 225.48 108.16 224.45C108.6 223.42 110.51 217.54 110.51 217.54" fill="#9E9E9E" fill-opacity="1.000000" fill-rule="nonzero"/>
		<path id="Vector" d="M113.3 216.51C113.3 216.51 109.48 214.75 108.45 214.75C107.42 214.75 100.08 217.23 99.05 217.98C98.02 218.73 96.99 225.77 97.73 226.21C98.46 226.65 99.05 225.33 99.21 224.45C99.38 223.57 101.42 218.87 101.42 218.87L99.93 226.36C99.93 226.36 100.52 227.53 101.11 226.5C101.69 225.48 105.37 218.42 105.66 217.98C106.05 217.57 106.49 217.23 106.99 216.96C106.99 216.96 106.25 220.19 105.66 223.28C105.07 226.36 105.52 227.24 106.4 227.39C107.28 227.53 107.72 225.48 108.16 224.45C108.6 223.42 110.51 217.54 110.51 217.54" stroke="#263238" stroke-opacity="1.000000" stroke-width="1.000000"/>
		<path id="Vector" d="M117.55 219.46C117.55 219.46 113.14 224.01 112.55 225.04C111.96 226.06 111.97 226.21 113.58 226.21C115.2 226.21 120.2 222.98 120.63 222.54C121.07 222.09 120.93 220.77 119.9 219.89C119.57 219.64 119.18 219.46 118.78 219.39C118.37 219.31 117.95 219.34 117.55 219.46Z" fill="#9E9E9E" fill-opacity="1.000000" fill-rule="nonzero"/>
		<path id="Vector" d="M112.55 225.04C111.96 226.06 111.97 226.21 113.58 226.21C115.2 226.21 120.2 222.98 120.63 222.54C121.07 222.09 120.93 220.77 119.9 219.89C119.57 219.64 119.18 219.46 118.78 219.39C118.37 219.31 117.95 219.34 117.55 219.46C117.55 219.46 113.14 224.01 112.55 225.04Z" stroke="#263238" stroke-opacity="1.000000" stroke-width="1.000000"/>
		<path id="Vector" d="M145.06 218.95C145.06 218.95 139.18 220.85 137.73 221.93C136.29 223 134.21 224.19 134.66 224.55C135.11 224.91 136.56 224.55 137.01 224.19C137.46 223.83 139.54 223.46 139.54 223.46C139.54 223.46 141.98 222.02 143.88 220.84C145.78 219.67 147.22 218.4 145.06 218.95Z" fill="#9E9E9E" fill-opacity="1.000000" fill-rule="nonzero"/>
		<path id="Vector" d="M137.73 221.93C136.29 223 134.21 224.19 134.66 224.55C135.11 224.91 136.56 224.55 137.01 224.19C137.46 223.83 139.54 223.46 139.54 223.46C139.54 223.46 141.98 222.02 143.88 220.84C145.78 219.67 147.22 218.4 145.06 218.95C145.06 218.95 139.18 220.85 137.73 221.93Z" stroke="#263238" stroke-opacity="1.000000" stroke-width="1.000000"/>
		<path id="Vector" d="M177.5 209C177.5 209 161.13 211.98 155.21 214.05C149.29 216.13 146.93 217.58 143.97 219.67C141.01 221.77 135.01 225.72 135.9 226.41C136.79 227.11 139.9 224.67 140.43 224.15C140.95 223.63 144.78 222.06 144.78 222.06L147.34 220.76C147.34 220.76 143.48 225.5 142.09 226.71C140.71 227.91 141.64 228.67 142.69 228.32C143.74 227.97 145.71 225.89 145.71 225.89L152.07 221.71C152.07 221.71 149.46 225.37 148.24 226.41C147.02 227.45 149.63 228.33 150.16 227.46C150.68 226.58 153.29 224.32 153.29 224.32C153.29 224.32 157.64 222.06 158.69 221.19C159.74 220.31 162.35 217.88 162.35 217.88L181.85 219.45C181.85 219.45 183.07 218.75 182.37 214.74C181.68 210.74 177.5 209 177.5 209Z" fill="#9E9E9E" fill-opacity="1.000000" fill-rule="nonzero"/>
		<path id="Vector" d="M155.21 214.05C149.29 216.13 146.93 217.58 143.97 219.67C141.01 221.77 135.01 225.72 135.9 226.41C136.79 227.11 139.9 224.67 140.43 224.15C140.95 223.63 144.78 222.06 144.78 222.06L147.34 220.76C147.34 220.76 143.48 225.5 142.09 226.71C140.71 227.91 141.64 228.67 142.69 228.32C143.74 227.97 145.71 225.89 145.71 225.89L152.07 221.71C152.07 221.71 149.46 225.37 148.24 226.41C147.02 227.45 149.63 228.33 150.16 227.46C150.68 226.58 153.29 224.32 153.29 224.32C153.29 224.32 157.64 222.06 158.69 221.19C159.74 220.31 162.35 217.88 162.35 217.88L181.85 219.45C181.85 219.45 183.07 218.75 182.37 214.74C181.68 210.74 177.5 209 177.5 209C177.5 209 161.13 211.98 155.21 214.05Z" stroke="#263238" stroke-opacity="1.000000" stroke-width="1.000000"/>
		<path id="Vector" d="M190.73 178.18L200.31 201.87L184.81 207.26L189.16 219.98C189.16 219.98 200.3 220.01 209.01 219.48C217.71 218.95 223.83 213.7 222.43 207.44C221.04 201.17 215.81 192.11 211.63 181.31C207.45 170.52 208.75 164.08 206.83 160.77C204.92 157.46 199.52 156.59 199.52 156.59L196.54 156.09L190.73 178.18Z" fill="#FFFFFF" fill-opacity="1.000000" fill-rule="nonzero"/>
		<g opacity="0.200000">
			<path id="Vector" d="M220.96 214.02L220.96 211.54L222.26 211.54C222.31 211.38 222.36 211.22 222.4 211.05L220.96 211.05L220.96 204.84L221.71 204.84C221.65 204.68 221.59 204.52 221.54 204.35L220.96 204.35L220.96 202.83C220.81 202.42 220.64 202 220.47 201.58L220.47 204.35L215.26 204.35L215.26 198.15L219 198.15C218.93 197.98 218.86 197.82 218.78 197.65L215.26 197.65L215.26 191.45L215.95 191.45C215.88 191.29 215.8 191.12 215.73 190.96L215.26 190.96L215.26 189.92C215.1 189.55 214.93 189.18 214.76 188.81L214.76 190.96L209.56 190.96L209.56 184.76L213.03 184.76C212.96 184.59 212.89 184.43 212.82 184.26L209.56 184.26L209.56 178.06L210.48 178.06C210.43 177.9 210.38 177.73 210.33 177.56L209.56 177.56L209.56 174.74C209.37 173.95 209.2 173.2 209.06 172.48L209.06 177.56L203.85 177.56L203.85 171.36L208.85 171.36L208.76 170.87L203.85 170.87L203.85 164.67L207.92 164.67L207.85 164.17L203.85 164.17L203.85 158.09C203.42 157.86 202.97 157.65 202.51 157.46L198.15 157.46L198.15 156.35L197.65 156.26L197.65 157.46L196.19 157.46L196.06 157.96L197.65 157.96L197.65 164.17L194.43 164.17L194.3 164.67L197.66 164.67L197.66 170.87L192.66 170.87L192.53 171.36L197.65 171.36L197.65 177.56L192.44 177.56L192.44 171.68L191.95 173.56L191.95 177.53L190.9 177.53L190.77 178.03L191.95 178.03L191.95 181.16L192.44 182.39L192.44 178.06L197.65 178.06L197.65 184.26L193.19 184.26L193.39 184.76L197.65 184.76L197.65 190.96L195.92 190.96L196.12 191.45L197.68 191.45L197.68 195.31L198.17 196.53L198.17 191.45L203.36 191.45L203.36 197.65L198.6 197.65L198.8 198.15L203.36 198.15L203.36 204.35L198.15 204.35L198.15 202.63L197.65 202.81L197.65 204.35L193.22 204.35L191.79 204.84L191.95 204.84L191.95 211.04L186.74 211.04L186.74 206.58L186.24 206.75L186.24 211.02L186.1 211.02L186.74 212.88L186.74 211.52L191.95 211.52L191.95 219.95L192.44 219.95L192.44 211.52L197.65 211.52L197.65 219.88L198.15 219.88L198.15 211.52L203.36 211.52L203.36 219.72L203.85 219.72L203.85 211.52L209.06 211.52L209.06 219.46L209.56 219.42L209.56 211.52L214.76 211.52L214.76 218.33L215.26 218.14L215.26 211.52L220.47 211.52L220.47 214.64C220.64 214.44 220.81 214.23 220.96 214.02ZM197.65 211.05L192.44 211.05L192.44 204.84L197.65 204.84L197.65 211.05ZM203.36 211.05L198.15 211.05L198.15 204.84L203.36 204.84L203.36 211.05ZM203.36 190.96L198.15 190.96L198.15 184.76L203.36 184.76L203.36 190.96ZM203.36 184.27L198.15 184.27L198.15 178.06L203.36 178.06L203.36 184.27ZM203.36 177.57L198.15 177.57L198.15 171.37L203.36 171.37L203.36 177.57ZM203.36 170.87L198.15 170.87L198.15 164.67L203.36 164.67L203.36 170.87ZM203.36 164.18L198.15 164.18L198.15 157.98L203.36 157.98L203.36 164.18ZM209.06 211.05L203.85 211.05L203.85 204.84L209.06 204.84L209.06 211.05ZM209.06 204.35L203.85 204.35L203.85 198.15L209.06 198.15L209.06 204.35ZM209.06 197.66L203.85 197.66L203.85 191.45L209.06 191.45L209.06 197.66ZM209.06 190.96L203.85 190.96L203.85 184.76L209.06 184.76L209.06 190.96ZM209.06 184.27L203.85 184.27L203.85 178.06L209.06 178.06L209.06 184.27ZM214.76 211.05L209.56 211.05L209.56 204.84L214.76 204.84L214.76 211.05ZM214.76 204.35L209.56 204.35L209.56 198.15L214.76 198.15L214.76 204.35ZM214.76 197.66L209.56 197.66L209.56 191.45L214.76 191.45L214.76 197.66ZM215.26 211.05L215.26 204.84L220.47 204.84L220.47 211.04L215.26 211.05Z" fill="#263238" fill-opacity="1.000000" fill-rule="nonzero"/>
		</g>
		<path id="Vector" d="M190.73 178.18L200.31 201.87L184.81 207.26L189.16 219.98C189.16 219.98 200.3 220.01 209.01 219.48C217.71 218.95 223.83 213.7 222.43 207.44C221.04 201.17 215.81 192.11 211.63 181.31C207.45 170.52 208.75 164.08 206.83 160.77C204.92 157.46 199.52 156.59 199.52 156.59L196.54 156.09" stroke="#263238" stroke-opacity="1.000000" stroke-width="1.000000"/>
		<path id="Vector" d="M209.64 199.46C206.47 200.04 203.36 200.85 200.31 201.86C200.31 201.86 206.93 197.51 210.58 197.16" stroke="#263238" stroke-opacity="1.000000" stroke-width="1.000000"/>
		<path id="Vector" d="M214.07 199.25C213.38 199.15 212.69 199.13 212 199.18" stroke="#263238" stroke-opacity="1.000000" stroke-width="1.000000"/>
		<path id="Vector" d="M189.34 205.34C189.34 205.34 192.86 208.71 193.9 211.32C194.94 213.93 194.56 221.01 193.87 221.71C193.17 222.4 180.21 222.32 178.08 219.65C177.52 218.96 181.33 217.36 179.41 213.52C177.5 209.69 176.63 209.35 176.63 209.35C176.63 209.35 175.06 208.47 178.02 206.56C180.98 204.64 187.77 203.26 189.34 205.34Z" fill="#263238" fill-opacity="1.000000" fill-rule="nonzero"/>
		<path id="Vector" d="M193.9 211.32C194.94 213.93 194.56 221.01 193.87 221.71C193.17 222.4 180.21 222.32 178.08 219.65C177.52 218.96 181.33 217.36 179.41 213.52C177.5 209.69 176.63 209.35 176.63 209.35C176.63 209.35 175.06 208.47 178.02 206.56C180.98 204.64 187.77 203.26 189.34 205.34C189.34 205.34 192.86 208.71 193.9 211.32Z" stroke="#263238" stroke-opacity="1.000000" stroke-width="1.000000"/>
		<path id="Vector" d="M220.21 232.19L207.36 232.19L205.75 206.78L221.82 206.78L220.21 232.19Z" fill="#263238" fill-opacity="1.000000" fill-rule="nonzero"/>
		<path id="Vector" d="M207.36 232.19L205.75 206.78L221.82 206.78L220.21 232.19L207.36 232.19Z" stroke="#263238" stroke-opacity="1.000000" stroke-width="1.000000" stroke-linejoin="round"/>
		<path id="Vector" d="M222.54 206.82L205.04 206.82L205.04 210.52L222.54 210.52L222.54 206.82Z" fill="#FFFFFF" fill-opacity="1.000000" fill-rule="nonzero"/>
		<path id="Vector" d="M222.54 206.82L222.54 210.52L205.04 210.52L205.04 206.82L222.54 206.82Z" stroke="#263238" stroke-opacity="1.000000" stroke-width="1.000000" stroke-linejoin="round"/>
		<path id="Vector" d="M222.54 206.96L205.04 206.96L206.79 204.76L220.78 204.76L222.54 206.96Z" fill="#FFFFFF" fill-opacity="1.000000" fill-rule="nonzero"/>
		<path id="Vector" d="M205.04 206.96L206.79 204.76L220.78 204.76L222.54 206.96L205.04 206.96Z" stroke="#263238" stroke-opacity="1.000000" stroke-width="1.000000" stroke-linejoin="round"/>
		<path id="Vector" d="M220.68 224.74L221.32 214.61L206.25 214.61L206.89 224.74L220.68 224.74Z" fill="#FFFFFF" fill-opacity="1.000000" fill-rule="nonzero"/>
		<path id="Vector" d="M221.32 214.61L206.25 214.61L206.89 224.74L220.68 224.74L221.32 214.61Z" stroke="#263238" stroke-opacity="1.000000" stroke-width="1.000000" stroke-linejoin="round"/>
		<path id="Vector" d="M146.13 233.88L161.97 229.7L161.97 231.84L146.13 236.28L146.13 233.88Z" fill="#263238" fill-opacity="1.000000" fill-rule="nonzero"/>
		<path id="Vector" d="M161.97 229.7L161.97 231.84L146.13 236.28L146.13 233.88L161.97 229.7Z" stroke="#263238" stroke-opacity="1.000000" stroke-width="1.000000" stroke-linejoin="round"/>
		<path id="Vector" d="M161.97 229.7L79.14 229.7L63.13 233.88L146.13 233.88L161.97 229.7Z" fill="#FFFFFF" fill-opacity="1.000000" fill-rule="nonzero"/>
		<path id="Vector" d="M79.14 229.7L63.13 233.88L146.13 233.88L161.97 229.7L79.14 229.7Z" stroke="#263238" stroke-opacity="1.000000" stroke-width="1.000000" stroke-linejoin="round"/>
		<path id="Vector" d="M146.13 186.02L63.13 186.02L63.13 236.28L146.13 236.28L146.13 186.02Z" fill="#FFFFFF" fill-opacity="1.000000" fill-rule="nonzero"/>
		<path id="Vector" d="M146.13 186.02L146.13 236.28L63.13 236.28L63.13 186.02L146.13 186.02Z" stroke="#263238" stroke-opacity="1.000000" stroke-width="1.000000" stroke-linejoin="round"/>
		<path id="Vector" d="M146.13 193.29C128.07 194.15 117.32 210.79 101.34 221.94C86.78 232.11 68.8 233.84 63.15 234.12L63.15 236.28L146.13 236.28L146.13 193.29Z" fill="#263238" fill-opacity="1.000000" fill-rule="nonzero"/>
		<path id="Vector" d="M101.34 221.94C86.78 232.11 68.8 233.84 63.15 234.12L63.15 236.28L146.13 236.28L146.13 193.29C128.07 194.15 117.32 210.79 101.34 221.94Z" stroke="#263238" stroke-opacity="1.000000" stroke-width="1.000000" stroke-linejoin="round"/>
		<path id="Vector" d="M146.13 233.88L63.13 233.88L63.13 236.28L146.13 236.28L146.13 233.88Z" fill="#FFFFFF" fill-opacity="1.000000" fill-rule="nonzero"/>
		<path id="Vector" d="M146.13 233.88L146.13 236.28L63.13 236.28L63.13 233.88L146.13 233.88Z" stroke="#263238" stroke-opacity="1.000000" stroke-width="1.000000"/>
		<path id="Vector" d="M38.56 217.3C38.56 217.3 31.65 206.24 37.2 200.02C42.75 193.79 51.71 196.79 53.56 202.55C55.41 208.32 51.49 218 51.49 218L38.56 217.3Z" fill="#FFFFFF" fill-opacity="1.000000" fill-rule="nonzero"/>
		<path id="Vector" d="M37.2 200.02C42.75 193.79 51.71 196.79 53.56 202.55C55.41 208.32 51.49 218 51.49 218L38.56 217.3C38.56 217.3 31.65 206.24 37.2 200.02Z" stroke="#263238" stroke-opacity="1.000000" stroke-width="1.000000" stroke-linejoin="round"/>
		<path id="Vector" d="M38.79 204.63C37.64 204.63 33.26 203.01 31.87 200.94C30.49 198.87 30.25 194.25 34.18 194.25C38.11 194.25 39.48 201.17 39.48 201.17L39.71 203.7M38.77 204.15L38.79 204.13C39.07 204.13 39.29 204.35 39.29 204.63C39.29 204.91 39.07 205.13 38.79 205.13L38.77 205.11L38.77 204.15ZM40.19 203.64L40.21 203.66C40.23 203.94 40.03 204.18 39.75 204.2C39.48 204.23 39.24 204.03 39.21 203.75L39.23 203.73L40.19 203.64Z" fill="#FFFFFF" fill-opacity="1.000000" fill-rule="nonzero"/>
		<path id="Vector" d="M38.79 204.63C37.64 204.63 33.26 203.01 31.87 200.94C30.49 198.87 30.25 194.25 34.18 194.25C38.11 194.25 39.48 201.17 39.48 201.17L39.71 203.7" stroke="#263238" stroke-opacity="1.000000" stroke-width="1.000000" stroke-linejoin="round" stroke-linecap="round"/>
		<path id="Vector" d="M42.33 200.32C41.3 199.82 38.1 196.41 37.79 193.94C37.48 191.46 39.33 187.24 42.84 188.98C46.35 190.72 44.5 197.53 44.5 197.53L43.57 199.9M42.52 199.88L42.55 199.87C42.8 199.99 42.91 200.28 42.79 200.54C42.66 200.79 42.37 200.89 42.12 200.77L42.11 200.74L42.52 199.88ZM44.02 200.06L44.04 200.09C43.93 200.35 43.65 200.47 43.39 200.37C43.13 200.27 43 199.98 43.1 199.72L43.13 199.71L44.02 200.06Z" fill="#FFFFFF" fill-opacity="1.000000" fill-rule="nonzero"/>
		<path id="Vector" d="M42.33 200.32C41.3 199.82 38.1 196.41 37.79 193.94C37.48 191.46 39.33 187.24 42.84 188.98C46.35 190.72 44.5 197.53 44.5 197.53L43.57 199.9" stroke="#263238" stroke-opacity="1.000000" stroke-width="1.000000" stroke-linejoin="round" stroke-linecap="round"/>
		<path id="Vector" d="M46.52 201.48C45.94 200.49 45.17 195.88 46.28 193.65C47.39 191.42 51.28 188.93 53.23 192.33C55.17 195.73 49.86 200.36 49.86 200.36L47.77 201.82M46.92 201.22L46.95 201.23C47.09 201.47 47.01 201.77 46.77 201.91C46.53 202.05 46.23 201.97 46.09 201.73L46.09 201.7L46.92 201.22ZM48.06 202.2L48.06 202.23C47.83 202.39 47.52 202.34 47.36 202.11C47.2 201.88 47.25 201.57 47.48 201.41L47.51 201.42L48.06 202.2Z" fill="#FFFFFF" fill-opacity="1.000000" fill-rule="nonzero"/>
		<path id="Vector" d="M46.52 201.48C45.94 200.49 45.17 195.88 46.28 193.65C47.39 191.42 51.28 188.93 53.23 192.33C55.17 195.73 49.86 200.36 49.86 200.36L47.77 201.82" stroke="#263238" stroke-opacity="1.000000" stroke-width="1.000000" stroke-linejoin="round" stroke-linecap="round"/>
		<path id="Vector" d="M47.89 209.74C47.71 208.6 48.57 204.02 50.37 202.3C52.18 200.59 56.7 199.6 57.35 203.46C58 207.33 51.4 209.84 51.4 209.84L48.91 210.49M48.36 209.65L48.39 209.66C48.43 209.94 48.25 210.19 47.97 210.24C47.7 210.28 47.45 210.1 47.4 209.83L47.42 209.8L48.36 209.65ZM49.06 210.95L49.04 210.97C48.77 211.04 48.5 210.89 48.43 210.61C48.36 210.34 48.52 210.07 48.79 210L48.81 210.02L49.06 210.95Z" fill="#FFFFFF" fill-opacity="1.000000" fill-rule="nonzero"/>
		<path id="Vector" d="M47.89 209.74C47.71 208.6 48.57 204.02 50.37 202.3C52.18 200.59 56.7 199.6 57.35 203.46C58 207.33 51.4 209.84 51.4 209.84L48.91 210.49" stroke="#263238" stroke-opacity="1.000000" stroke-width="1.000000" stroke-linejoin="round" stroke-linecap="round"/>
		<path id="Vector" d="M32.38 198.16L33.16 198.16" stroke="#FFFFFF" stroke-opacity="1.000000" stroke-width="1.000000" stroke-linejoin="round" stroke-linecap="round"/>
		<path id="Vector" d="M34.61 201.16L35.83 201.16" stroke="#FFFFFF" stroke-opacity="1.000000" stroke-width="1.000000" stroke-linejoin="round" stroke-linecap="round"/>
		<path id="Vector" d="M33.27 195.82L34.49 195.82" stroke="#FFFFFF" stroke-opacity="1.000000" stroke-width="1.000000" stroke-linejoin="round" stroke-linecap="round"/>
		<path id="Vector" d="M36.16 199.05L37.5 199.05" stroke="#FFFFFF" stroke-opacity="1.000000" stroke-width="1.000000" stroke-linejoin="round" stroke-linecap="round"/>
		<path id="Vector" d="M39.27 193.15L39.72 193.15" stroke="#FFFFFF" stroke-opacity="1.000000" stroke-width="1.000000" stroke-linejoin="round" stroke-linecap="round"/>
		<path id="Vector" d="M40.83 196.93L41.61 196.93" stroke="#FFFFFF" stroke-opacity="1.000000" stroke-width="1.000000" stroke-linejoin="round" stroke-linecap="round"/>
		<path id="Vector" d="M40.5 190.48L41.5 190.48" stroke="#FFFFFF" stroke-opacity="1.000000" stroke-width="1.000000" stroke-linejoin="round" stroke-linecap="round"/>
		<path id="Vector" d="M36.61 206.17L36.94 206.17" stroke="#FFFFFF" stroke-opacity="1.000000" stroke-width="1.000000" stroke-linejoin="round" stroke-linecap="round"/>
		<path id="Vector" d="M37.61 210.06L38.05 210.06" stroke="#FFFFFF" stroke-opacity="1.000000" stroke-width="1.000000" stroke-linejoin="round" stroke-linecap="round"/>
		<path id="Vector" d="M38.72 206.28L39.16 206.28" stroke="#FFFFFF" stroke-opacity="1.000000" stroke-width="1.000000" stroke-linejoin="round" stroke-linecap="round"/>
		<path id="Vector" d="M40.17 210.06L40.5 210.06" stroke="#FFFFFF" stroke-opacity="1.000000" stroke-width="1.000000" stroke-linejoin="round" stroke-linecap="round"/>
		<path id="Vector" d="M40.94 203.39L41.61 203.39" stroke="#FFFFFF" stroke-opacity="1.000000" stroke-width="1.000000" stroke-linejoin="round" stroke-linecap="round"/>
		<path id="Vector" d="" stroke="#FFFFFF" stroke-opacity="1.000000" stroke-width="1.000000" stroke-linejoin="round"/>
		<path id="Vector" d="M43.72 202.38L44.28 202.38" stroke="#FFFFFF" stroke-opacity="1.000000" stroke-width="1.000000" stroke-linejoin="round" stroke-linecap="round"/>
		<path id="Vector" d="" stroke="#FFFFFF" stroke-opacity="1.000000" stroke-width="1.000000" stroke-linejoin="round"/>
		<path id="Vector" d="M46.95 203.49L46.95 205.94" stroke="#FFFFFF" stroke-opacity="1.000000" stroke-width="1.000000" stroke-linejoin="round" stroke-linecap="round"/>
		<path id="Vector" d="" stroke="#FFFFFF" stroke-opacity="1.000000" stroke-width="1.000000" stroke-linejoin="round"/>
		<path id="Vector" d="M49.17 191.93L49.73 191.93" stroke="#FFFFFF" stroke-opacity="1.000000" stroke-width="1.000000" stroke-linejoin="round" stroke-linecap="round"/>
		<path id="Vector" d="M48.39 194.82L48.95 194.82" stroke="#FFFFFF" stroke-opacity="1.000000" stroke-width="1.000000" stroke-linejoin="round" stroke-linecap="round"/>
		<path id="Vector" d="M51.29 194.49L52.17 194.49" stroke="#FFFFFF" stroke-opacity="1.000000" stroke-width="1.000000" stroke-linejoin="round" stroke-linecap="round"/>
		<path id="Vector" d="M48.39 198.27L49.4 198.27" stroke="#FFFFFF" stroke-opacity="1.000000" stroke-width="1.000000" stroke-linejoin="round" stroke-linecap="round"/>
		<path id="Vector" d="M46.95 194.38L47.28 194.38" stroke="#FFFFFF" stroke-opacity="1.000000" stroke-width="1.000000" stroke-linejoin="round" stroke-linecap="round"/>
		<path id="Vector" d="M50.95 202.38L52.17 202.38" stroke="#FFFFFF" stroke-opacity="1.000000" stroke-width="1.000000" stroke-linejoin="round" stroke-linecap="round"/>
		<path id="Vector" d="M49.51 205.61L50.18 205.61" stroke="#FFFFFF" stroke-opacity="1.000000" stroke-width="1.000000" stroke-linejoin="round" stroke-linecap="round"/>
		<path id="Vector" d="M51.18 207.16L53.18 207.16" stroke="#FFFFFF" stroke-opacity="1.000000" stroke-width="1.000000" stroke-linejoin="round" stroke-linecap="round"/>
		<path id="Vector" d="M53.4 202.38L54.4 202.38" stroke="#FFFFFF" stroke-opacity="1.000000" stroke-width="1.000000" stroke-linejoin="round" stroke-linecap="round"/>
		<path id="Vector" d="M54.07 204.27L55.4 204.27" stroke="#FFFFFF" stroke-opacity="1.000000" stroke-width="1.000000" stroke-linejoin="round" stroke-linecap="round"/>
		<path id="Vector" d="M53.96 213.44L35.06 213.44L35.06 232.35L53.96 232.35L53.96 213.44Z" fill="#263238" fill-opacity="1.000000" fill-rule="nonzero"/>
		<path id="Vector" d="M53.96 213.44L53.96 232.35L35.06 232.35L35.06 213.44L53.96 213.44Z" stroke="#263238" stroke-opacity="1.000000" stroke-width="1.000000" stroke-linejoin="round"/>
	</g>
</svg>
