<svg xmlns="http://www.w3.org/2000/svg" width="371" height="300" fill="none"><defs><clipPath id="a"><path fill="#fff" fill-opacity="0" d="M0 0h371v300H0z"/></clipPath></defs><path fill="none" d="M0 0h371v300H0z"/><g clip-path="url(#a)"><path stroke="#263238" stroke-linecap="round" stroke-linejoin="round" stroke-width="2" d="M298.59 183.98s-6.08-4.1-6.53 5.18c-.45 9.29-1.58 69.66-1.58 69.66"/><path stroke="#263238" stroke-linecap="round" stroke-linejoin="round" stroke-width="2" d="M288.88 189.99s4.95 13.38 2.71 68.01"/><path fill="#FFF" d="M293.77 185.85s-2.33 1.8-3.65-.26c-1.32-2.06.9-5.86-1.06-7.48-1.95-1.62-5.33.85-5.33.85s2.6.92 2.51 2.64c-.08 1.73-1.33 2.4-1.48 1.62-.15-.78-1.41-4.54-3.52-2.96-.61.44-1.14 1.02-1.56 1.71-.41.69-.71 1.48-.87 2.31 0 0 4.91-.64 5.21 1.61.3 2.24-2.01-.39-4.04-.54-2.03-.14-3.88.22-3.75 1.71.05 1.31-.02 2.63-.19 3.93 1.11-1.12 2.51-1.72 3.96-1.69 2.23.16 2.14 1.88.12 1.74-2.03-.15-3.77 2.19-3.77 2.19s1.85 3.84 4.19 5.73c2.36 1.9 3.2 1.2 3.47-.24.27-1.45-.36-5.21 1.06-5.11 1.42.1-2.35 6.5-.54 6.88 1.81.37 3.27-.27 3.75-1.71l.49-1.45s-.63-3.74-.35-5.21c.27-1.46.6.04.93 1.8.32 1.76.52 5.97 1.14 5.76.62-.2 2.6-3.27 3.07-4.47.46-1.2-2.62-4.88-2.58-5.61.03-.74 2.41.66 2.78 1.43.27.58.51 1.18.73 1.8 0 0 1.48-1.13 1.44-4.58-.04-3.46-2.16-2.4-2.16-2.4Z"/><path fill="#263238" d="M293.77 185.85s-2.33 1.8-3.65-.26c-1.32-2.06.9-5.86-1.06-7.48-1.95-1.62-5.33.85-5.33.85s2.6.92 2.51 2.64c-.08 1.73-1.33 2.4-1.48 1.62-.15-.78-1.41-4.54-3.52-2.96-.61.44-1.14 1.02-1.56 1.71-.41.69-.71 1.48-.87 2.31 0 0 4.91-.64 5.21 1.61.3 2.24-2.01-.39-4.04-.54-2.03-.14-3.88.22-3.75 1.71.05 1.31-.02 2.63-.19 3.93 1.11-1.12 2.51-1.72 3.96-1.69 2.23.16 2.14 1.88.12 1.74-2.03-.15-3.77 2.19-3.77 2.19s1.85 3.84 4.19 5.73c2.36 1.9 3.2 1.2 3.47-.24.27-1.45-.36-5.21 1.06-5.11 1.42.1-2.35 6.5-.54 6.88 1.81.37 3.27-.27 3.75-1.71l.49-1.45s-.63-3.74-.35-5.21c.27-1.46.6.04.93 1.8.32 1.76.52 5.97 1.14 5.76.62-.2 2.6-3.27 3.07-4.47.46-1.2-2.62-4.88-2.58-5.61.03-.74 2.41.66 2.78 1.43.27.58.51 1.18.73 1.8 0 0 1.48-1.13 1.44-4.58-.04-3.46-2.16-2.4-2.16-2.4Z" opacity=".3"/><path stroke="#263238" stroke-linecap="round" stroke-linejoin="round" d="M281.98 193.95c1.52-2.27 3.75-5.35 5.62-6.82M280.22 196.72s.39-.66 1.02-1.64M288.59 187.69s2.26 3.87 2.67 7.85M286.04 189.98s.63-.44.4 4.47M287.69 185.4s1.28-1.4.61-4.16M285.03 185.71h.92M284.01 189.84s-2.92-2.68-4.74-2.81"/><path fill="#FFF" d="M302.06 178.56s-.09 4.05-2.7 4.25c-2.61.2-4.23-5.08-6.9-3.81s-2.93 7.06-2.93 7.06 2.54-2.53 3.9-1.25c1.37 1.28 1.05 3.24.31 2.93-.73-.32-4.71-1.39-4.84 2.25a9.21 9.21 0 0 0 .35 3.05c.28.98.73 1.88 1.31 2.64 0 0 2.82-6.4 4.88-5.23 2.06 1.16-1.7 2.18-3.2 4.54-1.5 2.36-2.47 4.85-1.14 5.71 1.11.84 2.16 1.82 3.11 2.92 0 0-.35-3.35 1.3-5.95s3.01-1.32 1.51 1.04c-1.5 2.36-.75 6.07-.75 6.07s4.42.37 7.58-1.2c3.17-1.57 3.19-3.05 2.17-4.38-1.02-1.34-4.54-3.12-3.49-4.77 1.05-1.66 3.76 7.28 5.31 5.34 1.54-1.95 2-4.15 1.14-5.72l-.87-1.56s-3.52-1.8-4.54-3.12c-1.02-1.31.45-.71 2.11.09 1.67.81 5.28 3.43 5.53 2.54.26-.89-.92-5.4-1.59-6.77-.68-1.36-5.81-.15-6.39-.7-.59-.54 2.19-2.47 3.07-2.4.89.07 1.98.33 1.98.33s.08-2.56-2.8-4.88c-2.88-2.31-3.42.98-3.42.98Z"/><path fill="#263238" d="M302.06 178.56s-.09 4.05-2.7 4.25c-2.61.2-4.23-5.08-6.9-3.81s-2.93 7.06-2.93 7.06 2.54-2.53 3.9-1.25c1.37 1.28 1.05 3.24.31 2.93-.73-.32-4.71-1.39-4.84 2.25a9.21 9.21 0 0 0 .35 3.05c.28.98.73 1.88 1.31 2.64 0 0 2.82-6.4 4.88-5.23 2.06 1.16-1.7 2.18-3.2 4.54-1.5 2.36-2.47 4.85-1.14 5.71 1.11.84 2.16 1.82 3.11 2.92 0 0-.35-3.35 1.3-5.95s3.01-1.32 1.51 1.04c-1.5 2.36-.75 6.07-.75 6.07s4.42.37 7.58-1.2c3.17-1.57 3.19-3.05 2.17-4.38-1.02-1.34-4.54-3.12-3.49-4.77 1.05-1.66 3.76 7.28 5.31 5.34 1.54-1.95 2-4.15 1.14-5.72l-.87-1.56s-3.52-1.8-4.54-3.12c-1.02-1.31.45-.71 2.11.09 1.67.81 5.28 3.43 5.53 2.54.26-.89-.92-5.4-1.59-6.77-.68-1.36-5.81-.15-6.39-.7-.59-.54 2.19-2.47 3.07-2.4.89.07 1.98.33 1.98.33s.08-2.56-2.8-4.88c-2.88-2.31-3.42.98-3.42.98Z" opacity=".2"/><path stroke="#263238" stroke-linecap="round" stroke-linejoin="round" d="M300.71 198.4c-.84-3.39-1.86-8.2-1.79-11.48M301.8 202.42s-.28-.91-.66-2.35M300.06 186.1s4.72-.1 8.29 2.1M300.21 190.76s.06-1.07 3.96 2.57M297.56 185.65s-.27-2.52-3.02-3.57M295.99 189.09h2.31M298.7 193.12s-4.19 1.73-5.55 3.86"/><path stroke="#263238" stroke-linecap="round" stroke-linejoin="round" stroke-width="2" d="M274.04 205.56s13.29 10.65 13.06 51.9"/><path fill="#FFF" d="M290.42 202.74s-.42 4.67-3.46 4.6c-3.04-.06-4.48-6.34-7.66-5.19-3.17 1.16-3.93 7.8-3.93 7.8s3.12-2.62 4.6-.99c1.48 1.62.96 3.86.13 3.41-.83-.44-5.32-2.13-5.76 2.05-.15 1.19-.09 2.4.17 3.56.25 1.17.7 2.25 1.31 3.2 0 0 3.76-7.06 6.04-5.48 2.28 1.57-2.13 2.32-4.04 4.87-1.92 2.56-3.22 5.33-1.77 6.47a23.54 23.54 0 0 1 3.37 3.72s-.15-3.91 1.98-6.72c2.13-2.81 3.58-1.2 1.67 1.37-1.92 2.57-1.35 6.92-1.35 6.92s5.08.94 8.86-.5c3.77-1.44 3.91-3.16 2.83-4.8-1.07-1.64-4.99-4.12-3.65-5.9 1.34-1.79 3.77 8.83 5.7 6.76 1.94-2.06 2.65-4.55 1.77-6.46l-.93-1.91s-3.92-2.46-4.99-4.11c-1.08-1.65.57-.77 2.43.35 1.86 1.11 5.82 4.56 6.18 3.55.36-1-.65-6.31-1.3-7.99-.65-1.67-6.69-.84-7.32-1.53-.63-.7 2.73-2.61 3.74-2.4.75.15 1.5.35 2.24.6 0 0 .29-2.96-2.85-5.96s-4.01.71-4.01.71Z"/><path fill="#263238" d="M290.42 202.74s-.42 4.67-3.46 4.6c-3.04-.06-4.48-6.34-7.66-5.19-3.17 1.16-3.93 7.8-3.93 7.8s3.12-2.62 4.6-.99c1.48 1.62.96 3.86.13 3.41-.83-.44-5.32-2.13-5.76 2.05-.15 1.19-.09 2.4.17 3.56.25 1.17.7 2.25 1.31 3.2 0 0 3.76-7.06 6.04-5.48 2.28 1.57-2.13 2.32-4.04 4.87-1.92 2.56-3.22 5.33-1.77 6.47a23.54 23.54 0 0 1 3.37 3.72s-.15-3.91 1.98-6.72c2.13-2.81 3.58-1.2 1.67 1.37-1.92 2.57-1.35 6.92-1.35 6.92s5.08.94 8.86-.5c3.77-1.44 3.91-3.16 2.83-4.8-1.07-1.64-4.99-4.12-3.65-5.9 1.34-1.79 3.77 8.83 5.7 6.76 1.94-2.06 2.65-4.55 1.77-6.46l-.93-1.91s-3.92-2.46-4.99-4.11c-1.08-1.65.57-.77 2.43.35 1.86 1.11 5.82 4.56 6.18 3.55.36-1-.65-6.31-1.3-7.99-.65-1.67-6.69-.84-7.32-1.53-.63-.7 2.73-2.61 3.74-2.4.75.15 1.5.35 2.24.6 0 0 .29-2.96-2.85-5.96s-4.01.71-4.01.71Z" opacity=".3"/><path stroke="#263238" stroke-linecap="round" stroke-linejoin="round" d="M287.33 225.49c-.71-4.01-1.51-9.68-1.19-13.45M288.27 230.25s-.25-1.09-.58-2.79M287.53 211.2s5.44.42 9.39 3.37M287.33 216.6s.16-1.2 4.37 3.42M284.67 210.41s-.11-2.93-3.19-4.46M282.6 214.2h2.64M285.42 219.17s-4.98 1.51-6.71 3.8"/><path stroke="#263238" stroke-linecap="round" stroke-linejoin="round" stroke-width="2" d="M279.22 238.06s8.56 7.92 9.46 19.67l-1.78-39.33M299.94 232.33c-11.26-2.46-11.26 25.4-11.26 25.4"/><path stroke="#263238" stroke-linecap="round" stroke-linejoin="round" stroke-width="2" d="M290.03 257.46s-6.53-57.64 12.36-57.64"/><path fill="#FFF" d="M295.65 230.67c-1.54-2.1-4.81-2.1-6.73 3.27-1.92 5.36-.19 4.42-.19 4.42s3.65-1.39 5.93-2.33c2.29-.94 5.38-3.26 5.58-1.86.19 1.4-1.54 2.8-3.66 3.26-2.11.47-7.68 2.33-7.11 3.74.57 1.4 1.92 5.59 1.92 5.59 1.65-1.69 3.38-3.25 5.19-4.66 2.51-1.87 4.04-1.17 2.7.93-1.35 2.09-5.2 4.43-4.42 7.23.77 2.79 5.4 6.3 5.4 6.3s.57-5.84 1.92-7.7c1.35-1.87 1.35.23.96 3.5-.19 1.39-.32 2.79-.38 4.2l5.38 2.32a47.74 47.74 0 0 1 2.88-4.66l.99-1.16s-4.23-4.44-4.42-7.2c-.19-2.77 2.88 0 3.84.47.96.46 2.5 3.72 2.5 3.72s.96-5.36 1.16-7.2l.19-1.86s-4.04-1.87-5.58-1.87-2.3 1.4-2.3-.47c0-1.86 1.53-3.03 3.27-2.79 1.56.31 3.11.78 4.61 1.39 0 0 1.15-1.17.77-4.66-.39-3.5-1.35-3.5-3.65-2.57-2.31.94-3.85 3-5.58 3s-.77-2.56.38-3.26c1.15-.7 4.04-2.1 4.62-2.33.58-.24-3.08-3.5-5-3.96-1.93-.47-4.42 1.2-4.23 3.49.36 4.88-5.4 5.84-6.94 3.71Z"/><path stroke="#263238" stroke-linecap="round" stroke-linejoin="round" d="M308.02 254.68c.06.7.1 1.41.12 2.11M304.16 237.94c1.69 4.62 2.91 9.47 3.62 14.45M303.47 236.07c-.95-2.49-1.67-4-1.67-4 1.04-.61 1.9-1.59 2.47-2.8.46-1.11 1.11-2.06 1.93-2.8M295.07 240s6.92-3.5 6.92-2.8M305.84 235.57s3.07-1.87 5.76-1.87M304.71 241.2a30.38 30.38 0 0 0-3.66 4.42 21.439 21.439 0 0 0-2.69 5.37M306.8 242.1s4.04-1.4 6.15.93"/><path fill="#FFF" d="M314.11 210.6c-2.09-1.5-4.41-1.54-5.55-3.12-1.13-1.59 1.1-2.4 2.29-1.8 1.19.6 3.96 2.32 4.48 2.7.52.37.16-5.12-.81-7.2-.97-2.09-3.63-3.27-4.95-1.59-2.79 3.57-7.15-1.11-6.86-3.89.3-2.79-1.84-5.78-6.43-4.02-4.58 1.76-2.88 2.72-2.88 2.72s3.26 2.43 5.36 3.94c2.1 1.5 5.56 2.79 4.81 3.88-.75 1.09-2.75.43-4.42-1.2-1.68-1.63-6.49-5.51-6.99-4.07-.49 1.45-2.23 5.4-2.23 5.4 2.14.4 4.24.96 6.31 1.7 2.8 1.06 3.38 2.93 1.19 3.07-2.19.15-6.17-1.85-7.42.69-1.26 2.54-.39 9.06-.39 9.06s4-3.29 6.05-3.28c2.04.01.74 1.39-1.55 3.17-.99.74-1.95 1.54-2.86 2.4l2.07 6.47c1.59-.27 3.19-.4 4.8-.42l1.35.12s0-6.78 1.6-8.79c1.61-2.01 1.89 2.64 2.24 3.82.34 1.19-.69 4.74-.69 4.74s3.96-2.64 5.26-3.68l1.29-1.05s-1.49-4.92-2.48-6.33c-.99-1.41-2.38-1.2-1.22-2.4s2.9-.6 3.89 1.16c.83 1.64 1.55 3.36 2.15 5.14 0 0 1.49.29 3.41-2.35 1.92-2.65 1.28-3.5-.82-4.99Zm-18.19 7.46c-1.54-.93 2.11-2.8 2.11-2.8 1.35-.24-.58 3.74-2.11 2.79v.01Zm2.58-8.71c-.65-.39 1.31-1.2 1.31-1.2 2.85.65-.64 1.59-1.3 1.19l-.01.01Z"/><path stroke="#263238" stroke-linecap="round" stroke-linejoin="round" d="M295.88 222.8c-.4.52-.81 1.01-1.24 1.49M303.76 208.29a64.723 64.723 0 0 1-6.62 12.79M304.48 206.43c.92-2.51 1.39-4.16 1.39-4.16 1.07.57 2.25.73 3.39.46.98-.31 2.01-.34 3-.07M302.81 205.8c.43-.46-6.28-4.51-6.28-4.51M306.34 208.27s3.18 1.59 4.95 4.06M302.1 210.88c-1.7-.35-3.43-.5-5.15-.44-1.74.02-3.46.38-5.1 1.05M302.91 213.43s3.52 2.78 3.46 6.24"/><path fill="#FFF" d="M284.24 242.9c-1.69-1.2-3.55-1.24-4.46-2.51-.9-1.28.88-1.92 1.84-1.44.96.49 3.18 1.87 3.61 2.17.42.3.12-4.11-.66-5.77-.78-1.67-2.92-2.64-3.95-1.28-2.26 2.87-5.77-.89-5.53-3.13.25-2.25-1.48-4.65-5.18-3.24-3.71 1.42-2.32 2.2-2.32 2.2s2.62 1.95 4.31 3.16c1.69 1.21 4.45 2.24 3.87 3.13-.58.88-2.21.34-3.56-.98-1.35-1.31-5.22-4.44-5.62-3.27-.4 1.16-1.79 4.37-1.79 4.37 1.71.32 3.41.77 5.08 1.36 2.25.86 2.71 2.37.94 2.48-1.76.12-4.94-1.49-5.93.55-.99 2.04-.31 7.29-.31 7.29s3.22-2.64 4.87-2.64c1.64.01.59 1.12-1.25 2.56-.79.59-1.57 1.23-2.31 1.93l1.68 5.2c1.27-.21 2.56-.33 3.85-.34l1.1.1s0-5.46 1.29-7.08c1.29-1.61 1.52 2.13 1.79 3.08.27.96-.55 3.81-.55 3.81s3.2-2.12 4.23-2.96l1.04-.84s-1.2-3.96-2.01-5.1c-.81-1.13-1.92-.96-.99-1.95.93-.98 2.33-.46 3.13.94.66 1.32 1.25 2.71 1.73 4.14 0 0 1.2.23 2.74-1.9 1.55-2.13.99-2.83-.68-4.04Zm-14.65 6c-1.23-.75 1.7-2.25 1.7-2.25 1.09-.19-.46 3.01-1.7 2.26v-.01Zm2.09-7.01c-.53-.32 1.05-.96 1.05-.96 2.3.54-.52 1.29-1.05.97v-.01Z"/><path stroke="#263238" stroke-linecap="round" stroke-linejoin="round" d="M269.59 252.73c-.32.41-.65.81-.99 1.2M275.91 241.05c-1.42 3.68-3.21 7.14-5.33 10.29M276.48 239.55c.75-2.01 1.13-3.34 1.13-3.34.85.46 1.8.58 2.72.37.79-.25 1.62-.27 2.41-.06M270.08 235.44s5.41 3.25 5.06 3.6M278 241.03s2.56 1.29 3.96 3.27M274.57 243.13c-1.37-.28-2.76-.4-4.14-.35-1.4.02-2.79.3-4.11.85M275.22 245.19s2.83 2.23 2.78 5.02"/><path fill="#FFF" d="M277.37 204.39s-2.12 1.87-3.46 0c-1.35-1.86.58-5.6-1.35-6.99-1.93-1.4-5 1.16-5 1.16s2.5.7 2.5 2.33c0 1.64-1.15 2.33-1.35 1.64-.19-.7-1.53-4.2-3.46-2.57-.55.45-1.03 1.04-1.39 1.72-.36.68-.61 1.44-.72 2.24 0 0 4.61-.93 4.99 1.17.39 2.1-1.92-.24-3.84-.24s-3.65.47-3.46 1.87c.1 1.24.1 2.49 0 3.73.99-1.13 2.29-1.79 3.65-1.86 2.12 0 2.12 1.63.2 1.63-1.92 0-3.47 2.33-3.47 2.33s1.93 3.5 4.23 5.13c2.31 1.63 3.08.94 3.27-.47.2-1.4-.58-4.89.77-4.89 1.34 0-1.92 6.3-.19 6.53 1.72.22 3.07-.47 3.46-1.87l.39-1.4s-.78-3.5-.58-4.89c.19-1.4.58 0 .96 1.63s.77 5.6 1.34 5.36c.58-.23 2.31-3.26 2.7-4.43.38-1.16-2.7-4.43-2.7-5.13 0-.69 2.31.47 2.7 1.17.28.53.53 1.07.76 1.63 0 0 1.35-1.16 1.16-4.43-.2-3.27-2.11-2.1-2.11-2.1Z"/><path stroke="#263238" stroke-linecap="round" stroke-linejoin="round" d="M266.62 212.85c1.33-2.25 3.3-5.31 5.01-6.83M265.06 215.58s.34-.65.89-1.62M272.56 206.49s2.3 3.49 2.88 7.23M270.26 208.8s.57-.47.57 4.2M271.6 204.39s1.15-1.4.38-3.96M269.1 204.85h.96M268.33 208.8s-2.88-2.34-4.61-2.34"/><path fill="#263238" d="M296.79 256.63h-14.87v25.95h14.87v-25.95Z"/><path stroke="#263238" stroke-linejoin="round" stroke-width="2" d="M296.79 256.63v25.95h-14.87v-25.95h14.87Z"/><path stroke="#263238" d="M162.9 57.22s.18-7.67-.05-14.26c-.22-6.59.23-20.73.23-20.73M160.51 28.19h2.47M162.95 30.45h.88M162.75 36.79h2.19M161.92 23.85h1.16M161.28 38.3h1.45M159.84 44.25h3.01"/><path stroke="#263238" d="M162.93 51.7c.77-.36 1.52-.79 2.24-1.27"/><path fill="#FFF" d="M161.26 31.73c-1.22-1.13-5.28-.94-6.06 1.42-.78 2.36 1.7 6.21 4.08 5.94.93-.11 1.34-.19 1.7-.83l-3.34-3.96 3.62 3.53c.1-.23.19-.47.25-.72.04-.17.08-.36.11-.56.25-1.41.78-3.76-.36-4.82ZM169.13 28.99v.09c-.33 1.76-1.98 2.75-3.38 2.6-.2-.02-.39-.06-.58-.12-.32.62-.53 1.34-.59 2.07-.06.74.02 1.49.24 2.19.06.19.13.38.23.56.41-.41 4.8-4.96 4.8-4.96l-4.56 5.33c1.38 1.8 4.6 1.54 5.73-1.76 1.12-3.31-.31-5.52-1.89-6Z"/><path fill="#FFF" d="M166.89 22.84c-2.36-.6-4.48.68-4.45 3.67.01.66.14 1.31.36 1.91.23.6.56 1.13.97 1.58l2.43-4.04-2.04 4.4c.45.38.99.61 1.54.67 1.39.15 3.05-.85 3.38-2.61.34-1.96.18-4.95-2.19-5.58ZM164.13 12.43s-.24.09-1.76.99c-.88.59-1.54 1.58-1.82 2.76-.29 1.18-.17 2.45.31 3.52.42 1.01 1.14 1.78 2.02 2.15l.61-7.13-.25 7.23c.11.01.23.01.34 0 .99-.12 2.54-1.55 2.69-4.47.15-2.92-2.14-5.05-2.14-5.05ZM157.22 18.92l4.57 4.43c.04-.2.06-.4.04-.6-.21-2.54-2.3-4-3.67-4.53-1.38-.53-2.33.41-1.44 2.84.88 2.42 3.2 3.6 4.23 3.23.25-.07.47-.24.64-.47l-4.37-4.9Z"/><path fill="#FFF" d="M160.36 24.6c-.7-.07-1.38-.32-1.99-.75-.6-.42-1.12-1.01-1.52-1.71-.48-.06-.96.12-1.34.49-.38.37-.63.9-.68 1.49-.47 2.64 1.1 5.4 3.37 5.06.72-.04 1.39-.39 1.91-.98l-4.05-4.5 4.34 4.02c.09-.19.14-.39.16-.6.14-.85.07-1.73-.2-2.52ZM160.34 39.28c-.37.19-.77.3-1.17.33-1.48.17-2.99-1.24-3.75-2.89-.44.03-.86.25-1.18.6-.33.36-.55.85-.63 1.38-.45 3.08 1.91 7.16 4.29 6.51.62-.15 1.2-.5 1.66-1.02l-5.2-6.07 5.5 5.67c.32-.48.52-1.07.59-1.68.26-.93.22-1.94-.11-2.83ZM170.81 45.6c-1.75-2.46-3.84-.26-3.84-.26s-1.27.51-1.76 2.7c-.14.67-.12 1.37.07 2.03l5.26-3.72-5.13 4.06c.49 1.11 1.52 1.8 2.96 1.29 2.31-.76 4.19-3.63 2.44-6.1Z"/><path fill="#263238" fill-rule="evenodd" d="M159.16 54.91h7.29v13.08h-7.29V54.91Z"/><path fill="#FFF" d="M246.87 67.89h-96.1v215.53h96.1V67.89Z"/><path stroke="#263238" d="M246.87 67.89v215.53h-96.1V67.89h96.1Z"/><path fill="#263238" d="M233.31 70.62h-80.55v209.52h80.55V70.62Z"/><path stroke="#263238" stroke-linejoin="round" d="M233.31 70.62v209.52h-80.55V70.62h80.55Z"/><path fill="#FFF" d="M233.31 103.11h-80.55v3.09h80.55v-3.09Z"/><path stroke="#263238" d="M233.31 103.11v3.09h-80.55v-3.09h80.55Z"/><path fill="#FFF" d="M233.31 138.84h-80.55v3.08h80.55v-3.08Z"/><path stroke="#263238" d="M233.31 138.84v3.08h-80.55v-3.08h80.55Z"/><path fill="#FFF" d="M207.35 70.65h-1.71v32.46h1.71V70.65Z"/><path stroke="#263238" d="M207.35 70.65v32.46h-1.71V70.65h1.71Z"/><path fill="#FFF" d="M179.97 70.65h-1.71v32.46h1.71V70.65Z"/><path stroke="#263238" d="M179.97 70.65v32.46h-1.71V70.65h1.71Z"/><path fill="#FFF" d="M207.35 141.96h-1.71v32.46h1.71v-32.46Z"/><path stroke="#263238" d="M207.35 141.96v32.46h-1.71v-32.46h1.71Z"/><path fill="#FFF" d="M179.97 141.96h-1.71v32.46h1.71v-32.46Z"/><path stroke="#263238" d="M179.97 141.96v32.46h-1.71v-32.46h1.71Z"/><path fill="#FFF" d="M193.53 106.38h-1.71v32.45h1.71v-32.45Z"/><path stroke="#263238" d="M193.53 106.38v32.45h-1.71v-32.45h1.71Z"/><path fill="#FFF" d="M233.31 174.42h-80.55v3.09h80.55v-3.09Z"/><path stroke="#263238" d="M233.31 174.42v3.09h-80.55v-3.09h80.55Z"/><path fill="#FFF" d="M233.31 210.03h-80.55v71.2h80.55v-71.2Z"/><path stroke="#263238" d="M233.31 210.03v71.2h-80.55v-71.2h80.55Z"/><path fill="#FFF" d="M193.53 177.57h-1.71v32.45h1.71v-32.45Z"/><path stroke="#263238" d="M193.53 177.57v32.45h-1.71v-32.45h1.71Z"/><path fill="#263238" d="M235.29 67.87v215.51l11.58.04V67.87h-11.58Z"/><path stroke="#263238" stroke-linejoin="round" d="m235.29 283.38 11.58.04V67.87h-11.58v215.51Z"/><path fill="#FFF" d="M212.68 73.17h-4.14v29.86h4.14V73.17Z"/><path stroke="#263238" d="M212.68 73.17v29.86h-4.14V73.17h4.14Z"/><path fill="#FFF" d="M212.68 96.62h-4.14v2.45h4.14v-2.45Z"/><path stroke="#263238" d="M212.68 96.62v2.45h-4.14v-2.45h4.14Z"/><path fill="#FFF" d="M212.68 76.2h-4.14v2.45h4.14V76.2Z"/><path stroke="#263238" d="M212.68 76.2v2.45h-4.14V76.2h4.14Z"/><path fill="#FFF" d="M216.91 73.17h-4.14v29.86h4.14V73.17Z"/><path stroke="#263238" d="M216.91 73.17v29.86h-4.14V73.17h4.14Z"/><path fill="#FFF" d="M216.91 96.62h-4.14v2.45h4.14v-2.45Z"/><path stroke="#263238" d="M216.91 96.62v2.45h-4.14v-2.45h4.14Z"/><path fill="#FFF" d="M216.91 76.2h-4.14v2.45h4.14V76.2Z"/><path stroke="#263238" d="M216.91 76.2v2.45h-4.14V76.2h4.14Z"/><path fill="#FFF" d="M221.14 73.17h-4.13v29.86h4.13V73.17Z"/><path stroke="#263238" d="M221.14 73.17v29.86h-4.13V73.17h4.13Z"/><path fill="#FFF" d="M221.14 96.62h-4.13v2.45h4.13v-2.45Z"/><path stroke="#263238" d="M221.14 96.62v2.45h-4.13v-2.45h4.13Z"/><path fill="#FFF" d="M221.14 76.2h-4.13v2.45h4.13V76.2Z"/><path stroke="#263238" d="M221.14 76.2v2.45h-4.13V76.2h4.13Z"/><path fill="#FFF" d="M225.37 73.17h-4.13v29.86h4.13V73.17Z"/><path stroke="#263238" d="M225.37 73.17v29.86h-4.13V73.17h4.13Z"/><path fill="#FFF" d="M232.26 73.17h-6.92v29.86h6.92V73.17Z"/><path stroke="#263238" d="M232.26 73.17v29.86h-6.92V73.17h6.92Z"/><path fill="#FFF" d="M225.37 96.62h-4.13v2.45h4.13v-2.45Z"/><path stroke="#263238" d="M225.37 96.62v2.45h-4.13v-2.45h4.13Z"/><path fill="#FFF" d="M225.37 76.2h-4.13v2.45h4.13V76.2Z"/><path stroke="#263238" d="M225.37 76.2v2.45h-4.13V76.2h4.13Z"/><path fill="#FFF" d="M185.01 73.17h-4.13v29.86h4.13V73.17Z"/><path stroke="#263238" d="M185.01 73.17v29.86h-4.13V73.17h4.13Z"/><path fill="#FFF" d="M185.01 96.62h-4.13v2.45h4.13v-2.45Z"/><path stroke="#263238" d="M185.01 96.62v2.45h-4.13v-2.45h4.13Z"/><path fill="#FFF" d="M185.01 76.2h-4.13v2.45h4.13V76.2Z"/><path stroke="#263238" d="M185.01 76.2v2.45h-4.13V76.2h4.13Z"/><path fill="#FFF" d="M189.24 73.17h-4.14v29.86h4.14V73.17Z"/><path stroke="#263238" d="M189.24 73.17v29.86h-4.14V73.17h4.14Z"/><path fill="#FFF" d="M189.24 96.62h-4.14v2.45h4.14v-2.45Z"/><path stroke="#263238" d="M189.24 96.62v2.45h-4.14v-2.45h4.14Z"/><path fill="#FFF" d="M189.24 76.2h-4.14v2.45h4.14V76.2Z"/><path stroke="#263238" d="M189.24 76.2v2.45h-4.14V76.2h4.14Z"/><path fill="#FFF" d="M193.47 73.17h-4.13v29.86h4.13V73.17Z"/><path stroke="#263238" d="M193.47 73.17v29.86h-4.13V73.17h4.13Z"/><path fill="#FFF" d="M193.47 96.62h-4.13v2.45h4.13v-2.45Z"/><path stroke="#263238" d="M193.47 96.62v2.45h-4.13v-2.45h4.13Z"/><path fill="#FFF" d="M193.47 76.2h-4.13v2.45h4.13V76.2Z"/><path stroke="#263238" d="M193.47 76.2v2.45h-4.13V76.2h4.13Z"/><path fill="#FFF" d="M197.7 73.17h-4.13v29.86h4.13V73.17Z"/><path stroke="#263238" d="M197.7 73.17v29.86h-4.13V73.17h4.13Z"/><path fill="#FFF" d="M204.59 73.17h-6.92v29.86h6.92V73.17Z"/><path stroke="#263238" d="M204.59 73.17v29.86h-6.92V73.17h6.92Z"/><path fill="#FFF" d="M197.7 96.62h-4.13v2.45h4.13v-2.45Z"/><path stroke="#263238" d="M197.7 96.62v2.45h-4.13v-2.45h4.13Z"/><path fill="#FFF" d="M197.7 76.2h-4.13v2.45h4.13V76.2Z"/><path stroke="#263238" d="M197.7 76.2v2.45h-4.13V76.2h4.13Z"/><path fill="#FFF" d="M185.01 144.59h-4.13v29.86h4.13v-29.86Z"/><path stroke="#263238" d="M185.01 144.59v29.86h-4.13v-29.86h4.13Z"/><path fill="#FFF" d="M185.01 168.04h-4.13v2.45h4.13v-2.45Z"/><path stroke="#263238" d="M185.01 168.04v2.45h-4.13v-2.45h4.13Z"/><path fill="#FFF" d="M185.01 147.63h-4.13v2.44h4.13v-2.44Z"/><path stroke="#263238" d="M185.01 147.63v2.44h-4.13v-2.44h4.13Z"/><path fill="#FFF" d="M189.24 144.59h-4.14v29.86h4.14v-29.86Z"/><path stroke="#263238" d="M189.24 144.59v29.86h-4.14v-29.86h4.14Z"/><path fill="#FFF" d="M189.24 168.04h-4.14v2.45h4.14v-2.45Z"/><path stroke="#263238" d="M189.24 168.04v2.45h-4.14v-2.45h4.14Z"/><path fill="#FFF" d="M189.24 147.63h-4.14v2.44h4.14v-2.44Z"/><path stroke="#263238" d="M189.24 147.63v2.44h-4.14v-2.44h4.14Z"/><path fill="#FFF" d="M193.47 144.59h-4.13v29.86h4.13v-29.86Z"/><path stroke="#263238" d="M193.47 144.59v29.86h-4.13v-29.86h4.13Z"/><path fill="#FFF" d="M193.47 168.04h-4.13v2.45h4.13v-2.45Z"/><path stroke="#263238" d="M193.47 168.04v2.45h-4.13v-2.45h4.13Z"/><path fill="#FFF" d="M193.47 147.63h-4.13v2.44h4.13v-2.44Z"/><path stroke="#263238" d="M193.47 147.63v2.44h-4.13v-2.44h4.13Z"/><path fill="#FFF" d="M197.7 144.59h-4.13v29.86h4.13v-29.86Z"/><path stroke="#263238" d="M197.7 144.59v29.86h-4.13v-29.86h4.13Z"/><path fill="#FFF" d="M204.59 144.59h-6.92v29.86h6.92v-29.86Z"/><path stroke="#263238" d="M204.59 144.59v29.86h-6.92v-29.86h6.92Z"/><path fill="#FFF" d="M197.7 168.04h-4.13v2.45h4.13v-2.45Z"/><path stroke="#263238" d="M197.7 168.04v2.45h-4.13v-2.45h4.13Z"/><path fill="#FFF" d="M197.7 147.63h-4.13v2.44h4.13v-2.44Z"/><path stroke="#263238" d="M197.7 147.63v2.44h-4.13v-2.44h4.13Z"/><path fill="#FFF" d="M212.32 144.59h-4.13v29.86h4.13v-29.86Z"/><path stroke="#263238" d="M212.32 144.59v29.86h-4.13v-29.86h4.13Z"/><path fill="#FFF" d="M212.32 168.04h-4.13v2.45h4.13v-2.45Z"/><path stroke="#263238" d="M212.32 168.04v2.45h-4.13v-2.45h4.13Z"/><path fill="#FFF" d="M212.32 147.63h-4.13v2.44h4.13v-2.44Z"/><path stroke="#263238" d="M212.32 147.63v2.44h-4.13v-2.44h4.13Z"/><path fill="#FFF" d="M216.56 144.59h-4.14v29.86h4.14v-29.86Z"/><path stroke="#263238" d="M216.56 144.59v29.86h-4.14v-29.86h4.14Z"/><path fill="#FFF" d="M216.56 168.04h-4.14v2.45h4.14v-2.45Z"/><path stroke="#263238" d="M216.56 168.04v2.45h-4.14v-2.45h4.14Z"/><path fill="#FFF" d="M216.56 147.63h-4.14v2.44h4.14v-2.44Z"/><path stroke="#263238" d="M216.56 147.63v2.44h-4.14v-2.44h4.14Z"/><path fill="#FFF" d="M220.79 144.59h-4.14v29.86h4.14v-29.86Z"/><path stroke="#263238" d="M220.79 144.59v29.86h-4.14v-29.86h4.14Z"/><path fill="#FFF" d="M220.79 168.04h-4.14v2.45h4.14v-2.45Z"/><path stroke="#263238" d="M220.79 168.04v2.45h-4.14v-2.45h4.14Z"/><path fill="#FFF" d="M220.79 147.63h-4.14v2.44h4.14v-2.44Z"/><path stroke="#263238" d="M220.79 147.63v2.44h-4.14v-2.44h4.14Z"/><path fill="#FFF" d="M225.02 144.59h-4.14v29.86h4.14v-29.86Z"/><path stroke="#263238" d="M225.02 144.59v29.86h-4.14v-29.86h4.14Z"/><path fill="#FFF" d="M231.91 144.59h-6.93v29.86h6.93v-29.86Z"/><path stroke="#263238" d="M231.91 144.59v29.86h-6.93v-29.86h6.93Z"/><path fill="#FFF" d="M225.02 168.04h-4.14v2.45h4.14v-2.45Z"/><path stroke="#263238" d="M225.02 168.04v2.45h-4.14v-2.45h4.14Z"/><path fill="#FFF" d="M225.02 147.63h-4.14v2.44h4.14v-2.44Z"/><path stroke="#263238" d="M225.02 147.63v2.44h-4.14v-2.44h4.14Z"/><path fill="#FFF" d="M157.87 144.59h-4.13v29.86h4.13v-29.86Z"/><path stroke="#263238" d="M157.87 144.59v29.86h-4.13v-29.86h4.13Z"/><path fill="#FFF" d="M157.87 168.04h-4.13v2.45h4.13v-2.45Z"/><path stroke="#263238" d="M157.87 168.04v2.45h-4.13v-2.45h4.13Z"/><path fill="#FFF" d="M157.87 147.63h-4.13v2.44h4.13v-2.44Z"/><path stroke="#263238" d="M157.87 147.63v2.44h-4.13v-2.44h4.13Z"/><path fill="#FFF" d="M162.11 144.59h-4.14v29.86h4.14v-29.86Z"/><path stroke="#263238" d="M162.11 144.59v29.86h-4.14v-29.86h4.14Z"/><path fill="#FFF" d="M162.11 168.04h-4.14v2.45h4.14v-2.45Z"/><path stroke="#263238" d="M162.11 168.04v2.45h-4.14v-2.45h4.14Z"/><path fill="#FFF" d="M162.11 147.63h-4.14v2.44h4.14v-2.44Z"/><path stroke="#263238" d="M162.11 147.63v2.44h-4.14v-2.44h4.14Z"/><path fill="#FFF" d="M166.34 144.59h-4.14v29.86h4.14v-29.86Z"/><path stroke="#263238" d="M166.34 144.59v29.86h-4.14v-29.86h4.14Z"/><path fill="#FFF" d="M166.34 168.04h-4.14v2.45h4.14v-2.45Z"/><path stroke="#263238" d="M166.34 168.04v2.45h-4.14v-2.45h4.14Z"/><path fill="#FFF" d="M166.34 147.63h-4.14v2.44h4.14v-2.44Z"/><path stroke="#263238" d="M166.34 147.63v2.44h-4.14v-2.44h4.14Z"/><path fill="#FFF" d="M170.57 144.59h-4.13v29.86h4.13v-29.86Z"/><path stroke="#263238" d="M170.57 144.59v29.86h-4.13v-29.86h4.13Z"/><path fill="#FFF" d="M177.46 144.59h-6.93v29.86h6.93v-29.86Z"/><path stroke="#263238" d="M177.46 144.59v29.86h-6.93v-29.86h6.93Z"/><path fill="#FFF" d="M170.57 168.04h-4.13v2.45h4.13v-2.45Z"/><path stroke="#263238" d="M170.57 168.04v2.45h-4.13v-2.45h4.13Z"/><path fill="#FFF" d="M170.57 147.63h-4.13v2.44h4.13v-2.44Z"/><path stroke="#263238" d="M170.57 147.63v2.44h-4.13v-2.44h4.13Z"/><path fill="#FFF" d="M157.34 73.17h-4.13v29.86h4.13V73.17Z"/><path stroke="#263238" d="M157.34 73.17v29.86h-4.13V73.17h4.13Z"/><path fill="#FFF" d="M157.34 96.62h-4.13v2.45h4.13v-2.45Z"/><path stroke="#263238" d="M157.34 96.62v2.45h-4.13v-2.45h4.13Z"/><path fill="#FFF" d="M157.34 76.2h-4.13v2.45h4.13V76.2Z"/><path stroke="#263238" d="M157.34 76.2v2.45h-4.13V76.2h4.13Z"/><path fill="#FFF" d="M161.57 73.17h-4.13v29.86h4.13V73.17Z"/><path stroke="#263238" d="M161.57 73.17v29.86h-4.13V73.17h4.13Z"/><path fill="#FFF" d="M161.57 96.62h-4.13v2.45h4.13v-2.45Z"/><path stroke="#263238" d="M161.57 96.62v2.45h-4.13v-2.45h4.13Z"/><path fill="#FFF" d="M161.57 76.2h-4.13v2.45h4.13V76.2Z"/><path stroke="#263238" d="M161.57 76.2v2.45h-4.13V76.2h4.13Z"/><path fill="#FFF" d="M165.81 73.17h-4.14v29.86h4.14V73.17Z"/><path stroke="#263238" d="M165.81 73.17v29.86h-4.14V73.17h4.14Z"/><path fill="#FFF" d="M165.81 96.62h-4.14v2.45h4.14v-2.45Z"/><path stroke="#263238" d="M165.81 96.62v2.45h-4.14v-2.45h4.14Z"/><path fill="#FFF" d="M165.81 76.2h-4.14v2.45h4.14V76.2Z"/><path stroke="#263238" d="M165.81 76.2v2.45h-4.14V76.2h4.14Z"/><path fill="#FFF" d="M170.04 73.17h-4.14v29.86h4.14V73.17Z"/><path stroke="#263238" d="M170.04 73.17v29.86h-4.14V73.17h4.14Z"/><path fill="#FFF" d="M176.93 73.17H170v29.86h6.93V73.17Z"/><path stroke="#263238" d="M176.93 73.17v29.86H170V73.17h6.93Z"/><path fill="#FFF" d="M170.04 96.62h-4.14v2.45h4.14v-2.45Z"/><path stroke="#263238" d="M170.04 96.62v2.45h-4.14v-2.45h4.14Z"/><path fill="#FFF" d="M170.04 76.2h-4.14v2.45h4.14V76.2Z"/><path stroke="#263238" d="M170.04 76.2v2.45h-4.14V76.2h4.14Z"/><path fill="#FFF" d="M169.58 108.76h-4.13v29.86h4.13v-29.86Z"/><path stroke="#263238" d="M169.58 108.76v29.86h-4.13v-29.86h4.13Z"/><path fill="#FFF" d="M169.58 132.21h-4.13v2.44h4.13v-2.44Z"/><path stroke="#263238" d="M169.58 132.21v2.44h-4.13v-2.44h4.13Z"/><path fill="#FFF" d="M169.58 111.79h-4.13v2.45h4.13v-2.45Z"/><path stroke="#263238" d="M169.58 111.79v2.45h-4.13v-2.45h4.13Z"/><path fill="#FFF" d="M165.5 108.76h-4.13v29.86h4.13v-29.86Z"/><path stroke="#263238" d="M165.5 108.76v29.86h-4.13v-29.86h4.13Z"/><path fill="#FFF" d="M165.5 132.21h-4.13v2.44h4.13v-2.44Z"/><path stroke="#263238" d="M165.5 132.21v2.44h-4.13v-2.44h4.13Z"/><path fill="#FFF" d="M165.5 111.79h-4.13v2.45h4.13v-2.45Z"/><path stroke="#263238" d="M165.5 111.79v2.45h-4.13v-2.45h4.13Z"/><path fill="#FFF" d="M161.42 108.76h-4.14v29.86h4.14v-29.86Z"/><path stroke="#263238" d="M161.42 108.76v29.86h-4.14v-29.86h4.14Z"/><path fill="#FFF" d="M161.42 132.21h-4.14v2.44h4.14v-2.44Z"/><path stroke="#263238" d="M161.42 132.21v2.44h-4.14v-2.44h4.14Z"/><path fill="#FFF" d="M161.42 111.79h-4.14v2.45h4.14v-2.45Z"/><path stroke="#263238" d="M161.42 111.79v2.45h-4.14v-2.45h4.14Z"/><path fill="#FFF" d="M157.34 108.76h-4.13v29.86h4.13v-29.86Z"/><path stroke="#263238" d="M157.34 108.76v29.86h-4.13v-29.86h4.13Z"/><path fill="#FFF" d="M157.34 132.21h-4.13v2.44h4.13v-2.44Z"/><path stroke="#263238" d="M157.34 132.21v2.44h-4.13v-2.44h4.13Z"/><path fill="#FFF" d="M157.34 111.79h-4.13v2.45h4.13v-2.45Z"/><path stroke="#263238" d="M157.34 111.79v2.45h-4.13v-2.45h4.13Z"/><path fill="#FFF" d="M173.81 108.76h-4.13v29.86h4.13v-29.86Z"/><path stroke="#263238" d="M173.81 108.76v29.86h-4.13v-29.86h4.13Z"/><path fill="#FFF" d="M173.81 132.21h-4.13v2.44h4.13v-2.44Z"/><path stroke="#263238" d="M173.81 132.21v2.44h-4.13v-2.44h4.13Z"/><path fill="#FFF" d="M173.81 111.79h-4.13v2.45h4.13v-2.45Z"/><path stroke="#263238" d="M173.81 111.79v2.45h-4.13v-2.45h4.13Z"/><path fill="#FFF" d="M178.04 108.76h-4.13v29.86h4.13v-29.86Z"/><path stroke="#263238" d="M178.04 108.76v29.86h-4.13v-29.86h4.13Z"/><path fill="#FFF" d="M178.04 132.21h-4.13v2.44h4.13v-2.44Z"/><path stroke="#263238" d="M178.04 132.21v2.44h-4.13v-2.44h4.13Z"/><path fill="#FFF" d="M178.04 111.79h-4.13v2.45h4.13v-2.45Z"/><path stroke="#263238" d="M178.04 111.79v2.45h-4.13v-2.45h4.13Z"/><path fill="#FFF" d="M182.28 108.76h-4.14v29.86h4.14v-29.86Z"/><path stroke="#263238" d="M182.28 108.76v29.86h-4.14v-29.86h4.14Z"/><path fill="#FFF" d="M189.17 108.76h-6.93v29.86h6.93v-29.86Z"/><path stroke="#263238" d="M189.17 108.76v29.86h-6.93v-29.86h6.93Z"/><path fill="#FFF" d="M182.28 132.21h-4.14v2.44h4.14v-2.44Z"/><path stroke="#263238" d="M182.28 132.21v2.44h-4.14v-2.44h4.14Z"/><path fill="#FFF" d="M182.28 111.79h-4.14v2.45h4.14v-2.45Z"/><path stroke="#263238" d="M182.28 111.79v2.45h-4.14v-2.45h4.14Z"/><path fill="#FFF" d="M198.98 108.76h-4.13v29.86h4.13v-29.86Z"/><path stroke="#263238" d="M198.98 108.76v29.86h-4.13v-29.86h4.13Z"/><path fill="#FFF" d="M198.98 132.21h-4.13v2.44h4.13v-2.44Z"/><path stroke="#263238" d="M198.98 132.21v2.44h-4.13v-2.44h4.13Z"/><path fill="#FFF" d="M198.98 111.79h-4.13v2.45h4.13v-2.45Z"/><path stroke="#263238" d="M198.98 111.79v2.45h-4.13v-2.45h4.13Z"/><path fill="#FFF" d="M203.22 108.76h-4.14v29.86h4.14v-29.86Z"/><path stroke="#263238" d="M203.22 108.76v29.86h-4.14v-29.86h4.14Z"/><path fill="#FFF" d="M203.22 132.21h-4.14v2.44h4.14v-2.44Z"/><path stroke="#263238" d="M203.22 132.21v2.44h-4.14v-2.44h4.14Z"/><path fill="#FFF" d="M203.22 111.79h-4.14v2.45h4.14v-2.45Z"/><path stroke="#263238" d="M203.22 111.79v2.45h-4.14v-2.45h4.14Z"/><path fill="#FFF" d="m211.69 108.75-3.86 1.97 9.7 27.86 3.85-1.98-9.69-27.85Z"/><path stroke="#263238" d="m211.69 108.75 9.69 27.85-3.85 1.98-9.7-27.86 3.86-1.97Z"/><path fill="#FFF" d="m219.3 130.62-3.86 1.97.8 2.29 3.85-1.98-.79-2.28Z"/><path stroke="#263238" d="m219.3 130.62.79 2.28-3.85 1.98-.8-2.29 3.86-1.97Z"/><path fill="#FFF" d="m212.67 111.58-3.85 1.98.79 2.28 3.86-1.98-.8-2.28Z"/><path stroke="#263238" d="m212.67 111.58.8 2.28-3.86 1.98-.79-2.28 3.85-1.98Z"/><path fill="#FFF" d="M217.53 138.57h8.63l3.89-1.97-8.67-.01-3.85 1.98Z"/><path stroke="#263238" d="m226.16 138.57 3.89-1.97-8.67-.01-3.85 1.98h8.63Z"/><path fill="#FFF" d="M211.69 108.74h8.11l10.24 27.86-8.66-.01-9.69-27.85Z"/><path stroke="#263238" d="m219.8 108.74 10.24 27.86-8.66-.01-9.69-27.85h8.11Z"/><path fill="#FFF" d="M207.3 108.76h-4.14v29.86h4.14v-29.86Z"/><path stroke="#263238" d="M207.3 108.76v29.86h-4.14v-29.86h4.14Z"/><path fill="#FFF" d="M207.3 132.21h-4.14v2.44h4.14v-2.44Z"/><path stroke="#263238" d="M207.3 132.21v2.44h-4.14v-2.44h4.14Z"/><path fill="#FFF" d="M207.3 111.79h-4.14v2.45h4.14v-2.45Z"/><path stroke="#263238" d="M207.3 111.79v2.45h-4.14v-2.45h4.14Z"/><path fill="#FFF" d="M207.3 108.76h4.39l-3.86 1.95 9.7 27.86H207.3v-29.81Z"/><path stroke="#263238" d="m211.69 108.76-3.86 1.95 9.7 27.86H207.3v-29.81h4.39Z"/><path fill="#FFF" d="M169.58 180.05h-4.13v29.86h4.13v-29.86Z"/><path stroke="#263238" d="M169.58 180.05v29.86h-4.13v-29.86h4.13Z"/><path fill="#FFF" d="M169.58 203.5h-4.13v2.45h4.13v-2.45Z"/><path stroke="#263238" d="M169.58 203.5v2.45h-4.13v-2.45h4.13Z"/><path fill="#FFF" d="M169.58 183.08h-4.13v2.45h4.13v-2.45Z"/><path stroke="#263238" d="M169.58 183.08v2.45h-4.13v-2.45h4.13Z"/><path fill="#FFF" d="M165.5 180.05h-4.13v29.86h4.13v-29.86Z"/><path stroke="#263238" d="M165.5 180.05v29.86h-4.13v-29.86h4.13Z"/><path fill="#FFF" d="M165.5 203.5h-4.13v2.45h4.13v-2.45Z"/><path stroke="#263238" d="M165.5 203.5v2.45h-4.13v-2.45h4.13Z"/><path fill="#FFF" d="M165.5 183.08h-4.13v2.45h4.13v-2.45Z"/><path stroke="#263238" d="M165.5 183.08v2.45h-4.13v-2.45h4.13Z"/><path fill="#FFF" d="M161.42 180.05h-4.14v29.86h4.14v-29.86Z"/><path stroke="#263238" d="M161.42 180.05v29.86h-4.14v-29.86h4.14Z"/><path fill="#FFF" d="M161.42 203.5h-4.14v2.45h4.14v-2.45Z"/><path stroke="#263238" d="M161.42 203.5v2.45h-4.14v-2.45h4.14Z"/><path fill="#FFF" d="M161.42 183.08h-4.14v2.45h4.14v-2.45Z"/><path stroke="#263238" d="M161.42 183.08v2.45h-4.14v-2.45h4.14Z"/><path fill="#FFF" d="M157.34 180.05h-4.13v29.86h4.13v-29.86Z"/><path stroke="#263238" d="M157.34 180.05v29.86h-4.13v-29.86h4.13Z"/><path fill="#FFF" d="M157.34 203.5h-4.13v2.45h4.13v-2.45Z"/><path stroke="#263238" d="M157.34 203.5v2.45h-4.13v-2.45h4.13Z"/><path fill="#FFF" d="M157.34 183.08h-4.13v2.45h4.13v-2.45Z"/><path stroke="#263238" d="M157.34 183.08v2.45h-4.13v-2.45h4.13Z"/><path fill="#FFF" d="M173.81 180.05h-4.13v29.86h4.13v-29.86Z"/><path stroke="#263238" d="M173.81 180.05v29.86h-4.13v-29.86h4.13Z"/><path fill="#FFF" d="M173.81 203.5h-4.13v2.45h4.13v-2.45Z"/><path stroke="#263238" d="M173.81 203.5v2.45h-4.13v-2.45h4.13Z"/><path fill="#FFF" d="M173.81 183.08h-4.13v2.45h4.13v-2.45Z"/><path stroke="#263238" d="M173.81 183.08v2.45h-4.13v-2.45h4.13Z"/><path fill="#FFF" d="M178.04 180.05h-4.13v29.86h4.13v-29.86Z"/><path stroke="#263238" d="M178.04 180.05v29.86h-4.13v-29.86h4.13Z"/><path fill="#FFF" d="M178.04 203.5h-4.13v2.45h4.13v-2.45Z"/><path stroke="#263238" d="M178.04 203.5v2.45h-4.13v-2.45h4.13Z"/><path fill="#FFF" d="M178.04 183.08h-4.13v2.45h4.13v-2.45Z"/><path stroke="#263238" d="M178.04 183.08v2.45h-4.13v-2.45h4.13Z"/><path fill="#FFF" d="M182.28 180.05h-4.14v29.86h4.14v-29.86Z"/><path stroke="#263238" d="M182.28 180.05v29.86h-4.14v-29.86h4.14Z"/><path fill="#FFF" d="M189.17 180.05h-6.93v29.86h6.93v-29.86Z"/><path stroke="#263238" d="M189.17 180.05v29.86h-6.93v-29.86h6.93Z"/><path fill="#FFF" d="M182.28 203.5h-4.14v2.45h4.14v-2.45Z"/><path stroke="#263238" d="M182.28 203.5v2.45h-4.14v-2.45h4.14Z"/><path fill="#FFF" d="M182.28 183.08h-4.14v2.45h4.14v-2.45Z"/><path stroke="#263238" d="M182.28 183.08v2.45h-4.14v-2.45h4.14Z"/><path fill="#FFF" d="M198.98 180.05h-4.13v29.86h4.13v-29.86Z"/><path stroke="#263238" d="M198.98 180.05v29.86h-4.13v-29.86h4.13Z"/><path fill="#FFF" d="M198.98 203.5h-4.13v2.45h4.13v-2.45Z"/><path stroke="#263238" d="M198.98 203.5v2.45h-4.13v-2.45h4.13Z"/><path fill="#FFF" d="M198.98 183.08h-4.13v2.45h4.13v-2.45Z"/><path stroke="#263238" d="M198.98 183.08v2.45h-4.13v-2.45h4.13Z"/><path fill="#FFF" d="M203.22 180.05h-4.14v29.86h4.14v-29.86Z"/><path stroke="#263238" d="M203.22 180.05v29.86h-4.14v-29.86h4.14Z"/><path fill="#FFF" d="M203.22 203.5h-4.14v2.45h4.14v-2.45Z"/><path stroke="#263238" d="M203.22 203.5v2.45h-4.14v-2.45h4.14Z"/><path fill="#FFF" d="M203.22 183.08h-4.14v2.45h4.14v-2.45Z"/><path stroke="#263238" d="M203.22 183.08v2.45h-4.14v-2.45h4.14Z"/><path fill="#FFF" d="m211.68 180.04-3.85 1.97 9.69 27.86 3.86-1.98-9.7-27.85Z"/><path stroke="#263238" d="m211.68 180.04 9.7 27.85-3.86 1.98-9.69-27.86 3.85-1.97Z"/><path fill="#FFF" d="m219.2 201.38-3.85 1.98.8 2.28 3.85-1.98-.8-2.28Z"/><path stroke="#263238" stroke-width=".999" d="m219.2 201.38.8 2.28-3.85 1.98-.8-2.28 3.85-1.98Z"/><path fill="#FFF" d="m212.67 182.87-3.86 1.97.8 2.29 3.85-1.98-.79-2.28Z"/><path stroke="#263238" d="m212.67 182.87.79 2.28-3.85 1.98-.8-2.29 3.86-1.97Z"/><path fill="#FFF" d="M217.53 209.86h8.63l3.89-1.96-8.67-.02-3.85 1.98Z"/><path stroke="#263238" d="m226.16 209.86 3.89-1.96-8.67-.02-3.85 1.98h8.63Z"/><path fill="#FFF" d="M211.69 180.03h8.11l10.24 27.87-8.66-.02-9.69-27.85Z"/><path stroke="#263238" d="m219.8 180.03 10.24 27.87-8.66-.02-9.69-27.85h8.11Z"/><path fill="#FFF" d="M207.3 180.05h-4.14v29.86h4.14v-29.86Z"/><path stroke="#263238" d="M207.3 180.05v29.86h-4.14v-29.86h4.14Z"/><path fill="#FFF" d="M207.3 203.5h-4.14v2.45h4.14v-2.45Z"/><path stroke="#263238" d="M207.3 203.5v2.45h-4.14v-2.45h4.14Z"/><path fill="#FFF" d="M207.3 183.08h-4.14v2.45h4.14v-2.45Z"/><path stroke="#263238" d="M207.3 183.08v2.45h-4.14v-2.45h4.14Z"/><path fill="#FFF" d="M207.3 180.05h4.39l-3.86 1.95 9.7 27.86H207.3v-29.81Z"/><path stroke="#263238" d="m211.69 180.05-3.86 1.95 9.7 27.86H207.3v-29.81h4.39ZM191.82 210.02v70.02M153.42 218.69h79.88"/><path stroke="#263238" stroke-width="2" d="M169.81 224.61v12.7M173.3 224.61v12.7M209.93 224.61v12.7M213.41 224.61v12.7"/><path stroke="#263238" d="M255.56 69V47.47h25.81M283.27 47.47h10.87v53.4h-38.58V72.26"/><path stroke="#263238" d="M280.1 93.67h-19.34v-39h28.18v39h-6.62"/><path stroke="#263238" d="M280.27 66.67v15h-10.84v-15h10.84ZM297.57 93.89V80.46h16.1M314.85 80.46h6.79v33.31h-24.07V95.92"/><path stroke="#263238" d="M312.88 109.28h-12.06V84.95h17.57v24.33h-4.13"/><path stroke="#263238" d="M312.99 92.44v9.35h-6.77v-9.35h6.77Z"/><path stroke="#263238" stroke-linecap="round" stroke-linejoin="round" d="M42.44 283.42h278.99"/><path fill="#263238" d="M62.22 199.42s-2.96-48-1.48-53.4c1.48-5.4 10.64-5.1 12.37-5.1 1.73 0 37.84 0 43.03 3 5.2 3 5.94 76.8 5.94 76.8H64.7l-2.48-21.3Z"/><path stroke="#263238" d="M60.74 146.02c1.48-5.4 10.64-5.1 12.37-5.1 1.73 0 37.84 0 43.03 3 5.2 3 5.94 76.8 5.94 76.8H64.7l-2.48-21.3s-2.96-48-1.48-53.4Z"/><path fill="#263238" d="M124.05 195.52s-5.93 0-7.12 7.2c-1.19 7.2 3.49 36.9 3.83 45.3.35 8.4 1.57 20.1 1.57 20.1h21.02l4.7-72.6h-24Z"/><path stroke="#263238" d="M116.93 202.72c-1.19 7.2 3.49 36.9 3.83 45.3.35 8.4 1.57 20.1 1.57 20.1h21.02l4.7-72.6h-24s-5.93 0-7.12 7.2Z"/><path fill="#636363" d="M148.05 195.52s-5.94 0-7.42 7.2c-1.49 7.2 1.98 36.9 1.98 45.3 0 8.4.74 20.1.74 20.1h7.42s.74-21.6.74-24.6 2.97-34.2 1.49-40.5c-1.49-6.3-2.72-6.9-4.95-7.5Z"/><path stroke="#263238" d="M140.63 202.72c-1.49 7.2 1.98 36.9 1.98 45.3 0 8.4.74 20.1.74 20.1h7.42s.74-21.6.74-24.6 2.97-34.2 1.49-40.5c-1.49-6.3-2.72-6.9-4.95-7.5 0 0-5.94 0-7.42 7.2Z"/><path fill="#FFF" d="M85.35 144.07s-19.66 9.75-19.66 10.8c0 1.05 6.68 29.25 9.15 33.6 2.47 4.35 4.2 9.15 4.95 10.95.74 1.8 3.95 6.3 6.55 6.3 2.6 0 5.69-3.75 13.97-5.25 8.29-1.5 15.71-1.35 17.19-2.7 1.49-1.35-.37-4.95-.61-5.7-.25-.75-1.24-3.45-1.24-3.45s8.04 8.1 11.25 8.4c3.22.3 5.57-1.65 6.06-4.2.5-2.55-1.36-8.7-2.59-12-1.24-3.3-7.05-8.55-9.65-12.6-2.6-4.05-5.94-8.85-8.29-12.15-2.04-2.9-4.57-5.25-7.42-6.9-2.22-1.2-7.91-4.2-11.5-4.65-3.58-.45-8.16-.45-8.16-.45Z"/><path stroke="#263238" d="M65.69 154.87c0 1.05 6.68 29.25 9.15 33.6 2.47 4.35 4.2 9.15 4.95 10.95.74 1.8 3.95 6.3 6.55 6.3 2.6 0 5.69-3.75 13.97-5.25 8.29-1.5 15.71-1.35 17.19-2.7 1.49-1.35-.37-4.95-.61-5.7-.25-.75-1.24-3.45-1.24-3.45s8.04 8.1 11.25 8.4c3.22.3 5.57-1.65 6.06-4.2.5-2.55-1.36-8.7-2.59-12-1.24-3.3-7.05-8.55-9.65-12.6-2.6-4.05-5.94-8.85-8.29-12.15-2.04-2.9-4.57-5.25-7.42-6.9-2.22-1.2-7.91-4.2-11.5-4.65-3.58-.45-8.16-.45-8.16-.45s-19.66 9.75-19.66 10.8Z"/><path stroke="#263238" d="M123.89 179.22s-2.8 9.4-1.81 11.8c.99 2.4 3.62 3.2 3.62 3.2M82.38 147.22l16.33 19.2 2.47-14.4"/><path fill="#FFF" d="M124.68 180.37s3.95 3.45 5.31 2.25c1.36-1.2.99-3.45.13-5.85-.87-2.4-3.71-3.75-4.83-2.7-1.11 1.05-1.48 5.25-.61 6.3Z"/><path stroke="#263238" d="M129.99 182.62c1.36-1.2.99-3.45.13-5.85-.87-2.4-3.71-3.75-4.83-2.7-1.11 1.05-1.48 5.25-.61 6.3 0 0 3.95 3.45 5.31 2.25Z"/><path fill="#FFF" d="m84.11 137.77.62 9 13.11 15.6 1.98-11.1.86-4.65s-8.53-1.8-11.25-4.05c-2.72-2.25-5.32-4.8-5.32-4.8Z"/><path stroke="#263238" d="m84.73 146.77 13.11 15.6 1.98-11.1.86-4.65s-8.53-1.8-11.25-4.05c-2.72-2.25-5.32-4.8-5.32-4.8l.62 9Z"/><path fill="#263238" d="M100.68 146.62s-8.53-1.8-11.25-4.05c-2.72-2.25-5.32-4.8-5.32-4.8l.62 9 3.32 3.95c2.57.88 5.14 1.3 6.89.49 1.93-.86 3.79-1.97 5.52-3.33l.22-1.26Z"/><path stroke="#263238" d="M89.43 142.57c-2.72-2.25-5.32-4.8-5.32-4.8l.62 9 3.32 3.95c2.57.88 5.14 1.3 6.89.49 1.93-.86 3.79-1.97 5.52-3.33l.22-1.26s-8.53-1.8-11.25-4.05Z"/><path fill="#263238" d="M80.2 130.83s-2.31-12.81-2.31-15c0-2.2 6.26-13.41 14.84-11.61 8.57 1.8 13.35 7.8 13.68 9.6.33 1.8-.99 5.4-.99 5.4.26 1.04.43 2.12.5 3.21 0 1.2-1.49 6.39-1.49 6.39l-.49-5.4s-4.12 1.41-6.43 1.41c-2.31 0-6.27-1.8-6.27-1.8s.83 3.19 0 4.8c-.83 1.6-3.29 3-3.29 3s-.33 3.19-1.32 3.19a17.31 17.31 0 0 1-3.63-.6c-.66-.19-2.8-2.59-2.8-2.59Z"/><path stroke="#263238" d="M77.89 115.83c0-2.2 6.26-13.41 14.84-11.61 8.57 1.8 13.35 7.8 13.68 9.6.33 1.8-.99 5.4-.99 5.4.26 1.04.43 2.12.5 3.21 0 1.2-1.49 6.39-1.49 6.39l-.49-5.4s-4.12 1.41-6.43 1.41c-2.31 0-6.27-1.8-6.27-1.8s.83 3.19 0 4.8c-.83 1.6-3.29 3-3.29 3s-.33 3.19-1.32 3.19a17.31 17.31 0 0 1-3.63-.6c-.66-.19-2.8-2.59-2.8-2.59s-2.31-12.81-2.31-15Z"/><path fill="#FFF" d="M83.99 132.22s-.33-4.8-3.63-3.6c-3.3 1.2-1.15 5.6.66 7.8 1.82 2.21 2.31.6 2.31.6s.49 4.61 2.96 7.2c2.48 2.6 6.27 7.4 10.23 6.8 3.96-.6 6.76-6.6 7.26-11 .49-4.39.82-14.8.82-16-.12-1.35-.34-2.69-.66-3.99 0 0-3.46 3-6.59 2.19-3.14-.8-6.44-2.4-7.92-2.4-1.48 0-1.16 2.61-.66 3.4.49.8 1.81 2.4.33 3.41-1.48 1-3.46 1.99-3.46 1.99v4.2l-1.65-.6Z"/><path stroke="#263238" d="M80.36 128.62c-3.3 1.2-1.15 5.6.66 7.8 1.82 2.21 2.31.6 2.31.6s.49 4.61 2.96 7.2c2.48 2.6 6.27 7.4 10.23 6.8 3.96-.6 6.76-6.6 7.26-11 .49-4.39.82-14.8.82-16-.12-1.35-.34-2.69-.66-3.99 0 0-3.46 3-6.59 2.19-3.14-.8-6.44-2.4-7.92-2.4-1.48 0-1.16 2.61-.66 3.4.49.8 1.81 2.4.33 3.41-1.48 1-3.46 1.99-3.46 1.99v4.2l-1.65-.6s-.33-4.8-3.63-3.6Z"/><path stroke="#263238" d="m99.76 130.04-.81 10.84-4.06-1.43"/><path fill="#263238" d="M96.34 140.33s-1.98 0-3.07.11c-.65.13-1.32.17-1.98.11-.45-.11-.99-.55-.09.55.9 1.09 3.61 2.4 5.06 2.63 1.44.22 2.44-.34 3.51-1.2 1.08-.87 1.98-1.76 1.45-1.97-.75-.16-1.5-.24-2.26-.22v.55l-2.62-.56Z"/><path stroke="#263238" d="M93.27 140.44c-.65.13-1.32.17-1.98.11-.45-.11-.99-.55-.09.55.9 1.09 3.61 2.4 5.06 2.63 1.44.22 2.44-.34 3.51-1.2 1.08-.87 1.98-1.76 1.45-1.97-.75-.16-1.5-.24-2.26-.22v.55l-2.62-.56s-1.98 0-3.07.11Z"/><path fill="#263238" fill-rule="evenodd" d="M94.08 132.28c0 .82-.26 1.48-.59 1.48-.32 0-.59-.66-.59-1.48 0-.81.27-1.47.59-1.47.33 0 .59.66.59 1.47Z"/><path fill="#263238" d="M102.29 132.07c0 .81-.26 1.47-.58 1.47-.32 0-.59-.66-.59-1.47 0-.82.26-1.48.59-1.48.33 0 .58.66.58 1.48Z"/><path stroke="#263238" d="M91.28 130.04s2.44-2.08 4.42-1.2M100.22 128.95s2.53-1.43 3.61-.12M95.08 135s-.55.76-2.35 1.42M100.04 134.53c.53.44 1.11.81 1.71 1.1"/><path fill="#FFF" d="m107.73 162.97.87-2.7s1.11 1.35 4.08 1.35c2.97 0 7.79 2.55 7.79 2.55l.37.75s.87-3.15 2.48-3.75c1.6-.6 4.2-2.7 4.57-3.3l.37-.6 1.73 1.8-7.66 12.3-14.35-6.75-.25-1.65Z"/><path stroke="#263238" d="M108.6 160.27s1.11 1.35 4.08 1.35c2.97 0 7.79 2.55 7.79 2.55l.37.75s.87-3.15 2.48-3.75c1.6-.6 4.2-2.7 4.57-3.3l.37-.6 1.73 1.8-7.66 12.3-14.35-6.75-.25-1.65.87-2.7Z"/><path fill="#FFF" d="m107.86 161.92-3.71 23.85 12.86 3.6 4.7-23.1-13.85-4.35Z"/><path stroke="#263238" d="m104.15 185.77 12.86 3.6 4.7-23.1-13.85-4.35-3.71 23.85Z"/><path fill="#FFF" d="m121.71 166.27 8.28-7.2-4.94 23.1-8.04 7.2 4.7-23.1Z"/><path stroke="#263238" d="m129.99 159.07-4.94 23.1-8.04 7.2 4.7-23.1 8.28-7.2Z"/><path fill="#FFF" d="m91.9 181.42 5.61-2.8s4.95-6.39 5.44-6.99c.5-.6 5.44-1.2 5.44-1.2l5.44 4.39s.99 1.01 0 1.4c-.99.4-3.13-.8-3.13-.8l-2.14-1.6-1.32.81 2.8 2.79s.83 2.61.83 4c-.02.9-.19 1.79-.5 2.6l-1.65 2.8-4.94-3s-2.97 2.6-3.63 3c-.67.41-6.93-.19-6.93-.19l-1.32-5.21Z"/><path stroke="#263238" d="M97.51 178.62s4.95-6.39 5.44-6.99c.5-.6 5.44-1.2 5.44-1.2l5.44 4.39s.99 1.01 0 1.4c-.99.4-3.13-.8-3.13-.8l-2.14-1.6-1.32.81 2.8 2.79s.83 2.61.83 4c-.02.9-.19 1.79-.5 2.6l-1.65 2.8-4.94-3s-2.97 2.6-3.63 3c-.67.41-6.93-.19-6.93-.19l-1.32-5.21 5.61-2.8Z"/><path stroke="#263238" d="m103.73 174.42 1.75-.41 1.51.51M102.06 178.36s3.92-1.32 4.17-1.32c.26 0 3.18 3.65 3.18 3.65l.33 3.94"/><path stroke="#263238" d="m102.23 180.89 3.17.1 2.92 2.33c.29 1.13.43 2.32.4 3.5"/><path fill="#FFF" d="M69.15 152.02s-3.63.6-4.13 4.4c-.49 3.8-3.79 35.8-2.8 39.4.99 3.6 19.3-2.59 19.95-3 .66-.4 11.05-4.2 11.22-4.99.17-.8.49-7.41-.99-7.8-1.49-.4-15.67.19-15.67.19l-1.98-20.8-5.6-7.4Z"/><path stroke="#263238" d="M69.15 152.02s-3.63.6-4.13 4.4c-.49 3.8-3.79 35.8-2.8 39.4.99 3.6 19.3-2.59 19.95-3 .66-.4 11.05-4.2 11.22-4.99.17-.8.49-7.41-.99-7.8-1.49-.4-15.67.19-15.67.19l-1.98-20.8M67.99 180.22h8.74M66.34 179.62h7.59"/><path fill="#FFF" d="M127.77 168.97s-3.34 4.2-3.22 5.25c.13 1.05 1.86-.6 2.23-1.05.37-.45 2.1-1.65 2.1-2.85 0-1.2-.37-2.55-1.11-1.35Z"/><path stroke="#263238" d="M124.55 174.22c.13 1.05 1.86-.6 2.23-1.05.37-.45 2.1-1.65 2.1-2.85 0-1.2-.37-2.55-1.11-1.35 0 0-3.34 4.2-3.22 5.25Z"/><path fill="#FFF" d="M128.14 171.52s.99 1.2.99 2.25-2.1 4.5-3.09 4.5c-.99 0-.25-2.4.24-3.45.5-1.05 1.86-3.3 1.86-3.3Z"/><path stroke="#263238" d="M129.13 173.77c0 1.05-2.1 4.5-3.09 4.5-.99 0-.25-2.4.24-3.45.5-1.05 1.86-3.3 1.86-3.3s.99 1.2.99 2.25Z"/><path fill="#FFF" d="M129.13 173.77s1.24.45 1.24 1.8-2.35 3.6-2.97 3.75c-.62.15-.5-1.2 0-2.25.49-1.05 1.73-3.3 1.73-3.3Z"/><path stroke="#263238" d="M130.37 175.57c0 1.35-2.35 3.6-2.97 3.75-.62.15-.5-1.2 0-2.25.49-1.05 1.73-3.3 1.73-3.3s1.24.45 1.24 1.8Z"/><path fill="#FFF" d="M130.36 175.57c.26.76.34 1.59.25 2.4-.12 1.5-1.98 2.4-2.59 2.4-.62 0-.62-1.05-.62-1.05 1.04-1.18 2.03-2.43 2.96-3.75Z"/><path stroke="#263238" d="M130.61 177.97c-.12 1.5-1.98 2.4-2.59 2.4-.62 0-.62-1.05-.62-1.05 1.04-1.18 2.03-2.43 2.96-3.75.26.76.34 1.59.25 2.4Z"/><path fill="#FFF" d="M91.47 283.42h-2.35l-1.17-18.9h4.7l-1.18 18.9Z"/><path stroke="#263238" d="m89.12 283.42-1.17-18.9h4.7l-1.18 18.9h-2.35Z"/><path fill="#FFF" d="M69.95 283.42H67.6l-1.17-18.9h4.7l-1.18 18.9Z"/><path stroke="#263238" d="m67.6 283.42-1.17-18.9h4.7l-1.18 18.9H67.6Z"/><path fill="#FFF" d="M147.61 283.42h-2.35l-1.17-18.9h4.7l-1.18 18.9Z"/><path stroke="#263238" d="m145.26 283.42-1.17-18.9h4.7l-1.18 18.9h-2.35Z"/><path fill="#FFF" d="M126.1 283.42h-2.35l-1.18-18.9h4.7l-1.17 18.9Z"/><path stroke="#263238" d="m123.75 283.42-1.18-18.9h4.7l-1.17 18.9h-2.35Z"/><path fill="#263238" d="M144.34 228.36H88.19v39.6h56.15v-39.6Z"/><path stroke="#263238" d="M144.34 228.36v39.6H88.19v-39.6h56.15Z"/><path fill="#FFF" d="M185.07 222.03s5.93-3 7.25-4.2c1.32-1.2 3.13 1.39 2.31 4.2-.83 2.8-2.97 7.8-6.27 10.2-3.29 2.4-5.93 4.39-6.59 5.19-.67.8-.5 3.81-3.3 5.01-2.8 1.2-6.27-1.2-8.25-5.01-1.97-3.8-3.29-6.39-3.29-6.39s.16-2.81 3.46-4.2c3.29-1.4 8.9-2.01 8.9-2.01l5.78-2.79Z"/><path stroke="#263238" d="M192.32 217.83c1.32-1.2 3.13 1.39 2.31 4.2-.83 2.8-2.97 7.8-6.27 10.2-3.29 2.4-5.93 4.39-6.59 5.19-.67.8-.5 3.81-3.3 5.01-2.8 1.2-6.27-1.2-8.25-5.01-1.97-3.8-3.29-6.39-3.29-6.39s.16-2.81 3.46-4.2c3.29-1.4 8.9-2.01 8.9-2.01l5.78-2.79s5.93-3 7.25-4.2Z"/><path fill="#FFF" d="M117.5 197.77s3.92-1.15 4.91-.55c.98.6 4.28 4.41 4.28 4.41s19.95.39 21.44 1.2c1.48.8 16.82 15 20.12 16.99 3.3 2 6.1 3.8 6.1 3.8l-2.48 13.2v1.2l.17 2.01s-8.58-3.21-10.72-3.81c-2.14-.6-11.04-6.2-11.87-6.2-.83 0-7.58-2.4-7.58-2.4s-.99-.79-11.71-1.99-22.76-2.61-27.05-2.81c-4.29-.19-9.89-.6-12.03-1.6-2.14-1-5.94-8-6.6-12.2-.65-4.2 6.27-7.8 9.23-9.4 2.97-1.6 14.02-3.6 16-3.6 1.98 0 7.79 1.75 7.79 1.75Z"/><path stroke="#263238" d="M122.41 197.22c.98.6 4.28 4.41 4.28 4.41s19.95.39 21.44 1.2c1.48.8 16.82 15 20.12 16.99 3.3 2 6.1 3.8 6.1 3.8l-2.48 13.2v1.2l.17 2.01s-8.58-3.21-10.72-3.81c-2.14-.6-11.04-6.2-11.87-6.2-.83 0-7.58-2.4-7.58-2.4s-.99-.79-11.71-1.99-22.76-2.61-27.05-2.81c-4.29-.19-9.89-.6-12.03-1.6-2.14-1-5.94-8-6.6-12.2-.65-4.2 6.27-7.8 9.23-9.4 2.97-1.6 14.02-3.6 16-3.6 1.98 0 7.79 1.75 7.79 1.75s3.92-1.15 4.91-.55Z"/><path fill="#FFF" d="m121.25 203.62-3.3 5.81 4.46-3.6-1.16-2.21Z"/><path stroke="#263238" d="m121.25 203.62-3.3 5.81 4.46-3.6"/><path fill="#FFF" d="M171.87 221.02s4.79-4.6 5.78-6c.98-1.39 4.28-9 4.94-11.4.66-2.4 2.31-3.6 3.46-1.8 1.16 1.8 1.98 5.4 2.64 7.01.66 1.6-.33 9.39-2.3 12-1.98 2.6-4.72 8.91-5.28 10.2-1.49 3.39-3.8 3.79-5.28 3.99-1.48.2-5.11-4.59-5.11-4.59l1.15-9.41Z"/><path stroke="#263238" d="M177.65 215.02c.98-1.39 4.28-9 4.94-11.4.66-2.4 2.31-3.6 3.46-1.8 1.16 1.8 1.98 5.4 2.64 7.01.66 1.6-.33 9.39-2.3 12-1.98 2.6-4.72 8.91-5.28 10.2-1.49 3.39-3.8 3.79-5.28 3.99-1.48.2-5.11-4.59-5.11-4.59l1.15-9.41s4.79-4.6 5.78-6Z"/><path fill="#FFF" d="M98.5 207.63s4.95-1.2 9.4-.6 13.52 3.99 17.31 5.19c3.79 1.2 10.55 1.8 13.69 3.21 3.13 1.4 11.38 3.19 17.64 3.19s15.83 1.01 15.83 1.01-1.32 11.59-.99 13.8c.32 1.77.76 3.5 1.32 5.19 0 0-12.7 1.2-16.33 1.8-3.62.6-18.3-2.19-20.77-3-2.47-.8-6.1-2-8.41-2-2.31 0-6.76 1.2-13.19 2s-15.5-2.6-16.65-2.79c-1.16-.2-5.28-2.01-6.27-2.81-.99-.79-6.76-13.2-4.79-18.4 1.98-5.2 4.46-6 4.46-6l7.75.21Z"/><path stroke="#263238" d="M98.5 207.63s4.95-1.2 9.4-.6 13.52 3.99 17.31 5.19c3.79 1.2 10.55 1.8 13.69 3.21 3.13 1.4 11.38 3.19 17.64 3.19s15.83 1.01 15.83 1.01-1.32 11.59-.99 13.8c.32 1.77.76 3.5 1.32 5.19 0 0-12.7 1.2-16.33 1.8-3.62.6-18.3-2.19-20.77-3-2.47-.8-6.1-2-8.41-2-2.31 0-6.76 1.2-13.19 2s-15.5-2.6-16.65-2.79c-1.16-.2-5.28-2.01-6.27-2.81-.99-.79-6.76-13.2-4.79-18.4 1.98-5.2 4.46-6 4.46-6"/><path fill="#FFF" d="M128.83 227.8c3.18.77 6.55 3.11 11.11 5.28 6.08 2.88 18.24 2.62 19.81 2.88 1.57.27 5.55 0 5.55 0l-36.47-8.16Z"/><path stroke="#263238" d="M128.83 227.8c3.18.77 6.55 3.11 11.11 5.28 6.08 2.88 18.24 2.62 19.81 2.88 1.57.27 5.55 0 5.55 0"/><path fill="#FFF" d="m104.31 230.52 1.81.31c5.28.96 15.34-2.56 19.55-3.2l-21.36 2.89Z"/><path stroke="#263238" d="m104.31 230.52 1.81.31c5.28.96 15.34-2.56 19.55-3.2"/><path fill="#FFF" d="M98.99 229.87s.95 0 3.43.36l-3.43-.36Z"/><path stroke="#263238" d="M98.99 229.87s.95 0 3.43.36"/><path fill="#263238" d="M66.92 195.52s-5.94 0-7.12 7.2c-1.19 7.2 3.46 36.9 3.83 45.3.37 8.4 1.56 20.1 1.56 20.1h21.03l4.69-72.6H66.92Z"/><path stroke="#263238" d="M59.8 202.72c-1.19 7.2 3.46 36.9 3.83 45.3.37 8.4 1.56 20.1 1.56 20.1h21.03l4.69-72.6H66.92s-5.94 0-7.12 7.2Z"/><path fill="#636363" d="M90.91 195.52s-5.93 0-7.42 7.2c-1.48 7.2 1.98 36.9 1.98 45.3 0 8.4.75 20.1.75 20.1h7.42s.74-21.6.74-24.6 2.97-34.2 1.48-40.5c-1.48-6.3-2.72-6.9-4.95-7.5Z"/><path stroke="#263238" d="M83.49 202.72c-1.48 7.2 1.98 36.9 1.98 45.3 0 8.4.75 20.1.75 20.1h7.42s.74-21.6.74-24.6 2.97-34.2 1.48-40.5c-1.48-6.3-2.72-6.9-4.95-7.5 0 0-5.93 0-7.42 7.2Z"/><path fill="#FFF" d="M139.2 283.42h-2.35l-1.17-18.9h4.7l-1.18 18.9Z"/><path stroke="#263238" d="m136.85 283.42-1.17-18.9h4.7l-1.18 18.9h-2.35Z"/><path fill="#FFF" d="M159.24 283.42h-2.35l-1.17-18.9h4.7l-1.18 18.9Z"/><path stroke="#263238" d="m156.89 283.42-1.17-18.9h4.7l-1.18 18.9h-2.35Z"/><path fill="#FFF" d="M168.64 283.42h-2.35l-1.17-18.9h4.69l-1.17 18.9Z"/><path stroke="#263238" d="m166.29 283.42-1.17-18.9h4.69l-1.17 18.9h-2.35Z"/><path fill="#FFF" d="M188.42 283.42h-2.35l-1.17-18.9h4.7l-1.18 18.9Z"/><path stroke="#263238" d="m186.07 283.42-1.17-18.9h4.7l-1.18 18.9h-2.35Z"/><path fill="#263238" d="M136.3 239.92h51.67c.95 0 1.86.46 2.53 1.28.68.81 1.06 1.92 1.06 3.07v30.75h-58.87v-30.75c0-.57.09-1.14.28-1.67.18-.53.44-1.01.78-1.41.33-.41.73-.73 1.17-.94.44-.22.91-.33 1.38-.33Z"/><path stroke="#263238" d="M187.97 239.92c.95 0 1.86.46 2.53 1.28.68.81 1.06 1.92 1.06 3.07v30.75h-58.87v-30.75c0-.57.09-1.14.28-1.67.18-.53.44-1.01.78-1.41.33-.41.73-.73 1.17-.94.44-.22.91-.33 1.38-.33h51.67Z"/><path fill="#636363" d="M187.99 239.92H169.2c-.95 0-1.87.46-2.54 1.28-.67.81-1.05 1.92-1.05 3.07v30.75h25.97v-30.75c0-1.15-.38-2.26-1.05-3.07-.67-.82-1.59-1.27-2.54-1.28Z"/><path stroke="#263238" d="M169.2 239.92c-.95 0-1.87.46-2.54 1.28-.67.81-1.05 1.92-1.05 3.07v30.75h25.97v-30.75c0-1.15-.38-2.26-1.05-3.07-.67-.82-1.59-1.27-2.54-1.28H169.2Z"/></g></svg>