<svg width="130.000000" height="130.000000" viewBox="0 0 130 130" fill="none" xmlns="http://www.w3.org/2000/svg" xmlns:xlink="http://www.w3.org/1999/xlink">
	<desc>
			Created with Pixso.
	</desc>
	<defs>
		<clipPath id="clip597_2164">
			<rect id="Shared goals-bro 2" width="130.000000" height="130.000000" fill="white" fill-opacity="0"/>
		</clipPath>
	</defs>
	<rect id="Shared goals-bro 2" width="130.000000" height="130.000000" fill="#FFFFFF" fill-opacity="0"/>
	<g clip-path="url(#clip597_2164)">
		<path id="Vector" d="M113.96 43.51L113.96 96.19L90.74 96.19L90.74 43.51L113.96 43.51Z" stroke="#263238" stroke-opacity="1.000000" stroke-width="0.750000" stroke-linejoin="round"/>
		<path id="Vector" d="M111.92 45.54L111.92 94.15L92.78 94.15L92.78 45.54L111.92 45.54Z" stroke="#263238" stroke-opacity="1.000000" stroke-width="0.750000" stroke-linejoin="round"/>
		<path id="Vector" d="M94.43 67L94.95 67" stroke="#263238" stroke-opacity="1.000000" stroke-width="0.750000" stroke-linejoin="round" stroke-linecap="round"/>
		<path id="Vector" d="M95.55 57.49L100.45 57.49" stroke="#263238" stroke-opacity="1.000000" stroke-width="0.750000" stroke-linejoin="round" stroke-linecap="round"/>
		<path id="Vector" d="M101.23 49.71L104.94 49.71" stroke="#263238" stroke-opacity="1.000000" stroke-width="0.750000" stroke-linejoin="round" stroke-linecap="round"/>
		<path id="Vector" d="M105.33 48.35L105.72 48.35" stroke="#263238" stroke-opacity="1.000000" stroke-width="0.750000" stroke-linejoin="round" stroke-linecap="round"/>
		<path id="Vector" d="M96.06 90.11L96.51 90.11" stroke="#263238" stroke-opacity="1.000000" stroke-width="0.750000" stroke-linejoin="round" stroke-linecap="round"/>
		<path id="Vector" d="M97.07 88.32L97.54 88.32" stroke="#263238" stroke-opacity="1.000000" stroke-width="0.750000" stroke-linejoin="round" stroke-linecap="round"/>
		<path id="Vector" d="M98.55 77.45L103.82 77.45" stroke="#263238" stroke-opacity="1.000000" stroke-width="0.750000" stroke-linejoin="round" stroke-linecap="round"/>
		<path id="Vector" d="M104.36 69.36L108.49 69.36" stroke="#263238" stroke-opacity="1.000000" stroke-width="0.750000" stroke-linejoin="round" stroke-linecap="round"/>
		<path id="Vector" d="M109.1 67.6L109.51 67.6" stroke="#263238" stroke-opacity="1.000000" stroke-width="0.750000" stroke-linejoin="round" stroke-linecap="round"/>
		<path id="Vector" d="M98.55 84.29L102.35 84.29" stroke="#263238" stroke-opacity="1.000000" stroke-width="0.750000" stroke-linejoin="round" stroke-linecap="round"/>
		<path id="Vector" d="M102.9 75.87L107.21 75.87" stroke="#263238" stroke-opacity="1.000000" stroke-width="0.750000" stroke-linejoin="round" stroke-linecap="round"/>
		<path id="Vector" d="M107.71 74.12L108.22 74.12" stroke="#263238" stroke-opacity="1.000000" stroke-width="0.750000" stroke-linejoin="round" stroke-linecap="round"/>
		<path id="Vector" d="M93.85 73.82L94.43 73.82" stroke="#263238" stroke-opacity="1.000000" stroke-width="0.750000" stroke-linejoin="round" stroke-linecap="round"/>
		<path id="Vector" d="M94.89 65.07L99.48 65.07" stroke="#263238" stroke-opacity="1.000000" stroke-width="0.750000" stroke-linejoin="round" stroke-linecap="round"/>
		<path id="Vector" d="M100.02 54.15L105.79 54.15" stroke="#263238" stroke-opacity="1.000000" stroke-width="0.750000" stroke-linejoin="round" stroke-linecap="round"/>
		<path id="Vector" d="M106.23 47.59L109.57 47.59" stroke="#263238" stroke-opacity="1.000000" stroke-width="0.750000" stroke-linejoin="round" stroke-linecap="round"/>
		<path id="Vector" d="M39.25 43.51L39.25 96.19L16.03 96.19L16.03 43.51L39.25 43.51Z" stroke="#263238" stroke-opacity="1.000000" stroke-width="0.750000" stroke-linejoin="round"/>
		<path id="Vector" d="M37.21 45.54L37.21 94.15L18.07 94.15L18.07 45.54L37.21 45.54Z" stroke="#263238" stroke-opacity="1.000000" stroke-width="0.750000" stroke-linejoin="round"/>
		<path id="Vector" d="M19.72 67L20.24 67" stroke="#263238" stroke-opacity="1.000000" stroke-width="0.750000" stroke-linejoin="round" stroke-linecap="round"/>
		<path id="Vector" d="M20.84 57.49L25.74 57.49" stroke="#263238" stroke-opacity="1.000000" stroke-width="0.750000" stroke-linejoin="round" stroke-linecap="round"/>
		<path id="Vector" d="M26.52 49.71L30.23 49.71" stroke="#263238" stroke-opacity="1.000000" stroke-width="0.750000" stroke-linejoin="round" stroke-linecap="round"/>
		<path id="Vector" d="M30.62 48.35L31.01 48.35" stroke="#263238" stroke-opacity="1.000000" stroke-width="0.750000" stroke-linejoin="round" stroke-linecap="round"/>
		<path id="Vector" d="M21.36 90.11L21.8 90.11" stroke="#263238" stroke-opacity="1.000000" stroke-width="0.750000" stroke-linejoin="round" stroke-linecap="round"/>
		<path id="Vector" d="M22.36 88.32L22.83 88.32" stroke="#263238" stroke-opacity="1.000000" stroke-width="0.750000" stroke-linejoin="round" stroke-linecap="round"/>
		<path id="Vector" d="M23.84 77.45L29.11 77.45" stroke="#263238" stroke-opacity="1.000000" stroke-width="0.750000" stroke-linejoin="round" stroke-linecap="round"/>
		<path id="Vector" d="M29.65 69.36L33.78 69.36" stroke="#263238" stroke-opacity="1.000000" stroke-width="0.750000" stroke-linejoin="round" stroke-linecap="round"/>
		<path id="Vector" d="M34.39 67.6L34.8 67.6" stroke="#263238" stroke-opacity="1.000000" stroke-width="0.750000" stroke-linejoin="round" stroke-linecap="round"/>
		<path id="Vector" d="M23.84 84.29L27.64 84.29" stroke="#263238" stroke-opacity="1.000000" stroke-width="0.750000" stroke-linejoin="round" stroke-linecap="round"/>
		<path id="Vector" d="M28.19 75.87L32.5 75.87" stroke="#263238" stroke-opacity="1.000000" stroke-width="0.750000" stroke-linejoin="round" stroke-linecap="round"/>
		<path id="Vector" d="M33 74.12L33.51 74.12" stroke="#263238" stroke-opacity="1.000000" stroke-width="0.750000" stroke-linejoin="round" stroke-linecap="round"/>
		<path id="Vector" d="M19.14 73.82L19.72 73.82" stroke="#263238" stroke-opacity="1.000000" stroke-width="0.750000" stroke-linejoin="round" stroke-linecap="round"/>
		<path id="Vector" d="M20.18 65.07L24.77 65.07" stroke="#263238" stroke-opacity="1.000000" stroke-width="0.750000" stroke-linejoin="round" stroke-linecap="round"/>
		<path id="Vector" d="M25.31 54.15L31.08 54.15" stroke="#263238" stroke-opacity="1.000000" stroke-width="0.750000" stroke-linejoin="round" stroke-linecap="round"/>
		<path id="Vector" d="M31.52 47.59L34.86 47.59" stroke="#263238" stroke-opacity="1.000000" stroke-width="0.750000" stroke-linejoin="round" stroke-linecap="round"/>
		<path id="Vector" d="M7.66 118.15L122.33 118.15" stroke="#263238" stroke-opacity="1.000000" stroke-width="1.000000" stroke-linejoin="round" stroke-linecap="round"/>
		<path id="Vector" d="M45.51 97.55L47.5 97.55L47.5 104.31L45.51 104.31L45.51 97.55Z" fill="#FFFFFF" fill-opacity="1.000000" fill-rule="evenodd"/>
		<g opacity="0.200000">
			<path id="Vector" d="M45.51 97.55L47.5 97.55L47.5 104.31L45.51 104.31L45.51 97.55Z" fill="#000000" fill-opacity="1.000000" fill-rule="evenodd"/>
		</g>
		<path id="Vector" d="M47.5 98.29L49.49 98.29L49.49 104.31L47.5 104.31L47.5 98.29Z" fill="#FFFFFF" fill-opacity="1.000000" fill-rule="evenodd"/>
		<path id="Vector" d="M50.57 98.29L51.97 98.29L51.97 104.31L50.57 104.31L50.57 98.29Z" fill="#FFFFFF" fill-opacity="1.000000" fill-rule="evenodd"/>
		<g opacity="0.900000">
			<path id="Vector" d="M50.57 98.29L51.97 98.29L51.97 104.31L50.57 104.31L50.57 98.29Z" fill="#FFFFFF" fill-opacity="1.000000" fill-rule="evenodd"/>
		</g>
		<path id="Vector" d="M49.29 97.66L50.57 97.66L50.57 104.32L49.29 104.32L49.29 97.66Z" fill="#FFFFFF" fill-opacity="1.000000" fill-rule="evenodd"/>
		<g opacity="0.100000">
			<path id="Vector" d="M49.29 97.66L50.57 97.66L50.57 104.32L49.29 104.32L49.29 97.66Z" fill="#000000" fill-opacity="1.000000" fill-rule="evenodd"/>
		</g>
		<path id="Vector" d="M51.97 97.55L53.96 97.55L53.96 104.31L51.97 104.31L51.97 97.55Z" fill="#FFFFFF" fill-opacity="1.000000" fill-rule="evenodd"/>
		<path id="Vector" d="M53.96 98.29L55.95 98.29L55.95 104.31L53.96 104.31L53.96 98.29Z" fill="#FFFFFF" fill-opacity="1.000000" fill-rule="evenodd"/>
		<g opacity="0.200000">
			<path id="Vector" d="M53.96 98.29L55.95 98.29L55.95 104.31L53.96 104.31L53.96 98.29Z" fill="#263238" fill-opacity="1.000000" fill-rule="evenodd"/>
		</g>
		<path id="Vector" d="M57.03 98.29L58.44 98.29L58.44 104.31L57.03 104.31L57.03 98.29Z" fill="#FFFFFF" fill-opacity="1.000000" fill-rule="evenodd"/>
		<g opacity="0.800000">
			<path id="Vector" d="M57.03 98.29L58.44 98.29L58.44 104.31L57.03 104.31L57.03 98.29Z" fill="#FFFFFF" fill-opacity="1.000000" fill-rule="evenodd"/>
		</g>
		<path id="Vector" d="M55.76 97.66L57.03 97.66L57.03 104.32L55.76 104.32L55.76 97.66Z" fill="#FFFFFF" fill-opacity="1.000000" fill-rule="evenodd"/>
		<g opacity="0.100000">
			<path id="Vector" d="M55.76 97.66L57.03 97.66L57.03 104.32L55.76 104.32L55.76 97.66Z" fill="#000000" fill-opacity="1.000000" fill-rule="evenodd"/>
		</g>
		<path id="Vector" d="M69.91 104.32L67.92 104.32L67.92 97.55L69.91 97.55L69.91 104.32Z" fill="#FFFFFF" fill-opacity="1.000000" fill-rule="evenodd"/>
		<g opacity="0.200000">
			<path id="Vector" d="M69.91 104.32L67.92 104.32L67.92 97.55L69.91 97.55L69.91 104.32Z" fill="#000000" fill-opacity="1.000000" fill-rule="evenodd"/>
		</g>
		<path id="Vector" d="M67.92 104.32L65.93 104.32L65.93 98.3L67.92 98.3L67.92 104.32Z" fill="#FFFFFF" fill-opacity="1.000000" fill-rule="evenodd"/>
		<path id="Vector" d="M64.85 104.32L63.45 104.32L63.45 98.3L64.85 98.3L64.85 104.32Z" fill="#FFFFFF" fill-opacity="1.000000" fill-rule="evenodd"/>
		<g opacity="0.900000">
			<path id="Vector" d="M64.85 104.32L63.45 104.32L63.45 98.3L64.85 98.3L64.85 104.32Z" fill="#FFFFFF" fill-opacity="1.000000" fill-rule="evenodd"/>
		</g>
		<path id="Vector" d="M66.13 104.31L64.85 104.31L64.85 97.66L66.13 97.66L66.13 104.31Z" fill="#FFFFFF" fill-opacity="1.000000" fill-rule="evenodd"/>
		<g opacity="0.100000">
			<path id="Vector" d="M66.13 104.31L64.85 104.31L64.85 97.66L66.13 97.66L66.13 104.31Z" fill="#000000" fill-opacity="1.000000" fill-rule="evenodd"/>
		</g>
		<path id="Vector" d="M63.45 104.32L61.46 104.32L61.46 97.55L63.45 97.55L63.45 104.32Z" fill="#FFFFFF" fill-opacity="1.000000" fill-rule="evenodd"/>
		<path id="Vector" d="M61.46 104.32L59.47 104.32L59.47 98.3L61.46 98.3L61.46 104.32Z" fill="#FFFFFF" fill-opacity="1.000000" fill-rule="evenodd"/>
		<g opacity="0.200000">
			<path id="Vector" d="M61.46 104.32L59.47 104.32L59.47 98.3L61.46 98.3L61.46 104.32Z" fill="#263238" fill-opacity="1.000000" fill-rule="evenodd"/>
		</g>
		<path id="Vector" d="M59.66 104.31L58.39 104.31L58.39 97.66L59.66 97.66L59.66 104.31Z" fill="#FFFFFF" fill-opacity="1.000000" fill-rule="evenodd"/>
		<g opacity="0.100000">
			<path id="Vector" d="M59.66 104.31L58.39 104.31L58.39 97.66L59.66 97.66L59.66 104.31Z" fill="#000000" fill-opacity="1.000000" fill-rule="evenodd"/>
		</g>
		<path id="Vector" d="M81.38 104.32L79.39 104.32L79.39 97.55L81.38 97.55L81.38 104.32Z" fill="#FFFFFF" fill-opacity="1.000000" fill-rule="evenodd"/>
		<g opacity="0.200000">
			<path id="Vector" d="M81.38 104.32L79.39 104.32L79.39 97.55L81.38 97.55L81.38 104.32Z" fill="#000000" fill-opacity="1.000000" fill-rule="evenodd"/>
		</g>
		<path id="Vector" d="M79.39 104.32L77.4 104.32L77.4 98.3L79.39 98.3L79.39 104.32Z" fill="#FFFFFF" fill-opacity="1.000000" fill-rule="evenodd"/>
		<path id="Vector" d="M76.32 104.32L74.92 104.32L74.92 98.3L76.32 98.3L76.32 104.32Z" fill="#FFFFFF" fill-opacity="1.000000" fill-rule="evenodd"/>
		<g opacity="0.900000">
			<path id="Vector" d="M76.32 104.32L74.92 104.32L74.92 98.3L76.32 98.3L76.32 104.32Z" fill="#FFFFFF" fill-opacity="1.000000" fill-rule="evenodd"/>
		</g>
		<path id="Vector" d="M77.59 104.31L76.32 104.31L76.32 97.66L77.59 97.66L77.59 104.31Z" fill="#FFFFFF" fill-opacity="1.000000" fill-rule="evenodd"/>
		<g opacity="0.100000">
			<path id="Vector" d="M77.59 104.31L76.32 104.31L76.32 97.66L77.59 97.66L77.59 104.31Z" fill="#000000" fill-opacity="1.000000" fill-rule="evenodd"/>
		</g>
		<path id="Vector" d="M74.91 104.32L72.92 104.32L72.92 97.55L74.91 97.55L74.91 104.32Z" fill="#FFFFFF" fill-opacity="1.000000" fill-rule="evenodd"/>
		<path id="Vector" d="M83.98 103.73L82.67 104.08L80.92 97.52L82.22 97.17L83.98 103.73Z" fill="#FFFFFF" fill-opacity="1.000000" fill-rule="evenodd"/>
		<path id="Vector" d="M72.92 104.32L70.94 104.32L70.94 98.3L72.92 98.3L72.92 104.32Z" fill="#FFFFFF" fill-opacity="1.000000" fill-rule="evenodd"/>
		<g opacity="0.200000">
			<path id="Vector" d="M72.92 104.32L70.94 104.32L70.94 98.3L72.92 98.3L72.92 104.32Z" fill="#263238" fill-opacity="1.000000" fill-rule="evenodd"/>
		</g>
		<path id="Vector" d="M71.13 104.31L69.85 104.31L69.85 97.66L71.13 97.66L71.13 104.31Z" fill="#FFFFFF" fill-opacity="1.000000" fill-rule="evenodd"/>
		<g opacity="0.100000">
			<path id="Vector" d="M71.13 104.31L69.85 104.31L69.85 97.66L71.13 97.66L71.13 104.31Z" fill="#000000" fill-opacity="1.000000" fill-rule="evenodd"/>
		</g>
		<path id="Vector" d="M84.68 112.74L83.34 113.1L81.59 106.57L82.93 106.21L84.68 112.74Z" fill="#FFFFFF" fill-opacity="1.000000" fill-rule="evenodd"/>
		<g opacity="0.200000">
			<path id="Vector" d="M84.68 112.74L83.34 113.1L81.59 106.57L82.93 106.21L84.68 112.74Z" fill="#000000" fill-opacity="1.000000" fill-rule="evenodd"/>
		</g>
		<path id="Vector" d="M81.9 113.03L79.91 113.03L79.91 107.01L81.9 107.01L81.9 113.03Z" fill="#FFFFFF" fill-opacity="1.000000" fill-rule="evenodd"/>
		<path id="Vector" d="M78.82 113.03L77.42 113.03L77.42 107.01L78.82 107.01L78.82 113.03Z" fill="#FFFFFF" fill-opacity="1.000000" fill-rule="evenodd"/>
		<g opacity="0.900000">
			<path id="Vector" d="M78.82 113.03L77.42 113.03L77.42 107.01L78.82 107.01L78.82 113.03Z" fill="#FFFFFF" fill-opacity="1.000000" fill-rule="evenodd"/>
		</g>
		<path id="Vector" d="M80.1 113.04L78.82 113.04L78.82 106.38L80.1 106.38L80.1 113.04Z" fill="#FFFFFF" fill-opacity="1.000000" fill-rule="evenodd"/>
		<g opacity="0.100000">
			<path id="Vector" d="M80.1 113.04L78.82 113.04L78.82 106.38L80.1 106.38L80.1 113.04Z" fill="#000000" fill-opacity="1.000000" fill-rule="evenodd"/>
		</g>
		<path id="Vector" d="M77.42 113.04L75.43 113.04L75.43 106.27L77.42 106.27L77.42 113.04Z" fill="#FFFFFF" fill-opacity="1.000000" fill-rule="evenodd"/>
		<path id="Vector" d="M75.43 113.03L73.44 113.03L73.44 107.01L75.43 107.01L75.43 113.03Z" fill="#FFFFFF" fill-opacity="1.000000" fill-rule="evenodd"/>
		<g opacity="0.200000">
			<path id="Vector" d="M75.43 113.03L73.44 113.03L73.44 107.01L75.43 107.01L75.43 113.03Z" fill="#263238" fill-opacity="1.000000" fill-rule="evenodd"/>
		</g>
		<path id="Vector" d="M72.36 113.03L70.96 113.03L70.96 107.01L72.36 107.01L72.36 113.03Z" fill="#FFFFFF" fill-opacity="1.000000" fill-rule="evenodd"/>
		<g opacity="0.800000">
			<path id="Vector" d="M72.36 113.03L70.96 113.03L70.96 107.01L72.36 107.01L72.36 113.03Z" fill="#FFFFFF" fill-opacity="1.000000" fill-rule="evenodd"/>
		</g>
		<path id="Vector" d="M73.63 113.04L72.36 113.04L72.36 106.38L73.63 106.38L73.63 113.04Z" fill="#FFFFFF" fill-opacity="1.000000" fill-rule="evenodd"/>
		<g opacity="0.100000">
			<path id="Vector" d="M73.63 113.04L72.36 113.04L72.36 106.38L73.63 106.38L73.63 113.04Z" fill="#000000" fill-opacity="1.000000" fill-rule="evenodd"/>
		</g>
		<path id="Vector" d="M59.48 106.27L61.47 106.27L61.47 113.04L59.48 113.04L59.48 106.27Z" fill="#FFFFFF" fill-opacity="1.000000" fill-rule="evenodd"/>
		<g opacity="0.200000">
			<path id="Vector" d="M59.48 106.27L61.47 106.27L61.47 113.04L59.48 113.04L59.48 106.27Z" fill="#000000" fill-opacity="1.000000" fill-rule="evenodd"/>
		</g>
		<path id="Vector" d="M61.47 107.02L63.46 107.02L63.46 113.04L61.47 113.04L61.47 107.02Z" fill="#FFFFFF" fill-opacity="1.000000" fill-rule="evenodd"/>
		<path id="Vector" d="M64.54 107.02L65.94 107.02L65.94 113.04L64.54 113.04L64.54 107.02Z" fill="#FFFFFF" fill-opacity="1.000000" fill-rule="evenodd"/>
		<g opacity="0.900000">
			<path id="Vector" d="M64.54 107.02L65.94 107.02L65.94 113.04L64.54 113.04L64.54 107.02Z" fill="#FFFFFF" fill-opacity="1.000000" fill-rule="evenodd"/>
		</g>
		<path id="Vector" d="M63.27 106.38L64.54 106.38L64.54 113.04L63.27 113.04L63.27 106.38Z" fill="#FFFFFF" fill-opacity="1.000000" fill-rule="evenodd"/>
		<g opacity="0.100000">
			<path id="Vector" d="M63.27 106.38L64.54 106.38L64.54 113.04L63.27 113.04L63.27 106.38Z" fill="#000000" fill-opacity="1.000000" fill-rule="evenodd"/>
		</g>
		<path id="Vector" d="M65.94 106.27L67.93 106.27L67.93 113.04L65.94 113.04L65.94 106.27Z" fill="#FFFFFF" fill-opacity="1.000000" fill-rule="evenodd"/>
		<path id="Vector" d="M67.93 107.02L69.92 107.02L69.92 113.04L67.93 113.04L67.93 107.02Z" fill="#FFFFFF" fill-opacity="1.000000" fill-rule="evenodd"/>
		<g opacity="0.200000">
			<path id="Vector" d="M67.93 107.02L69.92 107.02L69.92 113.04L67.93 113.04L67.93 107.02Z" fill="#263238" fill-opacity="1.000000" fill-rule="evenodd"/>
		</g>
		<path id="Vector" d="M69.73 106.38L71 106.38L71 113.04L69.73 113.04L69.73 106.38Z" fill="#FFFFFF" fill-opacity="1.000000" fill-rule="evenodd"/>
		<g opacity="0.100000">
			<path id="Vector" d="M69.73 106.38L71 106.38L71 113.04L69.73 113.04L69.73 106.38Z" fill="#000000" fill-opacity="1.000000" fill-rule="evenodd"/>
		</g>
		<path id="Vector" d="M48.01 106.27L50 106.27L50 113.04L48.01 113.04L48.01 106.27Z" fill="#FFFFFF" fill-opacity="1.000000" fill-rule="evenodd"/>
		<g opacity="0.200000">
			<path id="Vector" d="M48.01 106.27L50 106.27L50 113.04L48.01 113.04L48.01 106.27Z" fill="#000000" fill-opacity="1.000000" fill-rule="evenodd"/>
		</g>
		<path id="Vector" d="M50 107.02L51.99 107.02L51.99 113.04L50 113.04L50 107.02Z" fill="#FFFFFF" fill-opacity="1.000000" fill-rule="evenodd"/>
		<path id="Vector" d="M53.07 107.02L54.48 107.02L54.48 113.04L53.07 113.04L53.07 107.02Z" fill="#FFFFFF" fill-opacity="1.000000" fill-rule="evenodd"/>
		<g opacity="0.900000">
			<path id="Vector" d="M53.07 107.02L54.48 107.02L54.48 113.04L53.07 113.04L53.07 107.02Z" fill="#FFFFFF" fill-opacity="1.000000" fill-rule="evenodd"/>
		</g>
		<path id="Vector" d="M51.8 106.38L53.07 106.38L53.07 113.04L51.8 113.04L51.8 106.38Z" fill="#FFFFFF" fill-opacity="1.000000" fill-rule="evenodd"/>
		<g opacity="0.100000">
			<path id="Vector" d="M51.8 106.38L53.07 106.38L53.07 113.04L51.8 113.04L51.8 106.38Z" fill="#000000" fill-opacity="1.000000" fill-rule="evenodd"/>
		</g>
		<path id="Vector" d="M54.48 106.27L56.47 106.27L56.47 113.04L54.48 113.04L54.48 106.27Z" fill="#FFFFFF" fill-opacity="1.000000" fill-rule="evenodd"/>
		<path id="Vector" d="M46.71 106.21L48.01 106.56L46.26 113.09L44.96 112.75L46.71 106.21Z" fill="#FFFFFF" fill-opacity="1.000000" fill-rule="evenodd"/>
		<path id="Vector" d="M56.47 107.02L58.46 107.02L58.46 113.04L56.47 113.04L56.47 107.02Z" fill="#FFFFFF" fill-opacity="1.000000" fill-rule="evenodd"/>
		<g opacity="0.200000">
			<path id="Vector" d="M56.47 107.02L58.46 107.02L58.46 113.04L56.47 113.04L56.47 107.02Z" fill="#263238" fill-opacity="1.000000" fill-rule="evenodd"/>
		</g>
		<path id="Vector" d="M58.26 106.38L59.54 106.38L59.54 113.04L58.26 113.04L58.26 106.38Z" fill="#FFFFFF" fill-opacity="1.000000" fill-rule="evenodd"/>
		<g opacity="0.100000">
			<path id="Vector" d="M58.26 106.38L59.54 106.38L59.54 113.04L58.26 113.04L58.26 106.38Z" fill="#000000" fill-opacity="1.000000" fill-rule="evenodd"/>
		</g>
		<path id="Vector" d="M47.03 118.15L45.05 118.15L44.77 114.3L47.31 114.3L47.03 118.15Z" fill="#263238" fill-opacity="1.000000" fill-rule="nonzero"/>
		<path id="Vector" d="M84.94 118.15L82.96 118.15L82.68 114.3L85.22 114.3L84.94 118.15Z" fill="#263238" fill-opacity="1.000000" fill-rule="nonzero"/>
		<path id="Vector" d="M87.14 95L42.85 95C42.6 95 42.36 95.1 42.18 95.28C42 95.45 41.9 95.7 41.9 95.95L41.9 114.04C41.9 114.29 42 114.54 42.18 114.72C42.36 114.9 42.6 115 42.85 115L87.14 115C87.39 115 87.63 114.9 87.81 114.72C87.99 114.54 88.09 114.29 88.09 114.04L88.09 95.95C88.09 95.7 87.99 95.45 87.81 95.28C87.63 95.1 87.39 95 87.14 95ZM86.18 96.91L86.18 104.32L43.8 104.32L43.8 96.91L86.18 96.91ZM43.81 113.1L43.81 105.68L86.19 105.68L86.19 113.1L43.81 113.1Z" fill="#FFFFFF" fill-opacity="1.000000" fill-rule="nonzero"/>
		<path id="Vector" d="M42.85 95C42.6 95 42.36 95.1 42.18 95.28C42 95.45 41.9 95.7 41.9 95.95L41.9 114.04C41.9 114.29 42 114.54 42.18 114.72C42.36 114.9 42.6 115 42.85 115L87.14 115C87.39 115 87.63 114.9 87.81 114.72C87.99 114.54 88.09 114.29 88.09 114.04L88.09 95.95C88.09 95.7 87.99 95.45 87.81 95.28C87.63 95.1 87.39 95 87.14 95L42.85 95ZM86.18 104.32L43.8 104.32L43.8 96.91L86.18 96.91L86.18 104.32ZM43.81 105.68L86.19 105.68L86.19 113.1L43.81 113.1L43.81 105.68Z" stroke="#263238" stroke-opacity="1.000000" stroke-width="0.750000" stroke-linejoin="round"/>
		<path id="Vector" d="M80.59 57L49.95 57C48.96 57 48.16 57.8 48.16 58.78L48.16 65.36C48.16 66.34 48.96 67.14 49.95 67.14L80.59 67.14C81.57 67.14 82.37 66.34 82.37 65.36L82.37 58.78C82.37 57.8 81.57 57 80.59 57Z" fill="#263238" fill-opacity="1.000000" fill-rule="nonzero"/>
		<path id="Vector" d="M80.59 57C81.57 57 82.37 57.8 82.37 58.78L82.37 65.36C82.37 66.34 81.57 67.14 80.59 67.14L49.95 67.14C48.96 67.14 48.16 66.34 48.16 65.36L48.16 58.78C48.16 57.8 48.96 57 49.95 57L80.59 57Z" stroke="#263238" stroke-opacity="1.000000" stroke-width="1.000000" stroke-linejoin="round"/>
		<path id="Vector" d="M80.04 56.45L49.4 56.45C48.42 56.45 47.62 57.25 47.62 58.24L47.62 64.81C47.62 65.8 48.42 66.6 49.4 66.6L80.04 66.6C81.03 66.6 81.83 65.8 81.83 64.81L81.83 58.24C81.83 57.25 81.03 56.45 80.04 56.45Z" fill="#FFFFFF" fill-opacity="1.000000" fill-rule="nonzero"/>
		<path id="Vector" d="M80.04 56.45C81.03 56.45 81.83 57.25 81.83 58.24L81.83 64.81C81.83 65.8 81.03 66.6 80.04 66.6L49.4 66.6C48.42 66.6 47.62 65.8 47.62 64.81L47.62 58.24C47.62 57.25 48.42 56.45 49.4 56.45L80.04 56.45Z" stroke="#263238" stroke-opacity="1.000000" stroke-width="1.000000" stroke-linejoin="round"/>
		<path id="Vector" d="M80.04 56.45C81.03 56.45 81.83 57.25 81.83 58.24L81.83 64.81C81.83 65.8 81.03 66.6 80.04 66.6L49.4 66.6C48.42 66.6 47.62 65.8 47.62 64.81L47.62 58.24C47.62 57.25 48.42 56.45 49.4 56.45L80.04 56.45Z" stroke="#263238" stroke-opacity="1.000000" stroke-width="1.000000" stroke-linejoin="round"/>
		<path id="Vector" d="M55.19 64.52L50.69 64.52L50.69 58.82L53.69 58.82L55.19 60.32L55.19 64.52Z" fill="#FFFFFF" fill-opacity="1.000000" fill-rule="nonzero"/>
		<g opacity="0.500000">
			<path id="Vector" d="M55.19 64.52L50.69 64.52L50.69 58.82L53.69 58.82L55.19 60.32L55.19 64.52Z" fill="#FFFFFF" fill-opacity="1.000000" fill-rule="nonzero"/>
		</g>
		<path id="Vector" d="M50.69 64.52L50.69 58.82L53.69 58.82L55.19 60.32L55.19 64.52L50.69 64.52Z" stroke="#263238" stroke-opacity="1.000000" stroke-width="1.000000" stroke-linejoin="round"/>
		<path id="Vector" d="M53.69 60.32L55.19 60.32L53.69 58.82L53.69 60.32Z" fill="#FFFFFF" fill-opacity="1.000000" fill-rule="nonzero"/>
		<path id="Vector" d="M55.19 60.32L53.69 58.82L53.69 60.32L55.19 60.32Z" stroke="#263238" stroke-opacity="1.000000" stroke-width="1.000000" stroke-linejoin="round"/>
		<path id="Vector" d="M51.69 61.84C51.62 61.84 51.55 61.8 51.5 61.75C51.46 61.7 51.43 61.63 51.43 61.56C51.43 61.49 51.46 61.42 51.5 61.37C51.55 61.31 51.62 61.28 51.69 61.27L54.19 61.27C54.26 61.28 54.33 61.31 54.38 61.37C54.42 61.42 54.45 61.49 54.45 61.56C54.45 61.63 54.42 61.7 54.38 61.75C54.33 61.8 54.26 61.84 54.19 61.84L51.69 61.84Z" fill="#858585" fill-opacity="1.000000" fill-rule="nonzero"/>
		<path id="Vector" d="M51.5 61.75C51.46 61.7 51.43 61.63 51.43 61.56C51.43 61.49 51.46 61.42 51.5 61.37C51.55 61.31 51.62 61.28 51.69 61.27L54.19 61.27C54.26 61.28 54.33 61.31 54.38 61.37C54.42 61.42 54.45 61.49 54.45 61.56C54.45 61.63 54.42 61.7 54.38 61.75C54.33 61.8 54.26 61.84 54.19 61.84L51.69 61.84C51.62 61.84 51.55 61.8 51.5 61.75Z" stroke="#263238" stroke-opacity="1.000000" stroke-width="0.750000" stroke-linejoin="round"/>
		<path id="Vector" d="M51.69 63.04C51.62 63.04 51.55 63 51.5 62.95C51.46 62.9 51.43 62.83 51.43 62.76C51.43 62.69 51.46 62.62 51.5 62.57C51.55 62.51 51.62 62.48 51.69 62.47L53.65 62.47C53.72 62.48 53.78 62.51 53.83 62.57C53.88 62.62 53.91 62.69 53.91 62.76C53.91 62.83 53.88 62.9 53.83 62.95C53.78 63 53.72 63.04 53.65 63.04L51.69 63.04Z" fill="#858585" fill-opacity="1.000000" fill-rule="nonzero"/>
		<path id="Vector" d="M51.5 62.95C51.46 62.9 51.43 62.83 51.43 62.76C51.43 62.69 51.46 62.62 51.5 62.57C51.55 62.51 51.62 62.48 51.69 62.47L53.65 62.47C53.72 62.48 53.78 62.51 53.83 62.57C53.88 62.62 53.91 62.69 53.91 62.76C53.91 62.83 53.88 62.9 53.83 62.95C53.78 63 53.72 63.04 53.65 63.04L51.69 63.04C51.62 63.04 51.55 63 51.5 62.95Z" stroke="#263238" stroke-opacity="1.000000" stroke-width="0.750000" stroke-linejoin="round"/>
		<path id="Vector" d="M66.58 62.17L58.2 62.17C58.05 62.18 57.91 62.25 57.81 62.36C57.7 62.47 57.65 62.61 57.65 62.76C57.65 62.91 57.7 63.05 57.81 63.16C57.91 63.27 58.05 63.34 58.2 63.35L66.58 63.35L66.58 62.17Z" fill="#FFFFFF" fill-opacity="1.000000" fill-rule="nonzero"/>
		<path id="Vector" d="M57.81 63.16C57.7 63.05 57.65 62.91 57.65 62.76C57.65 62.61 57.7 62.47 57.81 62.36C57.91 62.25 58.05 62.18 58.2 62.17L78.17 62.17C78.25 62.17 78.33 62.18 78.4 62.2C78.48 62.23 78.55 62.27 78.61 62.33C78.67 62.38 78.71 62.45 78.75 62.53C78.78 62.6 78.8 62.68 78.8 62.76C78.8 62.84 78.78 62.92 78.75 63C78.71 63.07 78.67 63.14 78.61 63.19C78.55 63.25 78.48 63.29 78.4 63.32C78.33 63.34 78.25 63.35 78.17 63.35L58.2 63.35C58.05 63.34 57.91 63.27 57.81 63.16Z" stroke="#263238" stroke-opacity="1.000000" stroke-width="1.000000" stroke-linejoin="round"/>
		<path id="Vector" d="M66.77 60.58L66.14 60.58L66.14 60.28L66.74 58.85L67.1 58.85L67.1 60.28L67.26 60.28L67.26 60.58L67.1 60.58L67.1 60.96L66.77 60.96L66.77 60.58ZM66.77 60.28L66.77 59.46L66.45 60.28L66.77 60.28Z" fill="#263238" fill-opacity="1.000000" fill-rule="nonzero"/>
		<path id="Vector" d="M67.41 60.46L67.41 60.3L67.72 60.3L67.72 60.48C67.72 60.63 67.79 60.69 67.9 60.69C68 60.69 68.07 60.63 68.07 60.48L68.07 60.01C68.07 59.86 68 59.81 67.9 59.81C67.79 59.81 67.72 59.86 67.72 60.01L67.72 60.03L67.41 60.03L67.47 58.86L68.34 58.86L68.34 59.16L67.77 59.16L67.74 59.66C67.77 59.61 67.81 59.57 67.86 59.54C67.91 59.52 67.97 59.5 68.03 59.51C68.27 59.51 68.39 59.68 68.39 59.99L68.39 60.46C68.39 60.8 68.22 60.98 67.9 60.98C67.57 60.98 67.41 60.8 67.41 60.46Z" fill="#263238" fill-opacity="1.000000" fill-rule="nonzero"/>
		<path id="Vector" d="M68.6 59.69L68.6 59.17C68.6 59.12 68.61 59.08 68.62 59.04C68.63 59 68.66 58.96 68.69 58.92C68.72 58.89 68.75 58.86 68.79 58.85C68.83 58.83 68.88 58.82 68.92 58.82C68.97 58.82 69.01 58.83 69.05 58.85C69.09 58.86 69.13 58.89 69.16 58.92C69.19 58.96 69.21 59 69.23 59.04C69.24 59.08 69.25 59.12 69.24 59.17L69.24 59.69C69.25 59.73 69.24 59.78 69.23 59.82C69.21 59.86 69.19 59.9 69.16 59.93C69.13 59.97 69.09 59.99 69.05 60.01C69.01 60.03 68.97 60.04 68.92 60.04C68.88 60.04 68.83 60.03 68.79 60.01C68.75 59.99 68.72 59.97 68.69 59.93C68.66 59.9 68.63 59.86 68.62 59.82C68.61 59.78 68.6 59.73 68.6 59.69ZM69.03 59.7L69.03 59.15C69.03 59.06 68.99 59.02 68.92 59.02C68.86 59.02 68.81 59.06 68.81 59.15L68.81 59.7C68.81 59.8 68.85 59.84 68.92 59.84C68.99 59.84 69.03 59.8 69.03 59.7ZM69.69 58.86L69.9 58.86L69.08 60.96L68.87 60.96L69.69 58.86ZM69.53 60.65L69.53 60.13C69.52 60.09 69.53 60.04 69.54 60C69.56 59.96 69.58 59.92 69.61 59.89C69.64 59.86 69.68 59.83 69.72 59.81C69.76 59.79 69.8 59.78 69.85 59.78C69.89 59.78 69.93 59.79 69.97 59.81C70.01 59.83 70.05 59.86 70.08 59.89C70.11 59.92 70.13 59.96 70.15 60C70.16 60.04 70.17 60.09 70.16 60.13L70.16 60.65C70.17 60.7 70.16 60.74 70.15 60.78C70.13 60.83 70.11 60.86 70.08 60.9C70.05 60.93 70.01 60.96 69.97 60.97C69.93 60.99 69.89 61 69.85 61C69.8 61 69.76 60.99 69.72 60.97C69.68 60.96 69.64 60.93 69.61 60.9C69.58 60.86 69.56 60.83 69.54 60.78C69.53 60.74 69.52 60.7 69.53 60.65ZM69.95 60.67L69.95 60.11C69.95 60.02 69.91 59.98 69.84 59.98C69.78 59.98 69.74 60.02 69.74 60.11L69.74 60.67C69.74 60.76 69.78 60.8 69.84 60.8C69.91 60.8 69.95 60.76 69.95 60.67Z" fill="#263238" fill-opacity="1.000000" fill-rule="nonzero"/>
		<path id="Vector" d="M80.59 68.77L49.95 68.77C48.96 68.77 48.16 69.57 48.16 70.55L48.16 77.13C48.16 78.12 48.96 78.92 49.95 78.92L80.59 78.92C81.57 78.92 82.37 78.12 82.37 77.13L82.37 70.55C82.37 69.57 81.57 68.77 80.59 68.77Z" fill="#263238" fill-opacity="1.000000" fill-rule="nonzero"/>
		<path id="Vector" d="M80.59 68.77C81.57 68.77 82.37 69.57 82.37 70.55L82.37 77.13C82.37 78.12 81.57 78.92 80.59 78.92L49.95 78.92C48.96 78.92 48.16 78.12 48.16 77.13L48.16 70.55C48.16 69.57 48.96 68.77 49.95 68.77L80.59 68.77Z" stroke="#263238" stroke-opacity="1.000000" stroke-width="1.000000" stroke-linejoin="round"/>
		<path id="Vector" d="M80.04 68.22L49.4 68.22C48.42 68.22 47.62 69.02 47.62 70.01L47.62 76.59C47.62 77.57 48.42 78.37 49.4 78.37L80.04 78.37C81.03 78.37 81.83 77.57 81.83 76.59L81.83 70.01C81.83 69.02 81.03 68.22 80.04 68.22Z" fill="#FFFFFF" fill-opacity="1.000000" fill-rule="nonzero"/>
		<path id="Vector" d="M80.04 68.22C81.03 68.22 81.83 69.02 81.83 70.01L81.83 76.59C81.83 77.57 81.03 78.37 80.04 78.37L49.4 78.37C48.42 78.37 47.62 77.57 47.62 76.59L47.62 70.01C47.62 69.02 48.42 68.22 49.4 68.22L80.04 68.22Z" stroke="#263238" stroke-opacity="1.000000" stroke-width="1.000000" stroke-linejoin="round"/>
		<path id="Vector" d="M73.2 73.87L58.2 73.87C58.05 73.88 57.91 73.95 57.81 74.06C57.7 74.17 57.65 74.31 57.65 74.46C57.65 74.61 57.7 74.75 57.81 74.86C57.91 74.97 58.05 75.04 58.2 75.05L73.2 75.05L73.2 73.87Z" fill="#FFFFFF" fill-opacity="1.000000" fill-rule="nonzero"/>
		<path id="Vector" d="M57.81 74.86C57.7 74.75 57.65 74.61 57.65 74.46C57.65 74.31 57.7 74.17 57.81 74.06C57.91 73.95 58.05 73.88 58.2 73.87L78.17 73.87C78.25 73.87 78.33 73.88 78.4 73.9C78.48 73.93 78.55 73.97 78.61 74.03C78.67 74.08 78.71 74.15 78.75 74.23C78.78 74.3 78.8 74.38 78.8 74.46C78.8 74.54 78.78 74.62 78.75 74.7C78.71 74.77 78.67 74.84 78.61 74.89C78.55 74.95 78.48 74.99 78.4 75.02C78.33 75.04 78.25 75.05 78.17 75.05L58.2 75.05C58.05 75.04 57.91 74.97 57.81 74.86Z" stroke="#263238" stroke-opacity="1.000000" stroke-width="1.000000" stroke-linejoin="round"/>
		<path id="Vector" d="M66.18 72.17L66.18 71.98C66.17 71.9 66.19 71.81 66.22 71.74C66.26 71.66 66.32 71.6 66.4 71.55C66.33 71.51 66.27 71.45 66.23 71.38C66.2 71.31 66.18 71.22 66.19 71.14L66.19 71.06C66.19 70.92 66.25 70.79 66.34 70.7C66.44 70.6 66.56 70.55 66.7 70.55C66.83 70.55 66.96 70.6 67.05 70.7C67.15 70.79 67.2 70.92 67.2 71.06L67.2 71.14C67.21 71.22 67.2 71.31 67.16 71.38C67.12 71.45 67.07 71.51 67 71.55C67.07 71.6 67.13 71.66 67.17 71.74C67.21 71.81 67.23 71.9 67.22 71.98L67.22 72.17C67.22 72.31 67.16 72.44 67.06 72.54C66.97 72.64 66.83 72.69 66.7 72.69C66.56 72.69 66.43 72.64 66.33 72.54C66.23 72.44 66.18 72.31 66.18 72.17L66.18 72.17ZM66.89 72.15L66.89 71.95C66.89 71.79 66.82 71.71 66.7 71.71C66.58 71.71 66.51 71.79 66.51 71.95L66.51 72.15C66.51 72.31 66.58 72.39 66.7 72.39C66.82 72.39 66.89 72.31 66.89 72.15ZM66.89 71.2L66.89 71.04C66.89 70.9 66.83 70.83 66.71 70.83C66.6 70.83 66.54 70.9 66.54 71.04L66.54 71.2C66.54 71.34 66.6 71.41 66.71 71.41C66.83 71.41 66.87 71.34 66.87 71.2L66.89 71.2Z" fill="#263238" fill-opacity="1.000000" fill-rule="nonzero"/>
		<path id="Vector" d="M67.41 72.16L67.41 72L67.73 72L67.73 72.18C67.73 72.33 67.79 72.39 67.9 72.39C68 72.39 68.07 72.33 68.07 72.18L68.07 71.71C68.07 71.56 68 71.51 67.9 71.51C67.79 71.51 67.73 71.56 67.73 71.71L67.73 71.73L67.41 71.73L67.47 70.56L68.34 70.56L68.34 70.86L67.77 70.86L67.74 71.36C67.77 71.31 67.81 71.27 67.86 71.24C67.91 71.22 67.97 71.2 68.03 71.21C68.27 71.21 68.39 71.38 68.39 71.69L68.39 72.16C68.4 72.23 68.39 72.3 68.37 72.36C68.34 72.42 68.31 72.48 68.26 72.53C68.22 72.58 68.16 72.62 68.1 72.65C68.04 72.68 67.97 72.69 67.9 72.69C67.83 72.69 67.77 72.68 67.7 72.65C67.64 72.62 67.59 72.58 67.54 72.53C67.49 72.48 67.46 72.42 67.44 72.36C67.41 72.3 67.4 72.23 67.41 72.16L67.41 72.16Z" fill="#263238" fill-opacity="1.000000" fill-rule="nonzero"/>
		<path id="Vector" d="M68.6 71.39L68.6 70.87C68.6 70.82 68.61 70.78 68.62 70.74C68.63 70.7 68.66 70.66 68.69 70.62C68.72 70.59 68.75 70.57 68.79 70.55C68.83 70.53 68.88 70.52 68.92 70.52C68.97 70.52 69.01 70.53 69.05 70.55C69.09 70.57 69.13 70.59 69.16 70.62C69.19 70.66 69.21 70.7 69.23 70.74C69.24 70.78 69.25 70.82 69.24 70.87L69.24 71.39C69.25 71.43 69.24 71.48 69.23 71.52C69.21 71.56 69.19 71.6 69.16 71.63C69.13 71.67 69.09 71.69 69.05 71.71C69.01 71.73 68.97 71.74 68.92 71.74C68.88 71.74 68.83 71.73 68.79 71.71C68.75 71.69 68.72 71.67 68.69 71.63C68.66 71.6 68.63 71.56 68.62 71.52C68.61 71.48 68.6 71.43 68.6 71.39ZM69.03 71.4L69.03 70.85C69.03 70.76 68.99 70.72 68.92 70.72C68.86 70.72 68.81 70.76 68.81 70.85L68.81 71.4C68.81 71.5 68.85 71.54 68.92 71.54C68.99 71.54 69.03 71.5 69.03 71.4ZM69.69 70.56L69.9 70.56L69.08 72.66L68.87 72.66L69.69 70.56ZM69.53 72.35L69.53 71.83C69.52 71.79 69.53 71.74 69.54 71.7C69.56 71.66 69.58 71.62 69.61 71.59C69.64 71.56 69.68 71.53 69.72 71.51C69.76 71.49 69.8 71.48 69.85 71.48C69.89 71.48 69.93 71.49 69.97 71.51C70.01 71.53 70.05 71.56 70.08 71.59C70.11 71.62 70.13 71.66 70.15 71.7C70.16 71.74 70.17 71.79 70.16 71.83L70.16 72.35C70.17 72.4 70.16 72.44 70.15 72.48C70.13 72.53 70.11 72.56 70.08 72.6C70.05 72.63 70.01 72.66 69.97 72.67C69.93 72.69 69.89 72.7 69.85 72.7C69.8 72.7 69.76 72.69 69.72 72.67C69.68 72.66 69.64 72.63 69.61 72.6C69.58 72.56 69.56 72.53 69.54 72.48C69.53 72.44 69.52 72.4 69.53 72.35ZM69.95 72.37L69.95 71.81C69.95 71.72 69.91 71.68 69.84 71.68C69.78 71.68 69.74 71.72 69.74 71.81L69.74 72.37C69.74 72.46 69.78 72.5 69.84 72.5C69.91 72.5 69.95 72.46 69.95 72.37Z" fill="#263238" fill-opacity="1.000000" fill-rule="nonzero"/>
		<path id="Vector" d="M55.19 76.22L50.69 76.22L50.69 70.52L53.69 70.52L55.19 72.02L55.19 76.22Z" fill="#FFFFFF" fill-opacity="1.000000" fill-rule="nonzero"/>
		<g opacity="0.500000">
			<path id="Vector" d="M55.19 76.22L50.69 76.22L50.69 70.52L53.69 70.52L55.19 72.02L55.19 76.22Z" fill="#FFFFFF" fill-opacity="1.000000" fill-rule="nonzero"/>
			<path id="Vector" d="M50.69 76.22L50.69 70.52L53.69 70.52L55.19 72.02L55.19 76.22L50.69 76.22Z" stroke="#263238" stroke-opacity="1.000000" stroke-width="1.000000" stroke-linejoin="round"/>
		</g>
		<path id="Vector" d="M50.69 76.22L50.69 70.52L53.69 70.52L55.19 72.02L55.19 76.22L50.69 76.22Z" stroke="#263238" stroke-opacity="1.000000" stroke-width="1.000000" stroke-linejoin="round"/>
		<path id="Vector" d="M51.69 73.54C51.62 73.54 51.55 73.5 51.5 73.45C51.46 73.4 51.43 73.33 51.43 73.26C51.43 73.19 51.46 73.12 51.5 73.07C51.55 73.01 51.62 72.98 51.69 72.97L54.19 72.97C54.26 72.98 54.33 73.01 54.38 73.07C54.42 73.12 54.45 73.19 54.45 73.26C54.45 73.33 54.42 73.4 54.38 73.45C54.33 73.5 54.26 73.54 54.19 73.54L51.69 73.54Z" fill="#858585" fill-opacity="1.000000" fill-rule="nonzero"/>
		<path id="Vector" d="M51.5 73.45C51.46 73.4 51.43 73.33 51.43 73.26C51.43 73.19 51.46 73.12 51.5 73.07C51.55 73.01 51.62 72.98 51.69 72.97L54.19 72.97C54.26 72.98 54.33 73.01 54.38 73.07C54.42 73.12 54.45 73.19 54.45 73.26C54.45 73.33 54.42 73.4 54.38 73.45C54.33 73.5 54.26 73.54 54.19 73.54L51.69 73.54C51.62 73.54 51.55 73.5 51.5 73.45Z" stroke="#263238" stroke-opacity="1.000000" stroke-width="0.750000" stroke-linejoin="round"/>
		<path id="Vector" d="M51.69 74.74C51.62 74.74 51.55 74.7 51.5 74.65C51.46 74.6 51.43 74.53 51.43 74.46C51.43 74.39 51.46 74.32 51.5 74.27C51.55 74.21 51.62 74.18 51.69 74.17L53.65 74.17C53.72 74.18 53.78 74.21 53.83 74.27C53.88 74.32 53.91 74.39 53.91 74.46C53.91 74.53 53.88 74.6 53.83 74.65C53.78 74.7 53.72 74.74 53.65 74.74L51.69 74.74Z" fill="#858585" fill-opacity="1.000000" fill-rule="nonzero"/>
		<path id="Vector" d="M51.5 74.65C51.46 74.6 51.43 74.53 51.43 74.46C51.43 74.39 51.46 74.32 51.5 74.27C51.55 74.21 51.62 74.18 51.69 74.17L53.65 74.17C53.72 74.18 53.78 74.21 53.83 74.27C53.88 74.32 53.91 74.39 53.91 74.46C53.91 74.53 53.88 74.6 53.83 74.65C53.78 74.7 53.72 74.74 53.65 74.74L51.69 74.74C51.62 74.74 51.55 74.7 51.5 74.65Z" stroke="#263238" stroke-opacity="1.000000" stroke-width="0.750000" stroke-linejoin="round"/>
		<path id="Vector" d="M53.69 72.02L55.19 72.02L53.69 70.52L53.69 72.02Z" fill="#FFFFFF" fill-opacity="1.000000" fill-rule="nonzero"/>
		<path id="Vector" d="M55.19 72.02L53.69 70.52L53.69 72.02L55.19 72.02Z" stroke="#263238" stroke-opacity="1.000000" stroke-width="1.000000" stroke-linejoin="round"/>
		<path id="Vector" d="M84.78 41.28L45.76 41.28C44.77 41.28 43.97 42.08 43.97 43.06L43.97 52.13C43.97 53.11 44.77 53.91 45.76 53.91L84.78 53.91C85.76 53.91 86.56 53.11 86.56 52.13L86.56 43.06C86.56 42.08 85.76 41.28 84.78 41.28Z" fill="#263238" fill-opacity="1.000000" fill-rule="nonzero"/>
		<path id="Vector" d="M84.78 41.28C85.76 41.28 86.56 42.08 86.56 43.06L86.56 52.13C86.56 53.11 85.76 53.91 84.78 53.91L45.76 53.91C44.77 53.91 43.97 53.11 43.97 52.13L43.97 43.06C43.97 42.08 44.77 41.28 45.76 41.28L84.78 41.28Z" stroke="#263238" stroke-opacity="1.000000" stroke-width="1.000000" stroke-linejoin="round"/>
		<path id="Vector" d="M84.23 40.73L45.21 40.73C44.23 40.73 43.43 41.53 43.43 42.52L43.43 51.58C43.43 52.57 44.23 53.37 45.21 53.37L84.23 53.37C85.22 53.37 86.02 52.57 86.02 51.58L86.02 42.52C86.02 41.53 85.22 40.73 84.23 40.73Z" fill="#FFFFFF" fill-opacity="1.000000" fill-rule="nonzero"/>
		<path id="Vector" d="M84.23 40.73C85.22 40.73 86.02 41.53 86.02 42.52L86.02 51.58C86.02 52.57 85.22 53.37 84.23 53.37L45.21 53.37C44.23 53.37 43.43 52.57 43.43 51.58L43.43 42.52C43.43 41.53 44.23 40.73 45.21 40.73L84.23 40.73Z" stroke="#263238" stroke-opacity="1.000000" stroke-width="1.000000" stroke-linejoin="round"/>
		<path id="Vector" d="M58.29 52.33L49.95 52.33L49.95 41.77L55.51 41.77L58.29 44.55L58.29 52.33Z" fill="#FFFFFF" fill-opacity="1.000000" fill-rule="nonzero"/>
		<g opacity="0.700000">
			<path id="Vector" d="M58.29 52.33L49.95 52.33L49.95 41.77L55.51 41.77L58.29 44.55L58.29 52.33Z" fill="#FFFFFF" fill-opacity="1.000000" fill-rule="nonzero"/>
		</g>
		<path id="Vector" d="M49.95 52.33L49.95 41.77L55.51 41.77L58.29 44.55L58.29 52.33L49.95 52.33Z" stroke="#263238" stroke-opacity="1.000000" stroke-width="1.000000" stroke-linejoin="round"/>
		<path id="Vector" d="M55.51 44.55L58.29 44.55L55.51 41.77L55.51 44.55Z" fill="#FFFFFF" fill-opacity="1.000000" fill-rule="nonzero"/>
		<path id="Vector" d="M58.29 44.55L55.51 41.77L55.51 44.55L58.29 44.55Z" stroke="#263238" stroke-opacity="1.000000" stroke-width="1.000000" stroke-linejoin="round"/>
		<path id="Vector" d="M52.41 45.85L52.41 47.49L50.77 47.49L50.77 45.85L52.41 45.85Z" stroke="#FFFFFF" stroke-opacity="1.000000" stroke-width="0.750000" stroke-linejoin="round"/>
		<path id="Vector" d="M54.1 45.85L54.1 47.49L52.46 47.49L52.46 45.85L54.1 45.85Z" stroke="#FFFFFF" stroke-opacity="1.000000" stroke-width="0.750000" stroke-linejoin="round"/>
		<path id="Vector" d="M55.78 45.85L55.78 47.49L54.15 47.49L54.15 45.85L55.78 45.85Z" stroke="#FFFFFF" stroke-opacity="1.000000" stroke-width="0.750000" stroke-linejoin="round"/>
		<path id="Vector" d="M57.47 45.85L57.47 47.49L55.83 47.49L55.83 45.85L57.47 45.85Z" stroke="#FFFFFF" stroke-opacity="1.000000" stroke-width="0.750000" stroke-linejoin="round"/>
		<path id="Vector" d="M52.41 47.49L52.41 49.13L50.77 49.13L50.77 47.49L52.41 47.49Z" stroke="#FFFFFF" stroke-opacity="1.000000" stroke-width="0.750000" stroke-linejoin="round"/>
		<path id="Vector" d="M54.1 47.49L54.1 49.13L52.46 49.13L52.46 47.49L54.1 47.49Z" stroke="#FFFFFF" stroke-opacity="1.000000" stroke-width="0.750000" stroke-linejoin="round"/>
		<path id="Vector" d="M55.78 47.49L55.78 49.13L54.15 49.13L54.15 47.49L55.78 47.49Z" stroke="#FFFFFF" stroke-opacity="1.000000" stroke-width="0.750000" stroke-linejoin="round"/>
		<path id="Vector" d="M57.47 47.49L57.47 49.13L55.83 49.13L55.83 47.49L57.47 47.49Z" stroke="#FFFFFF" stroke-opacity="1.000000" stroke-width="0.750000" stroke-linejoin="round"/>
		<path id="Vector" d="M52.41 49.13L52.41 50.77L50.77 50.77L50.77 49.13L52.41 49.13Z" stroke="#FFFFFF" stroke-opacity="1.000000" stroke-width="0.750000" stroke-linejoin="round"/>
		<path id="Vector" d="M54.1 49.13L54.1 50.77L52.46 50.77L52.46 49.13L54.1 49.13Z" stroke="#FFFFFF" stroke-opacity="1.000000" stroke-width="0.750000" stroke-linejoin="round"/>
		<path id="Vector" d="M55.78 49.13L55.78 50.77L54.15 50.77L54.15 49.13L55.78 49.13Z" stroke="#FFFFFF" stroke-opacity="1.000000" stroke-width="0.750000" stroke-linejoin="round"/>
		<path id="Vector" d="M57.47 49.13L57.47 50.77L55.83 50.77L55.83 49.13L57.47 49.13Z" stroke="#FFFFFF" stroke-opacity="1.000000" stroke-width="0.750000" stroke-linejoin="round"/>
		<path id="Vector" d="M50.8 50.61L52.46 49.09L53.28 49.13L54.17 47.51L54.96 48.31L55.85 47.37L56.65 45.85" stroke="#FFFFFF" stroke-opacity="1.000000" stroke-width="2.000000" stroke-linejoin="round" stroke-linecap="round"/>
		<path id="Vector" d="M55.71 46.33L56.65 45.85L56.84 46.88" stroke="#FFFFFF" stroke-opacity="1.000000" stroke-width="2.000000" stroke-linejoin="round" stroke-linecap="round"/>
		<path id="Vector" d="M61.57 46.71L61.1 46.71L61.1 46.39C61.48 46.39 61.62 46.31 61.71 46.03L62.02 46.03L62.02 48.89L61.57 48.89L61.57 46.71Z" fill="#263238" fill-opacity="1.000000" fill-rule="nonzero"/>
		<path id="Vector" d="M62.55 48.22L62.55 46.71C62.55 46.53 62.62 46.36 62.75 46.23C62.88 46.1 63.05 46.03 63.23 46.03C63.41 46.03 63.59 46.1 63.71 46.23C63.84 46.36 63.91 46.53 63.91 46.71L63.91 48.22C63.91 48.4 63.84 48.58 63.71 48.7C63.59 48.83 63.41 48.9 63.23 48.9C63.05 48.9 62.88 48.83 62.75 48.7C62.62 48.58 62.55 48.4 62.55 48.22ZM63.47 48.25L63.47 46.69C63.47 46.49 63.37 46.41 63.23 46.41C63.09 46.41 63 46.49 63 46.69L63 48.25C63 48.45 63.09 48.53 63.23 48.53C63.37 48.53 63.47 48.45 63.47 48.25Z" fill="#263238" fill-opacity="1.000000" fill-rule="nonzero"/>
		<path id="Vector" d="M64.19 48.22L64.19 46.71C64.19 46.53 64.26 46.36 64.39 46.23C64.51 46.1 64.69 46.03 64.87 46.03C65.05 46.03 65.23 46.1 65.35 46.23C65.48 46.36 65.55 46.53 65.55 46.71L65.55 48.22C65.55 48.4 65.48 48.58 65.35 48.7C65.23 48.83 65.05 48.9 64.87 48.9C64.69 48.9 64.51 48.83 64.39 48.7C64.26 48.58 64.19 48.4 64.19 48.22ZM65.1 48.25L65.1 46.69C65.1 46.49 65.01 46.41 64.87 46.41C64.73 46.41 64.64 46.49 64.64 46.69L64.64 48.25C64.64 48.45 64.73 48.53 64.87 48.53C65.01 48.53 65.1 48.45 65.1 48.25Z" fill="#263238" fill-opacity="1.000000" fill-rule="nonzero"/>
		<path id="Vector" d="M65.83 47.17L65.83 46.45C65.83 46.34 65.88 46.23 65.96 46.14C66.04 46.06 66.15 46.02 66.27 46.02C66.38 46.02 66.49 46.06 66.57 46.14C66.65 46.23 66.7 46.34 66.7 46.45L66.7 47.17C66.7 47.28 66.65 47.39 66.57 47.47C66.49 47.56 66.38 47.6 66.27 47.6C66.15 47.6 66.04 47.56 65.96 47.47C65.88 47.39 65.83 47.28 65.83 47.17ZM66.41 47.19L66.41 46.43C66.41 46.3 66.36 46.25 66.27 46.25C66.17 46.25 66.12 46.3 66.12 46.43L66.12 47.19C66.12 47.32 66.17 47.37 66.27 47.37C66.36 47.37 66.41 47.32 66.41 47.19ZM67.31 46.03L67.59 46.03L66.48 48.89L66.2 48.89L67.31 46.03ZM67.09 48.48L67.09 47.76C67.09 47.71 67.1 47.65 67.12 47.6C67.14 47.55 67.17 47.5 67.21 47.46C67.25 47.42 67.3 47.39 67.36 47.36C67.41 47.34 67.46 47.33 67.52 47.33C67.58 47.33 67.64 47.34 67.69 47.36C67.74 47.39 67.79 47.42 67.83 47.46C67.87 47.5 67.9 47.55 67.92 47.6C67.95 47.65 67.96 47.71 67.96 47.76L67.96 48.48C67.96 48.54 67.95 48.6 67.92 48.65C67.9 48.7 67.87 48.75 67.83 48.79C67.79 48.83 67.74 48.86 67.69 48.88C67.64 48.91 67.58 48.92 67.52 48.92C67.46 48.92 67.41 48.91 67.36 48.88C67.3 48.86 67.25 48.83 67.21 48.79C67.17 48.75 67.14 48.7 67.12 48.65C67.1 48.6 67.09 48.54 67.09 48.48ZM67.67 48.5L67.67 47.74C67.67 47.62 67.61 47.56 67.52 47.56C67.43 47.56 67.38 47.62 67.38 47.74L67.38 48.5C67.38 48.63 67.43 48.68 67.52 48.68C67.62 48.68 67.67 48.63 67.67 48.5Z" fill="#263238" fill-opacity="1.000000" fill-rule="nonzero"/>
		<path id="Vector" d="M68.68 48L68.68 46.87C68.68 46.74 68.74 46.62 68.83 46.53C68.92 46.44 69.04 46.39 69.17 46.39C69.3 46.39 69.42 46.44 69.51 46.53C69.61 46.62 69.66 46.74 69.66 46.87L69.66 47.1L69.34 47.1L69.34 46.85C69.34 46.71 69.28 46.66 69.18 46.66C69.08 46.66 69.01 46.71 69.01 46.85L69.01 48.03C69.01 48.17 69.08 48.22 69.18 48.22C69.28 48.22 69.34 48.17 69.34 48.03L69.34 47.71L69.66 47.71L69.66 48C69.66 48.13 69.61 48.26 69.51 48.35C69.42 48.44 69.3 48.49 69.17 48.49C69.04 48.49 68.92 48.44 68.83 48.35C68.74 48.26 68.68 48.13 68.68 48Z" fill="#263238" fill-opacity="1.000000" fill-rule="nonzero"/>
		<path id="Vector" d="M69.84 47.99L69.84 46.89C69.84 46.75 69.89 46.63 69.98 46.53C70.08 46.44 70.21 46.38 70.34 46.38C70.47 46.38 70.6 46.44 70.69 46.53C70.79 46.63 70.84 46.75 70.84 46.89L70.84 47.99C70.84 48.12 70.79 48.25 70.69 48.35C70.6 48.44 70.47 48.49 70.34 48.49C70.21 48.49 70.08 48.44 69.98 48.35C69.89 48.25 69.84 48.12 69.84 47.99ZM70.51 48.01L70.51 46.87C70.51 46.71 70.45 46.66 70.34 46.66C70.23 46.66 70.17 46.71 70.17 46.87L70.17 48.01C70.17 48.16 70.23 48.22 70.34 48.22C70.44 48.22 70.51 48.16 70.51 48.01Z" fill="#263238" fill-opacity="1.000000" fill-rule="nonzero"/>
		<path id="Vector" d="M71.06 46.39L71.54 46.39L71.75 47.89L71.96 46.39L72.43 46.39L72.43 48.49L72.11 48.49L72.11 46.9L71.87 48.49L71.6 48.49L71.36 46.9L71.36 48.49L71.07 48.49L71.06 46.39Z" fill="#263238" fill-opacity="1.000000" fill-rule="nonzero"/>
		<path id="Vector" d="M72.68 46.39L73.16 46.39C73.49 46.39 73.66 46.57 73.66 46.91L73.66 47.11C73.66 47.45 73.49 47.63 73.16 47.63L73.01 47.63L73.01 48.49L72.68 48.49L72.68 46.39ZM73.16 47.33C73.27 47.33 73.33 47.29 73.33 47.14L73.33 46.88C73.33 46.72 73.27 46.68 73.16 46.68L73.01 46.68L73.01 47.32L73.16 47.33Z" fill="#263238" fill-opacity="1.000000" fill-rule="nonzero"/>
		<path id="Vector" d="M73.83 46.39L74.16 46.39L74.16 48.19L74.71 48.19L74.71 48.49L73.83 48.49L73.83 46.39Z" fill="#263238" fill-opacity="1.000000" fill-rule="nonzero"/>
		<path id="Vector" d="M74.88 46.39L75.78 46.39L75.78 46.69L75.21 46.69L75.21 47.24L75.66 47.24L75.66 47.54L75.2 47.54L75.2 48.19L75.77 48.19L75.77 48.49L74.88 48.49L74.88 46.39Z" fill="#263238" fill-opacity="1.000000" fill-rule="nonzero"/>
		<path id="Vector" d="M76.22 46.69L75.87 46.69L75.87 46.39L76.89 46.39L76.89 46.69L76.55 46.69L76.55 48.49L76.22 48.49L76.22 46.69Z" fill="#263238" fill-opacity="1.000000" fill-rule="nonzero"/>
		<path id="Vector" d="M77.05 46.39L77.95 46.39L77.95 46.69L77.38 46.69L77.38 47.24L77.84 47.24L77.84 47.54L77.38 47.54L77.38 48.19L77.95 48.19L77.95 48.49L77.05 48.49L77.05 46.39Z" fill="#263238" fill-opacity="1.000000" fill-rule="nonzero"/>
		<path id="Vector" d="M78.14 46.39L78.65 46.39C78.98 46.39 79.14 46.57 79.14 46.91L79.14 47.97C79.14 48.31 78.98 48.49 78.65 48.49L78.14 48.49L78.14 46.39ZM78.64 48.19C78.75 48.19 78.81 48.13 78.81 47.99L78.81 46.89C78.81 46.74 78.75 46.69 78.64 46.69L78.47 46.69L78.47 48.19L78.64 48.19Z" fill="#263238" fill-opacity="1.000000" fill-rule="nonzero"/>
		<path id="Vector" d="M80.59 80.55L49.95 80.55C48.96 80.55 48.16 81.34 48.16 82.33L48.16 88.91C48.16 89.89 48.96 90.69 49.95 90.69L80.59 90.69C81.57 90.69 82.37 89.89 82.37 88.91L82.37 82.33C82.37 81.34 81.57 80.55 80.59 80.55Z" fill="#263238" fill-opacity="1.000000" fill-rule="nonzero"/>
		<path id="Vector" d="M80.59 80.55C81.57 80.55 82.37 81.34 82.37 82.33L82.37 88.91C82.37 89.89 81.57 90.69 80.59 90.69L49.95 90.69C48.96 90.69 48.16 89.89 48.16 88.91L48.16 82.33C48.16 81.34 48.96 80.55 49.95 80.55L80.59 80.55Z" stroke="#263238" stroke-opacity="1.000000" stroke-width="1.000000" stroke-linejoin="round"/>
		<path id="Vector" d="M80.04 80L49.4 80C48.42 80 47.62 80.8 47.62 81.78L47.62 88.36C47.62 89.35 48.42 90.14 49.4 90.14L80.04 90.14C81.03 90.14 81.83 89.35 81.83 88.36L81.83 81.78C81.83 80.8 81.03 80 80.04 80Z" fill="#FFFFFF" fill-opacity="1.000000" fill-rule="nonzero"/>
		<path id="Vector" d="M80.04 80C81.03 80 81.83 80.8 81.83 81.78L81.83 88.36C81.83 89.35 81.03 90.14 80.04 90.14L49.4 90.14C48.42 90.14 47.62 89.35 47.62 88.36L47.62 81.78C47.62 80.8 48.42 80 49.4 80L80.04 80Z" stroke="#263238" stroke-opacity="1.000000" stroke-width="1.000000" stroke-linejoin="round"/>
		<path id="Vector" d="M72.14 85.57L58.2 85.57C58.04 85.57 57.89 85.64 57.78 85.75C57.67 85.86 57.61 86.01 57.61 86.16C57.61 86.32 57.67 86.47 57.78 86.58C57.89 86.69 58.04 86.75 58.2 86.75L72.14 86.75L72.14 85.57Z" fill="#FFFFFF" fill-opacity="1.000000" fill-rule="nonzero"/>
		<path id="Vector" d="M57.78 86.58C57.67 86.47 57.61 86.32 57.61 86.16C57.61 86.01 57.67 85.86 57.78 85.75C57.89 85.64 58.04 85.57 58.2 85.57L78.17 85.57C78.24 85.57 78.32 85.59 78.39 85.62C78.46 85.65 78.53 85.69 78.58 85.75C78.64 85.8 78.68 85.87 78.71 85.94C78.74 86.01 78.75 86.08 78.75 86.16C78.75 86.24 78.74 86.32 78.71 86.39C78.68 86.46 78.64 86.52 78.58 86.58C78.53 86.63 78.46 86.67 78.39 86.7C78.32 86.73 78.24 86.75 78.17 86.75L58.2 86.75C58.04 86.75 57.89 86.69 57.78 86.58Z" stroke="#263238" stroke-opacity="1.000000" stroke-width="1.000000" stroke-linejoin="round"/>
		<path id="Vector" d="M55.19 87.92L50.69 87.92L50.69 82.22L53.69 82.22L55.19 83.72L55.19 87.92Z" fill="#FFFFFF" fill-opacity="1.000000" fill-rule="nonzero"/>
		<g opacity="0.500000">
			<path id="Vector" d="M55.19 87.92L50.69 87.92L50.69 82.22L53.69 82.22L55.19 83.72L55.19 87.92Z" fill="#FFFFFF" fill-opacity="1.000000" fill-rule="nonzero"/>
		</g>
		<path id="Vector" d="M50.69 87.92L50.69 82.22L53.69 82.22L55.19 83.72L55.19 87.92L50.69 87.92Z" stroke="#263238" stroke-opacity="1.000000" stroke-width="1.000000" stroke-linejoin="round"/>
		<path id="Vector" d="M51.69 85.25C51.62 85.24 51.55 85.21 51.5 85.15C51.46 85.1 51.43 85.03 51.43 84.96C51.43 84.89 51.46 84.82 51.5 84.77C51.55 84.72 51.62 84.68 51.69 84.68L54.19 84.68C54.26 84.68 54.33 84.72 54.38 84.77C54.42 84.82 54.45 84.89 54.45 84.96C54.45 85.03 54.42 85.1 54.38 85.15C54.33 85.21 54.26 85.24 54.19 85.25L51.69 85.25Z" fill="#858585" fill-opacity="1.000000" fill-rule="nonzero"/>
		<path id="Vector" d="M51.5 85.15C51.46 85.1 51.43 85.03 51.43 84.96C51.43 84.89 51.46 84.82 51.5 84.77C51.55 84.72 51.62 84.68 51.69 84.68L54.19 84.68C54.26 84.68 54.33 84.72 54.38 84.77C54.42 84.82 54.45 84.89 54.45 84.96C54.45 85.03 54.42 85.1 54.38 85.15C54.33 85.21 54.26 85.24 54.19 85.25L51.69 85.25C51.62 85.24 51.55 85.21 51.5 85.15Z" stroke="#263238" stroke-opacity="1.000000" stroke-width="0.750000" stroke-linejoin="round"/>
		<path id="Vector" d="M51.69 86.44C51.61 86.44 51.54 86.41 51.49 86.36C51.44 86.31 51.41 86.23 51.41 86.16C51.41 86.08 51.44 86.01 51.49 85.96C51.54 85.91 51.61 85.88 51.69 85.88L53.65 85.88C53.72 85.88 53.79 85.91 53.85 85.96C53.9 86.01 53.93 86.08 53.93 86.16C53.93 86.23 53.9 86.31 53.85 86.36C53.79 86.41 53.72 86.44 53.65 86.44L51.69 86.44Z" fill="#858585" fill-opacity="1.000000" fill-rule="nonzero"/>
		<path id="Vector" d="M51.49 86.36C51.44 86.31 51.41 86.23 51.41 86.16C51.41 86.08 51.44 86.01 51.49 85.96C51.54 85.91 51.61 85.88 51.69 85.88L53.65 85.88C53.72 85.88 53.79 85.91 53.85 85.96C53.9 86.01 53.93 86.08 53.93 86.16C53.93 86.23 53.9 86.31 53.85 86.36C53.79 86.41 53.72 86.44 53.65 86.44L51.69 86.44C51.61 86.44 51.54 86.41 51.49 86.36Z" stroke="#263238" stroke-opacity="1.000000" stroke-width="0.750000" stroke-linejoin="round"/>
		<path id="Vector" d="M53.69 83.72L55.19 83.72L53.69 82.22L53.69 83.72Z" fill="#FFFFFF" fill-opacity="1.000000" fill-rule="nonzero"/>
		<path id="Vector" d="M55.19 83.72L53.69 82.22L53.69 83.72L55.19 83.72Z" stroke="#263238" stroke-opacity="1.000000" stroke-width="1.000000" stroke-linejoin="round"/>
		<path id="Vector" d="M66.87 82.56L66.2 82.56L66.2 82.26L67.19 82.26L67.19 82.55L66.67 84.37L66.33 84.37L66.87 82.56Z" fill="#263238" fill-opacity="1.000000" fill-rule="nonzero"/>
		<path id="Vector" d="M67.4 83.86L67.4 82.76C67.4 82.63 67.45 82.5 67.54 82.4C67.64 82.31 67.77 82.26 67.9 82.26C68.03 82.26 68.16 82.31 68.25 82.4C68.35 82.5 68.4 82.63 68.4 82.76L68.4 83.86C68.4 84 68.35 84.12 68.25 84.22C68.16 84.31 68.03 84.37 67.9 84.37C67.77 84.37 67.64 84.31 67.54 84.22C67.45 84.12 67.4 84 67.4 83.86ZM68.07 83.88L68.07 82.74C68.07 82.59 68 82.53 67.9 82.53C67.79 82.53 67.73 82.59 67.73 82.74L67.73 83.88C67.73 84.03 67.79 84.09 67.9 84.09C68 84.09 68.07 84.03 68.07 83.88Z" fill="#263238" fill-opacity="1.000000" fill-rule="nonzero"/>
		<path id="Vector" d="M68.6 83.09L68.6 82.57C68.6 82.53 68.61 82.48 68.62 82.44C68.63 82.4 68.66 82.36 68.69 82.33C68.72 82.29 68.75 82.27 68.79 82.25C68.83 82.23 68.88 82.22 68.92 82.22C68.97 82.22 69.01 82.23 69.05 82.25C69.09 82.27 69.13 82.29 69.16 82.33C69.19 82.36 69.21 82.4 69.23 82.44C69.24 82.48 69.25 82.53 69.24 82.57L69.24 83.09C69.25 83.14 69.24 83.18 69.23 83.22C69.21 83.26 69.19 83.3 69.16 83.34C69.13 83.37 69.09 83.39 69.05 83.41C69.01 83.43 68.97 83.44 68.92 83.44C68.88 83.44 68.83 83.43 68.79 83.41C68.75 83.39 68.72 83.37 68.69 83.34C68.66 83.3 68.63 83.26 68.62 83.22C68.61 83.18 68.6 83.14 68.6 83.09ZM69.03 83.11L69.03 82.55C69.03 82.46 68.99 82.42 68.92 82.42C68.86 82.42 68.81 82.46 68.81 82.55L68.81 83.11C68.81 83.2 68.85 83.24 68.92 83.24C68.99 83.24 69.03 83.2 69.03 83.11ZM69.67 82.26L69.89 82.26L69.07 84.36L68.86 84.36L69.67 82.26ZM69.52 84.06L69.52 83.54C69.51 83.49 69.52 83.45 69.53 83.4C69.55 83.36 69.57 83.32 69.6 83.29C69.63 83.26 69.66 83.23 69.71 83.21C69.75 83.2 69.79 83.19 69.83 83.19C69.88 83.19 69.92 83.2 69.96 83.21C70 83.23 70.04 83.26 70.07 83.29C70.1 83.32 70.12 83.36 70.14 83.4C70.15 83.45 70.16 83.49 70.15 83.54L70.15 84.06C70.16 84.1 70.15 84.14 70.14 84.19C70.12 84.23 70.1 84.27 70.07 84.3C70.04 84.33 70 84.36 69.96 84.38C69.92 84.4 69.88 84.4 69.83 84.4C69.79 84.4 69.75 84.4 69.71 84.38C69.66 84.36 69.63 84.33 69.6 84.3C69.57 84.27 69.55 84.23 69.53 84.19C69.52 84.14 69.51 84.1 69.52 84.06ZM69.94 84.07L69.94 83.51C69.94 83.42 69.9 83.38 69.83 83.38C69.77 83.38 69.73 83.42 69.73 83.51L69.73 84.07C69.73 84.16 69.77 84.2 69.83 84.2C69.9 84.2 69.95 84.16 69.95 84.07L69.94 84.07Z" fill="#263238" fill-opacity="1.000000" fill-rule="nonzero"/>
		<path id="Vector" d="M30.79 28.65L37.65 23.34L44.51 28.65L30.79 28.65Z" fill="#263238" fill-opacity="1.000000" fill-rule="nonzero"/>
		<path id="Vector" d="M37.65 23.34L44.51 28.65L30.79 28.65L37.65 23.34Z" stroke="#263238" stroke-opacity="1.000000" stroke-width="1.000000" stroke-linejoin="round"/>
		<path id="Vector" d="M39.45 22.93L35.86 22.93L35.86 26L39.45 26L39.45 22.93Z" fill="#263238" fill-opacity="1.000000" fill-rule="nonzero"/>
		<path id="Vector" d="M39.45 22.93L39.45 26L35.86 26L35.86 22.93L39.45 22.93Z" stroke="#263238" stroke-opacity="1.000000" stroke-width="1.000000" stroke-linejoin="round"/>
		<path id="Vector" d="M37.65 15.3L37.65 26" stroke="#263238" stroke-opacity="1.000000" stroke-width="0.750000" stroke-linejoin="round" stroke-linecap="round"/>
		<path id="Vector" d="M85.48 28.65L92.34 23.34L99.2 28.65L85.48 28.65Z" fill="#263238" fill-opacity="1.000000" fill-rule="nonzero"/>
		<path id="Vector" d="M92.34 23.34L99.2 28.65L85.48 28.65L92.34 23.34Z" stroke="#263238" stroke-opacity="1.000000" stroke-width="1.000000" stroke-linejoin="round"/>
		<path id="Vector" d="M94.13 22.93L90.55 22.93L90.55 26L94.13 26L94.13 22.93Z" fill="#263238" fill-opacity="1.000000" fill-rule="nonzero"/>
		<path id="Vector" d="M94.13 22.93L94.13 26L90.55 26L90.55 22.93L94.13 22.93Z" stroke="#263238" stroke-opacity="1.000000" stroke-width="1.000000" stroke-linejoin="round"/>
		<path id="Vector" d="M92.34 14.78L92.34 26" stroke="#263238" stroke-opacity="1.000000" stroke-width="0.750000" stroke-linejoin="round" stroke-linecap="round"/>
		<path id="Vector" d="M95.02 111.43L94.87 115.72L97.09 115.83L97.9 111.43L95.02 111.43Z" fill="#FFFFFF" fill-opacity="1.000000" fill-rule="nonzero"/>
		<path id="Vector" d="M94.87 115.72L97.09 115.83L97.9 111.43L95.02 111.43L94.87 115.72Z" stroke="#263238" stroke-opacity="1.000000" stroke-width="1.000000" stroke-linejoin="round"/>
		<path id="Vector" d="M90.67 117.03C91.42 116.77 92.72 116.33 93.2 116.03C93.59 115.78 94.14 114.99 94.54 114.76C94.62 114.73 94.71 114.71 94.81 114.71C94.9 114.71 94.99 114.73 95.07 114.76C95.14 114.84 95.18 114.93 95.2 115.02C95.21 115.07 95.23 115.1 95.26 115.13C95.3 115.16 95.34 115.18 95.38 115.19C95.42 115.19 95.47 115.19 95.5 115.17C95.54 115.15 95.58 115.12 95.6 115.08C95.66 114.96 95.75 114.85 95.86 114.77C96.2 114.58 97.13 114.52 97.43 114.77C97.94 115.18 98.12 116.61 98.21 117.25C98.24 117.39 98.21 118.17 98.21 118.17L90.11 118.17L90.11 117.81C90.11 117.64 90.17 117.47 90.27 117.33C90.37 117.19 90.51 117.09 90.67 117.03Z" fill="#FFFFFF" fill-opacity="1.000000" fill-rule="nonzero"/>
		<path id="Vector" d="M93.2 116.03C93.59 115.78 94.14 114.99 94.54 114.76C94.62 114.73 94.71 114.71 94.81 114.71C94.9 114.71 94.99 114.73 95.07 114.76C95.14 114.84 95.18 114.93 95.2 115.02C95.21 115.07 95.23 115.1 95.26 115.13C95.3 115.16 95.34 115.18 95.38 115.19C95.42 115.19 95.47 115.19 95.5 115.17C95.54 115.15 95.58 115.12 95.6 115.08C95.66 114.96 95.75 114.85 95.86 114.77C96.2 114.58 97.13 114.52 97.43 114.77C97.94 115.18 98.12 116.61 98.21 117.25C98.24 117.39 98.21 118.17 98.21 118.17L90.11 118.17L90.11 117.81C90.11 117.64 90.17 117.47 90.27 117.33C90.37 117.19 90.51 117.09 90.67 117.03C91.42 116.77 92.72 116.33 93.2 116.03Z" stroke="#263238" stroke-opacity="1.000000" stroke-width="1.000000" stroke-linejoin="round"/>
		<path id="Vector" d="M98.22 118.17L90.11 118.17L90.11 117.81C90.11 117.72 90.13 117.63 90.16 117.55L98.23 117.55C98.23 117.82 98.22 118.17 98.22 118.17Z" fill="#858585" fill-opacity="1.000000" fill-rule="nonzero"/>
		<path id="Vector" d="M90.11 118.17L90.11 117.81C90.11 117.72 90.13 117.63 90.16 117.55L98.23 117.55C98.23 117.82 98.22 118.17 98.22 118.17L90.11 118.17Z" stroke="#263238" stroke-opacity="1.000000" stroke-width="1.000000" stroke-linejoin="round"/>
		<path id="Vector" d="M96.42 78.17L94.71 113.06L97.83 113.58C97.83 113.58 99.8 103.48 100.04 100.18C100.1 99.4 100.04 97.04 100.04 97.04L102.25 86.18C102.25 86.18 103.7 84.84 103.87 78.45L96.42 78.17Z" fill="#263238" fill-opacity="1.000000" fill-rule="nonzero"/>
		<path id="Vector" d="M94.71 113.06L97.83 113.58C97.83 113.58 99.8 103.48 100.04 100.18C100.1 99.4 100.04 97.04 100.04 97.04L102.25 86.18C102.25 86.18 103.7 84.84 103.87 78.45L96.42 78.17L94.71 113.06Z" stroke="#263238" stroke-opacity="1.000000" stroke-width="1.000000" stroke-linejoin="round"/>
		<g opacity="0.700000">
			<path id="Vector" d="M101.04 91.67C101.16 91.17 101.3 90.67 101.47 90.18C101.49 90.11 101.52 90.04 101.55 89.98C101.63 89.24 101.75 88.51 101.91 87.78C101.97 87.51 102.11 87.27 102.32 87.09C102.39 86.95 102.47 86.83 102.59 86.73C102.7 86.64 102.84 86.56 102.98 86.53C102.89 85.85 102.74 85.19 102.55 84.54C102.35 83.86 102.02 83.21 101.93 82.5C101.9 82.32 101.8 82.13 101.83 82.11C101.61 82.02 101.39 81.92 101.18 81.81L101.14 81.78C100.94 85.08 100.91 88.38 101.04 91.67Z" fill="#000000" fill-opacity="1.000000" fill-rule="nonzero"/>
		</g>
		<path id="Vector" d="M96.27 98.13C96.82 98 97.33 97.72 97.74 97.33" stroke="#7F7F7F" stroke-opacity="1.000000" stroke-width="0.750000" stroke-linejoin="round" stroke-linecap="round"/>
		<path id="Vector" d="M94.3 113.72L98.08 114.03L98.36 112.81L94.3 112.49L94.3 113.72Z" fill="#FFFFFF" fill-opacity="1.000000" fill-rule="nonzero"/>
		<path id="Vector" d="M98.08 114.03L98.36 112.81L94.3 112.49L94.3 113.72L98.08 114.03Z" stroke="#263238" stroke-opacity="1.000000" stroke-width="1.000000" stroke-linejoin="round"/>
		<path id="Vector" d="M105.2 110.9L106 115.92L108.06 115.76L107.99 110.62L105.2 110.9Z" fill="#FFFFFF" fill-opacity="1.000000" fill-rule="nonzero"/>
		<path id="Vector" d="M106 115.92L108.06 115.76L107.99 110.62L105.2 110.9L106 115.92Z" stroke="#263238" stroke-opacity="1.000000" stroke-width="1.000000" stroke-linejoin="round"/>
		<path id="Vector" d="M101.76 117.03C102.51 116.77 103.81 116.33 104.29 116.03C104.68 115.78 105.22 114.99 105.63 114.76C105.71 114.73 105.8 114.71 105.89 114.71C105.99 114.71 106.08 114.73 106.16 114.76C106.21 114.81 106.24 114.87 106.26 114.94C106.27 114.99 106.3 115.03 106.34 115.07C106.38 115.1 106.43 115.12 106.48 115.13C106.53 115.13 106.58 115.12 106.63 115.1C106.68 115.08 106.71 115.04 106.74 114.99C106.79 114.9 106.86 114.83 106.95 114.76C107.29 114.57 108.22 114.52 108.52 114.76C109.03 115.18 109.21 116.6 109.3 117.25C109.32 117.39 109.3 118.17 109.3 118.17L101.2 118.17L101.2 117.81C101.2 117.64 101.26 117.47 101.36 117.33C101.46 117.19 101.6 117.09 101.76 117.03Z" fill="#FFFFFF" fill-opacity="1.000000" fill-rule="nonzero"/>
		<path id="Vector" d="M104.29 116.03C104.68 115.78 105.22 114.99 105.63 114.76C105.71 114.73 105.8 114.71 105.89 114.71C105.99 114.71 106.08 114.73 106.16 114.76C106.21 114.81 106.24 114.87 106.26 114.94C106.27 114.99 106.3 115.03 106.34 115.07C106.38 115.1 106.43 115.12 106.48 115.13C106.53 115.13 106.58 115.12 106.63 115.1C106.68 115.08 106.71 115.04 106.74 114.99C106.79 114.9 106.86 114.83 106.95 114.76C107.29 114.57 108.22 114.52 108.52 114.76C109.03 115.18 109.21 116.6 109.3 117.25C109.32 117.39 109.3 118.17 109.3 118.17L101.2 118.17L101.2 117.81C101.2 117.64 101.26 117.47 101.36 117.33C101.46 117.19 101.6 117.09 101.76 117.03C102.51 116.77 103.81 116.33 104.29 116.03Z" stroke="#263238" stroke-opacity="1.000000" stroke-width="1.000000" stroke-linejoin="round"/>
		<path id="Vector" d="M109.31 118.17L101.2 118.17L101.2 117.81C101.2 117.72 101.22 117.63 101.24 117.55L109.32 117.55C109.32 117.82 109.31 118.17 109.31 118.17Z" fill="#858585" fill-opacity="1.000000" fill-rule="nonzero"/>
		<path id="Vector" d="M101.2 118.17L101.2 117.81C101.2 117.72 101.22 117.63 101.24 117.55L109.32 117.55C109.32 117.82 109.31 118.17 109.31 118.17L101.2 118.17Z" stroke="#263238" stroke-opacity="1.000000" stroke-width="1.000000" stroke-linejoin="round"/>
		<path id="Vector" d="M100.76 79.22C100.76 79.22 101.54 83.74 102.26 87.53C102.75 90.1 102.78 97.68 102.78 97.68L105.27 113.36L108.34 112.94C108.34 112.94 108.38 103.3 108.03 100.2C107.95 99.51 107.82 97.47 107.82 97.47C107.82 97.47 107.94 89.28 108.57 86.55C109.03 84.6 109.93 82.55 108.83 78.55L100.76 79.22Z" fill="#263238" fill-opacity="1.000000" fill-rule="nonzero"/>
		<path id="Vector" d="M102.26 87.53C102.75 90.1 102.78 97.68 102.78 97.68L105.27 113.36L108.34 112.94C108.34 112.94 108.38 103.3 108.03 100.2C107.95 99.51 107.82 97.47 107.82 97.47C107.82 97.47 107.94 89.28 108.57 86.55C109.03 84.6 109.93 82.55 108.83 78.55L100.76 79.22C100.76 79.22 101.54 83.74 102.26 87.53Z" stroke="#263238" stroke-opacity="1.000000" stroke-width="1.000000" stroke-linejoin="round"/>
		<path id="Vector" d="M103.45 98.13C103.76 98.56 104.23 98.86 104.75 98.96" stroke="#7F7F7F" stroke-opacity="1.000000" stroke-width="0.750000" stroke-linejoin="round" stroke-linecap="round"/>
		<path id="Vector" d="M104.75 112.65L104.93 113.8L108.74 113.39L108.71 112.15L104.75 112.65Z" fill="#FFFFFF" fill-opacity="1.000000" fill-rule="nonzero"/>
		<path id="Vector" d="M104.93 113.8L108.74 113.39L108.71 112.15L104.75 112.65L104.93 113.8Z" stroke="#263238" stroke-opacity="1.000000" stroke-width="1.000000" stroke-linejoin="round"/>
		<path id="Vector" d="M86.27 58.33L85.43 56.92C85.43 56.92 85.23 54.61 84.76 54.16C84.29 53.71 83.25 52.39 83.1 52.65C82.87 53.07 83.74 53.81 83.74 53.81L83.89 54.67C83.89 54.67 82.49 53.66 82.1 53.66C82.1 53.66 80.98 52.33 80.58 52.33C80.19 52.33 80.75 53.25 80.75 53.25C80.75 53.25 80.37 52.96 80.3 53.14C80.22 53.32 80.78 53.93 80.78 53.93C80.78 53.93 80.57 54.16 80.89 54.67C80.85 54.83 80.85 55 80.89 55.16C80.94 55.32 81.03 55.47 81.15 55.58C81.58 55.93 83.9 57.24 83.9 57.24L84.68 59.07L86.27 58.33Z" fill="#858585" fill-opacity="1.000000" fill-rule="nonzero"/>
		<path id="Vector" d="M85.43 56.92C85.43 56.92 85.23 54.61 84.76 54.16C84.29 53.71 83.25 52.39 83.1 52.65C82.87 53.07 83.74 53.81 83.74 53.81L83.89 54.67C83.89 54.67 82.49 53.66 82.1 53.66C82.1 53.66 80.98 52.33 80.58 52.33C80.19 52.33 80.75 53.25 80.75 53.25C80.75 53.25 80.37 52.96 80.3 53.14C80.22 53.32 80.78 53.93 80.78 53.93C80.78 53.93 80.57 54.16 80.89 54.67C80.85 54.83 80.85 55 80.89 55.16C80.94 55.32 81.03 55.47 81.15 55.58C81.58 55.93 83.9 57.24 83.9 57.24L84.68 59.07L86.27 58.33L85.43 56.92Z" stroke="#263238" stroke-opacity="1.000000" stroke-width="1.000000" stroke-linejoin="round"/>
		<path id="Vector" d="M81.09 53.97C81.09 53.97 81.4 54.09 81.27 54.54C81.39 54.71 81.46 54.92 81.47 55.13C81.5 55.53 83.5 55.33 84.04 56.17" stroke="#263238" stroke-opacity="1.000000" stroke-width="0.750000" stroke-linejoin="round" stroke-linecap="round"/>
		<path id="Vector" d="M81.09 53.48L81.91 53.48" stroke="#263238" stroke-opacity="1.000000" stroke-width="0.750000" stroke-linejoin="round" stroke-linecap="round"/>
		<path id="Vector" d="M94.94 57.98L89.58 62.15L85.91 57.15L84.04 58.08C84.04 58.08 86.98 66.2 89.2 66.2C91.56 66.2 96.06 62.41 96.06 62.41C96.06 62.41 96.34 61.68 94.94 57.98Z" fill="#FFFFFF" fill-opacity="1.000000" fill-rule="nonzero"/>
		<path id="Vector" d="M89.58 62.15L85.91 57.15L84.04 58.08C84.04 58.08 86.98 66.2 89.2 66.2C91.56 66.2 96.06 62.41 96.06 62.41C96.06 62.41 96.34 61.68 94.94 57.98L89.58 62.15Z" stroke="#263238" stroke-opacity="1.000000" stroke-width="1.000000" stroke-linejoin="round"/>
		<path id="Vector" d="M89.78 62.55C89.91 62.81 90 63.09 90.06 63.38" stroke="#263238" stroke-opacity="1.000000" stroke-width="0.750000" stroke-linejoin="round" stroke-linecap="round"/>
		<path id="Vector" d="M94.94 57.98L96.08 73.08L96.08 79.36C96.08 79.36 102.66 80.14 109.14 79.19L108.92 72.73L109.58 58.33C109.58 58.33 106.57 56.16 101.94 56.16C97.32 56.16 94.94 57.98 94.94 57.98Z" fill="#FFFFFF" fill-opacity="1.000000" fill-rule="nonzero"/>
		<path id="Vector" d="M96.08 73.08L96.08 79.36C96.08 79.36 102.66 80.14 109.14 79.19L108.92 72.73L109.58 58.33C109.58 58.33 106.57 56.16 101.94 56.16C97.32 56.16 94.94 57.98 94.94 57.98L96.08 73.08Z" stroke="#263238" stroke-opacity="1.000000" stroke-width="1.000000" stroke-linejoin="round"/>
		<g opacity="0.200000">
			<path id="Vector" d="M109.14 79.19L108.93 73.4C108.82 76.19 105.74 75.15 105.05 75.02C104.3 74.88 103.44 77.33 103.44 77.33C103.44 77.33 100.58 77.83 98.34 77.65C96.11 77.48 96.07 75.43 96.07 75.43L96.07 79.36C96.07 79.36 102.66 80.15 109.14 79.19Z" fill="#000000" fill-opacity="1.000000" fill-rule="nonzero"/>
		</g>
		<path id="Vector" d="M99.16 72.94C101.92 72.64 104.56 71.69 106.88 70.16L99.16 72.94ZM99.22 73.29L99.2 73.31C98.99 73.33 98.81 73.19 98.79 72.98C98.77 72.77 98.91 72.59 99.12 72.57L99.14 72.58L99.22 73.29ZM106.67 69.87L106.67 69.85C106.85 69.73 107.08 69.78 107.19 69.95C107.31 70.13 107.26 70.36 107.09 70.47L107.06 70.47L106.67 69.87Z" fill="#FFFFFF" fill-opacity="1.000000" fill-rule="nonzero"/>
		<path id="Vector" d="M99.16 72.94C101.92 72.64 104.56 71.69 106.88 70.16" stroke="#263238" stroke-opacity="1.000000" stroke-width="0.750000" stroke-linejoin="round" stroke-linecap="round"/>
		<path id="Vector" d="M98.01 73.02C98.01 73.02 98.24 73.02 98.63 72.99L98.01 73.02ZM98.03 73.37L98.01 73.39C97.8 73.39 97.64 73.23 97.64 73.02C97.64 72.81 97.8 72.64 98.01 72.64L98.03 72.66L98.03 73.37ZM98.58 72.63L98.6 72.61C98.81 72.6 98.98 72.75 99 72.96C99.01 73.17 98.86 73.35 98.65 73.36L98.63 73.34L98.58 72.63Z" fill="#FFFFFF" fill-opacity="1.000000" fill-rule="nonzero"/>
		<path id="Vector" d="M98.01 73.02C98.01 73.02 98.24 73.02 98.63 72.99" stroke="#263238" stroke-opacity="1.000000" stroke-width="0.750000" stroke-linejoin="round" stroke-linecap="round"/>
		<path id="Vector" d="M100.24 58.7L99.1 58.29L98.01 59.34L98.81 56.09L99.77 55.34L100.26 55.65L102.44 55.56L104.14 55.7L104.95 55.45L105.81 56.31L103.89 59.99L103.09 58.6L101.31 58.82L100.24 58.7Z" fill="#FFFFFF" fill-opacity="1.000000" fill-rule="nonzero"/>
		<g opacity="0.500000">
			<path id="Vector" d="M100.24 58.7L99.1 58.29L98.01 59.34L98.81 56.09L99.77 55.34L100.26 55.65L102.44 55.56L104.14 55.7L104.95 55.45L105.81 56.31L103.89 59.99L103.09 58.6L101.31 58.82L100.24 58.7Z" fill="#FFFFFF" fill-opacity="1.000000" fill-rule="nonzero"/>
		</g>
		<path id="Vector" d="M99.1 58.29L98.01 59.34L98.81 56.09L99.77 55.34L100.26 55.65L102.44 55.56L104.14 55.7L104.95 55.45L105.81 56.31L103.89 59.99L103.09 58.6L101.31 58.82L100.24 58.7L99.1 58.29Z" stroke="#263238" stroke-opacity="1.000000" stroke-width="1.000000" stroke-linejoin="round"/>
		<path id="Vector" d="M104.02 56.3L103.76 52.33L101.25 52.78L100.73 54.64L100.21 56.26L99.96 56.29L100.65 60L104.27 56.36L104.02 56.3Z" fill="#858585" fill-opacity="1.000000" fill-rule="nonzero"/>
		<path id="Vector" d="M97.85 52.61C97.85 53.61 98 55.87 99.39 56.13C100.83 56.41 102.47 54.77 103.06 54.12C103.21 53.96 103.33 53.77 103.4 53.57L103.72 52.73C103.92 52.75 104.13 52.7 104.31 52.61L97.85 52.61Z" fill="#263238" fill-opacity="1.000000" fill-rule="nonzero"/>
		<path id="Vector" d="M99.39 56.13C100.83 56.41 102.47 54.77 103.06 54.12C103.21 53.96 103.33 53.77 103.4 53.57L103.72 52.73C103.92 52.75 104.13 52.7 104.31 52.61L97.85 52.61C97.85 53.61 98 55.87 99.39 56.13Z" stroke="#263238" stroke-opacity="1.000000" stroke-width="0.500000" stroke-linejoin="round"/>
		<path id="Vector" d="M103.76 52.33L101.25 52.78L100.73 54.64L100.21 56.26L99.96 56.29L100.65 60L104.27 56.36L104.02 56.3L103.76 52.33Z" stroke="#263238" stroke-opacity="1.000000" stroke-width="1.000000" stroke-linejoin="round"/>
		<path id="Vector" d="M99.52 47.5C99.52 47.5 98.33 46.6 98.92 45.89C99.22 45.52 99.62 46 99.62 46C99.62 46 99.41 44.87 100.25 44.7C101.03 44.56 101 45.45 101 45.45C101 45.45 101.4 44.69 102.11 44.86C102.67 44.99 102.45 45.79 102.45 45.79C102.45 45.79 103.2 44.86 103.98 45.27C104.65 45.62 104.09 46.46 104.09 46.46C104.09 46.46 104.89 46.18 105.33 46.63C105.78 47.08 105.33 47.67 105.33 47.67C105.33 47.67 106.21 47.67 106.25 48.32C106.29 48.98 105.57 49.1 105.57 49.1C105.57 49.1 106.59 49.43 106.59 50.23C106.6 51.02 105.92 50.77 105.92 50.77C105.92 50.77 106.34 51.52 105.99 51.91C105.95 51.97 105.9 52.01 105.84 52.04C105.78 52.07 105.72 52.09 105.65 52.09C105.59 52.09 105.52 52.07 105.46 52.04C105.4 52.01 105.35 51.97 105.31 51.91C105.31 51.91 105.75 52.86 105.19 53.13C104.8 53.33 104.56 52.85 104.56 52.85C104.56 52.85 104.23 53.67 103.82 53.17C103.42 52.67 101.4 48.82 101.4 48.82L99.52 47.5Z" fill="#263238" fill-opacity="1.000000" fill-rule="nonzero"/>
		<path id="Vector" d="M98.92 45.89C99.22 45.52 99.62 46 99.62 46C99.62 46 99.41 44.87 100.25 44.7C101.03 44.56 101 45.45 101 45.45C101 45.45 101.4 44.69 102.11 44.86C102.67 44.99 102.45 45.79 102.45 45.79C102.45 45.79 103.2 44.86 103.98 45.27C104.65 45.62 104.09 46.46 104.09 46.46C104.09 46.46 104.89 46.18 105.33 46.63C105.78 47.08 105.33 47.67 105.33 47.67C105.33 47.67 106.21 47.67 106.25 48.32C106.29 48.98 105.57 49.1 105.57 49.1C105.57 49.1 106.59 49.43 106.59 50.23C106.6 51.02 105.92 50.77 105.92 50.77C105.92 50.77 106.34 51.52 105.99 51.91C105.95 51.97 105.9 52.01 105.84 52.04C105.78 52.07 105.72 52.09 105.65 52.09C105.59 52.09 105.52 52.07 105.46 52.04C105.4 52.01 105.35 51.97 105.31 51.91C105.31 51.91 105.75 52.86 105.19 53.13C104.8 53.33 104.56 52.85 104.56 52.85C104.56 52.85 104.23 53.67 103.82 53.17C103.42 52.67 101.4 48.82 101.4 48.82L99.52 47.5C99.52 47.5 98.33 46.6 98.92 45.89Z" stroke="#263238" stroke-opacity="1.000000" stroke-width="0.750000" stroke-linejoin="round"/>
		<path id="Vector" d="M99.18 47.54L98.43 49.1C98.35 49.26 98.31 49.44 98.31 49.62L98.31 50.11L97.9 51.15C97.88 51.2 97.86 51.26 97.85 51.32C97.72 51.87 97.08 54.84 98.63 55.45C99.99 55.99 101.91 54.69 102.61 54.16C102.79 54.03 102.94 53.87 103.05 53.68L103.52 52.92C103.72 52.98 103.93 52.97 104.13 52.9C104.32 52.84 104.49 52.71 104.61 52.54C105.03 51.94 105.51 51.61 104.94 51.07C104.36 50.53 103.83 51.39 103.83 51.39L103.91 49.87L103.24 48.7L103.21 47.96C103.21 47.96 101.03 47.72 99.57 46.92L99.18 47.54Z" fill="#FFFFFF" fill-opacity="1.000000" fill-rule="nonzero"/>
		<path id="Vector" d="M98.43 49.1C98.35 49.26 98.31 49.44 98.31 49.62L98.31 50.11L97.9 51.15C97.88 51.2 97.86 51.26 97.85 51.32C97.72 51.87 97.08 54.84 98.63 55.45C99.99 55.99 101.91 54.69 102.61 54.16C102.79 54.03 102.94 53.87 103.05 53.68L103.52 52.92C103.72 52.98 103.93 52.97 104.13 52.9C104.32 52.84 104.49 52.71 104.61 52.54C105.03 51.94 105.51 51.61 104.94 51.07C104.36 50.53 103.83 51.39 103.83 51.39L103.91 49.87L103.24 48.7L103.21 47.96C103.21 47.96 101.03 47.72 99.57 46.92L99.18 47.54L98.43 49.1Z" stroke="#263238" stroke-opacity="1.000000" stroke-width="0.750000" stroke-linejoin="round"/>
		<path id="Vector" d="M99.18 47.54L98.43 49.1C98.35 49.26 98.31 49.44 98.31 49.62L98.31 50.11L97.9 51.15C97.88 51.2 97.86 51.26 97.85 51.32C97.72 51.87 97.08 54.84 98.63 55.45C99.99 55.99 101.91 54.69 102.61 54.16C102.79 54.03 102.94 53.87 103.05 53.68L103.52 52.92C103.72 52.98 103.93 52.97 104.13 52.9C104.32 52.84 104.49 52.71 104.61 52.54C105.03 51.94 105.51 51.61 104.94 51.07C104.36 50.53 103.83 51.39 103.83 51.39L103.91 49.87L103.24 48.7L103.21 47.96C103.21 47.96 101.03 47.72 99.57 46.92L99.18 47.54Z" fill="#858585" fill-opacity="1.000000" fill-rule="nonzero"/>
		<path id="Vector" d="M98.43 49.1C98.35 49.26 98.31 49.44 98.31 49.62L98.31 50.11L97.9 51.15C97.88 51.2 97.86 51.26 97.85 51.32C97.72 51.87 97.08 54.84 98.63 55.45C99.99 55.99 101.91 54.69 102.61 54.16C102.79 54.03 102.94 53.87 103.05 53.68L103.52 52.92C103.72 52.98 103.93 52.97 104.13 52.9C104.32 52.84 104.49 52.71 104.61 52.54C105.03 51.94 105.51 51.61 104.94 51.07C104.36 50.53 103.83 51.39 103.83 51.39L103.91 49.87L103.24 48.7L103.21 47.96C103.21 47.96 101.03 47.72 99.57 46.92L99.18 47.54L98.43 49.1Z" stroke="#263238" stroke-opacity="1.000000" stroke-width="1.000000" stroke-linejoin="round"/>
		<path id="Vector" d="M100.51 52.87C100.08 53.68 99.51 53.55 99.15 53.34" stroke="#263238" stroke-opacity="1.000000" stroke-width="0.750000" stroke-linejoin="round" stroke-linecap="round"/>
		<path id="Vector" d="M100.51 51.02C100.46 51.2 100.34 51.33 100.25 51.31C100.17 51.28 100.14 51.11 100.2 50.92C100.25 50.74 100.37 50.61 100.46 50.64C100.54 50.66 100.57 50.84 100.51 51.02Z" fill="#263238" fill-opacity="1.000000" fill-rule="nonzero"/>
		<path id="Vector" d="M98.78 50.48C98.72 50.67 98.6 50.8 98.52 50.77C98.43 50.74 98.4 50.57 98.46 50.38C98.52 50.2 98.64 50.07 98.72 50.1C98.8 50.13 98.83 50.3 98.78 50.48Z" fill="#263238" fill-opacity="1.000000" fill-rule="nonzero"/>
		<path id="Vector" d="M98.65 49.28C98.72 49.26 98.79 49.26 98.86 49.27C98.93 49.28 99 49.3 99.06 49.34C99.12 49.38 99.18 49.42 99.22 49.48C99.26 49.54 99.29 49.61 99.3 49.68" stroke="#263238" stroke-opacity="1.000000" stroke-width="0.750000" stroke-linejoin="round" stroke-linecap="round"/>
		<path id="Vector" d="M100.15 49.99C100.15 49.99 100.75 49.35 101.16 50.03" stroke="#263238" stroke-opacity="1.000000" stroke-width="0.750000" stroke-linejoin="round" stroke-linecap="round"/>
		<path id="Vector" d="M99.31 50.65C99.26 50.89 99.14 51.12 98.97 51.32C98.81 51.51 98.59 51.65 98.35 51.74L98.83 52.49" stroke="#263238" stroke-opacity="1.000000" stroke-width="0.750000" stroke-linejoin="round" stroke-linecap="round"/>
		<path id="Vector" d="M102.33 80.45L102.2 81.26C102.18 81.39 102.22 81.53 102.29 81.63C102.37 81.74 102.49 81.82 102.62 81.84L110.96 83.21C111.09 83.23 111.23 83.2 111.34 83.12C111.44 83.04 111.52 82.92 111.54 82.79L111.67 81.99L102.33 80.45Z" fill="#FFFFFF" fill-opacity="1.000000" fill-rule="nonzero"/>
		<path id="Vector" d="M102.2 81.26C102.18 81.39 102.22 81.53 102.29 81.63C102.37 81.74 102.49 81.82 102.62 81.84L110.96 83.21C111.09 83.23 111.23 83.2 111.34 83.12C111.44 83.04 111.52 82.92 111.54 82.79L111.67 81.99L102.33 80.45L102.2 81.26Z" stroke="#263238" stroke-opacity="1.000000" stroke-width="0.750000" stroke-linejoin="round"/>
		<path id="Vector" d="M103.61 75.54L112.05 76.93C112.3 76.97 112.47 77.2 112.43 77.45L111.59 82.55C111.55 82.8 111.31 82.97 111.06 82.93L102.63 81.54C102.38 81.5 102.21 81.27 102.25 81.01L103.08 75.92C103.13 75.67 103.36 75.5 103.61 75.54Z" fill="#FFFFFF" fill-opacity="1.000000" fill-rule="evenodd"/>
		<g opacity="0.500000">
			<path id="Vector" d="M103.61 75.54L112.05 76.93C112.3 76.97 112.47 77.2 112.43 77.45L111.59 82.55C111.55 82.8 111.31 82.97 111.06 82.93L102.63 81.54C102.38 81.5 102.21 81.27 102.25 81.01L103.08 75.92C103.13 75.67 103.36 75.5 103.61 75.54Z" fill="#FFFFFF" fill-opacity="1.000000" fill-rule="evenodd"/>
		</g>
		<path id="Vector" d="M112.05 76.93C112.3 76.97 112.47 77.2 112.43 77.45L111.59 82.55C111.55 82.8 111.31 82.97 111.06 82.93L102.63 81.54C102.38 81.5 102.21 81.27 102.25 81.01L103.08 75.92C103.13 75.67 103.36 75.5 103.61 75.54L112.05 76.93Z" stroke="#263238" stroke-opacity="1.000000" stroke-width="1.000000" stroke-linejoin="round"/>
		<path id="Vector" d="M108.79 77.88L108.33 79.44L106.77 80.55C106.55 81.23 106.29 81.9 105.99 82.56C105.97 82.59 105.96 82.63 105.96 82.67C105.96 82.72 105.97 82.76 105.99 82.79C106.01 82.83 106.04 82.86 106.08 82.88C106.11 82.9 106.15 82.91 106.19 82.92C106.41 82.92 106.66 82.82 106.8 82.4C106.8 82.4 106.86 83.22 107.37 82.72C107.37 82.72 107.68 83.51 108.16 82.89C108.16 82.89 109.28 83.05 109.46 82.24C109.64 81.43 109.91 80.01 109.91 80.01L110.62 78.34L108.79 77.88Z" fill="#858585" fill-opacity="1.000000" fill-rule="nonzero"/>
		<path id="Vector" d="M108.33 79.44L106.77 80.55C106.55 81.23 106.29 81.9 105.99 82.56C105.97 82.59 105.96 82.63 105.96 82.67C105.96 82.72 105.97 82.76 105.99 82.79C106.01 82.83 106.04 82.86 106.08 82.88C106.11 82.9 106.15 82.91 106.19 82.92C106.41 82.92 106.66 82.82 106.8 82.4C106.8 82.4 106.86 83.22 107.37 82.72C107.37 82.72 107.68 83.51 108.16 82.89C108.16 82.89 109.28 83.05 109.46 82.24C109.64 81.43 109.91 80.01 109.91 80.01L110.62 78.34L108.79 77.88L108.33 79.44Z" stroke="#263238" stroke-opacity="1.000000" stroke-width="1.000000" stroke-linejoin="round"/>
		<path id="Vector" d="M106.79 80.87L106.97 80.87" stroke="#263238" stroke-opacity="1.000000" stroke-width="0.750000" stroke-linejoin="round" stroke-linecap="round"/>
		<path id="Vector" d="M107.07 82.16C107.07 82.16 107.19 82.55 107.47 82.49C107.74 82.42 108.14 82.73 108.99 82.37" stroke="#263238" stroke-opacity="1.000000" stroke-width="0.750000" stroke-linejoin="round" stroke-linecap="round"/>
		<path id="Vector" d="M109.58 58.33C109.58 58.33 113.48 69.17 113.4 70.75C113.33 72.33 110.56 79.22 110.56 79.22L108.41 78.54L109.84 70.46L108.56 64.85C108.56 64.85 108.27 60.73 109.58 58.33Z" fill="#FFFFFF" fill-opacity="1.000000" fill-rule="nonzero"/>
		<path id="Vector" d="M113.4 70.75C113.33 72.33 110.56 79.22 110.56 79.22L108.41 78.54L109.84 70.46L108.56 64.85C108.56 64.85 108.27 60.73 109.58 58.33C109.58 58.33 113.48 69.17 113.4 70.75Z" stroke="#263238" stroke-opacity="1.000000" stroke-width="1.000000" stroke-linejoin="round"/>
		<path id="Vector" d="M110.33 70.28C110.47 70.17 110.64 70.1 110.81 70.06C110.99 70.02 111.17 70.02 111.35 70.07" stroke="#263238" stroke-opacity="1.000000" stroke-width="0.750000" stroke-linejoin="round" stroke-linecap="round"/>
		<path id="Vector" d="M107.79 78.71C107.71 78.61 107.66 78.49 107.62 78.37C107.47 78.37 107.32 78.42 107.21 78.52C107.1 78.62 107.03 78.76 107.02 78.91C107.01 79.06 107.05 79.21 107.14 79.33C107.23 79.44 107.37 79.52 107.51 79.55C107.67 79.57 107.83 79.54 107.96 79.44C108.08 79.35 108.17 79.21 108.2 79.06C108.03 78.99 107.89 78.87 107.79 78.71Z" fill="#FFFFFF" fill-opacity="1.000000" fill-rule="nonzero"/>
		<path id="Vector" d="M31.7 55.84L32.17 58.17L26.91 58.39L27.83 51.93L31.37 52.34L31.7 55.84Z" fill="#FFFFFF" fill-opacity="1.000000" fill-rule="nonzero"/>
		<path id="Vector" d="M34.06 52.3L29.66 53.6C29.71 54.11 29.82 54.6 29.97 55.09C30.23 55.84 31.81 57.17 32.83 57.15C33.85 57.14 33.96 53.9 33.96 53.9L34.58 53.55C34.61 53.54 34.64 53.51 34.66 53.48C34.69 53.44 34.71 53.41 34.71 53.37C34.72 53.33 34.72 53.29 34.71 53.25C34.71 53.21 34.69 53.17 34.66 53.14L34.06 52.3Z" fill="#263238" fill-opacity="1.000000" fill-rule="nonzero"/>
		<path id="Vector" d="M29.66 53.6C29.71 54.11 29.82 54.6 29.97 55.09C30.23 55.84 31.81 57.17 32.83 57.15C33.85 57.14 33.96 53.9 33.96 53.9L34.58 53.55C34.61 53.54 34.64 53.51 34.66 53.48C34.69 53.44 34.71 53.41 34.71 53.37C34.72 53.33 34.72 53.29 34.71 53.25C34.71 53.21 34.69 53.17 34.66 53.14L34.06 52.3L29.66 53.6Z" stroke="#263238" stroke-opacity="1.000000" stroke-width="0.750000" stroke-linejoin="round"/>
		<path id="Vector" d="M32.17 58.17L26.91 58.39L27.83 51.93L31.37 52.34L31.7 55.84L32.17 58.17Z" stroke="#263238" stroke-opacity="1.000000" stroke-width="1.000000" stroke-linejoin="round"/>
		<path id="Vector" d="M31.94 47.62C31.94 47.62 33.22 47.88 33.09 46.5C32.96 45.11 30.58 45.96 29.34 46.12C28.1 46.27 24.09 47.77 25.51 50.13C25.51 50.13 24.68 51.46 27.68 53.69C27.68 53.69 29.11 53.02 29.89 54L30.5 52.81L32.06 50.07L31.94 47.62Z" fill="#263238" fill-opacity="1.000000" fill-rule="nonzero"/>
		<path id="Vector" d="M33.09 46.5C32.96 45.11 30.58 45.96 29.34 46.12C28.1 46.27 24.09 47.77 25.51 50.13C25.51 50.13 24.68 51.46 27.68 53.69C27.68 53.69 29.11 53.02 29.89 54L30.5 52.81L32.06 50.07L31.94 47.62C31.94 47.62 33.22 47.88 33.09 46.5Z" stroke="#263238" stroke-opacity="1.000000" stroke-width="1.000000" stroke-linejoin="round"/>
		<path id="Vector" d="M31.85 47.42C31.85 47.42 33.07 48.1 33.77 47.24C33.77 47.24 33.85 49.06 31.85 47.42Z" fill="#263238" fill-opacity="1.000000" fill-rule="nonzero"/>
		<path id="Vector" d="M33.77 47.24C33.77 47.24 33.85 49.06 31.85 47.42C31.85 47.42 33.07 48.1 33.77 47.24Z" stroke="#263238" stroke-opacity="1.000000" stroke-width="1.000000" stroke-linejoin="round"/>
		<path id="Vector" d="M31.98 47.23C31.98 47.23 33.79 49.14 33.73 50.46L33.73 51.65L34.69 52.74C34.72 52.76 34.74 52.8 34.75 52.83C34.77 52.87 34.77 52.91 34.77 52.95C34.76 52.99 34.75 53.02 34.73 53.06C34.71 53.09 34.68 53.12 34.65 53.14L34.09 53.52C34.09 53.52 34.25 56.59 33.29 56.7C32.33 56.81 30.73 55.66 30.41 54.99C30.17 54.36 29.99 53.72 29.89 53.06C29.61 52.99 29.36 52.83 29.17 52.61C28.98 52.39 28.86 52.12 28.82 51.83C28.71 50.82 29.73 50.85 29.99 51.51L30.2 52.05L30.87 52.03C30.87 52.03 30.49 51.07 30.71 50.79C30.94 50.51 31.81 49.83 31.41 49.18C31.01 48.52 31.14 47.41 31.98 47.23Z" fill="#FFFFFF" fill-opacity="1.000000" fill-rule="nonzero"/>
		<path id="Vector" d="M33.73 50.46L33.73 51.65L34.69 52.74C34.72 52.76 34.74 52.8 34.75 52.83C34.77 52.87 34.77 52.91 34.77 52.95C34.76 52.99 34.75 53.02 34.73 53.06C34.71 53.09 34.68 53.12 34.65 53.14L34.09 53.52C34.09 53.52 34.25 56.59 33.29 56.7C32.33 56.81 30.73 55.66 30.41 54.99C30.17 54.36 29.99 53.72 29.89 53.06C29.61 52.99 29.36 52.83 29.17 52.61C28.98 52.39 28.86 52.12 28.82 51.83C28.71 50.82 29.73 50.85 29.99 51.51L30.2 52.05L30.87 52.03C30.87 52.03 30.49 51.07 30.71 50.79C30.94 50.51 31.81 49.83 31.41 49.18C31.01 48.52 31.14 47.41 31.98 47.23C31.98 47.23 33.79 49.14 33.73 50.46Z" stroke="#263238" stroke-opacity="1.000000" stroke-width="1.000000" stroke-linejoin="round"/>
		<path id="Vector" d="M33.02 54.12C33.09 54.26 33.21 54.37 33.35 54.43C33.49 54.5 33.64 54.51 33.8 54.49" stroke="#263238" stroke-opacity="1.000000" stroke-width="0.750000" stroke-linejoin="round" stroke-linecap="round"/>
		<path id="Vector" d="M32.54 50.46C32.54 50.46 32.95 49.89 33.34 50.41" stroke="#263238" stroke-opacity="1.000000" stroke-width="1.000000" stroke-linejoin="round" stroke-linecap="round"/>
		<path id="Vector" d="M33.19 51.66C33.19 51.84 33.12 51.99 33.02 51.99C32.93 51.99 32.84 51.85 32.84 51.67C32.83 51.49 32.91 51.34 33 51.34C33.1 51.34 33.18 51.47 33.19 51.66Z" fill="#263238" fill-opacity="1.000000" fill-rule="nonzero"/>
		<path id="Vector" d="M24.85 109.26L24.09 115.79L26.35 116.14L27.6 109.68L24.85 109.26Z" fill="#FFFFFF" fill-opacity="1.000000" fill-rule="nonzero"/>
		<path id="Vector" d="M24.09 115.79L26.35 116.14L27.6 109.68L24.85 109.26L24.09 115.79Z" stroke="#263238" stroke-opacity="1.000000" stroke-width="1.000000" stroke-linejoin="round"/>
		<path id="Vector" d="M23.79 80.39C23.79 80.39 23.88 84.17 25.21 86.84L25.52 96.88L23.98 113.07L27.41 113.4L30.53 96.47L31.57 81.13L23.79 80.39Z" fill="#FFFFFF" fill-opacity="1.000000" fill-rule="nonzero"/>
		<path id="Vector" d="M25.21 86.84L25.52 96.88L23.98 113.07L27.41 113.4L30.53 96.47L31.57 81.13L23.79 80.39C23.79 80.39 23.88 84.17 25.21 86.84Z" stroke="#263238" stroke-opacity="1.000000" stroke-width="1.000000" stroke-linejoin="round"/>
		<g opacity="0.200000">
			<path id="Vector" d="M31.08 88.5L30.8 86.7L29.5 81.03L29.26 80.91L23.8 80.39C23.8 80.39 23.8 81.01 23.92 81.93L26.62 83.46C26.68 84.41 26.9 85.36 27.26 86.25C27.29 86.33 27.3 86.41 27.29 86.5C27.28 86.58 27.25 86.66 27.2 86.73C27.15 86.8 27.09 86.85 27.01 86.89C26.93 86.92 26.85 86.94 26.77 86.93C26.49 86.91 26.25 86.93 26.25 87.11C26.25 87.53 28.28 88.89 28.28 88.89C28.28 88.89 30.33 95.52 30.26 97.97L30.54 96.46L31.08 88.5Z" fill="#000000" fill-opacity="1.000000" fill-rule="nonzero"/>
		</g>
		<path id="Vector" d="M31.75 109.69L31.99 116.26L34.28 116.26L34.52 109.69L31.75 109.69Z" fill="#FFFFFF" fill-opacity="1.000000" fill-rule="nonzero"/>
		<path id="Vector" d="M31.99 116.26L34.28 116.26L34.52 109.69L31.75 109.69L31.99 116.26Z" stroke="#263238" stroke-opacity="1.000000" stroke-width="1.000000" stroke-linejoin="round"/>
		<path id="Vector" d="M37.92 117.19C37.16 116.96 36.43 116.66 35.72 116.31C35.39 116.1 34.91 115.41 34.56 115.22C34.49 115.19 34.41 115.17 34.33 115.17C34.25 115.17 34.17 115.19 34.1 115.22C33.94 115.35 33.93 116.06 33.93 116.06C33.93 116.06 33.63 115.34 33.42 115.22C33.12 115.05 32.32 115 32.06 115.22C31.62 115.57 31.46 116.81 31.37 117.37C31.35 117.49 31.37 118.17 31.37 118.17L38.39 118.17L38.39 117.86C38.39 117.71 38.35 117.56 38.26 117.44C38.18 117.32 38.06 117.23 37.92 117.19Z" fill="#263238" fill-opacity="1.000000" fill-rule="nonzero"/>
		<path id="Vector" d="M35.72 116.31C35.39 116.1 34.91 115.41 34.56 115.22C34.49 115.19 34.41 115.17 34.33 115.17C34.25 115.17 34.17 115.19 34.1 115.22C33.94 115.35 33.93 116.06 33.93 116.06C33.93 116.06 33.63 115.34 33.42 115.22C33.12 115.05 32.32 115 32.06 115.22C31.62 115.57 31.46 116.81 31.37 117.37C31.35 117.49 31.37 118.17 31.37 118.17L38.39 118.17L38.39 117.86C38.39 117.71 38.35 117.56 38.26 117.44C38.18 117.32 38.06 117.23 37.92 117.19C37.16 116.96 36.43 116.66 35.72 116.31Z" stroke="#263238" stroke-opacity="1.000000" stroke-width="1.000000" stroke-linejoin="round"/>
		<path id="Vector" d="M36.53 80.7L35.97 95.89L35.03 113.23L31.46 113.23C31.46 113.23 30.71 99.92 30.89 96.07L29.02 87.16C29.02 87.16 27.05 84.53 27.52 81.35L36.53 80.7Z" fill="#FFFFFF" fill-opacity="1.000000" fill-rule="nonzero"/>
		<path id="Vector" d="M35.97 95.89L35.03 113.23L31.46 113.23C31.46 113.23 30.71 99.92 30.89 96.07L29.02 87.16C29.02 87.16 27.05 84.53 27.52 81.35L36.53 80.7L35.97 95.89Z" stroke="#263238" stroke-opacity="1.000000" stroke-width="1.000000" stroke-linejoin="round"/>
		<path id="Vector" d="M31.14 111.94L31.25 114.02L35.17 114.02L35.47 111.94L31.14 111.94Z" fill="#FFFFFF" fill-opacity="1.000000" fill-rule="nonzero"/>
		<path id="Vector" d="M31.25 114.02L35.17 114.02L35.47 111.94L31.14 111.94L31.25 114.02Z" stroke="#263238" stroke-opacity="1.000000" stroke-width="1.000000" stroke-linejoin="round"/>
		<path id="Vector" d="M23.69 111.76L23.61 113.84L27.51 114.21L28.01 112.17L23.69 111.76Z" fill="#FFFFFF" fill-opacity="1.000000" fill-rule="nonzero"/>
		<path id="Vector" d="M23.61 113.84L27.51 114.21L28.01 112.17L23.69 111.76L23.61 113.84Z" stroke="#263238" stroke-opacity="1.000000" stroke-width="1.000000" stroke-linejoin="round"/>
		<path id="Vector" d="M42.45 70.7L37.05 67.26L42.74 61.57L48.15 65.01L42.45 70.7Z" fill="#FFFFFF" fill-opacity="1.000000" fill-rule="nonzero"/>
		<path id="Vector" d="M37.05 67.26L42.74 61.57L48.15 65.01L42.45 70.7L37.05 67.26Z" stroke="#263238" stroke-opacity="1.000000" stroke-width="1.000000" stroke-linejoin="round"/>
		<path id="Vector" d="M42.76 69.53L38.41 66.76L42.99 62.18L47.34 64.95L42.76 69.53Z" fill="#FFFFFF" fill-opacity="1.000000" fill-rule="nonzero"/>
		<path id="Vector" d="M38.41 66.76L42.99 62.18L47.34 64.95L42.76 69.53L38.41 66.76Z" stroke="#263238" stroke-opacity="1.000000" stroke-width="0.750000" stroke-linejoin="round"/>
		<path id="Vector" d="M43.84 64.02L42.86 63.4L42.1 64.16L43.08 64.78L43.84 64.02Z" stroke="#263238" stroke-opacity="1.000000" stroke-width="0.750000" stroke-linejoin="round"/>
		<path id="Vector" d="M42.66 65.2L41.68 64.58L40.92 65.34L41.9 65.96L42.66 65.2Z" stroke="#263238" stroke-opacity="1.000000" stroke-width="0.750000" stroke-linejoin="round"/>
		<path id="Vector" d="M41.44 66.42L40.46 65.8L39.7 66.56L40.68 67.18L41.44 66.42Z" stroke="#263238" stroke-opacity="1.000000" stroke-width="0.750000" stroke-linejoin="round"/>
		<path id="Vector" d="M44.94 62.45L44.22 63.17C44.18 63.21 44.16 63.25 44.14 63.3C44.13 63.34 44.12 63.39 44.13 63.44C44.13 63.48 44.15 63.53 44.17 63.57C44.2 63.61 44.23 63.65 44.27 63.67L45.31 64.34C45.43 64.41 45.56 64.44 45.7 64.43C45.83 64.42 45.96 64.36 46.06 64.26L46.72 63.59L44.94 62.45Z" fill="#858585" fill-opacity="1.000000" fill-rule="nonzero"/>
		<path id="Vector" d="M44.22 63.17C44.18 63.21 44.16 63.25 44.14 63.3C44.13 63.34 44.12 63.39 44.13 63.44C44.13 63.48 44.15 63.53 44.17 63.57C44.2 63.61 44.23 63.65 44.27 63.67L45.31 64.34C45.43 64.41 45.56 64.44 45.7 64.43C45.83 64.42 45.96 64.36 46.06 64.26L46.72 63.59L44.94 62.45L44.22 63.17Z" stroke="#263238" stroke-opacity="1.000000" stroke-width="1.000000" stroke-linejoin="round"/>
		<path id="Vector" d="M25.7 58.02L26.64 55.95C26.64 55.95 32.08 55.35 33.53 59.89L25.7 58.02Z" fill="#858585" fill-opacity="1.000000" fill-rule="nonzero"/>
		<path id="Vector" d="M26.64 55.95C26.64 55.95 32.08 55.35 33.53 59.89L25.7 58.02L26.64 55.95Z" stroke="#263238" stroke-opacity="1.000000" stroke-width="1.000000" stroke-linejoin="round"/>
		<path id="Vector" d="M22.62 59.77C22.62 59.77 21.27 70.05 21.63 73.69C21.91 76.58 23.81 79.01 23.81 79.01L26.62 77.91L25.19 73.69C25.19 73.69 25.64 66.1 26.06 64.33L22.62 59.77Z" fill="#858585" fill-opacity="1.000000" fill-rule="nonzero"/>
		<path id="Vector" d="M21.63 73.69C21.91 76.58 23.81 79.01 23.81 79.01L26.62 77.91L25.19 73.69C25.19 73.69 25.64 66.1 26.06 64.33L22.62 59.77C22.62 59.77 21.27 70.05 21.63 73.69Z" stroke="#263238" stroke-opacity="1.000000" stroke-width="1.000000" stroke-linejoin="round"/>
		<path id="Vector" d="M22.99 78.51L23.79 79.46L27.04 78.19L26.62 76.93L22.99 78.51Z" fill="#858585" fill-opacity="1.000000" fill-rule="nonzero"/>
		<path id="Vector" d="M23.79 79.46L27.04 78.19L26.62 76.93L22.99 78.51L23.79 79.46Z" stroke="#263238" stroke-opacity="1.000000" stroke-width="1.000000" stroke-linejoin="round"/>
		<path id="Vector" d="M22.62 59.77C22.62 59.77 22.19 65.68 23.4 69.83C24.6 73.98 23.4 80.79 23.4 80.79C23.4 80.79 28.94 84.38 37.44 81.64C37.44 81.64 36.38 61.46 34.98 60.34C33.57 59.21 25.63 54.93 22.62 59.77Z" fill="#858585" fill-opacity="1.000000" fill-rule="nonzero"/>
		<path id="Vector" d="M23.4 69.83C24.6 73.98 23.4 80.79 23.4 80.79C23.4 80.79 28.94 84.38 37.44 81.64C37.44 81.64 36.38 61.46 34.98 60.34C33.57 59.21 25.63 54.93 22.62 59.77C22.62 59.77 22.19 65.68 23.4 69.83Z" stroke="#263238" stroke-opacity="1.000000" stroke-width="1.000000" stroke-linejoin="round"/>
		<g opacity="0.200000">
			<path id="Vector" d="M37.44 81.64C37.44 81.64 37.07 74.72 36.49 68.76C35.26 65.78 33.25 61.8 33.15 67.38C32.99 75.45 37.96 74.98 34.02 76.39C33.14 76.72 32.2 76.85 31.26 76.78C30.32 76.71 29.41 76.43 28.59 75.96C28.53 75.93 28.46 75.92 28.38 75.94C28.31 75.95 28.25 75.99 28.2 76.05C28.15 76.1 28.13 76.17 28.13 76.25C28.12 76.32 28.15 76.39 28.19 76.45C29.18 77.71 30.68 78.49 31.83 78.94C31.94 78.98 32.03 79.05 32.08 79.15C32.14 79.24 32.17 79.35 32.16 79.46C32.14 79.57 32.1 79.68 32.02 79.76C31.94 79.84 31.84 79.89 31.73 79.91C28.02 80.46 25.12 78.49 23.78 77.34C23.63 79.33 23.37 80.79 23.37 80.79C23.37 80.79 28.94 84.38 37.44 81.64Z" fill="#000000" fill-opacity="1.000000" fill-rule="nonzero"/>
		</g>
		<path id="Vector" d="M34.98 60.34C35.49 60.57 35.93 60.93 36.26 61.38C36.59 61.82 36.8 62.35 36.88 62.9C37.16 64.84 38.96 70.78 38.96 70.78L39.56 70.39C40.06 70.61 40.47 71 40.73 71.48C40.99 71.96 41.08 72.51 40.99 73.06C40.99 73.06 39.53 75.92 37.93 75.38C36.29 74.82 35.38 73.48 34.55 71.28C34.12 70.11 32.87 66.59 32.87 66.59L34.98 60.34ZM34.8 60.78L34.77 60.79C34.52 60.68 34.41 60.38 34.53 60.13C34.64 59.88 34.94 59.77 35.19 59.88L35.2 59.91L34.8 60.78ZM32.42 66.77L32.4 66.76C32.3 66.49 32.44 66.21 32.7 66.12C32.96 66.02 33.24 66.16 33.34 66.42L33.33 66.45L32.42 66.77Z" fill="#858585" fill-opacity="1.000000" fill-rule="nonzero"/>
		<path id="Vector" d="M34.98 60.34C35.49 60.57 35.93 60.93 36.26 61.38C36.59 61.82 36.8 62.35 36.88 62.9C37.16 64.84 38.96 70.78 38.96 70.78L39.56 70.39C40.06 70.61 40.47 71 40.73 71.48C40.99 71.96 41.08 72.51 40.99 73.06C40.99 73.06 39.53 75.92 37.93 75.38C36.29 74.82 35.38 73.48 34.55 71.28C34.12 70.11 32.87 66.59 32.87 66.59" stroke="#263238" stroke-opacity="1.000000" stroke-width="1.000000" stroke-linejoin="round" stroke-linecap="round"/>
		<path id="Vector" d="M39.68 72.5C39.69 72.65 39.68 72.8 39.66 72.96" stroke="#263238" stroke-opacity="1.000000" stroke-width="0.750000" stroke-linejoin="round" stroke-linecap="round"/>
		<path id="Vector" d="M38.6 73.69C38.6 73.69 39.09 72.91 39.02 71.23C39.26 71.41 39.44 71.65 39.54 71.93" stroke="#263238" stroke-opacity="1.000000" stroke-width="0.750000" stroke-linejoin="round" stroke-linecap="round"/>
		<path id="Vector" d="M39.95 70.23L41.82 68.89C41.92 68.47 42.12 68.09 42.41 67.78C42.71 67.47 43.08 67.25 43.49 67.13C43.49 67.13 44.35 65.7 44.84 65.87C45.34 66.04 44.26 66.62 44.17 67.37L44.56 67.9C44.56 67.9 45.86 67.67 46.18 67.25C46.18 67.25 46.11 68.14 45.6 68.29C45.6 68.29 45.6 68.97 45.25 68.94L42.67 69.67L41.17 72.47L39.95 70.23Z" fill="#FFFFFF" fill-opacity="1.000000" fill-rule="nonzero"/>
		<path id="Vector" d="M41.82 68.89C41.92 68.47 42.12 68.09 42.41 67.78C42.71 67.47 43.08 67.25 43.49 67.13C43.49 67.13 44.35 65.7 44.84 65.87C45.34 66.04 44.26 66.62 44.17 67.37L44.56 67.9C44.56 67.9 45.86 67.67 46.18 67.25C46.18 67.25 46.11 68.14 45.6 68.29C45.6 68.29 45.6 68.97 45.25 68.94L42.67 69.67L41.17 72.47L39.95 70.23L41.82 68.89Z" stroke="#263238" stroke-opacity="1.000000" stroke-width="1.000000" stroke-linejoin="round"/>
		<path id="Vector" d="M32.27 76.73C32.57 76.7 32.86 76.65 33.15 76.58" stroke="#263238" stroke-opacity="1.000000" stroke-width="0.750000" stroke-linejoin="round" stroke-linecap="round"/>
		<path id="Vector" d="M24.91 72.46C24.91 72.46 27.67 76.69 31.67 76.75" stroke="#263238" stroke-opacity="1.000000" stroke-width="0.750000" stroke-linejoin="round" stroke-linecap="round"/>
		<path id="Vector" d="M39.14 70.27C39.14 70.27 41.1 71.75 40.91 73.53L41.61 72.18C41.61 72.18 41.59 71.05 39.97 69.84L39.14 70.27Z" fill="#858585" fill-opacity="1.000000" fill-rule="nonzero"/>
		<path id="Vector" d="M40.91 73.53L41.61 72.18C41.61 72.18 41.59 71.05 39.97 69.84L39.14 70.27C39.14 70.27 41.1 71.75 40.91 73.53Z" stroke="#263238" stroke-opacity="1.000000" stroke-width="1.000000" stroke-linejoin="round"/>
		<path id="Vector" d="M31.38 118.17L38.4 118.17L38.4 117.86C38.4 117.78 38.38 117.7 38.36 117.63L31.37 117.63C31.37 117.87 31.38 118.17 31.38 118.17Z" fill="#FFFFFF" fill-opacity="1.000000" fill-rule="nonzero"/>
		<path id="Vector" d="M38.4 118.17L38.4 117.86C38.4 117.78 38.38 117.7 38.36 117.63L31.37 117.63C31.37 117.87 31.38 118.17 31.38 118.17L38.4 118.17Z" stroke="#263238" stroke-opacity="1.000000" stroke-width="0.750000" stroke-linejoin="round"/>
		<path id="Vector" d="M29.9 117.19C29.14 116.96 28.41 116.66 27.7 116.31C27.36 116.1 26.89 115.41 26.54 115.22C26.47 115.19 26.39 115.17 26.31 115.17C26.23 115.17 26.15 115.19 26.08 115.22C25.91 115.35 25.9 116.06 25.9 116.06C25.9 116.06 25.61 115.34 25.4 115.22C25.1 115.05 24.29 115 24.03 115.22C23.6 115.57 23.44 116.81 23.35 117.37C23.33 117.49 23.35 118.17 23.35 118.17L30.37 118.17L30.37 117.86C30.37 117.71 30.33 117.56 30.24 117.44C30.16 117.32 30.03 117.23 29.9 117.19Z" fill="#263238" fill-opacity="1.000000" fill-rule="nonzero"/>
		<path id="Vector" d="M27.7 116.31C27.36 116.1 26.89 115.41 26.54 115.22C26.47 115.19 26.39 115.17 26.31 115.17C26.23 115.17 26.15 115.19 26.08 115.22C25.91 115.35 25.9 116.06 25.9 116.06C25.9 116.06 25.61 115.34 25.4 115.22C25.1 115.05 24.29 115 24.03 115.22C23.6 115.57 23.44 116.81 23.35 117.37C23.33 117.49 23.35 118.17 23.35 118.17L30.37 118.17L30.37 117.86C30.37 117.71 30.33 117.56 30.24 117.44C30.16 117.32 30.03 117.23 29.9 117.19C29.14 116.96 28.41 116.66 27.7 116.31Z" stroke="#263238" stroke-opacity="1.000000" stroke-width="1.000000" stroke-linejoin="round"/>
		<path id="Vector" d="M23.35 118.17L30.37 118.17L30.37 117.86C30.37 117.78 30.35 117.7 30.33 117.63L23.34 117.63C23.34 117.87 23.35 118.17 23.35 118.17Z" fill="#FFFFFF" fill-opacity="1.000000" fill-rule="nonzero"/>
		<path id="Vector" d="M30.37 118.17L30.37 117.86C30.37 117.78 30.35 117.7 30.33 117.63L23.34 117.63C23.34 117.87 23.35 118.17 23.35 118.17L30.37 118.17Z" stroke="#263238" stroke-opacity="1.000000" stroke-width="0.750000" stroke-linejoin="round"/>
		<path id="Vector" d="M33.7 96.17C33.7 96.17 32.96 97.45 31.75 96.96" stroke="#263238" stroke-opacity="1.000000" stroke-width="0.750000" stroke-linejoin="round" stroke-linecap="round"/>
		<path id="Vector" d="M28.5 96.62C28.5 96.62 27.16 97.76 26.05 96.96" stroke="#263238" stroke-opacity="1.000000" stroke-width="0.750000" stroke-linejoin="round" stroke-linecap="round"/>
		<path id="Vector" d="M42.47 63.31L42.66 64.24L44.32 64.24L42.97 63.93L43.03 63.29L42.47 63.31Z" fill="#FFFFFF" fill-opacity="1.000000" fill-rule="nonzero"/>
	</g>
</svg>
