<svg xmlns="http://www.w3.org/2000/svg" width="300" height="300" fill="none"><defs><clipPath id="a"><path fill="#fff" fill-opacity="0" d="M0 0h300v300H0z"/></clipPath></defs><path fill="none" d="M0 0h300v300H0z"/><g clip-path="url(#a)"><path stroke="#263238" stroke-linejoin="round" stroke-width=".75" d="M262.99 100.41v121.57H209.4V100.41h53.59Z"/><path stroke="#263238" stroke-linejoin="round" stroke-width=".75" d="M258.29 105.11v112.16h-44.18V105.11h44.18Z"/><path stroke="#263238" stroke-linecap="round" stroke-linejoin="round" stroke-width=".75" d="M217.92 154.63h1.21M220.52 132.67h11.29M233.62 114.72h8.55M243.07 111.59h.92M221.7 207.94h1.02M224.01 203.83h1.09M227.43 178.73h12.16M240.84 160.08h9.52M251.77 156h.95M227.43 194.52h8.77M237.48 175.09h9.94M248.58 171.05h1.17M216.59 170.37h1.33M218.99 150.17h10.59M230.83 124.98h13.3M245.16 109.83h7.71"/><path stroke="#263238" stroke-linejoin="round" stroke-width=".75" d="M90.59 100.41v121.57H37V100.41h53.59Z"/><path stroke="#263238" stroke-linejoin="round" stroke-width=".75" d="M85.89 105.11v112.16H41.7V105.11h44.19Z"/><path stroke="#263238" stroke-linecap="round" stroke-linejoin="round" stroke-width=".75" d="M45.52 154.63h1.2M48.11 132.67H59.4M61.21 114.72h8.56M70.67 111.59h.9M49.29 207.94h1.03M51.6 203.83h1.09M55.02 178.73h12.16M68.43 160.08h9.52M79.36 156h.95M55.02 194.52h8.77M65.07 175.09h9.94M76.17 171.05h1.17M44.18 170.37h1.34M46.58 150.17h10.59M58.42 124.98h13.3M72.75 109.83h7.71"/><path stroke="#263238" stroke-linecap="round" stroke-linejoin="round" d="M17.69 272.65h264.6"/><path fill="#FFF" fill-rule="evenodd" d="M105.02 225.12h4.59v15.61h-4.59v-15.61Z"/><path fill="#000" fill-rule="evenodd" d="M105.02 225.12h4.59v15.61h-4.59v-15.61Z" opacity=".2"/><path fill="#FFF" fill-rule="evenodd" d="M109.62 226.84h4.58v13.89h-4.58v-13.89ZM116.7 226.84h3.24v13.89h-3.24v-13.89Z"/><path fill="#FFF" fill-rule="evenodd" d="M116.7 226.84h3.24v13.89h-3.24v-13.89Z" opacity=".9"/><path fill="#FFF" fill-rule="evenodd" d="M113.76 225.37h2.94v15.36h-2.94v-15.36Z"/><path fill="#000" fill-rule="evenodd" d="M113.76 225.37h2.94v15.36h-2.94v-15.36Z" opacity=".1"/><path fill="#FFF" fill-rule="evenodd" d="M119.94 225.12h4.59v15.61h-4.59v-15.61ZM124.53 226.84h4.59v13.89h-4.59v-13.89Z"/><path fill="#263238" fill-rule="evenodd" d="M124.53 226.84h4.59v13.89h-4.59v-13.89Z" opacity=".2"/><path fill="#FFF" fill-rule="evenodd" d="M131.62 226.84h3.24v13.89h-3.24v-13.89Z"/><path fill="#FFF" fill-rule="evenodd" d="M131.62 226.84h3.24v13.89h-3.24v-13.89Z" opacity=".8"/><path fill="#FFF" fill-rule="evenodd" d="M128.68 225.37h2.94v15.36h-2.94v-15.36Z"/><path fill="#000" fill-rule="evenodd" d="M128.68 225.37h2.94v15.36h-2.94v-15.36Z" opacity=".1"/><path fill="#FFF" fill-rule="evenodd" d="M161.35 240.73h-4.59v-15.6h4.59v15.6Z"/><path fill="#000" fill-rule="evenodd" d="M161.35 240.73h-4.59v-15.6h4.59v15.6Z" opacity=".2"/><path fill="#FFF" fill-rule="evenodd" d="M156.75 240.73h-4.59v-13.89h4.59v13.89ZM149.67 240.73h-3.24v-13.89h3.24v13.89Z"/><path fill="#FFF" fill-rule="evenodd" d="M149.67 240.73h-3.24v-13.89h3.24v13.89Z" opacity=".9"/><path fill="#FFF" fill-rule="evenodd" d="M152.61 240.73h-2.94v-15.36h2.94v15.36Z"/><path fill="#000" fill-rule="evenodd" d="M152.61 240.73h-2.94v-15.36h2.94v15.36Z" opacity=".1"/><path fill="#FFF" fill-rule="evenodd" d="M146.42 240.73h-4.58v-15.6h4.58v15.6Z"/><path fill="#FFF" fill-rule="evenodd" d="M141.84 240.73h-4.59v-13.89h4.59v13.89Z"/><path fill="#263238" fill-rule="evenodd" d="M141.84 240.73h-4.59v-13.89h4.59v13.89Z" opacity=".2"/><path fill="#FFF" fill-rule="evenodd" d="M137.69 240.73h-2.94v-15.36h2.94v15.36Z"/><path fill="#000" fill-rule="evenodd" d="M137.69 240.73h-2.94v-15.36h2.94v15.36Z" opacity=".1"/><path fill="#FFF" fill-rule="evenodd" d="M187.81 240.73h-4.59v-15.6h4.59v15.6Z"/><path fill="#000" fill-rule="evenodd" d="M187.81 240.73h-4.59v-15.6h4.59v15.6Z" opacity=".2"/><path fill="#FFF" fill-rule="evenodd" d="M183.21 240.73h-4.59v-13.89h4.59v13.89ZM176.13 240.73h-3.24v-13.89h3.24v13.89Z"/><path fill="#FFF" fill-rule="evenodd" d="M176.13 240.73h-3.24v-13.89h3.24v13.89Z" opacity=".9"/><path fill="#FFF" fill-rule="evenodd" d="M179.07 240.73h-2.94v-15.36h2.94v15.36Z"/><path fill="#000" fill-rule="evenodd" d="M179.07 240.73h-2.94v-15.36h2.94v15.36Z" opacity=".1"/><path fill="#FFF" fill-rule="evenodd" d="M172.89 240.73h-4.59v-15.6h4.59v15.6ZM193.81 239.37l-3.01.81-4.06-15.14 3.01-.8 4.06 15.13Z"/><path fill="#FFF" fill-rule="evenodd" d="M168.3 240.73h-4.59v-13.89h4.59v13.89Z"/><path fill="#263238" fill-rule="evenodd" d="M168.3 240.73h-4.59v-13.89h4.59v13.89Z" opacity=".2"/><path fill="#FFF" fill-rule="evenodd" d="M164.15 240.73h-2.94v-15.36h2.94v15.36Z"/><path fill="#000" fill-rule="evenodd" d="M164.15 240.73h-2.94v-15.36h2.94v15.36Z" opacity=".1"/><path fill="#FFF" fill-rule="evenodd" d="m195.42 260.18-3.09.83-4.04-15.08 3.09-.83 4.04 15.08Z"/><path fill="#000" fill-rule="evenodd" d="m195.42 260.18-3.09.83-4.04-15.08 3.09-.83 4.04 15.08Z" opacity=".2"/><path fill="#FFF" fill-rule="evenodd" d="M189 260.85h-4.59v-13.89H189v13.89ZM181.91 260.85h-3.24v-13.89h3.24v13.89Z"/><path fill="#FFF" fill-rule="evenodd" d="M181.91 260.85h-3.24v-13.89h3.24v13.89Z" opacity=".9"/><path fill="#FFF" fill-rule="evenodd" d="M184.85 260.86h-2.94V245.5h2.94v15.36Z"/><path fill="#000" fill-rule="evenodd" d="M184.85 260.86h-2.94V245.5h2.94v15.36Z" opacity=".1"/><path fill="#FFF" fill-rule="evenodd" d="M178.68 260.86h-4.59v-15.61h4.59v15.61ZM174.08 260.85h-4.59v-13.89h4.59v13.89Z"/><path fill="#263238" fill-rule="evenodd" d="M174.08 260.85h-4.59v-13.89h4.59v13.89Z" opacity=".2"/><path fill="#FFF" fill-rule="evenodd" d="M167 260.85h-3.24v-13.89H167v13.89Z"/><path fill="#FFF" fill-rule="evenodd" d="M167 260.85h-3.24v-13.89H167v13.89Z" opacity=".8"/><path fill="#FFF" fill-rule="evenodd" d="M169.93 260.86h-2.94V245.5h2.94v15.36Z"/><path fill="#000" fill-rule="evenodd" d="M169.93 260.86h-2.94V245.5h2.94v15.36Z" opacity=".1"/><path fill="#FFF" fill-rule="evenodd" d="M137.27 245.25h4.59v15.61h-4.59v-15.61Z"/><path fill="#000" fill-rule="evenodd" d="M137.27 245.25h4.59v15.61h-4.59v-15.61Z" opacity=".2"/><path fill="#FFF" fill-rule="evenodd" d="M141.86 246.97h4.59v13.89h-4.59v-13.89ZM148.95 246.97h3.24v13.89h-3.24v-13.89Z"/><path fill="#FFF" fill-rule="evenodd" d="M148.95 246.97h3.24v13.89h-3.24v-13.89Z" opacity=".9"/><path fill="#FFF" fill-rule="evenodd" d="M146 245.5h2.95v15.36H146V245.5Z"/><path fill="#000" fill-rule="evenodd" d="M146 245.5h2.95v15.36H146V245.5Z" opacity=".1"/><path fill="#FFF" fill-rule="evenodd" d="M152.19 245.25h4.59v15.61h-4.59v-15.61ZM156.78 246.97h4.59v13.89h-4.59v-13.89Z"/><path fill="#263238" fill-rule="evenodd" d="M156.78 246.97h4.59v13.89h-4.59v-13.89Z" opacity=".2"/><path fill="#FFF" fill-rule="evenodd" d="M160.92 245.5h2.94v15.36h-2.94V245.5Z"/><path fill="#000" fill-rule="evenodd" d="M160.92 245.5h2.94v15.36h-2.94V245.5Z" opacity=".1"/><path fill="#FFF" fill-rule="evenodd" d="M110.81 245.25h4.59v15.61h-4.59v-15.61Z"/><path fill="#000" fill-rule="evenodd" d="M110.81 245.25h4.59v15.61h-4.59v-15.61Z" opacity=".2"/><path fill="#FFF" fill-rule="evenodd" d="M115.4 246.97h4.59v13.89h-4.59v-13.89ZM122.49 246.97h3.24v13.89h-3.24v-13.89Z"/><path fill="#FFF" fill-rule="evenodd" d="M122.49 246.97h3.24v13.89h-3.24v-13.89Z" opacity=".9"/><path fill="#FFF" fill-rule="evenodd" d="M119.55 245.5h2.94v15.36h-2.94V245.5Z"/><path fill="#000" fill-rule="evenodd" d="M119.55 245.5h2.94v15.36h-2.94V245.5Z" opacity=".1"/><path fill="#FFF" fill-rule="evenodd" d="M125.73 245.25h4.59v15.61h-4.59v-15.61ZM107.8 245.11l3 .81-4.04 15.07-3-.8 4.04-15.08ZM130.32 246.97h4.59v13.89h-4.59v-13.89Z"/><path fill="#263238" fill-rule="evenodd" d="M130.32 246.97h4.59v13.89h-4.59v-13.89Z" opacity=".2"/><path fill="#FFF" fill-rule="evenodd" d="M134.46 245.5h2.94v15.36h-2.94V245.5Z"/><path fill="#000" fill-rule="evenodd" d="M134.46 245.5h2.94v15.36h-2.94V245.5Z" opacity=".1"/><path fill="#263238" d="M108.55 272.65h-4.59l-.63-8.88h5.85l-.63 8.88ZM196.03 272.65h-4.59l-.63-8.88h5.85l-.63 8.88Z"/><path fill="#FFF" d="M201.09 219.23H98.9c-.59 0-1.15.23-1.56.64-.41.42-.64.98-.64 1.56v41.75c0 .58.23 1.14.64 1.56.41.41.97.64 1.56.64h102.19c.59 0 1.15-.23 1.56-.64.41-.42.64-.98.64-1.56v-41.75c0-.58-.23-1.14-.64-1.56-.41-.41-.97-.64-1.56-.64Zm-2.21 4.41v17.09h-97.8v-17.09h97.8ZM101.11 261v-17.12h97.8V261h-97.8Z"/><path stroke="#263238" stroke-linejoin="round" stroke-width=".75" d="M98.9 219.23c-.59 0-1.15.23-1.56.64-.41.42-.64.98-.64 1.56v41.75c0 .58.23 1.14.64 1.56.41.41.97.64 1.56.64h102.19c.59 0 1.15-.23 1.56-.64.41-.42.64-.98.64-1.56v-41.75c0-.58-.23-1.14-.64-1.56-.41-.41-.97-.64-1.56-.64H98.9Zm99.98 21.5h-97.8v-17.09h97.8v17.09Zm-97.77 3.15h97.8V261h-97.8v-17.12Z"/><path fill="#263238" d="M185.98 131.54h-70.71c-2.27 0-4.11 1.84-4.11 4.12v15.18a4.11 4.11 0 0 0 4.11 4.11h70.71c2.28 0 4.12-1.84 4.12-4.11v-15.18c0-2.28-1.84-4.12-4.12-4.12Z"/><path stroke="#263238" stroke-linejoin="round" d="M185.98 131.54c2.28 0 4.12 1.84 4.12 4.12v15.18c0 2.27-1.84 4.11-4.12 4.11h-70.71a4.11 4.11 0 0 1-4.11-4.11v-15.18c0-2.28 1.84-4.12 4.11-4.12h70.71Z"/><path fill="#FFF" d="M184.72 130.28h-70.71a4.11 4.11 0 0 0-4.11 4.11v15.19a4.11 4.11 0 0 0 4.11 4.11h70.71c2.28 0 4.12-1.84 4.12-4.11v-15.19c0-2.27-1.84-4.11-4.12-4.11Z"/><path stroke="#263238" stroke-linejoin="round" d="M184.72 130.28c2.28 0 4.12 1.84 4.12 4.11v15.19c0 2.27-1.84 4.11-4.12 4.11h-70.71a4.11 4.11 0 0 1-4.11-4.11v-15.19a4.11 4.11 0 0 1 4.11-4.11h70.71Z"/><path stroke="#263238" stroke-linejoin="round" d="M184.72 130.28c2.28 0 4.12 1.84 4.12 4.11v15.19c0 2.27-1.84 4.11-4.12 4.11h-70.71a4.11 4.11 0 0 1-4.11-4.11v-15.19a4.11 4.11 0 0 1 4.11-4.11h70.71Z"/><path fill="#FFF" d="M127.38 148.9h-10.4v-13.15h6.93l3.47 3.46v9.69Z"/><path fill="#FFF" d="M127.38 148.9h-10.4v-13.15h6.93l3.47 3.46v9.69Z" opacity=".5"/><path stroke="#263238" stroke-linejoin="round" d="M116.98 148.9v-13.15h6.93l3.47 3.46v9.69h-10.4Z"/><path fill="#FFF" d="M123.91 139.21h3.47l-3.47-3.46v3.46Z"/><path stroke="#263238" stroke-linejoin="round" d="m127.38 139.21-3.47-3.46v3.46h3.47Z"/><path fill="#858585" d="M119.29 142.72a.633.633 0 0 1-.43-.21.656.656 0 0 1-.17-.44c0-.17.06-.33.17-.45.11-.12.26-.2.43-.21h5.78c.16.01.31.09.42.21.11.12.17.28.17.45a.656.656 0 0 1-.59.65h-5.78Z"/><path stroke="#263238" stroke-linejoin="round" stroke-width=".75" d="M118.86 142.51a.656.656 0 0 1-.17-.44c0-.17.06-.33.17-.45.11-.12.26-.2.43-.21h5.78c.16.01.31.09.42.21.11.12.17.28.17.45a.656.656 0 0 1-.59.65h-5.78a.633.633 0 0 1-.43-.21Z"/><path fill="#858585" d="M119.29 145.49a.679.679 0 0 1-.43-.21.662.662 0 0 1-.17-.45c0-.16.06-.32.17-.44.11-.12.26-.2.43-.22h4.52c.16.02.31.1.42.22.11.12.17.28.17.44 0 .17-.06.33-.17.45-.11.12-.26.19-.42.21h-4.52Z"/><path stroke="#263238" stroke-linejoin="round" stroke-width=".75" d="M118.86 145.28a.662.662 0 0 1-.17-.45c0-.16.06-.32.17-.44.11-.12.26-.2.43-.22h4.52c.16.02.31.1.42.22.11.12.17.28.17.44 0 .17-.06.33-.17.45-.11.12-.26.19-.42.21h-4.52a.679.679 0 0 1-.43-.21Z"/><path fill="#FFF" d="M153.66 143.48h-19.35c-.34.02-.67.18-.9.43a1.351 1.351 0 0 0 0 1.86c.23.25.56.4.9.43h19.35v-2.72Z"/><path stroke="#263238" stroke-linejoin="round" d="M133.41 145.77a1.351 1.351 0 0 1 0-1.86c.23-.25.56-.41.9-.43h46.08c.19-.01.37.01.55.08a1.307 1.307 0 0 1 .79.74c.08.17.11.35.11.54 0 .19-.03.37-.11.54-.07.17-.18.33-.32.45a1.2 1.2 0 0 1-.47.29c-.18.06-.36.09-.55.08h-46.08c-.34-.03-.67-.18-.9-.43Z"/><path fill="#263238" d="M154.1 139.8h-1.46v-.69l1.39-3.29h.83v3.29h.36v.69h-.36v.88h-.76v-.88Zm0-.69v-1.89l-.75 1.89h.75ZM155.58 139.53v-.38h.72v.44c0 .34.15.47.39.47.25 0 .4-.13.4-.47v-1.09c0-.35-.16-.48-.4-.48-.24 0-.39.13-.39.48v.04h-.72l.13-2.71h2.01v.7h-1.33l-.06 1.15c.07-.11.17-.2.28-.27.12-.06.25-.09.38-.08.56 0 .85.4.85 1.11v1.09c0 .78-.39 1.2-1.14 1.2-.75 0-1.12-.42-1.12-1.2ZM158.32 137.75v-1.2c-.01-.1.01-.21.04-.3.03-.1.08-.19.15-.26a.725.725 0 0 1 .55-.24c.1 0 .2.02.3.06.09.04.17.1.24.18.07.07.12.16.16.26.03.09.04.2.03.3v1.2c.01.1 0 .2-.03.3a.76.76 0 0 1-.16.26.69.69 0 0 1-.24.18.765.765 0 0 1-.6 0 .725.725 0 0 1-.25-.18.614.614 0 0 1-.15-.26c-.03-.1-.05-.2-.04-.3Zm.99.03v-1.28c0-.21-.1-.3-.25-.3s-.25.09-.25.3v1.28c0 .22.09.31.25.31s.25-.09.25-.31Zm1.51-1.95h.49l-1.88 4.85h-.49l1.88-4.85Zm-.37 4.15v-1.2c-.01-.11.01-.21.04-.31.03-.09.08-.18.15-.26.07-.07.16-.13.25-.18a.765.765 0 0 1 .6 0c.09.05.17.11.24.18.07.08.12.17.16.26.03.1.04.2.03.31v1.2c.01.1 0 .2-.03.3-.04.09-.09.18-.16.26a.84.84 0 0 1-.24.18.765.765 0 0 1-.6 0c-.09-.05-.18-.1-.25-.18a.764.764 0 0 1-.19-.56Zm.99.03v-1.28c0-.22-.1-.31-.26-.31-.15 0-.24.09-.24.31v1.28c0 .22.09.31.24.31.16 0 .26-.09.26-.31ZM185.98 158.71h-70.71a4.11 4.11 0 0 0-4.11 4.11V178c0 2.28 1.84 4.12 4.11 4.12h70.71c2.28 0 4.12-1.84 4.12-4.12v-15.18c0-2.27-1.84-4.11-4.12-4.11Z"/><path stroke="#263238" stroke-linejoin="round" d="M185.98 158.71c2.28 0 4.12 1.84 4.12 4.11V178c0 2.28-1.84 4.12-4.12 4.12h-70.71c-2.27 0-4.11-1.84-4.11-4.12v-15.18a4.11 4.11 0 0 1 4.11-4.11h70.71Z"/><path fill="#FFF" d="M184.72 157.45h-70.71a4.11 4.11 0 0 0-4.11 4.11v15.18c0 2.28 1.84 4.12 4.11 4.12h70.71c2.28 0 4.12-1.84 4.12-4.12v-15.18c0-2.27-1.84-4.11-4.12-4.11Z"/><path stroke="#263238" stroke-linejoin="round" d="M184.72 157.45c2.28 0 4.12 1.84 4.12 4.11v15.18c0 2.28-1.84 4.12-4.12 4.12h-70.71c-2.27 0-4.11-1.84-4.11-4.12v-15.18a4.11 4.11 0 0 1 4.11-4.11h70.71Z"/><path fill="#FFF" d="M168.93 170.48h-34.62c-.34.02-.67.18-.9.43a1.351 1.351 0 0 0 0 1.86c.23.25.56.4.9.43h34.62v-2.72Z"/><path stroke="#263238" stroke-linejoin="round" d="M133.41 172.77a1.351 1.351 0 0 1 0-1.86c.23-.25.56-.41.9-.43h46.08c.19-.01.37.01.55.08a1.307 1.307 0 0 1 .79.74c.08.17.11.35.11.54 0 .19-.03.37-.11.54-.07.17-.18.33-.32.45a1.2 1.2 0 0 1-.47.29c-.18.06-.36.09-.55.08h-46.08c-.34-.03-.67-.18-.9-.43Z"/><path fill="#263238" d="M152.73 166.56v-.44c-.02-.19.01-.39.1-.57.09-.17.23-.32.4-.42a.918.918 0 0 1-.38-.4c-.08-.17-.11-.36-.09-.55v-.2c0-.31.12-.6.34-.82a1.167 1.167 0 0 1 1.65 0c.22.22.34.51.34.82v.2c.02.19-.01.38-.1.55-.08.17-.21.31-.37.4.17.1.31.25.4.42.09.18.12.38.1.57v.44c0 .31-.13.62-.35.84-.23.23-.53.36-.85.36-.32 0-.62-.13-.85-.36-.22-.22-.35-.53-.35-.84h.01Zm1.63-.05v-.46c0-.37-.15-.55-.44-.55-.28 0-.43.18-.43.55v.46c0 .37.15.55.43.55.29 0 .44-.18.44-.55Zm0-2.19v-.38c0-.32-.14-.49-.41-.49-.26 0-.4.17-.4.49v.38c0 .32.14.49.4.49.27 0 .38-.17.38-.49h.03ZM155.58 166.53v-.38h.72v.44c0 .34.15.47.39.47.25 0 .4-.13.4-.47v-1.09c0-.35-.16-.48-.4-.48-.24 0-.39.13-.39.48v.04h-.72l.13-2.71h2.01v.7h-1.33l-.06 1.15c.07-.11.17-.2.28-.27.12-.06.25-.09.38-.08.56 0 .85.4.85 1.11v1.09c.01.16-.01.31-.06.46-.06.15-.14.29-.25.4-.1.12-.23.21-.37.27-.15.06-.3.09-.46.09-.16 0-.31-.03-.45-.09a.945.945 0 0 1-.38-.27c-.11-.11-.19-.25-.25-.4-.05-.15-.07-.3-.06-.46h.02ZM158.32 164.75v-1.2c-.01-.1.01-.21.04-.3.03-.1.08-.19.15-.26a.725.725 0 0 1 .55-.24c.1 0 .2.02.3.06.09.04.17.1.24.18.07.07.12.16.16.26.03.09.04.2.03.3v1.2c.01.1 0 .2-.03.3a.76.76 0 0 1-.16.26.69.69 0 0 1-.24.18.765.765 0 0 1-.6 0 .725.725 0 0 1-.25-.18.614.614 0 0 1-.15-.26c-.03-.1-.05-.2-.04-.3Zm.99.04v-1.29c0-.21-.1-.3-.25-.3s-.25.09-.25.3v1.29c0 .21.09.3.25.3s.25-.09.25-.3Zm1.51-1.96h.49l-1.88 4.85h-.49l1.88-4.85Zm-.37 4.15v-1.2c-.01-.11.01-.21.04-.31.03-.09.08-.18.15-.26.07-.07.16-.13.25-.18a.765.765 0 0 1 .6 0c.09.05.17.11.24.18.07.08.12.17.16.26.03.1.04.2.03.31v1.2c.01.1 0 .2-.03.3-.04.09-.09.18-.16.26a.69.69 0 0 1-.24.18.765.765 0 0 1-.6 0 .725.725 0 0 1-.4-.44c-.03-.1-.05-.2-.04-.3Zm.99.03v-1.28c0-.22-.1-.31-.26-.31-.15 0-.24.09-.24.31v1.28c0 .22.09.31.24.31.16 0 .26-.09.26-.31Z"/><path fill="#FFF" d="M127.38 175.9h-10.4v-13.15h6.93l3.47 3.46v9.69Z"/><g opacity=".5"><path fill="#FFF" d="M127.38 175.9h-10.4v-13.15h6.93l3.47 3.46v9.69Z"/><path stroke="#263238" stroke-linejoin="round" d="M116.98 175.9v-13.15h6.93l3.47 3.46v9.69h-10.4Z"/></g><path stroke="#263238" stroke-linejoin="round" d="M116.98 175.9v-13.15h6.93l3.47 3.46v9.69h-10.4Z"/><path fill="#858585" d="M119.29 169.72a.633.633 0 0 1-.43-.21.656.656 0 0 1-.17-.44c0-.17.06-.33.17-.45.11-.12.26-.19.43-.21h5.78c.16.02.31.09.42.21.11.12.17.28.17.45a.656.656 0 0 1-.59.65h-5.78Z"/><path stroke="#263238" stroke-linejoin="round" stroke-width=".75" d="M118.86 169.51a.656.656 0 0 1-.17-.44c0-.17.06-.33.17-.45.11-.12.26-.19.43-.21h5.78c.16.02.31.09.42.21.11.12.17.28.17.45a.656.656 0 0 1-.59.65h-5.78a.633.633 0 0 1-.43-.21Z"/><path fill="#858585" d="M119.29 172.49a.679.679 0 0 1-.43-.21.662.662 0 0 1-.17-.45c0-.16.06-.32.17-.44.11-.12.26-.2.43-.21h4.52a.656.656 0 0 1 .59.65c0 .17-.06.33-.17.45-.11.12-.26.19-.42.21h-4.52Z"/><path stroke="#263238" stroke-linejoin="round" stroke-width=".75" d="M118.86 172.28a.662.662 0 0 1-.17-.45c0-.16.06-.32.17-.44.11-.12.26-.2.43-.21h4.52a.656.656 0 0 1 .59.65c0 .17-.06.33-.17.45-.11.12-.26.19-.42.21h-4.52a.679.679 0 0 1-.43-.21Z"/><path fill="#FFF" d="M123.91 166.21h3.47l-3.47-3.46v3.46Z"/><path stroke="#263238" stroke-linejoin="round" d="m127.38 166.21-3.47-3.46v3.46h3.47Z"/><path fill="#263238" d="M195.65 95.26H105.6c-2.27 0-4.11 1.85-4.11 4.12v20.92c0 2.27 1.84 4.12 4.11 4.12h90.05c2.27 0 4.12-1.85 4.12-4.12V99.38c0-2.27-1.85-4.12-4.12-4.12Z"/><path stroke="#263238" stroke-linejoin="round" d="M195.65 95.26c2.27 0 4.12 1.85 4.12 4.12v20.92c0 2.27-1.85 4.12-4.12 4.12H105.6c-2.27 0-4.11-1.85-4.11-4.12V99.38c0-2.27 1.84-4.12 4.11-4.12h90.05Z"/><path fill="#FFF" d="M194.39 94h-90.05c-2.27 0-4.11 1.85-4.11 4.12v20.92c0 2.27 1.84 4.12 4.11 4.12h90.05c2.27 0 4.12-1.85 4.12-4.12V98.12c0-2.27-1.85-4.12-4.12-4.12Z"/><path stroke="#263238" stroke-linejoin="round" d="M194.39 94c2.27 0 4.12 1.85 4.12 4.12v20.92c0 2.27-1.85 4.12-4.12 4.12h-90.05c-2.27 0-4.11-1.85-4.11-4.12V98.12c0-2.27 1.84-4.12 4.11-4.12h90.05Z"/><path fill="#FFF" d="M134.53 120.76h-19.26V96.4h12.84l6.42 6.42v17.94Z"/><path fill="#FFF" d="M134.53 120.76h-19.26V96.4h12.84l6.42 6.42v17.94Z" opacity=".7"/><path stroke="#263238" stroke-linejoin="round" d="M115.27 120.76V96.4h12.84l6.42 6.42v17.94h-19.26Z"/><path fill="#FFF" d="M128.11 102.82h6.42l-6.42-6.42v6.42Z"/><path stroke="#263238" stroke-linejoin="round" d="m134.53 102.82-6.42-6.42v6.42h6.42Z"/><path stroke="#FFF" stroke-linejoin="round" stroke-width=".75" d="M120.96 105.82v3.78h-3.78v-3.78h3.78ZM124.84 105.82v3.78h-3.78v-3.78h3.78ZM128.74 105.82v3.78h-3.78v-3.78h3.78ZM132.62 105.82v3.78h-3.77v-3.78h3.77ZM120.96 109.6v3.78h-3.78v-3.78h3.78ZM124.84 109.6v3.78h-3.78v-3.78h3.78ZM128.74 109.6v3.78h-3.78v-3.78h3.78ZM132.62 109.6v3.78h-3.77v-3.78h3.77ZM120.96 113.38v3.78h-3.78v-3.78h3.78ZM124.84 113.38v3.78h-3.78v-3.78h3.78ZM128.74 113.38v3.78h-3.78v-3.78h3.78ZM132.62 113.38v3.78h-3.77v-3.78h3.77Z"/><path stroke="#FFF" stroke-linecap="round" stroke-linejoin="round" stroke-width="2" d="m117.25 116.79 3.81-3.5 1.89.09 2.07-3.73 1.83 1.84 2.05-2.16 1.84-3.51"/><path stroke="#FFF" stroke-linecap="round" stroke-linejoin="round" stroke-width="2" d="m128.57 106.92 2.17-1.1.43 2.36"/><path fill="#263238" d="M142.1 107.8H141v-.73c.87 0 1.2-.19 1.42-.83h.7v6.6h-1.04l.02-5.04ZM144.35 111.28v-3.48a1.573 1.573 0 0 1 1.58-1.57c.42 0 .82.16 1.11.46.3.29.46.7.46 1.11v3.48c0 .42-.16.82-.46 1.12-.29.3-.69.46-1.11.46-.42 0-.82-.16-1.12-.46-.29-.3-.46-.7-.46-1.12Zm2.12.07v-3.6c0-.47-.21-.65-.54-.65-.33 0-.54.18-.54.65v3.6c0 .47.21.65.54.65.33 0 .54-.18.54-.65ZM148.13 111.28v-3.48a1.573 1.573 0 0 1 1.58-1.57c.42 0 .82.16 1.11.46.3.29.46.7.46 1.11v3.48c0 .42-.16.82-.46 1.12-.29.3-.69.46-1.11.46-.42 0-.82-.16-1.12-.46-.29-.3-.46-.7-.46-1.12Zm2.12.07v-3.6c0-.47-.21-.65-.54-.65-.33 0-.54.18-.54.65v3.6c0 .47.21.65.54.65.33 0 .54-.18.54-.65ZM151.93 108.85v-1.65c0-.26.1-.52.29-.7a1 1 0 0 1 .71-.3c.26 0 .52.11.71.3.19.18.29.44.29.7v1.65c0 .27-.1.52-.29.71-.19.19-.45.3-.71.3a1 1 0 0 1-.71-.3.99.99 0 0 1-.29-.71Zm1.34.05v-1.74c0-.3-.13-.42-.34-.42-.21 0-.34.12-.34.42v1.74c0 .3.12.42.34.42.21 0 .34-.12.34-.42Zm2.06-2.66h.67l-2.57 6.6h-.66l2.56-6.6Zm-.5 5.65v-1.66c0-.13.02-.26.07-.38s.13-.23.22-.32c.09-.1.2-.17.32-.22.13-.05.26-.08.39-.08a.995.995 0 0 1 .7.3.995.995 0 0 1 .3.7v1.66c0 .13-.03.26-.08.38s-.12.24-.22.33c-.09.09-.2.16-.32.22-.12.05-.25.07-.38.07s-.26-.02-.39-.07c-.12-.06-.23-.13-.32-.22a1.06 1.06 0 0 1-.22-.33.986.986 0 0 1-.07-.38Zm1.34.05v-1.75c0-.3-.13-.42-.34-.42-.21 0-.34.12-.34.42v1.75c0 .29.12.41.34.41.21 0 .34-.12.34-.41ZM158.51 110.79v-2.61c0-.3.12-.59.33-.8a1.112 1.112 0 0 1 1.58 0c.22.21.33.5.33.8v.51h-.72v-.56c0-.32-.15-.45-.38-.45s-.38.13-.38.45v2.71c0 .32.15.44.38.44s.38-.12.38-.44v-.74h.72v.69c0 .29-.11.58-.33.79a1.112 1.112 0 0 1-1.58 0c-.21-.21-.33-.5-.33-.79ZM161.17 110.76v-2.55c0-.31.12-.61.34-.82.21-.22.51-.34.82-.34.3 0 .6.12.81.34.22.21.34.51.34.82v2.55c0 .3-.12.6-.34.81-.21.22-.51.34-.81.34-.31 0-.61-.12-.82-.34-.22-.21-.34-.51-.34-.81Zm1.55.04v-2.64c0-.35-.15-.48-.39-.48-.25 0-.4.13-.4.48v2.64c0 .35.16.48.4.48.24 0 .39-.13.39-.48ZM163.99 107.05h1.1l.48 3.48.49-3.48h1.08v4.86h-.72v-3.67l-.55 3.67h-.64l-.55-3.67v3.67h-.67l-.02-4.86ZM167.73 107.05h1.12c.76 0 1.13.43 1.13 1.2v.48c0 .78-.37 1.2-1.13 1.2h-.36v1.98h-.76v-4.86Zm1.12 2.19c.24 0 .37-.11.37-.46v-.6c0-.35-.13-.45-.37-.45h-.36v1.48l.36.03ZM170.4 107.05h.76v4.16h1.25v.7h-2.01v-4.86ZM172.8 107.05h2.07v.7h-1.31v1.28h1.04v.69h-1.05v1.49h1.32v.7h-2.07v-4.86ZM175.89 107.75h-.79v-.7h2.35v.7h-.8v4.16h-.76v-4.16ZM177.82 107.05h2.08v.7h-1.31v1.28h1.04v.69h-1.04v1.49h1.31v.7h-2.08v-4.86ZM180.34 107.05h1.16c.76 0 1.14.43 1.14 1.2v2.46c0 .77-.38 1.2-1.14 1.2h-1.16v-4.86Zm1.14 4.16c.25 0 .39-.12.39-.47v-2.52c0-.34-.14-.47-.39-.47h-.38v3.46h.38ZM185.98 185.88h-70.71c-2.27 0-4.11 1.84-4.11 4.12v15.18a4.11 4.11 0 0 0 4.11 4.11h70.71c2.28 0 4.12-1.84 4.12-4.11V190c0-2.28-1.84-4.12-4.12-4.12Z"/><path stroke="#263238" stroke-linejoin="round" d="M185.98 185.88c2.28 0 4.12 1.84 4.12 4.12v15.18c0 2.27-1.84 4.11-4.12 4.11h-70.71a4.11 4.11 0 0 1-4.11-4.11V190c0-2.28 1.84-4.12 4.11-4.12h70.71Z"/><path fill="#FFF" d="M184.72 184.62h-70.71c-2.27 0-4.11 1.84-4.11 4.12v15.18a4.11 4.11 0 0 0 4.11 4.11h70.71c2.28 0 4.12-1.84 4.12-4.11v-15.18c0-2.28-1.84-4.12-4.12-4.12Z"/><path stroke="#263238" stroke-linejoin="round" d="M184.72 184.62c2.28 0 4.12 1.84 4.12 4.12v15.18c0 2.27-1.84 4.11-4.12 4.11h-70.71a4.11 4.11 0 0 1-4.11-4.11v-15.18c0-2.28 1.84-4.12 4.11-4.12h70.71Z"/><path fill="#FFF" d="M166.48 197.49h-32.17c-.36 0-.7.14-.96.39a1.38 1.38 0 0 0 0 1.92c.26.25.6.4.96.4h32.17v-2.71Z"/><path stroke="#263238" stroke-linejoin="round" d="M133.35 199.8a1.38 1.38 0 0 1 0-1.92c.26-.25.6-.39.96-.39h46.08c.18 0 .36.03.52.1.17.07.31.17.44.29.13.13.23.28.29.44.07.17.11.34.11.52s-.04.36-.11.52c-.06.17-.16.31-.29.44-.13.13-.27.23-.44.29-.16.07-.34.11-.52.11h-46.08c-.36 0-.7-.15-.96-.4Z"/><path fill="#FFF" d="M127.38 202.9h-10.4v-13.15h6.93l3.47 3.46v9.69Z"/><path fill="#FFF" d="M127.38 202.9h-10.4v-13.15h6.93l3.47 3.46v9.69Z" opacity=".5"/><path stroke="#263238" stroke-linejoin="round" d="M116.98 202.9v-13.15h6.93l3.47 3.46v9.69h-10.4Z"/><path fill="#858585" d="M119.29 196.73a.679.679 0 0 1-.43-.21.681.681 0 0 1-.17-.45c0-.16.06-.32.17-.44.11-.12.26-.2.43-.21h5.78a.656.656 0 0 1 .59.65c0 .17-.06.32-.17.45-.11.12-.26.19-.42.21h-5.78Z"/><path stroke="#263238" stroke-linejoin="round" stroke-width=".75" d="M118.86 196.52a.681.681 0 0 1-.17-.45c0-.16.06-.32.17-.44.11-.12.26-.2.43-.21h5.78a.656.656 0 0 1 .59.65c0 .17-.06.32-.17.45-.11.12-.26.19-.42.21h-5.78a.679.679 0 0 1-.43-.21Z"/><path fill="#858585" d="M119.29 199.49c-.18 0-.34-.07-.47-.19a.66.66 0 0 1-.19-.46c0-.18.07-.34.19-.47.13-.12.29-.19.47-.19h4.52c.17 0 .33.07.46.19.12.13.19.29.19.47 0 .17-.07.34-.19.46-.13.12-.29.19-.46.19h-4.52Z"/><path stroke="#263238" stroke-linejoin="round" stroke-width=".75" d="M118.82 199.3a.66.66 0 0 1-.19-.46c0-.18.07-.34.19-.47.13-.12.29-.19.47-.19h4.52c.17 0 .33.07.46.19.12.13.19.29.19.47 0 .17-.07.34-.19.46-.13.12-.29.19-.46.19h-4.52c-.18 0-.34-.07-.47-.19Z"/><path fill="#FFF" d="M123.91 193.21h3.47l-3.47-3.46v3.46Z"/><path stroke="#263238" stroke-linejoin="round" d="m127.38 193.21-3.47-3.46v3.46h3.47Z"/><path fill="#263238" d="M154.32 190.53h-1.55v-.69h2.29v.66l-1.2 4.2h-.78l1.24-4.17ZM155.54 193.54v-2.55c0-.31.12-.6.34-.82.22-.22.51-.34.82-.34.3 0 .6.12.82.34.21.22.34.51.34.82v2.55c0 .3-.13.6-.34.82-.22.21-.52.34-.82.34-.31 0-.6-.13-.82-.34-.22-.22-.34-.52-.34-.82Zm1.55.05v-2.65c0-.35-.15-.48-.39-.48-.24 0-.4.13-.4.48v2.65c0 .34.16.47.4.47.24 0 .39-.13.39-.47ZM158.32 191.76v-1.2c-.01-.11.01-.21.04-.31.03-.09.08-.18.15-.26.07-.07.16-.13.25-.18a.765.765 0 0 1 .6 0c.09.05.17.11.24.18.07.08.12.17.16.26.03.1.04.2.03.31v1.2c.01.1 0 .2-.03.3-.04.09-.09.18-.16.26a.69.69 0 0 1-.24.18.765.765 0 0 1-.6 0 .725.725 0 0 1-.4-.44c-.03-.1-.05-.2-.04-.3Zm.99.03v-1.28c0-.22-.1-.31-.25-.31s-.25.09-.25.31v1.28c0 .21.09.3.25.3s.25-.09.25-.3Zm1.49-1.95h.48l-1.88 4.84h-.48l1.88-4.84Zm-.37 4.14v-1.2c-.01-.1 0-.2.03-.3.04-.1.09-.19.16-.26.07-.08.15-.14.25-.18.09-.04.19-.06.29-.06a.73.73 0 0 1 .55.24c.07.07.12.16.15.26.04.1.05.2.04.3v1.2c.01.1 0 .21-.04.3a.72.72 0 0 1-.15.27c-.07.07-.15.13-.25.17-.09.04-.19.07-.3.07-.1 0-.2-.03-.29-.07-.1-.04-.18-.1-.25-.17a.919.919 0 0 1-.16-.27c-.03-.09-.04-.2-.03-.3Zm.98.03v-1.28c0-.21-.09-.3-.25-.3s-.24.09-.24.3v1.28c0 .22.08.31.24.31.16 0 .28-.09.28-.31h-.03ZM71.06 66.12l15.83-12.24 15.84 12.24H71.06Z"/><path stroke="#263238" stroke-linejoin="round" d="m86.89 53.88 15.84 12.24H71.06l15.83-12.24Z"/><path fill="#263238" d="M91.03 52.91h-8.28v7.08h8.28v-7.08Z"/><path stroke="#263238" stroke-linejoin="round" d="M91.03 52.91v7.08h-8.28v-7.08h8.28Z"/><path stroke="#263238" stroke-linecap="round" stroke-linejoin="round" stroke-width=".75" d="M86.89 35.32V60"/><path fill="#263238" d="m197.26 66.12 15.84-12.24 15.83 12.24h-31.67Z"/><path stroke="#263238" stroke-linejoin="round" d="m213.1 53.88 15.83 12.24h-31.67l15.84-12.24Z"/><path fill="#263238" d="M217.24 52.91h-8.28v7.08h8.28v-7.08Z"/><path stroke="#263238" stroke-linejoin="round" d="M217.24 52.91v7.08h-8.28v-7.08h8.28Z"/><path stroke="#263238" stroke-linecap="round" stroke-linejoin="round" stroke-width=".75" d="M213.1 34.12v25.87"/><path fill="#FFF" d="m219.28 257.15-.34 9.9 5.13.24 1.86-10.14h-6.65Z"/><path stroke="#263238" stroke-linejoin="round" d="m218.94 267.05 5.13.24 1.86-10.14h-6.65l-.34 9.9Z"/><path fill="#FFF" d="M209.25 270.09c1.73-.6 4.72-1.62 5.84-2.33.9-.56 2.15-2.4 3.08-2.91.2-.09.41-.13.62-.13.21 0 .42.04.62.13.15.16.25.37.28.6.03.09.08.18.16.25.07.06.16.11.26.12.1.02.2 0 .29-.04.09-.05.17-.11.22-.2.15-.28.35-.53.6-.72.79-.44 2.94-.57 3.64 0 1.16.95 1.58 4.24 1.8 5.72.05.33 0 2.13 0 2.13h-18.7v-.82c0-.4.12-.79.35-1.11.24-.33.56-.57.94-.69Z"/><path stroke="#263238" stroke-linejoin="round" d="M215.09 267.76c.9-.56 2.15-2.4 3.08-2.91.2-.09.41-.13.62-.13.21 0 .42.04.62.13.15.16.25.37.28.6.03.09.08.18.16.25.07.06.16.11.26.12.1.02.2 0 .29-.04.09-.05.17-.11.22-.2.15-.28.35-.53.6-.72.79-.44 2.94-.57 3.64 0 1.16.95 1.58 4.24 1.8 5.72.05.33 0 2.13 0 2.13h-18.7v-.82c0-.4.12-.79.35-1.11.24-.33.56-.57.94-.69 1.73-.6 4.72-1.62 5.84-2.33Z"/><path fill="#858585" d="M226.67 272.7h-18.71v-.83c0-.2.04-.4.1-.6h18.63c0 .63-.02 1.43-.02 1.43Z"/><path stroke="#263238" stroke-linejoin="round" d="M207.96 272.7v-.83c0-.2.04-.4.1-.6h18.63c0 .63-.02 1.43-.02 1.43h-18.71Z"/><path fill="#263238" d="m222.51 180.4-3.93 80.52 7.2 1.2s4.54-23.31 5.09-30.94c.13-1.8 0-7.23 0-7.23l5.09-25.07s3.36-3.1 3.75-17.84l-17.2-.64Z"/><path stroke="#263238" stroke-linejoin="round" d="m218.58 260.92 7.2 1.2s4.54-23.31 5.09-30.94c.13-1.8 0-7.23 0-7.23l5.09-25.07s3.36-3.1 3.75-17.84l-17.2-.64-3.93 80.52Z"/><path fill="#000" d="M233.17 211.56c.27-1.16.6-2.31.99-3.45.06-.16.13-.31.2-.46.18-1.7.45-3.4.82-5.07.13-.63.47-1.19.96-1.6.14-.31.35-.59.61-.82.26-.22.57-.39.91-.48-.23-1.55-.56-3.08-1.01-4.58-.46-1.57-1.2-3.07-1.42-4.7-.06-.42-.3-.86-.23-.91-.51-.2-1.02-.43-1.51-.68l-.09-.07c-.46 7.6-.54 15.21-.23 22.82Z" opacity=".7"/><path stroke="#7F7F7F" stroke-linecap="round" stroke-linejoin="round" stroke-width=".75" d="M222.17 226.45a7.16 7.16 0 0 0 3.38-1.84"/><path fill="#FFF" d="m217.63 262.45 8.71.71.65-2.82-9.36-.73v2.84Z"/><path stroke="#263238" stroke-linejoin="round" d="m226.34 263.16.65-2.82-9.36-.73v2.84l8.71.71Z"/><path fill="#FFF" d="m242.77 255.93 1.86 11.58 4.74-.38-.16-11.85-6.44.65Z"/><path stroke="#263238" stroke-linejoin="round" d="m244.63 267.51 4.74-.38-.16-11.85-6.44.65 1.86 11.58Z"/><path fill="#FFF" d="M234.84 270.09c1.73-.6 4.72-1.62 5.83-2.33.9-.56 2.16-2.4 3.09-2.91.19-.09.4-.13.62-.13.21 0 .42.04.62.13.11.11.18.25.22.4.03.11.1.22.19.29.09.08.2.13.32.14.12.02.24-.01.35-.06.1-.05.19-.14.25-.24.12-.21.28-.39.48-.53.79-.45 2.93-.57 3.63 0 1.17.95 1.59 4.24 1.8 5.72.05.33 0 2.13 0 2.13h-18.69v-.83c0-.39.12-.78.35-1.1.24-.32.56-.56.94-.68Z"/><path stroke="#263238" stroke-linejoin="round" d="M240.67 267.76c.9-.56 2.16-2.4 3.09-2.91.19-.09.4-.13.62-.13.21 0 .42.04.62.13.11.11.18.25.22.4.03.11.1.22.19.29.09.08.2.13.32.14.12.02.24-.01.35-.06.1-.05.19-.14.25-.24.12-.21.28-.39.48-.53.79-.45 2.93-.57 3.63 0 1.17.95 1.59 4.24 1.8 5.72.05.33 0 2.13 0 2.13h-18.69v-.83c0-.39.12-.78.35-1.1.24-.32.56-.56.94-.68 1.73-.6 4.72-1.62 5.83-2.33Z"/><path fill="#858585" d="M252.26 272.7h-18.71v-.83c0-.2.03-.4.1-.6h18.63c0 .63-.02 1.43-.02 1.43Z"/><path stroke="#263238" stroke-linejoin="round" d="M233.55 272.7v-.83c0-.2.03-.4.1-.6h18.63c0 .63-.02 1.43-.02 1.43h-18.71Z"/><path fill="#263238" d="M232.53 182.83s1.8 10.42 3.46 19.16c1.13 5.93 1.2 23.44 1.2 23.44l5.75 36.17 7.08-.96s.09-22.26-.71-29.4c-.18-1.59-.48-6.31-.48-6.31s.27-18.89 1.73-25.2c1.05-4.5 3.12-9.23.6-18.45l-18.63 1.55Z"/><path stroke="#263238" stroke-linejoin="round" d="M235.99 201.99c1.13 5.93 1.2 23.44 1.2 23.44l5.75 36.17 7.08-.96s.09-22.26-.71-29.4c-.18-1.59-.48-6.31-.48-6.31s.27-18.89 1.73-25.2c1.05-4.5 3.12-9.23.6-18.45l-18.63 1.55s1.8 10.42 3.46 19.16Z"/><path stroke="#7F7F7F" stroke-linecap="round" stroke-linejoin="round" stroke-width=".75" d="M238.74 226.45c.72 1 1.79 1.69 3 1.93"/><path fill="#FFF" d="m241.75 259.97.41 2.65 8.78-.94-.06-2.86-9.13 1.15Z"/><path stroke="#263238" stroke-linejoin="round" d="m242.16 262.62 8.78-.94-.06-2.86-9.13 1.15.41 2.65Z"/><path fill="#858585" d="m199.09 134.62-1.93-3.26s-.47-5.32-1.55-6.36-3.48-4.09-3.82-3.49c-.54.96 1.45 2.67 1.45 2.67l.37 1.98s-3.23-2.33-4.15-2.33c0 0-2.58-3.05-3.49-3.06-.91-.01.37 2.11.37 2.11s-.87-.66-1.03-.25c-.17.41 1.12 1.83 1.12 1.83s-.5.54.25 1.7c-.1.37-.1.77 0 1.14.11.37.32.71.6.98 1 .79 6.35 3.82 6.35 3.82l1.8 4.23 3.66-1.71Z"/><path stroke="#263238" stroke-linejoin="round" d="M197.16 131.36s-.47-5.32-1.55-6.36-3.48-4.09-3.82-3.49c-.54.96 1.45 2.67 1.45 2.67l.37 1.98s-3.23-2.33-4.15-2.33c0 0-2.58-3.05-3.49-3.06-.91-.01.37 2.11.37 2.11s-.87-.66-1.03-.25c-.17.41 1.12 1.83 1.12 1.83s-.5.54.25 1.7c-.1.37-.1.77 0 1.14.11.37.32.71.6.98 1 .79 6.35 3.82 6.35 3.82l1.8 4.23 3.66-1.71-1.93-3.26Z"/><path stroke="#263238" stroke-linecap="round" stroke-linejoin="round" stroke-width=".75" d="M187.14 124.54s.7.29.41 1.33c.28.4.44.88.46 1.37.07.91 4.69.46 5.94 2.4M187.14 123.42h1.88"/><path fill="#FFF" d="m219.1 133.8-12.37 9.63-8.47-11.54-4.31 2.16s6.77 18.73 11.91 18.73c5.45 0 15.82-8.76 15.82-8.76s.65-1.67-2.58-10.22Z"/><path stroke="#263238" stroke-linejoin="round" d="m206.73 143.43-8.47-11.54-4.31 2.16s6.77 18.73 11.91 18.73c5.45 0 15.82-8.76 15.82-8.76s.65-1.67-2.58-10.22l-12.37 9.63Z"/><path stroke="#263238" stroke-linecap="round" stroke-linejoin="round" stroke-width=".75" d="M207.2 144.35c.29.61.5 1.26.64 1.93"/><path fill="#FFF" d="m219.1 133.8 2.63 34.86v14.49s15.18 1.8 30.15-.39l-.52-14.91 1.52-33.23s-6.95-5.02-17.62-5.02c-10.67 0-16.16 4.2-16.16 4.2Z"/><path stroke="#263238" stroke-linejoin="round" d="M221.73 168.66v14.49s15.18 1.8 30.15-.39l-.52-14.91 1.52-33.23s-6.95-5.02-17.62-5.02c-10.67 0-16.16 4.2-16.16 4.2l2.63 34.86Z"/><path fill="#000" d="m251.88 182.76-.48-13.36c-.26 6.44-7.37 4.02-8.97 3.72-1.73-.32-3.71 5.35-3.71 5.35s-6.6 1.14-11.76.73c-5.17-.4-5.25-5.11-5.25-5.11v9.06s15.2 1.82 30.17-.39Z" opacity=".2"/><path fill="#FFF" d="M228.84 168.33c6.36-.69 12.47-2.89 17.81-6.42l-17.81 6.42Zm.06.35-.02.02a.372.372 0 0 1-.41-.33.38.38 0 0 1 .33-.42l.02.02.08.71Zm17.54-7.05v-.03a.37.37 0 0 1 .52.1c.12.18.07.41-.1.52h-.03l-.39-.59Z"/><path stroke="#263238" stroke-linecap="round" stroke-linejoin="round" stroke-width=".75" d="M228.84 168.33c6.36-.69 12.47-2.89 17.81-6.42"/><path fill="#FFF" d="M226.2 168.51s.51 0 1.41-.07l-1.41.07Zm.02.35-.02.02c-.21 0-.38-.16-.38-.37s.17-.38.38-.38l.02.02v.71Zm1.34-.77.02-.02c.21-.02.38.13.4.34.02.21-.14.39-.35.4l-.02-.01-.05-.71Z"/><path stroke="#263238" stroke-linecap="round" stroke-linejoin="round" stroke-width=".75" d="M226.2 168.51s.51 0 1.41-.07"/><path fill="#FFF" d="m231.33 135.48-2.63-.96-2.5 2.43 1.83-7.5 2.22-1.74 1.12.71 5.04-.19 3.92.32 1.87-.58 1.99 1.99-4.43 8.48-1.86-3.21-4.11.51-2.46-.26Z"/><path fill="#FFF" d="m231.33 135.48-2.63-.96-2.5 2.43 1.83-7.5 2.22-1.74 1.12.71 5.04-.19 3.92.32 1.87-.58 1.99 1.99-4.43 8.48-1.86-3.21-4.11.51-2.46-.26Z" opacity=".5"/><path stroke="#263238" stroke-linejoin="round" d="m228.7 134.52-2.5 2.43 1.83-7.5 2.22-1.74 1.12.71 5.04-.19 3.92.32 1.87-.58 1.99 1.99-4.43 8.48-1.86-3.21-4.11.51-2.46-.26-2.63-.96Z"/><path fill="#858585" d="m240.06 129.94-.6-9.17-5.79 1.03-1.2 4.3-1.2 3.74-.57.05 1.57 8.57 8.37-8.4-.58-.12Z"/><path fill="#263238" d="M225.81 121.41c0 2.32.36 7.53 3.56 8.14 3.31.63 7.11-3.14 8.47-4.65.34-.37.61-.81.79-1.28l.72-1.93c.48.04.95-.06 1.37-.28h-14.91Z"/><path stroke="#263238" stroke-linejoin="round" stroke-width=".5" d="M229.37 129.55c3.31.63 7.11-3.14 8.47-4.65.34-.37.61-.81.79-1.28l.72-1.93c.48.04.95-.06 1.37-.28h-14.91c0 2.32.36 7.53 3.56 8.14Z"/><path stroke="#263238" stroke-linejoin="round" d="m239.46 120.77-5.79 1.03-1.2 4.3-1.2 3.74-.57.05 1.57 8.57 8.37-8.4-.58-.12-.6-9.17Z"/><path fill="#263238" d="M229.68 109.63s-2.75-2.08-1.4-3.73c.7-.85 1.61.27 1.61.27s-.48-2.61 1.47-3c1.8-.33 1.72 1.73 1.72 1.73s.93-1.77 2.56-1.37c1.3.31.8 2.14.8 2.14s1.73-2.14 3.51-1.2c1.55.81.27 2.76.27 2.76s1.84-.65 2.87.38c1.02 1.03 0 2.4 0 2.4s2.02 0 2.11 1.51c.09 1.52-1.57 1.8-1.57 1.8s2.34.76 2.36 2.6c.02 1.83-1.55 1.24-1.55 1.24s.97 1.73.16 2.65a.988.988 0 0 1-.78.4c-.16 0-.31-.04-.44-.11a.991.991 0 0 1-.35-.29s1.02 2.18-.27 2.81c-.92.45-1.46-.65-1.46-.65s-.77 1.88-1.71.73c-.93-1.15-5.58-10.02-5.58-10.02l-4.33-3.05Z"/><path stroke="#263238" stroke-linejoin="round" stroke-width=".75" d="M228.28 105.9c.7-.85 1.61.27 1.61.27s-.48-2.61 1.47-3c1.8-.33 1.72 1.73 1.72 1.73s.93-1.77 2.56-1.37c1.3.31.8 2.14.8 2.14s1.73-2.14 3.51-1.2c1.55.81.27 2.76.27 2.76s1.84-.65 2.87.38c1.02 1.03 0 2.4 0 2.4s2.02 0 2.11 1.51c.09 1.52-1.57 1.8-1.57 1.8s2.34.76 2.36 2.6c.02 1.83-1.55 1.24-1.55 1.24s.97 1.73.16 2.65a.988.988 0 0 1-.78.4c-.16 0-.31-.04-.44-.11a.991.991 0 0 1-.35-.29s1.02 2.18-.27 2.81c-.92.45-1.46-.65-1.46-.65s-.77 1.88-1.71.73c-.93-1.15-5.58-10.02-5.58-10.02l-4.33-3.05s-2.75-2.08-1.4-3.73Z"/><path fill="#FFF" d="m228.88 109.72-1.72 3.6c-.18.37-.27.78-.27 1.2v1.13l-.96 2.4c-.05.12-.09.25-.12.38-.3 1.28-1.76 8.14 1.8 9.54 3.15 1.24 7.57-1.75 9.2-2.97.4-.31.75-.69 1.01-1.12l1.08-1.75c.46.13.95.12 1.4-.04.45-.16.84-.45 1.11-.85.97-1.38 2.08-2.13.76-3.38-1.33-1.25-2.55.75-2.55.75l.18-3.52-1.54-2.7-.08-1.7s-5.02-.56-8.4-2.4l-.9 1.43Z"/><path stroke="#263238" stroke-linejoin="round" stroke-width=".75" d="M227.16 113.32c-.18.37-.27.78-.27 1.2v1.13l-.96 2.4c-.05.12-.09.25-.12.38-.3 1.28-1.76 8.14 1.8 9.54 3.15 1.24 7.57-1.75 9.2-2.97.4-.31.75-.69 1.01-1.12l1.08-1.75c.46.13.95.12 1.4-.04.45-.16.84-.45 1.11-.85.97-1.38 2.08-2.13.76-3.38-1.33-1.25-2.55.75-2.55.75l.18-3.52-1.54-2.7-.08-1.7s-5.02-.56-8.4-2.4l-.9 1.43-1.72 3.6Z"/><path fill="#858585" d="m228.88 109.72-1.72 3.6c-.18.37-.27.78-.27 1.2v1.13l-.96 2.4c-.05.12-.09.25-.12.38-.3 1.28-1.76 8.14 1.8 9.54 3.15 1.24 7.57-1.75 9.2-2.97.4-.31.75-.69 1.01-1.12l1.08-1.75c.46.13.95.12 1.4-.04.45-.16.84-.45 1.11-.85.97-1.38 2.08-2.13.76-3.38-1.33-1.25-2.55.75-2.55.75l.18-3.52-1.54-2.7-.08-1.7s-5.02-.56-8.4-2.4l-.9 1.43Z"/><path stroke="#263238" stroke-linejoin="round" d="M227.16 113.32c-.18.37-.27.78-.27 1.2v1.13l-.96 2.4c-.05.12-.09.25-.12.38-.3 1.28-1.76 8.14 1.8 9.54 3.15 1.24 7.57-1.75 9.2-2.97.4-.31.75-.69 1.01-1.12l1.08-1.75c.46.13.95.12 1.4-.04.45-.16.84-.45 1.11-.85.97-1.38 2.08-2.13.76-3.38-1.33-1.25-2.55.75-2.55.75l.18-3.52-1.54-2.7-.08-1.7s-5.02-.56-8.4-2.4l-.9 1.43-1.72 3.6Z"/><path stroke="#263238" stroke-linecap="round" stroke-linejoin="round" stroke-width=".75" d="M231.94 122.01c-.97 1.88-2.29 1.57-3.12 1.1"/><path fill="#263238" d="M231.96 117.75c-.13.42-.4.72-.6.66-.2-.06-.26-.47-.13-.89.13-.43.4-.73.6-.66.2.06.26.46.13.89ZM227.95 116.5c-.13.44-.4.73-.6.66-.19-.06-.26-.46-.13-.88.13-.43.41-.72.6-.66.19.07.27.46.13.88Z"/><path stroke="#263238" stroke-linecap="round" stroke-linejoin="round" stroke-width=".75" d="M227.67 113.73c.15-.04.32-.05.48-.03.17.02.32.08.47.16.14.09.26.2.35.34.1.13.16.29.2.45M231.12 115.37s1.39-1.47 2.34.09M229.2 116.88c-.13.57-.4 1.11-.79 1.55-.39.44-.88.77-1.43.97l1.09 1.73"/><path fill="#FFF" d="m236.16 185.67-.3 1.86c-.05.3.03.61.21.86.18.26.45.43.75.49l19.24 3.15c.31.05.62-.03.87-.21s.43-.45.48-.75l.3-1.86-21.55-3.54Z"/><path stroke="#263238" stroke-linejoin="round" stroke-width=".75" d="M235.86 187.53c-.05.3.03.61.21.86.18.26.45.43.75.49l19.24 3.15c.31.05.62-.03.87-.21s.43-.45.48-.75l.3-1.86-21.55-3.54-.3 1.86Z"/><path fill="#FFF" fill-rule="evenodd" d="m239.11 174.33 19.46 3.2c.58.09.98.64.88 1.22l-1.93 11.75c-.09.58-.64.97-1.22.88l-19.46-3.2a1.05 1.05 0 0 1-.87-1.22l1.92-11.75c.1-.58.65-.97 1.22-.88Z"/><path fill="#FFF" fill-rule="evenodd" d="m239.11 174.33 19.46 3.2c.58.09.98.64.88 1.22l-1.93 11.75c-.09.58-.64.97-1.22.88l-19.46-3.2a1.05 1.05 0 0 1-.87-1.22l1.92-11.75c.1-.58.65-.97 1.22-.88Z" opacity=".5"/><path stroke="#263238" stroke-linejoin="round" d="M258.57 177.53c.58.09.98.64.88 1.22l-1.93 11.75c-.09.58-.64.97-1.22.88l-19.46-3.2a1.05 1.05 0 0 1-.87-1.22l1.92-11.75c.1-.58.65-.97 1.22-.88l19.46 3.2Z"/><path fill="#858585" d="m251.07 179.72-1.07 3.6-3.6 2.57c-.51 1.58-1.11 3.12-1.8 4.63-.04.08-.07.18-.07.27.01.1.03.19.08.28.04.08.11.15.19.2.08.05.18.08.27.08.5 0 1.08-.23 1.4-1.2 0 0 .14 1.9 1.31.74 0 0 .71 1.84 1.83.39 0 0 2.58.39 3-1.48.41-1.87 1.02-5.15 1.02-5.15l1.65-3.86-4.21-1.07Z"/><path stroke="#263238" stroke-linejoin="round" d="m250 183.32-3.6 2.57c-.51 1.58-1.11 3.12-1.8 4.63-.04.08-.07.18-.07.27.01.1.03.19.08.28.04.08.11.15.19.2.08.05.18.08.27.08.5 0 1.08-.23 1.4-1.2 0 0 .14 1.9 1.31.74 0 0 .71 1.84 1.83.39 0 0 2.58.39 3-1.48.41-1.87 1.02-5.15 1.02-5.15l1.65-3.86-4.21-1.07-1.07 3.6Z"/><path stroke="#263238" stroke-linecap="round" stroke-linejoin="round" stroke-width=".75" d="M246.45 186.64h.4M247.09 189.6s.28.91.92.76c.63-.15 1.54.56 3.52-.27"/><path fill="#FFF" d="M252.88 134.62s9 25.01 8.83 28.66c-.17 3.65-6.57 19.55-6.57 19.55l-4.94-1.57 3.3-18.65-2.96-12.95s-.67-9.5 2.34-15.04Z"/><path stroke="#263238" stroke-linejoin="round" d="M261.71 163.28c-.17 3.65-6.57 19.55-6.57 19.55l-4.94-1.57 3.3-18.65-2.96-12.95s-.67-9.5 2.34-15.04c0 0 9 25.01 8.83 28.66Z"/><path stroke="#263238" stroke-linecap="round" stroke-linejoin="round" stroke-width=".75" d="M254.61 162.2c.33-.25.71-.43 1.12-.52.41-.08.83-.08 1.24.02"/><path fill="#FFF" d="M248.76 181.65c-.18-.24-.32-.5-.4-.79-.35-.01-.68.12-.94.35-.26.23-.42.55-.45.89-.03.35.07.69.28.97.21.27.52.45.86.51.36.06.73-.03 1.03-.24.29-.21.49-.53.55-.89-.38-.16-.71-.44-.93-.8ZM73.16 128.87l1.09 5.38-12.13.51 2.11-14.91 8.17.94.76 8.08Z"/><path fill="#263238" d="m78.6 120.7-10.15 3c.13 1.17.37 2.31.72 3.43.6 1.73 4.25 4.8 6.6 4.76 2.35-.03 2.61-7.51 2.61-7.51l1.42-.78c.08-.05.15-.11.2-.19.06-.07.1-.16.11-.25a.66.66 0 0 0-.11-.53l-1.4-1.93Z"/><path stroke="#263238" stroke-linejoin="round" stroke-width=".75" d="M68.45 123.7c.13 1.17.37 2.31.72 3.43.6 1.73 4.25 4.8 6.6 4.76 2.35-.03 2.61-7.51 2.61-7.51l1.42-.78c.08-.05.15-.11.2-.19.06-.07.1-.16.11-.25a.66.66 0 0 0-.11-.53l-1.4-1.93-10.15 3Z"/><path stroke="#263238" stroke-linejoin="round" d="m74.25 134.25-12.13.51 2.11-14.91 8.17.94.76 8.08 1.09 5.38Z"/><path fill="#263238" d="M73.72 109.91s2.94.6 2.64-2.6c-.3-3.2-5.79-1.24-8.65-.88-2.86.36-12.1 3.81-8.83 9.26 0 0-1.93 3.07 5.01 8.22 0 0 3.29-1.54 5.1.72l1.41-2.75 3.6-6.32-.28-5.65Z"/><path stroke="#263238" stroke-linejoin="round" d="M76.36 107.31c-.3-3.2-5.79-1.24-8.65-.88-2.86.36-12.1 3.81-8.83 9.26 0 0-1.93 3.07 5.01 8.22 0 0 3.29-1.54 5.1.72l1.41-2.75 3.6-6.32-.28-5.65s2.94.6 2.64-2.6Z"/><path fill="#263238" d="M73.5 109.43s2.82 1.57 4.44-.4c0 0 .18 4.2-4.44.4Z"/><path stroke="#263238" stroke-linejoin="round" d="M77.94 109.03s.18 4.2-4.44.4c0 0 2.82 1.57 4.44-.4Z"/><path fill="#FFF" d="M73.79 108.99s4.2 4.42 4.06 7.45v2.77l2.22 2.5a.582.582 0 0 1 .08.73c-.05.08-.11.14-.19.19l-1.29.89s.38 7.08-1.84 7.34c-2.22.25-5.92-2.4-6.65-3.96-.56-1.44-.96-2.92-1.2-4.44-.65-.17-1.23-.54-1.67-1.04-.43-.51-.71-1.14-.79-1.8-.26-2.33 2.09-2.26 2.7-.74l.49 1.24 1.52-.05s-.87-2.2-.35-2.85c.51-.64 2.54-2.22 1.61-3.73-.93-1.5-.62-4.07 1.3-4.5Z"/><path stroke="#263238" stroke-linejoin="round" d="M77.85 116.44v2.77l2.22 2.5a.582.582 0 0 1 .08.73c-.05.08-.11.14-.19.19l-1.29.89s.38 7.08-1.84 7.34c-2.22.25-5.92-2.4-6.65-3.96-.56-1.44-.96-2.92-1.2-4.44-.65-.17-1.23-.54-1.67-1.04-.43-.51-.71-1.14-.79-1.8-.26-2.33 2.09-2.26 2.7-.74l.49 1.24 1.52-.05s-.87-2.2-.35-2.85c.51-.64 2.54-2.22 1.61-3.73-.93-1.5-.62-4.07 1.3-4.5 0 0 4.2 4.42 4.06 7.45Z"/><path stroke="#263238" stroke-linecap="round" stroke-linejoin="round" stroke-width=".75" d="M76.2 124.91c.17.31.44.56.76.71.32.15.69.19 1.04.12"/><path stroke="#263238" stroke-linecap="round" stroke-linejoin="round" d="M75.09 116.46s.95-1.32 1.86-.11"/><path fill="#263238" d="M76.6 119.23c0 .41-.17.75-.39.76-.22.01-.41-.32-.42-.74-.01-.41.16-.75.38-.76.22-.01.42.31.43.74Z"/><path fill="#FFF" d="m57.35 252.14-1.75 15.08 5.22.8 2.87-14.9-6.34-.98Z"/><path stroke="#263238" stroke-linejoin="round" d="m55.6 267.22 5.22.8 2.87-14.9-6.34-.98-1.75 15.08Z"/><path fill="#FFF" d="M54.9 185.52s.21 8.73 3.29 14.88l.71 23.18-3.56 37.36 7.91.75 7.2-39.07 2.4-35.4-17.95-1.7Z"/><path stroke="#263238" stroke-linejoin="round" d="m58.19 200.4.71 23.18-3.56 37.36 7.91.75 7.2-39.07 2.4-35.4-17.95-1.7s.21 8.73 3.29 14.88Z"/><path fill="#000" d="m71.74 204.24-.66-4.16-3-13.08-.56-.28-12.6-1.2s0 1.43.29 3.55l6.22 3.53c.15 2.21.65 4.39 1.48 6.45.08.18.1.37.08.56-.02.2-.1.38-.21.54a1.133 1.133 0 0 1-1.01.46c-.64-.05-1.2 0-1.2.42 0 .97 4.69 4.11 4.69 4.11s4.74 15.3 4.57 20.95l.64-3.48 1.27-18.37Z" opacity=".2"/><path fill="#FFF" d="m73.27 253.13.57 15.17h5.27l.57-15.17h-6.41Z"/><path stroke="#263238" stroke-linejoin="round" d="M73.84 268.3h5.27l.57-15.17h-6.41l.57 15.17Z"/><path fill="#263238" d="M87.51 270.43c-1.74-.53-3.43-1.2-5.06-2.01-.78-.49-1.87-2.08-2.68-2.53-.17-.07-.35-.11-.53-.11-.19 0-.37.04-.54.11-.38.31-.4 1.94-.4 1.94s-.68-1.66-1.17-1.94c-.68-.38-2.54-.5-3.15 0-1.01.82-1.37 3.68-1.57 4.96-.05.29 0 1.85 0 1.85h16.2v-.72c0-.34-.11-.67-.3-.95-.2-.28-.48-.49-.8-.6Z"/><path stroke="#263238" stroke-linejoin="round" d="M82.45 268.42c-.78-.49-1.87-2.08-2.68-2.53-.17-.07-.35-.11-.53-.11-.19 0-.37.04-.54.11-.38.31-.4 1.94-.4 1.94s-.68-1.66-1.17-1.94c-.68-.38-2.54-.5-3.15 0-1.01.82-1.37 3.68-1.57 4.96-.05.29 0 1.85 0 1.85h16.2v-.72c0-.34-.11-.67-.3-.95-.2-.28-.48-.49-.8-.6-1.74-.53-3.43-1.2-5.06-2.01Z"/><path fill="#FFF" d="m84.3 186.24-1.29 35.04-2.17 40.01H72.6s-1.73-30.71-1.3-39.59l-4.33-20.55s-4.54-6.06-3.46-13.41l20.79-1.5Z"/><path stroke="#263238" stroke-linejoin="round" d="m83.01 221.28-2.17 40.01H72.6s-1.73-30.71-1.3-39.59l-4.33-20.55s-4.54-6.06-3.46-13.41l20.79-1.5-1.29 35.04Z"/><path fill="#FFF" d="m71.86 258.32.27 4.81h9.03l.7-4.81h-10Z"/><path stroke="#263238" stroke-linejoin="round" d="M72.13 263.13h9.03l.7-4.81h-10l.27 4.81Z"/><path fill="#FFF" d="m54.68 257.91-.19 4.81 8.99.85 1.16-4.72-9.96-.94Z"/><path stroke="#263238" stroke-linejoin="round" d="m54.49 262.72 8.99.85 1.16-4.72-9.96-.94-.19 4.81Z"/><path fill="#FFF" d="m97.97 163.17-12.47-7.94 13.14-13.14 12.48 7.93-13.15 13.15Z"/><path stroke="#263238" stroke-linejoin="round" d="m85.5 155.23 13.14-13.14 12.48 7.93-13.15 13.15-12.47-7.94Z"/><path fill="#FFF" d="m98.68 160.45-10.03-6.37 10.57-10.58 10.04 6.38-10.58 10.57Z"/><path stroke="#263238" stroke-linejoin="round" stroke-width=".75" d="m88.65 154.08 10.57-10.58 10.04 6.38-10.58 10.57-10.03-6.37Z"/><path stroke="#263238" stroke-linejoin="round" stroke-width=".75" d="m101.17 147.75-2.25-1.43-1.76 1.75 2.25 1.43 1.76-1.75ZM98.45 150.48l-2.26-1.44-1.74 1.75 2.25 1.44 1.75-1.75ZM95.63 153.29l-2.25-1.43-1.75 1.75 2.25 1.43 1.75-1.75Z"/><path fill="#858585" d="m103.71 144.13-1.66 1.67c-.08.07-.14.17-.18.27-.03.11-.05.22-.03.33.01.11.05.21.1.31.06.09.14.17.24.23l2.4 1.54c.26.17.57.25.89.21.31-.03.6-.17.82-.39l1.53-1.54-4.11-2.63Z"/><path stroke="#263238" stroke-linejoin="round" d="M102.05 145.8c-.08.07-.14.17-.18.27-.03.11-.05.22-.03.33.01.11.05.21.1.31.06.09.14.17.24.23l2.4 1.54c.26.17.57.25.89.21.31-.03.6-.17.82-.39l1.53-1.54-4.11-2.63-1.66 1.67Z"/><path fill="#858585" d="m59.32 133.89 2.16-4.76s12.55-1.4 15.9 9.09l-18.06-4.33Z"/><path stroke="#263238" stroke-linejoin="round" d="M61.48 129.13s12.55-1.4 15.9 9.09l-18.06-4.33 2.16-4.76Z"/><path fill="#858585" d="M52.2 137.95s-3.1 23.72-2.28 32.12c.65 6.65 5.03 12.28 5.03 12.28l6.49-2.55-3.3-9.73s1.03-17.52 2-21.6l-7.94-10.52Z"/><path stroke="#263238" stroke-linejoin="round" d="M49.92 170.07c.65 6.65 5.03 12.28 5.03 12.28l6.49-2.55-3.3-9.73s1.03-17.52 2-21.6l-7.94-10.52s-3.1 23.72-2.28 32.12Z"/><path fill="#858585" d="m53.07 181.18 1.83 2.19 7.5-2.92-.97-2.92-8.36 3.65Z"/><path stroke="#263238" stroke-linejoin="round" d="m54.9 183.37 7.5-2.92-.97-2.92-8.36 3.65 1.83 2.19Z"/><path fill="#858585" d="M52.19 137.95s-.97 13.62 1.8 23.2c2.78 9.58 0 25.3 0 25.3s12.79 8.28 32.4 1.95c0 0-2.43-46.56-5.67-49.16-3.25-2.59-21.57-12.48-28.53-1.29Z"/><path stroke="#263238" stroke-linejoin="round" d="M53.99 161.15c2.78 9.58 0 25.3 0 25.3s12.79 8.28 32.4 1.95c0 0-2.43-46.56-5.67-49.16-3.25-2.59-21.57-12.48-28.53-1.29 0 0-.97 13.62 1.8 23.2Z"/><path fill="#000" d="M86.39 188.4s-.83-15.96-2.17-29.72c-2.83-6.88-7.47-16.06-7.72-3.18-.36 18.63 11.11 17.54 2.02 20.78a14.7 14.7 0 0 1-6.37.91c-2.17-.16-4.27-.81-6.15-1.88a.79.79 0 0 0-.5-.07.81.81 0 0 0-.42.26c-.11.13-.17.29-.17.46 0 .17.06.34.16.47 2.28 2.9 5.74 4.71 8.4 5.74.24.1.44.26.58.48.13.22.19.48.16.74-.02.25-.14.49-.31.68-.18.18-.42.3-.67.34-8.55 1.27-15.26-3.28-18.34-5.93-.36 4.59-.96 7.97-.96 7.97s12.85 8.28 32.46 1.95Z" opacity=".2"/><path fill="#858585" d="M80.73 139.25a7.604 7.604 0 0 1 4.38 5.92c.65 4.46 4.8 18.17 4.8 18.17l1.38-.89c1.15.51 2.1 1.4 2.7 2.51.6 1.11.82 2.39.61 3.64 0 0-3.37 6.6-7.05 5.35-3.79-1.28-5.91-4.38-7.8-9.44-1-2.7-3.9-10.84-3.9-10.84l4.88-14.42Zm-.18.44-.03.01a.487.487 0 0 1-.24-.66c.11-.25.4-.36.66-.24l.01.02-.4.87Zm-5.14 14.16-.03-.01c-.09-.26.04-.54.31-.64.26-.09.54.04.63.31l-.01.02-.9.32Z"/><path stroke="#263238" stroke-linecap="round" stroke-linejoin="round" d="M80.73 139.25a7.604 7.604 0 0 1 4.38 5.92c.65 4.46 4.8 18.17 4.8 18.17l1.38-.89c1.15.51 2.1 1.4 2.7 2.51.6 1.11.82 2.39.61 3.64 0 0-3.37 6.6-7.05 5.35-3.79-1.28-5.91-4.38-7.8-9.44-1-2.7-3.9-10.84-3.9-10.84"/><path stroke="#263238" stroke-linecap="round" stroke-linejoin="round" stroke-width=".75" d="M91.57 167.31c.02.35 0 .71-.05 1.06M89.09 170.07s1.13-1.8.97-5.68c.55.41.96.97 1.2 1.61"/><path fill="#FFF" d="m92.2 162.07 4.32-3.09c.22-.96.69-1.84 1.37-2.55.67-.72 1.53-1.23 2.47-1.5 0 0 2-3.3 3.14-2.92 1.13.38-1.35 1.73-1.57 3.46l.92 1.23s3-.53 3.73-1.5c0 0-.16 2.05-1.35 2.4 0 0 0 1.56-.81 1.51l-5.95 1.68-3.47 6.46-2.8-5.18Z"/><path stroke="#263238" stroke-linejoin="round" d="M96.52 158.98c.22-.96.69-1.84 1.37-2.55.67-.72 1.53-1.23 2.47-1.5 0 0 2-3.3 3.14-2.92 1.13.38-1.35 1.73-1.57 3.46l.92 1.23s3-.53 3.73-1.5c0 0-.16 2.05-1.35 2.4 0 0 0 1.56-.81 1.51l-5.95 1.68-3.47 6.46-2.8-5.18 4.32-3.09Z"/><path stroke="#263238" stroke-linecap="round" stroke-linejoin="round" stroke-width=".75" d="M74.48 177.07c.69-.07 1.37-.18 2.03-.35M57.48 167.23s6.38 9.76 15.6 9.89"/><path fill="#858585" d="M90.33 162.17s4.51 3.41 4.08 7.52l1.63-3.11s-.06-2.62-3.79-5.4l-1.92.99Z"/><path stroke="#263238" stroke-linejoin="round" d="m94.41 169.69 1.63-3.11s-.06-2.62-3.79-5.4l-1.92.99s4.51 3.41 4.08 7.52Z"/><path fill="#FFF" d="M72.41 272.7h16.2v-.72c0-.17-.03-.35-.09-.51H72.38c0 .54.03 1.23.03 1.23Z"/><path stroke="#263238" stroke-linejoin="round" stroke-width=".75" d="M88.61 272.7v-.72c0-.17-.03-.35-.09-.51H72.38c0 .54.03 1.23.03 1.23h16.2Z"/><path fill="#263238" d="M69 270.43c-1.75-.53-3.44-1.2-5.07-2.01-.78-.49-1.87-2.08-2.67-2.53-.17-.07-.35-.11-.54-.11-.18 0-.36.04-.53.11-.39.31-.4 1.94-.4 1.94s-.68-1.66-1.18-1.94c-.68-.38-2.54-.5-3.15 0-1 .82-1.37 3.68-1.57 4.96-.05.29 0 1.85 0 1.85h16.2v-.72c0-.34-.1-.67-.3-.95-.19-.28-.47-.49-.79-.6Z"/><path stroke="#263238" stroke-linejoin="round" d="M63.93 268.42c-.78-.49-1.87-2.08-2.67-2.53-.17-.07-.35-.11-.54-.11-.18 0-.36.04-.53.11-.39.31-.4 1.94-.4 1.94s-.68-1.66-1.18-1.94c-.68-.38-2.54-.5-3.15 0-1 .82-1.37 3.68-1.57 4.96-.05.29 0 1.85 0 1.85h16.2v-.72c0-.34-.1-.67-.3-.95-.19-.28-.47-.49-.79-.6-1.75-.53-3.44-1.2-5.07-2.01Z"/><path fill="#FFF" d="M53.88 272.7h16.2v-.72c0-.17-.03-.35-.08-.51H53.86c0 .54.02 1.23.02 1.23Z"/><path stroke="#263238" stroke-linejoin="round" stroke-width=".75" d="M70.08 272.7v-.72c0-.17-.03-.35-.08-.51H53.86c0 .54.02 1.23.02 1.23h16.2Z"/><path stroke="#263238" stroke-linecap="round" stroke-linejoin="round" stroke-width=".75" d="M77.78 221.93s-1.72 2.97-4.51 1.84M65.77 222.97s-3.09 2.64-5.64.8"/><path fill="#FFF" d="m98.02 146.11.43 2.15h3.83l-3.12-.73.15-1.46-1.29.04Z"/></g></svg>