<svg xmlns="http://www.w3.org/2000/svg" width="300" height="300" fill="none"><defs><clipPath id="a"><path fill="#fff" fill-opacity="0" d="M0 0h300v300H0z"/></clipPath></defs><path fill="none" d="M0 0h300v300H0z"/><g clip-path="url(#a)"><path stroke="#263238" stroke-linecap="round" stroke-linejoin="round" d="m256.16 194.22-.47 4.2 8.17-9.54c.97.1 1.96.15 2.94.15M245.93 165.25a12.205 12.205 0 0 0-1.96 5.4c-.78 6.98 4.7 13.58 12.96 16.64l-.42 3.75M249.1 161.78c-.53.43-1.03.89-1.51 1.39M279.73 161.78a26.871 26.871 0 0 0-12.54-4.58c-4.75-.59-9.57.12-13.95 2.05M272.48 188.47c7.8-1.62 13.71-6.6 14.4-13.07.5-4.52-1.62-8.89-5.4-12.23"/><path stroke="#263238" stroke-linecap="round" stroke-linejoin="round" d="M253.24 166.42c.66.12 1.34.11 2-.03.66-.14 1.28-.41 1.83-.79l2.92 2.26c-.21.07-.19-.36.03-.37.21-.02.38.18.52.34.69.72 1.84.75 2.82.54.98-.21 1.93-.6 2.93-.57.59.07 1.17.2 1.73.41 4.01 1.24 8.18 1.86 12.33 2.47M249.8 170.68c.6-.03 3.94 0 4.42-.4l.82 1.42.9-.87c.15.6.31 1.2.46 1.77.68.16.6-1.15 1.2-1.54.18-.09.4-.11.59-.05.2.06.37.19.47.37.2.37.29.78.28 1.2l4.1.34.8.06c.28-.43.71-.76 1.2-.93-.15.95 1.04 1.49 1.99 1.68 4.67.95 9.36 1.78 14.08 2.47M251.62 177.2c.38.26.84-.23 1.31-.29.46-.06.84.29 1.24.5.41.21 1.08.12 1.11-.34.09.6.84.82 1.44.9l15.76 2.22M40.79 156.7l6.32 8.5-1.27-11.12c1.51-.73 2.95-1.59 4.31-2.57 6.47-4.68 9.08-12.21 6.71-18.28-1.67-4.23-5.56-7.11-10.48-8.31M15.87 143.3c-.2 1.92.06 3.87.76 5.67 2.56 6.54 10.47 9.84 19.2 8.7M17.06 138.75c-.27.63-.5 1.27-.69 1.93M44.18 124.51c-4.49-.53-9.04.07-13.24 1.76a26.69 26.69 0 0 0-11.4 8.3"/><path stroke="#263238" stroke-linecap="round" stroke-linejoin="round" d="M22.88 140.92c1.29-.4 2.37-1.3 3-2.49l3.6.65c-.16.15-.34-.24-.15-.36.19-.11.42 0 .6.06.95.33 1.97-.18 2.74-.83.77-.64 1.43-1.44 2.33-1.86.56-.22 1.14-.37 1.73-.45 4.12-.76 8.1-2.15 12.07-3.54M21.81 146.31c.54-.32 3.49-1.84 3.73-2.4l1.39.88.39-1.2 1.23 1.35c.68-.17 0-1.29.32-1.91.12-.16.3-.28.5-.31.21-.04.42 0 .59.11.34.23.62.54.8.91l3.78-1.6.75-.32c.04-.51.25-1 .6-1.38.31.92 1.62.83 2.54.56 4.58-1.32 9.12-2.77 13.61-4.36M26.46 151.23c.46.05.64-.6 1.02-.87.37-.26.88-.12 1.33-.14.46-.01 1.02-.39.83-.8.36.49 1.12.33 1.69.13l15-5.38"/><path fill="#FFF" fill-rule="evenodd" d="M74.15 53.77h149.6c2.92 0 5.28 2.36 5.28 5.27v134.77c0 2.92-2.36 5.28-5.28 5.28H74.15c-2.91 0-5.28-2.36-5.28-5.28V59.04c0-2.91 2.37-5.27 5.28-5.27Z"/><path fill="#000" d="M229.03 133.37v60.6c0 1.36-.54 2.66-1.5 3.62a5.11 5.11 0 0 1-3.61 1.5H73.99c-1.35 0-2.66-.54-3.62-1.5s-1.5-2.26-1.5-3.62v-12h.32v8.09c0 .77.15 1.53.45 2.24.29.71.72 1.35 1.27 1.9.54.54 1.19.97 1.9 1.26.71.3 1.47.45 2.24.45h144.83c.77 0 1.53-.15 2.24-.45.71-.29 1.36-.72 1.9-1.26.55-.55.98-1.19 1.27-1.9.3-.71.45-1.47.45-2.24v-47.7a4.08 4.08 0 0 0-4.07-4.08H68.87v-4.91h160.16Z" opacity=".2"/><path stroke="#263238" stroke-linejoin="round" d="M223.75 53.77c2.92 0 5.28 2.36 5.28 5.27v134.77c0 2.92-2.36 5.28-5.28 5.28H74.15c-2.91 0-5.28-2.36-5.28-5.28V59.04c0-2.91 2.37-5.27 5.28-5.27h149.6Z"/><path fill="#263238" d="M215.08 150.63v-6.95c0-.33-.06-.67-.19-.98-.13-.31-.32-.6-.56-.83-.24-.24-.52-.43-.83-.56-.31-.13-.65-.2-.98-.19H85.39a2.558 2.558 0 0 0-2.57 2.56v6.95a2.558 2.558 0 0 1-2.57 2.56c-.68 0-1.34.27-1.82.76-.48.48-.75 1.13-.75 1.82v13.7a11.914 11.914 0 0 0 11.91 11.91 1.916 1.916 0 0 1 1.91 1.91v4.1c0 1.52.6 2.97 1.67 4.04a5.75 5.75 0 0 0 4.04 1.68h103.48c1.51 0 2.97-.61 4.04-1.68a5.706 5.706 0 0 0 1.67-4.04v-4.1c0-.51.2-.99.56-1.35.36-.36.85-.56 1.36-.56 1.56 0 3.11-.31 4.55-.91 1.45-.6 2.76-1.48 3.87-2.58a12.04 12.04 0 0 0 2.58-3.87c.6-1.44.91-2.99.91-4.55v-13.7c0-.68-.27-1.34-.76-1.82a2.61 2.61 0 0 0-1.81-.76c-.68 0-1.34-.27-1.82-.75a2.61 2.61 0 0 1-.76-1.81Z"/><path fill="#FFF" d="M92.56 145.05h-4.45a2.05 2.05 0 0 0-2.05 2.05v1.14c0 2.36 1.91 5.36 4.28 5.36 2.36 0 4.28-3 4.28-5.36v-1.14a2.06 2.06 0 0 0-.61-1.45c-.39-.39-.91-.6-1.45-.6Z"/><path stroke="#263238" stroke-linejoin="round" d="M88.11 145.05a2.05 2.05 0 0 0-2.05 2.05v1.14c0 2.36 1.91 5.36 4.28 5.36 2.36 0 4.28-3 4.28-5.36v-1.14a2.06 2.06 0 0 0-.61-1.45c-.39-.39-.91-.6-1.45-.6h-4.45Z"/><path fill="#FFF" d="M103.2 145.05h-4.45c-.55 0-1.07.21-1.45.6-.39.38-.61.9-.61 1.45v1.14c0 2.36 1.92 5.36 4.28 5.36 2.36 0 4.28-3 4.28-5.36v-1.14a2.05 2.05 0 0 0-2.05-2.05Z"/><path stroke="#263238" stroke-linejoin="round" d="M98.75 145.05c-.55 0-1.07.21-1.45.6-.39.38-.61.9-.61 1.45v1.14c0 2.36 1.92 5.36 4.28 5.36 2.36 0 4.28-3 4.28-5.36v-1.14a2.05 2.05 0 0 0-2.05-2.05h-4.45Z"/><path fill="#FFF" d="M113.88 145.05h-4.45c-.54 0-1.07.21-1.45.6-.39.38-.6.9-.6 1.45v1.14c0 2.36 1.91 5.36 4.27 5.36 2.36 0 4.28-3 4.28-5.36v-1.14a2.05 2.05 0 0 0-2.05-2.05Z"/><path stroke="#263238" stroke-linejoin="round" d="M109.43 145.05c-.54 0-1.07.21-1.45.6-.39.38-.6.9-.6 1.45v1.14c0 2.36 1.91 5.36 4.27 5.36 2.36 0 4.28-3 4.28-5.36v-1.14a2.05 2.05 0 0 0-2.05-2.05h-4.45Z"/><path fill="#FFF" d="M124.53 145.05h-4.44a2.05 2.05 0 0 0-2.06 2.05v1.14c0 2.36 1.92 5.36 4.28 5.36 2.37 0 4.27-3 4.27-5.36v-1.14c0-.27-.05-.54-.15-.79-.11-.25-.26-.47-.45-.66-.19-.19-.41-.35-.66-.45-.25-.1-.52-.15-.79-.15Z"/><path stroke="#263238" stroke-linejoin="round" d="M120.09 145.05a2.05 2.05 0 0 0-2.06 2.05v1.14c0 2.36 1.92 5.36 4.28 5.36 2.37 0 4.27-3 4.27-5.36v-1.14c0-.27-.05-.54-.15-.79-.11-.25-.26-.47-.45-.66-.19-.19-.41-.35-.66-.45-.25-.1-.52-.15-.79-.15h-4.44Z"/><path fill="#FFF" d="M135.19 145.05h-4.45a2.05 2.05 0 0 0-2.05 2.05v1.14c0 2.36 1.91 5.36 4.28 5.36 2.36 0 4.28-3 4.28-5.36v-1.14a2.06 2.06 0 0 0-.61-1.45c-.39-.39-.91-.6-1.45-.6Z"/><path stroke="#263238" stroke-linejoin="round" d="M130.74 145.05a2.05 2.05 0 0 0-2.05 2.05v1.14c0 2.36 1.91 5.36 4.28 5.36 2.36 0 4.28-3 4.28-5.36v-1.14a2.06 2.06 0 0 0-.61-1.45c-.39-.39-.91-.6-1.45-.6h-4.45Z"/><path fill="#FFF" d="M145.85 145.05h-4.45c-.54 0-1.06.21-1.45.6-.39.38-.6.9-.6 1.45v1.14c0 2.36 1.91 5.36 4.27 5.36 2.37 0 4.28-3 4.28-5.36v-1.14c0-.55-.21-1.07-.6-1.45-.38-.39-.91-.6-1.45-.6Z"/><path stroke="#263238" stroke-linejoin="round" d="M141.4 145.05c-.54 0-1.06.21-1.45.6-.39.38-.6.9-.6 1.45v1.14c0 2.36 1.91 5.36 4.27 5.36 2.37 0 4.28-3 4.28-5.36v-1.14c0-.55-.21-1.07-.6-1.45-.38-.39-.91-.6-1.45-.6h-4.45Z"/><path fill="#FFF" d="M156.5 145.05h-4.44c-.54 0-1.07.21-1.45.6-.39.38-.6.9-.6 1.45v1.14c0 2.36 1.91 5.36 4.27 5.36 2.36 0 4.28-3 4.28-5.36v-1.14a2.05 2.05 0 0 0-2.06-2.05Z"/><path stroke="#263238" stroke-linejoin="round" d="M152.06 145.05c-.54 0-1.07.21-1.45.6-.39.38-.6.9-.6 1.45v1.14c0 2.36 1.91 5.36 4.27 5.36 2.36 0 4.28-3 4.28-5.36v-1.14a2.05 2.05 0 0 0-2.06-2.05h-4.44Z"/><path fill="#FFF" d="M167.16 145.05h-4.44a2.05 2.05 0 0 0-2.06 2.05v1.14c0 2.36 1.92 5.36 4.28 5.36 2.37 0 4.27-3 4.27-5.36v-1.14c0-.55-.21-1.07-.6-1.45-.38-.39-.9-.6-1.45-.6Z"/><path stroke="#263238" stroke-linejoin="round" d="M162.72 145.05a2.05 2.05 0 0 0-2.06 2.05v1.14c0 2.36 1.92 5.36 4.28 5.36 2.37 0 4.27-3 4.27-5.36v-1.14c0-.55-.21-1.07-.6-1.45-.38-.39-.9-.6-1.45-.6h-4.44Z"/><path fill="#FFF" d="M177.82 145.05h-4.42c-.27 0-.54.05-.79.15-.25.1-.47.26-.67.45-.19.19-.34.41-.44.66-.1.25-.16.52-.16.79v1.14c0 2.36 1.92 5.36 4.28 5.36 2.37 0 4.28-3 4.28-5.36v-1.14c0-.27-.06-.54-.16-.79-.11-.25-.26-.48-.45-.67-.2-.19-.43-.34-.68-.45-.25-.1-.52-.15-.79-.14Z"/><path stroke="#263238" stroke-linejoin="round" d="M173.4 145.05c-.27 0-.54.05-.79.15-.25.1-.47.26-.67.45-.19.19-.34.41-.44.66-.1.25-.16.52-.16.79v1.14c0 2.36 1.92 5.36 4.28 5.36 2.37 0 4.28-3 4.28-5.36v-1.14c0-.27-.06-.54-.16-.79-.11-.25-.26-.48-.45-.67-.2-.19-.43-.34-.68-.45-.25-.1-.52-.15-.79-.14h-4.42Z"/><path fill="#FFF" d="M188.48 145.05h-4.45c-.54 0-1.06.21-1.45.6-.39.38-.6.9-.6 1.45v1.14c0 2.36 1.91 5.36 4.27 5.36 2.37 0 4.28-3 4.28-5.36v-1.14c0-.55-.21-1.07-.6-1.45-.38-.39-.91-.6-1.45-.6Z"/><path stroke="#263238" stroke-linejoin="round" d="M184.03 145.05c-.54 0-1.06.21-1.45.6-.39.38-.6.9-.6 1.45v1.14c0 2.36 1.91 5.36 4.27 5.36 2.37 0 4.28-3 4.28-5.36v-1.14c0-.55-.21-1.07-.6-1.45-.38-.39-.91-.6-1.45-.6h-4.45Z"/><path fill="#FFF" d="M199.14 145.05h-4.45c-.54 0-1.07.21-1.45.6-.39.38-.6.9-.6 1.45v1.14c0 2.36 1.91 5.36 4.27 5.36 2.36 0 4.28-3 4.28-5.36v-1.14a2.05 2.05 0 0 0-2.05-2.05Z"/><path stroke="#263238" stroke-linejoin="round" d="M194.69 145.05c-.54 0-1.07.21-1.45.6-.39.38-.6.9-.6 1.45v1.14c0 2.36 1.91 5.36 4.27 5.36 2.36 0 4.28-3 4.28-5.36v-1.14a2.05 2.05 0 0 0-2.05-2.05h-4.45Z"/><path fill="#FFF" d="M209.79 145.05h-4.44a2.05 2.05 0 0 0-2.06 2.05v1.14c0 2.36 1.91 5.36 4.31 5.36 2.4 0 4.27-3 4.27-5.37v-1.14c0-.27-.06-.54-.16-.79-.11-.25-.26-.47-.45-.66-.2-.19-.43-.34-.68-.45-.25-.1-.52-.15-.79-.14Z"/><path stroke="#263238" stroke-linejoin="round" d="M205.35 145.05a2.05 2.05 0 0 0-2.06 2.05v1.14c0 2.36 1.91 5.36 4.31 5.36 2.4 0 4.27-3 4.27-5.37v-1.14c0-.27-.06-.54-.16-.79-.11-.25-.26-.47-.45-.66-.2-.19-.43-.34-.68-.45-.25-.1-.52-.15-.79-.14h-4.44Z"/><path fill="#FFF" d="M92.56 167.63h-4.45c-.54 0-1.07.22-1.45.6-.38.39-.6.91-.6 1.45v1.14c0 2.37 1.91 5.37 4.28 5.37 2.36 0 4.28-3 4.28-5.37v-1.14c-.01-.54-.22-1.07-.61-1.45-.39-.38-.91-.6-1.45-.6Z"/><path stroke="#263238" stroke-linejoin="round" d="M88.11 167.63c-.54 0-1.07.22-1.45.6-.38.39-.6.91-.6 1.45v1.14c0 2.37 1.91 5.37 4.28 5.37 2.36 0 4.28-3 4.28-5.37v-1.14c-.01-.54-.22-1.07-.61-1.45-.39-.38-.91-.6-1.45-.6h-4.45Z"/><path fill="#FFF" d="M103.2 167.63h-4.45c-.55 0-1.07.22-1.45.6-.39.38-.61.91-.61 1.45v1.14c0 2.37 1.92 5.37 4.28 5.37 2.36 0 4.28-3 4.28-5.37v-1.14c0-.54-.22-1.06-.6-1.45-.39-.38-.91-.6-1.45-.6Z"/><path stroke="#263238" stroke-linejoin="round" d="M98.75 167.63c-.55 0-1.07.22-1.45.6-.39.38-.61.91-.61 1.45v1.14c0 2.37 1.92 5.37 4.28 5.37 2.36 0 4.28-3 4.28-5.37v-1.14c0-.54-.22-1.06-.6-1.45-.39-.38-.91-.6-1.45-.6h-4.45Z"/><path fill="#FFF" d="M113.88 167.63h-4.45c-.54 0-1.07.22-1.45.6-.39.39-.6.91-.6 1.45v1.14c0 2.37 1.91 5.37 4.27 5.37 2.36 0 4.28-3 4.28-5.37v-1.14c0-.54-.22-1.06-.6-1.45-.39-.38-.91-.6-1.45-.6Z"/><path stroke="#263238" stroke-linejoin="round" d="M109.43 167.63c-.54 0-1.07.22-1.45.6-.39.39-.6.91-.6 1.45v1.14c0 2.37 1.91 5.37 4.27 5.37 2.36 0 4.28-3 4.28-5.37v-1.14c0-.54-.22-1.06-.6-1.45-.39-.38-.91-.6-1.45-.6h-4.45Z"/><path fill="#FFF" d="M124.53 167.63h-4.44c-.55 0-1.07.22-1.46.6-.38.39-.6.91-.6 1.45v1.14c0 2.37 1.92 5.37 4.28 5.37 2.37 0 4.27-3 4.27-5.37v-1.14c0-.27-.05-.53-.15-.78-.11-.25-.26-.48-.45-.67a1.96 1.96 0 0 0-.66-.44c-.25-.11-.52-.16-.79-.16Z"/><path stroke="#263238" stroke-linejoin="round" d="M120.09 167.63c-.55 0-1.07.22-1.46.6-.38.39-.6.91-.6 1.45v1.14c0 2.37 1.92 5.37 4.28 5.37 2.37 0 4.27-3 4.27-5.37v-1.14c0-.27-.05-.53-.15-.78-.11-.25-.26-.48-.45-.67a1.96 1.96 0 0 0-.66-.44c-.25-.11-.52-.16-.79-.16h-4.44Z"/><path fill="#FFF" d="M135.19 167.63h-4.45c-.54 0-1.07.22-1.45.6-.38.39-.6.91-.6 1.45v1.14c0 2.37 1.91 5.37 4.28 5.37 2.36 0 4.28-3 4.28-5.37v-1.14c-.01-.54-.22-1.07-.61-1.45-.39-.38-.91-.6-1.45-.6Z"/><path stroke="#263238" stroke-linejoin="round" d="M130.74 167.63c-.54 0-1.07.22-1.45.6-.38.39-.6.91-.6 1.45v1.14c0 2.37 1.91 5.37 4.28 5.37 2.36 0 4.28-3 4.28-5.37v-1.14c-.01-.54-.22-1.07-.61-1.45-.39-.38-.91-.6-1.45-.6h-4.45Z"/><path fill="#FFF" d="M145.85 167.63h-4.45c-.54 0-1.06.22-1.45.6-.39.38-.6.91-.6 1.45v1.14c0 2.37 1.91 5.37 4.27 5.37 2.37 0 4.28-3 4.28-5.37v-1.14c0-.54-.21-1.06-.6-1.45-.38-.38-.91-.6-1.45-.6Z"/><path stroke="#263238" stroke-linejoin="round" d="M141.4 167.63c-.54 0-1.06.22-1.45.6-.39.38-.6.91-.6 1.45v1.14c0 2.37 1.91 5.37 4.27 5.37 2.37 0 4.28-3 4.28-5.37v-1.14c0-.54-.21-1.06-.6-1.45-.38-.38-.91-.6-1.45-.6h-4.45Z"/><path fill="#FFF" d="M156.5 167.63h-4.44c-.54 0-1.07.22-1.45.6-.39.39-.6.91-.6 1.45v1.14c0 2.37 1.91 5.37 4.27 5.37 2.36 0 4.28-3 4.28-5.37v-1.14c0-.54-.22-1.06-.6-1.45-.39-.38-.91-.6-1.46-.6Z"/><path stroke="#263238" stroke-linejoin="round" d="M152.06 167.63c-.54 0-1.07.22-1.45.6-.39.39-.6.91-.6 1.45v1.14c0 2.37 1.91 5.37 4.27 5.37 2.36 0 4.28-3 4.28-5.37v-1.14c0-.54-.22-1.06-.6-1.45-.39-.38-.91-.6-1.46-.6h-4.44Z"/><path fill="#FFF" d="M167.16 167.63h-4.44c-.55 0-1.07.22-1.46.6-.38.39-.6.91-.6 1.45v1.14c0 2.37 1.92 5.37 4.28 5.37 2.37 0 4.27-3 4.27-5.37v-1.14a2.05 2.05 0 0 0-2.05-2.05Z"/><path stroke="#263238" stroke-linejoin="round" d="M162.72 167.63c-.55 0-1.07.22-1.46.6-.38.39-.6.91-.6 1.45v1.14c0 2.37 1.92 5.37 4.28 5.37 2.37 0 4.27-3 4.27-5.37v-1.14a2.05 2.05 0 0 0-2.05-2.05h-4.44Z"/><path fill="#FFF" d="M177.82 167.63h-4.42c-.27 0-.54.05-.79.16-.25.1-.47.25-.67.44a2 2 0 0 0-.44.67c-.1.25-.16.51-.16.78v1.14c0 2.37 1.92 5.37 4.28 5.37 2.37 0 4.28-3 4.28-5.37v-1.14c0-.27-.06-.54-.16-.79-.11-.25-.26-.48-.45-.67-.2-.19-.43-.34-.68-.44-.25-.1-.52-.15-.79-.15Z"/><path stroke="#263238" stroke-linejoin="round" d="M173.4 167.63c-.27 0-.54.05-.79.16-.25.1-.47.25-.67.44a2 2 0 0 0-.44.67c-.1.25-.16.51-.16.78v1.14c0 2.37 1.92 5.37 4.28 5.37 2.37 0 4.28-3 4.28-5.37v-1.14c0-.27-.06-.54-.16-.79-.11-.25-.26-.48-.45-.67-.2-.19-.43-.34-.68-.44-.25-.1-.52-.15-.79-.15h-4.42Z"/><path fill="#FFF" d="M188.48 167.63h-4.45c-.54 0-1.06.22-1.45.6-.39.38-.6.91-.6 1.45v1.14c0 2.37 1.91 5.37 4.27 5.37 2.37 0 4.28-3 4.28-5.37v-1.14c0-.54-.21-1.06-.6-1.45-.38-.38-.91-.6-1.45-.6Z"/><path stroke="#263238" stroke-linejoin="round" d="M184.03 167.63c-.54 0-1.06.22-1.45.6-.39.38-.6.91-.6 1.45v1.14c0 2.37 1.91 5.37 4.27 5.37 2.37 0 4.28-3 4.28-5.37v-1.14c0-.54-.21-1.06-.6-1.45-.38-.38-.91-.6-1.45-.6h-4.45Z"/><path fill="#FFF" d="M199.14 167.63h-4.45c-.54 0-1.07.22-1.45.6-.39.39-.6.91-.6 1.45v1.14c0 2.37 1.91 5.37 4.27 5.37 2.36 0 4.28-3 4.28-5.37v-1.14c0-.54-.22-1.06-.6-1.45-.39-.38-.91-.6-1.45-.6Z"/><path stroke="#263238" stroke-linejoin="round" d="M194.69 167.63c-.54 0-1.07.22-1.45.6-.39.39-.6.91-.6 1.45v1.14c0 2.37 1.91 5.37 4.27 5.37 2.36 0 4.28-3 4.28-5.37v-1.14c0-.54-.22-1.06-.6-1.45-.39-.38-.91-.6-1.45-.6h-4.45Z"/><path fill="#FFF" d="M209.79 167.63h-4.44c-.55 0-1.07.22-1.46.6-.38.39-.6.91-.6 1.45v1.14c0 2.37 1.92 5.37 4.28 5.37 2.37 0 4.27-3 4.27-5.37v-1.14a2.05 2.05 0 0 0-2.05-2.05Z"/><path stroke="#263238" stroke-linejoin="round" d="M205.35 167.63c-.55 0-1.07.22-1.46.6-.38.39-.6.91-.6 1.45v1.14c0 2.37 1.92 5.37 4.28 5.37 2.37 0 4.27-3 4.27-5.37v-1.14a2.05 2.05 0 0 0-2.05-2.05h-4.44Z"/><path fill="#FFF" d="M87.23 156.7h-4.44c-.54 0-1.06.22-1.45.6-.38.39-.6.91-.6 1.45v1.14c0 2.36 1.92 5.37 4.28 5.37 2.37 0 4.27-3 4.27-5.37v-1.14c0-.26-.05-.53-.15-.78-.11-.25-.26-.48-.45-.67a2 2 0 0 0-.67-.44c-.25-.11-.52-.16-.79-.16Z"/><path stroke="#263238" stroke-linejoin="round" d="M82.79 156.7c-.54 0-1.06.22-1.45.6-.38.39-.6.91-.6 1.45v1.14c0 2.36 1.92 5.37 4.28 5.37 2.37 0 4.27-3 4.27-5.37v-1.14c0-.26-.05-.53-.15-.78-.11-.25-.26-.48-.45-.67a2 2 0 0 0-.67-.44c-.25-.11-.52-.16-.79-.16h-4.44Z"/><path fill="#FFF" d="M97.89 156.7h-4.45a2.05 2.05 0 0 0-2.05 2.05v1.14c0 2.36 1.91 5.37 4.27 5.37 2.37 0 4.28-3 4.28-5.37v-1.14c0-.54-.22-1.06-.6-1.45-.39-.38-.91-.6-1.45-.6Z"/><path stroke="#263238" stroke-linejoin="round" d="M93.44 156.7a2.05 2.05 0 0 0-2.05 2.05v1.14c0 2.36 1.91 5.37 4.27 5.37 2.37 0 4.28-3 4.28-5.37v-1.14c0-.54-.22-1.06-.6-1.45-.39-.38-.91-.6-1.45-.6h-4.45Z"/><path fill="#FFF" d="M108.55 156.7h-4.45a2.068 2.068 0 0 0-2.06 2.05v1.14c0 2.36 1.92 5.37 4.28 5.37 2.36 0 4.28-3 4.28-5.37v-1.14c0-.54-.22-1.06-.6-1.45-.39-.38-.91-.6-1.45-.6Z"/><path stroke="#263238" stroke-linejoin="round" d="M104.1 156.7a2.068 2.068 0 0 0-2.06 2.05v1.14c0 2.36 1.92 5.37 4.28 5.37 2.36 0 4.28-3 4.28-5.37v-1.14c0-.54-.22-1.06-.6-1.45-.39-.38-.91-.6-1.45-.6h-4.45Z"/><path fill="#FFF" d="M119.2 156.7h-4.44a2.05 2.05 0 0 0-2.05 2.05v1.14c0 2.36 1.91 5.37 4.27 5.37 2.36 0 4.28-3 4.28-5.37v-1.14c0-.26-.06-.53-.16-.78s-.25-.47-.45-.67a1.96 1.96 0 0 0-.66-.44c-.25-.1-.52-.16-.79-.16Z"/><path stroke="#263238" stroke-linejoin="round" d="M114.76 156.7a2.05 2.05 0 0 0-2.05 2.05v1.14c0 2.36 1.91 5.37 4.27 5.37 2.36 0 4.28-3 4.28-5.37v-1.14c0-.26-.06-.53-.16-.78s-.25-.47-.45-.67a1.96 1.96 0 0 0-.66-.44c-.25-.1-.52-.16-.79-.16h-4.44Z"/><path fill="#FFF" d="M129.86 156.7h-4.46c-.55 0-1.07.22-1.46.6-.38.39-.6.91-.6 1.45v1.14c0 2.36 1.92 5.37 4.28 5.37 2.37 0 4.27-3 4.27-5.37v-1.14c0-.54-.21-1.05-.59-1.44-.38-.38-.9-.6-1.44-.61Z"/><path stroke="#263238" stroke-linejoin="round" d="M125.4 156.7c-.55 0-1.07.22-1.46.6-.38.39-.6.91-.6 1.45v1.14c0 2.36 1.92 5.37 4.28 5.37 2.37 0 4.27-3 4.27-5.37v-1.14c0-.54-.21-1.05-.59-1.44-.38-.38-.9-.6-1.44-.61h-4.46Z"/><path fill="#FFF" d="M140.52 156.7h-4.45c-.54 0-1.07.22-1.45.6-.39.39-.6.91-.6 1.45v1.14c0 2.36 1.91 5.37 4.28 5.37 2.36 0 4.27-3 4.27-5.37v-1.14c0-.54-.22-1.06-.6-1.45-.39-.38-.91-.6-1.45-.6Z"/><path stroke="#263238" stroke-linejoin="round" d="M136.07 156.7c-.54 0-1.07.22-1.45.6-.39.39-.6.91-.6 1.45v1.14c0 2.36 1.91 5.37 4.28 5.37 2.36 0 4.27-3 4.27-5.37v-1.14c0-.54-.22-1.06-.6-1.45-.39-.38-.91-.6-1.45-.6h-4.45Z"/><path fill="#FFF" d="M151.2 156.7h-4.45c-.55 0-1.07.22-1.45.6-.39.39-.61.91-.61 1.45v1.14c0 2.36 1.92 5.37 4.28 5.37 2.36 0 4.28-3 4.28-5.37v-1.14c0-.54-.22-1.06-.6-1.45-.39-.38-.91-.6-1.45-.6Z"/><path stroke="#263238" stroke-linejoin="round" d="M146.75 156.7c-.55 0-1.07.22-1.45.6-.39.39-.61.91-.61 1.45v1.14c0 2.36 1.92 5.37 4.28 5.37 2.36 0 4.28-3 4.28-5.37v-1.14c0-.54-.22-1.06-.6-1.45-.39-.38-.91-.6-1.45-.6h-4.45Z"/><path fill="#FFF" d="M161.83 156.7h-4.44a2.05 2.05 0 0 0-2.05 2.05v1.14c0 2.36 1.91 5.37 4.27 5.37 2.36 0 4.28-3 4.28-5.37v-1.14c0-.54-.22-1.06-.61-1.45-.38-.38-.9-.6-1.45-.6Z"/><path stroke="#263238" stroke-linejoin="round" d="M157.39 156.7a2.05 2.05 0 0 0-2.05 2.05v1.14c0 2.36 1.91 5.37 4.27 5.37 2.36 0 4.28-3 4.28-5.37v-1.14c0-.54-.22-1.06-.61-1.45-.38-.38-.9-.6-1.45-.6h-4.44Z"/><path fill="#FFF" d="M172.49 156.7h-4.45c-.54 0-1.06.22-1.45.6-.38.39-.6.91-.6 1.45v1.14c0 2.36 1.92 5.37 4.28 5.37 2.36 0 4.27-3 4.27-5.37v-1.14c0-.54-.21-1.06-.6-1.45-.38-.38-.91-.6-1.45-.6Z"/><path stroke="#263238" stroke-linejoin="round" d="M168.04 156.7c-.54 0-1.06.22-1.45.6-.38.39-.6.91-.6 1.45v1.14c0 2.36 1.92 5.37 4.28 5.37 2.36 0 4.27-3 4.27-5.37v-1.14c0-.54-.21-1.06-.6-1.45-.38-.38-.91-.6-1.45-.6h-4.45Z"/><path fill="#FFF" d="M183.15 156.7h-4.45c-.54 0-1.07.22-1.45.6-.39.39-.6.91-.6 1.45v1.14c0 2.36 1.91 5.37 4.28 5.37 2.36 0 4.27-3 4.27-5.37v-1.14c0-.54-.22-1.06-.6-1.45-.39-.38-.91-.6-1.45-.6Z"/><path stroke="#263238" stroke-linejoin="round" d="M178.7 156.7c-.54 0-1.07.22-1.45.6-.39.39-.6.91-.6 1.45v1.14c0 2.36 1.91 5.37 4.28 5.37 2.36 0 4.27-3 4.27-5.37v-1.14c0-.54-.22-1.06-.6-1.45-.39-.38-.91-.6-1.45-.6h-4.45Z"/><path fill="#FFF" d="M193.8 156.7h-4.45c-.55 0-1.07.22-1.45.6-.39.39-.61.91-.61 1.45v1.14c0 2.36 1.92 5.37 4.28 5.37 2.36 0 4.28-3 4.28-5.37v-1.14c0-.54-.22-1.06-.6-1.45-.39-.38-.91-.6-1.45-.6Z"/><path stroke="#263238" stroke-linejoin="round" d="M189.35 156.7c-.55 0-1.07.22-1.45.6-.39.39-.61.91-.61 1.45v1.14c0 2.36 1.92 5.37 4.28 5.37 2.36 0 4.28-3 4.28-5.37v-1.14c0-.54-.22-1.06-.6-1.45-.39-.38-.91-.6-1.45-.6h-4.45Z"/><path fill="#FFF" d="M204.46 156.7h-4.44c-.54.01-1.06.23-1.43.61-.38.39-.59.91-.59 1.44v1.14c0 2.36 1.91 5.37 4.27 5.37 2.36 0 4.28-3 4.28-5.37v-1.14c0-.27-.06-.54-.16-.79-.11-.25-.26-.48-.46-.67a2 2 0 0 0-.67-.44c-.25-.1-.52-.15-.8-.15Z"/><path stroke="#263238" stroke-linejoin="round" d="M200.02 156.7c-.54.01-1.06.23-1.43.61-.38.39-.59.91-.59 1.44v1.14c0 2.36 1.91 5.37 4.27 5.37 2.36 0 4.28-3 4.28-5.37v-1.14c0-.27-.06-.54-.16-.79-.11-.25-.26-.48-.46-.67a2 2 0 0 0-.67-.44c-.25-.1-.52-.15-.8-.15h-4.44Z"/><path fill="#FFF" d="M215.12 156.7h-4.45c-.54 0-1.06.22-1.45.6-.38.39-.6.91-.6 1.45v1.14c0 2.36 1.92 5.37 4.28 5.37 2.36 0 4.27-3 4.27-5.37v-1.14c0-.54-.21-1.06-.6-1.45-.38-.38-.91-.6-1.45-.6Z"/><path stroke="#263238" stroke-linejoin="round" d="M210.67 156.7c-.54 0-1.06.22-1.45.6-.38.39-.6.91-.6 1.45v1.14c0 2.36 1.92 5.37 4.28 5.37 2.36 0 4.27-3 4.27-5.37v-1.14c0-.54-.21-1.06-.6-1.45-.38-.38-.91-.6-1.45-.6h-4.45Z"/><path fill="#FFF" d="M189.66 179.01h-81.41c-1.07 0-1.93.86-1.93 1.92v5.85c0 1.06.86 1.92 1.93 1.92h81.41c1.06 0 1.92-.86 1.92-1.92v-5.85c0-1.06-.86-1.92-1.92-1.92Z"/><path stroke="#263238" stroke-linejoin="round" d="M189.66 179.01c1.06 0 1.92.86 1.92 1.92v5.85c0 1.06-.86 1.92-1.92 1.92h-81.41c-1.07 0-1.93-.86-1.93-1.92v-5.85c0-1.06.86-1.92 1.93-1.92h81.41Z"/><path fill="#FFF" d="M200.56 179.58h-4.45a2.05 2.05 0 0 0-2.05 2.05v1.14c0 2.36 1.91 5.36 4.28 5.36 2.36 0 4.27-3 4.27-5.36v-1.14a2.05 2.05 0 0 0-2.05-2.05Z"/><path stroke="#263238" stroke-linejoin="round" d="M196.11 179.58a2.05 2.05 0 0 0-2.05 2.05v1.14c0 2.36 1.91 5.36 4.28 5.36 2.36 0 4.27-3 4.27-5.36v-1.14a2.05 2.05 0 0 0-2.05-2.05h-4.45Z"/><path fill="#FFF" d="M101.79 179.58h-4.45a2.05 2.05 0 0 0-2.05 2.05v1.14c0 2.36 1.92 5.36 4.28 5.36 2.37 0 4.28-3 4.28-5.36v-1.14c0-.55-.22-1.07-.61-1.45-.38-.39-.9-.6-1.45-.6Z"/><path stroke="#263238" stroke-linejoin="round" d="M97.34 179.58a2.05 2.05 0 0 0-2.05 2.05v1.14c0 2.36 1.92 5.36 4.28 5.36 2.37 0 4.28-3 4.28-5.36v-1.14c0-.55-.22-1.07-.61-1.45-.38-.39-.9-.6-1.45-.6h-4.45Z"/><path fill="#000" d="M92.8 148.3c.22 0 .43.02.65.06V147.1a.93.93 0 0 0-.27-.63.877.877 0 0 0-.63-.26h-4.44c-.24 0-.46.1-.63.26-.17.17-.26.39-.26.63v1.14c0 1.64 1.2 3.7 2.61 4.11-.43-1.82.55-4.05 2.97-4.05ZM103.7 148c.14-.01.27-.01.41 0v-.93c0-.23-.1-.46-.26-.62a.894.894 0 0 0-.63-.26h-4.45c-.23 0-.46.09-.63.26-.16.16-.26.39-.26.62v1.14c0 1.8 1.42 4.05 3 4.2-.73-1.86.23-4.41 2.82-4.41ZM114.67 147.84h.09v-.75c0-.23-.09-.46-.26-.63a.896.896 0 0 0-.62-.26h-4.45c-.24 0-.46.1-.63.26-.17.17-.26.4-.26.63v1.14c0 1.83 1.51 4.2 3.11 4.2.08.01.16.01.23 0-.8-1.9.13-4.59 2.79-4.59ZM124.65 147.53c.25 0 .5.02.75.07v-.53c0-.23-.1-.46-.26-.62a.894.894 0 0 0-.63-.26h-4.45c-.23 0-.46.09-.63.26-.16.16-.26.39-.26.62v1.14c0 1.72 1.32 3.9 2.81 4.2-1.02-1.88-.14-4.88 2.67-4.88ZM135.85 147.53h.23v-.44c0-.24-.1-.47-.26-.63a.894.894 0 0 0-.63-.26h-4.45c-.23 0-.46.09-.62.26-.17.17-.27.39-.27.63v1.14c0 1.83 1.52 4.19 3.12 4.19.08.01.16.01.24 0-1.05-1.89-.16-4.89 2.64-4.89ZM146.6 147.6h.14v-.53c0-.23-.1-.46-.26-.62a.894.894 0 0 0-.63-.26h-4.45c-.23 0-.46.09-.63.26-.16.16-.26.39-.26.62v1.14c0 1.83 1.51 4.2 3.11 4.2.1.01.2.01.3 0-.99-1.89-.09-4.81 2.68-4.81ZM156.88 147.53c.17.01.34.02.51.04v-.47c0-.24-.09-.46-.26-.63a.86.86 0 0 0-.63-.26h-4.44c-.24 0-.46.09-.63.26a.92.92 0 0 0-.26.63v1.14c0 1.8 1.49 4.16 3.08 4.2-1.06-1.89-.19-4.91 2.63-4.91ZM168.05 147.69v-.6c0-.23-.09-.46-.26-.63a.92.92 0 0 0-.63-.26h-4.44c-.24 0-.47.1-.63.26-.17.17-.26.4-.26.63v1.14c0 1.83 1.5 4.2 3.11 4.2.16 0 .32-.03.48-.08-.87-1.85.01-4.57 2.63-4.66ZM177.84 147.46c.29 0 .59.04.87.11v-.47c0-.24-.1-.46-.26-.63a.894.894 0 0 0-.63-.26h-4.42c-.24 0-.46.1-.63.26-.17.17-.26.39-.26.63v1.14c0 1.69 1.28 3.83 2.74 4.15-1.12-1.88-.25-4.93 2.59-4.93ZM188.73 147.46c.21 0 .43.02.64.06v-.42c0-.24-.1-.46-.26-.63a.939.939 0 0 0-.63-.26h-4.45c-.23 0-.46.09-.63.26a.92.92 0 0 0-.26.63v1.14c0 1.8 1.44 4.08 3 4.2-1.13-1.89-.26-4.98 2.59-4.98ZM199.56 147.76c.15.01.31.02.46.04v-.7c0-.24-.09-.46-.26-.63a.854.854 0 0 0-.62-.26h-4.45c-.12 0-.23.02-.34.07-.11.04-.21.11-.29.19-.08.08-.15.18-.19.29-.05.11-.07.22-.07.34v1.14c0 1.8 1.44 4.08 3 4.2-.87-1.9.05-4.68 2.76-4.68ZM210.68 147.63v-.53c0-.24-.09-.46-.26-.63a.877.877 0 0 0-.63-.26h-4.44a.86.86 0 0 0-.63.26c-.17.17-.26.39-.26.63v1.14c0 1.83 1.5 4.2 3.11 4.2.23-.01.46-.05.67-.15-.85-1.81-.04-4.46 2.44-4.66ZM93.11 169.8c.11-.01.23-.01.34 0v-.13c0-.24-.1-.46-.26-.63a.894.894 0 0 0-.63-.26h-4.45c-.23 0-.46.1-.63.26a.92.92 0 0 0-.26.63v1.14c0 1.83 1.52 4.2 3.12 4.2.11 0 .22-.02.33-.04-1.35-1.82-.53-5.17 2.44-5.17ZM103.55 169.8c.19 0 .37.01.56.04v-.15c0-.24-.1-.46-.26-.63a.939.939 0 0 0-.63-.26h-4.45c-.23 0-.46.09-.63.26a.92.92 0 0 0-.26.63v1.14c0 1.83 1.51 4.2 3.11 4.2h.14c-1.38-1.85-.57-5.23 2.42-5.23ZM114.14 169.95c.2 0 .4.01.6.05v-.32c0-.12-.02-.23-.07-.34a.91.91 0 0 0-.19-.29.972.972 0 0 0-.29-.19.983.983 0 0 0-.34-.07h-4.44a.904.904 0 0 0-.9.89v1.14c0 1.8 1.49 4.16 3.08 4.2-1.19-1.86-.36-5.07 2.55-5.07ZM124.96 170.02c.15 0 .31.01.46.03v-.37c0-.12-.02-.23-.07-.34a.91.91 0 0 0-.19-.29.972.972 0 0 0-.29-.19.983.983 0 0 0-.34-.07h-4.44a.937.937 0 0 0-.63.26.91.91 0 0 0-.19.29c-.05.11-.07.22-.07.34v1.14c0 1.83 1.5 4.2 3.11 4.2h.07c-1.15-1.88-.29-5 2.58-5ZM135.4 169.8c.23 0 .46.02.68.06v-.17c0-.24-.1-.46-.26-.63a.894.894 0 0 0-.63-.26h-4.45c-.23 0-.46.1-.62.26-.17.17-.27.39-.27.63v1.14c0 1.83 1.52 4.2 3.12 4.2-1.37-1.84-.57-5.23 2.43-5.23ZM146.22 169.87c.17 0 .34.01.52.04v-.23c0-.23-.1-.46-.26-.62a.95.95 0 0 0-.63-.27h-4.45c-.23 0-.46.1-.63.26-.16.17-.26.4-.26.63v1.14c0 1.83 1.51 4.2 3.11 4.2h.12c-1.3-1.86-.47-5.15 2.48-5.15ZM157.27 170.1h.12v-.42a.86.86 0 0 0-.26-.63.86.86 0 0 0-.63-.26h-4.44c-.24 0-.46.09-.63.26-.16.16-.26.39-.26.63v1.14c0 1.83 1.51 4.2 3.11 4.2.12-.01.23-.02.35-.05-1.03-1.87-.18-4.87 2.64-4.87ZM168 169.87h.03v-.19c0-.12-.02-.23-.07-.34a.91.91 0 0 0-.19-.29.937.937 0 0 0-.63-.26h-4.42a.937.937 0 0 0-.63.26c-.09.09-.15.18-.2.29-.04.11-.06.22-.06.34v1.14c0 1.83 1.5 4.2 3.11 4.2.19 0 .37-.03.54-.09-1.22-1.86-.37-5.06 2.52-5.06ZM178.37 169.64h.34a.893.893 0 0 0-.28-.61.862.862 0 0 0-.61-.25h-4.42c-.24 0-.46.1-.63.26-.17.17-.26.39-.26.63v1.14c0 1.83 1.51 4.2 3.11 4.2.15 0 .29-.03.43-.07-1.5-1.78-.72-5.3 2.32-5.3ZM189.35 169.8v-.11c0-.24-.1-.46-.26-.63a.92.92 0 0 0-.63-.26h-4.44a.86.86 0 0 0-.63.26c-.17.17-.27.39-.27.63v1.14c0 1.83 1.51 4.2 3.12 4.2.2-.01.4-.04.6-.11-1.26-1.86-.43-5.12 2.51-5.12ZM199.8 169.8h.24v-.12a.937.937 0 0 0-.26-.63.91.91 0 0 0-.29-.19.829.829 0 0 0-.34-.07h-4.45c-.23 0-.46.09-.63.26-.16.16-.26.39-.26.63v1.14c0 1.83 1.51 4.2 3.11 4.2.14-.01.28-.03.42-.06-1.34-1.84-.51-5.16 2.46-5.16ZM210.3 170.25h.38v-.6c0-.23-.09-.46-.26-.63a.92.92 0 0 0-.63-.26h-4.44c-.24 0-.47.1-.63.26-.17.17-.26.4-.26.63v1.14c0 1.83 1.5 4.2 3.11 4.2-.93-1.86-.03-4.74 2.73-4.74ZM88.05 159.05h.07v-.3c0-.23-.09-.46-.26-.62a.877.877 0 0 0-.63-.26H82.8a.86.86 0 0 0-.63.26c-.17.16-.26.39-.26.62v1.14c0 1.84 1.5 4.21 3.11 4.21.16-.01.31-.03.46-.08-1.15-1.87-.28-4.97 2.57-4.97ZM98.48 159.05h.3v-.31c0-.23-.1-.46-.26-.62a.894.894 0 0 0-.63-.26h-4.45c-.24 0-.46.09-.63.26-.16.16-.26.39-.26.62v1.14c0 1.83 1.51 4.2 3.11 4.2.09.01.18.01.27 0-1.18-1.87-.33-5.03 2.55-5.03ZM109.38 159.05h.06v-.3a.925.925 0 0 0-.27-.62.854.854 0 0 0-.62-.26h-4.45c-.12 0-.23.02-.34.06-.11.05-.21.11-.3.19a.91.91 0 0 0-.19.29c-.05.11-.07.23-.07.34v1.14c0 1.84 1.51 4.21 3.11 4.21.16-.01.32-.03.47-.08-1.12-1.87-.26-4.97 2.6-4.97ZM119.82 159h.27v-.23c0-.24-.09-.46-.26-.63a.877.877 0 0 0-.63-.26h-4.44c-.24 0-.46.09-.63.26-.17.17-.26.39-.26.63v1.14c0 1.83 1.51 4.2 3.11 4.2.11 0 .21-.02.32-.04-1.24-1.86-.4-5.07 2.52-5.07ZM130.2 159.05c.19 0 .38.02.57.05v-.35c0-.23-.1-.46-.27-.62a.854.854 0 0 0-.62-.26h-4.48a.86.86 0 0 0-.63.26c-.17.16-.26.39-.26.62v1.14c0 1.84 1.5 4.21 3.11 4.21-1.19-1.87-.34-5.05 2.58-5.05ZM140.92 158.67c.16 0 .32.01.48.03a.828.828 0 0 0-.28-.59.847.847 0 0 0-.6-.24h-4.45c-.24 0-.46.09-.63.26-.16.17-.26.39-.26.62v1.14c0 1.84 1.51 4.21 3.12 4.21.11-.01.23-.02.34-.05-1.56-1.78-.8-5.38 2.28-5.38ZM151.66 159.12h.41v-.39a.906.906 0 0 0-.27-.62.906.906 0 0 0-.62-.27h-4.45c-.23 0-.46.1-.63.26-.17.17-.26.4-.26.63v1.14c0 1.83 1.51 4.2 3.11 4.2h.12c-1.12-1.86-.27-4.95 2.59-4.95ZM162.72 158.75c0-.23-.09-.46-.26-.62a.877.877 0 0 0-.63-.26h-4.44c-.12 0-.23.02-.34.07-.11.04-.21.11-.29.19-.08.08-.15.18-.19.29-.05.1-.07.22-.07.33v1.14c0 1.84 1.5 4.21 3.11 4.21.32-.01.63-.1.91-.26-1.21-1.78-.48-4.84 2.2-5.09ZM173.4 159v-.23c0-.24-.1-.46-.26-.63a.894.894 0 0 0-.63-.26h-4.45c-.23 0-.46.09-.63.26a.92.92 0 0 0-.26.63v1.14c0 1.83 1.51 4.2 3.12 4.2.26-.01.51-.07.74-.18-1.1-1.83-.31-4.79 2.37-4.93ZM183.67 158.82h.37v-.08c0-.24-.1-.46-.26-.63a.894.894 0 0 0-.63-.26h-4.45c-.24 0-.46.1-.63.26a.92.92 0 0 0-.26.63v1.14c0 1.83 1.51 4.2 3.12 4.2.11 0 .22-.02.33-.04-1.39-1.81-.59-5.22 2.41-5.22ZM194.7 159.21v-.46a.925.925 0 0 0-.27-.62.854.854 0 0 0-.62-.26h-4.45c-.23 0-.46.09-.63.26-.17.16-.26.39-.26.62v1.14c0 1.84 1.51 4.21 3.11 4.21.18-.01.36-.04.54-.09-.98-1.87-.12-4.73 2.58-4.8ZM204.85 158.89c.17 0 .33.02.5.04v-.18c0-.23-.09-.46-.26-.62a.877.877 0 0 0-.63-.26h-4.44c-.12 0-.23.02-.34.07-.11.04-.21.11-.29.19-.08.08-.15.18-.19.29-.05.1-.07.22-.07.33v1.14c0 1.84 1.51 4.21 3.11 4.21h.17c-1.35-1.86-.53-5.21 2.44-5.21ZM215.59 159.36c.14-.01.28-.01.42 0v-.61c0-.23-.1-.46-.26-.62a.894.894 0 0 0-.63-.26h-4.45c-.23 0-.46.09-.62.26-.17.16-.26.39-.26.62v1.14c0 1.81 1.49 4.21 3.09 4.21-.93-1.89-.03-4.74 2.71-4.74Z" opacity=".2"/><path fill="#000" fill-rule="evenodd" d="M190.42 180.9v5.91c0 .4-.33.73-.73.73h-81.48c-.4 0-.72-.33-.72-.73v-5.91c0-.41.32-.73.72-.73h81.48c.4 0 .73.32.73.73Z" opacity=".2"/><path fill="#000" d="M201.45 182.22v-.6c0-.12-.03-.23-.07-.34-.05-.11-.11-.2-.19-.29-.09-.08-.18-.14-.29-.19-.11-.04-.23-.07-.34-.07h-4.45c-.11 0-.23.03-.34.07-.11.05-.2.11-.29.19-.08.09-.14.18-.19.29-.04.11-.07.22-.07.34v1.14c0 1.83 1.51 4.2 3.12 4.2.13 0 .26-.02.39-.05-.88-1.87.02-4.67 2.72-4.69ZM102.16 181.84c.18 0 .35.01.53.04v-.25a.93.93 0 0 0-.27-.63.877.877 0 0 0-.63-.26h-4.44c-.24 0-.46.1-.63.26-.17.17-.26.39-.26.63v1.14c0 1.83 1.51 4.2 3.11 4.2h.1c-1.28-1.86-.44-5.13 2.49-5.13ZM75.41 56.7h147.08a3.807 3.807 0 0 1 3.81 3.81v33.6H71.6v-33.6c0-1.02.41-1.98 1.12-2.7.72-.71 1.68-1.11 2.69-1.11Z" opacity=".2"/><path fill="#FFF" d="M210.46 63.03h-123c-1.02-8.52-2.83-16.92-5.4-25.11h133.83c-2.61 8.18-4.43 16.59-5.43 25.11Z"/><path fill="#000" d="M211.68 54.94c-.9 4.88-1.2 8.09-1.2 8.09h-123s-.32-3.15-1.23-8.09h125.43Z" opacity=".2"/><path stroke="#263238" stroke-linejoin="round" d="M87.46 63.03c-1.02-8.52-2.83-16.92-5.4-25.11h133.83c-2.61 8.18-4.43 16.59-5.43 25.11h-123Z"/><path fill="#263238" fill-rule="evenodd" d="M88.12 84.18h120.67v49.64H88.12V84.18Z"/><g opacity=".4"><path fill="#FFF" d="m145.45 129.43.63.03c.8-12.38 1.6-24.78 2.4-37.2-1.02 12.42-2.03 24.81-3.03 37.17ZM143.39 129.27l.64.06c1.39-12.3 2.78-24.66 4.16-37.07-1.6 12.42-3.19 24.76-4.8 37.01ZM141.4 129.04c.21 0 .42.05.63.08 1.97-12.17 3.95-24.46 5.94-36.86-2.2 12.41-4.39 24.68-6.57 36.78ZM139.38 128.74l.64.1c2.55-12 5.12-24.2 7.71-36.6-2.8 12.41-5.58 24.58-8.35 36.5ZM137.36 128.36l.65.13c3.12-11.77 6.28-23.85 9.48-36.24-3.4 12.39-6.78 24.43-10.13 36.11ZM135.36 127.9l.64.17c3.68-11.51 7.46-23.45 11.25-35.82-4.01 12.37-8.01 24.25-11.89 35.65ZM133.36 127.36l.65.2c4.2-11.19 8.6-22.96 13-35.33-4.62 12.37-9.23 24.08-13.65 35.13ZM131.39 126.75l.66.21c4.75-10.8 9.73-22.38 14.74-34.73-5.26 12.35-10.47 23.85-15.4 34.52ZM129.4 126.05l.66.24c5.26-10.39 10.85-21.74 16.47-34.07-5.86 12.33-11.68 23.58-17.13 33.83ZM127.46 125.26l.66.27c5.74-9.92 11.93-21 18.17-33.33-6.49 12.31-12.91 23.33-18.83 33.06ZM125.53 124.37l.66.32c6.2-9.39 12.99-20.22 19.86-32.5-7.11 12.28-14.14 23.01-20.52 32.18ZM123.64 123.39l.66.36c6.6-8.81 14.02-19.33 21.51-31.58a360.508 360.508 0 0 1-22.17 31.22Z" opacity=".4"/><path fill="#FFF" d="M121.8 122.31c.21.13.44.26.66.39a313.2 313.2 0 0 0 23.14-30.54 286.861 286.861 0 0 1-23.8 30.15Z" opacity=".4"/><path fill="#FFF" d="m119.95 121.11.66.45c8.98-9.15 17.25-18.98 24.72-29.4a228.266 228.266 0 0 1-25.38 28.95Z" opacity=".4"/><path fill="#FFF" d="M145.09 92.13c-9.65 12.09-19.09 21.31-26.89 27.68l.64.5a202.37 202.37 0 0 0 26.25-28.18Z" opacity=".4"/><path fill="#FFF" d="M144.85 92.11c-10.28 12-20.33 20.77-28.36 26.29l.63.55c7.93-5.87 17.72-14.81 27.73-26.84Z" opacity=".4"/><path fill="#FFF" d="M144.6 92.09c-10.91 11.91-21.53 20.17-29.74 24.77.2.21.4.41.6.6 8.14-4.98 18.52-13.43 29.14-25.37Z" opacity=".4"/><path fill="#FFF" d="M144.37 92.07c-11.49 11.79-22.66 19.5-31.01 23.16l.6.65c8.26-4.06 19.18-11.99 30.41-23.81Z" opacity=".4"/><path fill="#FFF" d="M111.98 113.47c.17.24.35.48.53.72 8.37-3.09 19.8-10.47 31.63-22.14-12.07 11.62-23.74 18.75-32.16 21.42Z" opacity=".4"/><path fill="#FFF" d="M110.76 111.65c.15.25.31.5.48.76 8.4-2.12 20.32-8.9 32.66-20.4-12.58 11.43-24.71 17.97-33.14 19.64Z" opacity=".4"/><path fill="#FFF" d="M109.71 109.8c.13.26.27.52.41.78 8.4-1.14 20.74-7.32 33.54-18.57-13.02 11.14-25.55 17.07-33.95 17.79Z" opacity=".4"/><path fill="#FFF" d="M108.86 107.9c.11.26.22.53.34.8 8.35-.21 21-5.78 34.19-16.73-13.34 10.84-26.19 16.14-34.53 15.93ZM147.48 129.51h.63c.19-12.4.39-24.81.6-37.25-.42 12.43-.83 24.84-1.23 37.25ZM149.51 129.52h.63c-.39-12.4-.79-24.81-1.19-37.24l.56 37.24ZM151.54 129.47h.63c-1-12.36-2-24.76-3-37.2.79 12.42 1.58 24.82 2.37 37.2ZM153.6 129.34l.63-.04c-1.6-12.27-3.2-24.62-4.8-37.04 1.38 12.42 2.77 24.78 4.17 37.08ZM155.59 129.15l.64-.08c-2.18-12.12-4.38-24.39-6.6-36.81 2 12.42 3.99 24.72 5.96 36.89ZM157.62 128.88l.64-.1c-2.76-11.93-5.55-24.11-8.37-36.52 2.59 12.41 5.17 24.62 7.73 36.62ZM159.63 128.54l.64-.12c-3.33-11.7-6.71-23.76-10.14-36.17 3.19 12.41 6.36 24.51 9.5 36.29ZM161.64 128.12l.65-.15c-3.89-11.4-7.9-23.32-11.92-35.72 3.8 12.4 7.56 24.36 11.27 35.87ZM163.64 127.63l.65-.19c-4.43-11.08-9.04-22.8-13.68-35.21 4.41 12.4 8.8 24.17 13.03 35.4ZM165.63 127.05l.66-.22c-4.97-10.69-10.2-22.2-15.44-34.6 5.03 12.38 10.02 23.97 14.78 34.82ZM167.6 126.38l.66-.25c-5.46-10.25-11.29-21.55-17.17-33.91 5.64 12.36 11.24 23.74 16.51 34.16ZM169.56 125.63c.22-.1.45-.18.66-.28-5.94-9.75-12.38-20.8-18.89-33.15 6.27 12.35 12.47 23.48 18.23 33.43ZM171.49 124.8l.67-.32c-6.39-9.2-13.45-19.96-20.59-32.28 6.89 12.31 13.71 23.18 19.92 32.6ZM173.4 123.85c.22-.11.44-.24.66-.36a361.487 361.487 0 0 1-22.26-31.32c7.53 12.3 15 22.86 21.6 31.68ZM175.28 122.82l.67-.4a286.737 286.737 0 0 1-23.9-30.26 312.858 312.858 0 0 0 23.23 30.66Z" opacity=".4"/><path fill="#FFF" d="M152.29 92.14a249.21 249.21 0 0 0 24.83 29.54l.67-.45a228.186 228.186 0 0 1-25.5-29.09Z" opacity=".4"/><path fill="#FFF" d="M152.53 92.13a201.419 201.419 0 0 0 26.4 28.29c.22-.16.43-.33.65-.5-7.83-6.37-17.34-15.63-27.05-27.79Z" opacity=".4"/><path fill="#FFF" d="M152.77 92.11c10.08 12.1 19.93 21.08 27.88 26.94.22-.18.44-.36.65-.54-8.07-5.51-18.18-14.31-28.53-26.4Z" opacity=".4"/><path fill="#FFF" d="M153 92.09c10.71 12 21.15 20.51 29.31 25.49.21-.2.4-.41.6-.6-8.22-4.6-18.92-12.89-29.91-24.89Z" opacity=".4"/><path fill="#FFF" d="M153.25 92.07c11.32 11.91 22.32 19.87 30.6 23.91l.6-.66c-8.35-3.62-19.61-11.36-31.2-23.25Z" opacity=".4"/><path fill="#FFF" d="M185.33 114.27c.19-.24.36-.48.54-.72-8.43-2.61-20.21-9.77-32.4-21.5 11.93 11.78 23.47 19.17 31.86 22.22Z" opacity=".4"/><path fill="#FFF" d="m186.63 112.47.49-.77c-8.44-1.59-20.69-8.14-33.4-19.68 12.48 11.6 24.48 18.41 32.91 20.45Z" opacity=".4"/><path fill="#FFF" d="M187.8 110.6c.14-.26.28-.53.42-.8-8.4-.6-21.07-6.53-34.2-17.8 12.88 11.36 25.38 17.56 33.78 18.6Z" opacity=".4"/><path fill="#FFF" d="M154.2 91.97c13.34 11.08 26.16 16.65 34.5 16.73.12-.27.23-.54.34-.81-8.32.35-21.31-4.96-34.84-15.92Z" opacity=".4"/></g><path fill="#000" d="M131.39 93.16c-2.27 5.83.19 22.8 16.6 22.8s22.37-11.92 21.7-19.29l21.91-3.53s6.71 18.55-7.54 31.53c-14.26 12.98-63.67 12.14-74.12 2.27-10.45-9.86-4.65-29.35-4.65-29.35l26.1-4.43Z" opacity=".2"/><path fill="#999" d="M227.54 67.99V63.9c0-.15.05-.3.14-.42.09-.12.21-.21.36-.26l3-.93V58.2a1.846 1.846 0 0 1 1.85-1.85h3.6c.17-.01.34.06.47.18.13.12.21.29.22.47v1.32c0 .18-.07.35-.2.48-.12.12-.3.2-.48.2h-4.57v4a.79.79 0 0 1-.1.34c-.06.11-.14.2-.25.26l-2.55 1.55V68l-1.49-.01Z"/><path stroke="#263238" stroke-linejoin="round" d="M227.54 63.9c0-.15.05-.3.14-.42.09-.12.21-.21.36-.26l3-.93V58.2a1.846 1.846 0 0 1 1.85-1.85h3.6c.17-.01.34.06.47.18.13.12.21.29.22.47v1.32c0 .18-.07.35-.2.48-.12.12-.3.2-.48.2h-4.57v4a.79.79 0 0 1-.1.34c-.06.11-.14.2-.25.26l-2.55 1.55V68l-1.49-.01V63.9Z"/><path fill="#263238" fill-rule="evenodd" d="M227.54 67.99h3.95V79.8h-3.95V67.99Z"/><path fill="#757575" fill-rule="evenodd" d="M231.49 66.99h4.94V80.8h-4.94V66.99Z"/><path fill="#000" fill-rule="evenodd" d="M231.49 75.4h4.92v5.4h-4.92v-5.4Z" opacity=".2"/><path stroke="#263238" stroke-linejoin="round" d="M236.43 66.99V80.8h-4.94V66.99h4.94Z"/><path fill="#263238" fill-rule="evenodd" d="M70.36 79.8h-3.94V67.99h3.94V79.8Z"/><path fill="#757575" fill-rule="evenodd" d="M66.41 80.8h-4.93V66.99h4.93V80.8Z"/><path fill="#000" fill-rule="evenodd" d="M61.48 75.4h4.94v5.27h-4.94V75.4Z" opacity=".2"/><path stroke="#263238" stroke-linejoin="round" d="M61.48 80.8V66.99h4.93V80.8h-4.93Z"/><path fill="#FFF" d="M69.77 74.6c.36-.94.41-1.96.16-2.93-.26-.97-.81-1.83-1.58-2.47l-2.9-2.4a1.758 1.758 0 0 0-1.35-.4c-.24.03-.47.11-.68.23-.2.12-.39.29-.53.48L51.38 82.99c-.22.3-.34.66-.34 1.03v17.06c0 .23.05.45.14.66.09.22.21.41.38.57.16.16.35.29.57.37.21.09.44.13.66.13.46 0 .9-.19 1.23-.51.32-.32.5-.76.5-1.22V87.22c0-.34.11-.67.31-.95l8.61-12a.963.963 0 0 1 .65-.39c.12-.01.26 0 .38.04.12.03.24.1.34.18l1.58 1.35c.39.33.89.51 1.4.51.43 0 .85-.13 1.2-.38.35-.24.62-.58.78-.98Z"/><path stroke="#263238" stroke-linejoin="round" d="M69.93 71.67c-.26-.97-.81-1.83-1.58-2.47l-2.9-2.4a1.758 1.758 0 0 0-1.35-.4c-.24.03-.47.11-.68.23-.2.12-.39.29-.53.48L51.38 82.99c-.22.3-.34.66-.34 1.03v17.06c0 .23.05.45.14.66.09.22.21.41.38.57.16.16.35.29.57.37.21.09.44.13.66.13.46 0 .9-.19 1.23-.51.32-.32.5-.76.5-1.22V87.22c0-.34.11-.67.31-.95l8.61-12a.963.963 0 0 1 .65-.39c.12-.01.26 0 .38.04.12.03.24.1.34.18l1.58 1.35c.39.33.89.51 1.4.51.43 0 .85-.13 1.2-.38.35-.24.62-.58.78-.98.36-.94.41-1.96.16-2.93Z"/><path fill="#999" d="M67.39 73.05a.826.826 0 1 0-.82-.83c0 .46.37.83.82.83Z"/><path stroke="#263238" stroke-linejoin="round" d="M67.39 73.05a.826.826 0 0 1 0-1.65.826.826 0 1 1 0 1.65Z"/><path fill="#263238" fill-rule="evenodd" d="M74.03 62.29h149.85V85.5H74.03V62.29Z"/><path fill="#FFF" fill-rule="evenodd" d="M76.14 64.03h145.57c.46 0 .83.37.83.83v3.76c0 .45-.37.83-.83.83H76.14c-.46 0-.83-.38-.83-.83v-3.76c0-.46.37-.83.83-.83Z" opacity=".2"/><path fill="#FFF" d="M210.46 90.16h-123a64.597 64.597 0 0 1-5.4-25.11h133.83c0 11.63-5.43 25.11-5.43 25.11Z"/><g opacity=".7"><path stroke="#263238" stroke-linecap="round" stroke-linejoin="round" d="M97.41 88.28s2.7-.14 4.2-1.05c1.51-.91 1.4.82 2.26.93.87.11 2.91-.6 3.99-.6s.26.66 1.47.6c1.22-.06.57.06 1.2-.06l5.22-.87s2.64-.51 3.18-.25c.53.26 1.23 1.53 2.01 1.2.78-.33.37-.6 1.55-.6.72 0 1.45.11 2.14.31 0 0 .11-.31.65-.31h.97s2.04.54 2.37.54c.32 0 2.74-.54 2.82-.54.09-.01 2.4-.6 2.4-.6.49.51 1.12.88 1.8 1.07.88.11 1.8-.12 2.46.17.66.29 2.84-.12 2.84-.12.51 0 1.03.04 1.54.12.68.15 1.38.13 2.04-.06a7.8 7.8 0 0 1 3.72-.06c1.95.35 3.74-.53 4.57-.54.83-.01 4.14.37 5.28.37 1.14 0 4.16.4 6.26.17 2.1-.23 3.47.29 4.88.29 1.41 0 2.92-.06 3.24-.06.33 0 1.89-1.02 4.12-.77 2.23.25.24-.31 1.62 0 1.37.31 2.46.6 3.04.66.47.03.93.01 1.4-.06l2.4-.17h11.96M94.92 83.65s7.41 0 8.75-.12c1.34-.12 2.05-.81 2.77-.81.71 0 4.32.69 4.32.69.1-.23.27-.41.49-.53.21-.13.46-.18.71-.16.97 0 .48.09 1.38.45.9.36.43 0 .9.36.71.31 1.45.53 2.22.64 0 0 3.34.16 3.47-.64.13-.81 1.8.64 1.8.64s4.54-.64 6.29-.64 6.14-.36 6.14-.36 3.6.48 3.77.48c.17 0 .76.94 1.4.52.65-.41 1.26-.88 2.03-.76.7.17 1.39.43 2.03.76l1.68-.88 1.92.12s1.96 1.3 3.35.76c1.07-.42 2.11-.91 3.12-1.45l1.72 1.45h1.13l3.34-.64c.26.31.6.54.99.66s.81.11 1.2-.02c1.41-.4 14.95 0 18.39 0 3.44 0 4.2-.88 4.2-.88l2.65.88h13.2" opacity=".7"/></g><path fill="#000" d="M211.72 86.7c-.73 2.16-1.26 3.46-1.26 3.46h-123s-.6-1.26-1.42-3.46h125.68ZM214.28 77.61c-.41 1.8-.87 3.56-1.32 5.11H84.7c-.44-1.52-.9-3.24-1.29-5.11h130.87Z" opacity=".2"/><path stroke="#263238" stroke-linejoin="round" d="M87.46 90.16a64.597 64.597 0 0 1-5.4-25.11h133.83c0 11.63-5.43 25.11-5.43 25.11h-123Z"/><path fill="#757575" fill-rule="evenodd" d="M70.33 61.09H74V86.7h-3.67V61.09Z"/><path fill="#000" fill-rule="evenodd" d="M70.36 79.11h3.57v7.59h-3.57v-7.59Z" opacity=".2"/><path stroke="#263238" stroke-linejoin="round" d="M74 61.09V86.7h-3.67V61.09H74Z"/><path fill="#757575" fill-rule="evenodd" d="M223.9 61.09h3.67V86.7h-3.67V61.09Z"/><path fill="#000" fill-rule="evenodd" d="M223.87 79.11h3.7v7.59h-3.7v-7.59Z" opacity=".2"/><path stroke="#263238" stroke-linejoin="round" d="M227.57 61.09V86.7h-3.67V61.09h3.67Z"/><path fill="#999" d="M223.93 60.02V78.7H73.97V60.02h-1.44v19.93h152.84V60.02h-1.44Z"/><path stroke="#263238" stroke-linejoin="round" d="M223.93 78.7H73.97V60.02h-1.44v19.93h152.84V60.02h-1.44V78.7Z"/><path fill="#FFF" d="M232.8 91.48v41.89c0 .71-.29 1.38-.78 1.88-.5.5-1.18.78-1.89.78H67.75a2.665 2.665 0 0 1-2.66-2.66V91.48a2.665 2.665 0 0 1 2.66-2.66h74.82v2.66s-12.77 11.09-34.8 15.17c3.16 14.29 20.4 25.2 41.21 25.2 20.81 0 38.05-10.92 41.22-25.2-22.06-4.08-34.83-15.17-34.83-15.17V88.8h74.78c.35 0 .7.07 1.02.21a2.625 2.625 0 0 1 1.43 1.45c.13.33.2.67.2 1.02Z"/><path stroke="#263238" stroke-linejoin="round" d="M232.8 133.37c0 .71-.29 1.38-.78 1.88-.5.5-1.18.78-1.89.78H67.75a2.665 2.665 0 0 1-2.66-2.66V91.48a2.665 2.665 0 0 1 2.66-2.66h74.82v2.66s-12.77 11.09-34.8 15.17c3.16 14.29 20.4 25.2 41.21 25.2 20.81 0 38.05-10.92 41.22-25.2-22.06-4.08-34.83-15.17-34.83-15.17V88.8h74.78c.35 0 .7.07 1.02.21a2.625 2.625 0 0 1 1.43 1.45c.13.33.2.67.2 1.02v41.89Z"/><path fill="#FFF" d="M232.8 91.48v41.89c0 .35-.07.7-.21 1.02-.13.32-.33.62-.58.86-.24.25-.54.45-.86.58-.33.14-.67.2-1.02.2H67.75c-.35 0-.69-.06-1.02-.2-.32-.13-.62-.33-.86-.58-.25-.24-.45-.54-.58-.86-.14-.32-.21-.67-.21-1.02V91.48c0-.7.29-1.38.79-1.88s1.18-.79 1.88-.79h74.82v2.67s-12.78 11.08-34.8 15.17c3.16 14.29 20.4 25.2 41.22 25.2 20.81 0 38.04-10.92 41.21-25.2-22.06-4.09-34.83-15.17-34.83-15.17V88.8h74.78c.71 0 1.38.29 1.88.79.49.51.77 1.19.77 1.89Z"/><path fill="#FFF" d="M229.2 92.13v38.67c0 .25-.06.51-.15.74-.1.24-.25.46-.43.64s-.4.32-.64.42c-.23.1-.49.15-.75.15H69.35c-.26 0-.51-.05-.75-.15a1.922 1.922 0 0 1-1.05-1.06c-.1-.23-.15-.49-.15-.74V92.13c0-.26.05-.52.15-.75.09-.24.24-.46.42-.64s.39-.33.63-.43c.24-.09.49-.15.75-.15h73.2v1.32s-12.78 11.08-34.8 15.17c3.16 14.29 20.4 25.2 41.21 25.2 20.82 0 38.05-10.92 41.21-25.2-22.05-4.09-34.83-15.17-34.83-15.17v-1.32h71.91c.52.01 1.01.22 1.38.58.36.37.57.87.57 1.39Z" opacity=".2"/><path stroke="#263238" stroke-linejoin="round" d="M232.8 133.37c0 .35-.07.7-.21 1.02-.13.32-.33.62-.58.86-.24.25-.54.45-.86.58-.33.14-.67.2-1.02.2H67.75c-.35 0-.69-.06-1.02-.2-.32-.13-.62-.33-.86-.58-.25-.24-.45-.54-.58-.86-.14-.32-.21-.67-.21-1.02V91.48c0-.7.29-1.38.79-1.88s1.18-.79 1.88-.79h74.82v2.67s-12.78 11.08-34.8 15.17c3.16 14.29 20.4 25.2 41.22 25.2 20.81 0 38.04-10.92 41.21-25.2-22.06-4.09-34.83-15.17-34.83-15.17V88.8h74.78c.71 0 1.38.29 1.88.79.49.51.77 1.19.77 1.89v41.89Z"/><path fill="#000" fill-opacity=".7" d="m179.16 148.45 7.97 22.24s3.45-24.48 5.51-24.48c2.06 0 6.49 13.39 6.49 13.39s2.74-6.99 5.33-7.24 4.94 17.15 4.94 17.15l.4 38.62-3.27 58.41s-20.86-22.98-26.95-28.9c-6.08-5.92-11.9-18.96-13.58-21.6-1.68-2.65-2.1-16.5-2.1-16.5 2.12-2.72 3.24-6.1 3.14-9.55 0 0 4.9-8.2 4.6-14.25-.3-6.05-1.06-29.55 7.52-27.29Z" opacity=".2"/><path fill="#FFF" d="m241.92 256.2-31.58 16.61c0-.17-4.15-6.89-9.17-14.5a380.72 380.72 0 0 0-7.04-10.34c-3.8-5.36-8.64-9.98-9.05-10.99-1.2-3-10.45-14.23-12.52-18.6-2.07-4.37-2.55-17.96-3.46-21.16-.91-3.2 1.7-6.25 3.8-7.74 2.1-1.49 4.31-5.4 4.31-5.4s-2.33-9.05-2.35-13.65c-.02-4.6-1.59-20.66.28-22.16s3.55-.87 4.02.16c1.53 3.4 2.91 11.96 4.09 15.9 1.19 3.94 3.41 15.38 4.5 16.2 1.09.82 3.03-2.26 3.03-2.26s.19-9.6.6-13.58l-.6-12.6s-1.12-7.57 1.49-8.29c3.6-.99 4.92 1.27 5.32 2.22.41.96 2.09 6.45 2.09 6.45l.1.38v.18c.03.11.06.22.09.34.06.26.14.55.23.9.79 3.12 2.33 9.38 2.26 10.92-.09 2.09-.81 13.62.21 16.01l1.6-15.93s-2.57-12.27-1.82-14.04c.75-1.77 4.28.18 4.7.88.42.69 3.85 4.91 4.46 6.51l.6 1.61s.85-3.8 2.84-2.81c1.98.99 2.23 5.82 2.37 7.94.13 2.11 1.57 15.69 1.8 15.72.22.02 2.51 7.08 2.2 11.74-.66 9.98 1.07 17.4 1.13 21.23.06 3.82-2.82 12.69-2.82 12.69.1.18 1.98 3.38 2.5 6.19.38 2.07 7.1 9.53 12.6 15.46 3.82 4.09 7.02 7.44 7.19 7.81Z"/><path fill="#FFF" d="M201.18 258.32c-2.27-3.44-4.72-7.06-7.04-10.34-3.81-5.36-8.64-9.98-9.06-10.99-1.2-3-10.45-14.23-12.52-18.6-2.07-4.37-2.54-17.96-3.45-21.16-.92-3.19 1.7-6.25 3.8-7.74 2.1-1.48 4.3-5.4 4.3-5.4s-2.32-9.04-2.34-13.65c-.03-4.6-1.59-20.66.28-22.16s3.54-.87 4.01.16c1.54 3.4 2.92 11.96 4.1 15.9 1.18 3.94 3.4 15.38 4.49 16.2 1.1.82 3.04-2.26 3.04-2.26s.19-9.6.6-13.58l-.6-12.6s-1.12-7.57 1.49-8.29c3.6-.99 4.91 1.27 5.32 2.22.41.96 2.09 6.46 2.09 6.46l.09.37v.18c.03.11.06.22.09.35.07.25.15.55.23.89-.93-1.47-2.21-2.72-3.92-3.05-4.8-.94-3.76 4.4-3.3 7.6.26 2.13.21 4.28-.15 6.39l1.2-.69c-.87 1.55-2.1 14.36-2.1 17.21 0 2.85-2.26 3.8-4.28 2.97-2.02-.84-2.74-13.92-4.28-16.26-1.53-2.35-5.81 2.13-6 6.23-.19 4.1 3.63 16.32 2.73 19.2-.91 2.88-.9 13.8-.9 13.8l-1.1-2.81c.07.38 0 1.67-2.31 5.47-.87 1.37-1.43 2.92-1.65 4.53-.21 1.61-.08 3.25.39 4.8 1.41 3.12 8.57 11.33 9.77 12.17 0 0 .87-3.56 3.6-2.61-.93 1.47-1.61 3.1-2.01 4.8-.56 2.61 5.13 4.29 6.91 6.78 1.1 1.51 1.83 6.14 8.48 17.51ZM234.76 248.4c-5.61-5.66-15.49-11.05-14.89-12.46.8-1.9-.22-5.93-1.95-9.21-1.73-3.28.6-8.59.6-8.59l1.07 3.09c.85-3.57.95-7.27.29-10.87-1.09-6.13-1.94-3.98-1.94-3.98s.22-5.52 1.2-8.53 1.8-10.32.45-14.65-4.2-3.51-4.96-2.02c-.76 1.49.05 7.29.68 9.19.63 1.9-2.05 5.1-2.1 2.72-.06-2.37-1.07-9-1.07-9l2.03-13.3-2.03-10.56s.84-3.81 2.83-2.82c1.99.99 2.23 5.83 2.37 7.94.14 2.11 1.58 15.7 1.8 15.72.22.02 2.51 7.08 2.2 11.74-.65 9.98 1.08 17.4 1.14 21.23.06 3.83-2.83 12.7-2.83 12.7.1.17 1.99 3.37 2.5 6.19.38 2.06 7.11 9.52 12.6 15.45l.01.02ZM211.51 158.62c.12.3.21.55.29.75-1.91-4.44-5.16-3.06-5.74-1.8-.58 1.26 1.36 9.08 1.8 10.29.44 1.21-1.74 10.89-2.06 14.09-.32 3.21-1.16 3.86-1.16 3.86-2.16.16-2.4-5.78-2.4-6.6.04.68.17 1.36.39 2l1.6-15.93s-2.63-12.28-1.88-14.05c.75-1.77 4.28.18 4.7.88.42.69 3.85 4.91 4.46 6.51Z" opacity=".4"/><path stroke="#263238" stroke-linecap="round" stroke-linejoin="round" d="M241.92 256.2c-.41-.93-19.14-19.8-19.8-23.27-.53-2.89-2.51-6.2-2.51-6.2s2.89-8.85 2.83-12.7c-.06-3.84-1.8-11.25-1.13-21.22.31-4.67-1.98-11.72-2.21-11.75-.22-.02-1.66-13.6-1.8-15.72-.13-2.11-.37-6.95-2.37-7.93-1.99-.99-2.83 2.81-2.83 2.81l-.6-1.61c-.6-1.61-4.04-5.82-4.46-6.51-.42-.7-3.95-2.66-4.71-.89-.75 1.78 1.88 14.04 1.88 14.04l-1.58 15.95c-1.03-2.4-.3-13.93-.21-16.01.09-2.08-2.73-12.72-2.73-12.72s-1.69-5.47-2.09-6.46c-.4-.98-1.72-3.21-5.32-2.23-2.61.72-1.49 8.3-1.49 8.3l.6 12.6c-.4 3.99-.6 13.58-.6 13.58s-1.94 3.07-3.04 2.26c-1.09-.82-3.31-12.25-4.49-16.2-1.18-3.96-2.56-12.5-4.1-15.9-.47-1.03-2.14-1.67-4.01-.17-1.87 1.5-.31 17.56-.28 22.17.03 4.61 2.34 13.65 2.34 13.65s-2.2 3.89-4.3 5.4c-2.1 1.51-4.72 4.54-3.8 7.74.91 3.2 1.38 16.8 3.45 21.16 2.07 4.35 11.3 15.6 12.52 18.6.42 1 5.25 5.63 9.06 10.99 7.47 10.52 16.2 24.6 16.2 24.84"/><path stroke="#263238" stroke-linecap="round" stroke-linejoin="round" d="M177.21 184.1s1.48 7.37 1.43 8.61c0 0-1.3 5.69-1.31 9.38-.92 1.39-1.73 2.84-2.45 4.34-.51 1.33-1.41 4.61-1.03 6.43"/><path stroke="#263238" stroke-linecap="round" stroke-linejoin="round" d="M174.49 195s3.65.03 3.41 1.56M177.33 202.09s-2.34-1.01-3.17.35M190.8 178.28s-.17 5.65-1.66 5.2M202.63 181.2s-.43 3.09.73 4.04M212.12 160.23s1.62 7.8 1.99 9.65c.37 1.85-1.84 11.28-1.8 13.73.04 2.46 1.09 5.97.95 7.62M218.59 219.47s-.52 5.09 1.04 7.27M187.13 229.55s-3.49 3.18-2.21 7.09M210.08 189.9c.05 2.25-1.26 4.86-1.4 7.96M198.96 187.9c.74 1.83-.88 5.83-1.13 7.33-.1 1.17.03 2.35.38 3.48M219.87 194.22c-.3 1.95-1.68 3.34-1.95 9.34M185.8 187.33c1.01 1.1.33 6.34.6 7.2M204.6 157.12s3.43-2.52 6.38.45M192.78 151.34s.6-1 3.49-.76c2.9.25 3.42 1.88 3.42 1.88"/><path fill="#FFF" d="M184.31 168.47s-.97-1.43-3.53-.96c-2.57.47-3.71 4.1-3.71 4.1l7.24-3.14Zm.39-.29.02.01c.16.23.1.54-.13.69-.23.16-.54.1-.69-.13v-.03l.8-.54Zm-7.16 3.55.01.03c-.08.26-.36.41-.63.32a.486.486 0 0 1-.32-.62l.02-.02.92.29Z"/><path stroke="#263238" stroke-linecap="round" stroke-linejoin="round" d="M184.31 168.47s-.97-1.43-3.53-.96c-2.57.47-3.71 4.1-3.71 4.1M219.12 181.08s-2.13-3.1-4.7-1.77"/><path fill="#000" fill-opacity=".7" d="M128.13 158.39c3.6 2.8.56 19.92.56 19.92l.32 5.57 6.17-2.68 2.82 11.91s-.08 4.36 2.21 6c0 0 .56 9.78 0 16.93-.57 7.16-12 15.56-15.94 23.07-3.94 7.5-29.65 29.57-29.65 29.57l-21.77-10.36 15.73-63.56 14.11-18.13 8.35-20.85s1.44 13.62.6 22.8l16.49-20.19Z" opacity=".2"/><path fill="#FFF" d="M134.19 196.44c-.55 2.62.76 17.03.54 18.97-.23 1.95-11.69 15-12.27 15.99-.57.99-8.24 5.4-10.02 7.51-8.33 9.71-12.88 18.66-16.53 27.63-.7 1.73-1.37 3.46-2.03 5.2l-33.05-19.2c2.78-3.44 5.4-6.5 7.8-9.29 4.8-5.64 8.62-10.16 10.49-14.43.58-1.09 1.24-2.13 1.97-3.12.74-1.05 1.41-1.92 1.41-1.92s-2.4-6.76-1.84-8.89c.56-2.12-.69-19.58-.69-19.58s-1.63-11.89-3.23-14.89c-.39-.78-.57-1.66-.51-2.53.07-2.74 1.66-6.2 2.44-10.2 1.05-5.4.54-8.07 3.82-6.2 3.28 1.86 1.74 13.2 1.74 13.2l4.95 10.96c1.31-2.65 0-10.39-.06-12.22 0-.3 0-.8-.05-1.44-.1-3.16-.31-9.73-.04-12.32 0-.15 0-.28.05-.4.4-2.67 1.83-11.19 2.75-12.14 1.35-1.4 3.5-2.58 5.53.6 1.14 1.8.65 16.08.65 16.08s4.71-5.68 6.13-7.06c1.43-1.39 5.76-3.92 6.92-.99 1.16 2.94-3.11 12-3.11 12 .89 2.1 1 7.92 1 7.92s2.02 7.26 3.26 7.2h.06c.36-.08.75-1.4 1.17-3.26 1.02-4.54 2.13-12.31 3-12.99l.6-.48c.02-.03.06-.06.09-.09l.23-.19c2.12-1.89 6.6-6.09 6.6-6.09s.31-2.01 4.23-1.4c3.92.62-1.74 12.18-1.74 12.18-.78 3.68-1.99 13.14-1.99 13.14-.37 3.94-.15 14.52-.15 14.52s1.85-6.16 1.73-8.4c-.12-2.25 3.69-7.74 4.8-9.16 1.12-1.41 6.1-.92 4.71 1.8-1.38 2.72-.82 11.34-1.36 13.98Z"/><path fill="#FFF" d="M79.11 228.85a24.02 24.02 0 0 1 1.96-3.12s-1.95 5.4-2.14 8.27c-.12 1.9-5.12 5.18-10.32 9.28 4.83-5.65 8.62-10.17 10.5-14.43ZM81.07 225.73c.75-1.06 1.41-1.93 1.41-1.93s-2.4-6.76-1.84-8.88c.56-2.13-.69-19.59-.69-19.59s-1.62-11.88-3.23-14.88l3.74 6.52s-.37 5.15.69 7.98c1.06 2.82 2.4 11.45 2.4 11.45s-1.57 7.24-1.04 9.85c.54 2.61 2.94 1.67 2.94 1.67s1.19 4.77-4.38 7.81ZM89.78 176.63c2.57 15.07-1.86 10.9-3.46 7.65-1.61-3.25-5.37-9.41-8.2-8.09-.79.37-1.46.97-1.91 1.72.08-2.74 1.66-6.19 2.45-10.2 1.04-5.4.53-8.07 3.81-6.2 3.28 1.87 1.75 13.2 1.75 13.2l4.95 10.97c1.3-2.65 0-10.39-.07-12.22 0-.3 0-.8-.05-1.45.2 1.39.44 2.93.73 4.62ZM96.08 161.74s-2.78-3.64-5.19-3.45a2.114 2.114 0 0 0-1.88 1.38c0-.14 0-.27.05-.39.4-2.68 1.83-11.19 2.75-12.14 1.35-1.4 3.51-2.59 5.54.6 1.13 1.8.64 16.07.64 16.07s4.71-5.67 6.14-7.06c1.42-1.38 5.76-3.92 6.91-.98 1.16 2.93-3.11 12-3.11 12 .89 2.1 1 7.91 1 7.91s2.02 7.27 3.27 7.2c-2.74 5.15-4.56-6.23-4.56-6.23.4-2.35-1.05-7.45-.9-8.8.14-1.34-2.52-6.1-7.01-4.8-4.49 1.3-1.25 19.03-1.25 19.03a9.947 9.947 0 0 0-1.5 4.7c-1.39-1.71 0-6.6 0-6.6-1.23-4.68-.9-18.44-.9-18.44ZM117 166.14c-1.92 2.01-1.65 7.09-3.6 13.47 1.02-4.55 2.13-12.32 3-12.99l.6-.48ZM134.19 196.44c-.55 2.62.76 17.03.54 18.97-.23 1.95-11.69 15-12.27 15.99-.57.99-8.24 5.4-10.02 7.51-8.33 9.71-12.88 18.66-16.53 27.63 1.38-4.65 3.04-9.21 4.98-13.66 3.94-8.86 5.55-10.44 7.91-12.97 2.36-2.53 2.11-7.91 2.11-7.91 1.74-.42 3.53-.63 5.32-.63 3 0 11.88-12.66 14.94-14.88 3.05-2.22 3.6-2.22 0-7.12-3.6-4.89-2.58.79-3.66.6-1.08-.18-1.67 2.18-1.67 2.18-.38-4.99-3.6-10.8-4.28-12.25-.68-1.45 1.65-9.97 1.17-12.34-.48-2.37 2.06-16.8 2.06-16.8s-.32-5.54-5.33-5.55c-.77-.05-1.53.18-2.15.64 2.12-1.89 6.6-6.09 6.6-6.09s.32-2.01 4.23-1.39c3.92.62-1.74 12.18-1.74 12.18-.78 3.68-1.99 13.14-1.99 13.14-.36 3.94-.15 14.52-.15 14.52s1.86-6.16 1.74-8.4c-.12-2.25 3.68-7.74 4.8-9.16 1.11-1.42 6.09-.92 4.7 1.8-1.38 2.72-.77 11.35-1.31 13.99Z" opacity=".4"/><path stroke="#263238" stroke-linecap="round" stroke-linejoin="round" d="M93.87 271.79c4.08-10.75 8.63-21.25 18.57-32.85 1.8-2.08 9.44-6.49 10.02-7.51.58-1.02 12.04-14.05 12.27-15.99.22-1.93-1.09-16.35-.54-18.97.54-2.63-.09-11.3 1.29-14 1.38-2.7-3.6-3.19-4.71-1.8-1.11 1.4-4.91 6.94-4.8 9.16.1 2.22-1.74 8.4-1.74 8.4s-.21-10.58.15-14.51c0 0 1.2-9.47 1.99-13.14 0 0 5.66-11.57 1.74-12.19-3.91-.61-4.23 1.4-4.23 1.4s-6.25 5.87-7.48 6.83c-1.24.96-2.93 15.96-4.17 16.24-1.24.28-3.32-7.2-3.32-7.2s-.1-5.82-1-7.92c0 0 4.27-9.04 3.12-12-1.16-2.96-5.49-.39-6.92.99-1.44 1.38-6.13 7.06-6.13 7.06s.48-14.29-.65-16.07c-2.03-3.2-4.2-2.02-5.54-.6-.91.94-2.35 9.46-2.75 12.13-.4 2.68 0 12.33.04 14.16.04 1.84 1.37 9.57.07 12.23l-4.95-10.97s1.54-11.35-1.75-13.2c-3.28-1.86-2.77.82-3.81 6.2-1.05 5.38-3.53 9.76-1.93 12.76 1.59 3.01 3.22 14.89 3.22 14.89s1.24 17.46.69 19.58c-.54 2.13 1.86 8.9 1.86 8.9s-2.77 3.65-3.37 5.04c-2.8 6.36-9.87 13.3-18.29 23.76"/><path stroke="#263238" stroke-linecap="round" stroke-linejoin="round" d="M97.99 163.83a5.856 5.856 0 0 0-1 3.49c0 2.28 1.49 14.76 1.49 14.76s-1.09 1.29-1.14 2.4M124.24 198.2c.17 2.11.71 4.17 1.61 6.08 1.4 2.78.94 4.31.46 5.94-.32 1.44-.49 2.91-.51 4.38M89.7 183.19s1.04 3.32-.9 4.89M112.25 182.86s.2 1.3-1.64 1.42M124.62 167.86s-4.62-5.04-8.21-1.24"/><path stroke="#263238" stroke-linecap="round" stroke-linejoin="round" d="M105.9 165.03s-2.13-2.7-3.98-2.54c-1.84.17-4.34 1.29-4.62 2.78M126.71 208.6c.74 1.07 1.29 2.26 1.6 3.53M114.71 188.12c-1.43 2.67-.75 7.2-1.28 8.44M99.52 183.69c.33 1.53-.73 4.03-.89 5.88-.16 1.84 1.34 4.68 1.07 7.27M89.78 189.97s-1.26 2.9-1.2 4.8c.05 1.91.73 6.09.73 6.09M80.56 189.84s-.46 3 .6 5.11c1.05 2.11 2.08 6.6 2.08 6.6M82.48 223.8c.56-.16 1.05-.47 1.42-.91.37-.44.6-.98.67-1.55M112.65 232.94s1.14 4.24-1.05 6.97M76.24 177.41s3.23-3.15 5.67-.49M89.06 159.28s2.4-2.52 5.21.17"/></g></svg>